<?xml version="1.0" encoding="utf-8"?>
<!-- Generator: Adobe Illustrator 26.4.1, SVG Export Plug-In . SVG Version: 6.00 Build 0)  -->
<svg version="1.1" id="Layer_1" xmlns="http://www.w3.org/2000/svg" xmlns:xlink="http://www.w3.org/1999/xlink" x="0px" y="0px"
	 viewBox="0 0 40 40" style="enable-background:new 0 0 40 40;" xml:space="preserve">
<style type="text/css">
	.st0{fill:#B4B7C9;}
</style>
<path class="st0" d="M30.5,8h-21c-1.2,0.1-2.2,1-2.2,2.3v14.9c0,1.2,1,2.2,2.2,2.2H16l-1,3h-2.4c-0.4,0-0.8,0.3-0.8,0.8
	s0.3,0.8,0.8,0.8h14.9c0.4,0,0.8-0.3,0.8-0.8s-0.3-0.8-0.8-0.8H25l-1-3h6.5c1.2,0,2.2-1,2.2-2.2V10.3C32.7,9.1,31.7,8.1,30.5,8z
	 M16.6,30.4l1-3h4.9l1,3H16.6z M31.3,25.2c0,0.4-0.3,0.8-0.8,0.8h-21c-0.4,0-0.8-0.3-0.8-0.8v-0.8h22.4
	C31.3,24.5,31.3,25.2,31.3,25.2z M15.4,18.7L14.7,18l1.1-1.1l0.7,0.7c0.3,0.3,0.6,0.3,0.9,0.1c0.4-0.3,0.9-0.4,1.3-0.6
	c0.3-0.1,0.6-0.4,0.6-0.7v-1h1.5v1c0,0.3,0.3,0.6,0.6,0.7c0.4,0.1,0.9,0.3,1.3,0.6c0.3,0.2,0.6,0.1,0.9-0.1l0.7-0.7l1.1,1.1
	l-0.8,0.7c-0.3,0.3-0.3,0.6-0.1,0.9c0.3,0.4,0.4,0.9,0.6,1.3c0.1,0.3,0.4,0.6,0.7,0.6h1V23h-3.1c0.1-0.3,0.1-0.5,0.1-0.8
	c0-2-1.7-3.8-3.8-3.8c-2,0-3.8,1.7-3.8,3.8c0,0.3,0,0.5,0.1,0.8h-2.9v-1.5h1c0.3,0,0.6-0.3,0.7-0.6c0.1-0.4,0.3-0.9,0.6-1.3
	C15.7,19.3,15.7,18.9,15.4,18.7z M22.2,22.2c0,0.3-0.1,0.5-0.1,0.8h-4.2c-0.1-0.3-0.1-0.5-0.1-0.8c0-1.2,1-2.2,2.2-2.2
	S22.2,21,22.2,22.2z M31.3,23h-3.1v-2.2c0-0.4-0.3-0.8-0.8-0.8h-1.1c-0.1-0.2-0.2-0.4-0.3-0.6l0.8-0.8c0.3-0.3,0.3-0.8,0-1.1
	l-2.1-2.1c-0.3-0.3-0.8-0.3-1.1,0l-0.8,0.8c-0.2-0.1-0.4-0.2-0.6-0.3v-1.1c0-0.4-0.3-0.8-0.8-0.8h-3c-0.4,0-0.8,0.3-0.8,0.8v1.1
	c-0.2,0.1-0.4,0.2-0.6,0.3l-0.8-0.8c-0.3-0.3-0.8-0.3-1.1,0l-2.1,2.1c-0.3,0.3-0.3,0.8,0,1.1l0.8,0.8c-0.1,0.2-0.2,0.4-0.3,0.6h-1.1
	c-0.4,0-0.8,0.3-0.8,0.8V23H8.7V10.3c0-0.4,0.3-0.8,0.8-0.8h21c0.4,0,0.8,0.3,0.8,0.8L31.3,23z M27.4,11c-1.2,0-2.2,1-2.2,2.2
	s1,2.2,2.2,2.2s2.2-1,2.2-2.2S28.7,11,27.4,11z M27.4,14c-0.4,0-0.8-0.3-0.8-0.8c0-0.4,0.3-0.8,0.8-0.8c0.4,0,0.8,0.3,0.8,0.8
	C28.2,13.7,27.9,14,27.4,14z"/>
</svg>
