<?xml version="1.0" encoding="utf-8"?>
<!-- Generator: Adobe Illustrator 26.4.1, SVG Export Plug-In . SVG Version: 6.00 Build 0)  -->
<svg version="1.1" id="Layer_1" xmlns:v="https://vecta.io/nano"
	 xmlns="http://www.w3.org/2000/svg" xmlns:xlink="http://www.w3.org/1999/xlink" x="0px" y="0px" viewBox="0 0 48 48"
	 style="enable-background:new 0 0 48 48;" xml:space="preserve">
<style type="text/css">
	.st0{clip-path:url(#SVGID_00000067220273465635210060000014679658747482436539_);}
	.st1{fill:#B4B7C9;}
</style>
<g>
	<defs>
		<rect id="SVGID_1_" x="8" y="8" width="32" height="32"/>
	</defs>
	<clipPath id="SVGID_00000159468797651620534750000008016056745975589012_">
		<use xlink:href="#SVGID_1_"  style="overflow:visible;"/>
	</clipPath>
	<g style="clip-path:url(#SVGID_00000159468797651620534750000008016056745975589012_);">
		<path class="st1" d="M24,14.8c-5.1,0-9.2,4.1-9.2,9.2c0,5.1,4.1,9.2,9.2,9.2c5.1,0,9.2-4.1,9.2-9.2C33.2,18.9,29.1,14.8,24,14.8z
			 M24,31.2c-4,0-7.2-3.2-7.2-7.2s3.2-7.2,7.2-7.2s7.2,3.2,7.2,7.2S28,31.2,24,31.2z M39,20.4h-2.2c-0.3-1-0.7-2-1.2-2.9l1.5-1.5
			c0.4-0.4,0.4-1,0-1.4l-3.7-3.7c-0.4-0.4-1-0.4-1.4,0l-1.5,1.5c-0.9-0.5-1.9-0.9-2.9-1.2V9c0-0.6-0.4-1-1-1h-5.2c-0.6,0-1,0.4-1,1
			v2.2c-1,0.3-2,0.7-2.9,1.2L16,10.8c-0.4-0.4-1-0.4-1.4,0l-3.7,3.7c-0.4,0.4-0.4,1,0,1.4l1.5,1.5c-0.5,0.9-0.9,1.9-1.2,2.9H9
			c-0.6,0-1,0.4-1,1v5.2c0,0.6,0.4,1,1,1h2.2c0.3,1,0.7,2,1.2,2.9L10.8,32c-0.4,0.4-0.4,1,0,1.4l3.7,3.7c0.4,0.4,1,0.4,1.4,0
			l1.5-1.5c0.9,0.5,1.9,0.9,2.9,1.2V39c0,0.6,0.4,1,1,1h5.2c0.6,0,1-0.4,1-1v-2.2c1-0.3,2-0.7,2.9-1.2l1.5,1.5c0.4,0.4,1,0.4,1.4,0
			l3.7-3.7c0.4-0.4,0.4-1,0-1.4l-1.5-1.5c0.5-0.9,0.9-1.9,1.2-2.9H39c0.6,0,1-0.4,1-1v-5.2C40,20.8,39.6,20.4,39,20.4L39,20.4z
			 M38,25.6h-1.9c-0.5,0-0.9,0.3-1,0.8c-0.3,1.3-0.8,2.6-1.5,3.7c-0.3,0.4-0.2,0.9,0.1,1.2l1.4,1.4L32.8,35l-1.4-1.4
			c-0.3-0.3-0.9-0.4-1.2-0.1c-1.1,0.7-2.4,1.3-3.7,1.5c-0.5,0.1-0.8,0.5-0.8,1V38h-3.2v-1.9c0-0.5-0.3-0.9-0.8-1
			c-1.3-0.3-2.6-0.8-3.7-1.5c-0.4-0.3-0.9-0.2-1.2,0.1L15.2,35L13,32.8l1.4-1.4c0.3-0.3,0.4-0.9,0.1-1.2c-0.7-1.1-1.3-2.4-1.5-3.7
			c-0.1-0.5-0.5-0.8-1-0.8H10v-3.2h1.9c0.5,0,0.9-0.3,1-0.8c0.3-1.3,0.8-2.6,1.5-3.7c0.3-0.4,0.2-0.9-0.1-1.2L13,15.2l2.3-2.3
			l1.4,1.4c0.3,0.3,0.9,0.4,1.2,0.1c1.1-0.7,2.4-1.3,3.7-1.5c0.5-0.1,0.8-0.5,0.8-1V10h3.2v1.9c0,0.5,0.3,0.9,0.8,1
			c1.3,0.3,2.6,0.8,3.7,1.5c0.4,0.3,0.9,0.2,1.2-0.1l1.4-1.4l2.3,2.3l-1.4,1.4c-0.3,0.3-0.4,0.9-0.1,1.2c0.7,1.1,1.3,2.4,1.5,3.7
			c0.1,0.5,0.5,0.8,1,0.8H38V25.6L38,25.6z M27,25.8c0,1.2-0.8,2.3-2,2.6l0,0.2c0,0.6-0.4,1-1,1c0,0,0,0,0,0h0c-0.5,0-1-0.4-1-1
			l0-0.2c-0.6-0.2-1-0.5-1.4-0.9c-0.4-0.4-0.4-1,0-1.4c0.4-0.4,1-0.4,1.4,0c0.4,0.4,0.6,0.5,1,0.5c0.6,0,1-0.4,1-0.8S24.6,25,24,25
			c-1.7,0-3-1.3-3-2.8c0-1.2,0.8-2.3,2-2.7l0-0.3c0-0.6,0.4-1,1-1c0,0,0,0,0,0c0,0,0,0,0,0c0.5,0,1,0.4,1,1l0,0.3
			c0.6,0.2,1.3,0.6,1.7,1.1c0.3,0.5,0.2,1.1-0.3,1.4c-0.5,0.3-1.1,0.2-1.4-0.3c0,0,0,0,0,0c-0.1-0.2-0.7-0.4-1-0.4
			c-0.6,0-1,0.4-1,0.8s0.5,0.8,1,0.8C25.7,23,27,24.3,27,25.8L27,25.8z"/>
	</g>
</g>
</svg>
