<?xml version="1.0" encoding="UTF-8"?><svg id="Layer_2" xmlns="http://www.w3.org/2000/svg" viewBox="0 0 117 117"><defs><style>.cls-1{fill:#e9f6f6;}.cls-2{fill:#fdfdfd;}.cls-3{fill:#add;}.cls-4{fill:#06ffd5;}.cls-5{fill:#1a2959;}</style></defs><g id="Layer_1-2"><g><path class="cls-5" d="M84.78,117c-.2-.42-.64-.34-.97-.47-3.44-1.33-5.46-3.83-5.8-7.49-.11-1.12-.47-1.2-1.4-1.2-23.12,.02-46.23,.02-69.35,.02-3.74,0-6.52-2.22-7.16-5.73-.1-.52-.1-1.06-.1-1.59C0,69.47,0,38.39,0,7.32,0,2.9,2.88,0,7.27,0c8.8,0,17.59,0,26.39,0,.3,0,.61-.02,.91,.03,1.15,.16,2,1.15,1.98,2.29-.02,1.09-.83,2.05-1.93,2.22-.37,.06-.76,.03-1.14,.03-8.61,0-17.21,0-25.82,0-2.37,0-3.1,.71-3.1,3.03,0,30.88,0,61.77,0,92.65,0,2.29,.73,3.03,2.98,3.03,23.08,0,46.16,0,69.23,.02,.95,0,1.18-.22,1.17-1.17-.05-4.84-.01-9.67-.03-14.51,0-1.32,.31-2.5,1.23-3.45,.34-.35,.38-.7,.38-1.12,0-1.6-.03-3.2,.01-4.8,.02-.59-.16-.84-.75-1.02-11.9-3.58-19.22-11.44-21.99-23.55-.18-.81-.05-2.03-.52-2.34-.65-.42-1.75-.17-2.66-.17-3.05,0-6.09,0-9.14,0-1.68,0-2.68-.86-2.68-2.28,0-1.42,.99-2.28,2.68-2.28,3.47,0,6.93-.06,10.4,.03,1.12,.03,1.42-.28,1.53-1.38,1.01-10.23,6-18.02,14.7-23.43,3.8-2.36,7.98-3.7,12.44-4.11,.83-.08,1.04-.33,1.02-1.15-.06-3.05-.02-6.09-.02-9.14,0-2.1-.78-2.87-2.92-2.87-8.64,0-17.29,0-25.93,0-.38,0-.77,.02-1.14-.03-1.16-.16-2-1.14-1.99-2.28,0-1.14,.87-2.1,2.03-2.24,.34-.04,.68-.02,1.03-.02,8.68,0,17.37,0,26.05,0,4.62,0,7.45,2.84,7.45,7.47,0,3.08,.03,6.17-.02,9.25-.01,.73,.21,.98,.92,1.05,12.52,1.26,23.75,10.84,26.43,24.3,.18,.9,.1,1.86,.56,2.71v6.63c-.62,1.38-.59,2.92-1.02,4.35-3.29,10.96-10.39,18.13-21.34,21.44-.77,.23-1,.53-.96,1.31,.07,1.37,.04,2.74,0,4.11-.02,.71,.08,1.28,.62,1.84,.7,.73,.99,1.69,.99,2.72,0,7.15,.03,14.3-.02,21.45-.02,3.55-2.52,6.78-5.87,7.92-.47,.16-1.05,.01-1.43,.44h-3.2Zm27.65-69.02c.03-14.22-11.5-25.8-25.72-25.84-14.23-.04-25.84,11.47-25.9,25.67-.06,14.24,11.54,25.9,25.79,25.94,14.16,.04,25.81-11.58,25.84-25.77Zm-29.93,50.28c0,3.31-.02,6.63,0,9.94,.02,2.44,1.83,4.25,4.16,4.23,2.28-.03,4.05-1.82,4.05-4.21,.02-6.66,0-13.33,.02-19.99,0-.66-.11-.94-.86-.92-2.17,.05-4.34,.05-6.51,0-.72-.02-.89,.22-.88,.91,.03,3.35,.01,6.7,.02,10.05Zm4.19-19.93c-.57-.03-1.14-.02-1.7-.11-.68-.11-.96,.07-.92,.81,.06,.98,.04,1.97,0,2.95-.02,.58,.13,.82,.75,.78,.75-.05,1.51-.01,2.27-.01,2.03,0,2.04,0,2.02-1.98,0-.83,.34-1.86-.16-2.42-.48-.53-1.5,.06-2.28-.03Z"/><path class="cls-5" d="M21.2,35.2c-1.94-.02-3.57-.67-4.91-1.97-1.96-1.92-3.9-3.85-5.82-5.82-1.81-1.86-1.79-4.37,0-6.23,1.08-1.12,2.2-2.22,3.31-3.31,1.99-1.96,4.5-2,6.46-.01,.66,.67,1.01,.73,1.66,0,1.28-1.41,2.66-2.72,4.02-4.05,2.04-2,4.5-1.99,6.56,.03,1.11,1.09,2.23,2.19,3.31,3.32,1.74,1.82,1.76,4.35,0,6.15-3.28,3.34-6.61,6.64-9.93,9.94-1.3,1.29-2.9,1.9-4.66,1.96Zm-.02-4.58c.7-.03,1.29-.42,1.81-.95,2.28-2.29,4.57-4.57,6.85-6.86,.83-.83,2.26-1.67,2.29-2.54,.04-.99-1.53-1.71-2.3-2.64-.54-.65-.86-.41-1.33,.07-1.84,1.88-3.69,3.73-5.56,5.57-1.25,1.23-2.43,1.23-3.68,.03-.58-.55-1.16-1.11-1.69-1.7-.41-.46-.7-.41-1.09,.02-.7,.75-1.43,1.48-2.18,2.18-.39,.36-.43,.6-.02,1,1.75,1.7,3.45,3.43,5.18,5.15,.45,.45,1,.68,1.71,.69Z"/><path class="cls-5" d="M20.72,65.36c-1.45-.01-3.08-.66-4.42-1.96-1.96-1.92-3.9-3.85-5.82-5.82-1.84-1.89-1.79-4.4,.07-6.31,1.06-1.09,2.15-2.16,3.23-3.23,1.99-1.96,4.51-2.01,6.46-.02,.65,.66,1,.75,1.66,.02,1.28-1.41,2.66-2.72,4.02-4.06,2.04-2.01,4.51-2,6.56,.02,1.11,1.09,2.23,2.19,3.31,3.32,1.74,1.82,1.77,4.35,0,6.15-3.31,3.37-6.66,6.7-10.02,10.01-1.28,1.27-2.91,1.87-5.06,1.89Zm.34-4.58c.68,0,1.26-.28,1.73-.75,3.04-3.03,6.07-6.08,9.13-9.11,.43-.43,.39-.7-.02-1.08-.7-.65-1.39-1.31-2.01-2.02-.49-.55-.8-.58-1.34-.02-1.85,1.92-3.74,3.79-5.64,5.66-1.17,1.15-2.35,1.16-3.52,.12-.81-.72-1.49-2.2-2.38-2.06-.92,.15-1.66,1.44-2.48,2.23-.05,.05-.1,.12-.16,.16-.47,.35-.47,.64-.02,1.07,1.72,1.67,3.4,3.38,5.1,5.07,.45,.45,.99,.7,1.63,.72Z"/><path class="cls-5" d="M21.15,95.53c-1.9-.03-3.5-.66-4.81-1.93-1.99-1.94-3.97-3.9-5.9-5.9-1.79-1.85-1.74-4.36,.07-6.22,1.06-1.09,2.15-2.16,3.23-3.23,2.04-2.02,4.52-2.06,6.54-.02,.62,.62,.96,.68,1.58,.01,1.32-1.43,2.72-2.77,4.11-4.13,2-1.95,4.47-1.94,6.47,.02,1.12,1.09,2.23,2.19,3.31,3.31,1.79,1.86,1.82,4.39,0,6.23-3.26,3.31-6.56,6.58-9.85,9.86-1.33,1.32-2.96,1.96-4.76,2Zm.04-4.58c.71-.04,1.29-.43,1.82-.96,2.28-2.29,4.57-4.57,6.85-6.86,.83-.83,2.26-1.68,2.29-2.54,.03-.99-1.53-1.72-2.31-2.64-.46-.54-.75-.53-1.25-.01-1.88,1.94-3.79,3.85-5.72,5.74-1.15,1.13-2.35,1.12-3.52,.02-.58-.55-1.16-1.1-1.69-1.7-.4-.45-.7-.59-1.17-.06-.68,.77-1.42,1.48-2.17,2.18-.4,.37-.41,.61,0,1,1.74,1.7,3.45,3.43,5.18,5.15,.45,.45,1,.67,1.7,.68Z"/><path class="cls-5" d="M53.24,21.03c-2.93,0-5.85,0-8.78,0-1.67,0-2.66-.88-2.65-2.3,0-1.41,1-2.26,2.69-2.26,5.93,0,11.86,0,17.79,0,1.67,0,2.66,.87,2.65,2.3-.01,1.42-.99,2.26-2.69,2.27-3,0-6,0-9.01,0Z"/><path class="cls-5" d="M53.35,76.79c2.96,0,5.93,0,8.89,0,1.69,0,2.68,.85,2.68,2.27,0,1.43-.98,2.3-2.65,2.3-5.93,0-11.86,0-17.79,0-1.68,0-2.68-.86-2.69-2.27,0-1.42,.98-2.29,2.66-2.3,2.96,0,5.93,0,8.89,0Z"/><path class="cls-5" d="M48.35,26.51c1.29,0,2.59-.02,3.88,0,1.49,.02,2.45,.92,2.45,2.27,0,1.35-.95,2.28-2.43,2.29-2.66,.02-5.32,.02-7.99,0-1.49-.01-2.45-.93-2.46-2.27,0-1.34,.96-2.26,2.44-2.29,1.37-.02,2.74,0,4.11,0Z"/><path class="cls-5" d="M48.13,91.41c-1.29,0-2.59,.02-3.88,0-1.48-.03-2.45-.94-2.45-2.28,0-1.34,.96-2.27,2.45-2.28,2.66-.02,5.32-.02,7.99,0,1.49,.01,2.44,.93,2.44,2.28,0,1.35-.95,2.26-2.44,2.28-1.37,.02-2.74,0-4.11,0Z"/><path class="cls-5" d="M46.99,56.68c.91,0,1.82-.02,2.74,0,1.35,.05,2.35,1.04,2.34,2.29,0,1.25-1,2.24-2.37,2.27-1.86,.03-3.72,.04-5.59,0-1.39-.03-2.32-.99-2.32-2.29,0-1.29,.94-2.21,2.34-2.27,.04,0,.08,0,.11,0,.91,0,1.82,0,2.74,0Z"/><path class="cls-5" d="M44.52,4.57c-1.27-.02-2.29-1.12-2.23-2.38,.05-1.22,1.1-2.2,2.32-2.18,1.26,.02,2.29,1.12,2.24,2.38-.06,1.22-1.1,2.2-2.32,2.18Z"/><path class="cls-3" d="M112.43,47.99c-.03,14.19-11.67,25.81-25.84,25.77-14.25-.04-25.85-11.71-25.79-25.94,.06-14.2,11.67-25.72,25.9-25.67,14.23,.04,25.75,11.62,25.72,25.84Zm-25.84-21.27c-11.74,.02-21.24,9.56-21.21,21.31,.03,11.63,9.64,21.19,21.28,21.17,11.71-.02,21.24-9.62,21.2-21.35-.04-11.68-9.57-21.15-21.27-21.13Z"/><path class="cls-1" d="M82.5,98.27c0-3.35,.02-6.7-.02-10.05,0-.69,.16-.92,.88-.91,2.17,.05,4.34,.05,6.51,0,.75-.02,.86,.27,.86,.92-.02,6.66,0,13.33-.02,19.99,0,2.39-1.77,4.18-4.05,4.21-2.33,.03-4.14-1.79-4.16-4.23-.03-3.31,0-6.63,0-9.94Z"/><path class="cls-3" d="M86.69,78.34c.78,.09,1.8-.5,2.28,.03,.5,.55,.15,1.59,.16,2.42,.02,1.98,0,1.98-2.02,1.98-.76,0-1.52-.04-2.27,.01-.62,.04-.77-.21-.75-.78,.04-.98,.06-1.97,0-2.95-.05-.75,.23-.92,.92-.81,.56,.09,1.13,.08,1.7,.11Z"/><path class="cls-4" d="M21.19,30.63c-.71-.01-1.26-.24-1.71-.69-1.73-1.72-3.43-3.45-5.18-5.15-.41-.4-.37-.64,.02-1,.75-.7,1.48-1.43,2.18-2.18,.39-.43,.68-.47,1.09-.02,.53,.59,1.11,1.15,1.69,1.7,1.25,1.2,2.43,1.2,3.68-.03,1.87-1.84,3.73-3.7,5.56-5.57,.47-.48,.79-.72,1.33-.07,.76,.93,2.33,1.65,2.3,2.64-.03,.88-1.46,1.71-2.29,2.54-2.28,2.29-4.57,4.57-6.85,6.86-.53,.53-1.11,.92-1.81,.95Z"/><path class="cls-4" d="M21.06,60.79c-.64-.03-1.18-.28-1.63-.72-1.7-1.69-3.38-3.4-5.1-5.07-.45-.43-.45-.72,.02-1.07,.06-.04,.11-.11,.16-.16,.82-.79,1.56-2.09,2.48-2.23,.89-.14,1.57,1.34,2.38,2.06,1.17,1.04,2.35,1.04,3.52-.12,1.9-1.87,3.79-3.74,5.64-5.66,.54-.56,.85-.53,1.34,.02,.63,.71,1.32,1.37,2.01,2.02,.42,.39,.46,.65,.02,1.08-3.06,3.02-6.09,6.07-9.13,9.11-.47,.47-1.04,.75-1.73,.75Z"/><path class="cls-4" d="M21.19,90.95c-.7-.01-1.25-.24-1.7-.68-1.73-1.72-3.44-3.45-5.18-5.15-.4-.39-.39-.63,0-1,.75-.7,1.49-1.42,2.17-2.18,.47-.53,.77-.39,1.17,.06,.53,.59,1.11,1.15,1.69,1.7,1.16,1.1,2.36,1.11,3.52-.02,1.93-1.89,3.84-3.79,5.72-5.74,.5-.52,.79-.53,1.25,.01,.78,.92,2.33,1.65,2.31,2.64-.02,.87-1.46,1.71-2.29,2.54-2.28,2.29-4.57,4.57-6.85,6.86-.53,.53-1.11,.92-1.82,.96Z"/><path class="cls-5" d="M86.59,26.71c11.7-.02,21.23,9.45,21.27,21.13,.04,11.72-9.5,21.32-21.2,21.35-11.64,.02-21.25-9.54-21.28-21.17-.03-11.75,9.47-21.29,21.21-21.31Zm13.32,31.2c5.28-6.99,4.2-16.91-2.36-22.55-6.81-5.85-16.82-5.39-22.99,1.07-6.3,6.61-5.57,16.18-1.19,21.4,1.57-2.56,3.65-4.57,6.32-5.93,.41-.21,.35-.4,.14-.7-1.41-1.97-1.55-4.23-1.44-6.55,.21-4.14,3.43-7.4,7.7-7.79,3.9-.35,7.73,2.47,8.51,6.42,.53,2.7,.47,5.38-1.13,7.8-.24,.36-.39,.59,.15,.86,2.65,1.33,4.68,3.34,6.29,5.95Zm-12.37-3.08c-4.86-.01-8.5,2.17-10.39,5.63-.38,.7-.26,1,.36,1.42,5.34,3.6,12.99,3.58,18.3-.05,.57-.39,.66-.68,.33-1.26-2.09-3.68-5.25-5.57-8.6-5.74Zm2.77-8.95s-.02,0-.03,0c0-.23,0-.46,0-.69-.04-2.14-1.6-3.76-3.62-3.79-2.04-.03-3.68,1.64-3.72,3.82-.01,.53-.03,1.07,.01,1.6,.12,1.8,1.6,3.28,3.39,3.43,1.75,.15,3.49-1.14,3.86-2.9,.1-.48,.07-.98,.1-1.48Z"/><path class="cls-2" d="M99.91,57.92c-1.61-2.61-3.64-4.62-6.29-5.95-.54-.27-.39-.5-.15-.86,1.61-2.42,1.67-5.1,1.13-7.8-.78-3.96-4.61-6.77-8.51-6.42-4.27,.39-7.49,3.65-7.7,7.79-.12,2.31,.02,4.57,1.44,6.55,.21,.3,.27,.49-.14,.7-2.67,1.35-4.75,3.36-6.32,5.93-4.38-5.22-5.11-14.79,1.19-21.4,6.17-6.46,16.17-6.93,22.99-1.07,6.56,5.64,7.64,15.56,2.36,22.55Z"/><path class="cls-1" d="M87.54,54.84c3.36,.16,6.51,2.06,8.6,5.74,.33,.58,.24,.88-.33,1.26-5.31,3.62-12.96,3.65-18.3,.05-.62-.42-.74-.72-.36-1.42,1.89-3.46,5.52-5.64,10.39-5.63Z"/><path class="cls-1" d="M90.31,45.89c-.03,.49,0,1-.1,1.48-.37,1.76-2.11,3.05-3.86,2.9-1.8-.15-3.27-1.63-3.39-3.43-.04-.53-.02-1.07-.01-1.6,.04-2.17,1.68-3.85,3.72-3.82,2.02,.03,3.57,1.66,3.62,3.79,0,.23,0,.46,0,.69,0,0,.02,0,.03,0Z"/></g></g></svg>