<?xml version="1.0" encoding="UTF-8"?><svg id="Layer_2" xmlns="http://www.w3.org/2000/svg" viewBox="0 0 121.05 121.05"><defs><style>.cls-1{fill:#f7f5f5;}.cls-2{fill:#00dabd;}.cls-3{fill:#00a48e;}.cls-4{fill:#b6e5f5;}.cls-5{fill:#1a2959;}.cls-6{fill:#89acb8;}.cls-7{fill:#7fcf5f;}</style></defs><g id="circles"><g id="qzdFGU"><g><path class="cls-5" d="M27.66,121.05c-1.11-.65-1.31-1.56-1.05-2.8,1.92-9.35,3.77-18.72,5.68-28.07,.17-.84-.12-.9-.8-.89-2.95,.03-5.91,.02-8.86,0-1.48,0-1.92-.36-2.33-1.81,.49-1.55,.78-1.75,2.72-1.75,30.69,0,61.37,0,92.06,0q2.51,0,2.36-2.52c.01-.31,.04-.63,.04-.94q0-1.88-1.83-1.88c-10.51,0-21.02,0-31.53,0-1.56,0-2.01-.37-2.36-1.88,.27-1.24,1.06-1.69,2.31-1.69,8.34,.02,16.67,.01,25.01,.01q2.6,0,2.45-2.6c.01-.27,.04-.55,.04-.82,0-19.14,0-38.27,0-57.41,0-.31,.01-.63-.03-.94-.18-1.27-1.13-2.32-2.32-2.51-.58-.09-1.18-.08-1.77-.08-23.35,0-46.7,0-70.05,.01-1.26,0-2.27-.23-2.66-1.59,.28-1.56,.73-1.96,2.26-1.97,3.66-.01,7.32-.04,10.99,.02,.98,.02,1.2-.3,1.15-1.2-.07-1.22-.05-2.44,0-3.66,.08-2.31,1.77-4.04,4.05-4.06,4.88-.04,9.77-.03,14.65,0,2.3,.01,4.01,1.72,4.09,4.02,.05,1.22,.08,2.45,0,3.66-.07,.98,.25,1.24,1.23,1.24,11.58-.03,23.15-.02,34.73-.03,1.48,0,2.91,.15,4.18,.99,2.11,1.39,3.08,3.37,3.08,5.88,0,11.54,0,23.07,0,34.61,0,8.39,.01,16.77-.02,25.16,0,.95,.1,1.42,1.23,1.3,2.35-.25,3.77,1.06,4.7,3.06v6.38c-1.17,2.47-3.2,3.06-5.79,3.03-8.38-.1-16.77-.04-25.16-.04-1.42,0-1.41,0-1.13,1.39,1.86,9.16,3.7,18.33,5.58,27.49,.24,1.19,.09,2.14-.93,2.87h-12.06c-.71-.6-1.05-1.35-1.22-2.27-.47-2.59-1.09-5.15-1.53-7.74-.15-.91-.48-1.11-1.35-1.11-11.29,.03-22.57,.03-33.86,0-.87,0-1.12,.29-1.27,1.06-.51,2.7-1.11,5.38-1.59,8.08-.16,.89-.56,1.5-1.27,1.99h-11.82ZM52.73,6.63c-.02,.23-.05,.47-.05,.7q-.02,1.6,1.54,1.6c4.01,0,8.02,0,12.02,0q2.25,0,2.08-2.3c.02-.55,0-1.1,.06-1.65,.15-1.17-.38-1.46-1.48-1.44-3.78,.06-7.56,.02-11.34,.02q-3.06,0-2.84,3.07Zm24.55,97.16c.1-1.18-.45-1.45-1.58-1.45-10.06,.05-20.13,.05-30.19,0-1.12,0-1.72,.23-1.64,1.42-.18,.84-.37,1.68-.58,2.63h32.09q2.68,0,1.9-2.6Zm-41.62-12.07c-.48,2.3-.98,4.6-1.45,6.91-1.22,5.97-2.41,11.94-3.64,17.9-.17,.8,.01,1.02,.82,.99,1.69-.06,3.39-.05,5.08,0,.72,.02,1.01-.17,1.15-.93,.81-4.21,1.69-8.4,2.53-12.6,.81-4.08,1.59-8.17,2.39-12.26,.13-.53,.25-1.06,.41-1.58,.23-.73-.11-.88-.76-.86-1.33,.03-2.66,0-3.99,0q-2.34,0-2.54,2.42Zm42.91,.02c.87,4.39,1.74,8.79,2.62,13.18,.76,3.82,1.52,7.63,2.32,11.44,.09,.4-.13,1.13,.69,1.13,2.16,0,4.32,0,6.57,0-1.76-8.66-3.49-17.21-5.23-25.76-.06-.38-.17-.76-.18-1.15-.04-1.01-.48-1.42-1.54-1.32-1.08,.1-2.18,.02-3.28,.02q-2.51,0-1.96,2.44Zm-33.72,7h31.47c-.57-2.86-1.14-5.63-1.65-8.41-.15-.79-.43-1.06-1.29-1.06-6.19,.05-12.37,.02-18.56,.02-2.4,0-4.81,0-7.21,0-.42,0-.87-.11-1,.53-.57,2.97-1.17,5.93-1.76,8.91Z"/><path class="cls-1" d="M34.74,10.89c.39,1.36,1.4,1.59,2.66,1.59,23.35-.02,46.7-.01,70.05-.01,.59,0,1.19-.01,1.77,.08,1.2,.19,2.14,1.24,2.32,2.51,.04,.31,.03,.63,.03,.94,0,19.14,0,38.27,0,57.41,0,.27-.03,.55-.04,.82-34.01,0-68.02,0-102.02,0-.01-.35-.04-.71-.04-1.06,0-18.98,0-37.97,0-56.95,0-2.74,1.02-3.76,3.78-3.76,5.2,0,10.4-.01,15.6,0,1.2,0,2.09-.32,2.41-1.59,1.16,0,2.32,0,3.48,0Zm14.77,24.04c.16-7.12-5.68-13.24-12.78-13.4-7.51-.17-13.54,5.58-13.73,13.07-.17,7.06,5.73,13.24,12.8,13.4,7.52,.18,13.53-5.56,13.7-13.07Zm12.56,15.96c6.42-.02,12.63-.99,18.26-4.3,6.76-3.98,10.09-10.13,11.04-17.74,.1-.83-.25-1.49-1-1.84-.74-.34-1.47-.21-2.05,.41-.47,.49-.49,1.14-.58,1.76-.28,1.96-.78,3.85-1.56,5.66-2.67,6.22-7.65,9.6-13.98,11.26-5.44,1.43-10.97,1.53-16.53,.78-1.54-.21-2.45,.3-2.62,1.48-.15,1.08,.61,1.83,2.07,2.05,2.3,.35,4.62,.5,6.95,.48Zm-5.14,10.82c.01,4.14,3.38,7.51,7.5,7.51,4.13,0,7.49-3.37,7.5-7.51,.01-4.21-3.36-7.58-7.56-7.55-4.13,.02-7.45,3.4-7.44,7.56Zm-14.89-4.05c-.08-.69-.37-1.24-.99-1.53-.69-.33-1.4-.27-1.98,.26-.81,.75-1.59,1.52-2.34,2.33-.36,.39-.57,.35-.91-.01-.7-.75-1.42-1.47-2.17-2.17-.86-.8-1.92-.8-2.62-.06-.7,.74-.69,1.68,.09,2.53,.61,.67,1.24,1.33,1.92,1.91,.6,.52,.71,.9,.04,1.46-.66,.55-1.25,1.2-1.84,1.83-.9,.94-.94,1.92-.16,2.7,.74,.72,1.74,.68,2.62-.14,.86-.8,1.67-2.25,2.55-2.29,1-.04,1.73,1.51,2.63,2.31,.89,.79,1.9,.84,2.63,.11,.75-.75,.72-1.72-.11-2.62-.59-.63-1.18-1.27-1.84-1.83-.65-.54-.77-.94-.03-1.53,.67-.53,1.23-1.21,1.85-1.82,.41-.4,.65-.88,.67-1.44Zm54.17-.06c-.06-.62-.37-1.17-.97-1.46-.69-.33-1.4-.29-1.98,.25-.81,.75-1.59,1.53-2.34,2.33-.34,.37-.56,.4-.91,0-.66-.73-1.37-1.41-2.08-2.09-.91-.87-1.98-.91-2.71-.15-.74,.77-.69,1.71,.16,2.62,.81,.86,2.27,1.67,2.29,2.54,.03,1.01-1.52,1.74-2.33,2.65-.82,.91-.85,1.87-.11,2.62,.72,.73,1.75,.7,2.62-.11,.72-.67,1.42-1.37,2.08-2.09,.37-.4,.63-.47,1.02-.03,.58,.64,1.21,1.24,1.83,1.84,1.06,1.04,2.07,1.18,2.87,.4,.83-.81,.73-1.81-.31-2.87-.58-.59-1.13-1.22-1.76-1.74-.6-.5-.5-.82,.03-1.28,.68-.59,1.29-1.27,1.93-1.91,.4-.4,.68-.86,.67-1.51ZM60.19,29.34c-.49,.09-1.05,.38-1.36,1.07-.31,.7-.18,1.33,.3,1.86,.69,.76,1.4,1.49,2.16,2.18,.51,.46,.62,.77,.03,1.27-.72,.61-1.36,1.31-2.01,1.99-.84,.89-.86,1.86-.1,2.61,.75,.74,1.73,.7,2.62-.13,.66-.62,1.32-1.24,1.92-1.92,.48-.55,.81-.65,1.33-.04,.61,.72,1.31,1.36,2,2.01,.84,.78,1.8,.8,2.54,.11,.77-.73,.78-1.73-.04-2.61-.67-.72-1.37-1.42-2.09-2.08-.42-.39-.5-.67-.03-1.1,.7-.63,1.36-1.31,2.01-1.99,.9-.95,.96-1.94,.19-2.71-.76-.76-1.77-.69-2.7,.21-.82,.79-1.59,2.16-2.46,2.23-.98,.07-1.68-1.43-2.54-2.21-.45-.41-.89-.77-1.75-.74Z"/><path class="cls-5" d="M31.25,10.89c-.32,1.26-1.21,1.59-2.41,1.59-5.2-.02-10.4-.01-15.6,0-2.76,0-3.78,1.02-3.78,3.76,0,18.98,0,37.97,0,56.95,0,.35,.03,.71,.04,1.06-.01,.24-.04,.47-.04,.71q-.02,1.89,1.91,1.89c21.46,0,42.91,0,64.37,0,1.7,0,2.05,.23,2.54,1.68-.33,1.55-.79,1.88-2.59,1.88-23.16,0-46.32,0-69.49,.01-2.85,0-2.73-.7-2.62,2.82-.01,.23-.04,.47-.04,.7q-.02,1.82,1.79,1.82c3.09,0,6.18,.02,9.27,0,1.24,0,2.02,.49,2.21,1.76-.35,1.38-.81,1.79-2.2,1.8-3.43,.02-6.85,.05-10.28,0-2.72-.04-4.33-1.78-4.35-4.52,0-1.14,0-2.28,0-3.43,.02-2.79,1.7-4.54,4.48-4.47,1.15,.03,1.47-.22,1.47-1.44-.05-19.85-.03-39.69-.03-59.54,0-3.4,1.79-5.88,4.8-6.75,.62-.18,1.24-.21,1.87-.22,5.47-.01,10.95-.01,16.42,0,1.54,0,2.02,.44,2.24,1.96Z"/><path class="cls-4" d="M16.83,87.49c-.19-1.27-.97-1.76-2.21-1.76-3.09,.02-6.18,0-9.27,0q-1.8,0-1.79-1.82c0-.23,.03-.47,.04-.7,3.39,0,6.77,0,10.16,0,34.57,0,69.14,0,103.71,0q.15,2.52-2.36,2.52c-30.69,0-61.37,0-92.06,0-1.94,0-2.24,.19-2.72,1.75-1.16,0-2.32,0-3.49,0Z"/><path class="cls-6" d="M117.46,83.22c-34.57,0-69.14,0-103.71,0-3.39,0-6.77,0-10.16,0-.11-3.51-.23-2.81,2.62-2.82,23.16-.02,46.32-.01,69.49-.01,1.8,0,2.26-.33,2.59-1.88,1.16,0,2.32,0,3.48,0,.34,1.51,.8,1.88,2.36,1.88,10.51,0,21.02,0,31.53,0q1.84,0,1.83,1.88c0,.31-.02,.63-.04,.94Z"/><path class="cls-4" d="M81.77,78.51c-1.16,0-2.32,0-3.48,0-.49-1.44-.84-1.68-2.54-1.68-21.46,0-42.91,0-64.37,0q-1.92,0-1.91-1.89c0-.24,.03-.47,.04-.71,34.01,0,68.02,0,102.02,0q.14,2.6-2.45,2.6c-8.34,0-16.67,.01-25.01-.01-1.24,0-2.03,.45-2.31,1.69Z"/><path class="cls-4" d="M85.54,91.74c1.74,8.55,3.47,17.1,5.23,25.76-2.25,0-4.41,0-6.57,0-.82,0-.61-.73-.69-1.13-.8-3.81-1.56-7.62-2.32-11.44-.88-4.39-1.75-8.79-2.62-13.18,2.32,0,4.65,0,6.97,0Z"/><path class="cls-4" d="M42.55,91.74c-.8,4.09-1.58,8.17-2.39,12.26-.84,4.2-1.72,8.39-2.53,12.6-.14,.75-.44,.95-1.15,.93-1.69-.05-3.39-.05-5.08,0-.81,.03-.99-.19-.82-.99,1.24-5.96,2.43-11.93,3.64-17.9,.47-2.3,.96-4.6,1.45-6.91,2.29,0,4.59,.01,6.88,.02Z"/><path class="cls-4" d="M77.28,103.79q.77,2.6-1.9,2.6H43.29c.21-.95,.39-1.79,.58-2.63,11.14,0,22.28,.02,33.41,.03Z"/><path class="cls-4" d="M52.73,6.63q-.23-3.07,2.84-3.07c3.78,0,7.56,.04,11.34-.02,1.11-.02,1.64,.27,1.48,1.44-.07,.54-.05,1.1-.06,1.65-5.2,0-10.4,0-15.59,0Z"/><path class="cls-6" d="M77.28,103.79c-11.14,0-22.28-.02-33.41-.03-.08-1.2,.51-1.43,1.64-1.42,10.06,.05,20.13,.05,30.19,0,1.13,0,1.69,.27,1.58,1.45Z"/><path class="cls-6" d="M52.73,6.63c5.2,0,10.4,0,15.59,0q.18,2.3-2.08,2.3c-4.01,0-8.02,0-12.02,0q-1.57,0-1.54-1.6c0-.23,.04-.47,.05-.7Z"/><path class="cls-6" d="M42.55,91.74c-2.29,0-4.59-.01-6.88-.02q.2-2.42,2.54-2.42c1.33,0,2.66,.02,3.99,0,.65-.01,.98,.13,.76,.86-.16,.52-.27,1.05-.41,1.58Z"/><path class="cls-6" d="M85.54,91.74c-2.32,0-4.65,0-6.97,0q-.55-2.44,1.96-2.44c1.09,0,2.19,.08,3.28-.02,1.06-.1,1.5,.3,1.54,1.32,.02,.39,.12,.77,.18,1.15Z"/><path class="cls-5" d="M49.51,34.93c-.16,7.51-6.18,13.25-13.7,13.07-7.07-.17-12.98-6.35-12.8-13.4,.18-7.49,6.22-13.24,13.73-13.07,7.1,.16,12.93,6.28,12.78,13.4Zm-4.33,3.41c.2-.11,.22-.3,.2-.5,.84-2.11,.74-4.23,0-6.32-1.76-5-7.26-7.65-12.22-5.93-4.93,1.71-7.73,7.06-6.18,11.78-.02,.2,0,.38,.19,.49h0c.53,2.12,1.88,3.66,3.62,4.89,5.06,3.57,12.63,1.23,14.4-4.41h0Z"/><path class="cls-5" d="M62.07,50.89c-2.33,.01-4.64-.13-6.95-.48-1.46-.22-2.22-.96-2.07-2.05,.16-1.18,1.08-1.68,2.62-1.48,5.56,.75,11.08,.64,16.53-.78,6.32-1.66,11.31-5.04,13.98-11.26,.78-1.81,1.28-3.71,1.56-5.66,.09-.62,.11-1.27,.58-1.76,.58-.61,1.31-.75,2.05-.41,.75,.34,1.11,1.01,1,1.84-.96,7.61-4.28,13.76-11.04,17.74-5.63,3.31-11.84,4.28-18.26,4.3Z"/><path class="cls-5" d="M56.92,61.71c-.01-4.16,3.31-7.53,7.44-7.56,4.2-.02,7.57,3.35,7.56,7.55-.01,4.15-3.38,7.51-7.5,7.51-4.13,0-7.49-3.37-7.5-7.51Zm3.61,0c0,2.22,1.72,3.96,3.89,3.96,2.18,0,3.88-1.74,3.89-3.96,.01-2.3-1.7-4.04-3.95-4.01-2.2,.03-3.85,1.75-3.83,4.01Z"/><path class="cls-5" d="M42.03,57.66c-.02,.56-.26,1.04-.67,1.44-.62,.61-1.17,1.29-1.85,1.82-.74,.59-.61,.99,.03,1.53,.66,.56,1.25,1.19,1.84,1.83,.83,.9,.86,1.87,.11,2.62-.72,.72-1.74,.68-2.63-.11-.9-.8-1.63-2.35-2.63-2.31-.88,.04-1.69,1.48-2.55,2.29-.88,.82-1.88,.86-2.62,.14-.79-.77-.74-1.76,.16-2.7,.6-.63,1.18-1.28,1.84-1.83,.67-.56,.56-.94-.04-1.46-.68-.59-1.31-1.25-1.92-1.91-.78-.85-.79-1.79-.09-2.53,.71-.75,1.77-.74,2.62,.06,.75,.7,1.47,1.42,2.17,2.17,.34,.37,.55,.4,.91,.01,.75-.81,1.53-1.58,2.34-2.33,.58-.53,1.28-.59,1.98-.26,.62,.29,.91,.84,.99,1.53Z"/><path class="cls-5" d="M96.21,57.6c0,.65-.27,1.11-.67,1.51-.64,.64-1.25,1.32-1.93,1.91-.53,.46-.62,.79-.03,1.28,.63,.53,1.18,1.15,1.76,1.74,1.04,1.07,1.15,2.06,.31,2.87-.8,.78-1.81,.64-2.87-.4-.62-.61-1.25-1.2-1.83-1.84-.4-.44-.65-.38-1.02,.03-.67,.72-1.37,1.42-2.08,2.09-.87,.81-1.9,.84-2.62,.11-.75-.75-.71-1.71,.11-2.62,.81-.91,2.36-1.64,2.33-2.65-.03-.87-1.49-1.68-2.29-2.54-.85-.9-.9-1.85-.16-2.62,.73-.76,1.81-.72,2.71,.15,.71,.68,1.42,1.37,2.08,2.09,.36,.39,.57,.36,.91,0,.76-.8,1.54-1.58,2.34-2.33,.58-.54,1.29-.58,1.98-.25,.61,.29,.92,.84,.97,1.46Z"/><path class="cls-5" d="M60.19,29.34c.85-.03,1.3,.33,1.75,.74,.86,.78,1.56,2.28,2.54,2.21,.87-.06,1.64-1.44,2.46-2.23,.94-.89,1.94-.96,2.7-.21,.78,.77,.72,1.76-.19,2.71-.65,.68-1.31,1.36-2.01,1.99-.47,.42-.39,.71,.03,1.1,.72,.67,1.42,1.36,2.09,2.08,.82,.88,.81,1.89,.04,2.61-.73,.69-1.7,.67-2.54-.11-.69-.64-1.39-1.29-2-2.01-.52-.61-.86-.51-1.33,.04-.59,.68-1.26,1.3-1.92,1.92-.89,.83-1.88,.87-2.62,.13-.76-.75-.73-1.72,.1-2.61,.65-.69,1.29-1.38,2.01-1.99,.58-.5,.48-.81-.03-1.27-.76-.68-1.47-1.42-2.16-2.18-.48-.53-.61-1.16-.3-1.86,.31-.69,.86-.98,1.36-1.07Z"/><path class="cls-2" d="M26.99,37.37c-1.56-4.72,1.25-10.07,6.18-11.78,4.96-1.72,10.47,.93,12.22,5.93,.73,2.09,.84,4.22,0,6.32-.19,.12-.24,.29-.2,.5,0,0,0,0,0,0-.52-.05-.75,.37-1.05,.65-4.18,3.9-10.73,4.04-15.11,.39-.61-.51-1.08-1.22-1.86-1.52,0,0,0,0,0,0,.03-.2-.01-.37-.19-.49Zm7.65,3.08c.65,0,1.1-.36,1.52-.8,2.17-2.22,4.34-4.44,6.5-6.67,.91-.94,.97-1.95,.23-2.71-.75-.77-1.85-.69-2.79,.26-1.38,1.4-2.75,2.81-4.11,4.22q-1.39,1.43-2.77,.08c-.28-.27-.56-.55-.85-.82-.94-.85-1.98-.9-2.71-.14-.76,.79-.69,1.77,.25,2.7,1.11,1.11,2.25,2.19,3.38,3.28,.38,.36,.81,.62,1.36,.59Z"/><path class="cls-3" d="M27.17,37.85c.78,.31,1.25,1.01,1.86,1.52,4.37,3.65,10.92,3.51,15.11-.39,.31-.29,.54-.7,1.05-.65-1.78,5.65-9.35,7.98-14.4,4.41-1.73-1.22-3.08-2.77-3.62-4.89Z"/><path class="cls-7" d="M26.99,37.37c.18,.12,.22,.29,.19,.49-.19-.11-.21-.29-.19-.49Z"/><path class="cls-7" d="M45.18,38.34c-.04-.21,.01-.38,.2-.5,.02,.2,0,.39-.2,.5Z"/><path class="cls-2" d="M60.53,61.71c-.02-2.25,1.63-3.97,3.83-4.01,2.26-.03,3.97,1.7,3.95,4.01-2.82,1.96-4.97,1.96-7.79,0Z"/><path class="cls-3" d="M60.53,61.71c2.82,1.96,4.96,1.96,7.79,0-.01,2.23-1.72,3.96-3.89,3.96-2.18,0-3.89-1.74-3.89-3.96Z"/><path class="cls-5" d="M34.64,40.44c-.55,.03-.98-.23-1.36-.59-1.13-1.09-2.27-2.17-3.38-3.28-.93-.93-1-1.91-.25-2.7,.73-.76,1.77-.71,2.71,.14,.29,.26,.57,.54,.85,.82q1.39,1.36,2.77-.08c1.37-1.41,2.73-2.83,4.11-4.22,.94-.95,2.04-1.03,2.79-.26,.74,.76,.67,1.77-.23,2.71-2.16,2.23-4.33,4.45-6.5,6.67-.42,.43-.87,.8-1.52,.79Z"/></g></g></g></svg>