<?xml version="1.0" encoding="UTF-8"?><svg id="Layer_2" xmlns="http://www.w3.org/2000/svg" viewBox="0 0 124 120.02"><defs><style>.cls-1{fill:#add;}.cls-2{fill:#06ffd5;}.cls-3{fill:#1a2959;}</style></defs><g id="Layer_1-2"><g><path class="cls-3" d="M77.4,80.02c1.74,0,3.09-.01,4.45,0,3.5,.04,6.16,2.67,6.14,6.05-.02,3.31-2.68,5.91-6.12,5.94-2.24,.02-4.48,0-6.88,0,3.92,1.3,5.96,4.46,4.66,7.7-.68,1.68-.83,2.9,0,4.54,.85,1.68,.37,3.53-.72,5.08-.38,.55-.33,.84,.02,1.37,1.3,1.96,1.44,4.06,.3,6.14-1.13,2.07-2.94,3.13-5.3,3.16-2.58,.03-5.17,0-7.75,.01-1.61,0-3.04-.48-4.2-1.6-.44-.43-.75-.45-1.28-.15-2.26,1.28-4.71,1.77-7.31,1.76-6.79-.03-13.58-.03-20.37,0-6.27,.03-12.21-1.32-17.79-4.17-.68-.35-1.27-.48-1.97-.09-.44,.25-.96,.25-1.46,.25-2.54,0-5.08,.01-7.62,0-2.49-.02-4.18-1.67-4.19-4.14-.02-7.92-.02-15.83,0-23.75,0-2.4,1.7-4.08,4.1-4.1,2.58-.03,5.17,0,7.75,0,.29,0,.65-.07,.86,.07,1.33,.88,2.42,.13,3.57-.43,3.28-1.59,6.74-2.59,10.4-3.2-.28-.77-.85-1.31-1.3-1.93-3.16-4.33-6.69-8.41-8.96-13.33-4.32-9.37-5.9-19.04-2.92-29.11,4.32-14.59,18.64-24.75,33.73-24.08,.75,.03,.77,.33,.77,.89-.02,2.67,0,5.33,0,8.22,2.35-1.37,4.85-1.1,7.31-1.07,.84,.01,.69-.47,.69-.96,0-4.67,.03-9.33-.02-14,0-.88,.21-1.11,1.09-1.09,2.08,.07,4.17,0,6.25,.03,.59,0,.93-.09,1.22-.72,.99-2.17,2.74-3.24,5.14-3.29,5.65-.13,11.22,.21,16.59,2.24,6.8,2.58,12.42,6.73,16.64,12.65,2.21,3.1,4.67,5.96,7.39,8.6,.42,.4,.8,.56,1.41,.55,2.79-.06,5.58-.07,8.37-.02,2.17,.03,3.89,1.73,3.9,3.91,.04,6.71,.04,13.41,0,20.12-.01,2.24-1.75,3.91-4,3.94-2.62,.04-5.25,.02-7.87,0-1.75-.01-3.03-.83-3.75-2.42-.21-.47-.47-.86-.83-1.21-2.18-2.17-4.37-4.35-6.54-6.54-1.21-1.22-2.64-1.81-4.36-1.83-1.25-.02-2.51-.08-3.73-.3-.89-.16-.93,.16-.92,.86,.04,2.21,0,4.42,.03,6.62,0,.62-.13,.85-.81,.85-11.46-.02-22.91-.02-34.37,0-.78,0-.85-.31-.84-.94,.03-3.37-.01-6.75,.03-10.12,0-.75-.16-.99-.95-.97-1.49,.02-2.99,.16-4.48-.12-2.06-.39-3.73-1.43-4.94-3.11-.42-.59-.85-.78-1.53-.76-1.33,.05-2.67,0-4,.02-2.35,.04-4.1,1.74-4.11,3.97-.01,2.23,1.74,3.99,4.06,4.02,2.33,.03,4.67,.04,7-.01,.78-.02,.97,.2,.96,.96-.04,3.33,.02,6.67-.04,10-.02,.89,.23,1.08,1.1,1.08,12.71-.03,25.41-.02,38.12-.02,.41,0,.82,0,1.24,0-2.04,9.93-3.63,19.94-11.03,28Zm-33.16,36.04c-2.02-2.15-3.27-4.32-3.86-6.85-.66-2.8-.31-5.64-.37-8.46-.01-.8-.12-1.04-1.01-.87-3,.56-3.01,.52-3-2.49,0-.04,0-.08,0-.12-.2-1.03,.21-1.3,1.25-1.29,3.4,.06,5.8-1.59,6.85-4.71,.29-.87,.75-1.14,1.57-1.26,2.67-.4,5.34-.84,8-1.29,1.54-.26,2.44-1.3,2.3-2.6-.13-1.29-1.12-2.1-2.64-2.1-7.37,0-14.74-.07-22.1,.04-5.15,.08-10,1.49-14.58,3.85-.46,.24-.67,.49-.67,1.04,.02,7.37,.02,14.74,0,22.1,0,.53,.16,.81,.64,1.05,2.16,1.07,4.39,1.98,6.71,2.65,6.77,1.97,13.7,1,20.9,1.3Zm2-20.05c4.58,0,9.11,0,13.63,.01,.5,0,.61-.31,.78-.64,.92-1.84,2.42-2.97,4.43-3.27,.76-.12,1.01-.43,1.24-1.09,1.56-4.39,3.68-8.51,6.82-11.95,5.97-6.55,9.01-14.35,10.22-23.05H51.07c-3.2,0-3.17,0-3.09,3.2,.02,.68,.23,.84,.86,.81,1.16-.04,2.33-.04,3.5,0,4.9,.18,8.5,4.82,7.47,9.6-.88,4.06-4.06,6.38-8.74,6.38-3.2,0-3.17,0-3.09,3.2,.02,.68,.23,.83,.86,.81,1.62-.04,3.25-.04,4.87,0,3.32,.06,6,2.56,6.27,5.79,.26,3.22-1.86,6.07-5.08,6.72-1.71,.35-3.43,.72-5.16,.87-1.68,.15-2.92,.73-3.49,2.61ZM79.63,15.98c-1.35-1.33-2.76-2.17-4.34-2.72-2.43-.84-4.88-1.65-7.32-2.47-.88-.29-1.84-.63-2.3-1.41-.83-1.39-2.02-1.48-3.38-1.36-.29,.03-.59,.04-.87,0-1.07-.16-1.47,.16-1.45,1.36,.08,4.54,.02,9.08,.05,13.62,0,.79-.16,1.07-1.01,1.05-2.25-.06-4.5-.03-6.75-.02-2.45,.02-4.23,1.68-4.26,3.95-.02,2.32,1.79,4.02,4.3,4.04,2.25,.01,4.5,.04,6.75-.02,.77-.02,.98,.18,.97,.96-.05,3.37,0,6.75-.03,10.12,0,.64,.06,.96,.84,.95,8.79-.03,17.58-.03,26.37,0,.69,0,.83-.23,.81-.86-.04-1.16-.07-2.34,0-3.5,.05-.83-.2-1.19-1.02-1.51-5.98-2.32-10.65-6.24-13.94-11.77-.9-1.52-1.3-3.15-.93-4.91,.72-3.43,3.2-5.3,7.5-5.52ZM30.21,52.02c4.2,0,8.41-.04,12.61,.03,1.02,.02,1.23-.31,1.19-1.25-.07-1.83-.08-3.66,0-5.49,.04-.99-.15-1.43-1.25-1.31-.99,.11-2,.04-2.99,.01-4.02-.11-7.39-3.28-7.75-7.26-.36-4.03,2.32-7.66,6.29-8.54,1.57-.35,3.15-.18,4.73-.17,.76,0,.99-.18,.97-.96-.05-2.91-.02-5.83-.02-8.74q0-2.37-2.36-2.01c-16.62,2.52-28.02,18.16-25.32,34.71,.12,.73,.36,1.01,1.16,1,4.25-.05,8.49-.02,12.74-.02Zm77.78-8.76c0-.55,0-.75,0-.94,0-4.75-.03-9.5,.03-14.24,.01-.82-.15-1.39-.75-1.95-2.9-2.7-5.4-5.75-7.71-8.99-3.33-4.68-7.73-8.07-12.98-10.42-5.43-2.43-11.15-2.86-16.98-2.68-.87,.03-1.45,.44-1.57,1.29-.12,.87,.39,1.41,1.18,1.68,2.21,.74,4.42,1.46,6.62,2.21,6.17,2.1,10.05,6.28,11.45,12.68,.14,.63,.47,1,1.02,1.3,1.45,.77,3.01,.87,4.61,.85,3.31-.03,3.31,0,3.08,3.3,0,.04,0,.08,0,.12,.05,.44-.14,.59-.57,.57-2.16-.07-4.34,.22-6.47-.34-3.33-.87-5.72-2.9-7.35-5.93-.91-1.68-2.79-2.21-4.25-1.34-1.48,.88-1.76,2.48-.65,4.22,4.58,7.21,11.16,11.01,19.67,11.34,3.04,.12,5.59,1.07,7.69,3.27,1.21,1.27,2.45,2.5,3.93,4ZM17.36,56.02c.63,2.78,1.63,5.32,2.85,7.77,2.88,5.83,7.3,10.6,11.02,15.86,.26,.37,.6,.37,.98,.37,3.66,0,7.33-.02,10.99,0,.69,0,.83-.23,.81-.86-.04-1.96,.04-3.92-.04-5.87-.04-.99,.15-1.37,1.25-1.32,2.16,.1,4.33,.04,6.49,.03,2.45-.02,4.24-1.68,4.27-3.94,.03-2.32-1.78-4.04-4.28-4.05-2.21-.01-4.41-.04-6.62,.02-.84,.02-1.16-.15-1.12-1.07,.08-1.95-.02-3.91,.04-5.87,.03-.86-.18-1.11-1.08-1.11-6.2,.04-12.41,.02-18.61,.02-2.29,0-4.57,0-6.97,0ZM4.01,99.88c0,3.74,.02,7.49-.01,11.23,0,.68,.15,.93,.88,.92,2.08-.05,4.16-.05,6.24,0,.71,.02,.91-.18,.9-.9-.03-7.4-.03-14.81,0-22.21,0-.85-.33-.93-1.02-.91-2,.04-3.99,.05-5.99,0-.81-.02-1.04,.2-1.03,1.03,.05,3.62,.02,7.24,.02,10.86ZM119.99,38.15c0-3.08-.02-6.15,.02-9.23,0-.69-.18-.92-.89-.91-2.08,.05-4.16,.05-6.24,0-.71-.02-.9,.2-.9,.9,.03,6.07,.03,12.14,0,18.21,0,.69,.18,.92,.89,.91,2.04-.05,4.08-.06,6.11,0,.82,.02,1.04-.22,1.03-1.03-.05-2.95-.02-5.9-.02-8.86ZM52.35,108.02c-2.42,0-4.83,.02-7.25-.01-.75-.01-.89,.14-.67,.9,1.74,6,8.79,8.9,14.32,5.87,.76-.42,1.34-.85,1.38-1.85,.03-.78,.43-1.51,.86-2.18,.22-.34,.76-.66,.22-1.15-.58-.53-.45-1.67-1.75-1.61-2.37,.12-4.75,.03-7.12,.03Zm.03-8c-1.83,0-3.66,0-5.49,0-2.93,0-2.9,0-2.91,2.99,0,.81,.2,1.04,1.02,1.03,4.57-.04,9.15-.06,13.72,0,1.11,.02,1.92-.12,2.28-1.29,.12-.38,.76-.66,.21-1.15-.59-.52-.44-1.68-1.73-1.62-2.36,.12-4.74,.03-7.11,.03Zm17.61,0c1.25,0,2.49,.02,3.74,0,1.37-.02,2.24-.8,2.26-1.96,.02-1.17-.85-2.01-2.19-2.02-2.53-.02-5.06-.02-7.6,0-1.34,.01-2.21,.85-2.19,2.02,.02,1.17,.88,1.94,2.25,1.97,1.24,.02,2.49,0,3.74,0Zm0,8c1.29,0,2.57,.02,3.86,0,1.27-.03,2.12-.83,2.14-1.96,.02-1.13-.82-2.01-2.06-2.02-2.61-.03-5.23-.03-7.84,0-1.25,.02-2.09,.88-2.07,2.01,.02,1.13,.86,1.93,2.13,1.97,1.29,.03,2.57,0,3.86,0Zm-.03,8c1.29,0,2.57,.02,3.86,0,1.33-.03,2.2-.88,2.17-2.05-.03-1.12-.88-1.92-2.15-1.94-2.53-.03-5.06-.02-7.6,0-1.36,.01-2.23,.81-2.23,1.98,0,1.17,.86,1.98,2.22,2,1.24,.02,2.49,0,3.74,0Zm2.12-28c3.3,0,6.49,.01,9.68,0,1.36,0,2.23-.83,2.22-2,0-1.17-.88-1.97-2.24-1.98-2.2-.02-4.41,0-6.62,0-.42,0-.79-.01-1.06,.44-.68,1.13-1.41,2.22-1.99,3.57Z"/><path class="cls-1" d="M46.25,96.02c.57-1.88,1.8-2.46,3.49-2.61,1.73-.15,3.45-.53,5.16-.87,3.22-.65,5.35-3.49,5.08-6.72-.26-3.23-2.95-5.73-6.27-5.79-1.62-.03-3.25-.03-4.87,0-.63,.02-.84-.13-.86-.81-.09-3.2-.11-3.2,3.09-3.2,4.68,0,7.87-2.33,8.74-6.38,1.03-4.78-2.57-9.42-7.47-9.6-1.16-.04-2.33-.04-3.5,0-.63,.02-.84-.13-.86-.81-.09-3.2-.11-3.2,3.09-3.2h32.3c-1.21,8.71-4.25,16.5-10.22,23.05-3.14,3.44-5.26,7.57-6.82,11.95-.23,.65-.48,.97-1.24,1.09-2.01,.3-3.51,1.43-4.43,3.27-.17,.33-.28,.64-.78,.64-4.52-.02-9.05-.01-13.63-.01Z"/><path class="cls-2" d="M79.63,15.98c-4.3,.22-6.78,2.09-7.5,5.52-.37,1.76,.03,3.39,.93,4.91,3.29,5.52,7.96,9.44,13.94,11.77,.82,.32,1.07,.68,1.02,1.51-.07,1.16-.05,2.33,0,3.5,.02,.62-.12,.86-.81,.86-8.79-.02-17.58-.03-26.37,0-.79,0-.85-.32-.84-.95,.03-3.37-.01-6.75,.03-10.12,.01-.78-.2-.98-.97-.96-2.25,.05-4.5,.03-6.75,.02-2.51-.01-4.32-1.72-4.3-4.04,.02-2.27,1.8-3.94,4.26-3.95,2.25-.01,4.5-.05,6.75,.02,.85,.02,1.02-.26,1.01-1.05-.04-4.54,.03-9.08-.05-13.62-.02-1.2,.37-1.52,1.45-1.36,.29,.04,.58,.03,.87,0,1.36-.12,2.55-.03,3.38,1.36,.46,.78,1.42,1.11,2.3,1.41,2.44,.81,4.89,1.62,7.32,2.47,1.58,.55,2.99,1.39,4.34,2.72Z"/><path class="cls-1" d="M30.21,52.02c-4.25,0-8.49-.03-12.74,.02-.81,0-1.04-.27-1.16-1-2.7-16.55,8.7-32.18,25.32-34.71q2.36-.36,2.36,2.01c0,2.91-.03,5.83,.02,8.74,.01,.79-.21,.96-.97,.96-1.58,0-3.16-.18-4.73,.17-3.97,.88-6.66,4.51-6.29,8.54,.36,3.98,3.73,7.14,7.75,7.26,1,.03,2.01,.09,2.99-.01,1.1-.12,1.3,.32,1.25,1.31-.08,1.83-.07,3.66,0,5.49,.04,.93-.17,1.26-1.19,1.25-4.2-.07-8.41-.03-12.61-.03Z"/><path class="cls-2" d="M17.36,56.02c2.4,0,4.68,0,6.97,0,6.2,0,12.41,.02,18.61-.02,.9,0,1.11,.25,1.08,1.11-.07,1.95,.03,3.92-.04,5.87-.04,.92,.28,1.09,1.12,1.07,2.21-.06,4.41-.03,6.62-.02,2.5,.01,4.31,1.74,4.28,4.05-.03,2.26-1.83,3.92-4.27,3.94-2.17,.01-4.33,.07-6.49-.03-1.1-.05-1.29,.33-1.25,1.32,.08,1.95,0,3.91,.04,5.87,.01,.63-.13,.86-.81,.86-3.66-.03-7.33-.02-10.99,0-.38,0-.72,0-.98-.37-3.72-5.25-8.13-10.02-11.02-15.86-1.21-2.46-2.22-4.99-2.85-7.77Z"/><path class="cls-1" d="M119.99,38.15c0,2.95-.03,5.91,.02,8.86,.01,.81-.2,1.06-1.03,1.03-2.04-.06-4.08-.05-6.11,0-.72,.02-.9-.21-.89-.91,.03-6.07,.03-12.14,0-18.21,0-.7,.19-.92,.9-.9,2.08,.04,4.16,.05,6.24,0,.72-.02,.9,.21,.89,.91-.03,3.08-.02,6.15-.01,9.23Z"/></g></g></svg>