<?xml version="1.0" encoding="UTF-8"?><svg id="Layer_2" xmlns="http://www.w3.org/2000/svg" viewBox="0 0 155.67 145.22"><defs><style>.cls-1{fill:#e9f6f6;}.cls-2{fill:#fff;}.cls-3{fill:#b6e5f5;}.cls-4{fill:#add;}.cls-5{fill:#06ffd5;}.cls-6{fill:#1a2959;}</style></defs><g id="Layer_1-2"><g id="PIi3uz"><g><path class="cls-6" d="M0,57.43c.66-.68,.88-1.66,1.63-2.3,1.09-.92,2.3-1.41,3.74-1.39,3.03,.03,6.06,0,9.08,0,.17-.56-.13-.95-.3-1.35-4.77-11.51,2.09-23.3,14.41-24.76,2.47-.29,3.94-1.75,4.24-4.21,1.51-12.36,13.26-19.23,24.73-14.45,2.54,1.06,4.33,.58,5.99-1.6,7.53-9.84,21-9.83,28.57,.01,1.67,2.17,3.45,2.64,6,1.57,11.44-4.78,23.19,2.1,24.72,14.48,.3,2.45,1.78,3.9,4.25,4.19,12.22,1.43,19.19,13.32,14.45,24.64-.17,.41-.32,.83-.57,1.47,2.9,0,5.66,.15,8.4-.03,4.26-.28,6.4,2.72,6.33,6.3-.17,8.55-.05,17.11-.06,25.67,0,3.77-2.04,5.81-5.81,5.82-2.79,0-5.57,0-8.36,0-.1,0-.2,.03-.31,.04-.15,.54,.19,.97,.38,1.42,4.74,11.33-2.23,23.22-14.45,24.65-2.53,.3-3.98,1.77-4.27,4.34-1.33,11.98-13.31,19.07-24.44,14.46-2.98-1.24-4.54-.83-6.45,1.69-7.21,9.5-21.02,9.5-28.21,.02-1.92-2.53-3.47-2.94-6.44-1.71-11.13,4.61-23.17-2.49-24.45-14.43-.28-2.63-1.75-4.09-4.4-4.37-11.86-1.27-19.01-13.33-14.45-24.33,.23-.54,.63-1.05,.51-1.77-2.48,0-4.97-.16-7.43,.04-3.22,.25-5.61-.77-7.05-3.73v-30.39Zm116.7,34.12c-.61-.02-1.21-.05-1.82-.05-20.35,0-40.7-.01-61.06,.02-1.65,0-2.75-.49-3.09-2.2,.52-1.99,1.05-2.37,3.4-2.37,30.43,0,60.87,0,91.3,0,.66,0,1.31-.05,1.97-.07,.55,.02,1.11,.07,1.66,.07,1.99,0,1.99,0,1.99-1.98,0-7.78,0-15.56,0-23.33q0-3.55-3.65-3.28c-.2-.02-.4-.07-.6-.07-46.94,0-93.87,0-140.81-.03-1.32,0-1.46,.57-1.46,1.65,.03,8.4,.05,16.81-.02,25.21-.01,1.48,.43,1.87,1.88,1.86,11.75-.05,23.49-.03,35.24-.03,2.03,0,2.63,.47,3.07,2.37-.3,1.63-1.32,2.23-2.93,2.19-2.54-.06-5.08-.02-7.7-.02,7.44,17.88,27.18,31.18,49.18,28.46,.15,0,.3,.04,.45,.02,15.7-2.3,27.57-10.31,35.64-23.95,.84-1.41,1.67-2.85,2.12-4.48h-4.78ZM34.36,53.68c.35,.02,.71,.05,1.06,.05,27.25,0,54.5,0,81.74,0,.35,0,.71-.03,1.06-.05h3.33c-.17-.41-.27-.69-.4-.96-2.66-5.79-6.34-10.85-11.01-15.19-1.54-1.43-1.63-2.01-.71-3.8,1.31-.97,2.46-.78,3.65,.31,4.91,4.54,8.81,9.81,11.78,15.8,.65,1.31,.65,3.28,2.09,3.78,1.39,.48,3.09,.07,4.65,.06,.66,.02,1.31,.06,1.97,.06q2.51,0,3.35-2.26c.21-.57,.49-1.11,.7-1.68,3.03-7.9-2.26-16.72-10.56-17.61-5.35-.57-8.22-3.46-8.82-8.87-.66-5.91-5.96-11.05-11.56-11.18-2.28-.5-4.42,.04-6.5,.89-5.02,2.06-8.64,1.09-11.98-3.26-5.33-6.94-15.5-6.92-20.81,.03-.55,.72-1.11,1.47-1.79,2.05-3.07,2.6-6.43,2.76-10.06,1.22-8.3-3.51-17.2,1.73-18.17,10.63-.53,4.88-3.65,7.96-8.59,8.48-8.55,.9-13.88,9.71-10.74,17.72,.39,.99,.84,1.97,1.05,2.99,.15,.75,.47,.86,1.11,.85,2.33-.02,4.66-.1,6.99,.03,1.42,.08,2.07-.38,2.63-1.71,11.97-28.26,46.22-40.11,73.06-25.31,1.93,1.06,2.23,1.71,1.7,3.62-.55,.69-1.33,.98-2.15,1.17-.19-.03-.4,0-.56-.09-17.01-9.33-33.83-8.89-50.23,1.37-7.89,4.94-13.67,11.9-17.37,20.5-.04,.11-.08,.21-.12,.32,.07,.01,.15,.03,.22,.04Zm96.93,37.88c-.96-.02-1.93,.04-2.88-.08-1.43-.19-2.06,.39-2.62,1.72-11.2,26.42-42.05,38.82-68.41,27.48-12.95-5.57-22.16-14.96-27.75-27.89-.42-.97-.88-1.37-1.97-1.32-2.12,.1-4.26,.15-6.38-.01-1.54-.12-2.31,.3-2.47,1.88-.06,.58-.41,1.13-.64,1.69-3.38,8.22,1.87,17.07,10.7,18.04,4.83,.53,7.93,3.61,8.47,8.42,1,8.94,9.81,14.14,18.14,10.71,4.93-2.03,8.63-1.03,11.87,3.2,1.64,2.14,3.66,3.76,6.3,4.5,5.06,1.94,11.02,.17,14.49-4.37,.99-1.3,2.02-2.54,3.5-3.3,2.81-1.46,5.59-1.26,8.47-.05,8.3,3.5,17.15-1.74,18.14-10.68,.53-4.82,3.63-7.9,8.46-8.43,8.58-.93,13.94-9.45,10.9-17.46-.52-1.37-.5-3.37-1.7-3.94-1.27-.61-3.07-.11-4.64-.1Z"/><path class="cls-2" d="M147.4,86.88c-.66,.02-1.31,.07-1.97,.07-30.43,0-60.87,0-91.3,0-2.35,0-2.88,.38-3.4,2.37-2.01,0-4.01,0-6.02,0-.45-1.9-1.04-2.37-3.07-2.37-11.75,0-23.49-.03-35.24,.03-1.45,0-1.89-.38-1.88-1.86,.07-8.4,.05-16.81,.02-25.21,0-1.08,.14-1.65,1.46-1.65,46.94,.03,93.87,.03,140.81,.03,.2,0,.4,.04,.6,.07,0,9.51,0,19.01,0,28.52Zm-89.54-11.87c.29-.16,.42-.23,.55-.29,3.31-1.58,5.01-4.57,4.35-7.66-.74-3.43-3.53-5.64-7.24-5.69-1.37-.02-2.73-.02-4.1,0-1.97,.02-2.78,.81-2.79,2.75-.01,5.67-.01,11.34,0,17.01,0,1.69,.82,2.68,2.19,2.73,1.42,.05,2.34-.98,2.36-2.72,.02-1.39,0-2.77,0-4.54,1.93,2.19,3.58,4.09,5.26,5.96,1.29,1.45,2.56,1.69,3.65,.74,1.12-.97,1.05-2.26-.22-3.71-1.29-1.48-2.59-2.96-4.01-4.58Zm71.72-2.12s.05,0,.08,0c0,2.63,0,5.26,0,7.89,.01,2.4,.7,3.09,3.04,3.08,1.32,0,2.63,0,3.95-.02,3.68-.06,6.37-1.76,8.06-4.99,1.64-3.15,1.81-6.48,.89-9.87-1.24-4.6-4.41-7.03-9.16-7.06-1.32,0-2.63,0-3.95,0-2.17,.01-2.91,.73-2.92,2.92-.02,2.68,0,5.36,0,8.04Zm-109,10.98c2.87,.01,5.35-.94,7.31-3.08,.96-1.05,.99-2.38,.14-3.28-.9-.95-2.25-.91-3.37,.09-2.18,1.94-4.62,2.26-7.1,.91-2.48-1.34-3.93-4.21-3.47-6.87,.82-4.74,5.67-7.1,9.97-4.81,.93,.49,1.82,.9,2.84,.28,1.65-1,1.39-3.1-.53-4.23-4.02-2.36-9.14-1.94-12.78,1.05-3.67,3.01-5.06,8.02-3.45,12.48,1.58,4.41,5.78,7.41,10.45,7.46Zm12.01-11.1c0,2.79-.02,5.57,0,8.36,.02,1.76,.8,2.69,2.37,2.73,2.48,.05,4.96,.05,7.45,0,1.32-.03,2.23-1,2.25-2.2,.03-1.2-.86-2.19-2.16-2.31-.75-.07-1.52-.02-2.28-.02-3.2,0-3.17,0-3.11-3.21,.02-.85,.24-1.17,1.12-1.12,1.21,.06,2.43,.07,3.64-.01,1.4-.1,2.27-1.11,2.2-2.41-.07-1.23-.95-2.03-2.32-2.11-.51-.03-1.01,0-1.52,0-3.5,0-3.47,0-3.11-3.52,.07-.68,.34-.86,.95-.85,1.27,.02,2.53,.02,3.8,0,1.79-.04,2.81-.9,2.79-2.31-.02-1.4-1.03-2.24-2.85-2.26-2.13-.03-4.26-.04-6.38,0-2.06,.04-2.82,.83-2.84,2.91-.02,2.79,0,5.57,0,8.36Zm81.7-.09c0,2.83-.02,5.67,0,8.5,.01,1.67,.78,2.63,2.25,2.66,2.53,.06,5.06,.06,7.59,0,1.3-.03,2.22-1.05,2.23-2.23,0-1.18-.92-2.16-2.21-2.27-.7-.06-1.42-.02-2.12-.02-3.39,0-3.37,0-3.21-3.38,.03-.72,.23-.97,.96-.95,1.26,.04,2.53,.07,3.79-.02,1.38-.09,2.3-1.16,2.22-2.4-.08-1.19-1-2.04-2.34-2.11-.45-.02-.91,0-1.37,0-3.39,0-3.37,0-3.26-3.34,.02-.77,.21-1.09,1.02-1.06,1.26,.05,2.53,.03,3.8,0,1.66-.04,2.7-.89,2.72-2.21,.03-1.32-1.01-2.29-2.64-2.32-2.23-.05-4.45-.05-6.68,0-1.95,.04-2.74,.87-2.75,2.82-.02,2.78,0,5.57,0,8.35Zm-22.8,0c0,2.83-.02,5.67,0,8.5,.01,1.65,.9,2.66,2.26,2.67,1.37,.01,2.26-1,2.28-2.64,.02-1.72,.08-3.45-.02-5.16-.06-1.11,.33-1.4,1.37-1.31,.95,.09,1.92,.04,2.88,.01,1.43-.05,2.39-.93,2.43-2.18,.04-1.31-.94-2.29-2.44-2.35-1.11-.05-2.23-.04-3.34,0-.63,.02-.85-.17-.9-.84-.24-3.38-.26-3.38,3.08-3.38,.51,0,1.01,0,1.52,0,1.64-.04,2.67-.92,2.66-2.26-.01-1.33-1.05-2.24-2.7-2.26-2.13-.03-4.25-.04-6.38,0-1.93,.03-2.71,.87-2.72,2.85-.02,2.78,0,5.57,0,8.35Zm-21.49,1.35c0,2.13,0,4.25,0,6.38,0,.35-.02,.71,.01,1.06,.13,1.52,1.08,2.45,2.4,2.38,1.26-.06,2.11-.99,2.12-2.47,.03-4.2,.01-8.4,.01-12.6q0-2.64,2.67-2.86c.05,0,.1,0,.15,0,1.29-.16,2.21-1.12,2.19-2.3-.02-1.19-.94-2.2-2.25-2.22-3.34-.05-6.68-.05-10.02,0-1.3,.02-2.22,1.04-2.22,2.23,0,1.19,.91,2.14,2.21,2.28,.35,.04,.72,.07,1.06,0,1.47-.27,1.75,.44,1.69,1.74-.1,2.12-.03,4.25-.03,6.38Zm12.94-1.51c0,2.88-.01,5.76,0,8.64,0,1.68,.84,2.67,2.2,2.7,1.38,.03,2.33-.96,2.34-2.59,.03-5.76,.02-11.52,0-17.27,0-1.64-.94-2.63-2.31-2.62-1.37,.01-2.22,1-2.23,2.67-.02,2.83,0,5.66,0,8.48Zm28.11,.24c0-2.89,.02-5.77,0-8.66-.01-1.73-.81-2.69-2.17-2.74-1.43-.05-2.33,.95-2.33,2.73-.02,5.67-.02,11.34,0,17.01,0,1.78,.9,2.79,2.33,2.74,1.36-.04,2.16-1.01,2.18-2.74,.02-2.78,0-5.57,0-8.35Z"/><path class="cls-5" d="M104.57,30.38c.54-1.92,.23-2.56-1.7-3.62-26.84-14.8-61.09-2.96-73.06,25.31-.56,1.33-1.22,1.79-2.63,1.71-2.32-.13-4.66-.05-6.99-.03-.64,0-.96-.11-1.11-.85-.21-1.03-.66-2.01-1.05-2.99-3.15-8.01,2.19-16.82,10.74-17.72,4.93-.52,8.05-3.6,8.59-8.48,.97-8.9,9.87-14.14,18.17-10.63,3.64,1.54,6.99,1.37,10.06-1.22,.69-.58,1.24-1.33,1.79-2.05,5.31-6.96,15.49-6.98,20.81-.03,3.34,4.35,6.96,5.32,11.98,3.26,2.08-.85,4.22-1.4,6.5-.89,.29,.34,.54,.74,.88,1.02,3.17,2.61,4.39,6.16,4.89,10.06,.77,6.08,3.08,8.68,9.01,10.24,1.9,.5,3.79,1.11,5.51,2.07,3.88,2.15,5.35,5.71,5.54,9.93,.13,2.78-.55,5.49-.91,8.22-1.56,.02-3.26,.42-4.65-.06-1.44-.5-1.44-2.47-2.09-3.78-2.97-5.99-6.87-11.26-11.78-15.8-1.18-1.09-2.34-1.28-3.64-.31-1.69-1.02-3.08-2.47-4.86-3.35Z"/><path class="cls-5" d="M73.66,139.89c-2.64-.74-4.66-2.36-6.3-4.5-3.24-4.23-6.94-5.23-11.87-3.2-8.33,3.43-17.13-1.77-18.14-10.71-.54-4.81-3.64-7.89-8.47-8.42-8.83-.96-14.08-9.82-10.7-18.04,.23-.56,.58-1.11,.64-1.69,.15-1.58,.93-2,2.47-1.88,2.11,.16,4.25,.11,6.38,.01,1.09-.05,1.55,.35,1.97,1.32,5.59,12.92,14.8,22.32,27.75,27.89,26.36,11.34,57.21-1.06,68.41-27.48,.56-1.33,1.19-1.91,2.62-1.72,.95,.13,1.92,.06,2.88,.08,.03,1.9,.84,3.62,1.29,5.42,.53,2.13,.9,4.21-.05,6.35-1.45,3.24-4.3,4.4-7.42,5.13-5.14,1.2-9.3,3.59-11.15,8.88-.43,1.24-.73,2.52-1.21,3.74-1.78,4.54-4.79,7.9-10.43,7.5-1.97-.14-3.88-.56-5.83-.79-3.78-.46-7.02,.3-9.31,3.58-2.12,3.03-4.62,5.56-8.18,6.93-1.75,.67-3.61,.9-5.35,1.59Z"/><path class="cls-4" d="M73.66,139.89c1.73-.69,3.59-.92,5.35-1.59,3.56-1.37,6.06-3.9,8.18-6.93,2.29-3.27,5.53-4.03,9.31-3.58,1.94,.23,3.85,.65,5.83,.79,5.64,.4,8.65-2.96,10.43-7.5,.48-1.22,.78-2.5,1.21-3.74,1.85-5.29,6.01-7.68,11.15-8.88,3.12-.73,5.97-1.88,7.42-5.13,.95-2.14,.59-4.22,.05-6.35-.45-1.8-1.26-3.52-1.29-5.42,1.57-.01,3.36-.51,4.64,.1,1.2,.57,1.19,2.58,1.7,3.94,3.04,8.02-2.32,16.53-10.9,17.46-4.83,.53-7.93,3.61-8.46,8.43-.99,8.93-9.85,14.18-18.14,10.68-2.88-1.21-5.66-1.41-8.47,.05-1.48,.77-2.51,2-3.5,3.3-3.48,4.54-9.43,6.32-14.49,4.37Z"/><path class="cls-4" d="M131.59,53.68c.36-2.73,1.04-5.44,.91-8.22-.19-4.22-1.66-7.78-5.54-9.93-1.72-.96-3.61-1.57-5.51-2.07-5.93-1.56-8.23-4.16-9.01-10.24-.49-3.9-1.71-7.45-4.89-10.06-.34-.28-.59-.68-.88-1.02,5.59,.14,10.9,5.27,11.56,11.18,.6,5.41,3.48,8.3,8.82,8.87,8.3,.89,13.59,9.7,10.56,17.61-.22,.57-.49,1.11-.7,1.68q-.84,2.26-3.35,2.26c-.66,0-1.31-.04-1.97-.06Z"/><path class="cls-1" d="M147.4,86.88c0-9.51,0-19.01,0-28.52q3.65-.27,3.65,3.28c0,7.78,0,15.56,0,23.33,0,1.98,0,1.99-1.99,1.98-.55,0-1.11-.04-1.66-.07Z"/><path class="cls-6" d="M57.87,75.01c1.42,1.62,2.72,3.09,4.01,4.58,1.27,1.45,1.34,2.74,.22,3.71-1.09,.95-2.36,.71-3.65-.74-1.67-1.88-3.32-3.77-5.26-5.96,0,1.76,.01,3.15,0,4.54-.02,1.73-.93,2.77-2.36,2.72-1.36-.05-2.18-1.04-2.19-2.73-.01-5.67-.01-11.34,0-17.01,0-1.94,.82-2.73,2.79-2.75,1.37-.01,2.73-.02,4.1,0,3.71,.05,6.51,2.25,7.24,5.69,.66,3.09-1.04,6.08-4.35,7.66-.13,.06-.25,.14-.55,.29Zm-2.64-9.1c-2.37,.04-2-.26-2.04,1.75-.01,.76,0,1.52,0,2.28,0,.44,.04,.83,.62,.8,.91-.05,1.83,.11,2.71-.2,1.11-.38,1.85-1.13,1.79-2.34-.06-1.21-.88-1.9-1.99-2.2-.43-.12-.9-.07-1.1-.08Z"/><path class="cls-6" d="M129.58,72.89c0-2.68-.01-5.36,0-8.04,.02-2.19,.75-2.9,2.92-2.92,1.32,0,2.63,0,3.95,0,4.74,.02,7.91,2.45,9.16,7.06,.92,3.39,.75,6.72-.89,9.87-1.69,3.24-4.38,4.93-8.06,4.99-1.32,.02-2.63,.01-3.95,.02-2.34,0-3.03-.69-3.04-3.08-.01-2.63,0-5.26,0-7.89-.03,0-.05,0-.08,0Zm4.55,0h.03c0,1.82,0,3.65,0,5.47,0,.37-.12,.78,.47,.95,2.44,.71,5.34-.62,6.32-3,.61-1.48,.79-3.03,.57-4.62-.57-4.12-2.32-5.51-6.45-5.24-.72,.05-.97,.26-.96,.98,.04,1.82,.01,3.65,.01,5.47Z"/><path class="cls-6" d="M20.59,83.87c-4.66-.05-8.86-3.05-10.45-7.46-1.6-4.46-.22-9.47,3.45-12.48,3.64-2.99,8.76-3.41,12.78-1.05,1.93,1.13,2.19,3.22,.53,4.23-1.02,.62-1.91,.22-2.84-.28-4.3-2.28-9.15,.07-9.97,4.81-.46,2.66,.99,5.53,3.47,6.87,2.48,1.34,4.92,1.03,7.1-.91,1.12-1,2.47-1.04,3.37-.09,.85,.9,.82,2.23-.14,3.28-1.96,2.15-4.44,3.09-7.31,3.08Z"/><path class="cls-6" d="M32.6,72.77c0-2.79-.02-5.57,0-8.36,.02-2.08,.78-2.87,2.84-2.91,2.13-.04,4.26-.03,6.38,0,1.81,.03,2.83,.86,2.85,2.26,.02,1.41-1,2.27-2.79,2.31-1.27,.03-2.53,.02-3.8,0-.6,0-.88,.17-.95,.85-.36,3.53-.38,3.52,3.11,3.52,.51,0,1.01-.02,1.52,0,1.37,.07,2.26,.88,2.32,2.11,.07,1.3-.8,2.31-2.2,2.41-1.21,.08-2.43,.07-3.64,.01-.88-.05-1.1,.27-1.12,1.12-.06,3.21-.09,3.21,3.11,3.21,.76,0,1.52-.05,2.28,.02,1.29,.12,2.18,1.11,2.16,2.31-.03,1.2-.94,2.17-2.25,2.2-2.48,.05-4.96,.06-7.45,0-1.56-.03-2.35-.96-2.37-2.73-.03-2.79,0-5.57,0-8.36Z"/><path class="cls-6" d="M114.3,72.68c0-2.78-.01-5.57,0-8.35,.01-1.95,.8-2.78,2.75-2.82,2.23-.04,4.45-.05,6.68,0,1.63,.04,2.66,1,2.64,2.32-.03,1.32-1.06,2.18-2.72,2.21-1.26,.03-2.53,.04-3.8,0-.81-.03-1,.29-1.02,1.06-.1,3.34-.13,3.34,3.26,3.34,.46,0,.91-.02,1.37,0,1.34,.07,2.27,.91,2.34,2.11,.08,1.24-.85,2.31-2.22,2.4-1.26,.08-2.53,.06-3.79,.02-.73-.03-.92,.23-.96,.95-.16,3.38-.18,3.38,3.21,3.38,.71,0,1.42-.04,2.12,.02,1.29,.11,2.21,1.1,2.21,2.27,0,1.19-.93,2.2-2.23,2.23-2.53,.06-5.06,.07-7.59,0-1.48-.04-2.24-.99-2.25-2.66-.02-2.83,0-5.67,0-8.5Z"/><path class="cls-6" d="M91.5,72.69c0-2.78-.01-5.57,0-8.35,.01-1.99,.79-2.82,2.72-2.85,2.13-.04,4.25-.03,6.38,0,1.64,.03,2.68,.93,2.7,2.26,.01,1.34-1.02,2.22-2.66,2.26-.51,.01-1.01,0-1.52,0-3.35,0-3.32,0-3.08,3.38,.05,.68,.27,.86,.9,.84,1.11-.03,2.23-.04,3.34,0,1.5,.06,2.48,1.04,2.44,2.35-.04,1.25-1.01,2.13-2.43,2.18-.96,.03-1.93,.07-2.88-.01-1.03-.09-1.43,.2-1.37,1.31,.1,1.72,.04,3.44,.02,5.16-.02,1.64-.91,2.65-2.28,2.64-1.36-.01-2.25-1.02-2.26-2.67-.02-2.83,0-5.67,0-8.5Z"/><path class="cls-6" d="M70.01,74.04c0-2.13-.07-4.26,.03-6.38,.06-1.31-.22-2.02-1.69-1.74-.34,.06-.71,.03-1.06,0-1.3-.14-2.21-1.09-2.21-2.28,0-1.19,.93-2.21,2.22-2.23,3.34-.05,6.68-.05,10.02,0,1.31,.02,2.23,1.03,2.25,2.22,.02,1.18-.9,2.15-2.19,2.3-.05,0-.1,0-.15,0q-2.67,.23-2.67,2.86c0,4.2,.02,8.4-.01,12.6-.01,1.48-.86,2.41-2.12,2.47-1.32,.07-2.27-.87-2.4-2.38-.03-.35-.01-.71-.01-1.06,0-2.13,0-4.25,0-6.38Z"/><path class="cls-6" d="M82.95,72.53c0-2.83-.01-5.66,0-8.48,0-1.66,.86-2.65,2.23-2.67,1.37-.01,2.3,.98,2.31,2.62,.02,5.76,.02,11.52,0,17.27,0,1.63-.96,2.62-2.34,2.59-1.36-.03-2.19-1.02-2.2-2.7-.02-2.88,0-5.76,0-8.64Z"/><path class="cls-6" d="M111.06,72.77c0,2.78,.02,5.57,0,8.35-.02,1.72-.82,2.69-2.18,2.74-1.43,.05-2.32-.96-2.33-2.74-.02-5.67-.02-11.34,0-17.01,0-1.78,.9-2.78,2.33-2.73,1.36,.05,2.16,1.01,2.17,2.74,.02,2.88,0,5.77,0,8.66Z"/><path class="cls-6" d="M77.66,49.23c-8.25,0-16.5-.01-24.74,.01-1.47,0-2.72-.26-3.42-1.71-.7-1.45-.08-2.6,.81-3.74,13.98-18.01,41.29-17.94,55.16,.16,.83,1.08,1.26,2.19,.64,3.5-.65,1.37-1.83,1.75-3.25,1.75-8.4-.01-16.8,0-25.2,0v.03Zm16.84-4.63h5.25c-.02-.17,0-.3-.05-.35-6.19-6.28-13.62-9.55-22.51-9.3-8.53,.06-15.53,3.51-21.73,9.72,.99,0,1.59,0,2.18,0,12.29-.02,24.58-.05,36.86-.07Z"/><path class="cls-6" d="M77.81,96.04c8.25,0,16.5,.01,24.74,0,1.51,0,2.84,.24,3.56,1.75,.73,1.52,.01,2.68-.92,3.85-14.14,17.79-40.94,17.7-54.87-.19-.89-1.14-1.51-2.28-.82-3.74,.69-1.45,1.94-1.72,3.41-1.72,8.3,.03,16.6,.01,24.9,.01v.03Zm-.62,14.25c8.99,.29,16.4-3.15,22.94-9.65-2.13,0-3.88,0-5.63,0-12.84-.01-25.68-.03-38.52-.04-.06,0-.12,.13-.23,.27,5.94,5.9,12.94,9.35,21.44,9.41Z"/><path class="cls-2" d="M55.23,65.92c.2,.01,.67-.04,1.1,.08,1.11,.3,1.94,.99,1.99,2.2,.06,1.21-.68,1.96-1.79,2.34-.89,.31-1.81,.15-2.71,.2-.59,.03-.63-.36-.62-.8,0-.76-.02-1.52,0-2.28,.04-2.01-.33-1.7,2.04-1.75Z"/><path class="cls-2" d="M134.13,72.9c0-1.82,.02-3.65-.01-5.47-.01-.72,.24-.93,.96-.98,4.13-.26,5.87,1.12,6.45,5.24,.22,1.59,.04,3.14-.57,4.62-.98,2.38-3.88,3.71-6.32,3-.59-.17-.47-.58-.47-.95-.01-1.82,0-3.65,0-5.47h-.03Z"/><path class="cls-4" d="M94.5,44.6c-12.29,.02-24.58,.05-36.86,.07-.59,0-1.19,0-2.18,0,6.2-6.21,13.2-9.66,21.73-9.72,.22,.26,.53,.23,.82,.3,6.43,1.46,12,4.46,16.49,9.35Z"/><path class="cls-3" d="M94.5,44.6c-4.49-4.89-10.06-7.89-16.49-9.35-.29-.07-.61-.04-.82-.3,8.89-.25,16.32,3.02,22.51,9.3,.05,.05,.03,.18,.05,.35h-5.25Z"/><path class="cls-4" d="M77.19,110.29c-8.5-.06-15.5-3.52-21.44-9.41,.11-.14,.17-.27,.23-.27,12.84,0,25.68,.02,38.52,.04-2.29,2.67-5.15,4.6-8.18,6.31-2.86,1.61-5.99,2.48-9.13,3.34Z"/><path class="cls-3" d="M77.19,110.29c3.13-.86,6.27-1.73,9.13-3.34,3.03-1.71,5.89-3.64,8.18-6.31,1.75,0,3.5,0,5.63,0-6.53,6.5-13.94,9.94-22.94,9.65Z"/></g></g></g></svg>