<?xml version="1.0" encoding="UTF-8"?><svg id="Layer_2" xmlns="http://www.w3.org/2000/svg" viewBox="0 0 129.74 130"><defs><style>.cls-1{fill:#fff;}.cls-2{fill:#fbfbfb;}.cls-3{fill:#cacfd7;}.cls-4{fill:#06ffd5;}.cls-5{fill:#1a2959;}</style></defs><g id="circles"><path class="cls-2" d="M117.05,129.98c.34-.5,.91-.26,1.36-.38,5.94-1.63,9.57-5.47,11.03-11.42,.06-.23-.04-.52,.27-.64,0,3.89-.02,7.79,.02,11.68,0,.64-.14,.78-.78,.78-3.97-.03-7.94-.02-11.91-.02Z"/><path class="cls-3" d="M79.57,39.85c-.02-1.77,.01-3.55-.07-5.32-.04-.88,.3-1.02,1.08-1.02,6.07,.03,12.15-.02,18.22,.05,1.29,.02,1.86-.28,1.62-1.62-.03-.16,.04-.33,.07-.5,1.36,0,2.73,.01,4.09,.02q.12,2.07,2.18,2.07c1.39,0,2.79-.03,4.18,0,3.41,.09,5.98,2.58,6.19,5.98,.03,.46,.03,.93,.03,1.4,0,22.17,0,44.33,.03,66.5,0,1.2-.18,1.62-1.53,1.62-33.86-.05-67.72-.04-101.58,0-1.18,0-1.54-.22-1.54-1.49,.04-22.25,.09-44.5-.01-66.75-.02-4.81,3.3-7.57,7.28-7.27,1.34,.1,2.7-.04,4.05,.03,.93,.05,1.45-.14,1.26-1.2-.05-.28,.02-.59,.04-.88,1.36,0,2.73-.01,4.09-.02q.2,2.08,2.32,2.08c5.82,0,11.64,.02,17.46-.02,.9,0,1.27,.14,1.21,1.15-.11,1.73-.06,3.46-.08,5.19-1.34,0-2.69,0-4.03,0q-.16-2.09-2.33-2.09c-7.43,0-14.86,0-22.29,0-3.15,0-4.76,1.61-4.77,4.74,0,19.16,0,38.32,0,57.48,0,3.21,1.63,4.85,4.82,4.85,28.87,0,57.75,0,86.62,0,3.19,0,4.82-1.65,4.82-4.85,0-19.16,0-38.32,0-57.48,0-3.13-1.62-4.74-4.77-4.75-7.43,0-14.86,0-22.29,0q-2.17,0-2.33,2.09c-1.34,0-2.69,0-4.03,0Z"/><path class="cls-3" d="M62.73,39.85c-2.75,0-5.5,0-8.25,0,0-2.79,0-5.58,0-8.38,2.75,0,5.5-.01,8.25-.02,0,2.8,0,5.6,0,8.39Z"/><path class="cls-3" d="M75.23,39.85c-2.75,0-5.5,0-8.25,0,0-2.8,0-5.6,0-8.39,2.75,0,5.5,.01,8.25,.02,0,2.79,0,5.58,0,8.38Z"/></g><g id="Layer_1-2"><g><path class="cls-5" d="M117.05,129.98H12.41c-.12-.32-.41-.22-.64-.27-3.27-.73-6.04-2.31-8.23-4.86-2.08-2.41-3.24-5.22-3.5-8.38-.38-4.58,2.32-7.49,6.97-7.45,1.06,0,1.4-.19,1.39-1.34-.06-7.4-.03-14.79-.03-22.19,0-15.13-.01-30.27,0-45.4,0-5.28,3.41-9.53,8.45-10.53,1.99-.4,4.04-.17,6.06-.19,2.14-.02,2.14,0,2.26,2.1-.02,.29-.09,.6-.04,.88,.19,1.07-.33,1.25-1.26,1.2-1.35-.07-2.71,.07-4.05-.03-3.98-.31-7.31,2.46-7.28,7.27,.11,22.25,.06,44.5,.01,66.75,0,1.27,.36,1.49,1.54,1.49,33.86-.03,67.72-.04,101.58,0,1.36,0,1.54-.42,1.53-1.62-.03-22.17-.02-44.33-.03-66.5,0-.47,0-.93-.03-1.4-.22-3.39-2.79-5.88-6.19-5.98-1.39-.04-2.79,0-4.18,0q-2.06,0-2.18-2.07c.02-.51,.06-1.01,.04-1.52-.01-.43,.14-.6,.58-.59,2.57,.07,5.17-.28,7.71,.21,5.1,.98,8.45,5.27,8.45,10.66,0,22.45,.01,44.9-.02,67.36,0,1.12,.22,1.51,1.41,1.44,2.69-.15,4.85,.89,6.22,3.31,.3,.53,.51,1.1,.76,1.66v3.55c-.32,.11-.22,.41-.27,.64-1.46,5.95-5.09,9.8-11.03,11.42-.45,.12-1.02-.12-1.36,.38ZM26.86,113.22c-6.63,0-13.26,0-19.89,0-2.19,0-2.87,.73-2.72,2.94,.03,.46,.08,.93,.19,1.38,1.17,5.1,5.27,8.21,10.85,8.21,23.73,0,47.46,0,71.19,0,.17,0,.34-.02,.51,0,.74,.1,.93-.25,.92-.95-.04-2.16,0-4.32-.03-6.47-.01-.68,.14-.98,.9-.97,3.59,.03,7.18,.03,10.77,0,.76,0,.92,.31,.9,.98-.04,1.44-.01,2.88-.01,4.31,0,3.21,0,3.18,3.21,3.12,.78-.02,1-.26,.99-1.02-.05-2.11,0-4.23-.03-6.35-.01-.72,.11-1.06,.95-1.05,3.55,.04,7.09,.04,10.64,0,.79,0,1.02,.26,1,1.03-.04,2.03,.02,4.06-.03,6.09-.02,.93,.28,1.06,1.12,.79,3.83-1.21,6.83-4.88,7.16-8.85,.21-2.53-.41-3.21-2.95-3.21-13.13,0-26.26,.02-39.39-.03-1.16,0-1.57,.19-1.55,1.48,.08,4.38-2.51,6.93-6.88,6.94-6.46,0-12.92-.12-19.38,.05-4.42,.12-7.6-3.09-7.16-7.23,.11-1.06-.32-1.23-1.27-1.22-6.67,.04-13.34,.02-20.01,.02Zm37.99,0c-3.84,0-7.68,0-11.52,.01-.4,0-.91-.24-1.03,.54-.39,2.48,.52,3.62,3.01,3.62,6.37,0,12.74,0,19.11,0,2.43,0,3-.63,3.01-3.12,0-.82-.22-1.07-1.05-1.07-3.84,.04-7.68,.02-11.52,.02Zm48.14,10.49q0-2.1-2.1-2.1t-2.11,2.11,2.06,2.07,2.15-2.08Zm-16.73-.02q0-2.09-1.48-2.09-2.73,0-2.73,1.6,0,2.56,1.69,2.56,2.53,0,2.53-2.07Z"/><path class="cls-5" d="M29.22,31.45c.02-3.25,.03-6.51,.08-9.76,.01-.83-.52-.7-1.01-.71-2.7,0-5.4-.07-8.1,.03-1.23,.05-1.43-.38-1.42-1.49,.03-6.51-.01-13.02-.03-19.53C27.1,0,35.46,0,43.82,0c.03,.08,.08,.16,.08,.24,0,6.64,0,13.28,.03,19.91,0,.84-.42,.84-1.02,.84-2.83-.02-5.66,.02-8.48-.02-.77-.01-1.01,.19-.99,.98,.06,2.11,.07,4.23,0,6.34-.03,.93,.29,1.1,1.14,1.1,5.87-.04,11.73-.02,17.6-.02q2.14,0,2.3,2.11c0,2.79,0,5.58,0,8.38-.02,4.57-.04,9.13-.06,13.7,0,3.08,0,3.04-3.07,3.09-.94,.01-1.2-.22-1.19-1.18,.03-5.2,0-10.4-.03-15.6,.02-1.73-.03-3.47,.08-5.19,.06-1.01-.31-1.16-1.21-1.15-5.82,.04-11.64,.02-17.46,.02q-2.12,0-2.32-2.08Zm2.15-14.69c2.49,0,4.98-.02,7.47,.02,.71,.01,.93-.18,.92-.91-.04-3.55-.04-7.11,0-10.66,0-.75-.15-1.03-.96-1.02-4.94,.04-9.88,.04-14.82,0-.79,0-.99,.23-.98,1,.04,3.55,.05,7.11,0,10.66-.01,.86,.32,.94,1.03,.93,2.45-.04,4.9-.01,7.35-.01Z"/><path class="cls-5" d="M110.97,0c-.02,6.51-.06,13.02-.03,19.53,0,1.11-.2,1.54-1.42,1.49-2.7-.11-5.4-.03-8.1-.03-.49,0-1.03-.13-1.01,.71,.05,3.25,.06,6.51,.08,9.76-.02,.17-.1,.34-.07,.5,.24,1.34-.33,1.63-1.62,1.62-6.07-.07-12.15-.02-18.22-.05-.78,0-1.12,.14-1.08,1.02,.09,1.77,.05,3.55,.07,5.32-.02,4.61-.04,9.22-.05,13.82,0,2.94,0,2.89-2.94,2.96-1.04,.02-1.33-.25-1.32-1.31,.04-5.16-.01-10.32-.03-15.47,0-2.79,0-5.58,0-8.38q.16-2.11,2.3-2.11c5.87,0,11.73-.02,17.6,.02,.86,0,1.18-.17,1.14-1.1-.07-2.11-.06-4.23,0-6.34,.02-.8-.22-.99-.99-.98-2.7,.05-5.4-.03-8.1,.04-1.07,.03-1.44-.18-1.42-1.36,.08-4.4,.02-8.79,.04-13.19,0-2.15,.06-4.3,.09-6.45,8.36,0,16.72,0,25.08,0Zm-12.66,16.76c2.49,0,4.98-.02,7.47,.02,.71,.01,.92-.19,.92-.91-.04-3.6-.04-7.19,0-10.79,0-.76-.28-.89-.95-.89-4.94,.02-9.88,.03-14.82,0-.78,0-1,.21-.99,.99,.04,3.55,.05,7.11,0,10.66-.01,.86,.33,.94,1.03,.93,2.45-.03,4.9-.01,7.35-.01Z"/><path class="cls-5" d="M52.19,0c8.45,0,16.89,0,25.34,0-.03,.46-.1,.92-.1,1.38,0,6.05-.03,12.1,.02,18.15,0,1.11-.2,1.54-1.42,1.49-2.7-.11-5.4-.02-8.1-.04-.61,0-1.02,.01-1.01,.85,.06,3.21,.05,6.43,.07,9.64,0,2.8,0,5.6,0,8.39-.02,4.6-.04,9.2-.05,13.8,0,2.98,0,2.93-3.02,2.99-1,.02-1.15-.32-1.15-1.21,.02-5.19-.02-10.38-.03-15.58,0-2.8,0-5.6,0-8.39,.02-3.21,0-6.43,.07-9.64,.02-.83-.4-.85-1.01-.84-2.7,.02-5.41-.07-8.1,.04-1.23,.05-1.43-.39-1.42-1.49,.05-6.05,.03-12.1,.02-18.15,0-.46-.06-.92-.1-1.38Zm12.68,16.76c2.49,0,4.97-.03,7.46,.02,.72,.01,.92-.2,.91-.91-.03-3.59-.04-7.18,0-10.77,0-.73-.22-.91-.93-.91-4.97,.03-9.95,.03-14.92,0-.73,0-.91,.22-.91,.93,.03,3.59,.04,7.18,0,10.77,0,.74,.24,.9,.93,.89,2.49-.04,4.97-.01,7.46-.01Z"/><path class="cls-1" d="M79.57,39.85c-.02-1.77,.01-3.55-.07-5.32-.04-.88,.3-1.02,1.08-1.02,6.07,.03,12.15-.02,18.22,.05,1.29,.02,1.86-.28,1.62-1.62-.03-.16,.04-.33,.07-.5,1.36,0,2.73,.01,4.09,.02q.12,2.07,2.18,2.07c1.39,0,2.79-.03,4.18,0,3.41,.09,5.98,2.58,6.19,5.98,.03,.46,.03,.93,.03,1.4,0,22.17,0,44.33,.03,66.5,0,1.2-.18,1.62-1.53,1.62-33.86-.05-67.72-.04-101.58,0-1.18,0-1.54-.22-1.54-1.49,.04-22.25,.09-44.5-.01-66.75-.02-4.81,3.3-7.57,7.28-7.27,1.34,.1,2.7-.04,4.05,.03,.93,.05,1.45-.14,1.26-1.2-.05-.28,.02-.59,.04-.88,1.36,0,2.73-.01,4.09-.02q.2,2.08,2.32,2.08c5.82,0,11.64,.02,17.46-.02,.9,0,1.27,.14,1.21,1.15-.11,1.73-.06,3.46-.08,5.19-1.34,0-2.69,0-4.03,0q-.16-2.09-2.33-2.09c-7.43,0-14.86,0-22.29,0-3.15,0-4.76,1.61-4.77,4.74,0,19.16,0,38.32,0,57.48,0,3.21,1.63,4.85,4.82,4.85,28.87,0,57.75,0,86.62,0,3.19,0,4.82-1.65,4.82-4.85,0-19.16,0-38.32,0-57.48,0-3.13-1.62-4.74-4.77-4.75-7.43,0-14.86,0-22.29,0q-2.17,0-2.33,2.09c-1.34,0-2.69,0-4.03,0Z"/><path class="cls-1" d="M26.86,113.22c6.67,0,13.34,.02,20.01-.02,.95,0,1.38,.17,1.27,1.22-.43,4.14,2.74,7.34,7.16,7.23,6.46-.17,12.92-.04,19.38-.05,4.37,0,6.96-2.56,6.88-6.94-.02-1.29,.39-1.48,1.55-1.48,13.13,.04,26.26,.03,39.39,.03,2.54,0,3.16,.67,2.95,3.21-.32,3.96-3.33,7.64-7.16,8.85-.84,.26-1.14,.14-1.12-.79,.05-2.03-.01-4.06,.03-6.09,.02-.76-.21-1.03-1-1.03-3.55,.04-7.09,.04-10.64,0-.84-.01-.96,.33-.95,1.05,.04,2.11-.02,4.23,.03,6.35,.02,.76-.2,1-.99,1.02-3.21,.06-3.21,.09-3.21-3.12,0-1.44-.02-2.88,.01-4.31,.02-.67-.14-.99-.9-.98-3.59,.03-7.18,.03-10.77,0-.76,0-.91,.3-.9,.97,.03,2.16-.01,4.32,.03,6.47,.01,.7-.18,1.04-.92,.95-.17-.02-.34,0-.51,0-23.73,0-47.46,0-71.19,0-5.58,0-9.68-3.11-10.85-8.21-.1-.45-.16-.92-.19-1.38-.15-2.21,.53-2.94,2.72-2.94,6.63,0,13.26,0,19.89,0Z"/><path class="cls-1" d="M64.85,113.22c3.84,0,7.68,.02,11.52-.02,.84,0,1.06,.24,1.05,1.07-.01,2.49-.57,3.12-3.01,3.12-6.37,0-12.74,0-19.11,0-2.48,0-3.39-1.14-3.01-3.62,.12-.78,.64-.54,1.03-.54,3.84-.02,7.68-.01,11.52-.01Z"/><path class="cls-4" d="M112.99,123.71q0,2.08-2.15,2.08t-2.06-2.07,2.11-2.11,2.1,2.1Z"/><path class="cls-1" d="M96.25,123.69q0,2.07-2.53,2.07-1.69,0-1.69-2.56,0-1.6,2.73-1.6,1.48,0,1.48,2.09Z"/><path class="cls-1" d="M46.11,39.85c1.34,0,2.69,0,4.03,0,.02,5.2,.06,10.4,.03,15.6,0,.96,.25,1.2,1.19,1.18,3.07-.04,3.06,0,3.07-3.09,.01-4.57,.04-9.13,.06-13.7,2.75,0,5.5,0,8.25,0,.02,5.19,.06,10.38,.03,15.58,0,.9,.14,1.23,1.15,1.21,3.02-.06,3.01,0,3.02-2.99,.01-4.6,.04-9.2,.05-13.8,2.75,0,5.5,0,8.25,0,.02,5.16,.07,10.32,.03,15.47,0,1.07,.28,1.34,1.32,1.31,2.94-.07,2.93-.02,2.94-2.96,.01-4.61,.03-9.22,.05-13.82,1.34,0,2.69,0,4.03,0q.15,2.06,2.23,2.06c7.22,0,14.44,.02,21.66-.03,1.07,0,1.31,.29,1.31,1.33-.04,9.09-.02,18.19-.02,27.28,0,9.64-.01,19.29,.02,28.93,0,.92-.19,1.25-1.17,1.21-1.98-.08-3.97-.07-5.95,0-.96,.03-1.31-.2-1.29-1.24,.07-3.26,0-6.51,.04-9.77,0-.76-.2-1.13-.96-1.33-1.34-.35-2.65-.82-3.97-1.26-.83-.28-2.8-4.6-2.46-5.4,.1-.23,.23-.45,.35-.67,.6-1.16,1.17-2.34,1.81-3.48,.31-.55,.21-.87-.21-1.29-3.3-3.27-6.59-6.56-9.85-9.87-.46-.47-.81-.56-1.39-.24-1.25,.7-2.55,1.32-3.81,1.99-.43,.23-.79,.35-1.3,.15q-4.1-1.6-5.44-5.79c-.09-.28-.2-.56-.26-.85-.14-.65-.52-.82-1.17-.82-4.6,.03-9.2,.04-13.8,0-.76,0-1.02,.3-1.21,.95-.39,1.34-.85,2.65-1.26,3.98-.14,.45-.29,.82-.79,1.05q-4.05,1.79-8.06-.3c-.22-.12-.46-.22-.67-.36-.49-.32-.84-.3-1.29,.16-3.29,3.34-6.61,6.66-9.94,9.96-.43,.42-.51,.75-.21,1.29,.72,1.29,1.35,2.62,2.04,3.93,.2,.38,.32,.71,.15,1.17q-1.56,4.16-5.87,5.53c-.2,.06-.39,.17-.6,.2-.8,.1-.98,.56-.97,1.31,.04,3.26-.03,6.51,.04,9.77,.02,1.04-.33,1.27-1.29,1.24-1.98-.07-3.97-.08-5.95,0-.98,.04-1.17-.29-1.17-1.21,.03-18.78,.03-37.56,0-56.34,0-.94,.21-1.21,1.18-1.2,7.26,.04,14.52,.02,21.78,.02q2.08,0,2.23-2.06Z"/><path class="cls-4" d="M31.38,16.76c-2.45,0-4.9-.02-7.35,.01-.71,.01-1.04-.08-1.03-.93,.05-3.55,.05-7.11,0-10.66,0-.77,.19-1,.98-1,4.94,.04,9.88,.04,14.82,0,.81,0,.97,.27,.96,1.02-.04,3.55-.04,7.11,0,10.66,0,.73-.21,.92-.92,.91-2.49-.04-4.98-.02-7.47-.02Zm-.09-8.39h-1.01c-3.21,0-3.18,0-3.13,3.26,.01,.81,.28,1.01,1.03,.98,1.39-.05,2.78-.01,4.17-.01,3.39,0,3.36,0,3.24-3.41-.03-.69-.25-.85-.88-.82-1.13,.04-2.27,.01-3.41,.01Z"/><path class="cls-5" d="M62.73,39.85c-2.75,0-5.5,0-8.25,0,0-2.79,0-5.58,0-8.38,2.75,0,5.5-.01,8.25-.02,0,2.8,0,5.6,0,8.39Z"/><path class="cls-4" d="M98.31,16.76c-2.45,0-4.9-.02-7.35,.01-.7,.01-1.04-.07-1.03-.93,.05-3.55,.05-7.11,0-10.66,0-.78,.22-1,.99-.99,4.94,.03,9.88,.03,14.82,0,.68,0,.96,.13,.95,.89-.04,3.6-.04,7.19,0,10.79,0,.72-.21,.92-.92,.91-2.49-.04-4.98-.02-7.47-.02Zm.03-4.16c.34,0,.67,0,1.01,0,3.42,0,3.4,0,3.21-3.45-.03-.61-.21-.8-.81-.78-1.47,.03-2.95,.01-4.42,.01-3.3,0-3.28,0-3.2,3.29,.02,.7,.18,.98,.92,.94,1.09-.06,2.19-.01,3.28-.01Z"/><path class="cls-5" d="M75.23,39.85c-2.75,0-5.5,0-8.25,0,0-2.8,0-5.6,0-8.39,2.75,0,5.5,.01,8.25,.02,0,2.79,0,5.58,0,8.38Z"/><path class="cls-4" d="M64.86,16.76c-2.49,0-4.97-.02-7.46,.01-.69,.01-.94-.15-.93-.89,.04-3.59,.03-7.18,0-10.77,0-.71,.18-.93,.91-.93,4.97,.03,9.95,.03,14.92,0,.7,0,.93,.17,.93,.91-.04,3.59-.04,7.18,0,10.77,0,.72-.19,.92-.91,.91-2.49-.04-4.97-.02-7.46-.02Zm0-4.16c.34,0,.67,0,1.01,0,3.31,0,3.28,0,3.2-3.34-.02-.74-.26-.92-.95-.9-1.43,.05-2.86,.01-4.29,.01q-3.32,0-3.18,3.31s0,.08,0,.13c-.07,.61,.21,.82,.8,.8,1.14-.03,2.27,0,3.41,0Z"/><path class="cls-5" d="M46.11,39.85q-.15,2.06-2.23,2.06c-7.26,0-14.52,.02-21.78-.02-.97,0-1.18,.27-1.18,1.2,.03,18.78,.03,37.56,0,56.34,0,.92,.19,1.25,1.17,1.21,1.98-.08,3.97-.07,5.95,0,.96,.03,1.31-.2,1.29-1.24-.07-3.26,0-6.51-.04-9.77,0-.76,.17-1.21,.97-1.31,.2-.03,.4-.14,.6-.2q4.31-1.36,5.87-5.53c.17-.46,.05-.79-.15-1.17-.69-1.31-1.32-2.64-2.04-3.93-.3-.54-.22-.86,.21-1.29,3.33-3.3,6.65-6.62,9.94-9.96,.45-.46,.81-.49,1.29-.16,.21,.14,.44,.24,.67,.36q4.02,2.1,8.06,.3c.5-.22,.65-.59,.79-1.05,.41-1.33,.87-2.65,1.26-3.98,.19-.64,.45-.95,1.21-.95,4.6,.04,9.2,.03,13.8,0,.65,0,1.04,.16,1.17,.82,.06,.29,.17,.56,.26,.85q1.33,4.2,5.44,5.79c.51,.2,.87,.08,1.3-.15,1.26-.67,2.56-1.29,3.81-1.99,.58-.32,.93-.23,1.39,.24,3.26,3.31,6.55,6.6,9.85,9.87,.42,.42,.52,.74,.21,1.29-.64,1.14-1.21,2.32-1.81,3.48-.12,.22-.25,.44-.35,.67-.33,.81,1.63,5.13,2.46,5.4,1.32,.44,2.63,.91,3.97,1.26,.77,.2,.97,.57,.96,1.33-.04,3.26,.03,6.51-.04,9.77-.02,1.04,.33,1.27,1.29,1.24,1.98-.07,3.97-.08,5.95,0,.98,.04,1.18-.29,1.17-1.21-.03-9.64-.02-19.29-.02-28.93,0-9.09-.02-18.19,.02-27.28,0-1.04-.24-1.34-1.31-1.33-7.22,.05-14.44,.03-21.66,.03q-2.08,0-2.23-2.06,.16-2.09,2.33-2.09c7.43,0,14.86,0,22.29,0,3.15,0,4.76,1.61,4.77,4.75,0,19.16,0,38.32,0,57.48,0,3.2-1.63,4.85-4.82,4.85-28.87,0-57.75,0-86.62,0-3.19,0-4.82-1.65-4.82-4.85,0-19.16,0-38.32,0-57.48,0-3.13,1.62-4.74,4.77-4.74,7.43,0,14.86,0,22.29,0q2.17,0,2.33,2.09Zm-12.65,56.18c0,1.23,.04,2.46-.02,3.68-.04,.75,.25,.92,.95,.91,2.28-.04,4.56-.05,6.84,0,.86,.02,.97-.29,.85-1.03-.37-2.23-.32-4.47,.02-6.7,1.42-9.23,8.35-16.71,17.51-18.92,8.91-2.15,18.4,1.37,23.83,8.9,3.56,4.94,5,10.46,4.21,16.52-.12,.89-.05,1.28,1.02,1.24,2.19-.09,4.39-.07,6.58,0,.89,.03,1.04-.32,1.02-1.1-.04-2.03-.12-4.07,.02-6.09,.09-1.38-.31-2.1-1.7-2.31-2.3-.34-3.95-1.39-4.2-3.96-.04-.44-.29-.88-.49-1.3-.58-1.26-1.68-2.52-1.65-3.76,.03-1.3,1.11-2.58,1.8-3.84,.3-.55,.21-.89-.21-1.3-1.45-1.41-2.88-2.86-4.31-4.3-1.84-1.84-1.9-1.95-4.18-.58-1.54,.93-2.85,1.13-4.34,0-.59-.44-1.34-.82-2.06-.93-3.12-.47-4.72-2.29-5.08-5.35-.07-.63-.44-.87-1.12-.85-1.69,.06-3.38,0-5.07,.02-1.18,0-2.67-.38-3.45,.19-.78,.56-.92,2.09-1.2,3.23-.27,1.1-.78,1.72-1.94,1.97-1.06,.22-2.21,.52-3.06,1.14-2.51,1.83-4.84,1.52-7.16-.24-.65-.49-1.07-.27-1.58,.26-1.49,1.56-3.03,3.06-4.56,4.59-1.43,1.44-1.55,1.51-.5,3.18,1.2,1.88,1.56,3.61,.06,5.48-.31,.38-.44,.91-.61,1.38-.48,1.3-.59,2.97-1.49,3.82-.94,.89-2.62,1.02-3.99,1.44-.56,.17-.81,.42-.78,1.06,.06,1.18,.02,2.37,.02,3.55Zm21.7,4.58c-1.5-5.81-.26-9.96,3.71-12.76,3.48-2.45,8.25-2.5,11.78-.13,4.07,2.74,5.33,6.82,3.91,12.89,2.17,0,4.32,0,6.46,0q2.3,0,2.55-2.27s0-.08,.01-.13c1.27-13.82-12.2-24.25-25.19-19.5-8.54,3.12-13.67,12.04-12.05,20.91,.11,.6,.21,1.01,.98,1,2.57-.04,5.14-.01,7.84-.01Zm9.71,0c1.27,0,2.53-.04,3.79,.02,.68,.03,1.08-.25,1.43-.79,1.65-2.54,1.26-5.9-.96-7.98-2.27-2.12-5.67-2.28-8.11-.39-2.4,1.86-3.11,5.17-1.72,7.85,.47,.91,1.03,1.43,2.16,1.32,1.13-.11,2.27-.03,3.41-.03Z"/><path class="cls-5" d="M31.28,8.38c1.14,0,2.27,.03,3.41-.01,.63-.02,.86,.13,.88,.82,.12,3.41,.15,3.41-3.24,3.41-1.39,0-2.78-.03-4.17,.01-.75,.03-1.01-.17-1.03-.98-.05-3.26-.08-3.26,3.13-3.26,.34,0,.67,0,1.01,0Z"/><path class="cls-5" d="M98.34,12.6c-1.09,0-2.19-.04-3.28,.01-.74,.04-.9-.25-.92-.94-.08-3.29-.1-3.29,3.2-3.29,1.47,0,2.95,.02,4.42-.01,.6-.01,.77,.17,.81,.78,.19,3.45,.21,3.45-3.21,3.45-.34,0-.67,0-1.01,0Z"/><path class="cls-5" d="M64.86,12.6c-1.14,0-2.27-.02-3.41,0-.6,.02-.87-.19-.8-.8,0-.04,0-.08,0-.13q-.14-3.31,3.18-3.31c1.43,0,2.86,.03,4.29-.01,.69-.02,.93,.16,.95,.9,.08,3.34,.11,3.34-3.2,3.34-.34,0-.67,0-1.01,0Z"/><path class="cls-4" d="M33.46,96.03c0-1.18,.04-2.37-.02-3.55-.03-.64,.23-.89,.78-1.06,1.37-.42,3.04-.55,3.99-1.44,.9-.85,1.01-2.51,1.49-3.82,.17-.47,.3-1,.61-1.38,1.5-1.86,1.13-3.59-.06-5.48-1.06-1.67-.94-1.74,.5-3.18,1.52-1.53,3.07-3.03,4.56-4.59,.51-.53,.93-.75,1.58-.26,2.32,1.76,4.65,2.07,7.16,.24,.85-.62,2-.91,3.06-1.14,1.16-.24,1.67-.87,1.94-1.97,.28-1.14,.42-2.66,1.2-3.23,.78-.57,2.27-.18,3.45-.19,1.69-.01,3.38,.04,5.07-.02,.68-.02,1.05,.22,1.12,.85,.35,3.07,1.96,4.89,5.08,5.35,.72,.11,1.47,.49,2.06,.93,1.49,1.12,2.79,.92,4.34,0,2.28-1.37,2.34-1.27,4.18,.58,1.43,1.44,2.86,2.88,4.31,4.3,.43,.41,.51,.76,.21,1.3-.68,1.26-1.76,2.55-1.8,3.84-.03,1.24,1.06,2.5,1.65,3.76,.19,.42,.45,.85,.49,1.3,.24,2.57,1.89,3.62,4.2,3.96,1.38,.2,1.79,.93,1.7,2.31-.14,2.02-.06,4.06-.02,6.09,.02,.78-.13,1.13-1.02,1.1-2.19-.06-4.39-.08-6.58,0-1.06,.04-1.13-.35-1.02-1.24,.8-6.06-.64-11.58-4.21-16.52-5.43-7.53-14.92-11.04-23.83-8.9-9.16,2.21-16.1,9.69-17.51,18.92-.34,2.23-.39,4.47-.02,6.7,.13,.75,0,1.06-.85,1.03-2.28-.06-4.56-.04-6.84,0-.69,.01-.98-.16-.95-.91,.06-1.22,.02-2.45,.02-3.68Z"/><path class="cls-1" d="M55.16,100.61c-2.7,0-5.27-.02-7.84,.01-.77,.01-.87-.4-.98-1-1.62-8.87,3.51-17.79,12.05-20.91,12.99-4.75,26.46,5.68,25.19,19.5,0,.04,0,.08-.01,.13q-.24,2.27-2.55,2.27c-2.15,0-4.29,0-6.46,0,1.42-6.07,.16-10.16-3.91-12.89-3.53-2.37-8.3-2.32-11.78,.13-3.97,2.8-5.21,6.96-3.71,12.76Z"/><path class="cls-4" d="M64.87,100.61c-1.14,0-2.29-.09-3.41,.03-1.13,.11-1.69-.41-2.16-1.32-1.39-2.68-.68-6,1.72-7.85,2.45-1.89,5.85-1.73,8.11,.39,2.22,2.08,2.62,5.44,.96,7.98-.35,.54-.75,.82-1.43,.79-1.26-.05-2.53-.02-3.79-.02Z"/></g></g></svg>