<?xml version="1.0" encoding="UTF-8"?><svg id="Layer_2" xmlns="http://www.w3.org/2000/svg" viewBox="0 0 107.32 107.33"><defs><style>.cls-1{fill:#fefefe;}.cls-2{fill:#b6e5f5;}.cls-3{fill:#06ffd5;}.cls-4{fill:#1a2959;}</style></defs><g id="Layer_1-2"><g><path class="cls-4" d="M64.73,91.75c.74,2.24,1.46,4.38,2.16,6.53,.16,.48,.54,.39,.89,.39,1.55,0,3.1-.01,4.65,0,1.35,.02,1.97,.65,2,2,.02,.76,.06,1.52-.01,2.27-.07,.79,.25,.94,.97,.94,5.26-.03,10.53-.02,15.79-.02,.51,0,1.02-.03,1.46,.27,.63,.42,.93,1.02,.78,1.76-.14,.74-.62,1.22-1.36,1.38-.38,.08-.79,.05-1.19,.05-24.81,0-49.61,0-74.42,0-1.78,0-2.59-.54-2.61-1.71-.01-1.18,.81-1.75,2.57-1.75,5.16,0,10.31-.02,15.47,.02,.81,0,1.09-.2,1.01-1.02-.07-.75-.03-1.51-.01-2.27,.03-1.27,.67-1.9,1.96-1.92,1.51-.02,3.03-.03,4.54,0,.61,.01,.97-.11,1.17-.78,.61-2.03,1.32-4.02,2.03-6.15h-1.3c-11.25,0-22.5,0-33.75,0-4.68,0-7.54-2.86-7.55-7.54,0-16.91,0-33.82,0-50.73,0-4.62,2.87-7.5,7.48-7.5,3.46,0,6.92-.03,10.38,.02,.91,.01,1.23-.15,1.21-1.16-.07-3.5-.03-6.99-.03-10.49,0-1.63,.59-2.21,2.21-2.22,2.02,0,4.04-.01,6.06,0,1.49,0,2.11,.62,2.11,2.1,.01,3.53,0,7.07,0,10.6,0,.58-.2,1.18,.84,1.18,.98,0,.89-.51,.89-1.14,0-7.46,0-14.93,0-22.39,0-1.98,.5-2.47,2.5-2.47,1.91,0,3.82,0,5.73,0,1.55,0,2.15,.61,2.15,2.17,0,7.61,0,15.22,0,22.82,0,.58-.03,1.01,.81,1,.77-.01,.95-.24,.94-.98-.03-5.23-.02-10.46-.02-15.68,0-1.86,.53-2.4,2.35-2.4,1.87,0,3.75,0,5.62,0,1.89,0,2.41,.53,2.41,2.46,0,5.23,0,10.46,0,15.68,0,.57,.02,.91,.78,.91,6.74-.03,13.48-.02,20.44-.02-3-3.74-4.4-7.84-3.74-12.51,.67-4.69,3-8.38,6.96-10.95,6.27-4.07,14.44-3.1,19.62,2.22,4.82,4.94,6.56,13.74,.52,21.25,.78,0,1.44,0,2.1,0,3.92,.05,6.96,3.02,6.96,6.92,.02,17.31,.02,34.61,0,51.92,0,3.95-3.06,6.92-7.07,6.92-11.36,.02-22.72,0-34.07,0h-1.44Z"/><path class="cls-1" d="M53.62,77.9c-16.33,0-32.67,0-49,.02-.94,0-1.19-.2-1.19-1.17,.04-14.46,.02-28.92,.03-43.37,0-2.56,1.37-3.94,3.93-3.94,3.57,0,7.14,.02,10.71-.02,.77,0,.96,.21,.95,.96-.04,4-.03,8,0,12.01,0,.69-.16,.92-.89,.92-.75,0-.88-.27-.87-.94,.03-2.99,.02-5.99,.01-8.98,0-1.63-.59-2.22-2.21-2.23-2.02,0-4.04-.01-6.06,0-1.49,0-2.11,.61-2.12,2.09-.01,3.79,0,7.57,0,11.36,0,1.49,.62,2.12,2.09,2.12,18.21,0,36.42,0,54.62,0,1.49,0,2.12-.62,2.12-2.09,.01-3.79,0-7.57,0-11.36,0-1.49-.62-2.11-2.09-2.12-2.02-.01-4.04,0-6.06,0-1.63,0-2.23,.59-2.23,2.2,0,2.99-.01,5.99,0,8.98,0,.62-.05,.97-.84,.97-.82,0-.92-.31-.91-1.01,.03-3.97,.04-7.93,0-11.9-.01-.85,.27-.99,1.04-.99,7.97,.03,15.94,.02,23.9,.01,.55,0,1.05,.11,1.56,.34,4.25,1.87,8.52,1.88,12.78,.02,.55-.24,1.07-.36,1.66-.36,1.87,.02,3.75,0,5.62,.01,2.16,.02,3.64,1.44,3.65,3.57,.01,14.67,0,29.35,.03,44.02,0,1.01-.54,.87-1.14,.87-16.37,0-32.74,0-49.11,0Z"/><path class="cls-1" d="M53.77,81.36c16.3,0,32.59,.01,48.89-.03,1.02,0,1.31,.29,1.21,1.25-.07,.68,0,1.37-.02,2.05-.04,2.21-1.46,3.61-3.69,3.64-.22,0-.43,0-.65,0-30.57,0-61.14,0-91.72,0-3.1,0-4.33-1.22-4.33-4.3q0-2.62,2.61-2.62H53.77Z"/><path class="cls-3" d="M34.62,23.27c0-6.23,.01-12.47-.01-18.7,0-.78,.1-1.13,1.02-1.11,2.45,.06,2.45,0,2.45,2.48,0,12.07-.01,24.15,.03,36.22,0,.98-.27,1.19-1.2,1.16-2.29-.06-2.29-.02-2.29-2.31,0-5.91,0-11.82,0-17.73Z"/><path class="cls-1" d="M84.73,9.42c0,1.83,.49,3.86-.14,5.44-.62,1.54-2.39,2.62-3.66,3.89-1.17,1.17-2.36,2.33-3.51,3.52-.41,.43-.65,.54-1.03-.05-4.63-7.15-.71-16.66,7.66-18.49,.69-.15,.77,.14,.76,.72-.03,1.66,0,3.31,0,4.97-.03,0-.05,0-.08,0Z"/><path class="cls-3" d="M86.03,27.71c-1.82-.03-4-.66-6.01-1.91-.53-.33-.73-.54-.17-1.09,2.35-2.29,4.65-4.61,6.96-6.94,.34-.34,.68-.45,1.14-.45,3.21,.02,6.41,.03,9.62,0,.79,0,.98,.18,.8,.97-1.25,5.47-6.17,9.42-12.34,9.43Z"/><path class="cls-1" d="M63.35,98.64h-19.39c.73-2.21,1.45-4.36,2.15-6.5,.14-.42,.46-.38,.79-.38,4.51,0,9.01,0,13.52,0,.4,0,.67,.06,.81,.51,.67,2.09,1.37,4.16,2.11,6.38Z"/><path class="cls-3" d="M50.2,26.95c0,5.12-.02,10.23,.02,15.35,0,.83-.23,1.01-1.02,1-2.46-.03-2.46,0-2.46-2.47,0-9.77,.02-19.53-.03-29.3,0-.98,.26-1.19,1.19-1.17,2.29,.07,2.3,.02,2.3,2.31,0,4.76,0,9.51,0,14.27Z"/><path class="cls-3" d="M25.96,29.53c0,4.25-.02,8.5,.02,12.75,0,.79-.18,1.04-1,1.02-2.48-.04-2.48,0-2.48-2.45,0-8.07,.01-16.14-.02-24.21,0-.83,.19-1.1,1.06-1.08,2.42,.05,2.42,0,2.42,2.39,0,3.86,0,7.71,0,11.57Z"/><path class="cls-2" d="M93.36,13.86c-1.4,0-2.81-.02-4.21,.01-.6,.01-.9-.07-.89-.8,.04-2.88,.04-5.76,0-8.64-.01-.76,.28-.81,.89-.69,4.44,.9,8.37,4.84,9.25,9.27,.13,.67,0,.89-.72,.86-1.44-.05-2.88-.02-4.32-.02Z"/><path class="cls-1" d="M53.77,102.13c5.41,0,10.81,.01,16.22-.01,.7,0,1.01,.09,1.01,.91,0,.79-.34,.84-.97,.84-10.92-.01-21.84-.01-32.76,0-.64,0-.95-.08-.96-.85-.01-.84,.34-.9,1.02-.9,5.48,.02,10.96,.01,16.43,.01Z"/><path class="cls-3" d="M10.39,38.91c0-1.19,.03-2.38-.01-3.56-.02-.58,.19-.71,.74-.73,2.73-.09,2.73-.11,2.73,2.61,0,1.73-.04,3.46,.02,5.18,.02,.72-.22,.89-.91,.89-2.57,0-2.57,.03-2.57-2.56,0-.61,0-1.22,0-1.84Z"/><path class="cls-2" d="M62.31,38.91c0,1.22-.05,2.45,.01,3.67,.05,.95-.65,.81-1.07,.67-.79-.27-2.21,.83-2.35-.64-.22-2.43-.05-4.89-.07-7.33,0-.42,.08-.62,.58-.66,2.89-.26,2.89-.28,2.89,2.57,0,.58,0,1.15,0,1.73Z"/><path class="cls-1" d="M29.43,36.37c0-2.02,.03-4.03-.02-6.05-.02-.71,.2-.91,.91-.9,.64,.01,.86,.15,.86,.84-.03,4.07-.03,8.14,0,12.21,0,.67-.19,.84-.85,.85-.69,0-.93-.17-.91-.89,.05-2.02,.02-4.03,.02-6.05Z"/><path class="cls-1" d="M43.27,36.37c0,2.05-.04,4.11,.02,6.16,.02,.77-.35,.78-.91,.77-.53,0-.86-.03-.85-.73,.03-4.14,.03-8.28,0-12.42,0-.71,.34-.71,.86-.72,.57,0,.93,.02,.91,.78-.05,2.05-.02,4.1-.02,6.16Z"/><path class="cls-4" d="M39.44,76.17c-1.87-.14-3.51-1.14-4.39-3.2-.25-.57-.56-.91-1.14-1.15-5.42-2.23-10.84-4.48-16.24-6.77-.69-.29-1-.21-1.46,.41-1.43,1.94-3.89,2.56-6.09,1.65-2.14-.89-3.43-3.08-3.17-5.38,.26-2.3,2.1-4.2,4.42-4.55,2.29-.35,4.59,.92,5.5,3.12,.26,.62,.61,.96,1.22,1.21,5.39,2.22,10.77,4.46,16.14,6.72,.62,.26,.97,.33,1.47-.34,1.95-2.66,5.64-2.83,7.89-.4,.53,.58,.81,.51,1.36,.09,5.58-4.21,11.17-8.4,16.77-12.59,.42-.31,.69-.66,.86-1.18,.69-2.13,2.6-3.54,4.78-3.59,2.24-.05,4.22,1.26,5,3.42,.2,.56,.52,.89,1.01,1.17,5.51,3.2,11.02,6.41,16.51,9.65,.62,.37,.92,.3,1.39-.26,1.55-1.87,4.02-2.37,6.16-1.36,2.04,.97,3.27,3.26,2.91,5.43-.39,2.39-2.3,4.2-4.66,4.42-2.32,.22-4.5-1.14-5.33-3.4-.21-.56-.52-.88-1.01-1.17-5.51-3.2-11.02-6.41-16.51-9.65-.62-.37-.92-.3-1.39,.26-2.09,2.46-5.55,2.52-7.78,.12-.45-.48-.68-.51-1.2-.12-5.63,4.26-11.29,8.49-16.95,12.71-.43,.32-.65,.71-.82,1.21-.73,2.14-2.72,3.54-5.27,3.52Z"/><path class="cls-4" d="M87.91,36.36c-2.27,0-4.54,.02-6.8-.01-.55,0-.94,.16-1.32,.55-1.76,1.8-3.56,3.57-5.34,5.35-.23,.23-.45,.47-.71,.66-.78,.55-1.58,.52-2.25-.15-.67-.67-.8-1.56-.14-2.24,2.37-2.46,4.81-4.86,7.25-7.26,.34-.34,.84-.37,1.32-.37,5,0,10.01,0,15.01,0,1.25,0,2.02,.73,1.99,1.78-.03,1.01-.79,1.67-1.99,1.67-2.34,.02-4.68,0-7.02,0Z"/><path class="cls-4" d="M18.18,48.48c3.03,0,6.06,0,9.09,0,1.36,0,2.16,.65,2.15,1.73,0,1.08-.8,1.73-2.16,1.73-6.06,0-12.11,0-18.17,0-1.36,0-2.15-.65-2.15-1.73,0-1.08,.79-1.72,2.16-1.73,3.03,0,6.06,0,9.09,0Z"/><path class="cls-4" d="M75.39,72.71c1.87,0,3.75,0,5.62,0,1.27,0,2.05,.67,2.05,1.72,0,1.05-.78,1.73-2.04,1.73-3.82,.01-7.64,.01-11.46,0-1.28,0-2.05-.67-2.05-1.72,0-1.05,.76-1.72,2.04-1.73,1.95-.01,3.89,0,5.84,0Z"/><path class="cls-4" d="M78.76,67.52c.83,0,1.66-.02,2.49,0,1.1,.04,1.83,.75,1.82,1.73,0,.98-.73,1.7-1.84,1.72-1.66,.03-3.32,.03-4.97,0-1.1-.02-1.83-.75-1.82-1.73,0-.98,.73-1.68,1.84-1.72,.83-.03,1.66,0,2.49,0Z"/><path class="cls-4" d="M33.67,51.93c-.29,0-.58,.03-.86,0-.96-.1-1.62-.79-1.64-1.69-.01-.9,.64-1.65,1.59-1.73,.64-.06,1.3-.05,1.94,0,.96,.07,1.63,.79,1.64,1.69,.01,.9-.64,1.63-1.59,1.74-.36,.04-.72,0-1.08,0Z"/><path class="cls-4" d="M13.76,86.56c-1.62,0-3.24,.01-4.87,0-1.19-.01-1.95-.69-1.96-1.7-.01-1.02,.74-1.74,1.91-1.75,3.32-.02,6.63-.02,9.95,0,1.2,0,1.95,.68,1.96,1.7,.02,1.05-.76,1.74-2.02,1.75-1.66,.02-3.32,0-4.98,0Z"/><path class="cls-4" d="M25.01,86.54c-.32,0-.66,.05-.97,0-.93-.16-1.48-.73-1.53-1.68-.04-.9,.63-1.65,1.58-1.73,.64-.06,1.3-.05,1.94,0,.96,.07,1.63,.79,1.64,1.69,.01,.9-.64,1.63-1.59,1.74-.36,.04-.72,0-1.08,0h0Z"/><path class="cls-3" d="M69.23,55.38c0,.93-.75,1.72-1.68,1.74-.97,.03-1.79-.79-1.77-1.76,.02-.93,.8-1.7,1.73-1.69,.93,0,1.71,.78,1.72,1.71Z"/><path class="cls-3" d="M12.11,60.6c.93,0,1.71,.77,1.73,1.7,.01,.93-.74,1.72-1.67,1.75-.98,.03-1.79-.77-1.78-1.75,.02-.94,.79-1.7,1.72-1.7Z"/><path class="cls-3" d="M95.17,69.24c-.93-.01-1.7-.79-1.7-1.72,0-.93,.76-1.71,1.69-1.73,.97-.02,1.79,.81,1.76,1.77-.03,.93-.82,1.69-1.75,1.68Z"/><path class="cls-3" d="M39.8,72.7c-.93,0-1.7-.78-1.72-1.71-.01-.97,.81-1.78,1.79-1.74,.93,.03,1.68,.83,1.66,1.76-.02,.93-.8,1.7-1.73,1.69Z"/></g></g></svg>