<?xml version="1.0" encoding="UTF-8"?><svg id="Layer_2" xmlns="http://www.w3.org/2000/svg" viewBox="0 0 116.41 116.41"><defs><style>.cls-1{fill:#00ffc6;}.cls-2{fill:#e9f6f6;}.cls-3{fill:#fefefe;}.cls-4{fill:#add;}.cls-5{fill:#1a2959;}</style></defs><g id="Layer_1-2"><g><path class="cls-3" d="M54.39,116.41c16.08,0,32.15,0,48.23,0,4.04,0,6.28-2.26,6.29-6.33,0-5.87,0-11.73,0-17.6,0-16.74,0-33.48,0-50.22,0-.53-.2-1.06,.66-1.34,4.51-1.48,6.85-4.78,6.85-9.49,0-7.16,0-14.32,0-21.47C116.4,4,112.43,0,106.51,0c-17.17,0-34.34,0-51.51,0-5.94,0-9.93,3.98-9.93,9.92,0,6.34-.02,12.67,.02,19.01,0,.92-.24,1.14-1.14,1.13-12.52-.03-25.03-.02-37.55-.02C2.23,30.04,0,32.26,0,36.38c0,24.56,0,49.13,0,73.69,0,4.12,2.24,6.34,6.4,6.34,16,0,31.99,0,47.99,0Z"/><path class="cls-5" d="M54.39,116.41c-16,0-31.99,0-47.99,0-4.16,0-6.4-2.22-6.4-6.34,0-24.56,0-49.13,0-73.69,0-4.13,2.23-6.34,6.39-6.34,12.52,0,25.03-.01,37.55,.02,.91,0,1.15-.21,1.14-1.13-.04-6.34-.03-12.67-.02-19.01C45.07,3.99,49.05,0,54.99,0c17.17,0,34.34,0,51.51,0,5.92,0,9.9,4,9.9,9.95,0,7.16,0,14.32,0,21.47,0,4.72-2.34,8.01-6.85,9.49-.85,.28-.66,.81-.66,1.34,0,16.74,0,33.48,0,50.22,0,5.87,0,11.73,0,17.6,0,4.07-2.24,6.33-6.29,6.33-16.08,0-32.15,0-48.23,0Zm.02-3.76c16.07,0,32.14,0,48.21,0,1.83,0,2.52-.61,2.52-2.28,0-20.22,0-40.43,.02-60.65,0-.68-.1-.93-.87-.93-8.33,.03-16.66,.03-24.99,0-.68,0-.91,.29-1.2,.81-1.92,3.44-6.44,3.98-9.15,1.12-.32-.34-.64-.69-.9-1.08-.43-.63-.97-.85-1.76-.85-20.45,.02-40.9,.03-61.35,0-.96,0-1.21,.2-1.21,1.19,.03,19.98,.02,39.96,.03,59.95,0,2.21,.52,2.72,2.79,2.72,15.95,0,31.91,0,47.86,0ZM80.77,3.76c-8.68,0-17.36,0-26.04,0-3.5,0-5.9,2.39-5.91,5.88-.01,7.35-.01,14.7,0,22.05,0,3.43,2.4,5.84,5.81,5.86,2.42,.02,4.85,.03,7.27-.01,.7-.01,1.13,.22,1.57,.75,2.63,3.2,5.29,6.37,7.94,9.56,.62,.75,1.35,1.21,2.35,.85,1.02-.37,1.36-1.18,1.35-2.22-.02-2.58,.04-5.16-.03-7.74-.03-.98,.24-1.21,1.21-1.2,10.05,.04,20.09,.03,30.14,.02,3.95,0,6.23-2.29,6.23-6.27,0-7.12,0-14.23,0-21.35,0-3.89-2.3-6.17-6.2-6.18-8.56,0-17.12,0-25.68,0Zm-16.56,41.31c-1-1.2-1.85-2.17-2.64-3.19-.36-.46-.75-.58-1.3-.57-1.88,.03-3.75,.02-5.63,0-4.37-.03-7.81-2.52-9.15-6.69-.2-.61-.43-.84-1.11-.84-12.78,.03-25.56,.02-38.35,.02-1.6,0-2.27,.68-2.28,2.29-.01,2.58,.06,5.16-.03,7.74-.04,1.05,.27,1.26,1.28,1.26,19.27-.03,38.54-.02,57.81-.02h1.39Zm27.74,0c3.51,0,7.03,0,10.54,0,2.66,0,2.61,0,2.67-2.65,.02-.96-.29-1.13-1.17-1.12-7.46,.03-14.92,.02-22.38,.02-2.79,0-2.75,0-2.79,2.77,0,.85,.26,1.01,1.05,1.01,4.02-.04,8.05-.02,12.07-.02Z"/><path class="cls-2" d="M54.4,112.66c-15.95,0-31.91,0-47.86,0-2.26,0-2.79-.51-2.79-2.72,0-19.98,0-39.96-.03-59.95,0-.99,.25-1.19,1.21-1.19,20.45,.03,40.9,.03,61.35,0,.79,0,1.33,.22,1.76,.85,.26,.38,.58,.74,.9,1.08,2.71,2.86,7.23,2.32,9.15-1.12,.29-.52,.52-.81,1.2-.81,8.33,.03,16.66,.03,24.99,0,.77,0,.87,.25,.87,.93-.02,20.22-.01,40.43-.02,60.65,0,1.67-.69,2.28-2.52,2.28-16.07,0-32.14,0-48.21,0Zm26.33-56.33c-5,0-10.01-.02-15.01,0-3.14,.02-5.57,2.44-5.63,5.56-.03,1.33-.06,2.66,.01,3.99,.13,2.41,1.35,4.07,3.55,5.07,.67,.31,1.71-.01,2.01,.75,.26,.68,.06,1.54,.06,2.32,0,.08-.01,.16,0,.23,.11,.63-.14,.81-.79,.91-2.95,.48-4.82,2.73-4.84,5.71-.01,1.25-.03,2.5,0,3.75,.06,2.3,1.51,4.27,3.64,5.14,.65,.26,1.63-.01,1.92,.69,.26,.64,.06,1.46,.06,2.21,0,.12-.01,.24,0,.35,.09,.6-.09,.82-.76,.93-3.01,.49-4.85,2.73-4.87,5.8,0,1.21-.03,2.42,0,3.64,.08,3,2.46,5.48,5.46,5.49,10.13,.04,20.25,.04,30.38,0,2.95-.01,5.35-2.44,5.45-5.37,.05-1.41,.04-2.82,0-4.22-.07-2.28-1.59-4.28-3.71-5.09-.63-.24-1.56,.06-1.85-.61-.25-.6-.06-1.39-.06-2.09,0-.2,.02-.39,0-.59-.08-.57,.12-.74,.73-.85,3.08-.52,4.89-2.73,4.91-5.89,0-1.21,.03-2.42-.01-3.64-.07-2.29-1.57-4.29-3.7-5.1-.63-.24-1.59,.04-1.86-.61-.27-.63-.06-1.46-.07-2.2,0-.12,.01-.24,0-.35-.1-.65,.09-.89,.82-1.01,2.94-.48,4.78-2.74,4.81-5.74,.01-1.06,0-2.11,0-3.17-.02-3.67-2.35-6.03-5.99-6.03-4.89,0-9.77,0-14.66,0Zm-48.73-3.76c-11.4-.03-20.71,9.2-20.74,20.57-.03,11.4,9.2,20.71,20.57,20.74,11.39,.03,20.71-9.2,20.74-20.57,.03-11.4-9.2-20.71-20.57-20.74Zm3.79,45.06H17.61c-2.6,0-2.54,0-2.62,2.58-.03,.98,.23,1.2,1.2,1.2,12.47-.04,24.95-.02,37.42-.02,2.72,0,2.68,0,2.73-2.69,.02-.88-.21-1.09-1.08-1.08-6.49,.04-12.98,.02-19.47,.02Zm3.58,11.26c4.77,0,9.54,0,14.31,0,2.65,0,2.61,0,2.67-2.64,.02-.92-.23-1.14-1.14-1.14-9.97,.03-19.94,.02-29.91,.02-2.78,0-2.75,0-2.79,2.76-.01,.83,.21,1.03,1.03,1.02,5.28-.04,10.56-.02,15.84-.02Zm-26.11-3.75c-.98,0-1.95,0-2.93,0-2.9,0-2.87,0-2.84,2.93,0,.66,.18,.85,.84,.84,2.54-.04,5.08-.02,7.62-.02,2.97,0,2.96,0,2.84-3.05-.02-.56-.16-.73-.72-.72-1.6,.04-3.2,.01-4.81,.01Zm-2-5.53q0-1.98-2.01-1.98-1.74,0-1.74,1.78,0,1.98,2.01,1.98,1.74,0,1.74-1.78Z"/><path class="cls-1" d="M80.77,3.76c8.56,0,17.12,0,25.68,0,3.9,0,6.2,2.29,6.2,6.18,0,7.12,0,14.23,0,21.35,0,3.98-2.27,6.27-6.23,6.27-10.05,0-20.09,.02-30.14-.02-.97,0-1.24,.22-1.21,1.2,.08,2.58,.01,5.16,.03,7.74,0,1.04-.32,1.85-1.35,2.22-1,.36-1.73-.1-2.35-.85-2.65-3.18-5.32-6.35-7.94-9.56-.44-.53-.87-.76-1.57-.75-2.42,.04-4.85,.03-7.27,.01-3.41-.02-5.8-2.43-5.81-5.86-.01-7.35-.01-14.7,0-22.05,0-3.49,2.4-5.88,5.91-5.88,8.68,0,17.36,0,26.04,0Zm13.11,16.09c.07-.01,.15-.03,.22-.04,.46,1.34,.92,2.68,1.37,4.03q.82,2.46,3.44,2.46c1.25,0,2.78,.41,3.67-.16,.95-.61,.92-2.29,1.38-3.48,.37-.94,.53-1.96,1.18-3.04,0,2.72,0,5.18,0,7.64,0,2.85,0,2.81,2.83,2.83,.81,0,.94-.27,.94-.99-.03-4.53,0-9.07-.02-13.6,0-1.36-.04-2.72-.07-4.08-1.38-.28-2.79-.01-4.17-.14-.76-.07-.97,.3-1.18,.93-1.03,3.19-2.11,6.36-3.18,9.54-.13,.39-.14,.83-.77,.83-.62,0-.66-.4-.79-.81-1.07-3.22-2.16-6.43-3.21-9.65-.19-.6-.43-.89-1.13-.84-1.09,.08-2.19,.08-3.28,0-.85-.06-1.02,.23-1.01,1.04,.04,5.04,.02,10.08,.02,15.12,0,2.65,0,2.6,2.65,2.66,.96,.02,1.14-.28,1.12-1.16-.05-3.02-.02-6.04-.02-9.06Zm-22.53,.82v6.57c0,2.9,0,2.88,2.94,2.84,.68-.01,.84-.21,.83-.86-.04-1.95-.01-3.91-.02-5.86,0-.43-.08-.84,.61-.82,1.68,.04,3.36-.02,5.04,.03,1.1,.03,1.8,.76,1.85,1.88,.04,.94,.01,1.88,.01,2.81,0,2.85,0,2.81,2.84,2.83,.81,0,.96-.27,.93-.99-.05-1.52-.02-3.05-.01-4.57,0-1.13-.26-2.19-.92-3.09-.4-.55-.41-.91-.02-1.5,1.2-1.8,1.28-3.74,.25-5.65-1.03-1.91-2.68-2.94-4.84-2.98-2.89-.05-5.78,0-8.68-.03-.67,0-.84,.2-.84,.85,.03,2.85,.01,5.71,.01,8.56Zm-18.77-.29c0,.92-.01,1.63,0,2.33,.09,3.7,2.82,6.75,6.54,7.29,3.52,.52,7.08-1.79,8.15-5.27,.65-2.13,.61-2.19-1.56-2.19-.27,0-.56,.04-.82,0-.77-.15-1.02,.18-1.2,.93-.44,1.83-2.12,2.98-3.92,2.82-1.79-.15-3.32-1.64-3.41-3.45-.07-1.44-.07-2.89,0-4.34,.08-1.68,1.39-3.09,3.05-3.42,1.61-.32,3.61,.52,4,2.13,.41,1.69,1.39,1.69,2.64,1.58,.19-.02,.4-.03,.59,0,.88,.15,1.04-.24,.91-1.04-.6-3.66-3.62-6.39-7.24-6.47-3.69-.08-6.79,2.4-7.57,6.05-.24,1.09-.1,2.18-.15,3.05Z"/><path class="cls-1" d="M64.21,45.06h-1.39c-19.27,0-38.54,0-57.81,.02-1.01,0-1.32-.21-1.28-1.26,.09-2.58,.02-5.16,.03-7.74,0-1.61,.67-2.29,2.28-2.29,12.78,0,25.56,0,38.35-.02,.68,0,.91,.23,1.11,.84,1.34,4.16,4.78,6.66,9.15,6.69,1.88,.01,3.75,.02,5.63,0,.55,0,.94,.11,1.3,.57,.79,1.02,1.64,1.99,2.64,3.19Zm-54.92-3.76q1.98,0,1.98-2.01,0-1.74-1.78-1.74-1.98,0-1.98,2.01,0,1.74,1.78,1.74Zm9.49-1.96q0-1.8-1.84-1.8t-1.92,1.96q0,1.8,1.84,1.8,1.92,0,1.92-1.96Zm7.51,.13q0-1.93-1.94-1.93-1.82,0-1.82,1.82,0,1.93,1.94,1.93,1.82,0,1.82-1.82Z"/><path class="cls-1" d="M91.95,45.06c-4.02,0-8.05-.02-12.07,.02-.79,0-1.06-.15-1.05-1.01,.03-2.77,0-2.77,2.79-2.77,7.46,0,14.92,.01,22.38-.02,.88,0,1.19,.16,1.17,1.12-.06,2.65-.01,2.65-2.67,2.65-3.51,0-7.03,0-10.54,0Z"/><path class="cls-5" d="M80.73,56.33c4.89,0,9.77,0,14.66,0,3.64,0,5.98,2.36,5.99,6.03,0,1.06,0,2.11,0,3.17-.03,3-1.87,5.26-4.81,5.74-.73,.12-.92,.36-.82,1.01,.02,.11,0,.23,0,.35,0,.74-.2,1.57,.07,2.2,.27,.64,1.23,.36,1.86,.61,2.12,.82,3.62,2.81,3.7,5.1,.04,1.21,.02,2.42,.01,3.64-.02,3.16-1.82,5.38-4.91,5.89-.61,.1-.81,.28-.73,.85,.03,.19,0,.39,0,.59,0,.7-.19,1.49,.06,2.09,.28,.67,1.22,.38,1.85,.61,2.12,.81,3.64,2.81,3.71,5.09,.04,1.41,.05,2.82,0,4.22-.11,2.94-2.5,5.36-5.45,5.37-10.13,.04-20.25,.04-30.38,0-3-.01-5.38-2.49-5.46-5.49-.03-1.21-.01-2.42,0-3.64,.02-3.07,1.86-5.32,4.87-5.8,.68-.11,.85-.33,.76-.93-.02-.11,0-.23,0-.35,0-.74,.2-1.57-.06-2.21-.29-.7-1.27-.42-1.92-.69-2.13-.86-3.59-2.83-3.64-5.14-.03-1.25-.02-2.5,0-3.75,.03-2.98,1.9-5.23,4.84-5.71,.64-.11,.9-.28,.79-.91-.01-.08,0-.16,0-.23,0-.78,.2-1.64-.06-2.32-.29-.76-1.33-.44-2.01-.75-2.2-1-3.42-2.66-3.55-5.07-.07-1.33-.04-2.66-.01-3.99,.07-3.12,2.49-5.54,5.63-5.56,5-.03,10.01,0,15.01,0Zm-.12,11.27c4.92,0,9.84,0,14.77,0,1.54,0,2.23-.68,2.25-2.2,.02-1.05,.02-2.11,0-3.16-.02-1.4-.71-2.14-2.07-2.14-9.88-.01-19.77-.01-29.65,0-1.36,0-2.05,.74-2.07,2.13-.02,.98,0,1.95,0,2.93,0,1.82,.63,2.44,2.48,2.44,4.77,0,9.53,0,14.3,0Zm.13,18.78c4.88,0,9.77,0,14.65,0,1.53,0,2.21-.69,2.24-2.21,.01-.9,0-1.8,0-2.7,0-2.01-.58-2.6-2.55-2.6-4.49,0-8.98,0-13.48,0-5.16,0-10.31,0-15.47,0-1.61,0-2.28,.67-2.29,2.27,0,.86,0,1.72,0,2.58,0,2.09,.56,2.66,2.61,2.66,4.77,0,9.53,0,14.3,0Zm-.14,18.78c4.84,0,9.69,0,14.53,0,1.9,0,2.49-.61,2.5-2.54,0-.98,.02-1.95,0-2.93-.04-1.31-.74-2.03-2.05-2.03-9.88-.01-19.77-.01-29.65,0-1.37,0-2.06,.73-2.08,2.12-.02,.98,0,1.95,0,2.93,0,1.83,.63,2.45,2.47,2.45,4.77,0,9.53,0,14.3,0Zm.14-30.04h8.55c2.72,0,2.68,0,2.73-2.71,.02-.92-.28-1.07-1.11-1.07-6.21,.04-12.41,.02-18.62,.02-2.87,0-2.83,0-2.84,2.83,0,.8,.26,.95,.99,.94,3.44-.03,6.87-.02,10.31-.02Zm0,18.78c2.85,0,5.7,0,8.55,0s2.68,0,2.73-2.7c.02-.91-.26-1.07-1.11-1.07-6.21,.04-12.41,.02-18.62,.02-2.87,0-2.84,0-2.85,2.82,0,.8,.25,.96,.99,.95,3.44-.04,6.87-.02,10.31-.02Z"/><path class="cls-5" d="M32.01,52.57c11.37,.03,20.6,9.34,20.57,20.74-.03,11.36-9.35,20.6-20.74,20.57-11.36-.03-20.6-9.35-20.57-20.74,.03-11.37,9.34-20.6,20.74-20.57Zm8.63,22.53c-2.34,0-4.69,.02-7.03-.01-.64,0-1.08,.18-1.53,.64-3.27,3.31-6.54,6.61-9.88,9.85-.81,.79-.56,1.09,.21,1.59,3.75,2.46,7.82,3.38,12.27,2.73,6.8-1,12.88-7.01,13.9-13.77,.12-.82-.05-1.07-.91-1.05-2.34,.06-4.69,.02-7.03,.02Zm1.66-14.94c-.03-.42-.38-.51-.61-.68-5.52-4.15-13.97-4.15-19.52-.03-.63,.47-.68,.72-.1,1.29,3.1,3.04,6.16,6.11,9.21,9.2,.5,.51,.76,.55,1.29,.02,3.07-3.12,6.18-6.2,9.27-9.3,.16-.16,.32-.34,.46-.49Zm-27.28,13.12c.06,3.48,1.06,6.67,3.03,9.56,.44,.65,.72,.94,1.44,.2,2.99-3.08,6.04-6.11,9.11-9.12,.55-.54,.56-.83,0-1.37-3.07-3.01-6.12-6.04-9.11-9.12-.7-.72-.99-.49-1.44,.18-1.99,2.93-2.99,6.15-3.03,9.68Zm21.41-1.94c4.09,0,7.86-.01,11.63,.01,.88,0,.57-.58,.51-.95-.43-2.58-1.43-4.93-2.95-7.06-.35-.5-.61-.6-1.06-.11-.68,.75-1.43,1.45-2.15,2.16-1.92,1.91-3.85,3.82-5.98,5.95Z"/><path class="cls-5" d="M35.79,97.64c6.49,0,12.98,.02,19.47-.02,.88,0,1.1,.2,1.08,1.08-.05,2.69-.01,2.69-2.73,2.69-12.47,0-24.95-.01-37.42,.02-.97,0-1.23-.22-1.2-1.2,.07-2.58,.02-2.58,2.62-2.58h18.18Z"/><path class="cls-5" d="M39.37,108.9c-5.28,0-10.56-.02-15.84,.02-.82,0-1.04-.19-1.03-1.02,.04-2.76,0-2.76,2.79-2.76,9.97,0,19.94,.01,29.91-.02,.91,0,1.17,.21,1.14,1.14-.06,2.64-.02,2.64-2.67,2.64-4.77,0-9.54,0-14.31,0Z"/><path class="cls-5" d="M13.26,105.15c1.6,0,3.2,.02,4.81-.01,.56-.01,.7,.16,.72,.72,.12,3.05,.14,3.05-2.84,3.05-2.54,0-5.08-.02-7.62,.02-.66,0-.83-.18-.84-.84-.04-2.93-.06-2.93,2.84-2.93,.98,0,1.95,0,2.93,0Z"/><path class="cls-5" d="M11.27,99.61q0,1.78-1.74,1.78-2.01,0-2.01-1.98,0-1.78,1.74-1.78,2.01,0,2.01,1.98Z"/><path class="cls-5" d="M93.88,19.84c0,3.02-.03,6.04,.02,9.06,.02,.88-.17,1.19-1.12,1.16-2.65-.07-2.65-.02-2.65-2.66,0-5.04,.02-10.08-.02-15.12,0-.8,.16-1.1,1.01-1.04,1.09,.08,2.19,.07,3.28,0,.7-.05,.93,.25,1.13,.84,1.05,3.22,2.14,6.43,3.21,9.65,.13,.41,.17,.81,.79,.81,.63,0,.64-.44,.77-.83,1.06-3.18,2.14-6.35,3.18-9.54,.2-.63,.41-1,1.18-.93,1.39,.13,2.79-.14,4.17,.14,.02,1.36,.06,2.72,.07,4.08,0,4.53-.01,9.07,.02,13.6,0,.72-.13,1-.94,.99-2.83-.02-2.83,.02-2.83-2.83,0-2.46,0-4.92,0-7.64-.65,1.08-.82,2.1-1.18,3.04-.46,1.19-.43,2.87-1.38,3.48-.89,.57-2.42,.16-3.67,.16q-2.62,0-3.44-2.46c-.45-1.34-.91-2.68-1.37-4.03-.07,.01-.15,.03-.22,.04Z"/><path class="cls-5" d="M71.35,20.66c0-2.85,.02-5.71-.01-8.56,0-.65,.16-.86,.84-.85,2.89,.04,5.78-.02,8.68,.03,2.16,.04,3.81,1.07,4.84,2.98,1.03,1.91,.95,3.85-.25,5.65-.39,.59-.38,.95,.02,1.5,.66,.9,.93,1.96,.92,3.09,0,1.52-.04,3.05,.01,4.57,.02,.72-.12,1-.93,.99-2.84-.02-2.84,.02-2.84-2.83,0-.94,.03-1.88-.01-2.81-.05-1.11-.75-1.84-1.85-1.88-1.68-.05-3.36,.01-5.04-.03-.7-.02-.61,.39-.61,.82,0,1.95-.02,3.91,.02,5.86,.01,.65-.15,.85-.83,.86-2.94,.04-2.94,.07-2.94-2.84,0-2.19,0-4.38,0-6.57Zm6.91-1.89c.82,0,1.64,.03,2.46,0,1.11-.05,1.87-.82,1.89-1.85,.01-1.02-.74-1.85-1.84-1.88-1.68-.05-3.36,0-5.04-.02-.42,0-.59,.09-.64,.57-.31,3.19-.33,3.19,2.82,3.19,.12,0,.23,0,.35,0Z"/><path class="cls-5" d="M52.58,20.37c.05-.87-.09-1.96,.15-3.05,.79-3.65,3.88-6.13,7.57-6.05,3.62,.08,6.65,2.81,7.24,6.47,.13,.8-.03,1.19-.91,1.04-.19-.03-.39-.02-.59,0-1.26,.11-2.23,.11-2.64-1.58-.39-1.6-2.39-2.44-4-2.13-1.66,.32-2.97,1.74-3.05,3.42-.07,1.44-.07,2.89,0,4.34,.09,1.81,1.62,3.3,3.41,3.45,1.81,.15,3.49-.99,3.92-2.82,.18-.75,.43-1.07,1.2-.93,.26,.05,.55,0,.82,0,2.17,0,2.21,.06,1.56,2.19-1.07,3.49-4.63,5.79-8.15,5.27-3.71-.55-6.45-3.59-6.54-7.29-.02-.7,0-1.41,0-2.33Z"/><path class="cls-5" d="M9.29,41.31q-1.78,0-1.78-1.74,0-2.01,1.98-2.01,1.78,0,1.78,1.74,0,2.01-1.98,2.01Z"/><path class="cls-5" d="M18.78,39.35q0,1.96-1.92,1.96t-1.84-1.8q0-1.96,1.92-1.96,1.84,0,1.84,1.8Z"/><path class="cls-5" d="M26.29,39.49q0,1.82-1.82,1.82t-1.94-1.93,1.82-1.82,1.94,1.93Z"/><path class="cls-1" d="M80.62,67.59c-4.77,0-9.53,0-14.3,0-1.85,0-2.47-.62-2.48-2.44,0-.98-.02-1.95,0-2.93,.03-1.4,.71-2.13,2.07-2.13,9.88-.01,19.77-.01,29.65,0,1.36,0,2.04,.74,2.07,2.14,.02,1.05,.02,2.11,0,3.16-.02,1.51-.71,2.19-2.25,2.2-4.92,0-9.84,0-14.77,0Z"/><path class="cls-1" d="M80.75,86.37c-4.77,0-9.53,0-14.3,0-2.05,0-2.61-.57-2.61-2.66,0-.86,0-1.72,0-2.58,.02-1.6,.68-2.26,2.29-2.27,5.16,0,10.31,0,15.47,0,4.49,0,8.98,0,13.48,0,1.98,0,2.55,.59,2.55,2.6,0,.9,.01,1.8,0,2.7-.02,1.52-.7,2.21-2.24,2.21-4.88,.01-9.77,0-14.65,0Z"/><path class="cls-1" d="M80.6,105.15c-4.77,0-9.53,0-14.3,0-1.84,0-2.46-.62-2.47-2.45,0-.98-.02-1.95,0-2.93,.03-1.39,.71-2.12,2.08-2.12,9.88-.01,19.77-.01,29.65,0,1.31,0,2.02,.73,2.05,2.03,.03,.98,0,1.95,0,2.93,0,1.93-.6,2.54-2.5,2.54-4.84,0-9.69,0-14.53,0Z"/><path class="cls-4" d="M80.75,75.1c-3.44,0-6.87-.02-10.31,.02-.73,0-1-.14-.99-.94,0-2.83-.03-2.83,2.84-2.83,6.21,0,12.41,.02,18.62-.02,.84,0,1.13,.15,1.11,1.07-.05,2.71,0,2.71-2.73,2.71s-5.7,0-8.55,0Z"/><path class="cls-4" d="M80.74,93.88c-3.44,0-6.87-.02-10.31,.02-.74,0-.99-.15-.99-.95,0-2.82-.03-2.82,2.85-2.82,6.21,0,12.41,.02,18.62-.02,.84,0,1.13,.16,1.11,1.07-.05,2.7,0,2.7-2.73,2.7s-5.7,0-8.55,0Z"/><path class="cls-1" d="M40.63,75.11c2.34,0,4.69,.04,7.03-.02,.86-.02,1.03,.23,.91,1.05-1.02,6.76-7.1,12.77-13.9,13.77-4.45,.66-8.52-.27-12.27-2.73-.77-.5-1.02-.81-.21-1.59,3.34-3.24,6.61-6.55,9.88-9.85,.45-.45,.89-.64,1.53-.64,2.34,.03,4.69,.01,7.03,.01Z"/><path class="cls-4" d="M42.29,60.16c-.15,.16-.3,.33-.46,.49-3.09,3.1-6.2,6.18-9.27,9.3-.52,.53-.79,.49-1.29-.02-3.04-3.09-6.11-6.16-9.21-9.2-.58-.57-.53-.82,.1-1.29,5.55-4.11,14-4.12,19.52,.03,.23,.17,.58,.26,.61,.68Z"/><path class="cls-4" d="M15.02,73.28c.04-3.53,1.04-6.76,3.03-9.68,.46-.67,.74-.9,1.44-.18,3,3.08,6.04,6.11,9.11,9.12,.56,.55,.54,.84,0,1.37-3.06,3.01-6.12,6.04-9.11,9.12-.72,.74-1,.46-1.44-.2-1.97-2.89-2.97-6.07-3.03-9.56Z"/><path class="cls-4" d="M36.42,71.35c2.14-2.12,4.06-4.03,5.98-5.95,.72-.72,1.46-1.41,2.15-2.16,.45-.49,.7-.39,1.06,.11,1.51,2.14,2.51,4.48,2.95,7.06,.06,.37,.37,.96-.51,.95-3.77-.02-7.54-.01-11.63-.01Z"/><path class="cls-1" d="M78.26,18.78c-.12,0-.23,0-.35,0-3.15,0-3.13,0-2.82-3.19,.05-.48,.21-.58,.64-.57,1.68,.02,3.36-.02,5.04,.02,1.1,.03,1.85,.86,1.84,1.88-.01,1.02-.77,1.79-1.89,1.85-.82,.04-1.64,0-2.46,0Z"/></g></g></svg>