<?xml version="1.0" encoding="UTF-8"?><svg id="Layer_2" xmlns="http://www.w3.org/2000/svg" viewBox="0 0 117 117.29"><defs><style>.cls-1{fill:#eaeaea;}.cls-2{fill:#e9f6f6;}.cls-3{fill:#fff;}.cls-4{fill:#c1fff4;}.cls-5{fill:#10e0b8;}.cls-6{fill:#06ffd5;}.cls-7{fill:#0ae5bb;}.cls-8{fill:#1a2959;}.cls-9{fill:#4effe1;}</style></defs><g id="Layer_1-2"><g><path class="cls-8" d="M58.45,0c1.2,.42,2.37,.87,3.26,1.85,.92,1.02,1.45,2.21,1.6,3.64,1.24-.47,2.47-.65,3.72-.37,2.79,.63,4.63,2.98,4.64,5.99,.02,5.03,0,10.06,0,15.1,0,.38,0,.75,0,1.31,1.13-1.01,2.25-1.74,3.64-1.9,2.4-.27,4.37,.53,5.71,2.56,1.36,2.06,1.35,4.23,.13,6.37-2.81,4.92-5.63,9.83-8.48,14.72-1.72,2.96-3.31,5.98-5.3,8.78-1.5,2.12-1.38,4.61-1.34,7.05,0,.4,.28,.49,.59,.57,2.9,.69,5.51,2.12,8.2,3.33,7.8,3.49,15.66,3.55,23.51,.19,3.27-1.4,6.4-3.16,9.95-3.84,2.06-.39,4.13-.59,6.23-.63,1.13-.02,1.74,.68,2.37,1.41v48.75c-.52,1.11-1.32,1.91-2.51,2.29H2.3C.82,116.46,0,115.39,0,113.63c.03-15.4,.02-30.8,.02-46.2,0-1.9,.82-2.67,2.72-2.69,5.1-.03,9.79,1.43,14.28,3.74,3.45,1.78,7.1,2.84,10.99,3.04,3.94,.2,7.81-.11,11.56-1.44,.71-.25,.91-.58,.89-1.3-.05-1.71-.09-3.43,0-5.14,.13-2.6-.61-4.84-2.19-6.9-1.5-1.95-2.43-4.19-2.94-6.61-.75-3.55-.37-7.14-.39-10.71,0-.93,.73-1.35,1.6-1.5,1.37,.3,1.77,.77,1.78,2.19,.02,2.06,0,4.11,0,6.17,0,3.22,.96,6.15,2.89,8.71,1.63,2.16,2.56,4.55,2.69,7.25-.01,1.64,.02,3.28-.05,4.91-.04,.92,.25,.92,.95,.57,5.28-2.7,10.92-3.33,16.73-2.87,.98,.08,1.14-.19,1.09-1.05-.17-3.36,.7-6.4,2.85-9.03,.31-.38,.53-.83,.77-1.26,3.48-6.02,6.96-12.05,10.43-18.07,.55-.95,1.14-1.89,1.62-2.88,.73-1.48-.08-3.19-1.6-3.5-1.18-.25-2.12,.21-2.83,1.42-1.48,2.53-2.92,5.07-4.4,7.6-.69,1.19-1.41,1.39-2.67,.83-.55-.25-1.09-.55-1.73-.49-1.97-.58-4.42,.79-5.41,2.49-1.18,2.03-.96,4.44,.61,6.22,.61,.78,1.07,1.6,.37,2.54-.65,.87-1.51,.84-2.42,.42-1.65-1.7-2.64-3.71-2.73-6.1-.21-5.82,5.07-10.18,10.8-8.89,.66,.15,.93,.03,1.26-.52,.45-.78,.7-1.54,.69-2.47-.04-6.82-.02-13.65-.02-20.47,0-.45,0-.92-.12-1.36-.29-1.17-1.24-1.87-2.42-1.84-1.12,.03-2.02,.73-2.28,1.87-.1,.44-.12,.9-.12,1.36,0,5.64,0,11.29,0,16.93,0,.34,.01,.69-.01,1.03-.07,.99-.75,1.71-1.64,1.7-.97-.02-1.55-.57-1.73-1.5-.07-.37-.04-.76-.04-1.14,0-7.28,0-14.56,0-21.85,0-.42,.01-.84-.03-1.26-.14-1.22-1.19-2.15-2.41-2.15-1.22,0-2.27,.93-2.4,2.16-.04,.42-.03,.84-.03,1.26,0,7.43,0,14.87,0,22.3,0,1.39-.69,2.22-1.78,2.18-1.04-.03-1.64-.81-1.64-2.17,0-5.57,0-11.13,0-16.7,0-.57,.03-1.15-.02-1.71-.15-1.4-1.17-2.33-2.51-2.3-1.27,.02-2.25,.95-2.4,2.3-.04,.34-.02,.69-.02,1.03,0,5.6,0,11.21,0,16.81,0,.31,.01,.61,0,.91-.05,1.07-.7,1.8-1.64,1.83-.94,.03-1.67-.67-1.77-1.72-.03-.3-.01-.61-.01-.91,0-3.89,0-7.78,0-11.67,0-.45,0-.93-.13-1.36-.32-1.07-1.5-1.8-2.57-1.66-1.27,.17-2.15,1.14-2.16,2.52-.02,4.84,0,9.68-.01,14.53,0,1.51-.33,1.92-1.78,2.35-1.04-.25-1.66-.82-1.65-1.98,.02-5.07,0-10.14,.02-15.21,0-1.83,.83-3.3,2.26-4.41,1.8-1.4,3.8-1.56,5.98-.77,.13-2.16,.94-3.9,2.71-5.08,1.77-1.17,3.68-1.22,5.67-.48,.3-2.3,1.43-3.95,3.46-4.97,.32-.16,.76-.12,.95-.52h2.51Zm47.68,98.06c-2.01,.6-3.86,1.58-5.73,2.5-6.17,3.04-12.67,3.44-19.35,2.52-3.59-.5-6.83-1.99-10.03-3.58-5.46-2.73-11.22-3.31-17.2-2.52-3.64,.48-6.91,1.97-10.15,3.57-6.16,3.06-12.67,3.46-19.34,2.53-3.66-.51-6.96-2.07-10.24-3.67-3.1-1.51-6.36-2.47-9.82-2.66-.62-.03-.86,.06-.85,.75,.04,4.5,.04,8.99,.05,13.49-.01,.34-.04,.68-.04,1.03q0,1.73,1.71,1.73c35.58,0,71.16,0,106.74,0,.27,0,.54-.03,.8,0,.58,.07,.79-.12,.78-.74-.02-5.18-.02-10.37,0-15.55,0-.64-.21-.75-.79-.71-2.25,.14-4.44,.53-6.56,1.32Zm.03-3.74c2.19-.47,4.37-.98,6.63-1.01,.43,0,.69-.12,.69-.66-.02-3.2-.02-6.41,0-9.61,0-.53-.19-.63-.67-.58-2.35,.22-4.68,.53-6.89,1.41-1.14,.33-2.19,.85-3.25,1.35-2.3,1.09-4.58,2.2-7.03,2.93-1.22,.36-2.07,.12-2.69-.97-.1-1,.15-1.88,1.2-2.17,4.21-1.16,7.88-3.62,12.02-4.94,2.22-.52,4.45-.94,6.74-1.05,.43-.02,.58-.16,.58-.61-.02-3.2-.02-6.4,0-9.61,0-.53-.19-.65-.67-.6-2.27,.21-4.53,.48-6.65,1.38-2.11,.55-4,1.62-5.94,2.56-6.27,3.03-12.85,3.41-19.6,2.37-3.73-.58-7.05-2.3-10.41-3.89-5.46-2.58-11.18-2.92-17.05-2.06-3.32,.48-6.3,1.91-9.26,3.38-6,2.99-12.33,3.55-18.88,2.74-3.95-.49-7.5-2.1-11.02-3.82-3.04-1.49-6.24-2.35-9.6-2.64-.7-.06-.99,.05-.97,.86,.05,3.01,.04,6.02,0,9.04,0,.69,.16,.9,.86,.93,4.36,.21,8.42,1.48,12.28,3.48,1.92,1,3.9,1.89,6.01,2.4,7.29,1.75,14.28,1.03,21.04-2.36,9.9-4.98,19.86-4.93,29.77,.03,4.15,2.07,8.48,3.31,13.14,3.23,1.26-.02,1.87,.66,2.06,1.83-.32,1.24-1.13,1.67-2.37,1.62-1.56-.06-3.11-.17-4.66-.36-3.75-.48-7.15-1.98-10.49-3.64-5.61-2.8-11.52-3.39-17.65-2.48-3.39,.51-6.47,1.89-9.5,3.4-6.15,3.07-12.63,3.6-19.33,2.68-3.71-.51-7.06-2.02-10.36-3.65-3.13-1.55-6.44-2.47-9.92-2.75-.74-.06-.89,.13-.88,.83,.04,2.59,.02,5.19,.02,7.78q0,2.15,2.18,2.32c.26,.02,.53,.07,.79,.1,3.91,.43,7.48,1.89,10.94,3.68,5.25,2.71,10.83,3.29,16.62,2.69,3.86-.4,7.32-1.91,10.73-3.6,6.42-3.18,13.17-3.63,20.12-2.5,3.65,.6,6.88,2.31,10.2,3.82,6.73,3.07,13.67,3.29,20.68,1.16,3.63-1.1,6.84-3.26,10.46-4.42Z"/><path class="cls-1" d="M114.38,117.18c1.19-.38,1.99-1.18,2.51-2.29,0,.76,.3,1.82-.08,2.2-.38,.38-1.44,.08-2.2,.08h-.23Z"/><path class="cls-8" d="M83.62,57.73c-.01,1.7-.65,3.12-1.96,4.19-1.79,1.46-3.8,2.5-6.07,2.97-3.23,.68-5.21-1.25-4.64-4.5,.42-2.42,1.53-4.53,3.11-6.37,1.54-1.8,3.94-2.31,6.12-1.45,2.13,.85,3.46,2.84,3.45,5.16Zm-5.53-2.12c-.48,0-.91,.14-1.25,.47-1.39,1.37-2.12,3.11-2.59,4.97-.13,.52,.22,.6,.59,.5,1.83-.44,3.52-1.18,4.86-2.53,.62-.62,.65-1.45,.29-2.23-.37-.79-1.03-1.18-1.91-1.18Z"/><path class="cls-4" d="M88.59,87.66c-.19-1.17-.8-1.85-2.06-1.83-4.66,.08-8.99-1.15-13.14-3.23-9.91-4.96-19.87-5.01-29.77-.03-6.75,3.4-13.74,4.12-21.04,2.36-2.12-.51-4.09-1.4-6.01-2.4-3.86-2-7.92-3.27-12.28-3.48-.7-.03-.87-.24-.86-.93,.04-3.01,.05-6.03,0-9.04-.01-.82,.28-.92,.97-.86,3.37,.29,6.57,1.15,9.6,2.64,3.52,1.73,7.07,3.33,11.02,3.82,6.55,.82,12.88,.25,18.88-2.74,2.96-1.47,5.94-2.9,9.26-3.38,5.87-.85,11.59-.52,17.05,2.06,3.36,1.59,6.68,3.31,10.41,3.89,6.75,1.04,13.32,.65,19.6-2.37,1.94-.94,3.83-2.01,5.94-2.56,0,3.5,0,7,0,10.49-4.14,1.32-7.81,3.78-12.02,4.94-1.05,.29-1.3,1.17-1.2,2.17-1.45,.15-2.9,.31-4.35,.46Z"/><path class="cls-9" d="M88.59,87.66c1.45-.15,2.9-.31,4.35-.46,.63,1.08,1.48,1.33,2.69,.97,2.45-.73,4.73-1.84,7.03-2.93,1.06-.5,2.12-1.03,3.25-1.35,.22,.73,.26,1.48,.25,2.24-.02,2.73,0,5.47,0,8.2-3.62,1.16-6.83,3.32-10.46,4.42-7.01,2.13-13.94,1.9-20.68-1.16-3.31-1.51-6.55-3.22-10.2-3.82-6.95-1.14-13.7-.68-20.12,2.5-3.41,1.69-6.87,3.2-10.73,3.6-5.79,.6-11.37,.02-16.62-2.69-3.46-1.79-7.03-3.25-10.94-3.68-.26-.03-.53-.08-.79-.1q-2.18-.17-2.18-2.32c0-2.59,.02-5.19-.02-7.78-.01-.7,.15-.89,.88-.83,3.49,.29,6.79,1.2,9.92,2.75,3.31,1.64,6.66,3.15,10.36,3.65,6.7,.92,13.18,.39,19.33-2.68,3.03-1.51,6.1-2.89,9.5-3.4,6.13-.91,12.04-.32,17.65,2.48,3.34,1.67,6.73,3.17,10.49,3.64,1.55,.2,3.1,.31,4.66,.36,1.24,.04,2.05-.39,2.37-1.62Z"/><path class="cls-6" d="M3.48,110.99c-.01-4.5-.01-8.99-.05-13.49,0-.7,.24-.79,.85-.75,3.46,.19,6.72,1.15,9.82,2.66,3.28,1.6,6.57,3.16,10.24,3.67,6.67,.93,13.18,.53,19.34-2.53,3.23-1.61,6.51-3.09,10.15-3.57,5.98-.79,11.73-.2,17.2,2.52,3.2,1.59,6.44,3.08,10.03,3.58,6.68,.92,13.18,.52,19.35-2.52,1.87-.92,3.72-1.91,5.73-2.5-.22,2.03-.22,4.09-1.18,5.98-2.44,4.83-6.51,6.94-11.74,6.94-29.91,.02-59.82,0-89.73,0Z"/><path class="cls-3" d="M36.54,37.93c0-1.5,0-3,0-4.5,1.45-.43,1.77-.85,1.78-2.35,0-4.84,0-9.68,.01-14.53,0-1.39,.89-2.36,2.16-2.52,1.07-.14,2.25,.59,2.57,1.66,.13,.43,.13,.9,.13,1.36,0,3.89,0,7.78,0,11.67,0,.3-.02,.61,.01,.91,.1,1.05,.83,1.75,1.77,1.72,.94-.03,1.59-.76,1.64-1.83,.01-.3,0-.61,0-.91,0-5.6,0-11.21,0-16.81,0-.34-.02-.69,.02-1.03,.15-1.35,1.13-2.27,2.4-2.3,1.33-.02,2.36,.9,2.51,2.3,.06,.57,.02,1.14,.02,1.71,0,5.57,0,11.13,0,16.7,0,1.36,.6,2.14,1.64,2.17,1.09,.04,1.78-.79,1.78-2.18,0-7.43,0-14.87,0-22.3,0-.42-.02-.84,.03-1.26,.13-1.23,1.18-2.16,2.4-2.16,1.22,0,2.27,.92,2.41,2.15,.05,.41,.03,.84,.03,1.26,0,7.28,0,14.56,0,21.85,0,.38-.03,.77,.04,1.14,.18,.94,.76,1.49,1.73,1.5,.9,.01,1.57-.71,1.64-1.7,.02-.34,.01-.69,.01-1.03,0-5.64,0-11.29,0-16.93,0-.45,.01-.92,.12-1.36,.27-1.13,1.16-1.84,2.28-1.87,1.18-.03,2.13,.67,2.42,1.84,.11,.44,.12,.9,.12,1.36,0,6.82-.01,13.65,.02,20.47,0,.92-.24,1.69-.69,2.47-.32,.55-.6,.66-1.26,.52-5.73-1.29-11.01,3.07-10.8,8.89,.09,2.39,1.08,4.4,2.73,6.1-.04,.43-.27,.78-.52,1.12-1.56,2.08-2.52,4.35-2.5,7.04,.02,1.78-1.64,3.5-3.28,3.5-2.69,0-5.36,.22-8.03,.48-.13-2.7-1.06-5.09-2.69-7.25-1.93-2.56-2.89-5.49-2.89-8.71,0-2.06,0-4.11,0-6.17-.01-1.42-.41-1.89-1.78-2.19Z"/><path class="cls-7" d="M3.48,110.99c29.91,0,59.82,.02,89.73,0,5.23,0,9.3-2.11,11.74-6.94,.96-1.89,.96-3.95,1.18-5.98,2.12-.79,4.31-1.17,6.56-1.32,.58-.04,.79,.08,.79,.71-.02,5.18-.02,10.37,0,15.55,0,.63-.21,.81-.78,.74-.26-.03-.53,0-.8,0-35.58,0-71.16,0-106.74,0q-1.72,0-1.71-1.73c0-.34,.02-.68,.04-1.03Z"/><path class="cls-2" d="M43.91,62.25c2.67-.26,5.34-.48,8.03-.48,1.64,0,3.3-1.72,3.28-3.5-.03-2.69,.93-4.96,2.5-7.04,.25-.34,.48-.69,.52-1.12,.9,.42,1.77,.45,2.42-.42,.7-.94,.23-1.76-.37-2.54,.39-.73,.77-1.46,1.16-2.19,1.18-2.2,2.61-4.25,3.64-6.53,.64-.05,1.18,.25,1.73,.49,1.26,.57,1.97,.36,2.67-.83,1.48-2.53,2.92-5.07,4.4-7.6,.71-1.22,1.65-1.67,2.83-1.42,1.52,.32,2.33,2.02,1.6,3.5-.48,.99-1.07,1.93-1.62,2.88-3.48,6.02-6.95,12.05-10.43,18.07-.25,.43-.47,.88-.77,1.26-2.15,2.63-3.03,5.67-2.85,9.03,.04,.86-.11,1.12-1.09,1.05-5.81-.46-11.45,.17-16.73,2.87-.7,.36-.99,.35-.95-.57,.07-1.64,.04-3.28,.05-4.91Z"/><path class="cls-5" d="M106.16,94.32c0-2.73-.01-5.47,0-8.2,0-.76-.04-1.51-.25-2.24,2.21-.89,4.54-1.19,6.89-1.41,.48-.05,.68,.06,.67,.58-.02,3.2-.02,6.41,0,9.61,0,.53-.26,.65-.69,.66-2.26,.03-4.44,.54-6.63,1.01Z"/><path class="cls-9" d="M106.16,80.08c0-3.5,0-7,0-10.49,2.13-.89,4.38-1.16,6.65-1.38,.48-.04,.67,.07,.67,.6-.02,3.2-.02,6.4,0,9.61,0,.45-.15,.59-.58,.61-2.28,.11-4.52,.53-6.74,1.05Z"/><path class="cls-3" d="M65.08,38.42c-1.03,2.28-2.46,4.33-3.64,6.53-.39,.73-.77,1.46-1.16,2.19-1.57-1.78-1.79-4.19-.61-6.22,.99-1.7,3.44-3.07,5.41-2.49Z"/><path class="cls-8" d="M22.6,60.62c.14-2.29,1.3-4.2,3.64-5.22,2.33-1.01,4.63-.71,6.45,1.08,2.24,2.22,3.63,4.98,4.03,8.14,.38,2.99-1.58,4.78-4.59,4.36-2.87-.41-5.35-1.68-7.52-3.54-1.37-1.17-2-2.74-2.01-4.82Zm3.44,.06c0,1.03,.26,1.66,.79,2.13,1.64,1.48,3.6,2.36,5.75,2.83,.61,.13,.88-.11,.76-.73-.46-2.24-1.34-4.29-2.96-5.92-.79-.8-1.83-.88-2.85-.39-.98,.47-1.45,1.3-1.47,2.08Z"/><path class="cls-6" d="M78.09,55.61c.88,0,1.54,.4,1.91,1.18,.36,.78,.33,1.6-.29,2.23-1.34,1.36-3.03,2.09-4.86,2.53-.38,.09-.72,.02-.59-.5,.47-1.86,1.19-3.59,2.59-4.97,.33-.33,.77-.47,1.25-.47Z"/><path class="cls-6" d="M26.04,60.68c.02-.78,.5-1.61,1.47-2.08,1.02-.49,2.06-.4,2.85,.39,1.62,1.63,2.5,3.68,2.96,5.92,.13,.61-.15,.86-.76,.73-2.15-.47-4.1-1.34-5.75-2.83-.52-.47-.79-1.11-.79-2.13Z"/></g></g></svg>