<?xml version="1.0" encoding="UTF-8"?><svg id="Layer_2" xmlns="http://www.w3.org/2000/svg" viewBox="0 0 129.17 129.05"><defs><style>.cls-1{fill:#00dabd;}.cls-2{fill:#fff;}.cls-3{fill:#b6e5f5;}.cls-4{fill:#1a2959;}</style></defs><g id="Layer_1-2"><g id="lO0ejB"><g><path class="cls-4" d="M16.84,120.47c-.49,4.68-2.8,7.53-6.71,8.37-4.82,1.04-9.84-2.44-9.92-7.37-.12-7.48-.58-14.99,.42-22.45,2.28-16.96,16-31.96,32.66-35.78,5.33-1.22,10.79-1.55,16.18-2.27,3.35-.45,3.38-.39,3.92-3.75,.07-.43,.02-.71-.4-.96-3.71-2.26-5.99-5.54-6.84-9.8-.1-.52-.32-.6-.77-.62-6.38-.42-9.88-7.45-6.6-12.61,.27-.42,.18-.8,.1-1.23-.39-1.99-.83-3.98-1.12-5.99-.82-5.75,1.13-10.46,5.56-14.15,.58-.48,1-1.01,1.37-1.67C48.19,3.81,53.57,.34,60.84,.14c4.18-.11,8.4-.4,12.57,.44,12.12,2.43,20.22,14.55,17.82,26.67-.2,1.02-.37,2.05-.62,3.05-.36,1.45-.27,2.71,.37,4.18,2.22,5.05-1.3,10.72-6.9,11.31-.75,.08-.96,.29-1.12,1.01-.88,3.98-3.05,7.13-6.53,9.29-.66,.41-.71,.8-.54,1.47,.78,3.06,.78,2.97,3.93,3.4,6.08,.82,12.25,1.05,18.18,2.84,17.05,5.16,29.34,20.19,30.84,37.91,.56,6.52,.22,13.08,.17,19.62-.03,3.29-2.42,6.17-5.6,7.25-3.19,1.09-6.64,.18-8.86-2.35-.46-.52-.8-1.53-1.66-.36-.21,.28-.55,0-.82-.13-.81-.4-1.62-.82-2.45-1.19-1.33-.58-2.48-.16-2.9,1.22-.96,3.17-.75,3.29-4.94,3.26-.39,0-.78,0-1.17,0-1.97-.04-2.27-.26-2.89-2.11-.17-.49-.29-1-.52-1.46-.52-1.06-1.41-1.34-2.5-1.04-.29,.08-.55,.26-.82,.39q-2.57,1.26-4.65-.82c-.8-.8-1.57-1.62-2.4-2.38-.47-.43-.52-.79-.2-1.34,.43-.74,.79-1.53,1.14-2.33,.59-1.34,.15-2.39-1.18-2.93-.12-.05-.25-.07-.37-.12-.95-.39-2.33-.32-2.79-1.12-.45-.79-.13-2.02-.14-3.06q0-2.46-2.48-2.46c-.3,0-.61,.03-.91,0-.64-.07-.94,.07-1.1,.84-.74,3.61-2.61,6.56-5.59,8.76-.5,.37-.72,.8-.83,1.38-.4,2.08-.8,4.16-1.25,6.23-.54,2.42-2.02,3.57-4.52,3.59-1.39,0-2.77,.01-4.16,0-2.42-.02-3.91-1.19-4.43-3.54-.46-2.07-.86-4.15-1.26-6.23-.12-.63-.37-1.08-.9-1.48-2.93-2.19-4.76-5.1-5.52-8.66-.15-.68-.33-.97-1.05-.9-1.11,.1-2.54-.45-3.25,.21-.66,.61-.15,2.05-.19,3.12-.03,1,.01,1.99-.01,2.99-.08,3.4-2.72,6.14-6.11,6.16-7.02,.05-14.04,.02-21.06,0-.6,0-1.2-.15-1.87-.24Zm70.64-27.68c-.07-5.17,.4-10.29,1.47-15.35,.64-3.02,.64-2.98,3.63-2.25,.82,.2,1.17,.52,.84,1.3-.45,1.07,.1,1.25,1,1.48,8.97,2.31,15.5,7.64,19.44,16.02,.89,1.89,1.65,3.8,3.38,5.1,.46,.34,.5,.72,.21,1.23-.47,.83-.89,1.68-1.26,2.56-.33,.78-.25,1.29,.85,1.24,1.6-.08,3.2-.02,4.81-.02q3.13,0,2.76-3.13c-2.2-18.65-17.4-33.25-36.24-34.8-.64-.05-.94,.02-.91,.77,.06,1.38-.05,2.78,.04,4.16,.06,.94-.25,1.36-1.15,1.63-.89,.26-2.29,.27-2.49,1.04-.16,.63,.78,1.63,1.36,2.36,.62,.76,.48,1.28-.08,2.01-4.45,5.81-10.22,9.51-17.42,10.88-.77,.15-1.2,.39-1.04,1.23,.13,.65-.41,1.43,.88,1.73,6.04,1.42,9.8,5.24,11.26,11.26,.17,.71,.42,.88,1.09,.87,2.38-.03,4.77-.06,7.15,0,1.13,.03,1.13-.51,.81-1.26-.38-.87-.82-1.72-1.25-2.56-.19-.37-.37-.74,.06-1.03,.92-.61,.82-1.53,.81-2.43-.01-1.34,0-2.69,0-4.03ZM8.48,104.09c1.08,0,2.17-.04,3.25,.01,.67,.03,.9-.17,.88-.86-.05-1.82-.03-3.64,0-5.46,.03-1.78,.61-3.42,2.04-4.45,1.39-1,2.25-2.33,3.16-3.69,.48-.72,1.01-1.4,1.57-2.07,4.18-4.96,9.44-8.18,15.73-9.71,.45-.11,1.1-.08,.77-.81-.7-1.54,.25-1.84,1.43-2.04,.38-.07,.78-.13,1.13-.28,.93-.41,1.24-.03,1.44,.87,1.12,5.04,1.8,10.14,1.82,15.31,0,.69,.1,1.14,.84,1.51,1.78,.86,2.83,2.37,3.21,4.31,.26,1.33,.1,2.68,.11,4.02,.02,3.45,0,3.43,3.44,3.37,.7-.01,.9-.22,1.07-.9,1.45-5.97,5.18-9.78,11.15-11.2,1.3-.31,.89-1.05,1-1.78,.13-.87-.3-1.08-1.06-1.22-6.54-1.23-11.95-4.42-16.26-9.47-1.95-2.28-1.93-2.29-.27-4.81,.07-.11,.13-.23,.21-.33,.43-.52,.47-.86-.32-1.05-.75-.18-1.47-.53-2.22-.72-.72-.18-.94-.54-.91-1.28,.06-1.47-.02-2.95,.04-4.42,.03-.75-.27-.88-.91-.77-1.49,.25-3,.42-4.48,.7-17.67,3.34-31.03,18.57-31.96,36.39-.04,.77,.24,.86,.86,.84,1.08-.03,2.17,0,3.25,0ZM79.15,34.07c0-3.42,.03-6.84,0-10.26-.03-2.49-2.25-3.67-4.36-2.36-.99,.62-1.93,1.32-2.93,1.92-4.46,2.67-10.11,2.19-13.79-1.41-1.23-1.2-2.36-1.18-3.72-.76-2.47,.77-4.28,3.12-4.29,5.75-.04,5.76-.08,11.52,.02,17.27,.08,4.76,3.67,8.9,8.39,9.71,3.34,.58,6.74,.21,10.11,.22,6.05,.02,10.55-4.54,10.59-10.6,.02-3.16,0-6.32,0-9.48Zm-13.96-29.82c-1.26,0-2.51-.03-3.77,0-6.27,.15-10.77,3.05-13.44,8.74-.31,.65-.68,1.15-1.29,1.55-2.06,1.34-3.46,3.21-4.34,5.51-1.19,3.11-.37,6.14,.26,9.19,.04,.2,.12,.48,.39,.44,.89-.15,1.85-.19,2.64-.57,.57-.27,.22-1.11,.23-1.69,.09-4.61,2.2-7.91,6.37-9.86,.73-.34,1.86-.36,2.19-.9,.33-.55-.13-1.56-.19-2.37-.13-1.72-.12-1.73,1.55-1.73,.52,0,1.04,.04,1.56,0,.76-.08,1.02,.15,1.06,.98,.3,6.07,6.54,9.28,11.69,6.04,.92-.58,1.79-1.22,2.71-1.78,2.25-1.36,4.61-1.49,6.92-.23,2.35,1.29,3.55,3.36,3.6,6.05,.03,1.52,.04,3.03,0,4.55-.02,.74,.13,1.16,.97,1.08,.75-.07,1.6,.81,2.15,.21,.45-.5,.39-1.46,.56-2.22,.04-.17,.07-.34,.11-.51,1.8-8.72-2.87-17.52-11.06-21.01-3.5-1.49-7.14-1.58-10.84-1.48ZM29.26,95.77c-3.29,0-6.59,0-9.88,0-1.88,0-2.61,.72-2.62,2.57,0,5.2,0,10.4,0,15.6,0,1.88,.72,2.62,2.57,2.62,6.59,0,13.17,0,19.76,0,1.88,0,2.62-.73,2.62-2.58,0-5.2,0-10.4,0-15.6,0-1.88-.72-2.61-2.58-2.62-3.29-.01-6.59,0-9.88,0Zm72.81,29.11c.51,.08,.62-.27,.79-.65,1.63-3.63,4.71-4.92,8.4-3.5,.44,.17,.75,.28,1.14-.13,.38-.39,.17-.68,.03-1.04-1.38-3.64-.09-6.84,3.38-8.36,.4-.17,.79-.22,.81-.82,.02-.67-.43-.73-.86-.92-3.4-1.49-4.72-4.77-3.36-8.27,.15-.4,.38-.72-.05-1.15-.43-.43-.75-.21-1.15-.06-3.56,1.38-6.79,.05-8.32-3.47-.19-.43-.31-.76-.88-.74-.5,.01-.62,.29-.79,.67-1.65,3.65-4.7,4.91-8.4,3.51-.36-.14-.65-.34-1.04,.03-.41,.39-.3,.7-.13,1.14,1.42,3.68,.13,6.76-3.51,8.4-.39,.17-.68,.29-.67,.79,0,.46,.19,.65,.61,.84,3.77,1.74,4.97,4.62,3.54,8.47-.15,.4-.24,.67,.11,1.03,.36,.36,.63,.26,1.03,.11,3.83-1.43,6.72-.23,8.47,3.55,.19,.42,.37,.66,.84,.59Zm-35.39-11v.75q0,1.89,1.74,1.2c4.48-1.77,7.26-6.55,6.47-11.12-.87-5.09-4.91-8.75-9.83-8.92-4.93-.17-9.31,3.06-10.53,7.77-1.24,4.78,1.08,9.8,5.53,11.97,2.46,1.2,2.42,1.2,2.48-1.53,.03-1.23-.15-2.05-1.41-2.75-2.37-1.33-3.29-4.3-2.49-6.91,.77-2.52,3.19-4.34,5.83-4.39,2.71-.05,5.2,1.7,6.06,4.25,.86,2.58,0,5.55-2.34,6.97-1.27,.76-1.8,1.56-1.5,2.72Zm35.3-22.24s0,.03,0,.04c1.21,0,2.66-.41,3.55,.13,.74,.44,.81,2,1.18,3.06,.04,.12,.09,.25,.15,.36,.49,.93,1.27,1.25,2.28,1.07,.77-.14,1.11-.42,.65-1.29-3.54-6.74-8.98-11.06-16.33-13.01-.81-.21-1.11-.06-1.21,.79-.35,3.06-.63,6.12-.62,9.2,.01,2.86,0,2.86,2.6,4.04,1.53,.7,2.56,.25,3.18-1.29,.41-1.02,.32-2.52,1.24-2.99,.9-.45,2.2-.1,3.33-.1ZM4.28,114.95c0,1.9-.02,3.8,0,5.71,.04,2.4,1.87,4.23,4.17,4.22,2.25,0,4.1-1.8,4.13-4.13,.04-3.89,0-7.78,.03-11.67,0-.71-.23-.86-.89-.85-2.2,.04-4.41,.04-6.61,0-.71-.02-.86,.23-.85,.89,.04,1.94,.01,3.89,.01,5.84Zm120.63,.07h0c0-1.99-.02-3.98,.01-5.98,.01-.61-.16-.79-.79-.82-3.38-.15-3.38-.17-3.38,3.15,0,.35-.06,.71,.01,1.04,.27,1.25-.38,1.7-1.47,2.04-3.82,1.17-3.96,1.59-2.21,5.15,.36,.73,1.06,1.47-.05,2.23-.43,.3,0,.72,.18,1.03,.86,1.51,2.79,2.33,4.46,1.91,1.84-.45,3.17-2.01,3.22-3.91,.05-1.95,.01-3.9,.01-5.85ZM36.75,81.75c-6.29,1.43-11.3,4.6-15.25,9.86,5.26,0,10.23,0,15.2,0,.51,0,.89,.05,.87-.7-.08-3.02-.31-6.03-.82-9.16Zm35.67-20.99c-.18-.75-.38-1.51-.55-2.26-.11-.5-.46-.43-.8-.39-3.84,.47-7.69,.18-11.53,.18-2.24,0-2.22-.1-2.69,2.09-.13,.59-.08,.92,.59,1.17,2.18,.81,4.34,1.7,6.49,2.58,.37,.15,.72,.28,1.12,.12,2.28-.92,4.56-1.85,6.84-2.75,.36-.14,.63-.28,.53-.73Zm-26.54-23.11c0-1.17-.03-2.33,.01-3.5,.02-.61-.1-.86-.78-.74-1.85,.34-3.36,2.11-3.39,4.05-.03,1.99,1.5,3.85,3.4,4.17,.53,.09,.8,.03,.77-.61-.04-1.12-.01-2.25-.01-3.37Zm37.44-.17c0,1.17,.02,2.33-.01,3.5-.02,.56,.12,.76,.73,.67,1.88-.29,3.45-2.15,3.44-4.14,0-1.98-1.62-3.87-3.47-4.1-.49-.06-.71,.02-.69,.57,.03,1.17,0,2.33,0,3.5Zm-15.38,82.94c-1.12,.11-2.06,.22-3,.29-.99,.07-1.98-.06-2.95-.25-.61-.12-.68,.08-.6,.68,.53,3.74,.51,3.75,4.29,3.74,.22,0,.43-.02,.65,0,.61,.07,.81-.21,.9-.79,.18-1.18,.45-2.35,.72-3.68Zm4.64-37.43c3.04-1.27,5.62-3.17,7.77-5.64,.39-.45-.42-2.13-1.05-2.26-.65-.13-2.62,.9-2.92,1.55-1.04,2.25-2.31,4.34-3.81,6.35Zm-16.1-.09c-1.19-1.8-2.5-3.53-3.27-5.53-.56-1.44-1.62-1.84-2.89-2.21-.83-.25-.95,.42-1.23,.83-.25,.38-.83,.72-.29,1.33,2.14,2.41,4.66,4.31,7.67,5.58Zm22.01-12.15c.1,.02,.19,.07,.26,.05,1.19-.38,2.36-.83,3.57-1.14,.84-.22,1.04-.65,1.03-1.47-.03-2.56,0-2.56-2.57-2.92-.34-.05-.68-.1-1.02-.16-.43-.08-.61,.07-.66,.53-.18,1.7-.39,3.4-.6,5.11Zm-27.64,.18c-.42-1.86-.57-3.52-.73-5.19-.03-.28,.03-.67-.44-.62-1.16,.13-2.31,.29-3.46,.44-.36,.05-.3,.35-.33,.59-.37,2.84-.23,3.07,2.52,3.98,.73,.24,1.47,.48,2.45,.79Zm23.05,.48c.65-2.22,1.01-4.34,1.05-6.67-2.16,.86-4.14,1.66-6.26,2.51,1.78,1.42,3.45,2.75,5.21,4.16Zm-18.51-.06c1.69-1.35,3.35-2.69,5.13-4.11-2.16-.86-4.17-1.66-6.23-2.48-.03,2.25,.43,4.94,1.1,6.59Zm9.25,7.78c-1.31-.14-1.28,1.01-1.64,1.68-1.05,1.95-.99,1.95,.71,3.38,.61,.51,1.01,.68,1.71,.07,1.77-1.52,1.81-1.48,.74-3.61-.13-.27-.3-.53-.4-.81-.2-.56-.56-.85-1.13-.72Zm-.01-4.17c1.17,.15,1.16-.88,1.5-1.49,.37-.66,1.12-1.41,.86-2.05-.36-.88-1.36-1.41-2.21-1.89-.53-.3-.89,.37-1.27,.67-1.5,1.18-1.49,1.19-.62,2.93,.19,.38,.43,.75,.57,1.15,.22,.59,.62,.78,1.17,.68Zm-.04,33.28c1.12,.01,2.07-.9,2.1-2.02,.03-1.12-.87-2.08-1.99-2.13-1.17-.05-2.17,.92-2.16,2.09,0,1.12,.93,2.05,2.05,2.06Zm-5.6-29.09c1.09-1.26,1.32-2.36,.45-3.72-.98-1.54-.42-1.53-2-.4-.47,.33-.57,.66-.24,1.18,.61,.94,1.17,1.91,1.79,2.94Zm11.19-.01c.29-.43,.54-.79,.77-1.15,.3-.47,.6-.95,.88-1.44,.51-.9-.05-2.05-1.08-2.31-.3-.08-.34,.1-.47,.28-1.34,1.81-1.38,2.62-.11,4.62Z"/><path class="cls-3" d="M87.47,92.79c0,1.34,0,2.69,0,4.03,0,.91,.12,1.82-.81,2.43-.43,.28-.25,.66-.06,1.03,.43,.85,.88,1.69,1.25,2.56,.33,.76,.32,1.29-.81,1.26-2.38-.06-4.77-.04-7.15,0-.67,0-.92-.16-1.09-.87-1.46-6.02-5.22-9.85-11.26-11.26-1.29-.3-.75-1.08-.88-1.73-.17-.84,.26-1.09,1.04-1.23,7.21-1.37,12.97-5.06,17.42-10.88,.56-.73,.7-1.25,.08-2.01-.59-.73-1.53-1.72-1.36-2.36,.2-.77,1.6-.77,2.49-1.04,.9-.27,1.21-.69,1.15-1.63-.09-1.38,.02-2.77-.04-4.16-.03-.76,.27-.83,.91-.77,18.84,1.55,34.04,16.14,36.24,34.8q.37,3.13-2.76,3.13c-1.6,0-3.21-.06-4.81,.02-1.1,.06-1.18-.46-.85-1.24,.37-.87,.79-1.73,1.26-2.56,.29-.51,.25-.89-.21-1.23-1.73-1.3-2.49-3.21-3.38-5.1-3.95-8.38-10.48-13.71-19.44-16.02-.9-.23-1.45-.41-1-1.48,.33-.78-.02-1.1-.84-1.3-3-.72-2.99-.76-3.63,2.25-1.08,5.06-1.54,10.18-1.47,15.35Z"/><path class="cls-3" d="M8.48,104.09c-1.08,0-2.17-.02-3.25,0-.62,.02-.9-.06-.86-.84,.93-17.82,14.29-33.05,31.96-36.39,1.49-.28,2.99-.46,4.48-.7,.64-.1,.94,.02,.91,.77-.06,1.47,.03,2.95-.04,4.42-.03,.74,.19,1.1,.91,1.28,.75,.19,1.46,.54,2.22,.72,.79,.19,.75,.53,.32,1.05-.08,.1-.14,.22-.21,.33-1.66,2.52-1.68,2.53,.27,4.81,4.31,5.05,9.73,8.24,16.26,9.47,.76,.14,1.19,.35,1.06,1.22-.11,.73,.3,1.47-1,1.78-5.97,1.43-9.7,5.24-11.15,11.2-.17,.68-.37,.89-1.07,.9-3.43,.07-3.42,.09-3.44-3.37,0-1.34,.15-2.69-.11-4.02-.38-1.94-1.44-3.45-3.21-4.31-.74-.36-.84-.81-.84-1.51-.02-5.17-.71-10.26-1.82-15.31-.2-.91-.51-1.28-1.44-.87-.35,.15-.75,.22-1.13,.28-1.17,.2-2.12,.51-1.43,2.04,.33,.73-.32,.7-.77,.81-6.29,1.54-11.55,4.76-15.73,9.71-.56,.66-1.09,1.35-1.57,2.07-.91,1.35-1.76,2.69-3.16,3.69-1.43,1.02-2.02,2.67-2.04,4.45-.03,1.82-.04,3.64,0,5.46,.02,.7-.21,.9-.88,.86-1.08-.05-2.16-.01-3.25-.01Z"/><path class="cls-2" d="M79.15,34.07c0,3.16,.02,6.32,0,9.48-.04,6.06-4.54,10.61-10.59,10.6-3.37,0-6.76,.36-10.11-.22-4.72-.82-8.31-4.95-8.39-9.71-.09-5.76-.06-11.51-.02-17.27,.02-2.63,1.83-4.98,4.29-5.75,1.36-.42,2.49-.44,3.72,.76,3.68,3.6,9.33,4.08,13.79,1.41,1-.6,1.94-1.3,2.93-1.92,2.11-1.31,4.33-.13,4.36,2.36,.04,3.42,0,6.84,0,10.26Zm-15.96,15.94h0c1.26,0,2.51,.03,3.77-.01,3.76-.11,6.97-2.78,7.8-6.44q.42-1.87-1.52-1.87c-.48,0-.96,.04-1.43,0-.66-.07-.93,.1-1.09,.83-.47,2.11-2.04,3.31-4.2,3.33-1.69,.02-3.38,0-5.06,0-3.21,0-3.18,0-3.13,3.27,.01,.77,.26,.93,.96,.9,1.3-.05,2.6-.01,3.89-.01Zm3.48-12.35v-1.17q0-3.3-3.38-3.12s-.09,0-.13,0c-.51-.07-.67,.16-.66,.66,.02,2.33,.02,4.67,0,7,0,.5,.17,.63,.66,.67,3.51,.31,3.51,.32,3.51-3.14v-.91Zm8.32-6.33c.02-1.12-.88-2.08-2-2.12-1.12-.04-2.09,.84-2.15,1.97-.06,1.17,.89,2.18,2.06,2.19,1.12,0,2.07-.91,2.09-2.03Zm-16.64-.08c-.02-1.13-.95-2.04-2.08-2.04-1.18,0-2.13,1-2.08,2.17,.05,1.12,1.02,2.02,2.14,1.98,1.12-.04,2.03-.99,2.01-2.11Z"/><path class="cls-3" d="M65.19,4.25c3.69-.1,7.34-.01,10.84,1.48,8.19,3.49,12.85,12.29,11.06,21.01-.03,.17-.07,.34-.11,.51-.17,.76-.11,1.72-.56,2.22-.55,.6-1.4-.28-2.15-.21-.84,.08-.99-.34-.97-1.08,.05-1.51,.04-3.03,0-4.55-.05-2.69-1.25-4.76-3.6-6.05-2.31-1.26-4.66-1.14-6.92,.23-.93,.56-1.8,1.21-2.71,1.78-5.16,3.24-11.4,.03-11.69-6.04-.04-.83-.3-1.06-1.06-.98-.51,.05-1.04,0-1.56,0-1.67,0-1.68,0-1.55,1.73,.06,.81,.53,1.82,.19,2.37-.33,.54-1.45,.56-2.19,.9-4.17,1.96-6.28,5.25-6.37,9.86-.01,.58,.34,1.41-.23,1.69-.79,.38-1.75,.42-2.64,.57-.26,.04-.34-.24-.39-.44-.63-3.05-1.45-6.08-.26-9.19,.88-2.3,2.28-4.17,4.34-5.51,.61-.4,.99-.9,1.29-1.55,2.67-5.69,7.17-8.59,13.44-8.74,1.26-.03,2.51,0,3.77,0Z"/><path class="cls-1" d="M29.26,95.77c3.29,0,6.59,0,9.88,0,1.85,0,2.57,.74,2.58,2.62,0,5.2,0,10.4,0,15.6,0,1.85-.74,2.57-2.62,2.58-6.59,0-13.17,0-19.76,0-1.85,0-2.57-.74-2.57-2.62,0-5.2,0-10.4,0-15.6,0-1.85,.74-2.57,2.62-2.57,3.29,0,6.59,0,9.88,0Zm-4.57,8.83c-.42,.35-.62,.5-.79,.67-.53,.51-1.01,1.08-1.57,1.55-.69,.56-.74,.97-.04,1.61,1.43,1.32,2.8,2.71,4.13,4.13,.59,.63,.93,.6,1.51,0,2.26-2.33,4.58-4.6,6.87-6.9,2.23-2.23,2.21-2.21-.07-4.45-.58-.57-.89-.55-1.43,.02-1.65,1.72-3.43,3.31-5.01,5.09-.92,1.03-1.52,.95-2.26-.06-.41-.56-.87-1.07-1.34-1.65Z"/><path class="cls-1" d="M102.07,124.88c-.47,.07-.64-.17-.84-.59-1.76-3.77-4.64-4.98-8.47-3.55-.4,.15-.67,.25-1.03-.11-.35-.35-.26-.63-.11-1.03,1.42-3.85,.22-6.73-3.54-8.47-.42-.19-.6-.38-.61-.84,0-.5,.28-.62,.67-.79,3.64-1.63,4.92-4.72,3.51-8.4-.17-.44-.28-.75,.13-1.14,.39-.38,.68-.17,1.04-.03,3.7,1.4,6.74,.13,8.4-3.51,.18-.39,.29-.66,.79-.67,.57-.02,.69,.31,.88,.74,1.53,3.52,4.76,4.85,8.32,3.47,.4-.15,.72-.37,1.15,.06,.43,.43,.2,.75,.05,1.15-1.37,3.51-.04,6.79,3.36,8.27,.44,.19,.88,.25,.86,.92-.02,.6-.41,.65-.81,.82-3.47,1.52-4.77,4.73-3.38,8.36,.14,.36,.34,.65-.03,1.04-.39,.41-.7,.3-1.14,.13-3.68-1.42-6.77-.13-8.4,3.5-.17,.39-.28,.73-.79,.65Zm6.2-14.59c-.02-3.4-2.81-6.19-6.21-6.2-3.45-.01-6.28,2.82-6.27,6.27,.02,3.39,2.81,6.19,6.21,6.2,3.45,.01,6.28-2.82,6.27-6.27Z"/><path class="cls-1" d="M66.67,113.88c-.29-1.17,.24-1.96,1.5-2.72,2.34-1.42,3.2-4.39,2.34-6.97-.85-2.55-3.34-4.3-6.06-4.25-2.64,.05-5.06,1.87-5.83,4.39-.8,2.61,.13,5.58,2.49,6.91,1.26,.71,1.44,1.52,1.41,2.75-.07,2.73-.02,2.73-2.48,1.53-4.44-2.16-6.77-7.19-5.53-11.97,1.22-4.71,5.6-7.94,10.53-7.77,4.92,.17,8.96,3.84,9.83,8.92,.78,4.57-2,9.35-6.47,11.12q-1.74,.69-1.74-1.2v-.75Z"/><path class="cls-2" d="M4.28,114.95c0-1.95,.03-3.89-.01-5.84-.01-.66,.14-.9,.85-.89,2.2,.05,4.41,.04,6.61,0,.65-.01,.89,.13,.89,.85-.04,3.89,.01,7.78-.03,11.67-.03,2.33-1.88,4.12-4.13,4.13-2.3,0-4.13-1.82-4.17-4.22-.03-1.9,0-3.8,0-5.71Z"/><path class="cls-2" d="M124.91,115.02c0,1.95,.04,3.9-.01,5.85-.05,1.9-1.38,3.46-3.22,3.91-1.67,.41-3.6-.4-4.46-1.91-.17-.31-.61-.74-.18-1.03,1.11-.77,.41-1.5,.05-2.23-1.75-3.56-1.61-3.97,2.21-5.15,1.1-.34,1.74-.79,1.47-2.04-.07-.33-.01-.69-.01-1.04,0-3.32,0-3.29,3.38-3.15,.63,.03,.8,.21,.79,.82-.03,1.99-.01,3.98-.01,5.98h0Z"/><path class="cls-2" d="M72.41,60.76c.1,.45-.17,.59-.53,.73-2.29,.91-4.56,1.83-6.84,2.75-.4,.16-.74,.03-1.12-.12-2.16-.88-4.31-1.77-6.49-2.58-.67-.25-.72-.58-.59-1.17,.47-2.19,.46-2.1,2.69-2.09,3.84,0,7.69,.29,11.53-.18,.35-.04,.69-.11,.8,.39,.17,.76,.36,1.51,.55,2.26Z"/><path class="cls-2" d="M45.88,37.65c0,1.12-.03,2.25,.01,3.37,.03,.64-.25,.7-.77,.61-1.9-.32-3.42-2.18-3.4-4.17,.03-1.94,1.54-3.71,3.39-4.05,.68-.12,.8,.13,.78,.74-.04,1.17-.01,2.33-.01,3.5Z"/><path class="cls-2" d="M83.31,37.48c0-1.17,.02-2.33,0-3.5-.02-.55,.2-.64,.69-.57,1.86,.24,3.47,2.12,3.47,4.1,0,1.99-1.56,3.84-3.44,4.14-.6,.09-.74-.11-.73-.67,.03-1.17,.01-2.33,.01-3.5Z"/><path class="cls-1" d="M67.94,120.42c-.26,1.32-.53,2.49-.72,3.68-.09,.58-.29,.86-.9,.79-.21-.02-.43,0-.65,0-3.77,0-3.75,0-4.29-3.74-.09-.6-.01-.8,.6-.68,.98,.19,1.96,.32,2.95,.25,.94-.07,1.87-.18,3-.29Z"/><path class="cls-3" d="M72.57,82.99c1.49-2,2.77-4.1,3.81-6.35,.3-.65,2.27-1.68,2.92-1.55,.63,.13,1.43,1.81,1.05,2.26-2.15,2.47-4.73,4.36-7.77,5.64Z"/><path class="cls-3" d="M56.47,82.91c-3.02-1.27-5.53-3.17-7.67-5.58-.54-.6,.04-.95,.29-1.33,.28-.42,.39-1.08,1.23-.83,1.26,.37,2.33,.78,2.89,2.21,.77,1.99,2.08,3.72,3.27,5.53Z"/><path class="cls-3" d="M78.48,70.76c.2-1.7,.42-3.4,.6-5.11,.05-.46,.23-.6,.66-.53,.34,.06,.68,.11,1.02,.16,2.58,.36,2.54,.36,2.57,2.92,0,.82-.19,1.25-1.03,1.47-1.21,.31-2.38,.76-3.57,1.14-.07,.02-.16-.03-.26-.05Z"/><path class="cls-3" d="M50.84,70.94c-.98-.32-1.71-.55-2.45-.79-2.74-.91-2.89-1.14-2.52-3.98,.03-.25-.03-.55,.33-.59,1.15-.15,2.31-.31,3.46-.44,.47-.05,.41,.34,.44,.62,.16,1.66,.31,3.33,.73,5.19Z"/><path class="cls-2" d="M73.89,71.42c-1.76-1.4-3.43-2.74-5.21-4.16,2.12-.85,4.11-1.65,6.26-2.51-.04,2.33-.41,4.44-1.05,6.67Z"/><path class="cls-2" d="M55.38,71.36c-.67-1.64-1.13-4.33-1.1-6.59,2.07,.82,4.07,1.62,6.23,2.48-1.78,1.42-3.44,2.76-5.13,4.11Z"/><path class="cls-1" d="M64.63,79.13c.57-.13,.92,.16,1.13,.72,.1,.28,.26,.54,.4,.81,1.06,2.13,1.03,2.09-.74,3.61-.7,.6-1.1,.44-1.71-.07-1.7-1.43-1.76-1.43-.71-3.38,.36-.68,.34-1.82,1.64-1.68Z"/><path class="cls-1" d="M64.62,74.96c-.55,.11-.95-.08-1.17-.68-.15-.4-.38-.77-.57-1.15-.87-1.74-.88-1.75,.62-2.93,.38-.3,.74-.98,1.27-.67,.85,.48,1.85,1.01,2.21,1.89,.26,.64-.49,1.39-.86,2.05-.34,.61-.33,1.64-1.5,1.49Z"/><path class="cls-1" d="M64.57,108.24c-1.12-.01-2.05-.94-2.05-2.06,0-1.17,.99-2.14,2.16-2.09,1.12,.05,2.02,1.01,1.99,2.13-.03,1.12-.98,2.03-2.1,2.02Z"/><path class="cls-2" d="M58.97,79.15c-.62-1.03-1.17-2-1.79-2.94-.34-.52-.23-.85,.24-1.18,1.58-1.13,1.02-1.14,2,.4,.87,1.36,.64,2.46-.45,3.72Z"/><path class="cls-2" d="M70.16,79.14c-1.27-2-1.24-2.8,.11-4.62,.13-.17,.17-.35,.47-.28,1.03,.26,1.58,1.41,1.08,2.31-.28,.49-.58,.96-.88,1.44-.23,.36-.48,.71-.77,1.15Z"/><path class="cls-4" d="M63.19,50.01c-1.3,0-2.6-.04-3.89,.01-.7,.03-.95-.14-.96-.9-.05-3.27-.08-3.27,3.13-3.27,1.69,0,3.38,.02,5.06,0,2.15-.03,3.73-1.22,4.2-3.33,.16-.73,.43-.9,1.09-.83,.47,.05,.95,0,1.43,0q1.95,0,1.52,1.87c-.83,3.66-4.05,6.33-7.8,6.44-1.25,.04-2.51,0-3.77,0h0Z"/><path class="cls-4" d="M66.68,37.66v.91c0,3.46,0,3.45-3.51,3.14-.5-.04-.67-.17-.66-.67,.02-2.33,.02-4.67,0-7,0-.5,.15-.73,.66-.66,.04,0,.09,0,.13,0q3.38-.18,3.38,3.12v1.17Z"/><path class="cls-4" d="M74.99,31.33c-.02,1.12-.97,2.04-2.09,2.03-1.17,0-2.13-1.02-2.06-2.19,.06-1.13,1.03-2.01,2.15-1.97,1.12,.04,2.03,1,2,2.12Z"/><path class="cls-4" d="M58.35,31.26c.02,1.12-.89,2.08-2.01,2.11-1.12,.04-2.09-.86-2.14-1.98-.06-1.18,.9-2.17,2.08-2.17,1.12,0,2.06,.92,2.08,2.04Z"/><path class="cls-4" d="M24.68,104.6c.47,.57,.93,1.09,1.34,1.65,.74,1.01,1.34,1.1,2.26,.06,1.58-1.77,3.36-3.37,5.01-5.09,.54-.57,.85-.59,1.43-.02,2.27,2.24,2.3,2.22,.07,4.45-2.29,2.3-4.61,4.57-6.87,6.9-.59,.61-.93,.64-1.51,0-1.33-1.42-2.7-2.81-4.13-4.13-.7-.64-.64-1.05,.04-1.61,.57-.46,1.05-1.03,1.57-1.55,.18-.17,.38-.32,.79-.67Z"/><path class="cls-4" d="M108.27,110.29c.02,3.45-2.82,6.29-6.27,6.27-3.39-.01-6.19-2.81-6.21-6.2-.02-3.45,2.82-6.28,6.27-6.27,3.4,.01,6.19,2.81,6.21,6.2Zm-4.16,.1c.03-1.11-.86-2.08-1.98-2.13-1.11-.05-2.09,.83-2.16,1.95-.07,1.16,.87,2.18,2.04,2.2,1.11,.02,2.07-.9,2.1-2.01Z"/></g></g></g></svg>