<?xml version="1.0" encoding="UTF-8"?><svg id="Layer_2" xmlns="http://www.w3.org/2000/svg" viewBox="0 0 116.83 116.79"><defs><style>.cls-1{fill:#00ffc6;}.cls-2{fill:#e9f6f6;}.cls-3{fill:#fff;}.cls-4{fill:#add;}.cls-5{fill:#dadde1;}.cls-6{fill:#06ffd5;}.cls-7{fill:#1a2959;}</style></defs><g id="Layer_1-2"><g><path class="cls-7" d="M90.27,75.35c3.31,0,6.4,0,9.49,0,3.69,0,7.38,0,11.07,0,3.59,0,5.98,2.38,5.98,5.97,0,9.85,.01,19.7,0,29.55,0,3.51-2.4,5.92-5.91,5.92-14.87,0-29.74,0-44.62,0-3.59,0-5.96-2.39-5.98-5.97q0-1.56-1.62-1.56-2.06,0-2.15,2.1c-.13,3.09-2.59,5.43-5.81,5.43-8.52,.02-17.03,0-25.55,0-6.32,0-12.64,0-18.95,0-3.9,0-6.2-2.31-6.2-6.22,0-9.69,0-19.38,0-29.08,0-3.82,2.33-6.14,6.17-6.14,6.71,0,13.42,0,20.11,0,.22-.36-.09-.53-.23-.73-5.7-8.3-11.41-16.6-17.1-24.91-.38-.55-.76-.76-1.42-.75-1.13,.02-2.27,.12-3.39-.2C1.84,48.1,.13,46.02,.04,43.61c-.05-1.45-.06-2.91,0-4.35,.12-2.89,2.51-5.24,5.41-5.33,1.61-.05,3.22-.08,4.82,.01,.92,.05,1.09-.25,1.07-1.1-.14-6.02,2.19-10.89,7.02-14.51,.69-.51,1.42-1,2.2-1.34,1-.43,1.32-.67,.43-1.73-3.49-4.21-2.62-10.27,1.8-13.47,3.77-2.73,8.98-2.26,12.24,1.09,3.23,3.34,3.55,8.47,.76,12.16-.33,.43-.68,.84-1.07,1.32,3.78,1.63,6.59,4.24,8.62,7.9,2.04-3.66,4.83-6.28,8.67-7.9-2.22-2.29-3.32-4.93-2.95-8.05,.29-2.43,1.4-4.47,3.27-6.06,3.67-3.11,9.06-2.96,12.55,.35,3.87,3.67,3.9,8.54,.02,13.77,1.8,.8,3.44,1.81,4.89,3.13,1.46,1.33,2.63,2.88,3.66,4.72,.46-.7,.83-1.32,1.25-1.91,1.71-2.42,3.89-4.29,6.57-5.55,.69-.32,.86-.44,.26-1.14-2.59-3.06-3.2-6.52-1.48-10.17C81.76,1.85,84.74-.01,88.71,.03c3.77,.04,6.61,1.87,8.28,5.25,1.67,3.39,1.27,6.68-.92,9.75-.16,.22-.34,.43-.51,.64-.16,.21-.44,.34-.45,.67,5.34,2.48,8.79,6.52,10.07,12.32,.31,1.42,.42,2.88,.33,4.33-.04,.7,.13,.95,.89,.92,1.57-.07,3.14-.04,4.71-.02,3.23,.04,5.66,2.44,5.72,5.64,.02,1.29,.03,2.59,0,3.88-.08,3.07-2.51,5.65-5.58,5.48-2.21-.12-3.38,.69-4.57,2.48-5.13,7.69-10.43,15.27-15.67,22.89-.2,.29-.39,.58-.72,1.07ZM13.13,49.02c.14,.26,.19,.37,.25,.46,5.77,8.4,11.55,16.8,17.3,25.22,.41,.6,.87,.65,1.48,.65,6.04-.01,12.09,0,18.13,0,3.92,0,6.24,2.29,6.24,6.19,0,7.1,0,14.21,0,21.31,0,2.65,0,2.62,2.68,2.66,.86,.01,1.11-.18,1.11-1.08-.04-7.61-.03-15.23-.02-22.84,0-3.93,2.29-6.24,6.19-6.24,6.08,0,12.17,0,18.25,.01,.64,0,1.06-.14,1.45-.71,5.69-8.32,11.4-16.62,17.11-24.92,.14-.2,.44-.38,.25-.7H13.13Zm63.49,50.3c-4.58-4.62-3.54-10.29-.61-13.42,3.36-3.59,8.82-4.04,12.68-1.01,2.01,1.57,3.19,3.65,3.54,6.16,.44,3.24-.74,5.95-3.04,8.26,.43,.23,.74,.38,1.04,.56,4.65,2.75,7.25,6.82,7.68,12.2,.07,.89,.37,.97,1.11,.96,3.81-.03,7.61-.01,11.42-.02,2.01,0,2.6-.58,2.6-2.57,0-9.57,0-19.14,0-28.72,0-2.06-.57-2.61-2.68-2.61-14.55,0-29.11,0-43.66,0-2.08,0-2.63,.56-2.63,2.66,0,9.49,0,18.99,0,28.48,0,2.28,.55,2.77,2.88,2.79,.71,0,.9-.16,.93-.89,.16-3.1,1.23-5.88,3.12-8.34,1.48-1.93,3.37-3.36,5.62-4.49Zm-47.65-.06c.12,.11,.17,.18,.24,.21,5.21,2.74,8.06,7.04,8.45,12.92,.05,.81,.52,.61,.95,.61,3.88,0,7.77,0,11.65,0,1.9,0,2.5-.61,2.5-2.55,0-9.57,0-19.14,0-28.72,0-2.08-.56-2.64-2.65-2.64-14.55,0-29.11,0-43.66,0-2.09,0-2.66,.56-2.66,2.63,0,9.49,0,18.99,0,28.48,0,2.29,.55,2.8,2.85,2.81,.67,0,.91-.1,.96-.87,.3-4.59,2.3-8.33,5.95-11.14,.85-.66,1.81-1.18,2.73-1.77-4.74-4.81-3.35-10.74-.15-13.78,3.65-3.46,9.34-3.47,12.99-.01,3.26,3.09,4.55,9.02-.14,13.78Zm29.32-54.06c17.23,0,34.45,0,51.68,0,.35,0,.71,.01,1.06,0,1.25-.06,1.95-.75,2-2,.03-.9,0-1.8,0-2.71,0-2.32-.51-2.82-2.83-2.82-34.53,0-69.06,0-103.59,0-.27,0-.55-.01-.82,0-1.25,.06-1.95,.74-1.99,2-.03,.9,0,1.8,0,2.71,0,2.32,.5,2.82,2.83,2.82,17.23,0,34.45,0,51.68,0Zm-30.04-11.3h11.06q2.2,0,2.14-2.23c-.23-8.44-8.25-14.5-16.41-12.41-6.1,1.56-9.94,6.76-9.98,13.43,0,.94,.16,1.26,1.19,1.24,4-.07,8-.03,12-.03Zm30.11,0h11.18q2.09,0,2.04-2.09c-.19-8.58-8.2-14.66-16.5-12.53-6.07,1.55-9.9,6.88-9.88,13.62,0,.84,.22,1.03,1.04,1.02,4.04-.04,8.08-.02,12.12-.02Zm30.16,0c4.08,0,8.16,0,12.24,0,.4,0,.94,.26,.99-.57,.47-7.91-5.13-13.92-12.24-14.44-8.13-.6-14.83,6.29-14.17,14.4,.06,.79,.51,.62,.95,.62,4.08,0,8.16,0,12.24,0ZM22.63,113.02c3.41,0,6.82-.03,10.23,.02,.89,.01,1.14-.2,1.04-1.1-.63-5.81-5.49-10.23-11.28-10.22-5.79,0-10.68,4.46-11.26,10.24-.08,.76,.02,1.1,.93,1.08,3.45-.06,6.9-.02,10.35-.02Zm60.17,0c3.49,0,6.98-.03,10.47,.02,.81,.01,.97-.25,.91-.99-.48-5.73-5.4-10.29-11.19-10.33-5.84-.04-10.8,4.45-11.37,10.26-.08,.79,.07,1.08,.95,1.06,3.41-.05,6.82-.02,10.23-.02ZM94.2,9.39c-.01-3.08-2.54-5.61-5.62-5.62-3.13-.01-5.69,2.55-5.68,5.68,.01,3.07,2.55,5.61,5.62,5.62,3.12,.01,5.69-2.55,5.68-5.68Zm-30.14,0c-.01-3.08-2.54-5.61-5.61-5.62-3.13-.02-5.69,2.54-5.68,5.67,.01,3.07,2.54,5.61,5.61,5.63,3.12,.02,5.7-2.55,5.68-5.67Zm-30.14-.03c-.02-3.07-2.56-5.59-5.64-5.6-3.12,0-5.68,2.57-5.66,5.7,.02,3.07,2.57,5.59,5.64,5.6,3.12,0,5.68-2.58,5.66-5.7Zm-11.29,88.58c3.07,0,5.62-2.53,5.64-5.6,.02-3.13-2.53-5.7-5.66-5.7-3.08,0-5.62,2.53-5.64,5.6-.02,3.13,2.53,5.7,5.66,5.7Zm60.24-11.3c-3.07,.01-5.61,2.55-5.62,5.62-.01,3.13,2.55,5.69,5.68,5.68,3.07-.01,5.61-2.55,5.62-5.62,.01-3.13-2.55-5.69-5.68-5.68Z"/><path class="cls-2" d="M13.13,49.02H103.54c.19,.32-.11,.5-.25,.7-5.7,8.31-11.42,16.61-17.11,24.92-.39,.57-.81,.71-1.45,.71-6.08-.02-12.17-.01-18.25-.01-3.89,0-6.19,2.31-6.19,6.24,0,7.61-.02,15.23,.02,22.84,0,.9-.25,1.1-1.11,1.08-2.68-.04-2.68,0-2.68-2.66,0-7.1,0-14.21,0-21.31,0-3.9-2.31-6.19-6.24-6.19-6.04,0-12.09,0-18.13,0-.61,0-1.07-.05-1.48-.65-5.75-8.42-11.53-16.81-17.3-25.22-.06-.09-.11-.2-.25-.46Zm22.72,18.79c3.07-.02,5.6-2.56,5.61-5.63,0-3.13-2.56-5.69-5.69-5.67-3.07,.02-5.6,2.55-5.61,5.63-.01,3.12,2.56,5.69,5.69,5.67Zm20.68-5.68c-.01-3.07-2.55-5.61-5.62-5.62-3.13-.01-5.69,2.55-5.68,5.68,.01,3.07,2.55,5.61,5.62,5.62,3.12,.01,5.69-2.56,5.68-5.68Zm15.07,.03c0-3.08-2.52-5.62-5.59-5.65-3.13-.03-5.71,2.53-5.71,5.65,0,3.07,2.52,5.62,5.59,5.65,3.12,.03,5.71-2.53,5.71-5.65Zm15.07-.03c-.01-3.07-2.55-5.61-5.62-5.62-3.13-.01-5.69,2.55-5.68,5.68,.01,3.07,2.55,5.61,5.62,5.62,3.12,.01,5.69-2.56,5.68-5.68Z"/><path class="cls-3" d="M76.62,99.32c-2.25,1.13-4.14,2.56-5.62,4.49-1.89,2.46-2.96,5.24-3.12,8.34-.04,.73-.22,.9-.93,.89-2.33-.02-2.88-.51-2.88-2.79,0-9.49,0-18.99,0-28.48,0-2.09,.56-2.65,2.63-2.66,14.55,0,29.11,0,43.66,0,2.1,0,2.68,.56,2.68,2.61,0,9.57,0,19.14,0,28.72,0,1.99-.59,2.57-2.6,2.57-3.81,0-7.61-.02-11.42,.02-.74,0-1.04-.08-1.11-.96-.43-5.38-3.04-9.45-7.68-12.2-.3-.18-.62-.33-1.04-.56,2.3-2.32,3.48-5.02,3.04-8.26-.34-2.51-1.53-4.59-3.54-6.16-3.86-3.03-9.32-2.58-12.68,1.01-2.93,3.13-3.97,8.8,.61,13.42Zm32.65,4.34c0-1.65-.03-3.29,.01-4.94,.02-.62-.17-.79-.79-.78-3.25,.03-6.51,.03-9.76,0-.62,0-.79,.17-.78,.78,.03,3.25,.03,6.51,0,9.76,0,.62,.17,.79,.78,.78,3.25-.03,6.51-.03,9.76,0,.62,0,.8-.17,.78-.79-.04-1.61-.01-3.22-.01-4.82Zm-6.6-9.48h3.88c2.75,0,2.73,0,2.74-2.81,0-.75-.17-.98-.96-.97-3.14,.05-6.27,.02-9.41,.02-2.91,0-2.89,0-2.86,2.93,0,.65,.16,.87,.84,.85,1.92-.05,3.84-.02,5.76-.02Z"/><path class="cls-3" d="M28.97,99.26c4.7-4.76,3.4-10.69,.14-13.78-3.65-3.46-9.34-3.45-12.99,.01-3.2,3.03-4.59,8.96,.15,13.78-.92,.59-1.87,1.11-2.73,1.77-3.65,2.81-5.65,6.54-5.95,11.14-.05,.77-.29,.87-.96,.87-2.31,0-2.85-.52-2.85-2.81,0-9.49,0-18.99,0-28.48,0-2.08,.56-2.63,2.66-2.63,14.55,0,29.11,0,43.66,0,2.09,0,2.65,.56,2.65,2.64,0,9.57,0,19.14,0,28.72,0,1.94-.6,2.55-2.5,2.55-3.88,0-7.77,0-11.65,0-.43,0-.89,.19-.95-.61-.39-5.88-3.24-10.18-8.45-12.92-.07-.04-.12-.1-.24-.21Zm20.02,4.46c0-1.69-.02-3.37,.01-5.06,.01-.57-.16-.73-.72-.72-3.29,.03-6.59,.03-9.88,0-.56,0-.73,.16-.72,.72,.03,3.29,.03,6.59,0,9.88,0,.56,.16,.73,.72,.72,3.29-.03,6.59-.03,9.88,0,.56,0,.74-.16,.72-.72-.04-1.61-.01-3.22-.01-4.82Zm-6.57-20.84c-1.29,0-2.59,0-3.88,0-2.76,0-2.73,0-2.75,2.81,0,.74,.15,.99,.95,.98,3.14-.05,6.27-.02,9.41-.02,2.92,0,2.88,0,2.87-2.92,0-.8-.3-.87-.95-.86-1.88,.04-3.76,.01-5.65,.01Zm-.02,11.3h3.76c2.87,0,2.84,0,2.85-2.82,0-.76-.19-.98-.96-.97-3.14,.05-6.27,.02-9.41,.02-2.91,0-2.89,0-2.85,2.94,0,.66,.17,.86,.84,.84,1.92-.04,3.84-.02,5.76-.02Z"/><path class="cls-2" d="M58.3,45.21c-17.23,0-34.45,0-51.68,0-2.32,0-2.83-.5-2.83-2.82,0-.9-.02-1.81,0-2.71,.04-1.25,.74-1.93,1.99-2,.27-.01,.55,0,.82,0,34.53,0,69.06,0,103.59,0,2.32,0,2.83,.51,2.83,2.82,0,.9,.02,1.81,0,2.71-.05,1.25-.75,1.93-2,2-.35,.02-.71,0-1.06,0-17.23,0-34.45,0-51.68,0Z"/><path class="cls-6" d="M28.26,33.91c-4,0-8-.04-12,.03-1.03,.02-1.19-.31-1.19-1.24,.03-6.66,3.87-11.86,9.98-13.43,8.16-2.09,16.17,3.97,16.41,12.41q.06,2.23-2.14,2.23c-3.69,0-7.37,0-11.06,0Z"/><path class="cls-4" d="M58.37,33.91c-4.04,0-8.08-.02-12.12,.02-.81,0-1.04-.18-1.04-1.02-.02-6.74,3.82-12.07,9.88-13.62,8.3-2.13,16.31,3.96,16.5,12.53q.05,2.09-2.04,2.09c-3.73,0-7.45,0-11.18,0Z"/><path class="cls-6" d="M88.53,33.91c-4.08,0-8.16,0-12.24,0-.43,0-.88,.17-.95-.62-.66-8.11,6.04-14.99,14.17-14.4,7.11,.52,12.7,6.53,12.24,14.44-.05,.83-.59,.57-.99,.57-4.08,.01-8.16,0-12.24,0Z"/><path class="cls-6" d="M22.63,113.02c-3.45,0-6.9-.04-10.35,.02-.91,.02-1.01-.32-.93-1.08,.59-5.78,5.48-10.24,11.26-10.24,5.8,0,10.65,4.42,11.28,10.22,.1,.9-.15,1.11-1.04,1.1-3.41-.06-6.82-.02-10.23-.02Z"/><path class="cls-4" d="M82.81,113.02c-3.41,0-6.82-.03-10.23,.02-.88,.01-1.02-.27-.95-1.06,.57-5.81,5.53-10.3,11.37-10.26,5.79,.04,10.71,4.6,11.19,10.33,.06,.74-.1,1-.91,.99-3.49-.05-6.98-.02-10.47-.02Z"/><path class="cls-3" d="M94.2,9.39c.01,3.12-2.56,5.69-5.68,5.68-3.07-.01-5.61-2.55-5.62-5.62-.01-3.13,2.55-5.69,5.68-5.68,3.08,.01,5.6,2.54,5.62,5.62Z"/><path class="cls-3" d="M64.07,9.39c.01,3.12-2.56,5.69-5.68,5.67-3.07-.02-5.6-2.55-5.61-5.63-.01-3.13,2.56-5.69,5.68-5.67,3.08,.02,5.6,2.55,5.61,5.62Z"/><path class="cls-3" d="M33.93,9.36c.02,3.13-2.53,5.71-5.66,5.7-3.07,0-5.62-2.53-5.64-5.6-.02-3.13,2.53-5.7,5.66-5.7,3.08,0,5.62,2.52,5.64,5.6Z"/><path class="cls-3" d="M22.64,97.95c-3.12,0-5.68-2.57-5.66-5.7,.02-3.07,2.56-5.59,5.64-5.6,3.13,0,5.68,2.57,5.66,5.7-.02,3.07-2.57,5.6-5.64,5.6Z"/><path class="cls-3" d="M82.87,86.65c3.13-.01,5.69,2.55,5.68,5.68-.01,3.07-2.54,5.61-5.62,5.62-3.12,.01-5.69-2.55-5.68-5.68,.01-3.07,2.54-5.61,5.62-5.62Z"/><path class="cls-7" d="M35.85,67.81c-3.12,.02-5.7-2.55-5.69-5.67,0-3.07,2.54-5.61,5.61-5.63,3.13-.02,5.7,2.55,5.69,5.67,0,3.07-2.54,5.61-5.61,5.63Zm-.04-7.53c-1.02,0-1.86,.84-1.88,1.86-.01,1.02,.81,1.88,1.83,1.91,1.06,.03,1.96-.85,1.94-1.92-.02-1.02-.87-1.85-1.89-1.85Z"/><path class="cls-7" d="M56.53,62.13c.01,3.12-2.56,5.7-5.68,5.68-3.07-.01-5.61-2.55-5.62-5.62-.01-3.13,2.55-5.69,5.68-5.68,3.08,.01,5.61,2.54,5.62,5.62Zm-3.77,.07c.02-1.02-.8-1.88-1.81-1.92-1.01-.04-1.89,.77-1.95,1.78-.06,1.06,.81,1.97,1.87,1.98,1.01,0,1.87-.83,1.89-1.84Z"/><path class="cls-7" d="M71.6,62.16c0,3.12-2.58,5.68-5.71,5.65-3.07-.03-5.59-2.57-5.59-5.65,0-3.12,2.58-5.68,5.71-5.65,3.07,.03,5.59,2.57,5.59,5.65Zm-5.63-1.88c-1.02-.01-1.87,.81-1.9,1.83-.03,1.02,.78,1.89,1.8,1.93,1.06,.05,1.97-.83,1.96-1.89,0-1.02-.84-1.86-1.86-1.87Z"/><path class="cls-7" d="M86.67,62.13c.01,3.12-2.56,5.7-5.68,5.68-3.07-.01-5.61-2.55-5.62-5.62-.01-3.13,2.55-5.69,5.68-5.68,3.08,.01,5.61,2.54,5.62,5.62Zm-7.53-.06c-.05,1.01,.75,1.9,1.76,1.97,1.05,.07,1.98-.79,2-1.85,.02-1.02-.8-1.88-1.82-1.91-1.01-.03-1.89,.77-1.94,1.79Z"/><path class="cls-7" d="M109.28,103.66c0,1.61-.03,3.22,.01,4.82,.02,.61-.16,.79-.78,.79-3.25-.03-6.51-.03-9.76,0-.61,0-.79-.16-.78-.78,.03-3.25,.03-6.51,0-9.76,0-.61,.16-.79,.78-.78,3.25,.03,6.51,.03,9.76,0,.61,0,.8,.16,.79,.78-.04,1.65-.01,3.29-.01,4.94Zm-7.53-.14q0,1.97,1.91,1.97t1.85-1.8q0-1.97-1.91-1.97-1.85,0-1.85,1.8Z"/><path class="cls-7" d="M102.67,94.18c-1.92,0-3.84-.03-5.76,.02-.68,.02-.83-.2-.84-.85-.03-2.93-.06-2.93,2.86-2.93,3.14,0,6.27,.03,9.41-.02,.78-.01,.96,.22,.96,.97-.01,2.81,.01,2.81-2.74,2.81-1.29,0-2.59,0-3.88,0Z"/><path class="cls-7" d="M49,103.72c0,1.61-.02,3.22,.01,4.82,.01,.57-.16,.73-.72,.72-3.29-.03-6.59-.03-9.88,0-.57,0-.73-.16-.72-.72,.03-3.29,.03-6.59,0-9.88,0-.57,.16-.73,.72-.72,3.29,.03,6.59,.03,9.88,0,.57,0,.73,.16,.72,.72-.03,1.69-.01,3.37-.01,5.06Zm-3.77-.02q0-1.98-1.91-1.98t-1.86,1.91,1.91,1.86,1.86-1.79Z"/><path class="cls-7" d="M42.42,82.88c1.88,0,3.76,.02,5.65-.01,.65-.01,.95,.06,.95,.86,0,2.92,.04,2.92-2.87,2.92-3.14,0-6.27-.03-9.41,.02-.8,.01-.95-.24-.95-.98,.01-2.81-.01-2.81,2.75-2.81,1.29,0,2.59,0,3.88,0Z"/><path class="cls-7" d="M42.4,94.18c-1.92,0-3.84-.03-5.76,.02-.67,.02-.84-.18-.84-.84-.04-2.94-.06-2.94,2.85-2.94,3.14,0,6.27,.03,9.41-.02,.77-.01,.97,.2,.96,.97-.02,2.82,.01,2.82-2.85,2.82-1.25,0-2.51,0-3.76,0Z"/><path class="cls-5" d="M35.81,60.28c1.02,0,1.87,.83,1.89,1.85,.02,1.06-.88,1.95-1.94,1.92-1.02-.03-1.84-.89-1.83-1.91,.01-1.02,.86-1.85,1.88-1.86Z"/><path class="cls-5" d="M52.76,62.2c-.02,1.02-.88,1.85-1.89,1.84-1.06,0-1.93-.92-1.87-1.98,.05-1.02,.93-1.82,1.95-1.78,1.02,.04,1.83,.91,1.81,1.92Z"/><path class="cls-5" d="M65.97,60.28c1.02,.01,1.86,.86,1.86,1.87,0,1.06-.9,1.94-1.96,1.89-1.02-.04-1.83-.91-1.8-1.93,.03-1.02,.88-1.84,1.9-1.83Z"/><path class="cls-5" d="M79.14,62.07c.05-1.02,.93-1.82,1.94-1.79,1.02,.03,1.84,.9,1.82,1.91-.02,1.06-.95,1.92-2,1.85-1.01-.07-1.81-.96-1.76-1.97Z"/><path class="cls-1" d="M101.74,103.52q0-1.8,1.85-1.8t1.91,1.97q0,1.8-1.85,1.8-1.91,0-1.91-1.97Z"/><path class="cls-2" d="M45.23,103.7q0,1.79-1.86,1.79t-1.91-1.86,1.86-1.91,1.91,1.98Z"/></g></g></svg>