<?xml version="1.0" encoding="UTF-8"?><svg id="Layer_2" xmlns="http://www.w3.org/2000/svg" viewBox="0 0 200 200"><defs><style>.cls-1{fill:#e9f6f6;}.cls-2{fill:#fff;}.cls-3{fill:#d2eded;}.cls-4{fill:#06ffd5;}.cls-5{fill:#1a2959;}</style></defs><g id="Layer_1-2"><circle class="cls-1" cx="100" cy="100" r="100"/><g><path class="cls-5" d="M147.1,102.02c0,6.32,.01,12.58-.02,18.83,0,.71,.31,.74,.86,.74,3.08-.02,6.16-.02,9.24,0,3.96,.02,6.56,2.65,6.58,6.64,0,1.17,0,2.35,0,3.52,.02,2.03-.7,3.75-2.27,5.04-.5,.41-.46,.71-.31,1.28,.78,2.9,.76,5.82,.02,8.73-.14,.53-.28,.86,.26,1.29,1.62,1.31,2.33,3.07,2.29,5.16-.02,1.3,.02,2.61-.01,3.91-.08,3.41-2.75,6.13-6.15,6.15-8.37,.04-16.75,.04-25.12,0-3.47-.01-6.21-2.74-6.19-6.22,.01-2.32-.46-4.71,.62-6.94,.2-.42-.13-.53-.35-.71-1.78-1.46-2.48-3.38-2.39-5.65,.04-1.09,.01-2.17,0-3.26,0-1.98,.71-3.65,2.24-4.92,.47-.39,.53-.66,.35-1.27-.83-2.8-.81-5.69-.13-8.48,.62-2.57,3.16-4.24,5.9-4.27,3.12-.03,6.25-.04,9.37,.02,.88,.02,1.05-.26,1.05-1.08-.04-5.35-.03-10.69,0-16.04,0-.64-.13-1.15-.54-1.66-1.13-1.43-2.23-2.88-3.27-4.38-.5-.72-.81-.92-1.68-.36-6.71,4.32-14.91,3.22-19.9-2.59-1.03-1.2-1.84-2.52-2.41-3.99-1.09-2.83-2.15-5.67-3.19-8.52-.67-1.85,.21-3.14,2.15-3.14,5.21-.02,10.41-.08,15.62,.02,3.9,.07,6.86,1.93,8.8,5.32,1.15,2.02,1.94,4.21,2.05,6.52,.09,1.89,1.12,3.15,2.36,4.7,0-4.56,0-8.84,.01-13.13,0-.46-.25-.7-.53-.97-1.35-1.35-2.73-2.68-4.04-4.07-.44-.46-.93-.56-1.49-.65-8.03-1.23-13.35-6.72-14.3-14.74-.13-1.08-.29-2.15-.44-3.23-.14-.97,.04-1.83,.91-2.41,.82-.54,1.63-.4,2.44,.08,2.43,1.42,4.91,2.75,7.31,4.22,4.49,2.74,7.15,6.75,7.8,11.99,.19,1.51,1.3,2.15,2.13,3.13,.38-.33,.19-.74,.19-1.09,.02-3.39-.02-6.78,.03-10.17,.01-.88-.25-1.44-.96-1.93-1-.69-2-1.41-2.85-2.27-4.12-4.18-5.53-9.15-3.9-14.82,.93-3.24,1.51-6.49,1.45-9.87-.04-2.26,1.49-3.17,3.44-2.08,3.29,1.84,6.57,3.68,9.81,5.61,4.75,2.83,6.57,8.24,4.85,14.25-1.14,3.99-3.44,7.17-6.86,9.51-.52,.36-.87,.67-.86,1.41,.05,4.74,.02,9.48,.13,14.28,.81-1.13,1.95-1.96,2.14-3.55,.68-5.73,3.61-10.03,8.57-12.94,.93-.55,1.84-1.15,2.8-1.64,1.36-.68,2.96,.1,2.99,1.58,.06,3.12,.37,6.28-.15,9.37-.75,4.47-4.45,7.58-8.96,7.51-1.71-.03-2.85,.41-3.67,1.91-.43,.79-1.07,1.47-1.62,2.2q-2.37,3.17-2.17,7.23c.43,.07,.55-.33,.77-.55,3.67-3.72,8.13-5.83,13.28-6.53,1.78-.24,2.9,1.07,2.42,2.83-.74,2.72-1.49,5.43-2.31,8.13-1.84,6.07-7.57,9.06-13.63,7.15-.16-.05-.32-.08-.57-.15Zm7.54-29.25c-.27-.04-.27,.16-.31,.33-.36,.46-.4,1.04-.59,1.55-.32,.85,.04,1.02,.84,1.02,2.63-.03,4.88-2.13,5.01-4.79,.04-.82,.04-1.64,0-2.46-.02-.44,.29-1.09-.22-1.28-.39-.14-.82,.36-1.19,.67-.06,.05-.1,.14-.15,.21-.09,.11-.18,.22-.27,.33v-.04c-1.51,1.16-2.7,2.55-3.15,4.46h.04Zm-4.68,21.92c-.12,.09-.24,.18-.36,.27-.58,.48-.85,1.18-1.3,1.76-.62,.81-.28,1.14,.54,1.46,3.38,1.33,7.15-.42,8.36-3.96,.38-1.1,.68-2.23,.95-3.36,.14-.6,.79-1.39,.23-1.77-.48-.32-1.29,.19-1.86,.59-2.64,1.07-4.92,2.63-6.6,4.99l.05,.02Zm-13.78-22.16c-.91-3.85-3.33-6.43-6.81-8.13-.76-.56-1.58-1.03-2.48-1.4,.12,4.41,4.6,9.53,8.89,10.21,.78,.12,.72-.19,.39-.68Zm21.29,72c.01-1.34,.07-2.69,.03-4.03-.05-1.68-.96-2.25-3.23-2.23-1.76,.01-.6,1.32-.92,1.97-.02,.03,0,.09,0,.13q0,2.09-2.09,2.09t-2.07-2.11-1.99-2.07q-2.18,0-2.18,2.13,0,2.04-2.01,2.04-2.16,0-2.16-2.16,0-2.02-2.04-2.02-2.13,0-2.13,2.18,0,1.99-1.93,1.99-2.24,0-2.24-2.21,0-2.04-2.08-1.92c-1.44,.23-2.04,.82-2.08,2.15-.04,1.3-.04,2.6,0,3.9,.04,1.44,.83,2.24,2.29,2.24,8.18,.02,16.36,.02,24.54,0,1.44,0,2.04-.59,2.28-2.09Zm2.08-12.52c.01-1.34,.07-2.69,.03-4.03-.05-1.68-.96-2.25-3.23-2.23-1.76,.01-.6,1.32-.92,1.97-.02,.03,0,.09,0,.13q0,2.09-2.09,2.09-2.07,0-2.07-2.11,0-2.07-1.99-2.07-2.18,0-2.18,2.13,0,2.04-2.01,2.04-2.16,0-2.16-2.16,0-2.02-2.04-2.02-2.13,0-2.13,2.18,0,1.99-1.93,1.99-2.24,0-2.24-2.21,0-2.04-2.08-1.92c-1.44,.23-2.04,.82-2.08,2.15-.04,1.3-.04,2.6,0,3.9,.04,1.44,.83,2.24,2.29,2.24,8.18,.02,16.36,.02,24.54,0,1.44,0,2.04-.59,2.28-2.09Zm-27.03,18.84c-1.44,.23-2.04,.82-2.08,2.15-.04,1.3-.04,2.6,0,3.9,.04,1.44,.83,2.24,2.29,2.24,8.18,.02,16.36,.02,24.54,0,1.44,0,2.04-.6,2.28-2.09,.01-1.34,.07-2.69,.03-4.03-.05-1.68-.96-2.25-3.23-2.23-1.76,.01-.6,1.32-.92,1.97-.02,.03,0,.09,0,.13q0,2.09-2.09,2.09-2.07,0-2.07-2.11,0-2.07-1.99-2.07-2.18,0-2.18,2.13,0,2.04-2.01,2.04-2.16,0-2.16-2.16,0-2.02-2.04-2.02-2.13,0-2.13,2.18,0,1.99-1.93,1.99-2.24,0-2.24-2.21,0-2.04-2.08-1.92Zm-14.31-66.79c-.42-.03-.85-.13-1.35,.14,.62,1.65,1.29,3.29,1.84,4.97,2.36,7.13,10.72,9.7,17.22,4.95,.32-.24,.83-.39,.67-.98-.14-1.97-.65-3.85-1.55-5.6-1.1-2.13-2.87-3.42-5.27-3.48-3.85-.09-7.71,0-11.57,0Zm22.15-40.72c-.34,1.25-.66,2.51-1.03,3.75-1.53,5.22,.23,9.85,4.87,12.76,.59,.83,1.19,.76,1.94,.14,2.52-2.04,4.19-4.59,4.85-7.79,.65-3.17,.23-6.1-2.52-8.07-2.35-1.68-4.96-2.98-7.54-4.5-.41,1.31-.39,2.52-.58,3.7Z"/><path class="cls-5" d="M97.11,114.52c0-3.06,0-5.88,0-8.7,0-.47-.21-.83-.4-1.22-.84-1.71-1.73-3.4-2.53-5.13-2.67-5.74-.97-12.34,4.17-15.99,2.55-1.81,5.17-3.5,7.78-5.21,1.59-1.04,3.08-.45,3.46,1.36,.67,3.27,1.38,6.54,1.89,9.84,.7,4.49-.4,8.62-2.93,12.37-1.36,2.02-3.29,3.37-5.62,3.96-1.41,.36-1.8,1.03-1.7,2.43,.14,1.84,.03,3.7,.03,5.64,.5-.22,.47-.61,.57-.91,2.11-6.02,7.7-10.06,14.05-10.16,1.91-.03,3.82-.02,5.73,0,2.24,.02,3.1,1.43,2.1,3.47-1.1,2.26-2.2,4.52-3.37,6.74-3.1,5.89-9.8,8.16-15.75,5.19-1.25-.62-2.01-.09-2.96,.33-.46,.21-.37,.63-.37,1.01,0,4.57,.02,9.13-.02,13.7,0,.82,.32,.88,.99,.88,3.04-.03,6.08-.02,9.11-.01,3.96,.02,6.56,2.65,6.58,6.64,0,1.22,.01,2.44,0,3.65-.03,2.69-1.27,4.66-3.67,5.81-.68,.33-.82,.58-.69,1.33,.39,2.19,.38,4.44,.06,6.62-.45,3.05-3.04,5.14-6.13,5.15-8.33,.03-16.66,.03-25,0-3.48-.01-6.16-2.73-6.23-6.2-.03-1.35-.02-2.7,0-4.04,.02-2.74,1.27-4.74,3.75-5.89,.66-.31,.73-.59,.61-1.26-.39-2.19-.37-4.44-.07-6.62,.41-3.04,3.02-5.16,6.09-5.19,3.12-.04,6.25-.03,9.37,0,.79,.01,1.11-.11,1.1-1.03-.05-4.39-.04-8.78,0-13.17,0-.72-.14-1.13-.91-1.27-.59-.11-1.16-.34-1.72-.57-.4-.17-.71-.23-1.04,.14-3.39,3.77-7.56,3.96-12.05,2.61-2.41-.72-4.52-1.99-6.31-3.75-2.11-2.07-4.18-4.18-6.27-6.26-.66-.65-1.08-1.39-.79-2.33,.3-.97,1.05-1.39,2.04-1.57,3.32-.61,6.62-1.37,9.95-1.89,6.1-.96,11.7,2.11,14.18,7.77,.59,1.34,1.81,1.09,2.91,1.72Zm21.07-7.5c-.95,0-1.92-.12-2.86-.01-4.24,.46-7.4,2.5-9.14,6.51-.59,.81,.14,.95,.62,1.16,3.43,1.52,7.56,.26,9.52-2.98,.8-1.33,1.43-2.76,2.13-4.15,.14-.27,.33-.61-.26-.53Zm-27.77,7.5c-1.43-3.44-4.11-5.16-7.73-5.44-2.54-.19-4.97,.6-7.43,1.07-.56,.04-1.08,.09-.39,.77,.92,.92,1.85,1.82,2.75,2.76,2,2.08,4.44,3.27,7.27,3.65,1.97,.26,3.8-.09,5.23-1.61,.32-.33,.76-.66,.3-1.2Zm15.79-30.25c.09-.84-.23-.9-.86-.47-1.6,1.1-3.29,2.09-4.81,3.29-2.74,2.16-3.84,5.03-3.22,8.5,.4,2.26,1.71,4.13,2.7,6.15,.15,.66,.55,.45,1,.34,2.33-.59,3.95-1.96,5.06-4.12,2.36-4.57,1.32-9.11,.14-13.68Zm-19.5,54.05c-1.44,.23-2.04,.82-2.08,2.15-.04,1.3-.04,2.6,0,3.9,.04,1.44,.83,2.24,2.29,2.24,8.18,.02,16.36,.02,24.54,0,1.44,0,2.04-.6,2.28-2.09,.01-1.34,.07-2.69,.03-4.03-.05-1.68-.96-2.25-3.23-2.23-1.76,.01-.6,1.32-.92,1.97-.02,.03,0,.09,0,.13q0,2.09-2.09,2.09t-2.07-2.11-1.99-2.07q-2.18,0-2.18,2.13,0,2.04-2.01,2.04-2.16,0-2.16-2.16,0-2.02-2.04-2.02-2.13,0-2.13,2.18,0,1.99-1.93,1.99-2.24,0-2.24-2.21,0-2.04-2.08-1.92Zm22.86,18.73c.01-1.34,.07-2.69,.03-4.03-.05-1.68-.96-2.25-3.23-2.23-1.76,.01-.6,1.32-.92,1.97-.02,.03,0,.09,0,.13q0,2.09-2.09,2.09-2.07,0-2.07-2.11,0-2.07-1.99-2.07-2.18,0-2.18,2.13,0,2.04-2.01,2.04-2.16,0-2.16-2.16,0-2.02-2.04-2.02-2.13,0-2.13,2.18,0,1.99-1.93,1.99-2.24,0-2.24-2.21,0-2.04-2.08-1.92c-1.44,.23-2.04,.82-2.08,2.15-.04,1.3-.04,2.6,0,3.9,.04,1.44,.83,2.24,2.29,2.24,8.18,.02,16.36,.02,24.54,0,1.44,0,2.04-.6,2.28-2.09Z"/><path class="cls-5" d="M55.45,133.27c0,4.28,.02,8.41-.02,12.53,0,.73,.26,.84,.89,.84,3.04-.03,6.07-.02,9.11-.01,4.06,.01,6.66,2.62,6.68,6.67,0,1.3,.03,2.61,0,3.91-.09,3.34-2.73,6.07-6.06,6.09-8.46,.05-16.91,.05-25.37,0-3.32-.02-5.96-2.77-6.04-6.11-.04-1.48-.04-2.96,0-4.43,.08-3.4,2.76-6.07,6.17-6.12,3.17-.04,6.33-.04,9.5,0,.8,.01,1.01-.18,1-1-.05-4.21-.04-8.43,0-12.65,0-.79-.17-1.03-.99-1.01-1.94,.05-3.89,.13-5.8-.47-4.57-1.43-7.73-5.6-7.8-10.41-.03-1.78-.02-3.56,0-5.34,.01-1.83,.79-2.63,2.66-2.52,6.41,.37,11.28,3.29,14.41,8.97,.15,.26,.28,.54,.46,.91,.4-.43,.76-.83,1.14-1.21,2.94-2.91,6.46-4.45,10.6-4.51,1.86-.03,3.73-.01,5.59,0,2.33,.01,3.17,1.41,2.13,3.53-1.07,2.18-2.13,4.36-3.24,6.52-2.81,5.47-8.5,7.84-14.37,6.02-.16-.05-.32-.1-.65-.21Zm.73-5.14c-.59,.81,.14,.95,.62,1.16,3.43,1.52,7.56,.26,9.52-2.98,.8-1.33,1.43-2.76,2.13-4.15,.14-.27,.33-.61-.26-.53-.95-.01-1.92-.12-2.86-.01-4.23,.47-7.41,2.49-9.14,6.51Zm-14.52-10.35c-.53-.23-.82-.11-.8,.53,.03,1.13-.08,2.26,.06,3.38,.29,2.38,1.49,4.21,3.62,5.37,1.97,1.07,4.11,.8,6.22,.76,.27,0,.31-.24,.27-.48-.45-4.43-4.41-8.47-9.38-9.56Zm26.23,39.29c.01-1.34,.07-2.69,.03-4.03-.05-1.68-.96-2.25-3.23-2.23-1.76,.01-.6,1.32-.92,1.97-.02,.03,0,.09,0,.13q0,2.09-2.09,2.09t-2.07-2.11-1.99-2.07q-2.18,0-2.18,2.13,0,2.04-2.01,2.04-2.16,0-2.16-2.16,0-2.02-2.04-2.02-2.13,0-2.13,2.18,0,1.99-1.93,1.99-2.24,0-2.24-2.21,0-2.04-2.08-1.92c-1.44,.23-2.04,.82-2.08,2.15-.04,1.3-.04,2.6,0,3.9,.04,1.44,.83,2.24,2.29,2.24,8.18,.02,16.36,.02,24.54,0,1.44,0,2.04-.6,2.28-2.09Z"/><path class="cls-4" d="M140.37,43.34c.19-1.18,.17-2.4,.58-3.7,2.58,1.52,5.2,2.82,7.54,4.5,2.75,1.97,3.17,4.9,2.52,8.07-.66,3.2-2.33,5.75-4.85,7.79-.76,.61-1.35,.68-1.94-.14-.34-1.55-.66-3.1-1.02-4.65-.93-3.96-1.88-7.91-2.82-11.86Z"/><path class="cls-4" d="M136.6,93.13c.16,.59-.35,.74-.67,.98-6.5,4.76-14.86,2.18-17.22-4.95-.56-1.68-1.23-3.32-1.84-4.97,.5-.27,.93-.17,1.35-.14,.1,.08,.19,.19,.3,.24,5.7,2.86,11.4,5.72,17.1,8.57,.31,.16,.62,.31,.99,.26Z"/><path class="cls-3" d="M132.52,150.85q2.08-.11,2.08,1.92,0,2.21,2.24,2.21,1.93,0,1.93-1.99,0-2.18,2.13-2.18t2.04,2.02,2.16,2.16q2.01,0,2.01-2.04,0-2.13,2.18-2.13,1.99,0,1.99,2.07,0,2.11,2.07,2.11,2.09,0,2.09-2.09s-.02-.09,0-.13c.33-.64-.83-1.95,.92-1.97,2.26-.02,3.18,.56,3.23,2.23,.04,1.34-.02,2.69-.03,4.03-7.59,0-15.17,.01-22.76,0-2.27,0-4.08-1.59-4.25-3.74-.07-.82-.01-1.65-.01-2.47Z"/><path class="cls-3" d="M132.52,125.8q2.08-.11,2.08,1.92,0,2.21,2.24,2.21,1.93,0,1.93-1.99,0-2.18,2.13-2.18t2.04,2.02,2.16,2.16q2.01,0,2.01-2.04,0-2.13,2.18-2.13,1.99,0,1.99,2.07,0,2.11,2.07,2.11,2.09,0,2.09-2.09s-.02-.09,0-.13c.33-.64-.83-1.95,.92-1.97,2.26-.02,3.18,.56,3.23,2.23,.04,1.34-.02,2.69-.03,4.03-7.59,0-15.17,.01-22.76,0-2.27,0-4.08-1.59-4.25-3.74-.07-.82-.01-1.65-.01-2.47Z"/><path class="cls-3" d="M130.44,138.32q2.08-.11,2.08,1.92,0,2.21,2.24,2.21,1.93,0,1.93-1.99,0-2.18,2.13-2.18t2.04,2.02,2.16,2.16q2.01,0,2.01-2.04,0-2.13,2.18-2.13,1.99,0,1.99,2.07,0,2.11,2.07,2.11,2.09,0,2.09-2.09s-.02-.09,0-.13c.33-.64-.83-1.95,.92-1.97,2.26-.02,3.18,.56,3.23,2.23,.04,1.34-.02,2.69-.03,4.03-7.59,0-15.17,.01-22.76,0-2.27,0-4.08-1.59-4.25-3.74-.07-.82-.01-1.65-.01-2.47Z"/><path class="cls-4" d="M132.52,125.8c0,.83-.06,1.66,.01,2.47,.18,2.15,1.98,3.73,4.25,3.74,7.59,0,15.17,0,22.76,0-.24,1.49-.84,2.08-2.28,2.09-8.18,.01-16.36,.02-24.54,0-1.46,0-2.25-.8-2.29-2.24-.03-1.3-.04-2.6,0-3.9,.04-1.33,.64-1.92,2.08-2.15Z"/><path class="cls-4" d="M130.44,138.32c0,.83-.06,1.66,.01,2.47,.18,2.15,1.98,3.73,4.25,3.74,7.59,0,15.17,0,22.76,0-.24,1.49-.84,2.08-2.28,2.09-8.18,.01-16.36,.02-24.54,0-1.46,0-2.25-.8-2.29-2.24-.03-1.3-.04-2.6,0-3.9,.04-1.33,.64-1.92,2.08-2.15Z"/><path class="cls-4" d="M132.52,150.85c0,.83-.06,1.66,.01,2.47,.18,2.15,1.98,3.73,4.25,3.74,7.59,0,15.17,0,22.76,0-.24,1.49-.84,2.08-2.28,2.09-8.18,.01-16.36,.02-24.54,0-1.46,0-2.25-.8-2.29-2.24-.03-1.3-.04-2.6,0-3.9,.04-1.33,.64-1.92,2.08-2.15Z"/><path class="cls-2" d="M136.6,93.13c-.36,.05-.67-.1-.99-.26-5.7-2.86-11.4-5.71-17.1-8.57-.11-.06-.2-.16-.3-.24,3.86,0,7.72-.09,11.57,0,2.4,.06,4.17,1.34,5.27,3.48,.9,1.75,1.4,3.63,1.55,5.6Z"/><path class="cls-4" d="M156.51,89.68c.57-.41,1.38-.92,1.86-.59,.56,.38-.09,1.17-.23,1.77-.27,1.13-.57,2.26-.95,3.36-1.21,3.54-4.98,5.29-8.36,3.96-.81-.32-1.16-.65-.54-1.46,.44-.58,.72-1.28,1.3-1.76,.12-.09,.24-.18,.36-.27,0,0-.05-.02-.04-.02,1.51-.42,2.52-1.61,3.71-2.5,1.01-.75,2.27-1.27,2.88-2.49Z"/><path class="cls-2" d="M140.37,43.34c.94,3.95,1.89,7.91,2.82,11.86,.36,1.54,.68,3.1,1.02,4.65-4.64-2.91-6.41-7.54-4.87-12.76,.37-1.24,.69-2.5,1.03-3.75Z"/><path class="cls-4" d="M136.18,72.53c.33,.49,.39,.81-.39,.68-4.29-.68-8.77-5.8-8.89-10.21,.9,.37,1.71,.84,2.48,1.4-.01,1.29,1.17,1.76,1.83,2.55,1.59,1.92,3.11,3.91,4.98,5.57Z"/><path class="cls-4" d="M158.02,68.02c.05-.07,.09-.15,.15-.21,.36-.3,.79-.81,1.19-.67,.52,.18,.2,.83,.22,1.28,.05,.82,.04,1.64,0,2.46-.13,2.66-2.38,4.77-5.01,4.79-.8,0-1.16-.16-.84-1.02,.2-.52,.23-1.1,.59-1.55,.1-.11,.21-.22,.31-.33,0,0-.04,0-.04,0,1.36-1.26,2.41-2.75,3.14-4.46,0,0,0,.04,0,.04,.09-.11,.18-.22,.27-.33Z"/><path class="cls-2" d="M136.18,72.53c-1.87-1.67-3.39-3.66-4.98-5.57-.66-.8-1.84-1.27-1.83-2.55,3.47,1.7,5.9,4.27,6.81,8.13Z"/><path class="cls-2" d="M156.51,89.68c-.62,1.23-1.87,1.74-2.88,2.49-1.19,.89-2.2,2.08-3.71,2.5,1.67-2.36,3.95-3.92,6.59-4.99Z"/><path class="cls-2" d="M157.75,68.32c-.74,1.71-1.78,3.2-3.14,4.46,.45-1.91,1.64-3.29,3.14-4.46Z"/><path class="cls-1" d="M154.64,72.78c-.1,.11-.21,.22-.31,.33,.04-.17,.04-.37,.31-.33Z"/><path class="cls-1" d="M149.96,94.69c-.12,.09-.24,.18-.36,.27,.12-.09,.24-.18,.36-.27Z"/><path class="cls-1" d="M158.02,68.02c-.09,.11-.18,.22-.27,.33,.09-.11,.18-.22,.27-.33Z"/><path class="cls-3" d="M82.53,150.85q2.08-.11,2.08,1.92,0,2.21,2.24,2.21,1.93,0,1.93-1.99,0-2.18,2.13-2.18t2.04,2.02,2.16,2.16q2.01,0,2.01-2.04,0-2.13,2.18-2.13,1.99,0,1.99,2.07,0,2.11,2.07,2.11,2.09,0,2.09-2.09s-.02-.09,0-.13c.33-.64-.84-1.95,.92-1.97,2.26-.02,3.18,.56,3.23,2.23,.04,1.34-.02,2.69-.03,4.03-7.59,0-15.17,.01-22.76,0-2.27,0-4.08-1.59-4.25-3.74-.07-.82-.01-1.65-.01-2.47Z"/><path class="cls-3" d="M86.7,138.32q2.08-.11,2.08,1.92,0,2.21,2.24,2.21,1.93,0,1.93-1.99,0-2.18,2.13-2.18t2.04,2.02,2.16,2.16q2.01,0,2.01-2.04,0-2.13,2.18-2.13,1.99,0,1.99,2.07,0,2.11,2.07,2.11,2.09,0,2.09-2.09s-.02-.09,0-.13c.33-.64-.84-1.95,.92-1.97,2.26-.02,3.18,.56,3.23,2.23,.04,1.34-.02,2.69-.03,4.03-7.59,0-15.17,.01-22.76,0-2.27,0-4.08-1.59-4.25-3.74-.07-.82-.01-1.65-.01-2.47Z"/><path class="cls-2" d="M100,101.74c-.98-2.01-2.29-3.88-2.7-6.15-.62-3.47,.48-6.34,3.22-8.5,1.52-1.2,3.21-2.19,4.81-3.29,.63-.43,.95-.37,.86,.47-.17,.39-.36,.77-.49,1.18-1.66,4.99-3.31,9.99-4.99,14.98-.16,.47-.15,1.06-.71,1.32Z"/><path class="cls-4" d="M86.7,138.32c0,.83-.06,1.66,.01,2.47,.18,2.15,1.98,3.73,4.25,3.74,7.59,0,15.17,0,22.76,0-.24,1.49-.84,2.08-2.28,2.09-8.18,.01-16.36,.02-24.54,0-1.47,0-2.25-.8-2.29-2.24-.03-1.3-.04-2.6,0-3.9,.04-1.33,.64-1.92,2.08-2.15Z"/><path class="cls-4" d="M82.53,150.85c0,.83-.06,1.66,.01,2.47,.18,2.15,1.98,3.73,4.25,3.74,7.59,0,15.17,0,22.76,0-.24,1.49-.84,2.08-2.28,2.09-8.18,.01-16.36,.02-24.54,0-1.46,0-2.25-.8-2.29-2.24-.03-1.3-.04-2.6,0-3.9,.04-1.33,.64-1.92,2.08-2.15Z"/><path class="cls-4" d="M100,101.74c.57-.26,.56-.85,.71-1.32,1.68-4.99,3.33-9.98,4.99-14.98,.13-.4,.33-.78,.49-1.18,1.18,4.57,2.22,9.12-.14,13.68-1.11,2.16-2.73,3.53-5.06,4.12-.45,.11-.85,.33-1-.34Z"/><path class="cls-4" d="M90.41,114.52c.46,.54,.01,.87-.3,1.2-1.44,1.52-3.26,1.88-5.23,1.61-2.83-.38-5.27-1.58-7.27-3.65-.9-.94-1.83-1.84-2.75-2.76-.68-.68-.17-.73,.39-.77,.04,.4,.33,.41,.64,.49,2.44,.67,4.86,1.43,7.31,2.03,2.41,.59,4.75,1.47,7.21,1.84Z"/><path class="cls-4" d="M118.18,107.02c.59-.07,.4,.26,.26,.53-.7,1.39-1.33,2.82-2.13,4.15-1.96,3.24-6.08,4.5-9.52,2.98-.48-.21-1.21-.35-.61-1.16,.25-.05,.54-.03,.75-.15,3.76-2.11,7.5-4.23,11.25-6.35Z"/><path class="cls-2" d="M90.41,114.52c-2.47-.37-4.8-1.25-7.21-1.84-2.46-.6-4.87-1.36-7.31-2.03-.3-.08-.6-.1-.64-.49,2.46-.47,4.89-1.27,7.43-1.07,3.62,.27,6.29,2,7.73,5.44Z"/><path class="cls-2" d="M118.18,107.02c-3.75,2.12-7.49,4.24-11.25,6.35-.21,.12-.5,.1-.75,.15,1.74-4.01,4.9-6.05,9.14-6.51,.94-.1,1.91,0,2.86,.01Z"/><path class="cls-3" d="M40.87,150.85q2.08-.11,2.08,1.92,0,2.21,2.24,2.21,1.93,0,1.93-1.99,0-2.18,2.13-2.18t2.04,2.02,2.16,2.16q2.01,0,2.01-2.04,0-2.13,2.18-2.13,1.99,0,1.99,2.07,0,2.11,2.07,2.11,2.09,0,2.09-2.09s-.02-.09,0-.13c.33-.64-.84-1.95,.92-1.97,2.26-.02,3.18,.56,3.23,2.23,.04,1.34-.02,2.69-.03,4.03-7.59,0-15.17,.01-22.76,0-2.27,0-4.08-1.59-4.25-3.74-.07-.82-.01-1.65-.01-2.47Z"/><path class="cls-4" d="M40.87,150.85c0,.83-.06,1.66,.01,2.47,.18,2.15,1.98,3.73,4.25,3.74,7.59,0,15.17,0,22.76,0-.24,1.49-.84,2.08-2.28,2.09-8.18,.01-16.36,.02-24.54,0-1.46,0-2.25-.8-2.29-2.24-.03-1.3-.04-2.6,0-3.9,.04-1.33,.64-1.92,2.08-2.15Z"/><path class="cls-4" d="M51.04,127.33c.04,.24,0,.47-.27,.48-2.11,.03-4.25,.3-6.22-.76-2.13-1.16-3.34-2.99-3.62-5.37-.13-1.11-.03-2.25-.06-3.38-.01-.64,.27-.76,.8-.53-.08,.56,.3,.87,.64,1.2,2.56,2.56,5.12,5.13,7.68,7.69,.3,.3,.57,.67,1.06,.67Z"/><path class="cls-4" d="M68.18,121.63c.59-.08,.4,.26,.26,.53-.7,1.39-1.33,2.82-2.13,4.15-1.96,3.24-6.08,4.5-9.52,2.98-.48-.21-1.21-.35-.62-1.16,.25-.05,.54-.03,.75-.15,3.76-2.11,7.5-4.23,11.25-6.35Z"/><path class="cls-2" d="M51.04,127.33c-.49,0-.76-.37-1.06-.67-2.56-2.56-5.12-5.13-7.68-7.69-.33-.34-.72-.65-.64-1.2,4.96,1.1,8.92,5.13,9.38,9.56Z"/><path class="cls-2" d="M68.18,121.63c-3.75,2.12-7.5,4.24-11.25,6.35-.21,.12-.5,.1-.75,.15,1.74-4.02,4.91-6.04,9.14-6.51,.94-.1,1.9,0,2.86,.01Z"/></g></g></svg>