<?xml version="1.0" encoding="UTF-8"?><svg id="Layer_2" xmlns="http://www.w3.org/2000/svg" viewBox="0 0 200 200"><defs><style>.cls-1{fill:#e9f6f6;}.cls-2{fill:#fff;}.cls-3{fill:#b6e5f5;}.cls-4{fill:#06ffd5;}.cls-5{fill:#1a2959;}</style></defs><g id="Layer_1-2"><circle class="cls-1" cx="100" cy="100" r="100"/><g id="_5OmLVg"><g><path class="cls-5" d="M65.88,149.38c0-9.84,.01-19.69,.02-29.53,0-.13-.03-.26-.07-.49h-9.39c.29-.43,.46-.69,.64-.94,6-7.84,11.99-15.69,18.01-23.52,.51-.66,.78-1.31,.74-2.16-.06-1.21-.02-2.43-.02-3.75h-12.21c11.73-13.8,23.28-27.4,34.93-41.11,10.55,13.65,21.06,27.25,31.71,41.03h-12.4v20.36c2.07-.61,4.11-1.39,6.22-1.79,11.68-2.23,23.33,6.53,24.5,18.32,1.17,11.83-6.64,21.75-18.4,23.41-.15,.02-.3,.11-.45,.17h-3.96c-.9-.17-1.82-.27-2.7-.53-1.75-.51-3.48-1.11-5.23-1.68v2.21h-51.94Zm15.87-66.33v1.14c0,2.84-.03,5.68,.03,8.52,.01,.58,.22,1.24,.55,1.71,5.56,7.95,11.16,15.88,16.74,23.82,.21,.3,.41,.62,.76,1.13h-9.5v23.86h21.73c-.28-.61-.41-1.14-.72-1.52-6.45-8.01-6.46-18.88-.04-26.87,.33-.41,.55-1.05,.55-1.58,.03-9.64,.02-19.29,.02-28.93v-1.32h6.34c-6.71-8.68-13.26-17.16-19.89-25.73-7.29,8.58-14.51,17.08-21.9,25.78h5.33Zm30.69,45.19c0,8.41,6.77,15.19,15.16,15.2,8.39,0,15.2-6.79,15.2-15.17,0-8.39-6.79-15.19-15.18-15.19-8.41,0-15.19,6.77-15.19,15.17Zm-40.6-14.82v29.78h12.5v-29.79h4.08c-3.27-4.64-6.41-9.1-9.61-13.66-3.49,4.56-6.9,9.02-10.45,13.67h3.48Z"/><path class="cls-2" d="M117.82,149.38v-2.21c1.75,.57,3.48,1.17,5.23,1.68,.88,.26,1.8,.36,2.7,.53h-7.93Z"/><path class="cls-4" d="M81.75,83.06h-5.33c7.39-8.7,14.61-17.2,21.9-25.78,6.62,8.57,13.17,17.05,19.89,25.73h-6.34v1.32c0,9.64,0,19.29-.02,28.93,0,.53-.22,1.17-.55,1.58-6.42,7.99-6.41,18.86,.04,26.87,.31,.38,.44,.91,.72,1.52h-21.73v-23.86h9.5c-.34-.51-.54-.82-.76-1.13-5.59-7.94-11.18-15.87-16.74-23.82-.33-.47-.54-1.13-.55-1.71-.06-2.84-.03-5.68-.03-8.52v-1.14Z"/><path class="cls-3" d="M112.43,128.25c0-8.4,6.78-15.17,15.19-15.17,8.39,0,15.18,6.8,15.18,15.19,0,8.38-6.81,15.18-15.2,15.17-8.4,0-15.17-6.79-15.16-15.2Zm12.64,9.46c4.23-4.23,8.44-8.44,12.63-12.62-1.27-1.27-2.62-2.62-4.11-4.1-2.79,2.8-5.62,5.63-8.57,8.59-1.18-1.22-2.34-2.43-3.39-3.51-1.4,1.41-2.76,2.78-4.08,4.11,2.47,2.48,5.03,5.04,7.53,7.54Z"/><path class="cls-2" d="M71.83,113.43h-3.48c3.55-4.65,6.97-9.11,10.45-13.67,3.21,4.55,6.34,9.01,9.61,13.66h-4.08v29.79h-12.5v-29.78Z"/><path class="cls-5" d="M125.08,137.71c-2.49-2.5-5.05-5.06-7.53-7.54,1.32-1.33,2.68-2.7,4.08-4.11,1.04,1.08,2.2,2.28,3.39,3.51,2.95-2.96,5.78-5.79,8.57-8.59,1.49,1.49,2.84,2.83,4.11,4.1-4.19,4.18-8.4,8.4-12.63,12.62Z"/></g></g></g></svg>