<?xml version="1.0" encoding="UTF-8"?><svg id="Layer_2" xmlns="http://www.w3.org/2000/svg" viewBox="0 0 104.58 140.93"><defs><style>.cls-1{fill:#e3e7ea;}.cls-2{fill:#fff;}.cls-3{fill:#add;}.cls-4{fill:#06ffd5;}.cls-5{fill:#1a2959;}.cls-6{fill:#636c77;}</style></defs><g id="Layer_1-2"><g><path class="cls-5" d="M50.01,62.13c0-4.08-.03-7.76,.02-11.45,0-.82-.4-.89-1.02-.98-10.79-1.5-19.04-9.26-21.26-20C24.88,15.83,34.87,1.91,48.95,.2c15.64-1.9,28.81,10.1,28.33,25.82-.36,11.82-9.81,22.22-21.55,23.67-.71,.09-1.21,.13-1.19,1.11,.06,3.64,.03,7.28,.03,11,.52-.14,.62-.59,.83-.89,6.83-9.86,16.24-15.08,28.21-15.46,8.49-.27,15.23,5.72,16.35,14.2,1.02,7.71-4.39,15.28-12.35,17.14-.99,.23-1.22,.56-1.24,1.54-.27,15.71-6.03,29.06-17.33,40-.59,.57-.86,1.12-.85,1.95,.04,4.93,.05,9.85,0,14.78-.01,1.05,.22,1.32,1.3,1.32,8.24-.05,16.48,0,24.72-.06,1.05,0,1.34,.23,1.31,1.31-.07,3.27-.01,3.27-3.3,3.27-27.19,0-54.37,0-81.56,.03-1.29,0-1.64-.3-1.6-1.6,.1-2.98,.03-2.98,3.02-2.98,8.43,0,16.86-.02,25.29,.03,1.08,0,1.34-.27,1.3-1.32-.09-2.32-.06-4.64,0-6.96,.02-.73-.23-.97-.92-1.09-9.23-1.69-15-8.62-15.02-18,0-1.23-.03-2.46,.01-3.69,.02-.62-.16-.83-.79-.8-1.04,.05-2.08,.04-3.13,0-2.29-.07-4.21-1.51-4.91-3.65-.7-2.11-.08-4.32,1.69-5.75,1.32-1.07,2.71-2.06,4.08-3.08,2.04-1.52,3.08-3.52,3.06-6.08-.03-2.51-.06-5.02,.02-7.53,.03-1.04-.3-1.24-1.26-1.21-5.74,.18-10.5-1.88-13.87-6.58-3.67-5.12-4.18-10.69-1.38-16.34,2.77-5.59,7.48-8.77,13.7-8.81,12.51-.07,22.29,5.32,29.37,15.63,.16,.23,.31,.45,.7,1.01Zm-11.28,15.11c-3.46,0-6.91,.03-10.37-.02-.86-.01-1.13,.19-1.11,1.09,.07,2.55,.02,5.11,.02,7.67,0,4.01-1.62,7.22-4.79,9.65-1.16,.89-2.35,1.75-3.52,2.63-.41,.31-.95,.6-.69,1.24,.22,.54,.75,.48,1.23,.48,2.22,0,4.45,.03,6.67-.02,.82-.02,1.23,.13,1.12,1.06-.09,.79,.04,1.61-.03,2.41-.08,.85,.16,1.14,1.07,1.11,2.36-.07,4.73,0,7.1-.04,.74-.01,.93,.2,.96,.94,.18,4.92-1.65,8.75-5.97,11.26-.6,.35-.74,.56-.25,1.12,3.17,3.68,7.13,5.32,11.98,4.75,3.3-.39,5.84-2.27,8.37-4.21,2.73-2.09,2.75-2.06,4.76,.76,.08,.12,.15,.24,.25,.34,.34,.36,.25,.63-.13,.91-3.53,2.6-6.81,5.64-11.34,6.46-.71,.13-.89,.42-.88,1.1,.04,2.46,.07,4.92-.01,7.38-.03,.96,.36,1.04,1.15,1.04,6.06-.03,12.12-.03,18.18,0,.9,0,1.2-.19,1.19-1.15-.05-4.83-.05-9.66,0-14.48,0-.88-.3-1.31-1.04-1.74-8.7-5.04-12.75-12.69-12.64-22.67,0-.8,.3-.93,.99-.91,1.23,.05,2.46,.05,3.69,0,2.52-.09,4.47-2.14,4.43-4.61-.04-2.41-1.97-4.37-4.44-4.46-1.13-.04-2.28-.07-3.41,.01-.96,.07-1.31-.17-1.27-1.21,.09-2.27-.01-4.54,.05-6.81,.02-.85-.17-1.13-1.08-1.11-3.41,.06-6.82,.02-10.22,.02Zm29.52,0h-10.37c-3.41,0-3.39,0-3.33,3.43,.01,.7,.08,1.05,.95,1.17,4.78,.69,8.06,4.25,8.15,8.74,.1,4.67-2.93,8.39-7.71,9.27-1.01,.19-1.26,.51-1.06,1.44,1.26,6.04,4.53,10.62,9.88,13.72,.59,.34,1.01,.32,1.48-.2,.75-.85,1.57-1.64,2.33-2.48,8.67-9.61,12.96-20.94,13.29-33.83,.03-.99-.24-1.29-1.25-1.28-4.12,.06-8.24,.02-12.36,.02ZM52.31,4.5c-11.25,0-20.45,9.14-20.48,20.37-.03,11.32,9.15,20.55,20.44,20.55,11.24,0,20.45-9.15,20.48-20.37,.03-11.32-9.14-20.54-20.44-20.55Zm-3.74,64.12c-1.25-2.03-2.19-3.76-3.3-5.36-5.89-8.45-14.01-12.93-24.31-13.26-6.56-.21-11.78,4.8-11.86,11.16-.08,6.46,5.01,11.52,11.65,11.54,8.05,.02,16.1,0,24.15,0,.32,0,.71,.16,1.03-.24-7.79-3.34-15.52-6.65-23.24-9.96-3.17-1.36-3.13-1.34-1.8-4.49,.37-.88,.72-.96,1.55-.6,4.89,2.14,9.8,4.23,14.7,6.34,3.67,1.57,7.35,3.14,11.42,4.89Zm10.12,3.83c.02,.08,.04,.17,.06,.25,.21,0,.42,0,.63,0,8.24,0,16.48,.03,24.72-.01,6.43-.04,11.46-5.17,11.39-11.51-.07-6.31-5.25-11.39-11.7-11.18-12.9,.42-21.73,7.07-27.61,18.53,.59-.24,.97-.39,1.34-.55,7.55-3.24,15.11-6.48,22.66-9.72,3.04-1.31,2.98-1.28,4.34,1.67,.51,1.1,.17,1.38-.78,1.78-5.49,2.3-10.95,4.67-16.42,7.02-2.88,1.24-5.76,2.48-8.64,3.72Zm-27.3,36.62c-.62,0-1.04,0-1.46,0-3,0-3.1,.16-2.38,3.16,.16,.68,.39,.78,.93,.43,1.29-.83,2.31-1.88,2.91-3.59Z"/><path class="cls-5" d="M0,138.53q0-2.18,2.23-2.18t2.32,2.37q0,2.18-2.23,2.18-2.32,0-2.32-2.37Z"/><path class="cls-5" d="M102.34,136.35q2.23,0,2.23,2.17,0,2.38-2.31,2.38t-2.23-2.17q0-2.38,2.31-2.38Z"/><path class="cls-2" d="M38.73,77.25c3.41,0,6.82,.04,10.22-.02,.91-.02,1.1,.26,1.08,1.11-.06,2.27,.04,4.55-.05,6.81-.04,1.04,.31,1.28,1.27,1.21,1.13-.08,2.27-.05,3.41-.01,2.47,.09,4.4,2.05,4.44,4.46,.04,2.47-1.91,4.52-4.43,4.61-1.23,.05-2.46,.04-3.69,0-.69-.03-.98,.11-.99,.91-.11,9.98,3.94,17.63,12.64,22.67,.75,.43,1.05,.86,1.04,1.74-.05,4.83-.05,9.66,0,14.48,.01,.96-.29,1.15-1.19,1.15-6.06-.04-12.12-.03-18.18,0-.79,0-1.18-.08-1.15-1.04,.08-2.46,.05-4.92,.01-7.38-.01-.68,.17-.97,.88-1.1,4.53-.82,7.81-3.86,11.34-6.46,.39-.28,.47-.55,.13-.91-.1-.1-.17-.23-.25-.34-2.01-2.82-2.03-2.85-4.76-.76-2.53,1.94-5.07,3.82-8.37,4.21-4.85,.57-8.81-1.07-11.98-4.75-.48-.56-.34-.78,.25-1.12,4.32-2.51,6.15-6.34,5.97-11.26-.03-.74-.22-.95-.96-.94-2.37,.04-4.73-.03-7.1,.04-.91,.03-1.15-.26-1.07-1.11,.07-.8-.05-1.62,.03-2.41,.1-.94-.3-1.08-1.12-1.06-2.22,.05-4.45,.02-6.67,.02-.48,0-1.01,.06-1.23-.48-.26-.64,.28-.93,.69-1.24,1.17-.88,2.36-1.74,3.52-2.63,3.18-2.43,4.8-5.64,4.79-9.65,0-2.56,.04-5.11-.02-7.67-.02-.9,.25-1.1,1.11-1.09,3.45,.05,6.91,.02,10.37,.02Zm-4.54,9.09q-2.42,0-2.36,2.33c.09,3.77,3.09,6.75,6.8,6.76,3.71,0,6.73-2.96,6.84-6.72q.07-2.37-2.18-2.37t-2.36,2.19c-.12,1.82-1.74,2.86-3.27,2.09-1.16-.58-1.39-1.63-1.25-2.76,.15-1.2-.19-1.79-1.49-1.53-.23,.05-.47,0-.71,0Z"/><path class="cls-6" d="M68.25,77.25c4.12,0,8.24,.03,12.36-.02,1.01-.01,1.27,.29,1.25,1.28-.33,12.89-4.62,24.22-13.29,33.83-.76,.84-1.58,1.63-2.33,2.48-.46,.53-.89,.54-1.48,.2-5.35-3.1-8.62-7.68-9.88-13.72-.19-.93,.06-1.26,1.06-1.44,4.78-.88,7.81-4.6,7.71-9.27-.1-4.49-3.37-8.05-8.15-8.74-.87-.12-.93-.47-.95-1.17-.06-3.43-.08-3.43,3.33-3.43s6.91,0,10.37,0Z"/><path class="cls-3" d="M52.31,4.5c11.3,0,20.47,9.23,20.44,20.55-.03,11.22-9.24,20.37-20.48,20.37-11.29,0-20.47-9.23-20.44-20.55,.03-11.22,9.23-20.37,20.48-20.37Zm.06,4.55c-1.99,0-3.98,.03-5.96-.02-.76-.02-.96,.22-.95,.96,.04,2.27-.06,4.55,.05,6.81,.06,1.18-.37,1.39-1.43,1.36-2.22-.07-4.45,0-6.67-.04-.78-.02-1.05,.18-1.05,1.01,.04,3.88,.04,7.76,0,11.64,0,.82,.23,1.04,1.03,1.02,2.22-.05,4.45,.07,6.67-.05,1.24-.06,1.48,.36,1.43,1.5-.09,2.22,0,4.45-.04,6.67-.01,.72,.17,.98,.94,.97,3.93-.04,7.86-.04,11.78,0,.76,0,.96-.22,.95-.96-.04-2.27,.06-4.55-.05-6.81-.06-1.18,.37-1.39,1.43-1.36,2.22,.07,4.45,0,6.67,.04,.78,.02,1.05-.18,1.05-1.01-.04-3.88-.04-7.76,0-11.64,0-.82-.23-1.04-1.03-1.02-2.22,.05-4.45-.07-6.67,.05-1.24,.06-1.48-.36-1.43-1.5,.09-2.17-.01-4.35,.05-6.53,.02-.85-.17-1.16-1.08-1.12-1.89,.08-3.78,.02-5.68,.02Z"/><path class="cls-4" d="M48.57,68.62c-4.08-1.74-7.75-3.31-11.42-4.89-4.91-2.1-9.82-4.2-14.7-6.34-.83-.36-1.18-.28-1.55,.6-1.34,3.15-1.37,3.13,1.8,4.49,7.73,3.31,15.45,6.62,23.24,9.96-.32,.41-.71,.24-1.03,.24-8.05,.01-16.1,.03-24.15,0-6.64-.02-11.72-5.08-11.65-11.54,.07-6.35,5.29-11.37,11.86-11.16,10.29,.33,18.41,4.81,24.31,13.26,1.12,1.6,2.06,3.33,3.3,5.36Z"/><path class="cls-4" d="M58.68,72.45c2.88-1.24,5.76-2.48,8.64-3.72,5.47-2.35,10.93-4.71,16.42-7.02,.95-.4,1.29-.68,.78-1.78-1.37-2.95-1.3-2.97-4.34-1.67-7.55,3.24-15.11,6.48-22.66,9.72-.37,.16-.75,.3-1.34,.55,5.88-11.46,14.71-18.11,27.61-18.53,6.45-.21,11.63,4.87,11.7,11.18,.07,6.34-4.96,11.47-11.39,11.51-8.24,.05-16.48,.01-24.72,.01-.21,0-.42,0-.63,0-.02-.08-.04-.17-.06-.25Z"/><path class="cls-3" d="M31.38,109.07c-.6,1.71-1.62,2.76-2.91,3.59-.54,.35-.77,.24-.93-.43-.72-3-.61-3.17,2.38-3.16,.42,0,.84,0,1.46,0Z"/><path class="cls-5" d="M34.19,86.34c.24,0,.48,.04,.71,0,1.3-.26,1.64,.33,1.49,1.53-.14,1.14,.1,2.18,1.25,2.76,1.53,.77,3.15-.27,3.27-2.09q.14-2.19,2.36-2.19t2.18,2.37c-.11,3.76-3.12,6.73-6.84,6.72-3.71,0-6.71-2.99-6.8-6.76q-.06-2.33,2.36-2.33Z"/><path class="cls-5" d="M52.36,9.05c1.89,0,3.79,.05,5.68-.02,.91-.04,1.11,.27,1.08,1.12-.06,2.18,.05,4.36-.05,6.53-.05,1.14,.19,1.56,1.43,1.5,2.22-.12,4.45,0,6.67-.05,.8-.02,1.04,.21,1.03,1.02-.04,3.88-.04,7.76,0,11.64,0,.83-.27,1.03-1.05,1.01-2.22-.05-4.45,.04-6.67-.04-1.06-.04-1.48,.18-1.43,1.36,.11,2.27,0,4.54,.05,6.81,.01,.74-.19,.97-.95,.96-3.93-.04-7.86-.04-11.78,0-.77,0-.95-.25-.94-.97,.04-2.22-.05-4.45,.04-6.67,.05-1.14-.19-1.56-1.43-1.5-2.22,.12-4.45,0-6.67,.05-.8,.02-1.04-.21-1.03-1.02,.04-3.88,.04-7.76,0-11.64,0-.83,.27-1.03,1.05-1.01,2.22,.05,4.45-.04,6.67,.04,1.06,.04,1.48-.18,1.43-1.36-.11-2.27,0-4.54-.05-6.81-.01-.74,.19-.98,.95-.96,1.99,.05,3.97,.02,5.96,.02Zm-2.35,9.01c0,1.23-.04,2.46,.01,3.69,.03,.72-.16,.99-.93,.96-1.61-.06-3.22-.02-4.82-.02-3.41,0-3.38,0-3.38,3.47,0,.86,.18,1.13,1.08,1.1,2.36-.07,4.73,0,7.09-.04,.72-.01,.99,.16,.96,.93-.06,1.61-.02,3.22-.02,4.82,0,3.41,0,3.38,3.47,3.38,.86,0,1.13-.18,1.1-1.08-.07-2.36,0-4.73-.04-7.09-.01-.72,.16-.99,.93-.96,1.61,.06,3.22,.02,4.82,.02,3.41,0,3.38,0,3.38-3.47,0-.86-.18-1.13-1.08-1.1-2.36,.07-4.73,0-7.09,.04-.72,.01-.99-.16-.96-.93,.06-1.56,.02-3.12,.02-4.68,0-3.73,0-3.72-3.75-3.51-.6,.03-.83,.15-.81,.79,.05,1.23,.01,2.46,.01,3.69Z"/><path class="cls-1" d="M50.01,18.06c0-1.23,.03-2.46-.01-3.69-.02-.64,.21-.76,.81-.79,3.75-.2,3.75-.22,3.75,3.51,0,1.56,.04,3.12-.02,4.68-.03,.77,.24,.94,.96,.93,2.36-.04,4.73,.03,7.09-.04,.9-.03,1.08,.25,1.08,1.1,0,3.47,.03,3.47-3.38,3.47-1.61,0-3.22,.04-4.82-.02-.77-.03-.94,.24-.93,.96,.04,2.36-.03,4.73,.04,7.09,.03,.9-.25,1.08-1.1,1.08-3.47,0-3.47,.03-3.47-3.38,0-1.61-.04-3.22,.02-4.82,.03-.77-.24-.94-.96-.93-2.36,.04-4.73-.03-7.09,.04-.9,.03-1.08-.25-1.08-1.1,0-3.47-.03-3.47,3.38-3.47,1.61,0,3.22-.04,4.82,.02,.77,.03,.96-.23,.93-.96-.05-1.23-.01-2.46-.01-3.69Z"/></g></g></svg>