<?xml version="1.0" encoding="UTF-8"?><svg id="Layer_2" xmlns="http://www.w3.org/2000/svg" viewBox="0 0 143.27 117.82"><defs><style>.cls-1,.cls-2{fill:#e9f6f6;}.cls-3{fill:#fff;}.cls-4{fill:#80a6a6;}.cls-5{fill:#add;}.cls-6,.cls-7{fill:#06ffd5;}.cls-8{fill:#05bfa0;}.cls-9{fill:#1a2959;}.cls-7,.cls-2,.cls-10{stroke:#1a2959;stroke-miterlimit:10;stroke-width:3.69px;}.cls-7,.cls-10{stroke-linecap:round;}.cls-10{fill:none;}</style></defs><g id="Layer_1-2"><g><g><path class="cls-9" d="M89.57,107.63c1.66,.4,2.1,.94,2.11,2.62,0,1.77,.03,3.53,0,5.3-.03,1.49-.79,2.22-2.28,2.27-.27,0-.54,0-.82,0-28.5,0-57,0-85.51,0-2.56,0-3.07-.51-3.07-3.1,0-5.44,0-10.88,0-16.31,.01-6.56,3.31-11.18,9.51-13.32,7.05-2.42,14.09-4.85,21.15-7.23,.93-.31,1.24-.74,1.2-1.71-.08-1.99-.04-3.99-.02-5.98,0-.58-.11-.98-.6-1.38-5.43-4.46-7.94-10.31-8-17.24,0-1.04-.25-1.26-1.24-1.26-1.64,0-3.22-.47-4.65-1.3-1.16-.67-2.14-1.54-2.82-2.69-1.62-2.72-1.12-5.73-.97-8.63,.17-3.23,2-5.45,5.01-6.63,.67-.26,.52-.76,.52-1.23,0-2.76,0-5.53,0-8.29,.04-10.48,8.12-18.58,18.6-18.63,2.67-.01,5.35-.01,8.02,0,1.64,.01,2.16,.44,2.55,2.02-.37,1.63-.83,1.99-2.48,2.04-3.01,.09-6.03-.21-9.03,.19-6.14-.13-12.37,5.27-13.32,11.57-.54,3.6-.15,7.22-.27,10.83-.02,.73,.4,.79,.95,.78,1.76-.02,3.53-.03,5.29-.04,1.86,.01,3.71,.07,5.57,.03,4.06-.08,7.22-1.87,9.44-5.25,1.49-2.27,2.88-4.6,4.33-6.9,.51-.8,1.21-1.48,2.19-1.37,1.03,.11,1.62,.9,1.92,1.88,.33,1.08,.69,2.15,1.02,3.23,.38,1.22,.88,2.37,1.6,3.43,2.59,3.79,7.95,5.95,12.32,5,.76-.17,.59-.69,.6-1.14,.02-2.49-.05-4.99,.02-7.48,.22-8.02-6.04-14.16-13.01-14.62-1.32-.09-2.22-.72-2.37-2.15,.5-1.68,1.04-2.07,2.72-1.95,9.4,.68,16.67,8.64,16.8,18.43,.04,2.81,.02,5.62,0,8.43,0,.67,.18,1,.85,1.3,3.09,1.4,4.72,3.83,4.74,7.26,0,1.18,0,2.36,0,3.53-.02,4.41-2.61,7.44-6.96,8.16-.36,.06-.73,.19-1.07,.14-1.49-.19-1.77,.44-1.81,1.88-.16,6.67-2.63,12.31-7.85,16.61-.48,.39-.63,.8-.62,1.38,.03,2.08,.05,4.17,0,6.25-.02,.81,.23,1.16,1.01,1.43,6.98,2.34,13.93,4.74,20.9,7.11,6.64,2.25,9.94,6.85,9.94,13.87,0,.5,0,1,0,1.5-.02,1.67-.42,2.17-2.12,2.62-1.41-.31-2.06-1.18-1.97-2.63,.04-.68,0-1.36,0-2.04-.02-4.51-2.32-7.74-6.6-9.23-3.2-1.11-6.41-2.19-9.61-3.29-2.16-.74-4.32-1.48-6.6-2.25,0,4.77,0,9.34,0,13.91,0,1.02,.02,2.02-1.04,2.6-1.09,.59-1.99,.1-2.9-.47-1.68-1.06-3.4-2.07-5.08-3.13-.52-.33-.82-.39-1.14,.25-.66,1.29-1.4,2.53-2.12,3.78-.19,.34-.22,.63-.11,1.02,1.1,3.87,2.17,7.74,3.24,11.62,.14,.5,.36,.71,.93,.71,5.34-.02,10.69-.02,16.03,0,.66,0,.85-.22,.84-.86-.04-1.72-.03-3.44,0-5.16,.02-1.46,.81-2.39,2.01-2.39,1.2,0,2.04,.93,2.06,2.37,.03,1.49,.08,2.99-.02,4.48-.07,1.17,.18,1.68,1.5,1.57,1.66-.13,3.35,0,5.02-.04,1.16-.03,2.7,.51,3.37-.23,.57-.63,.23-2.14,.2-3.26-.05-1.45,.55-2.33,1.99-2.61Zm-43.83-9.14c2.23,.48,3.81-.19,4.57-2.47,.18-.55,.54-1.04,.86-1.53,.3-.47,.28-.78-.25-1.08-1.64-.94-3.26-1.92-4.89-2.88-1.43,.17-2.41,1.23-3.58,1.89-2.34,1.31-2.15,1.28-1.09,3.71,.92,2.09,2.25,2.82,4.39,2.37Zm.55,4.2c-.72-.02-1.45-.02-2.17-.08-.71-.06-1.04,.23-1.23,.92-.83,3.1-1.71,6.18-2.59,9.27-.18,.64-.16,1.02,.68,.95,.85-.07,1.72-.04,2.58-.05,2.31,.01,4.62,0,6.92,.05,.91,.02,1.06-.23,.81-1.09-.8-2.68-1.52-5.39-2.27-8.09q-.57-2.06-2.73-1.89Zm.28-18.01c2.49-1.83,4.91-3.77,7.49-5.47,1.51-.99,1.99-2.15,1.64-3.81,.02-.9,0-1.81,.06-2.71,.06-.91-.22-.93-.99-.61-3.66,1.56-7.5,1.89-11.43,1.51-2.53-.25-4.93-.95-7.41-1.88,0,1.97,.01,3.78,0,5.59,0,.47,.19,.74,.55,1,2.9,2.17,5.79,4.34,8.67,6.53,.58,.45,1.02,.51,1.44-.16Zm-19.78-.34c.23-.78-.05-.84-.73-.61-5.41,1.87-10.88,3.6-16.24,5.6-3.35,1.25-5.47,3.9-5.63,7.48-.25,5.37-.08,10.76-.12,16.14,0,.72,.32,.8,.9,.78,1.72-.04,3.43-.04,5.15-.05,1.04,.01,2.08-.02,3.12,.06,.82,.06,.97-.29,.95-1.02-.04-1.67-.03-3.35,0-5.02,.02-1.45,.83-2.38,2.03-2.38,1.21,0,2.03,.93,2.04,2.38,.02,1.67,.04,3.35,0,5.02-.02,.73,.13,1.02,.94,1.01,5.25-.04,10.5-.04,15.75,0,.78,0,.97-.33,1.14-.97,.68-2.57,1.19-5.23,2.18-7.68,1.23-3.03,.87-5.6-1.03-8.16-.53-.71-.77-1.01-1.6-.44-1.53,1.04-3.15,1.94-4.72,2.93-.94,.59-1.88,1.16-3.02,.54-1.13-.61-1.02-1.7-1.02-2.75-.02-4.3-.05-8.59-.08-12.89Zm11.61-16.54c4.12,1.73,8.37,1.74,12.64,.77,7.64-1.73,12.95-7.62,13.15-14.78,.17-6.16,.05-12.32,.08-18.48,0-.67-.17-.94-.89-.99-1.87-.12-3.63-.68-5.31-1.51-3.81-1.89-6.36-4.92-7.91-9.03-.72,1.07-1.32,2.01-1.97,2.92-2.75,3.77-6.15,6.63-10.89,7.52-2.15,.4-4.34,.06-6.5,.29-.86-.03-1.72-.04-2.57-.09-.64-.04-.89,.2-.88,.85,.1,6.48-.27,12.96,.19,19.43,.43,5.97,5.38,11.79,10.86,13.09Zm22.3,26.79c0-3.77-.08-7.29,.04-10.81,.05-1.37-.32-2.05-1.67-2.33-.68-.14-1.16-.11-1.72,.33-1.63,1.29-3.32,2.5-4.97,3.75-.95,.71-1.88,1.44-2.88,2.21,3.76,2.3,7.37,4.5,11.21,6.84Zm-29.74,0c3.85-2.35,7.47-4.57,11.22-6.86-2.83-2.14-5.52-4.21-8.24-6.21-.82-.6-2.97,.33-2.97,1.25-.02,3.84,0,7.69,0,11.82Zm37.38-54.25c0,1.63,0,3.25,0,4.88,0,.37-.14,.8,.41,1.01,2.03,.78,5.14-1.19,5.26-3.4,.07-1.26,.03-2.53,.03-3.8,0-3.08-1.81-4.71-4.9-4.48-.65,.05-.83,.28-.82,.9,.04,1.63,.01,3.25,.01,4.88Zm-45.08,.07c0-1.63,.01-3.25,0-4.88,0-.35,.18-.78-.44-.96-2.31-.66-5.07,1.17-5.24,3.58-.08,1.12-.03,2.26-.03,3.38,0,3.41,1.37,4.72,4.79,4.68,.71,0,.95-.24,.93-.94-.04-1.62-.01-3.25-.01-4.88Z"/><path class="cls-5" d="M89.57,107.63c-1.44,.28-2.03,1.16-1.99,2.61,.04,1.12,.38,2.63-.2,3.26-.68,.74-2.21,.2-3.37,.23-1.67,.04-3.36-.09-5.02,.04-1.32,.11-1.57-.41-1.5-1.57,.09-1.49,.04-2.99,.02-4.48-.03-1.45-.86-2.38-2.06-2.37-1.2,0-2,.93-2.01,2.39-.02,1.72-.03,3.44,0,5.16,.01,.64-.18,.86-.84,.86-5.34-.02-10.69-.02-16.03,0-.56,0-.79-.21-.93-.71-1.07-3.88-2.14-7.75-3.24-11.62-.11-.39-.08-.68,.11-1.02,.72-1.25,1.46-2.5,2.12-3.78,.33-.64,.62-.58,1.14-.25,1.68,1.06,3.4,2.07,5.08,3.13,.91,.57,1.81,1.07,2.9,.47,1.06-.58,1.04-1.58,1.04-2.6-.01-4.57,0-9.14,0-13.91,2.27,.78,4.43,1.51,6.6,2.25,3.21,1.09,6.42,2.17,9.61,3.29,4.28,1.49,6.58,4.73,6.6,9.23,0,.68,.04,1.36,0,2.04-.09,1.45,.56,2.32,1.97,2.63,0,1.57,0,3.15,0,4.72Z"/><path class="cls-6" d="M53.04,4.94c.15,1.42,1.05,2.06,2.37,2.15,6.97,.46,13.22,6.6,13.01,14.62-.07,2.49,0,4.98-.02,7.48,0,.46,.16,.98-.6,1.14-4.37,.96-9.73-1.2-12.32-5-.72-1.06-1.22-2.22-1.6-3.43-.34-1.08-.69-2.15-1.02-3.23-.3-.98-.89-1.77-1.92-1.88-.98-.11-1.68,.57-2.19,1.37-1.45,2.3-2.84,4.64-4.33,6.9-2.22,3.37-5.37,5.17-9.44,5.25-1.86,.04-3.71-.02-5.57-.03,0-2.85,.07-5.71-.01-8.56-.16-5.74,2.23-10.2,6.67-13.66,.33-.26,.69-.44,.68-.92,3-.4,6.02-.1,9.03-.19,1.65-.05,2.11-.41,2.48-2.04,1.59,.01,3.18,.02,4.77,.03Z"/><path class="cls-3" d="M30.8,34.52c2.16-.23,4.35,.12,6.5-.29,4.74-.89,8.14-3.75,10.89-7.52,.66-.9,1.25-1.85,1.97-2.92,1.55,4.1,4.1,7.13,7.91,9.03,1.68,.83,3.44,1.39,5.31,1.51,.73,.05,.9,.31,.89,.99-.03,6.16,.09,12.32-.08,18.48-.19,7.16-5.51,13.04-13.15,14.78-4.27,.97-8.52,.96-12.64-.77-1.04-1.24-2.35-2.2-3.39-3.47-2.54-3.13-4.06-6.7-4.18-10.66-.19-6.38-.04-12.77-.03-19.16Zm15.05,26.76c3.8-.01,6.96-3,7.14-6.77,.06-1.18-.42-2.05-1.61-2.35-1.01-.25-1.79,.19-2.24,1.09-.2,.39-.2,.87-.29,1.31-.35,1.67-1.54,2.67-3.13,2.63-1.56-.05-2.72-1.14-2.97-2.81-.24-1.59-1.08-2.43-2.28-2.28-1.29,.16-1.97,1.26-1.78,2.86,.41,3.58,3.52,6.33,7.15,6.32Zm-6.79-19.5s-.05,0-.07,0c0-.59,.06-1.18-.01-1.75-.13-1.03-.79-1.6-1.81-1.68-1.01-.08-1.8,.37-2.06,1.37-.32,1.28-.3,2.6-.02,3.88,.22,1.01,1,1.48,2.02,1.43,1.02-.05,1.68-.61,1.86-1.63,.09-.53,.06-1.08,.09-1.62Zm17.58-.08c0-.45,.02-.9,0-1.35-.08-1.2-.83-1.97-1.94-2.01-1.1-.04-2.01,.7-2.1,1.85-.08,.98-.08,1.99,0,2.97,.09,1.16,.98,1.9,2.08,1.88,1.11-.03,1.88-.79,1.96-1.98,.03-.45,0-.9,0-1.35Z"/><path class="cls-5" d="M26.8,84.34c.03,4.3,.06,8.59,.08,12.89,0,1.05-.1,2.13,1.02,2.75,1.14,.62,2.08,.05,3.02-.54,1.57-.98,3.19-1.89,4.72-2.93,.84-.57,1.08-.27,1.6,.44,1.9,2.56,2.26,5.14,1.03,8.16-1,2.45-1.5,5.11-2.18,7.68-.17,.64-.37,.98-1.14,.97-5.25-.04-10.5-.04-15.75,0-.82,0-.96-.29-.94-1.01,.05-1.67,.03-3.35,0-5.02-.02-1.45-.84-2.38-2.04-2.38-1.21,0-2.02,.92-2.03,2.38-.02,1.67-.04,3.35,0,5.02,.02,.72-.12,1.08-.95,1.02-1.04-.08-2.08-.05-3.12-.06,0-5.25-.08-10.5,.02-15.75,.07-3.98,1.69-7.23,5.1-9.48,2.31-1.52,5.02-1.98,7.53-2.98,1.29-.51,2.58-1.11,4.02-1.15Z"/><path class="cls-4" d="M26.8,84.34c-1.44,.04-2.73,.64-4.02,1.15-2.51,.99-5.23,1.46-7.53,2.98-3.41,2.25-5.02,5.5-5.1,9.48-.1,5.25-.02,10.5-.02,15.75-1.72,.02-3.44,.02-5.15,.05-.58,.01-.9-.06-.9-.78,.04-5.38-.13-10.77,.12-16.14,.16-3.58,2.28-6.23,5.63-7.48,5.36-2,10.83-3.73,16.24-5.6,.69-.24,.96-.17,.73,.61Z"/><path class="cls-8" d="M36.76,7.14c0,.48-.35,.66-.68,.92-4.45,3.46-6.84,7.92-6.67,13.66,.08,2.85,.01,5.71,.01,8.56-1.76,.01-3.53,.02-5.29,.04-.55,0-.98-.05-.95-.78,.12-3.61-.27-7.23,.27-10.83,.95-6.31,7.17-11.71,13.32-11.57Z"/><path class="cls-1" d="M30.8,34.52c0,6.39-.16,12.78,.03,19.16,.12,3.96,1.64,7.52,4.18,10.66,1.03,1.27,2.35,2.23,3.39,3.47-5.48-1.3-10.43-7.12-10.86-13.09-.46-6.47-.09-12.95-.19-19.43,0-.65,.24-.9,.88-.85,.86,.06,1.71,.07,2.57,.09Z"/><path class="cls-1" d="M46.58,84.68c-.41,.67-.85,.61-1.44,.16-2.87-2.2-5.77-4.37-8.67-6.53-.35-.26-.55-.53-.55-1,.02-1.81,0-3.62,0-5.59,2.48,.92,4.88,1.63,7.41,1.88,3.94,.38,7.77,.05,11.43-1.51,.77-.33,1.06-.3,.99,.61-.06,.9-.04,1.81-.06,2.71-2.96,.75-5.92,1.51-9.03,1.37-2.2-.1-4.43,.11-6.6-.35-.71-.15-.77,.06-.89,.69-.27,1.42,.54,2.12,1.52,2.85,2.01,1.51,4.15,2.85,5.87,4.71Z"/><path class="cls-1" d="M46.58,84.68c-1.72-1.86-3.86-3.21-5.87-4.71-.98-.73-1.79-1.44-1.52-2.85,.12-.62,.18-.84,.89-.69,2.18,.46,4.4,.25,6.6,.35,3.11,.14,6.06-.62,9.03-1.37,.35,1.66-.14,2.82-1.64,3.81-2.58,1.69-5,3.63-7.49,5.47Z"/><path class="cls-5" d="M60.7,94.6c-3.84-2.34-7.45-4.55-11.21-6.84,1-.77,1.94-1.5,2.88-2.21,1.66-1.25,3.34-2.47,4.97-3.75,.56-.44,1.04-.47,1.72-.33,1.35,.28,1.71,.97,1.67,2.33-.12,3.52-.04,7.04-.04,10.81Z"/><path class="cls-5" d="M30.97,94.6c0-4.14-.01-7.98,0-11.82,0-.91,2.15-1.85,2.97-1.25,2.72,2,5.41,4.07,8.24,6.21-3.75,2.29-7.37,4.51-11.22,6.86Z"/><path class="cls-3" d="M68.35,40.35c0-1.63,.02-3.26-.01-4.88-.01-.62,.17-.85,.82-.9,3.09-.23,4.9,1.4,4.9,4.48,0,1.27,.04,2.53-.03,3.8-.12,2.21-3.24,4.18-5.26,3.4-.55-.21-.41-.64-.41-1.01-.01-1.63,0-3.25,0-4.88Z"/><path class="cls-3" d="M23.27,40.42c0,1.63-.03,3.25,.01,4.88,.02,.7-.22,.93-.93,.94-3.42,.04-4.79-1.27-4.79-4.68,0-1.13-.05-2.26,.03-3.38,.17-2.41,2.93-4.24,5.24-3.58,.62,.18,.43,.6,.44,.96,.02,1.62,0,3.25,0,4.88Z"/><path class="cls-6" d="M46.3,102.69q2.16-.17,2.73,1.89c.75,2.7,1.47,5.4,2.27,8.09,.26,.86,.1,1.11-.81,1.09-2.31-.06-4.61-.04-6.92-.05-.03-.88,.32-1.67,.52-2.5,.68-2.85,1.75-5.6,2.2-8.5Z"/><path class="cls-6" d="M46.03,90.52c1.63,.96,3.25,1.94,4.89,2.88,.52,.3,.55,.61,.25,1.08-.32,.49-.68,.99-.86,1.53-.76,2.28-2.34,2.95-4.57,2.47-.74-1.39-1.41-2.82-2.25-4.14-.66-1.05-.32-1.58,.63-2.11,.75-.42,1.76-.61,1.91-1.71Z"/><path class="cls-8" d="M46.3,102.69c-.45,2.91-1.52,5.66-2.2,8.5-.2,.83-.55,1.63-.52,2.5-.86,.01-1.72-.02-2.58,.05-.84,.07-.86-.31-.68-.95,.88-3.08,1.76-6.17,2.59-9.27,.19-.7,.51-.99,1.23-.92,.72,.06,1.44,.06,2.17,.08Z"/><path class="cls-8" d="M46.03,90.52c-.15,1.11-1.16,1.29-1.91,1.71-.95,.53-1.29,1.06-.63,2.11,.83,1.33,1.51,2.76,2.25,4.14-2.13,.45-3.47-.28-4.39-2.37-1.06-2.43-1.25-2.4,1.09-3.71,1.18-.66,2.15-1.71,3.58-1.89Z"/><path class="cls-9" d="M45.85,61.28c-3.63,.01-6.74-2.74-7.15-6.32-.18-1.61,.5-2.7,1.78-2.86,1.21-.15,2.05,.69,2.28,2.28,.25,1.67,1.4,2.77,2.97,2.81,1.59,.05,2.78-.96,3.13-2.63,.09-.44,.09-.93,.29-1.31,.46-.9,1.23-1.34,2.24-1.09,1.19,.3,1.66,1.17,1.61,2.35-.18,3.77-3.34,6.76-7.14,6.77Z"/><path class="cls-9" d="M39.06,41.78c-.03,.54,0,1.09-.09,1.62-.18,1.02-.83,1.58-1.86,1.63-1.02,.05-1.79-.42-2.02-1.43-.28-1.28-.3-2.6,.02-3.88,.25-1,1.04-1.45,2.06-1.37,1.02,.08,1.67,.65,1.81,1.68,.08,.58,.01,1.17,.01,1.75,.02,0,.05,0,.07,0Z"/><path class="cls-9" d="M56.64,41.69c0,.45,.03,.9,0,1.35-.08,1.19-.85,1.96-1.96,1.98-1.1,.03-1.99-.72-2.08-1.88-.08-.99-.08-1.99,0-2.97,.09-1.15,1.01-1.89,2.1-1.85,1.11,.04,1.86,.81,1.94,2.01,.03,.45,0,.9,0,1.35Z"/></g><rect class="cls-2" x="82.23" y="10.96" width="52.41" height="68.13" rx="4.97" ry="4.97"/><g><line class="cls-10" x1="91.74" y1="43.42" x2="97" y2="43.42"/><line class="cls-10" x1="102.99" y1="43.42" x2="125.23" y2="43.42"/></g><g><line class="cls-10" x1="91.74" y1="49.48" x2="97" y2="49.48"/><line class="cls-10" x1="102.99" y1="49.48" x2="125.23" y2="49.48"/></g><g><line class="cls-10" x1="91.74" y1="55.54" x2="97" y2="55.54"/><line class="cls-10" x1="102.99" y1="55.54" x2="125.23" y2="55.54"/></g><g><line class="cls-10" x1="91.74" y1="61.6" x2="97" y2="61.6"/><line class="cls-10" x1="102.99" y1="61.6" x2="125.23" y2="61.6"/></g><g><line class="cls-10" x1="91.74" y1="67.66" x2="97" y2="67.66"/><line class="cls-10" x1="102.99" y1="67.66" x2="125.23" y2="67.66"/></g><circle class="cls-7" cx="128.24" cy="15.03" r="13.19"/><polyline class="cls-7" points="122.6 15.98 125.36 18.91 133.89 11.15"/></g></g></svg>