<?xml version="1.0" encoding="UTF-8"?><svg id="Layer_2" xmlns="http://www.w3.org/2000/svg" viewBox="0 0 123 123"><defs><style>.cls-1{fill:#eef0f1;}.cls-2{fill:#eaf1f9;}.cls-3{fill:#e6edf5;}.cls-4{fill:#fff;}.cls-5{fill:#add;}.cls-6{fill:#06ffd5;}.cls-7{fill:#1a2959;}</style></defs><g id="Layer_1-2"><g><path class="cls-7" d="M42.55,123c-12.45,0-24.9,0-37.35,0-3.64,0-5.45-1.95-5.17-5.58,.72-9.18,1.44-18.35,2.17-27.52,.37-4.7,2.93-7.59,7.54-8.7,4.46-1.08,8.92-2.2,13.36-3.38,2.6-.69,4.9-2.11,7.22-3.4,1.67-.93,2.49-3.5,2.03-5.42-.1-.41-.42-.56-.71-.76-4.43-3.11-7.2-7.29-8.17-12.64-.11-.63-.32-.91-1.04-.98-3.63-.35-6.24-2.22-7.52-5.63-1.25-3.34-.63-6.45,1.78-9.14,.38-.42,.53-.85,.52-1.4-.02-2.2-.02-4.4,0-6.6,.08-11.61,8.79-20.32,20.37-20.33,2.36,0,4.73-.23,7.07,.18,2.66,.46,4.88,1.75,6.63,3.79,.49,.57,.85,.62,1.5,.36,.81-.32,1.68-.55,2.54-.66,.63-.08,.86-.23,.88-.92,.06-2.76,1.41-4.02,4.22-4.02,10.61,0,21.22-.02,31.82,.02,.91,0,1.3-.28,1.66-1.11,2.96-6.88,10.39-10.51,17.69-8.69,7.05,1.76,11.97,8.58,11.36,15.89-.35,4.17-2.14,7.67-5.36,10.36-.76,.64-1.02,1.27-1.02,2.23,.03,20.54,.02,41.07,.02,61.61,0,3.37-1.27,4.65-4.61,4.65-9.17,0-18.33,.01-27.5-.02-.92,0-1.23,.18-1.14,1.17,.56,6.58,1.07,13.16,1.59,19.74,.06,.76,.13,1.52,.14,2.28,.04,2.69-1.85,4.62-4.57,4.62-9.37,0-18.73,0-28.1,0h-9.85ZM114.13,29.03c-2.94,1.28-5.84,1.7-8.81,1.18-8.21-1.46-13.48-8.86-12.61-16.45,.1-.88-.1-1.14-1.04-1.13-7.36,.04-14.73,.02-22.1,.02-3.12,0-6.24-.01-9.37,0-1.33,0-1.62,.32-1.63,1.65,0,1.08,.02,2.16,.02,3.24,0,24.46,0,48.91,0,73.37,0,1.69,.16,1.84,1.87,1.85,7.68,.07,15.36-.02,23.05,.09,9.48,.14,18.97,.03,28.46,.03,1.91,0,2.16-.25,2.16-2.12,0-20.17,0-40.35,0-60.52v-1.22Zm-57.96,52.71c-.5-.04-.64,.3-.86,.5-7.57,6.7-19.02,6.44-26.26-.63-.8-.78-1.35-2.08-2.27-2.4-.98-.34-2.09,.71-3.2,.99-4.35,1.06-8.69,2.15-13.03,3.24-4.22,1.06-5.72,2.97-6.01,7.33-.31,4.71-.73,9.42-1.1,14.12-.35,4.39-.71,8.78-1.03,13.17-.12,1.64,.7,2.51,2.3,2.52,3.04,.02,6.09-.01,9.13,.02,.61,0,.83-.15,.81-.79-.04-1.8-.02-3.6-.02-5.4,0-4.04,0-8.09,0-12.13,0-1.13,.59-1.79,1.42-1.59,.88,.21,.99,.89,.99,1.68-.01,5.64,.02,11.29-.03,16.93,0,.98,.14,1.33,1.26,1.33,16.33-.05,32.67-.04,49-.01,.89,0,1.2-.16,1.2-1.15-.05-5.56-.03-11.13-.03-16.69,0-.28,0-.56,0-.84,.03-.75,.41-1.23,1.17-1.26,.76-.02,1.16,.45,1.23,1.19,.02,.28,0,.56,0,.84,0,5.64,0,11.29-.01,16.93,0,.66,.06,.99,.88,.97,2.92-.06,5.84,0,8.77-.03,1.54-.01,2.37-.92,2.25-2.45-.57-7.26-1.17-14.52-1.7-21.78-.07-.94-.4-1.06-1.23-1.06-6.37,.03-12.73-.04-19.1,.05-2.48,.03-4.75-1.29-4.58-4.51,.15-3.02,.03-6.05,.03-9.08Zm0-32.68c0-4.08-.04-8.16,.03-12.24,.02-1.02-.3-1.35-1.24-1.53-2.97-.57-5.73-1.69-8.08-3.64-.67-.56-.98-.44-1.5,.15-2.41,2.73-5.41,4.57-8.89,5.59-3.15,.92-6.36,1.09-9.6,.59-.99-.16-1.34,.07-1.28,1.11,.08,1.56,.01,3.12,.02,4.68,.02,3.6-.19,7.22,.14,10.8,.59,6.42,5.72,12.11,12.1,13.9,6.47,1.81,13.87-.48,17.82-5.49,.37-.47,.49-.95,.49-1.54-.02-4.12,0-8.24,0-12.36Zm-36.52-11.47c1.1-.2,2.07-.6,3.11-.61,.22,0,.38-.11,.48-.31,.72-1.51,1.95-1.44,3.36-1.23,6.8,1.03,12.77-.46,17.43-5.86,1.35-1.56,2.39-1.59,3.97-.19,2.09,1.86,4.59,2.84,7.27,3.47,.66,.16,.92-.05,.91-.78-.03-4.6-.02-9.2,0-13.81,0-.7-.25-.8-.86-.65-.86,.2-1.7,.42-2.5,.82-1.53,.78-1.67,.75-2.64-.6-1.47-2.04-3.41-3.36-5.9-3.79-2.42-.41-4.87-.23-7.31-.16-6.95,.21-12.06,3.48-15.41,9.55-2.46,4.45-1.9,9.29-1.91,14.12Zm88.12-9.73c7.11,0,12.77-5.58,12.81-12.63,.04-7.06-5.73-12.86-12.78-12.84-7.07,.01-12.68,5.64-12.69,12.74,0,7.09,5.6,12.72,12.66,12.73ZM29.12,77.91c.03,.07,.04,.15,.08,.21,6.26,8.47,19.8,8.7,26.38,.46,.55-.69,.31-.9-.32-1.17-2.94-1.23-4.75-3.32-4.9-6.6-.04-.83-.41-.64-.91-.45-2.41,.93-4.9,1.28-7.48,1.24-2.46-.03-4.77-.67-7.06-1.49-.45,4.06-.76,4.47-5.79,7.79Zm-6.04-32.08c0-1.84-.02-3.68,.01-5.52,0-.61-.1-.81-.8-.74-3.06,.3-5.49,3.01-5.5,6.23-.01,3.19,2.44,6.03,5.42,6.35,.68,.07,.9-.08,.89-.79-.05-1.84-.02-3.68-.02-5.52Zm33.11,20.26c-.73,.59-1.2,1.14-1.79,1.42-1.58,.75-1.79,1.97-1.6,3.52,.22,1.79,1.15,2.99,2.71,3.79,.51,.26,.7,.18,.69-.42-.02-2.7,0-5.4,0-8.31Z"/><path class="cls-2" d="M114.13,29.03v1.22c0,20.17,0,40.35,0,60.52,0,1.87-.25,2.12-2.16,2.12-9.49,0-18.97,.1-28.46-.03-7.68-.11-15.37-.02-23.05-.09-1.71-.02-1.87-.17-1.87-1.85,0-24.46,0-48.91,0-73.37,0-1.08-.03-2.16-.02-3.24,.01-1.33,.3-1.64,1.63-1.65,3.12-.02,6.24,0,9.37,0,7.37,0,14.73,.02,22.1-.02,.94,0,1.14,.25,1.04,1.13-.88,7.59,4.39,14.99,12.61,16.45,2.97,.53,5.87,.1,8.81-1.18Zm-24.89,43.83c-4.96,0-9.92,0-14.87,0-.4,0-.8,.01-1.18,.11-.58,.14-.86,.6-.84,1.16,.03,.56,.33,.99,.93,1.09,.35,.06,.72,.05,1.08,.05,9.84,0,19.67,0,29.51,0,.36,0,.72,0,1.08-.05,.6-.09,.91-.52,.94-1.08,.04-.56-.24-1.03-.82-1.17-.38-.09-.79-.11-1.18-.11-4.88,0-9.76,0-14.63,0Zm-.17-15.84c5,0,10,0,14.99,0,.91,0,1.82-.08,1.8-1.22-.02-1.13-.94-1.23-1.84-1.2-.08,0-.16,0-.24,0-9.8,0-19.59,0-29.39,0-.32,0-.64-.01-.96,.03-.69,.1-1.11,.52-1.09,1.21,.02,.67,.42,1.11,1.14,1.16,.32,.02,.64,.02,.96,.02,4.88,0,9.76,0,14.63,0Zm-.08-12.17c4.92,0,9.84,0,14.75,0,.4,0,.8,0,1.19-.07,.63-.13,.98-.58,.94-1.21-.03-.61-.39-1.04-1.05-1.11-.32-.03-.64-.03-.96-.03-9.84,0-19.67,0-29.51,0-.36,0-.72,0-1.08,.05-.6,.09-.9,.53-.94,1.09-.03,.56,.25,1.02,.83,1.17,.38,.09,.79,.11,1.18,.11,4.88,0,9.76,0,14.63,0Zm.12,15.9c-5.08,0-10.17,0-15.25,0-.84,0-1.48,.28-1.5,1.16-.02,.88,.59,1.25,1.43,1.25,.12,0,.24,0,.36,0,9.97,0,19.94,0,29.91,0,.93,0,1.81-.16,1.8-1.26-.02-1.14-.96-1.17-1.85-1.16-4.96,.01-9.93,0-14.89,0Zm.1-12.22c-.6,0-1.2,0-1.8,0-4.48,0-8.97,0-13.45,0-1.18,0-1.85,.67-1.55,1.54,.27,.8,.93,.87,1.65,.87,10.01,0,20.02-.01,30.03,0,.93,0,1.8-.14,1.77-1.26-.03-1.04-.87-1.16-1.75-1.16-4.96,.02-9.93,0-14.89,0Zm-.06,18.26c-4.92,0-9.85,0-14.77,0-.32,0-.65-.03-.96,.02-.69,.1-1.09,.55-1.07,1.23,.02,.62,.41,1.03,1.04,1.13,.31,.05,.64,.02,.96,.02,9.85,0,19.7,0,29.55,0,.32,0,.65,.03,.96-.03,.63-.12,1-.54,1.01-1.16,0-.63-.36-1.05-.99-1.18-.31-.06-.64-.03-.96-.03-4.92,0-9.85,0-14.77,0Zm-2.65-33.96c-2.64,0-5.28,0-7.92,0-.87,0-1.7,.1-1.7,1.19,0,1.07,.82,1.23,1.69,1.23,5.28,0,10.56,0,15.84,0,.89,0,1.67-.21,1.64-1.28-.03-1-.8-1.15-1.63-1.14-2.64,.01-5.28,0-7.92,0Zm-18.78,24.2c.77,.07,1.59-.11,1.62-1.16,.03-.96-.69-1.25-1.55-1.25-.86,0-1.69,.12-1.73,1.19-.04,1,.68,1.25,1.66,1.22Zm.05-14.58c-.84-.04-1.67,.07-1.71,1.15-.03,.98,.68,1.25,1.54,1.26,.87,.02,1.7-.14,1.74-1.19,.04-.96-.66-1.27-1.57-1.23Zm-.1,32.84c.82,.06,1.64-.11,1.67-1.16,.03-.96-.69-1.25-1.55-1.25-.86,0-1.69,.12-1.73,1.19-.04,1,.68,1.25,1.61,1.22Zm.02-24.35c.84,.07,1.63-.16,1.65-1.2,.02-.95-.68-1.23-1.57-1.23-.88,0-1.69,.13-1.7,1.2-.02,.98,.69,1.25,1.62,1.22Zm.06,9.82c-.92-.05-1.71,.14-1.68,1.22,.02,.97,.76,1.19,1.61,1.19,.91,0,1.68-.26,1.66-1.27-.01-.95-.75-1.23-1.59-1.14Zm.02,6.03c-.89-.05-1.69,.12-1.71,1.19-.02,.98,.69,1.22,1.56,1.23,.9,.01,1.69-.17,1.71-1.21,.02-.95-.68-1.28-1.56-1.21Z"/><path class="cls-6" d="M56.17,81.74c0,3.03,.12,6.06-.03,9.08-.16,3.23,2.11,4.55,4.58,4.51,6.36-.08,12.73-.01,19.1-.05,.82,0,1.16,.12,1.23,1.06,.53,7.26,1.13,14.52,1.7,21.78,.12,1.54-.71,2.44-2.25,2.45-2.92,.02-5.85-.03-8.77,.03-.82,.02-.88-.31-.88-.97,.02-5.64,.01-11.29,.01-16.93,0-.28,.02-.56,0-.84-.07-.74-.47-1.21-1.23-1.19-.76,.02-1.14,.51-1.17,1.26-.01,.28,0,.56,0,.84,0,5.56-.03,11.13,.03,16.69,0,.98-.3,1.15-1.2,1.15-16.33-.03-32.67-.03-49,.01-1.12,0-1.27-.35-1.26-1.33,.05-5.64,.02-11.29,.03-16.93,0-.78-.11-1.47-.99-1.68-.83-.2-1.41,.46-1.42,1.59,0,4.04,0,8.09,0,12.13,0,1.8-.03,3.6,.02,5.4,.02,.65-.2,.8-.81,.79-3.04-.03-6.09,0-9.13-.02-1.6,0-2.42-.88-2.3-2.52,.32-4.39,.68-8.78,1.03-13.17,.37-4.71,.79-9.41,1.1-14.12,.29-4.36,1.78-6.27,6.01-7.33,4.34-1.09,8.68-2.18,13.03-3.24,1.12-.27,2.22-1.33,3.2-.99,.92,.32,1.47,1.62,2.27,2.4,7.24,7.07,18.69,7.33,26.26,.63,.22-.19,.36-.54,.86-.5Z"/><path class="cls-4" d="M56.17,49.06c0,4.12,0,8.24,0,12.36,0,.59-.12,1.07-.49,1.54-3.95,5.01-11.35,7.3-17.82,5.49-6.38-1.78-11.51-7.48-12.1-13.9-.33-3.57-.11-7.2-.14-10.8-.01-1.56,.06-3.12-.02-4.68-.05-1.04,.29-1.27,1.28-1.11,3.23,.51,6.45,.33,9.6-.59,3.49-1.02,6.48-2.86,8.89-5.59,.52-.59,.83-.71,1.5-.15,2.34,1.95,5.1,3.07,8.08,3.64,.95,.18,1.26,.52,1.24,1.53-.07,4.08-.03,8.16-.03,12.24Zm-13.61,12.59c3.32-.12,6.03-1.5,8-4.25,.49-.68,.53-1.37-.22-1.88-.69-.47-1.29-.2-1.75,.43-.09,.13-.19,.26-.29,.38-3.01,3.89-8.56,3.85-11.53-.09-.51-.68-1.04-1.37-1.94-.73-.93,.65-.58,1.45-.04,2.18,1.92,2.58,4.53,3.83,7.77,3.95Zm-7.82-17.18c-1.15-.01-2.13,.96-2.15,2.13-.02,1.21,.87,2.15,2.06,2.18,1.24,.03,2.24-.93,2.23-2.16,0-1.15-1-2.15-2.15-2.16Zm18.16,2.14c-.02-1.18-.98-2.14-2.14-2.14-1.14,0-2.14,1-2.15,2.15-.01,1.22,.99,2.19,2.23,2.16,1.19-.03,2.09-.97,2.07-2.18Z"/><path class="cls-5" d="M19.65,37.59c0-4.83-.55-9.66,1.91-14.12,3.36-6.07,8.46-9.34,15.41-9.55,2.43-.07,4.89-.26,7.31,.16,2.48,.42,4.43,1.74,5.9,3.79,.97,1.35,1.12,1.38,2.64,.6,.79-.41,1.64-.62,2.5-.82,.61-.14,.87-.05,.86,.65-.02,4.6-.02,9.2,0,13.81,0,.73-.25,.93-.91,.78-2.67-.64-5.18-1.62-7.27-3.47-1.58-1.4-2.62-1.37-3.97,.19-4.66,5.4-10.63,6.89-17.43,5.86-1.41-.21-2.64-.28-3.36,1.23-.09,.2-.26,.3-.48,.31-1.05,0-2.02,.4-3.11,.61Z"/><path class="cls-6" d="M107.78,27.87c-7.06,0-12.67-5.64-12.66-12.73,0-7.1,5.62-12.73,12.69-12.74,7.05-.01,12.82,5.78,12.78,12.84-.04,7.05-5.7,12.63-12.81,12.63Zm9.46-15.97c-.12-1.36-.76-2.49-2.13-3.12-1.43-.66-2.76-.4-3.9,.61-1.04,.93-2,1.96-2.99,2.95q-1.72,1.72-3.43,.09c-1.57-1.49-3.71-1.55-5.16-.14-1.5,1.46-1.48,3.62,.08,5.24,1.33,1.38,2.69,2.74,4.07,4.07,1.72,1.65,3.7,1.63,5.42-.06,2.31-2.27,4.59-4.58,6.88-6.87,.74-.74,1.13-1.63,1.15-2.79Z"/><path class="cls-4" d="M29.12,77.91c5.03-3.31,5.34-3.73,5.79-7.79,2.29,.82,4.6,1.45,7.06,1.49,2.59,.03,5.08-.32,7.48-1.24,.51-.2,.87-.38,.91,.45,.15,3.29,1.95,5.38,4.9,6.6,.63,.26,.87,.48,.32,1.17-6.58,8.23-20.12,8.01-26.38-.46-.04-.06-.06-.14-.08-.21Z"/><path class="cls-4" d="M23.07,45.83c0,1.84-.03,3.68,.02,5.52,.02,.71-.2,.87-.89,.79-2.98-.32-5.43-3.16-5.42-6.35,.01-3.22,2.44-5.93,5.5-6.23,.69-.07,.81,.14,.8,.74-.03,1.84-.01,3.68-.01,5.52Z"/><path class="cls-1" d="M56.18,66.08c0,2.91-.01,5.61,0,8.31,0,.6-.18,.69-.69,.42-1.56-.8-2.48-2-2.71-3.79-.19-1.55,.02-2.78,1.6-3.52,.59-.28,1.06-.83,1.79-1.42Z"/><path class="cls-7" d="M89.25,72.86c4.88,0,9.76,0,14.63,0,.4,0,.8,.02,1.18,.11,.58,.14,.86,.61,.82,1.17-.04,.56-.34,.99-.94,1.08-.35,.05-.72,.05-1.08,.05-9.84,0-19.67,0-29.51,0-.36,0-.72,0-1.08-.05-.6-.1-.9-.53-.93-1.09-.03-.56,.25-1.02,.84-1.16,.38-.09,.79-.11,1.18-.11,4.96,0,9.92,0,14.87,0Z"/><path class="cls-7" d="M89.08,57.02c-4.88,0-9.76,0-14.63,0-.32,0-.64,0-.96-.02-.71-.05-1.12-.48-1.14-1.16-.02-.68,.41-1.11,1.09-1.21,.31-.05,.64-.03,.96-.03,9.8,0,19.59,0,29.39,0,.08,0,.16,0,.24,0,.9-.03,1.82,.07,1.84,1.2,.02,1.14-.89,1.23-1.8,1.22-5-.01-10,0-14.99,0Z"/><path class="cls-7" d="M89,44.84c-4.88,0-9.76,0-14.63,0-.4,0-.8-.02-1.18-.11-.58-.14-.86-.6-.83-1.17,.03-.56,.33-.99,.94-1.09,.35-.05,.72-.05,1.08-.05,9.84,0,19.67,0,29.51,0,.32,0,.64,0,.96,.03,.66,.07,1.02,.5,1.05,1.11,.04,.62-.31,1.08-.94,1.21-.39,.08-.79,.07-1.19,.07-4.92,0-9.84,0-14.75,0Z"/><path class="cls-7" d="M89.12,60.74c4.96,0,9.93,0,14.89,0,.9,0,1.84,.02,1.85,1.16,.01,1.1-.87,1.26-1.8,1.26-9.97-.01-19.94,0-29.91,0-.12,0-.24,0-.36,0-.84,0-1.46-.38-1.43-1.25,.02-.88,.66-1.17,1.5-1.16,5.08,.02,10.17,0,15.25,0Z"/><path class="cls-7" d="M89.22,48.52c4.96,0,9.93,0,14.89,0,.88,0,1.72,.12,1.75,1.16,.03,1.12-.84,1.26-1.77,1.26-10.01-.01-20.02-.01-30.03,0-.73,0-1.38-.07-1.65-.87-.3-.86,.37-1.53,1.55-1.54,4.48,0,8.97,0,13.45,0,.6,0,1.2,0,1.8,0Z"/><path class="cls-7" d="M89.16,66.78c4.92,0,9.85,0,14.77,0,.32,0,.65-.03,.96,.03,.62,.13,.99,.56,.99,1.18,0,.62-.38,1.05-1.01,1.16-.31,.06-.64,.03-.96,.03-9.85,0-19.7,0-29.55,0-.32,0-.65,.03-.96-.02-.63-.1-1.02-.51-1.04-1.13-.02-.68,.38-1.12,1.07-1.23,.31-.05,.64-.02,.96-.02,4.92,0,9.85,0,14.77,0Z"/><path class="cls-7" d="M86.51,32.82c2.64,0,5.28,0,7.92,0,.83,0,1.6,.14,1.63,1.14,.03,1.06-.75,1.28-1.64,1.28-5.28,0-10.56,0-15.84,0-.88,0-1.69-.16-1.69-1.23,0-1.09,.83-1.2,1.7-1.19,2.64,.01,5.28,0,7.92,0Z"/><path class="cls-7" d="M67.74,57.01c-.98,.03-1.69-.23-1.66-1.22,.04-1.07,.86-1.2,1.73-1.19,.86,0,1.58,.3,1.55,1.25-.04,1.05-.85,1.23-1.62,1.16Z"/><path class="cls-7" d="M67.79,42.43c.9-.05,1.61,.26,1.57,1.23-.04,1.04-.87,1.21-1.74,1.19-.85-.02-1.57-.28-1.54-1.26,.04-1.09,.87-1.19,1.71-1.15Z"/><path class="cls-7" d="M67.69,75.27c-.92,.03-1.64-.23-1.61-1.22,.04-1.07,.86-1.2,1.73-1.19,.86,0,1.58,.3,1.55,1.25-.03,1.05-.85,1.22-1.67,1.16Z"/><path class="cls-7" d="M67.71,50.93c-.93,.04-1.64-.24-1.62-1.22,.02-1.07,.82-1.2,1.7-1.2,.88,0,1.59,.28,1.57,1.23-.02,1.03-.81,1.27-1.65,1.2Z"/><path class="cls-7" d="M67.76,60.74c.84-.08,1.58,.19,1.59,1.14,.01,1.01-.75,1.28-1.66,1.27-.85,0-1.58-.22-1.61-1.19-.03-1.08,.76-1.27,1.68-1.22Z"/><path class="cls-7" d="M67.79,66.78c.89-.06,1.58,.27,1.57,1.21-.02,1.04-.82,1.22-1.71,1.21-.87-.01-1.57-.26-1.56-1.23,.02-1.07,.82-1.24,1.7-1.19Z"/><path class="cls-7" d="M42.56,61.66c-3.24-.12-5.84-1.38-7.77-3.95-.55-.73-.89-1.53,.04-2.18,.91-.64,1.43,.05,1.94,.73,2.97,3.94,8.52,3.98,11.53,.09,.1-.13,.19-.26,.29-.38,.46-.63,1.06-.9,1.75-.43,.75,.51,.7,1.2,.22,1.88-1.98,2.75-4.68,4.14-8,4.25Z"/><path class="cls-7" d="M34.74,44.47c1.14,.01,2.14,1.01,2.15,2.16,0,1.22-.99,2.19-2.23,2.16-1.2-.03-2.08-.97-2.06-2.18,.02-1.17,.99-2.14,2.15-2.13Z"/><path class="cls-7" d="M52.91,46.61c.02,1.21-.87,2.15-2.07,2.18-1.24,.03-2.24-.94-2.23-2.16,.01-1.15,1.01-2.14,2.15-2.15,1.16,0,2.12,.96,2.14,2.14Z"/><path class="cls-7" d="M117.24,11.9c-.02,1.16-.41,2.05-1.15,2.79-2.29,2.29-4.57,4.6-6.88,6.87-1.71,1.68-3.7,1.7-5.42,.06-1.39-1.33-2.74-2.69-4.07-4.07-1.57-1.62-1.58-3.78-.08-5.24,1.45-1.41,3.59-1.36,5.16,.14q1.71,1.62,3.43-.09c.99-.99,1.95-2.02,2.99-2.95,1.14-1.02,2.47-1.27,3.9-.61,1.37,.63,2.01,1.76,2.13,3.12Zm-15.06,1.91c-.46,.06-.86,.22-1.04,.69-.21,.55-.06,1,.35,1.41,1.25,1.24,2.47,2.51,3.72,3.75,1,1,1.51,1.02,2.51,.03,2.13-2.11,4.24-4.25,6.37-6.36,.57-.57,1.12-1.21,.4-1.95-.78-.8-1.49-.35-2.15,.32-1.54,1.57-3.1,3.12-4.67,4.67-.95,.94-1.37,.94-2.31,.03-.69-.67-1.37-1.35-2.04-2.03-.32-.33-.68-.55-1.15-.57Z"/><path class="cls-3" d="M102.17,13.81c.47,.01,.83,.23,1.15,.56,.67,.69,1.35,1.36,2.04,2.03,.94,.91,1.35,.91,2.31-.03,1.57-1.55,3.13-3.1,4.67-4.67,.66-.67,1.38-1.12,2.15-.32,.72,.74,.17,1.38-.4,1.95-2.13,2.12-4.24,4.25-6.37,6.36-1,.99-1.51,.98-2.51-.03-1.24-1.25-2.47-2.51-3.72-3.75-.41-.41-.56-.86-.35-1.41,.18-.47,.58-.63,1.04-.69Z"/></g></g></svg>