<?xml version="1.0" encoding="UTF-8"?><svg id="Layer_2" xmlns="http://www.w3.org/2000/svg" viewBox="0 0 123.5 123.5"><defs><style>.cls-1{stroke-width:.85px;}.cls-1,.cls-2,.cls-3{fill:none;stroke:#1a2959;stroke-miterlimit:10;}.cls-4{fill:#fff;}.cls-5{fill:#b6e5f5;}.cls-6{fill:#add;}.cls-7{fill:#06ffd5;}.cls-8{fill:#1a2959;}.cls-2{stroke-width:1.42px;}</style></defs><g id="Layer_1-2"><g><g><path class="cls-8" d="M111.83,.71c7.06,1.76,11.98,8.58,11.37,15.89-.35,4.18-2.15,7.68-5.37,10.37-.76,.63-1.01,1.26-1.01,2.23,.02,20.53,.02,41.07,.02,61.6,0,3.37-1.28,4.65-4.61,4.66-9.17,0-18.34,.01-27.5-.02-.92-.01-1.23,.17-1.15,1.16,.56,6.58,1.07,13.16,1.59,19.74,.06,.76,.13,1.52,.14,2.28,.04,2.69-1.85,4.62-4.57,4.62-9.36,.01-18.73,0-28.1,0H5.45c-3.65,0-5.46-1.94-5.17-5.58,.71-9.18,1.43-18.35,2.16-27.53,.38-4.69,2.94-7.58,7.54-8.7,4.47-1.08,8.92-2.2,13.36-3.38,2.6-.69,4.9-2.11,7.23-3.4,1.66-.93,2.49-3.5,2.03-5.42-.1-.42-.42-.56-.71-.76-4.42-3.12-7.2-7.3-8.17-12.64-.11-.63-.32-.91-1.04-.98-3.63-.35-6.25-2.22-7.52-5.63-1.25-3.34-.63-6.45,1.78-9.14,.38-.42,.52-.84,.52-1.4-.02-2.2-.02-4.4-.01-6.6,.08-11.61,8.79-20.32,20.38-20.33,2.35,0,4.72-.23,7.07,.18,2.65,.46,4.88,1.75,6.62,3.79,.49,.57,.85,.63,1.5,.37,.81-.32,1.67-.66,2.54-.66,.33,0,.26-.23,.27-.92,.06-2.76,2.02-4.02,4.83-4.02,10.61,0,21.22-.02,31.83,.02,.91,0,1.3-.29,1.66-1.11,2.96-6.88,10.39-10.5,17.68-8.69Zm9.01,14.78c.03-7.06-5.74-12.86-12.79-12.85-7.07,.02-12.68,5.65-12.69,12.75,0,7.08,5.6,12.72,12.67,12.72,7.1,.01,12.77-5.58,12.81-12.62Zm-6.46,75.52V29.27c-2.94,1.28-5.84,1.71-8.81,1.18-8.22-1.46-13.49-8.86-12.61-16.45,.1-.88-.1-1.14-1.04-1.13-7.37,.04-14.73,.02-22.1,.02-3.12,0-6.24-.01-9.36,.01-1.33,0-1.62,.31-1.63,1.65-.01,1.08,.02,2.16,.02,3.24V91.16c0,1.68,.16,1.83,1.86,1.85,7.69,.07,15.37-.02,23.05,.09,9.49,.13,18.97,.03,28.46,.03,1.91,0,2.16-.25,2.16-2.12Zm-33.64,29.82c1.54-.01,2.37-.92,2.25-2.46-.56-7.26-1.17-14.51-1.7-21.78-.07-.94-.4-1.06-1.22-1.06-6.37,.03-12.73-.04-19.1,.05-2.48,.03-4.75-1.29-4.58-4.52,.15-3.01,.03-6.04,.03-9.07-.5-.04-.64,.3-.86,.49-7.57,6.7-19.03,6.44-26.26-.62-.8-.78-1.35-2.08-2.27-2.4-.98-.34-2.08,.71-3.2,.99-4.35,1.06-8.69,2.15-13.03,3.24-4.22,1.06-5.72,2.97-6.01,7.33-.31,4.71-.73,9.42-1.1,14.12-.35,4.39-.71,8.78-1.03,13.17-.12,1.64,.7,2.51,2.31,2.52,3.04,.02,6.08-.01,9.12,.02,.62,0,.83-.15,.81-.79-.04-1.8-.01-3.61-.01-5.41,0-4.04-.01-8.09,0-12.13,0-1.13,.59-1.79,1.42-1.59,.88,.21,.99,.89,.99,1.67-.01,5.65,.02,11.29-.03,16.94,0,.98,.14,1.33,1.26,1.33,16.34-.05,32.67-.04,49-.02,.9,.01,1.21-.16,1.2-1.14-.05-5.57-.03-11.13-.03-16.7,0-.28,0-.56,.01-.84,.03-.75,.41-1.23,1.16-1.25,.76-.02,1.17,.44,1.23,1.19,.03,.28,0,.56,0,.84,0,5.64,.01,11.29,0,16.93,0,.67,.06,.99,.87,.98,2.93-.06,5.85-.01,8.77-.03ZM56.45,37.06c.02-1.01-.3-1.35-1.24-1.53-2.97-.57-5.74-1.69-8.08-3.64-.67-.56-.97-.44-1.5,.15-2.41,2.73-5.4,4.57-8.89,5.59-3.15,.91-6.36,1.09-9.6,.58-.99-.15-1.34,.07-1.28,1.11,.08,1.56,.01,3.13,.02,4.69,.02,3.6-.19,7.22,.14,10.79,.58,6.42,5.71,12.12,12.1,13.9,6.47,1.81,13.87-.48,17.82-5.49,.37-.47,.49-.95,.49-1.54-.02-4.12-.01-8.24-.01-12.36s-.04-8.17,.03-12.25Zm-.71,38c.51,.27,.7,.18,.69-.42-.01-2.7,0-5.4,0-8.31-.74,.59-1.2,1.14-1.8,1.42-1.57,.75-1.79,1.97-1.6,3.52,.23,1.79,1.15,2.99,2.71,3.79Zm.69-56.51c.01-.71-.25-.8-.86-.66-.86,.2-1.7,.42-2.5,.83-1.52,.78-1.67,.75-2.64-.6-1.46-2.04-3.41-3.36-5.9-3.79-2.42-.41-4.87-.23-7.3-.15-6.95,.2-12.06,3.47-15.41,9.54-2.47,4.46-1.91,9.29-1.92,14.12,1.1-.2,2.07-.6,3.11-.61,.22,0,.39-.11,.48-.3,.73-1.51,1.95-1.44,3.37-1.23,6.79,1.03,12.77-.46,17.42-5.86,1.35-1.56,2.4-1.58,3.98-.18,2.09,1.85,4.59,2.84,7.26,3.47,.66,.16,.92-.05,.92-.78-.03-4.6-.03-9.2-.01-13.8Zm-.6,60.28c.55-.69,.3-.91-.32-1.17-2.95-1.23-4.75-3.32-4.9-6.6-.04-.83-.41-.64-.91-.45-2.41,.93-4.9,1.28-7.49,1.25-2.46-.04-4.76-.67-7.06-1.49-.45,4.06-.76,4.47-5.79,7.79,.03,.07,.05,.14,.09,.2,6.26,8.47,19.8,8.7,26.38,.47ZM22.45,52.39c.68,.07,.9-.08,.89-.79-.05-1.84-.02-3.69-.02-5.53s-.02-3.68,.01-5.52c.01-.61-.1-.81-.8-.74-3.06,.3-5.49,3.01-5.5,6.23,0,3.19,2.44,6.03,5.42,6.35Z"/><path class="cls-7" d="M108.05,2.64c7.05-.01,12.82,5.79,12.79,12.85-.04,7.04-5.71,12.63-12.81,12.62-7.07,0-12.68-5.64-12.67-12.72,.01-7.1,5.62-12.73,12.69-12.75Zm8.28,12.3c.74-.74,1.13-1.63,1.15-2.79-.11-1.36-.76-2.49-2.12-3.12-1.43-.66-2.76-.4-3.9,.62-1.04,.93-2,1.95-2.99,2.94q-1.72,1.72-3.43,.1c-1.57-1.5-3.71-1.55-5.16-.14-1.5,1.46-1.49,3.62,.08,5.24,1.34,1.38,2.69,2.75,4.08,4.07,1.71,1.65,3.7,1.63,5.42-.05,2.31-2.27,4.58-4.58,6.87-6.87Z"/><path class="cls-8" d="M117.48,12.15c-.02,1.16-.41,2.05-1.15,2.79-2.29,2.29-4.56,4.6-6.87,6.87-1.72,1.68-3.71,1.7-5.42,.05-1.39-1.32-2.74-2.69-4.08-4.07-1.57-1.62-1.58-3.78-.08-5.24,1.45-1.41,3.59-1.36,5.16,.14q1.71,1.62,3.43-.1c.99-.99,1.95-2.01,2.99-2.94,1.14-1.02,2.47-1.28,3.9-.62,1.36,.63,2.01,1.76,2.12,3.12Zm-3.15,1.42c.57-.57,1.12-1.21,.4-1.94-.77-.8-1.49-.35-2.15,.32-1.54,1.57-3.1,3.12-4.67,4.67-.95,.95-1.37,.94-2.3,.03-.69-.67-1.37-1.34-2.04-2.03-.32-.33-.68-.55-1.15-.57-.46,.06-.85,.23-1.04,.7-.21,.54-.05,1,.36,1.41,1.24,1.24,2.47,2.51,3.71,3.75,1.01,1,1.51,1.02,2.51,.03,2.13-2.12,4.25-4.25,6.37-6.37Z"/><path class="cls-5" d="M114.38,30.49v60.52c0,1.87-.25,2.12-2.16,2.12-9.49,0-18.97,.1-28.46-.03-7.68-.11-15.36-.02-23.05-.09-1.7-.02-1.86-.17-1.86-1.85V17.79c0-1.08-.03-2.16-.02-3.24,.01-1.34,.3-1.65,1.63-1.65,3.12-.02,6.24-.01,9.36-.01,7.37,0,14.73,.02,22.1-.02,.94-.01,1.14,.25,1.04,1.13-.88,7.59,4.39,14.99,12.61,16.45,2.97,.53,5.87,.1,8.81-1.18v1.22Zm-8.25,43.9c.04-.56-.24-1.03-.82-1.17-.38-.1-.79-.11-1.18-.11-4.88-.01-9.76-.01-14.64-.01s-9.91,0-14.87,.01c-.39,0-.8,.01-1.18,.1-.59,.14-.87,.6-.84,1.17,.03,.55,.33,.99,.93,1.09,.35,.05,.72,.05,1.08,.05h29.5c.36,0,.72,0,1.08-.05,.6-.09,.9-.52,.94-1.08Zm-.94-29.38c.63-.12,.98-.58,.94-1.2-.03-.62-.39-1.04-1.05-1.11-.32-.03-.64-.03-.96-.03h-29.51c-.36,0-.72,0-1.07,.05-.6,.1-.91,.53-.94,1.09s.25,1.02,.83,1.16c.38,.1,.79,.11,1.18,.11,4.88,0,9.76,0,14.64,0h14.75c.4,0,.8,0,1.19-.08Zm.93,23.22c.01-.62-.36-1.05-.98-1.18-.31-.06-.64-.02-.96-.03h-29.55c-.32,0-.64-.02-.96,.02-.69,.11-1.08,.55-1.06,1.23,.02,.62,.41,1.04,1.04,1.13,.32,.05,.64,.03,.96,.03h29.55c.32,0,.65,.03,.96-.03,.62-.12,1-.54,1-1.17Zm-1.8-10.96c.91,0,1.82-.08,1.8-1.23-.02-1.12-.95-1.22-1.84-1.2-.08,.01-.16,.01-.24,.01-9.8,0-19.59-.01-29.39,0-.32,0-.64-.02-.96,.03-.68,.1-1.11,.52-1.09,1.21,.02,.67,.42,1.1,1.14,1.15,.32,.03,.64,.02,.96,.02h14.63c5,0,9.99,0,14.99,.01Zm-.01,6.13c.93,0,1.82-.16,1.8-1.26,0-1.14-.96-1.16-1.85-1.16-4.97,.01-9.93,.01-14.89,.01s-10.17,0-15.26-.01c-.84,0-1.48,.28-1.5,1.16s.6,1.25,1.44,1.25h.36c9.97,0,19.94,0,29.9,.01Zm.03-12.22c.93,0,1.8-.14,1.77-1.26-.03-1.04-.87-1.17-1.75-1.16-4.97,.02-9.93,.01-14.9,.01h-1.8c-4.48,0-8.96-.01-13.45,0-1.18,0-1.85,.67-1.55,1.54,.28,.79,.93,.86,1.65,.86,10.01-.01,20.02-.01,30.03,0Zm-9.67-15.7c.89,0,1.67-.21,1.64-1.28-.03-1-.8-1.15-1.63-1.14-2.64,.01-5.28,0-7.92,0s-5.28,.01-7.92,0c-.87-.01-1.7,.1-1.7,1.19s.81,1.23,1.69,1.23h15.84Zm-25.06,38.87c.03-.95-.69-1.25-1.56-1.25s-1.69,.13-1.72,1.19c-.04,1,.68,1.25,1.6,1.23,.82,.06,1.64-.11,1.68-1.17Zm0-18.25c.03-.96-.69-1.25-1.56-1.26-.86,0-1.69,.13-1.72,1.2-.04,.99,.68,1.25,1.65,1.22,.78,.07,1.59-.11,1.63-1.16Zm0,12.14c.02-.95-.68-1.28-1.57-1.22-.88-.05-1.68,.12-1.7,1.19-.02,.98,.69,1.22,1.56,1.23,.89,.01,1.69-.17,1.71-1.2Zm-1.66-4.84c.91,.01,1.67-.26,1.66-1.27-.01-.95-.75-1.23-1.59-1.14-.92-.06-1.71,.14-1.68,1.22,.02,.97,.76,1.18,1.61,1.19Zm1.66-13.42c.02-.95-.68-1.23-1.57-1.23s-1.68,.13-1.7,1.2c-.02,.98,.69,1.26,1.62,1.22,.84,.07,1.63-.16,1.65-1.19Zm0-6.08c.04-.96-.66-1.27-1.57-1.22-.83-.05-1.67,.06-1.71,1.15-.03,.98,.69,1.24,1.54,1.26,.88,.02,1.7-.14,1.74-1.19Z"/><path class="cls-8" d="M105.31,73.22c.58,.14,.86,.61,.82,1.17s-.34,.99-.94,1.08c-.36,.05-.72,.05-1.08,.05h-29.5c-.36,0-.73,0-1.08-.05-.6-.1-.9-.54-.93-1.09-.03-.57,.25-1.03,.84-1.17,.38-.09,.79-.1,1.18-.1,4.96-.01,9.92-.01,14.87-.01s9.76,0,14.64,.01c.39,0,.8,.01,1.18,.11Z"/><path class="cls-8" d="M106.13,43.81c.04,.62-.31,1.08-.94,1.2-.39,.08-.79,.08-1.19,.08h-14.75c-4.88,0-9.76,0-14.64,0-.39,0-.8-.01-1.18-.11-.58-.14-.86-.6-.83-1.16s.34-.99,.94-1.09c.35-.05,.71-.05,1.07-.05h29.51c.32,0,.64,0,.96,.03,.66,.07,1.02,.49,1.05,1.11Z"/><path class="cls-8" d="M105.14,67.05c.62,.13,.99,.56,.98,1.18,0,.63-.38,1.05-1,1.17-.31,.06-.64,.03-.96,.03h-29.55c-.32,0-.64,.02-.96-.03-.63-.09-1.02-.51-1.04-1.13-.02-.68,.37-1.12,1.06-1.23,.32-.04,.64-.02,.96-.02h29.55c.32,.01,.65-.03,.96,.03Z"/><path class="cls-8" d="M106.12,56.04c.02,1.15-.89,1.23-1.8,1.23-5-.01-9.99-.01-14.99-.01h-14.63c-.32,0-.64,.01-.96-.02-.72-.05-1.12-.48-1.14-1.15-.02-.69,.41-1.11,1.09-1.21,.32-.05,.64-.03,.96-.03,9.8-.01,19.59,0,29.39,0,.08,0,.16,0,.24-.01,.89-.02,1.82,.08,1.84,1.2Z"/><path class="cls-8" d="M106.11,62.14c.02,1.1-.87,1.26-1.8,1.26-9.96-.01-19.93-.01-29.9-.01h-.36c-.84,0-1.46-.37-1.44-1.25s.66-1.16,1.5-1.16c5.09,.01,10.17,.01,15.26,.01s9.92,0,14.89-.01c.89,0,1.84,.02,1.85,1.16Z"/><path class="cls-8" d="M106.11,49.92c.03,1.12-.84,1.26-1.77,1.26-10.01-.02-20.02-.02-30.03,0-.72,0-1.37-.07-1.65-.86-.3-.87,.37-1.54,1.55-1.54,4.49-.01,8.97,0,13.45,0h1.8c4.97,0,9.93,.01,14.9-.01,.88,0,1.72,.12,1.75,1.16Z"/><path class="cls-8" d="M96.31,34.2c.03,1.07-.75,1.28-1.64,1.28h-15.84c-.88,0-1.69-.16-1.69-1.23s.83-1.2,1.7-1.19c2.64,.01,5.28,0,7.92,0s5.28,.01,7.92,0c.83-.01,1.6,.14,1.63,1.14Z"/><path class="cls-7" d="M82.99,118.37c.12,1.54-.71,2.45-2.25,2.46-2.92,.02-5.84-.03-8.77,.03-.81,.01-.87-.31-.87-.98,.02-5.64,0-11.29,0-16.93,0-.28,.02-.56,0-.84-.06-.75-.47-1.21-1.23-1.19-.75,.02-1.13,.5-1.16,1.25-.01,.28-.01,.56-.01,.84,0,5.57-.02,11.13,.03,16.7,.01,.98-.3,1.15-1.2,1.14-16.33-.02-32.66-.03-49,.02-1.12,0-1.26-.35-1.26-1.33,.05-5.65,.02-11.29,.03-16.94,0-.78-.11-1.46-.99-1.67-.83-.2-1.42,.46-1.42,1.59-.01,4.04,0,8.09,0,12.13,0,1.8-.03,3.61,.01,5.41,.02,.64-.19,.79-.81,.79-3.04-.03-6.08,0-9.12-.02-1.61-.01-2.43-.88-2.31-2.52,.32-4.39,.68-8.78,1.03-13.17,.37-4.7,.79-9.41,1.1-14.12,.29-4.36,1.79-6.27,6.01-7.33,4.34-1.09,8.68-2.18,13.03-3.24,1.12-.28,2.22-1.33,3.2-.99,.92,.32,1.47,1.62,2.27,2.4,7.23,7.06,18.69,7.32,26.26,.62,.22-.19,.36-.53,.86-.49,0,3.03,.12,6.06-.03,9.07-.17,3.23,2.1,4.55,4.58,4.52,6.37-.09,12.73-.02,19.1-.05,.82,0,1.15,.12,1.22,1.06,.53,7.27,1.14,14.52,1.7,21.78Z"/><path class="cls-8" d="M68.05,73.1c.87,0,1.59,.3,1.56,1.25-.04,1.06-.86,1.23-1.68,1.17-.92,.02-1.64-.23-1.6-1.23,.03-1.06,.86-1.19,1.72-1.19Z"/><path class="cls-8" d="M68.05,54.84c.87,.01,1.59,.3,1.56,1.26-.04,1.05-.85,1.23-1.63,1.16-.97,.03-1.69-.23-1.65-1.22,.03-1.07,.86-1.2,1.72-1.2Z"/><path class="cls-8" d="M68.03,67.02c.89-.06,1.59,.27,1.57,1.22-.02,1.03-.82,1.21-1.71,1.2-.87-.01-1.58-.25-1.56-1.23,.02-1.07,.82-1.24,1.7-1.19Z"/><path class="cls-8" d="M69.6,62.13c0,1.01-.75,1.28-1.66,1.27-.85-.01-1.59-.22-1.61-1.19-.03-1.08,.76-1.28,1.68-1.22,.84-.09,1.58,.19,1.59,1.14Z"/><path class="cls-8" d="M68.03,48.75c.89,0,1.59,.28,1.57,1.23-.02,1.03-.81,1.26-1.65,1.19-.93,.04-1.64-.24-1.62-1.22,.02-1.07,.82-1.2,1.7-1.2Z"/><path class="cls-8" d="M68.03,42.68c.91-.05,1.61,.26,1.57,1.22-.04,1.05-.86,1.21-1.74,1.19-.85-.02-1.57-.28-1.54-1.26,.04-1.09,.88-1.2,1.71-1.15Z"/><path class="cls-4" d="M55.21,35.53c.94,.18,1.26,.52,1.24,1.53-.07,4.08-.03,8.17-.03,12.25s-.01,8.24,.01,12.36c0,.59-.12,1.07-.49,1.54-3.95,5.01-11.35,7.3-17.82,5.49-6.39-1.78-11.52-7.48-12.1-13.9-.33-3.57-.12-7.19-.14-10.79-.01-1.56,.06-3.13-.02-4.69-.06-1.04,.29-1.26,1.28-1.11,3.24,.51,6.45,.33,9.6-.58,3.49-1.02,6.48-2.86,8.89-5.59,.53-.59,.83-.71,1.5-.15,2.34,1.95,5.11,3.07,8.08,3.64Zm-4.12,13.5c1.19-.03,2.08-.97,2.06-2.18-.01-1.18-.98-2.14-2.14-2.13-1.13,0-2.13,1-2.15,2.15,0,1.22,.99,2.19,2.23,2.16Zm-.27,8.62c.48-.68,.53-1.37-.22-1.88-.69-.47-1.29-.2-1.75,.43-.1,.13-.19,.26-.29,.39-3.01,3.88-8.56,3.85-11.53-.09-.51-.68-1.04-1.37-1.95-.73-.93,.65-.58,1.44-.03,2.18,1.92,2.57,4.53,3.83,7.76,3.95,3.32-.11,6.03-1.5,8.01-4.25Zm-13.68-10.78c-.01-1.14-1.01-2.14-2.15-2.15-1.15-.01-2.13,.95-2.15,2.13-.02,1.21,.87,2.15,2.06,2.18,1.24,.03,2.24-.93,2.24-2.16Z"/><path class="cls-6" d="M55.57,17.89c.61-.14,.87-.05,.86,.66-.02,4.6-.02,9.2,.01,13.8,0,.73-.26,.94-.92,.78-2.67-.63-5.17-1.62-7.26-3.47-1.58-1.4-2.63-1.38-3.98,.18-4.65,5.4-10.63,6.89-17.42,5.86-1.42-.21-2.64-.28-3.37,1.23-.09,.19-.26,.3-.48,.3-1.04,.01-2.01,.41-3.11,.61,.01-4.83-.55-9.66,1.92-14.12,3.35-6.07,8.46-9.34,15.41-9.54,2.43-.08,4.88-.26,7.3,.15,2.49,.43,4.44,1.75,5.9,3.79,.97,1.35,1.12,1.38,2.64,.6,.8-.41,1.64-.63,2.5-.83Z"/><path class="cls-4" d="M55.51,77.66c.62,.26,.87,.48,.32,1.17-6.58,8.23-20.12,8-26.38-.47-.04-.06-.06-.13-.09-.2,5.03-3.32,5.34-3.73,5.79-7.79,2.3,.82,4.6,1.45,7.06,1.49,2.59,.03,5.08-.32,7.49-1.25,.5-.19,.87-.38,.91,.45,.15,3.28,1.95,5.37,4.9,6.6Z"/><path class="cls-8" d="M53.15,46.85c.02,1.21-.87,2.15-2.06,2.18-1.24,.03-2.24-.94-2.23-2.16,.02-1.15,1.02-2.15,2.15-2.15,1.16-.01,2.13,.95,2.14,2.13Z"/><path class="cls-8" d="M50.6,55.77c.75,.51,.7,1.2,.22,1.88-1.98,2.75-4.69,4.14-8.01,4.25-3.23-.12-5.84-1.38-7.76-3.95-.55-.74-.9-1.53,.03-2.18,.91-.64,1.44,.05,1.95,.73,2.97,3.94,8.52,3.97,11.53,.09,.1-.13,.19-.26,.29-.39,.46-.63,1.06-.9,1.75-.43Z"/><path class="cls-8" d="M34.99,44.72c1.14,.01,2.14,1.01,2.15,2.15,0,1.23-1,2.19-2.24,2.16-1.19-.03-2.08-.97-2.06-2.18,.02-1.18,1-2.14,2.15-2.13Z"/><path class="cls-4" d="M23.34,51.6c.01,.71-.21,.86-.89,.79-2.98-.32-5.43-3.16-5.42-6.35,.01-3.22,2.44-5.93,5.5-6.23,.7-.07,.81,.13,.8,.74-.03,1.84-.01,3.68-.01,5.52s-.03,3.69,.02,5.53Z"/></g><g><path class="cls-3" d="M114.38,29.27c-2.94,1.28-5.84,1.71-8.81,1.18-8.22-1.46-13.49-8.86-12.61-16.45,.1-.88-.1-1.14-1.04-1.13-7.37,.04-14.73,.02-22.1,.02-3.12,0-6.24-.01-9.36,.01-1.33,0-1.62,.31-1.63,1.65-.01,1.08,.02,2.16,.02,3.24V91.16c0,1.68,.16,1.83,1.86,1.85,7.69,.07,15.37-.02,23.05,.09,9.49,.13,18.97,.03,28.46,.03,1.91,0,2.16-.25,2.16-2.12V29.27Z"/><path class="cls-2" d="M56.42,81.99c0,3.03,.12,6.06-.03,9.07-.17,3.23,2.1,4.55,4.58,4.52,6.37-.09,12.73-.02,19.1-.05,.82,0,1.15,.12,1.22,1.06,.53,7.27,1.14,14.52,1.7,21.78,.12,1.54-.71,2.45-2.25,2.46-2.92,.02-5.84-.03-8.77,.03-.81,.01-.87-.31-.87-.98,.02-5.64,0-11.29,0-16.93,0-.28,.02-.56,0-.84-.06-.75-.47-1.21-1.23-1.19-.75,.02-1.13,.5-1.16,1.25-.01,.28-.01,.56-.01,.84,0,5.57-.02,11.13,.03,16.7,.01,.98-.3,1.15-1.2,1.14-16.33-.02-32.66-.03-49,.02-1.12,0-1.26-.35-1.26-1.33,.05-5.65,.02-11.29,.03-16.94,0-.78-.11-1.46-.99-1.67-.83-.2-1.42,.46-1.42,1.59-.01,4.04,0,8.09,0,12.13,0,1.8-.03,3.61,.01,5.41,.02,.64-.19,.79-.81,.79-3.04-.03-6.08,0-9.12-.02-1.61-.01-2.43-.88-2.31-2.52,.32-4.39,.68-8.78,1.03-13.17,.37-4.7,.79-9.41,1.1-14.12,.29-4.36,1.79-6.27,6.01-7.33,4.34-1.09,8.68-2.18,13.03-3.24,1.12-.28,2.22-1.33,3.2-.99,.92,.32,1.47,1.62,2.27,2.4,7.23,7.06,18.69,7.32,26.26,.62,.22-.19,.36-.53,.86-.49Z"/><path class="cls-2" d="M56.42,49.31c0,4.12-.01,8.24,.01,12.36,0,.59-.12,1.07-.49,1.54-3.95,5.01-11.35,7.3-17.82,5.49-6.39-1.78-11.52-7.48-12.1-13.9-.33-3.57-.12-7.19-.14-10.79-.01-1.56,.06-3.13-.02-4.69-.06-1.04,.29-1.26,1.28-1.11,3.24,.51,6.45,.33,9.6-.58,3.49-1.02,6.48-2.86,8.89-5.59,.53-.59,.83-.71,1.5-.15,2.34,1.95,5.11,3.07,8.08,3.64,.94,.18,1.26,.52,1.24,1.53-.07,4.08-.03,8.17-.03,12.25Z"/><path class="cls-2" d="M19.9,37.84c.01-4.83-.55-9.66,1.92-14.12,3.35-6.07,8.46-9.34,15.41-9.54,2.43-.08,4.88-.26,7.3,.15,2.49,.43,4.44,1.75,5.9,3.79,.97,1.35,1.12,1.38,2.64,.6,.8-.41,1.64-.63,2.5-.83,.61-.14,.87-.05,.86,.66-.02,4.6-.02,9.2,.01,13.8,0,.73-.26,.94-.92,.78-2.67-.63-5.17-1.62-7.26-3.47-1.58-1.4-2.63-1.38-3.98,.18-4.65,5.4-10.63,6.89-17.42,5.86-1.42-.21-2.64-.28-3.37,1.23-.09,.19-.26,.3-.48,.3-1.04,.01-2.01,.41-3.11,.61Z"/><path class="cls-2" d="M29.36,78.16c5.03-3.32,5.34-3.73,5.79-7.79,2.3,.82,4.6,1.45,7.06,1.49,2.59,.03,5.08-.32,7.49-1.25,.5-.19,.87-.38,.91,.45,.15,3.28,1.95,5.37,4.9,6.6,.62,.26,.87,.48,.32,1.17-6.58,8.23-20.12,8-26.38-.47-.04-.06-.06-.13-.09-.2Z"/><path class="cls-2" d="M23.32,46.07c0,1.84-.03,3.69,.02,5.53,.01,.71-.21,.86-.89,.79-2.98-.32-5.43-3.16-5.42-6.35,.01-3.22,2.44-5.93,5.5-6.23,.7-.07,.81,.13,.8,.74-.03,1.84-.01,3.68-.01,5.52Z"/><path class="cls-1" d="M89.49,73.1c4.88,0,9.76,0,14.64,.01,.39,0,.8,.01,1.18,.11,.58,.14,.86,.61,.82,1.17s-.34,.99-.94,1.08c-.36,.05-.72,.05-1.08,.05h-29.5c-.36,0-.73,0-1.08-.05-.6-.1-.9-.54-.93-1.09-.03-.57,.25-1.03,.84-1.17,.38-.09,.79-.1,1.18-.1,4.96-.01,9.92-.01,14.87-.01Z"/><path class="cls-1" d="M89.33,57.26h-14.63c-.32,0-.64,.01-.96-.02-.72-.05-1.12-.48-1.14-1.15-.02-.69,.41-1.11,1.09-1.21,.32-.05,.64-.03,.96-.03,9.8-.01,19.59,0,29.39,0,.08,0,.16,0,.24-.01,.89-.02,1.82,.08,1.84,1.2,.02,1.15-.89,1.23-1.8,1.23-5-.01-9.99-.01-14.99-.01Z"/><path class="cls-1" d="M89.25,45.09c-4.88,0-9.76,0-14.64,0-.39,0-.8-.01-1.18-.11-.58-.14-.86-.6-.83-1.16s.34-.99,.94-1.09c.35-.05,.71-.05,1.07-.05h29.51c.32,0,.64,0,.96,.03,.66,.07,1.02,.49,1.05,1.11,.04,.62-.31,1.08-.94,1.2-.39,.08-.79,.08-1.19,.08h-14.75Z"/><path class="cls-1" d="M89.37,60.99c4.96,0,9.92,0,14.89-.01,.89,0,1.84,.02,1.85,1.16,.02,1.1-.87,1.26-1.8,1.26-9.96-.01-19.93-.01-29.9-.01h-.36c-.84,0-1.46-.37-1.44-1.25s.66-1.16,1.5-1.16c5.09,.01,10.17,.01,15.26,.01Z"/><path class="cls-1" d="M89.46,48.77c4.97,0,9.93,.01,14.9-.01,.88,0,1.72,.12,1.75,1.16,.03,1.12-.84,1.26-1.77,1.26-10.01-.02-20.02-.02-30.03,0-.72,0-1.37-.07-1.65-.86-.3-.87,.37-1.54,1.55-1.54,4.49-.01,8.97,0,13.45,0h1.8Z"/><path class="cls-1" d="M89.41,67.02h14.77c.32,.01,.65-.03,.96,.03,.62,.13,.99,.56,.98,1.18,0,.63-.38,1.05-1,1.17-.31,.06-.64,.03-.96,.03h-29.55c-.32,0-.64,.02-.96-.03-.63-.09-1.02-.51-1.04-1.13-.02-.68,.37-1.12,1.06-1.23,.32-.04,.64-.02,.96-.02h14.78Z"/><path class="cls-1" d="M86.76,33.06c2.64,0,5.28,.01,7.92,0,.83-.01,1.6,.14,1.63,1.14,.03,1.07-.75,1.28-1.64,1.28h-15.84c-.88,0-1.69-.16-1.69-1.23s.83-1.2,1.7-1.19c2.64,.01,5.28,0,7.92,0Z"/><path class="cls-1" d="M67.98,57.26c-.97,.03-1.69-.23-1.65-1.22,.03-1.07,.86-1.2,1.72-1.2,.87,.01,1.59,.3,1.56,1.26-.04,1.05-.85,1.23-1.63,1.16Z"/><path class="cls-1" d="M68.03,42.68c.91-.05,1.61,.26,1.57,1.22-.04,1.05-.86,1.21-1.74,1.19-.85-.02-1.57-.28-1.54-1.26,.04-1.09,.88-1.2,1.71-1.15Z"/><path class="cls-1" d="M67.93,75.52c-.92,.02-1.64-.23-1.6-1.23,.03-1.06,.86-1.19,1.72-1.19s1.59,.3,1.56,1.25c-.04,1.06-.86,1.23-1.68,1.17Z"/><path class="cls-1" d="M67.95,51.17c-.93,.04-1.64-.24-1.62-1.22,.02-1.07,.82-1.2,1.7-1.2s1.59,.28,1.57,1.23c-.02,1.03-.81,1.26-1.65,1.19Z"/><path class="cls-1" d="M68.01,60.99c.84-.09,1.58,.19,1.59,1.14,0,1.01-.75,1.28-1.66,1.27-.85-.01-1.59-.22-1.61-1.19-.03-1.08,.76-1.28,1.68-1.22Z"/><path class="cls-1" d="M68.03,67.02c.89-.06,1.59,.27,1.57,1.22-.02,1.03-.82,1.21-1.71,1.2-.87-.01-1.58-.25-1.56-1.23,.02-1.07,.82-1.24,1.7-1.19Z"/><path class="cls-1" d="M117.48,12.15c-.02,1.16-.41,2.05-1.15,2.79-2.29,2.29-4.56,4.6-6.87,6.87-1.72,1.68-3.71,1.7-5.42,.05-1.39-1.32-2.74-2.69-4.08-4.07-1.57-1.62-1.58-3.78-.08-5.24,1.45-1.41,3.59-1.36,5.16,.14q1.71,1.62,3.43-.1c.99-.99,1.95-2.01,2.99-2.94,1.14-1.02,2.47-1.28,3.9-.62,1.36,.63,2.01,1.76,2.12,3.12Z"/><path class="cls-1" d="M102.42,14.05c-.46,.06-.85,.23-1.04,.7-.21,.54-.05,1,.36,1.41,1.24,1.24,2.47,2.51,3.71,3.75,1.01,1,1.51,1.02,2.51,.03,2.13-2.12,4.25-4.25,6.37-6.37,.57-.57,1.12-1.21,.4-1.94-.77-.8-1.49-.35-2.15,.32-1.54,1.57-3.1,3.12-4.67,4.67-.95,.95-1.37,.94-2.3,.03-.69-.67-1.37-1.34-2.04-2.03-.32-.33-.68-.55-1.15-.57Z"/></g></g></g></svg>