<?xml version="1.0" encoding="UTF-8"?><svg id="Layer_2" xmlns="http://www.w3.org/2000/svg" viewBox="0 0 117 116.98"><defs><style>.cls-1{fill:#fff;}.cls-2{fill:#fcbb85;}.cls-3{fill:#80cccc;}.cls-4{fill:#66c2c2;}.cls-5{fill:#a0e22e;}.cls-6{fill:#b6e5f5;}.cls-7{fill:#add;}.cls-8{fill:#d8efef;}.cls-9{fill:#dcf3fa;}.cls-10{fill:#06ffd5;}.cls-11{fill:#05bfa0;}.cls-12{fill:#1a2959;}</style></defs><g id="Layer_1-2"><g><path class="cls-12" d="M1.83,102.64c-1.41-.34-1.8-.78-1.77-2.19,.07-3.42-.22-6.85,.21-10.26,1.05-8.35,8.64-15.37,17.05-15.69,2.85-.11,5.71-.07,8.56-.04,.79,0,.96-.23,1.04-1.01,.18-1.88-.35-3.09-2.02-4.29-3.95-2.84-6.09-6.9-6.56-11.77-.07-.71-.38-.77-.94-.75-1.88,.07-3.63-.34-5.11-1.57-3.63-3-3.16-8.62,.94-11.01,.61-.36,.79-.72,.8-1.41,.06-4.11-.26-8.22,.18-12.32,.88-8.25,8.48-15.42,16.74-15.92,5.53-.33,10.34,1.27,14.38,5.09,.43,.41,.91,.5,1.43,.58,5.47,.85,9.51,5.18,9.74,10.72,.16,3.95,.07,7.91,.07,11.87,0,.62,.13,1,.74,1.34,2.77,1.57,4.02,4.57,3.24,7.59-.74,2.88-3.3,4.88-6.45,5.04-1.69,.08-1.68,.09-1.93,1.68-.77,4.93-3.26,8.78-7.36,11.57-.82,.56-1.16,1.08-1.13,2.08,.08,2.48,.03,2.45,2.5,2.49,2.96,.05,5.93-.21,8.89,.24,1.93,.29,3.82,.81,5.46,1.85,1.04,.66,1.66,.37,2.54-.24,6.54-4.56,13.6-5.48,21.12-2.79,1.5,.54,1.76,1.03,1.52,2.57-.76,1.03-1.67,1.04-2.81,.61-8.28-3.09-17.39-.22-22.39,7.01-5.28,7.63-4.21,18.53,2.39,24.36,.07,.17,.19,.28,.37,.31h-.02c4.67,4.41,10.24,6.01,16.48,4.81,10.2-1.97,16.72-11.21,15.29-21.49-.54-3.88-2.12-7.34-4.97-10.13h.01c-.08-.08-.16-.16-.23-.25-.43-.52-.81-1.07-.81-1.78,.17-.35,.33-.69,.5-1.04,1.25-.73,1.77-.71,2.7,.29,5.99,6.42,7.97,13.92,5.39,22.3-2.58,8.37-8.44,13.45-16.97,15.46-.67,.16-1.41,.05-2.03,.44h-5.25c-1.98-.52-3.96-1.67-5.94,0H3.02c-2.36-1.04-3.24-2.89-2.98-5.39,.08-.75,0-1.52,.01-2.28,.01-1.41,.34-1.82,1.78-2.19,1.19,.26,1.71,1,1.66,2.22-.04,1.03,.03,2.06-.02,3.08-.04,.83,.26,1.16,1.12,1.15,2.66-.04,5.33-.04,7.99,0,.79,.01,.93-.27,.93-.98-.03-3.54-.02-7.08-.01-10.61,0-1.54,.22-3.08-1.3-4.21-.61-.46-.54-1.32-.07-1.98,.46-.66,1.13-.9,1.9-.65,1.27,.4,2.89,2.68,2.89,4.03,0,4.41,.03,8.83-.02,13.24-.01,.96,.25,1.18,1.19,1.17,11.15-.04,22.3-.02,33.44-.02q2.28,0,2.15-2.28c.01-4.98,.14-9.97,.01-14.95-.15-6.01,1.32-11.44,5.19-16.12,.36-.44,.25-.61-.19-.82-1.7-.81-3.48-1.3-5.35-1.48-.59-.06-.79,.14-.86,.71-.41,3.25-1.82,6.08-3.79,8.66-.11,.1-.23,.19-.34,.3-4.87,5.23-10.82,7.16-17.69,5.24-6.92-1.93-11.03-6.72-12.44-13.75-.19-.97-.45-1.23-1.41-1.13-6.52,.7-12.2,6.1-13.11,12.58-.46,3.29-.14,6.61-.2,9.92-.02,1.21-.46,1.96-1.67,2.21Zm33.87-33.3c.11-.01,.22-.03,.33-.04h.09c6.61-.06,12.62-6.07,12.79-12.87,.09-3.46,.02-6.92,.03-10.37,0-.39-.03-.74-.27-1.07-1.27-1.75-2.53-3.51-3.78-5.28-.31-.45-.6-.53-.99-.13-2.8,1.26-5.58,2.54-8.6,3.22-3.91,.88-7.86,.68-11.81,.65-.99,0-1.5,.32-1.68,1.24-.08,.41-.15,.82-.15,1.24-.01,3.23,0,6.46,0,9.7,0,1.03,.09,2.05,.31,3.06,1.37,6.37,7.66,11.27,13.73,10.68Zm12.31-31.34c.95,1.68,2.2,3.16,3.29,4.75,.37,.53,.91,.48,1.44,.39,.42-.07,.34-.45,.34-.74,0-3.98,.06-7.96-.05-11.94-.08-2.79-2.37-5.58-5.01-6.44-.39-.15-.77-.43-1.16-.42-1.98,.03-3.28-1.11-4.73-2.3-4.5-3.72-9.67-4.56-15.08-2.44-5.46,2.14-8.68,6.3-9.43,12.15-.49,3.78-.1,7.6-.18,11.4,0,.35-.01,.7,.48,.74,.44,.03,.8,0,.99-.51,.42-1.13,1.22-1.9,2.35-2.34,.8-.31,1.64-.26,2.48-.27,3.68-.05,7.37,.21,11.02-.66,3.22-.76,6.13-2.21,9.07-3.66,1.45-.72,2.02-.55,3,.77,.38,.52,.67,1.11,1.19,1.51Zm-23.67,39.87c-.68,0-1.37,.04-2.05-.01-.69-.05-.83,.18-.69,.84,.53,2.55,1.58,4.84,3.36,6.74,3.85,4.09,8.57,5.57,13.98,4.11,5.32-1.44,8.57-5.07,9.97-10.38,.25-.94,.16-1.45-1.03-1.32-1.05,.11-2.13,.1-3.19,0-.89-.08-1.2,.27-1.49,1.07-1.22,3.34-3.68,5.3-7.21,5.59-3.64,.3-6.57-1.23-8.1-4.53-.82-1.78-1.66-2.61-3.57-2.1Zm15.98-3.15s-.03,0-.04,0c0-.65-.03-1.29,0-1.94,.03-.54-.19-.66-.68-.53-2.85,.76-5.71,.77-8.56,.01-.53-.14-.78-.04-.76,.57,.05,1.29-.03,2.59,.09,3.87,.23,2.43,2.24,4.3,4.6,4.42,2.48,.12,4.69-1.5,5.18-3.91,.17-.81,.11-1.66,.15-2.5Zm-22.09-24.72c0-.65,0-1.29,0-1.94q0-1.53-1.56-1.47c-1.99,.07-3.37,1.4-3.39,3.26-.02,1.85,1.35,3.24,3.31,3.37q1.64,.11,1.64-1.5c0-.57,0-1.14,0-1.71Zm34.14-.08c0,.87,0,1.74,0,2.62,0,.29-.07,.65,.39,.67,1.39,.07,2.75,0,3.74-1.18,.88-1.05,1.11-2.23,.53-3.49-.62-1.34-1.71-1.95-3.18-1.96-1.48-.01-1.48-.03-1.48,1.41,0,.64,0,1.29,0,1.93Zm4.77,56.92c0,2.04,0,4.08,0,6.12,0,.33,.02,.6,.47,.6,2.1,0,4.2,0,6.3,0-2.61-1.95-4.8-4.14-6.76-6.71Z"/><path class="cls-12" d="M117,17.85c-.93,1.55-2.16,2.56-4.1,2.48-.72-.03-.41,.61-.41,.95-.02,4.33-.03,8.66,0,12.98,0,1.21-.43,1.97-1.67,2.16-1.36-.3-1.77-.78-1.77-2.2,0-4.6,0-9.21,0-13.81,0-3.42,.05-3.47,3.5-3.53,.29,0,.69,.15,.85-.13,.2-.34-.18-.61-.34-.88-2.43-3.91-4.87-7.8-7.31-11.7-.14-.23-.2-.57-.61-.64-2.74,4.38-5.47,8.77-8.34,13.35,.81,0,1.33,0,1.86,0,2.4,0,2.78,.38,2.78,2.76,0,19.18,0,38.36,0,57.54,0,.3,.02,.61,0,.91-.06,.75,.28,1,1.01,.99,1.71-.03,3.43-.08,5.14,.01,1.15,.06,1.49-.3,1.49-1.47-.04-11.42-.03-22.83-.02-34.25,0-1.64,.28-2.02,1.76-2.47,1.25,.27,1.68,1.05,1.68,2.31-.03,11.64-.01,23.29-.02,34.93,0,2.77-1.61,4.34-4.42,4.36-1.83,0-3.65,0-5.48,0-3.03,0-4.57-1.53-4.57-4.55,0-18.72,0-37.44,.01-56.16,0-.96-.01-1.49-1.29-1.58-2.76-.2-4.13-3.04-2.68-5.4,2.67-4.37,5.39-8.72,8.15-13.04,1.5-2.35,4.56-2.38,6.06-.04,2.77,4.32,5.44,8.69,8.17,13.03,.21,.34,.19,.8,.57,1.03v2.06Z"/><path class="cls-9" d="M67.44,116.98c1.98-1.67,3.96-.52,5.94,0h-5.94Z"/><path class="cls-6" d="M53.68,111.27q.13,2.28-2.15,2.28c-11.15,0-22.3-.01-33.44,.02-.94,0-1.2-.21-1.19-1.17,.06-4.41,.03-8.83,.02-13.24,0-1.34-1.63-3.63-2.89-4.03-.78-.24-1.44,0-1.9,.65-.47,.66-.55,1.53,.07,1.98,1.52,1.13,1.31,2.67,1.3,4.21-.01,3.54-.02,7.08,.01,10.61,0,.71-.14,.99-.93,.98-2.66-.05-5.33-.04-7.99,0-.86,.01-1.15-.32-1.12-1.15,.05-1.03-.02-2.06,.02-3.08,.05-1.22-.47-1.95-1.66-2.22,0-1.49,0-2.99,0-4.48,1.21-.25,1.65-1,1.66-2.21,.05-3.31-.27-6.62,.2-9.92,.91-6.48,6.6-11.88,13.11-12.58,.96-.1,1.21,.16,1.41,1.13,1.41,7.03,5.52,11.82,12.44,13.75,6.87,1.92,12.83,0,17.69-5.24,.1-.11,.22-.2,.34-.3,.23,.15,.24,.36,.18,.6-1.01,3.83-1.12,7.69-.38,11.57,.83,4.33,2.43,8.34,5.19,11.83Z"/><path class="cls-10" d="M110.8,40.92c-1.48,.45-1.76,.84-1.76,2.47,0,11.42-.02,22.83,.02,34.25,0,1.17-.33,1.53-1.49,1.47-1.71-.09-3.42-.05-5.14-.01-.73,.01-1.07-.24-1.01-.99,.02-.3,0-.61,0-.91,0-19.18,0-38.36,0-57.54,0-2.38-.38-2.76-2.78-2.76-.52,0-1.05,0-1.86,0,2.86-4.59,5.6-8.97,8.34-13.35,.41,.07,.47,.41,.61,.64,2.45,3.89,4.89,7.79,7.31,11.7,.17,.27,.54,.54,.34,.88-.17,.29-.56,.13-.85,.13-3.45,.06-3.5,.11-3.5,3.53,0,4.6,0,9.21,0,13.81,0,1.42,.41,1.9,1.77,2.2,0,1.5,0,3,0,4.49Z"/><path class="cls-12" d="M68.96,49.37c0-4.87-.01-9.74,.01-14.61,0-.79-.05-1.18-1.06-1.19-2.77-.04-4.4-2.94-2.96-5.32,2.69-4.45,5.45-8.86,8.26-13.23,1.46-2.28,4.54-2.25,6,.03,2.76,4.32,5.47,8.67,8.14,13.04,1.56,2.55-.04,5.45-3.03,5.49-.94,.01-.9,.44-.89,1.09,.01,9.62,0,19.25,0,28.87,0,3.16-1.51,4.66-4.68,4.67-1.83,0-3.65,.01-5.48,0-2.72-.03-4.3-1.6-4.31-4.35-.02-4.83,0-9.66,0-14.49Zm15.68-19.19c-2.88-4.6-5.61-8.98-8.44-13.5-2.84,4.54-5.59,8.96-8.44,13.5,.69,0,1.15,0,1.6,0,2.72,0,3.03,.3,3.03,2.99,0,10.08,.01,20.16-.02,30.25,0,1.03,.26,1.43,1.34,1.38,1.63-.08,3.27-.08,4.91,0,1.11,.05,1.42-.34,1.41-1.43-.04-7.72-.02-15.45-.02-23.17,0-2.66-.01-5.33,0-7.99,0-1.39,.63-2,2.03-2.02,.79-.01,1.58,0,2.59,0Z"/><path class="cls-10" d="M62.91,108.07c-6.6-5.84-7.67-16.73-2.39-24.36,5-7.23,14.11-10.1,22.39-7.01,1.15,.43,2.05,.42,2.81-.61,.79,.4,1.59,.78,2.27,1.36,.08,.08,.16,.17,.24,.25,0,0,0-.02,0-.02-.02,.74,.37,1.3,.8,1.85,0,.72,.38,1.26,.81,1.78,.08,.09,.16,.18,.23,.27,0,0-.01-.01-.01-.01,.02,.26-.03,.55,.06,.79,.77,1.9,.84,3.92,1.02,5.91,.11,1.22-.03,2.47-.46,3.65-1.32-2.02-3.17-2.96-5.59-2.81-.91,.06-1.83-.03-2.74,.02-.6,.03-.79-.16-.77-.77,.04-1.25,.04-2.51,0-3.76-.1-2.87-2.46-5.14-5.33-5.17-2.93-.03-5.32,2.23-5.43,5.17-.04,1.25-.04,2.51,0,3.76,.02,.61-.2,.78-.79,.77-1.22-.04-2.43-.03-3.65,0-2.92,.06-5.26,2.44-5.3,5.34-.04,2.89,2.28,5.32,5.2,5.42,1.21,.04,2.43,.06,3.65,0,.73-.03,.93,.24,.89,.92-.05,.83,.04,1.68-.02,2.51-.19,2.62,.85,4.56,3.12,5.86-2.61,.41-5.2,.34-7.79-.17-.96-.19-1.85-.7-2.86-.64,0,0,.02,.01,.02,.01-.02-.23-.18-.29-.37-.31Z"/><path class="cls-5" d="M89.03,79.52c-.42-.55-.82-1.11-.8-1.85,.54,.1,.82,.62,1.3,.81-.17,.35-.33,.69-.5,1.04Z"/><path class="cls-5" d="M88.24,77.69c-.08-.08-.16-.17-.24-.25,.08,.08,.16,.17,.24,.25Z"/><path class="cls-7" d="M48.02,38c-.52-.41-.81-1-1.19-1.51-.97-1.32-1.54-1.48-3-.77-2.93,1.44-5.85,2.9-9.07,3.66-3.65,.86-7.34,.61-11.02,.66-.84,.01-1.68-.04-2.48,.27-1.12,.44-1.93,1.21-2.35,2.34-.19,.52-.55,.54-.99,.51-.5-.04-.49-.39-.48-.74,.09-3.8-.3-7.62,.18-11.4,.75-5.85,3.96-10.01,9.43-12.15,5.42-2.13,10.58-1.28,15.08,2.44,1.44,1.19,2.74,2.33,4.73,2.3,.38,0,.77,.27,1.16,.42,0,4.66,0,9.32,0,13.98Z"/><path class="cls-1" d="M36.14,69.29s-.09,0-.09,0c-.11,.01-.22,.03-.33,.04-6.07,.59-12.37-4.3-13.73-10.68-.22-1.01-.31-2.03-.31-3.06,0-3.23,0-6.46,0-9.7,0-.41,.07-.83,.15-1.24,.18-.91,.69-1.24,1.68-1.24,3.95,.02,7.9,.23,11.81-.65,3.02-.68,5.8-1.96,8.6-3.22,0,5.62,.05,11.24-.02,16.86-.04,3.71-1.46,6.9-3.97,9.64-1.14,1.23-2.47,2.21-3.78,3.23Z"/><path class="cls-11" d="M63.26,108.36c1.01-.06,1.9,.45,2.86,.64,2.59,.5,5.19,.58,7.79,.17,3.61,.97,5.66,.11,7.42-3.11,2.85-1.44,4.98-3.61,6.45-6.43,3.31-1.84,4.18-4.16,2.9-7.72,.43-1.18,.57-2.43,.46-3.65-.18-1.99-.26-4.01-1.02-5.91-.09-.23-.05-.52-.06-.79,2.85,2.79,4.43,6.25,4.97,10.13,1.43,10.29-5.09,19.53-15.29,21.49-6.24,1.2-11.81-.4-16.48-4.82Z"/><path class="cls-9" d="M24.35,77.87c1.91-.5,2.74,.32,3.57,2.1,1.53,3.3,4.46,4.84,8.1,4.53,3.53-.3,5.98-2.25,7.21-5.59,.29-.79,.6-1.15,1.49-1.07,1.06,.1,2.14,.11,3.19,0,1.19-.13,1.28,.38,1.03,1.32-1.4,5.31-4.65,8.94-9.97,10.38-5.41,1.46-10.13-.02-13.98-4.11-1.79-1.9-2.83-4.19-3.36-6.74-.14-.66,0-.9,.69-.84,.68,.05,1.37,.01,2.05,.01Z"/><path class="cls-4" d="M53.68,111.27c-2.76-3.49-4.37-7.5-5.19-11.83-.74-3.88-.63-7.74,.38-11.57,.06-.24,.05-.45-.18-.6,1.97-2.58,3.38-5.41,3.79-8.66,.07-.57,.27-.77,.86-.71,1.87,.18,3.65,.67,5.35,1.48,.44,.21,.55,.38,.19,.82-3.87,4.68-5.34,10.1-5.19,16.12,.12,4.98,0,9.97-.01,14.95Z"/><path class="cls-8" d="M36.14,69.29c1.31-1.02,2.65-2,3.78-3.23,2.52-2.73,3.93-5.93,3.97-9.64,.07-5.62,.02-11.24,.02-16.86,.39-.4,.68-.32,.99,.13,1.24,1.77,2.51,3.53,3.78,5.28,.24,.33,.28,.69,.27,1.07,0,3.46,.06,6.92-.03,10.37-.17,6.8-6.18,12.81-12.79,12.87Z"/><path class="cls-3" d="M48.02,38c0-4.66,0-9.32,0-13.98,2.64,.86,4.93,3.64,5.01,6.44,.11,3.98,.05,7.96,.05,11.94,0,.29,.08,.67-.34,.74-.53,.09-1.07,.14-1.44-.39-1.09-1.58-2.34-3.06-3.29-4.75Z"/><path class="cls-8" d="M40.32,74.72c-.04,.83,.01,1.69-.15,2.5-.49,2.41-2.69,4.03-5.18,3.91-2.37-.12-4.37-1.98-4.6-4.42-.12-1.28-.05-2.58-.09-3.87-.02-.61,.23-.71,.76-.57,2.85,.76,5.71,.75,8.56-.01,.49-.13,.7-.01,.68,.53-.03,.64,0,1.29,0,1.94,.01,0,.03,0,.04,0Z"/><path class="cls-8" d="M18.24,49.99c0,.57,0,1.14,0,1.71q0,1.61-1.64,1.5c-1.96-.13-3.32-1.52-3.31-3.37,.02-1.85,1.4-3.19,3.39-3.26q1.56-.05,1.56,1.47c0,.65,0,1.29,0,1.94Z"/><path class="cls-8" d="M52.38,49.92c0-.64,0-1.29,0-1.93,0-1.45,0-1.42,1.48-1.41,1.47,.01,2.57,.63,3.18,1.96,.58,1.26,.35,2.44-.53,3.49-.99,1.19-2.35,1.25-3.74,1.18-.46-.02-.39-.38-.39-.67,0-.87,0-1.74,0-2.62Z"/><path class="cls-4" d="M57.15,106.84c1.96,2.58,4.15,4.77,6.76,6.71-2.1,0-4.2,0-6.3,0-.44,0-.47-.27-.47-.6,0-2.04,0-4.08,0-6.12Z"/><path class="cls-5" d="M62.91,108.07c.2,.02,.36,.08,.37,.31-.19-.03-.3-.14-.37-.31Z"/><path class="cls-2" d="M35.71,69.34c.11-.01,.22-.03,.33-.04-.11,.01-.22,.03-.33,.04Z"/><path class="cls-5" d="M90.07,81.57c-.08-.09-.16-.18-.23-.27,.08,.09,.16,.18,.23,.27Z"/><path class="cls-10" d="M84.64,30.18c-1.02,0-1.8-.01-2.59,0-1.4,.03-2.02,.63-2.03,2.02-.02,2.66,0,5.33,0,7.99,0,7.72-.02,15.45,.02,23.17,0,1.09-.3,1.49-1.41,1.43-1.63-.08-3.27-.08-4.91,0-1.08,.05-1.35-.35-1.34-1.38,.03-10.08,.02-20.16,.02-30.25,0-2.69-.31-2.99-3.03-2.99-.45,0-.91,0-1.6,0,2.84-4.55,5.6-8.96,8.44-13.5,2.83,4.53,5.57,8.9,8.44,13.5Z"/><path class="cls-12" d="M90.68,91.9c1.29,3.55,.41,5.88-2.9,7.72-1.71,.45-3.46,.26-5.19,.25-.78,0-1.03,.18-1.02,.99,.02,1.73,.2,3.48-.24,5.19-1.76,3.22-3.8,4.08-7.42,3.11-2.26-1.3-3.3-3.25-3.12-5.86,.06-.83-.03-1.67,.02-2.51,.04-.68-.16-.95-.89-.92-1.21,.05-2.43,.04-3.65,0-2.92-.1-5.24-2.53-5.2-5.42,.04-2.9,2.38-5.27,5.3-5.34,1.22-.03,2.43-.03,3.65,0,.58,.02,.81-.16,.79-.77-.04-1.25-.04-2.51,0-3.76,.11-2.94,2.5-5.21,5.43-5.17,2.87,.03,5.23,2.31,5.33,5.17,.04,1.25,.04,2.51,0,3.76-.02,.6,.17,.8,.77,.77,.91-.05,1.83,.04,2.74-.02,2.42-.16,4.27,.78,5.59,2.81Zm-21.08,.63c-.91,0-1.83,0-2.74,0-1.41,.01-2.33,.77-2.35,1.94-.02,1.16,.89,1.98,2.29,1.99,1.75,.02,3.5,0,5.25,0,1.54,.01,2.16,.61,2.18,2.14,.02,1.75,0,3.5,0,5.25,.01,1.42,.79,2.32,1.96,2.32,1.17,0,1.96-.92,1.97-2.31,.01-1.75,0-3.5,0-5.25,0-1.53,.61-2.13,2.15-2.14,1.79-.01,3.58,.01,5.37-.01,1.34-.02,2.16-.81,2.15-1.98-.01-1.17-.85-1.92-2.2-1.94-1.79-.02-3.58,0-5.37,0-1.47-.01-2.09-.62-2.1-2.07-.01-1.75,0-3.5,0-5.25,0-1.5-.78-2.38-2.03-2.35-1.19,.03-1.89,.88-1.9,2.34-.01,1.75,.01,3.5,0,5.25-.02,1.45-.65,2.06-2.12,2.08-.84,.01-1.67,0-2.51,0Z"/><path class="cls-10" d="M81.33,106.06c.44-1.71,.26-3.46,.24-5.19,0-.82,.25-1,1.02-.99,1.73,0,3.48,.2,5.19-.25-1.48,2.82-3.6,5-6.45,6.43Z"/><path class="cls-9" d="M69.6,92.53c.84,0,1.67,0,2.51,0,1.46-.02,2.1-.63,2.12-2.08,.02-1.75,0-3.5,0-5.25,.01-1.47,.71-2.31,1.9-2.34,1.25-.03,2.02,.85,2.03,2.35,0,1.75,0,3.5,0,5.25,.01,1.45,.63,2.06,2.1,2.07,1.79,.01,3.58,0,5.37,0,1.35,.01,2.18,.77,2.2,1.94,.01,1.18-.81,1.97-2.15,1.98-1.79,.02-3.58,0-5.37,.01-1.54,.01-2.14,.61-2.15,2.14-.01,1.75,0,3.5,0,5.25-.01,1.4-.8,2.31-1.97,2.31-1.17,0-1.94-.9-1.96-2.32-.02-1.75,.01-3.5,0-5.25-.02-1.53-.63-2.13-2.18-2.14-1.75-.01-3.5,0-5.25,0-1.4-.01-2.31-.83-2.29-1.99,.02-1.16,.94-1.92,2.35-1.94,.91,0,1.83,0,2.74,0Z"/></g></g></svg>