<?xml version="1.0" encoding="UTF-8"?><svg id="Layer_2" xmlns="http://www.w3.org/2000/svg" viewBox="0 0 117 117.43"><defs><style>.cls-1{fill:#b6e5f5;}.cls-2{fill:#06ffd5;}.cls-3{fill:#1a2959;}</style></defs><g id="Layer_1-2"><g><path class="cls-3" d="M58.5,117.4c-19.06,0-38.11,0-57.17,.03-1.06,0-1.37-.25-1.33-1.33,.09-2.48,.03-2.48,2.51-2.48,1.38,0,2.75-.05,4.12,.02,.78,.04,.97-.2,.96-.97-.03-5.16-.02-10.31-.02-15.47,0-3.94,2.3-6.25,6.19-6.26,4.72,0,9.43,0,14.15,0,3.68,0,6.06,2.36,6.06,6.03,.01,5.2,.03,10.39-.02,15.59,0,.9,.23,1.1,1.09,1.08,3.06-.06,6.13-.06,9.19,0,.9,.02,1.08-.24,1.07-1.1-.03-13.9-.02-27.79-.02-41.69,0-4.1,2.25-6.37,6.32-6.37,4.64,0,9.27,0,13.91,0,3.84,0,6.18,2.32,6.18,6.15,0,13.94,.01,27.87-.02,41.81,0,1,.25,1.22,1.21,1.2,2.98-.07,5.97-.07,8.96,0,1,.03,1.2-.26,1.19-1.22-.03-22.64-.02-45.27-.02-67.91,0-4.27,2.2-6.49,6.43-6.49,4.52,0,9.04,0,13.56,0,4.17,0,6.42,2.23,6.42,6.39,0,22.64,0,45.27-.03,67.91,0,1.08,.26,1.38,1.33,1.32,1.8-.09,3.61,0,5.42-.04,.68-.02,.83,.19,.84,.85,.03,2.95,.05,2.95-2.86,2.95H58.5Zm47.16-33.89c0-9.76-.01-19.52,.02-29.28,0-.86-.17-1.12-1.08-1.11-5.58,.05-11.16,.05-16.73,0-.87,0-1.1,.19-1.1,1.09,.03,19.44,.03,38.88,0,58.33,0,.86,.17,1.12,1.07,1.11,5.54-.05,11.08-.05,16.62,0,.97,0,1.22-.22,1.22-1.21-.04-9.64-.03-19.28-.03-28.93Zm-37.72,13.23c0-5.35-.02-10.7,.02-16.05,0-.87-.18-1.11-1.08-1.1-5.58,.05-11.15,.04-16.73,0-.87,0-1.1,.2-1.1,1.09,.03,10.62,.03,21.25,0,31.87,0,.86,.18,1.11,1.08,1.1,5.58-.05,11.15-.04,16.73,0,.87,0,1.1-.2,1.1-1.09-.05-5.27-.02-10.55-.02-15.82Zm-47.16,9.32c-2.87,0-5.73,.02-8.6-.01-.66,0-.86,.18-.85,.85,.04,1.97,.04,3.93,0,5.9-.02,.68,.2,.85,.85,.84,5.73-.02,11.46-.02,17.19,0,.66,0,.86-.18,.85-.85-.04-1.97-.04-3.93,0-5.9,.02-.68-.2-.85-.85-.84-2.86,.03-5.73,.01-8.6,.01ZM96.23,49.37c2.87,0,5.73-.02,8.6,.02,.67,0,.87-.19,.85-.86-.05-1.53,0-3.07-.02-4.6-.02-1.39-.73-2.11-2.12-2.11-4.87-.02-9.74-.02-14.61,0-1.39,0-2.1,.72-2.12,2.11-.02,1.49,.04,2.99-.02,4.48-.03,.77,.19,.99,.97,.98,2.83-.05,5.65-.02,8.48-.02Zm-37.72,26.46c2.83,0,5.66-.03,8.48,.02,.78,.01,.99-.22,.96-.98-.06-1.49,0-2.99-.02-4.48-.02-1.39-.73-2.1-2.12-2.11-4.87-.02-9.74-.02-14.61,0-1.39,0-2.1,.72-2.12,2.11-.02,1.49,.04,2.99-.02,4.48-.03,.77,.2,.99,.97,.98,2.83-.05,5.65-.02,8.48-.02Zm-37.73,26.46c2.87,0,5.73-.02,8.6,.02,.67,0,.86-.2,.84-.86-.05-1.53,0-3.07-.02-4.6-.02-1.39-.73-2.1-2.12-2.11-4.87-.02-9.74-.02-14.61,0-1.39,0-2.1,.72-2.12,2.11-.02,1.49,.04,2.99-.02,4.48-.03,.77,.19,.99,.97,.98,2.83-.05,5.65-.02,8.48-.02Z"/><path class="cls-2" d="M105.67,34.21c-6.29,0-12.59,0-18.88,0,0-4.72-.01-9.44,.03-14.16,0-.82-.28-.97-1-.95-1.49,.05-2.98,0-4.47,.02-.97,0-1.69-.38-1.99-1.32-.29-.92,.12-1.62,.85-2.13,5.17-3.63,10.35-7.25,15.51-10.89,.38-.27,.65-.28,1.04-.01,5.16,3.64,10.34,7.26,15.51,10.9,.73,.52,1.15,1.21,.85,2.13-.3,.95-1.02,1.33-1.99,1.32-1.49-.01-2.98,.03-4.47-.02-.73-.02-1.01,.13-1,.95,.05,4.72,.03,9.44,.03,14.16Z"/><path class="cls-2" d="M67.94,60.67c-6.29,0-12.59,0-18.88,0,0-4.72-.01-9.44,.03-14.16,0-.82-.28-.97-1-.95-1.49,.05-2.98,0-4.47,.02-.97,0-1.69-.38-1.99-1.32-.29-.92,.12-1.62,.85-2.13,5.17-3.63,10.35-7.25,15.51-10.89,.38-.27,.65-.28,1.04-.01,5.16,3.64,10.34,7.26,15.51,10.9,.73,.52,1.15,1.21,.85,2.13-.3,.95-1.02,1.33-1.99,1.32-1.49-.01-2.98,.03-4.47-.02-.73-.02-1.01,.13-1,.95,.05,4.72,.03,9.44,.03,14.16Z"/><path class="cls-2" d="M30.22,87.13c-6.29,0-12.59,0-18.88,0,0-4.72-.01-9.44,.03-14.16,0-.82-.28-.97-1-.95-1.49,.05-2.98,0-4.47,.02-.97,0-1.69-.38-1.99-1.32-.29-.92,.12-1.62,.85-2.13,5.17-3.63,10.35-7.25,15.51-10.89,.38-.27,.65-.28,1.04-.01,5.16,3.64,10.34,7.26,15.51,10.9,.73,.52,1.15,1.21,.85,2.13-.3,.95-1.02,1.33-1.99,1.32-1.49-.01-2.98,.03-4.47-.02-.73-.02-1.01,.13-1,.95,.05,4.72,.03,9.44,.03,14.16Z"/><path class="cls-3" d="M105.67,34.21c0-4.72,.01-9.44-.03-14.16,0-.82,.28-.97,1-.95,1.49,.05,2.98,0,4.47,.02,.97,0,1.69-.38,1.99-1.32,.29-.92-.12-1.61-.85-2.13-5.17-3.64-10.34-7.26-15.51-10.9-.38-.27-.65-.26-1.04,.01-5.16,3.64-10.34,7.26-15.51,10.89-.73,.52-1.15,1.21-.85,2.13,.3,.95,1.02,1.33,1.99,1.32,1.49-.01,2.98,.03,4.47-.02,.73-.02,1.01,.13,1,.95-.05,4.72-.03,9.44-.03,14.16-1.21,0-2.76,.43-3.54-.15-.74-.55-.2-2.2-.22-3.36-.04-2.32-.04-4.64,0-6.97,.01-.67-.18-.88-.85-.84-.7,.04-1.43,.06-2.11-.09-2.42-.52-3.99-2.01-4.48-4.44-.48-2.39,.41-4.35,2.38-5.75,3.97-2.82,7.97-5.59,11.95-8.39,1.86-1.31,3.74-2.59,5.58-3.94,.54-.39,.9-.39,1.44,0,5.8,4.1,11.63,8.16,17.43,12.26,2.26,1.6,3.11,4.07,2.32,6.51-.77,2.35-2.93,3.84-5.61,3.86q-1.66,.01-1.66,1.65c0,2.95-.02,5.9,.01,8.85,0,.66-.16,.89-.84,.85-.98-.07-1.96-.04-2.94-.05Z"/><path class="cls-3" d="M67.94,60.67c0-4.72,.01-9.44-.03-14.16,0-.82,.28-.97,1-.95,1.49,.05,2.98,0,4.47,.02,.97,0,1.69-.38,1.99-1.32,.29-.92-.12-1.61-.85-2.13-5.17-3.64-10.34-7.26-15.51-10.9-.38-.27-.65-.26-1.04,.01-5.16,3.64-10.34,7.26-15.51,10.89-.73,.52-1.15,1.21-.85,2.13,.3,.95,1.02,1.33,1.99,1.32,1.49-.01,2.98,.03,4.47-.02,.73-.02,1.01,.13,1,.95-.05,4.72-.03,9.44-.03,14.16-1.21,0-2.76,.43-3.54-.15-.74-.55-.2-2.2-.22-3.36-.04-2.32-.04-4.64,0-6.97,.01-.67-.18-.88-.85-.84-.7,.04-1.43,.06-2.11-.09-2.42-.52-3.99-2.01-4.48-4.44-.48-2.39,.41-4.35,2.38-5.75,3.97-2.82,7.97-5.59,11.95-8.39,1.86-1.31,3.74-2.59,5.58-3.94,.54-.39,.9-.39,1.44,0,5.8,4.1,11.63,8.16,17.43,12.26,2.26,1.6,3.11,4.08,2.32,6.51-.77,2.35-2.93,3.84-5.61,3.86q-1.66,.01-1.66,1.65c0,2.95-.02,5.9,.01,8.85,0,.66-.16,.89-.84,.85-.98-.07-1.96-.04-2.94-.05Z"/><path class="cls-3" d="M30.22,87.13c0-4.72,.01-9.44-.03-14.16,0-.82,.28-.97,1-.95,1.49,.05,2.98,0,4.47,.02,.97,0,1.69-.38,1.99-1.32,.29-.92-.12-1.61-.85-2.13-5.17-3.64-10.34-7.26-15.51-10.9-.38-.27-.65-.26-1.04,.01-5.16,3.64-10.34,7.26-15.51,10.89-.73,.52-1.15,1.21-.85,2.13,.3,.95,1.02,1.33,1.99,1.32,1.49-.01,2.98,.03,4.47-.02,.73-.02,1.01,.13,1,.95-.05,4.72-.03,9.44-.03,14.16-1.21,0-2.76,.43-3.54-.15-.74-.55-.2-2.2-.22-3.36-.04-2.32-.04-4.64,0-6.97,.01-.67-.18-.88-.85-.84-.7,.04-1.43,.06-2.11-.09-2.42-.52-3.99-2.01-4.48-4.44-.48-2.39,.41-4.35,2.38-5.75,3.97-2.82,7.97-5.59,11.95-8.39,1.86-1.31,3.74-2.59,5.58-3.94,.54-.39,.9-.39,1.44,0,5.8,4.1,11.63,8.16,17.43,12.26,2.26,1.6,3.11,4.07,2.32,6.51-.77,2.35-2.93,3.84-5.61,3.86q-1.66,.01-1.66,1.65c0,2.95-.02,5.9,.01,8.85,0,.66-.16,.89-.84,.85-.98-.07-1.96-.04-2.94-.05Z"/><path class="cls-1" d="M105.66,83.51c0,9.64-.02,19.28,.03,28.93,0,.99-.25,1.22-1.22,1.21-5.54-.05-11.08-.05-16.62,0-.91,0-1.08-.25-1.07-1.11,.03-19.44,.03-38.88,0-58.33,0-.89,.22-1.09,1.1-1.09,5.58,.04,11.16,.05,16.73,0,.91,0,1.08,.25,1.08,1.11-.03,9.76-.02,19.52-.02,29.28Zm-13.12-11.47c-.47,0-.94,0-1.41,0-.29,0-.53,0-.56,.41-.14,2.3,.13,4.59,2.23,5.85,1.45,.87,1.69,1.9,1.55,3.32-.04,.39-.01,.79,0,1.18,0,.22-.06,.55,.26,.56,1.1,.03,2.28,.25,3.27-.08,.63-.21,.13-1.35,.24-2.06,.04-.27,.04-.55,0-.83-.08-.6,.12-.85,.77-.8,.74,.06,1.49-.03,2.24,.03,.63,.04,.8-.17,.79-.79-.04-1.69,.02-3.39-.03-5.08-.08-2.88-2.32-5.21-5.19-5.47-.27-.02-.56,0-.82-.06-.8-.19-1.37-.7-1.47-1.51-.09-.72-.39-1.65,.13-2.15,1-.94,3.41,.29,3.58,1.71,.08,.65-.32,1.56,.21,1.88,.52,.32,1.37,.1,2.07,.11,.35,0,.71,0,1.06,0,.28,0,.42-.1,.44-.41,.13-2.16,0-4.47-1.97-5.61-1.91-1.11-1.93-2.54-1.81-4.27,.01-.2,0-.39,0-.59,0-.26-.06-.47-.38-.46-1.09,.02-2.29-.21-3.23,.18-.52,.22-.09,1.52-.16,2.33-.01,.16-.02,.32,0,.47,.09,.6-.12,.85-.76,.8-.74-.06-1.49,.03-2.24-.03-.63-.04-.81,.17-.79,.79,.04,1.49,.01,2.99,.01,4.49,.01,3.51,2.08,5.77,5.56,6.08,1.6,.14,2.7,2.13,1.97,3.56-.08,.16-.21,.18-.36,.22-2.04,.52-3.46-.47-3.36-2.5,.06-1.14-.36-1.44-1.37-1.28-.15,.02-.31,0-.47,0Z"/><path class="cls-1" d="M67.93,96.74c0,5.27-.02,10.55,.02,15.82,0,.89-.22,1.09-1.1,1.09-5.58-.04-11.15-.05-16.73,0-.9,0-1.08-.24-1.08-1.1,.03-10.62,.03-21.25,0-31.87,0-.89,.22-1.09,1.1-1.09,5.58,.04,11.15,.05,16.73,0,.9,0,1.09,.24,1.08,1.1-.04,5.35-.02,10.7-.02,16.05Zm-11.32,10.71q0,2.4,2.1,2.4c.35,0,.71-.02,1.06,0,.45,.03,.62-.12,.62-.59-.01-1.02-.36-2.38,.15-2.96,.6-.68,1.99-.16,3.03-.22,.36-.02,.59-.06,.58-.51-.03-2.01,.12-4.03-.1-6.02-.29-2.7-2.54-4.6-5.3-4.82-1.75-.14-2.83-1.91-2.13-3.52,.04-.09,.12-.2,.21-.24,1.31-.69,3.34,.31,3.54,1.73,.1,.67-.38,1.59,.27,1.95,.54,.3,1.38,.07,2.09,.08,.31,0,.63-.01,.94,0,.35,.02,.43-.15,.49-.48,.39-2.49-.66-5.04-2.77-6.19-.83-.45-1.05-.92-1.04-1.8,.05-3.02,.02-3.02-3.03-2.87-.04,0-.08,0-.12,0-.44-.05-.62,.11-.62,.59,.01,1.02,.36,2.38-.15,2.96-.6,.68-1.99,.16-3.03,.22-.36,.02-.59,.06-.58,.51,.03,2.01-.12,4.03,.1,6.02,.29,2.69,2.54,4.6,5.31,4.82,1.75,.14,2.83,1.91,2.13,3.52-.04,.09-.12,.2-.21,.24-1.31,.69-3.34-.32-3.55-1.73-.1-.67,.38-1.59-.27-1.95-.54-.3-1.38-.07-2.09-.08-.31,0-.63,.01-.94,0-.35-.02-.46,.14-.48,.48-.15,2.36,.25,4.59,2.38,5.91,1.18,.73,1.71,1.46,1.4,2.55Z"/><path class="cls-1" d="M20.78,106.06c2.87,0,5.73,.02,8.6-.01,.66,0,.87,.17,.85,.84-.04,1.97-.04,3.93,0,5.9,.01,.67-.19,.85-.85,.85-5.73-.03-11.46-.02-17.19,0-.66,0-.87-.17-.85-.84,.04-1.97,.04-3.93,0-5.9-.01-.67,.19-.86,.85-.85,2.86,.03,5.73,.01,8.6,.01Z"/><path class="cls-2" d="M96.23,49.37c-2.83,0-5.66-.03-8.48,.02-.78,.01-1-.21-.97-.98,.06-1.49,0-2.99,.02-4.48,.02-1.39,.73-2.1,2.12-2.11,4.87-.02,9.74-.02,14.61,0,1.39,0,2.1,.72,2.12,2.11,.02,1.53-.03,3.07,.02,4.6,.02,.66-.18,.86-.85,.86-2.87-.04-5.73-.02-8.6-.02Z"/><path class="cls-2" d="M58.51,75.82c-2.83,0-5.66-.03-8.48,.02-.77,.01-1-.2-.97-.98,.06-1.49,0-2.99,.02-4.48,.02-1.39,.73-2.11,2.12-2.11,4.87-.02,9.74-.02,14.61,0,1.39,0,2.1,.72,2.12,2.11,.02,1.49-.04,2.99,.02,4.48,.03,.76-.18,.99-.96,.98-2.83-.05-5.65-.02-8.48-.02Z"/><path class="cls-2" d="M20.78,102.28c-2.83,0-5.66-.03-8.48,.02-.78,.01-1-.21-.97-.98,.06-1.49,0-2.99,.02-4.48,.02-1.39,.73-2.11,2.12-2.11,4.87-.02,9.74-.02,14.61,0,1.39,0,2.1,.72,2.12,2.11,.02,1.53-.03,3.07,.02,4.6,.02,.66-.17,.87-.84,.86-2.87-.04-5.73-.02-8.6-.02Z"/><path class="cls-3" d="M92.54,72.04c.16,0,.32,.02,.47,0,1.01-.16,1.42,.14,1.37,1.28-.1,2.03,1.33,3.02,3.36,2.5,.16-.04,.28-.06,.36-.22,.73-1.43-.37-3.42-1.97-3.56-3.47-.3-5.55-2.56-5.56-6.08,0-1.5,.03-2.99-.01-4.49-.02-.62,.16-.83,.79-.79,.74,.05,1.5-.03,2.24,.03,.65,.05,.85-.2,.76-.8-.02-.15-.01-.32,0-.47,.07-.81-.35-2.12,.16-2.33,.94-.39,2.14-.15,3.23-.18,.32,0,.38,.2,.38,.46,0,.2,.01,.39,0,.59-.12,1.73-.11,3.16,1.81,4.27,1.97,1.14,2.09,3.45,1.97,5.61-.02,.31-.16,.41-.44,.41-.35,0-.71,0-1.06,0-.7,0-1.55,.21-2.07-.11-.53-.32-.13-1.23-.21-1.88-.17-1.43-2.58-2.66-3.58-1.71-.53,.5-.22,1.43-.13,2.15,.1,.81,.67,1.32,1.47,1.51,.26,.06,.55,.04,.82,.06,2.87,.26,5.11,2.59,5.19,5.47,.05,1.69-.02,3.39,.03,5.08,.02,.62-.16,.83-.79,.79-.74-.05-1.5,.03-2.24-.03-.65-.05-.84,.2-.77,.8,.03,.27,.04,.56,0,.83-.11,.71,.39,1.85-.24,2.06-.99,.33-2.17,.11-3.27,.08-.32,0-.25-.34-.26-.56,0-.39-.03-.79,0-1.18,.14-1.42-.1-2.44-1.55-3.32-2.1-1.26-2.38-3.55-2.23-5.85,.03-.41,.27-.41,.56-.41,.47,0,.94,0,1.41,0Z"/><path class="cls-3" d="M56.62,107.44c.31-1.09-.22-1.82-1.4-2.55-2.13-1.32-2.53-3.55-2.38-5.91,.02-.34,.13-.5,.48-.48,.31,.01,.63,0,.94,0,.71,0,1.54-.23,2.09,.08,.65,.36,.17,1.28,.27,1.95,.2,1.41,2.23,2.42,3.55,1.73,.09-.05,.17-.15,.21-.24,.7-1.6-.38-3.38-2.13-3.52-2.77-.22-5.02-2.13-5.31-4.82-.21-1.99-.07-4.01-.1-6.02,0-.45,.22-.49,.58-.51,1.04-.06,2.44,.46,3.03-.22,.51-.59,.17-1.95,.15-2.96,0-.47,.17-.64,.62-.59,.04,0,.08,0,.12,0,3.04-.15,3.08-.15,3.03,2.87-.01,.88,.21,1.36,1.04,1.8,2.11,1.15,3.16,3.7,2.77,6.19-.05,.33-.14,.5-.49,.48-.31-.01-.63,0-.94,0-.71,0-1.54,.23-2.09-.08-.65-.36-.17-1.28-.27-1.95-.2-1.42-2.23-2.42-3.54-1.73-.09,.05-.17,.15-.21,.24-.7,1.6,.38,3.38,2.13,3.52,2.77,.22,5.01,2.12,5.3,4.82,.21,1.99,.07,4.01,.1,6.02,0,.45-.22,.49-.58,.51-1.04,.06-2.44-.46-3.03,.22-.51,.59-.17,1.95-.15,2.96,0,.47-.17,.63-.62,.59-.35-.03-.71,0-1.06,0q-2.1,0-2.1-2.4Z"/></g></g></svg>