<?xml version="1.0" encoding="UTF-8"?><svg id="Layer_2" xmlns="http://www.w3.org/2000/svg" viewBox="0 0 129 129"><defs><style>.cls-1{fill:#060605;}.cls-2{fill:#03806b;}.cls-3{fill:#b6e5f5;}.cls-4{fill:#06ffd5;}.cls-5{fill:#6e6e6e;}</style></defs><g id="Layer_1-2"><g><path class="cls-1" d="M129,28.02c-.22,7.57-3.8,14.82-11.11,20.26-.81,.6-.88,1.08-.58,1.95,5.88,17.05-5.79,35.76-24.12,38.74-3.5,.57-6.98,.67-10.47,.05-.85-.15-1.34,.05-1.85,.72-9.31,12.1-18.65,24.17-27.94,36.27-1.12,1.46-2.42,2.19-4.3,2.27-3.7,.16-7.39,.47-11.09,.71-2.6,.17-4.03-.85-4.62-3.32-.77-3.23-1.53-6.46-2.27-9.69-.9-3.92,1.08-7.13,5.09-8.28,.93-.27,1.86-.58,2.81-.78,.8-.17,1.12-.49,.93-1.32-.18-.81-.27-1.64-.33-2.46-.13-1.9,.82-3.28,2.69-3.89,1.18-.38,2.38-.72,3.59-1.02,.68-.17,.85-.48,.71-1.13-.19-.88-.32-1.78-.37-2.68-.1-1.75,.89-3.16,2.62-3.73,1.22-.4,2.45-.75,3.7-1.06,.62-.16,.82-.43,.71-1.04-.16-.89-.21-1.8-.4-2.68-.3-1.4,.11-2.58,.98-3.7,2.03-2.58,4-5.21,6.04-7.78,.54-.67,.76-1.23,.23-2-.36-.53-.56-1.16-.81-1.75-.57-1.33-.56-1.32-1.78-.62-12.95,7.49-25.9,14.98-38.83,22.49-1.37,.8-2.71,.98-4.23,.47-3.65-1.22-7.32-2.37-10.98-3.55-2.36-.76-3.29-2.11-2.92-4.46,.58-3.61,1.18-7.22,1.9-10.8,.64-3.15,3.8-5.33,7.17-5.11,1.28,.08,2.57,.21,3.84,.38,.65,.09,.91-.1,1.03-.71,.15-.78,.37-1.54,.6-2.3,.63-2.08,2.14-3.08,4.39-2.89,1.13,.09,2.26,.19,3.37,.35,.7,.1,1.08-.02,1.2-.78,.13-.81,.38-1.62,.65-2.4,.67-1.96,2.15-2.88,4.31-2.69,1.09,.09,2.19,.14,3.25,.35,.94,.18,1.25-.18,1.4-.98,.16-.85,.43-1.68,.64-2.52,.31-1.24,1.05-2.14,2.19-2.79,2.92-1.66,5.8-3.4,8.75-5.02,.85-.47,1.04-.99,1-1.89-.86-15.92,10.87-29.5,27.21-31.52,1.38-.17,3,.13,4.11-.47,1.07-.58,1.58-2.08,2.43-3.11C86.85,1.19,99.23-2.25,110.41,1.49c11.02,3.69,18.55,13.91,18.59,26.52Zm-48.66-10c-.46-.18-.93-.2-1.41-.13-1.31-.12-2.71-.12-4.18,0-.48-.06-.96-.05-1.41,.14-.27,.02-.5,.08-.69,.1-1.89,.15-3.67,.67-5.4,1.4-.24,.07-.45,.16-.65,.26-.17,.07-.35,.13-.52,.2-.24,.15-.45,.23-.62,.28-.36,.15-.73,.26-1.07,.44-9.78,5.01-15.31,15.15-14.01,25.76,.2,1.6-.3,2.64-1.77,3.42-2.49,1.33-4.82,2.95-7.37,4.16-2.34,1.11-3.55,2.67-4.01,5.16-.55,3.01-2.04,3.86-5.17,3.54-.31-.03-.62-.07-.93-.1q-2.79-.29-3.46,2.39c-.07,.29-.15,.59-.26,.87-.54,1.45-1.87,2.39-3.47,2.42-.66,.01-1.32-.04-1.98-.11q-3.12-.31-3.9,2.6c-.59,2.21-2.1,3.24-4.48,3.04-1.36-.12-2.71-.28-4.07-.41-2.08-.2-2.98,.44-3.33,2.42-.53,2.93-1.02,5.87-1.56,8.79-.09,.48-.06,.78,.49,.94,3,.93,6,1.87,8.99,2.81,.9,.61,1.71,.51,2.67-.05,13.09-7.62,26.2-15.21,39.33-22.77,.87-.5,.88-1.06,.77-1.86-1.43-10.96,2.18-20.08,10.71-27.41,1.67-1.43,3.62-2.48,5.45-3.68,1.96-.76,3.93-1.52,5.89-2.27,.19-.04,.34-.1,.46-.14,.16-.04,.32-.08,.47-.12,.19-.05,.34-.08,.46-.12,.63-.12,1.25-.24,1.88-.36,.11-.03,.27-.05,.46-.09,.39-.05,.78-.11,1.18-.16,.17-.02,.32-.02,.47-.05,.94-.06,1.88-.13,2.82-.19,.4-.02,.72-.02,.94,0,1.56,.13,3.13,.26,4.69,.39,.18,.02,.33,.05,.46,.08,.61,.21,1.23,.36,1.88,.37,1.75,.61,3.56,1.04,5.3,1.73-.09-.43-.23-.73-.4-1.02-2.44-4.09-5.77-7.34-10.04-9.65-2-1.08-4.06-2.04-6.36-2.41-.82-.35-1.68-.53-2.58-.54-.11,0-.34-.05-.69-.1Zm-3.08,69.02c.28-.31,.62-.59,.83-.94,.98-1.65,2.31-1.98,4.24-1.56,4.36,.95,8.74,.91,13.01-.63,.27-.03,.55,0,.8-.09,3.35-1.12,6.41-2.73,9.06-5.02,5.26-4.53,8.28-10.21,9.03-16.96,.36-3.24,.03-6.46-.91-9.61-.21-.69-.55-.93-1.27-.64-.96,.39-1.95,.74-2.93,1.11-1.73,.26-3.41,.82-5.16,.85-.94,.02-1.4,.35-1.81,1.18-1.91,3.79-6.7,5.56-10.84,4.08-4.26-1.52-6.7-5.92-5.6-10.09,1.13-4.28,5.38-7.13,9.75-6.48,3.79,.56,6.28,2.64,7.39,6.19,.2,.65,.46,.96,1.21,.81,1.18-.24,2.39-.31,3.51-.78,.9-.12,1.71-.5,2.56-.78,.86-.29,1.05-.64,.53-1.48-1.59-2.54-3.51-4.8-5.88-6.68-3.08-2.43-6.49-4.28-10.42-5.1-9.69-2.86-21.45,.86-27.77,9.11-6.84,8.93-7.49,18.49-2.19,28.36,.73,1.36,.71,2.41-.28,3.61-1.74,2.13-3.21,4.48-5.08,6.48-1.94,2.08-2.43,4.21-1.75,6.89,.58,2.27-.59,3.84-2.92,4.56-.3,.09-.6,.18-.89,.27-1,.3-2.32,.34-2.92,.98-.7,.75,.06,2,.16,3.03,.21,2.11-.73,3.61-2.79,4.27-.48,.15-.98,.26-1.46,.42-.91,.32-2.2,.23-2.66,.96-.45,.72,.1,1.81,.23,2.74,.32,2.4-.67,3.88-3.09,4.6-1.38,.41-2.77,.78-4.14,1.21-1.54,.47-2.17,1.42-1.84,2.93,.66,3.02,1.41,6.02,2.09,9.04,.14,.61,.44,.79,1.05,.74,2.29-.19,4.58-.35,6.87-.53,1.88-.17,3.72,.25,5.22-1.74,7.08-9.43,14.38-18.71,21.57-28.06,1.85-2.41,3.83-4.72,5.49-7.26ZM124.56,27.92c.07-10.66-6.25-19.18-15.86-22.43-9.18-3.09-19.78-.07-25.79,7.36-.47,.58-.96,.98,.34,1.27,11.89,2.61,19.65,9.61,23.44,20.77,.19,.57,.47,1,.94,1.37,2.8,2.17,5.08,4.78,6.84,7.8,.51,.87,.84,.81,1.54,.25,5.57-4.55,8.36-10.37,8.55-16.38Zm-30.26,27.09c1.05,0,1.99-.33,2.8-.97,.38-.3,.42-.56-.16-.64-2.16-.33-4.26-.89-6.28-1.69-.17-.07-.36-.2-.53-.02-.16,.17-.03,.35,.03,.53,.49,1.56,2.31,2.79,4.14,2.79Zm4.08-5.79c-1.02-2.48-3.88-3.51-6.04-2.35-.2,.11-.46,.18-.5,.43-.03,.22,.2,.29,.37,.36,1.94,.77,3.93,1.35,6.16,1.56Z"/><path class="cls-3" d="M44.99,124.1c-2.29,.17-4.58,.34-6.87,.53-.61,.05-.92-.13-1.05-.74-.68-3.02-1.42-6.02-2.09-9.04-.33-1.51,.3-2.46,1.84-2.93,1.37-.42,2.76-.8,4.14-1.21,2.42-.72,3.41-2.2,3.09-4.6-.12-.93-.68-2.02-.23-2.74,.46-.73,1.75-.64,2.66-.96,.48-.17,.97-.27,1.46-.42,2.06-.66,3-2.16,2.79-4.27-.1-1.03-.86-2.27-.16-3.03,.6-.65,1.92-.68,2.92-.98,.3-.09,.6-.18,.89-.27,2.33-.72,3.49-2.29,2.92-4.56-.68-2.67-.19-4.81,1.75-6.89,1.87-2,3.34-4.35,5.08-6.48,.98-1.2,1.01-2.24,.28-3.61-5.3-9.87-4.65-19.43,2.19-28.36,6.32-8.25,18.08-11.96,27.77-9.11,.03,.07,.04,.17,.1,.2,3.17,1.54,5.82,3.73,8.2,6.24,2.12,2.24,3.77,4.77,4.91,7.6-1.12,.47-2.34,.54-3.51,.78-.75,.15-1.01-.16-1.21-.81-1.11-3.55-3.6-5.63-7.39-6.19-4.37-.65-8.62,2.19-9.75,6.48-1.1,4.17,1.34,8.57,5.6,10.09,4.14,1.48,8.92-.29,10.84-4.08,.42-.82,.88-1.16,1.81-1.18,1.76-.03,3.44-.6,5.16-.85,.93,3.7,1.07,7.45,.42,11.17-1.29,7.35-5.08,13.28-11.24,17.82-.99,.73-2.25,1.14-2.97,2.21-4.27,1.55-8.65,1.58-13.01,.63-1.94-.42-3.26-.09-4.24,1.56-.21,.35-.55,.63-.83,.94-.76-.13-1.52-.26-2.28-.39-.66-.12-1.17-.03-1.62,.56-3.49,4.54-7.02,9.06-10.52,13.6-3.99,5.17-7.96,10.34-11.94,15.52-1.98,2.58-3.94,5.18-5.91,7.78Zm.59-4.45c1.07,0,1.66-.69,2.23-1.43,8.18-10.6,16.37-21.2,24.55-31.8,1.21-1.57,2.45-3.13,3.6-4.74,.77-1.08,.52-2.32-.47-3.01-.99-.69-2.24-.5-3.12,.5-.3,.34-.57,.72-.85,1.08-8.95,11.6-17.89,23.2-26.84,34.8-.37,.48-.78,.95-1.07,1.48-.78,1.45,.3,3.13,1.97,3.12Z"/><path class="cls-4" d="M66.08,19.98c.17-.07,.35-.13,.52-.2,.23-.15,.47-.18,.65-.26,1.73-.73,3.51-1.25,5.4-1.4,.22,0,.43-.11,.69-.1,.46-.19,.93-.19,1.41-.14,1.42-.07,2.82-.16,4.18,0,.48-.07,.95-.05,1.41,.13,.3,.05,.52,.09,.69,.1,.9,.01,1.76,.19,2.58,.54,.35,.65,1.14,.57,1.68,.91,3.91,2.44,7.09,5.56,9.62,9.32,.23,.35,.51,.69,.19,1.12-.65-.01-1.27-.16-1.88-.37-.08-.03-.2-.06-.46-.08-1.56-.13-3.13-.26-4.69-.39-.3-.04-.61-.02-.94,0l-2.82,.19c-.17,.02-.32,.05-.47,.05-.39,.05-1.49,.23-1.64,.25-.63,.12-2.2,.49-2.34,.48-.16,.04-4.86,1.77-6.82,2.53-.85-.08-1.58,.32-2.31,.6-4.62,1.78-8.6,4.4-11.84,8.11-2.7,3.1-4.53,6.59-5.75,10.44-.8,2.5-.77,5.1-1.2,7.64-1.08-.55-2.05-.33-3.07,.26-8.04,4.69-16.11,9.35-24.17,14.02-3.54,2.05-7.09,4.11-10.63,6.16-.84,.49-1.32,1.17-1.25,2.13,.06,.81,.49,1.43,1.26,1.78,.91,.4,1.73,.12,2.54-.35,4.98-2.89,9.96-5.77,14.95-8.66,6.79-3.92,13.58-7.84,20.38-11.76,1.04,.5,.38,1.56,.81,2.27,.34,.55,0,.89-.49,1.18-3.43,1.99-6.86,4-10.29,5.99-6.23,3.61-12.46,7.25-18.72,10.81-3.04,1.73-5.96,3.64-9.13,5.14-3-.94-5.99-1.89-8.99-2.81-.54-.17-.58-.46-.49-.94,.54-2.93,1.03-5.86,1.56-8.79,.36-1.98,1.25-2.61,3.33-2.42,1.36,.13,2.71,.29,4.07,.41,2.38,.2,3.89-.83,4.48-3.04q.78-2.92,3.9-2.6c.66,.07,1.32,.12,1.98,.11,1.59-.03,2.92-.97,3.47-2.42,.11-.28,.18-.58,.26-.87q.67-2.68,3.46-2.39c.31,.03,.62,.07,.93,.1,3.13,.32,4.61-.53,5.17-3.54,.46-2.49,1.68-4.05,4.01-5.16,2.54-1.21,4.88-2.82,7.37-4.16,1.47-.79,1.96-1.82,1.77-3.42-1.3-10.61,4.23-20.74,14.01-25.76,.34-.17,.71-.29,1.07-.44,.29,.07,.53,.05,.62-.28Z"/><path class="cls-2" d="M14.12,88.41c3.17-1.5,6.1-3.41,9.13-5.14,6.27-3.56,12.49-7.2,18.72-10.81,3.43-1.99,6.86-4,10.29-5.99,.49-.29,.82-.62,.49-1.18-.43-.71,.23-1.78-.81-2.27,1.17-1.44,1.17-2.14,0-3.58,.43-2.54,.41-5.14,1.2-7.64,1.23-3.84,3.05-7.33,5.75-10.44,3.23-3.71,7.22-6.33,11.84-8.11,.73-.28,1.46-.68,2.31-.6-1.83,1.2-3.78,2.24-5.45,3.68-8.53,7.33-12.15,16.45-10.71,27.41,.1,.79,.1,1.35-.77,1.86-13.13,7.56-26.24,15.15-39.33,22.77-.96,.56-1.77,.66-2.67,.05Z"/><path class="cls-5" d="M44.99,124.1c1.97-2.59,3.93-5.19,5.91-7.78,3.97-5.18,7.95-10.36,11.94-15.52,3.5-4.54,7.03-9.05,10.52-13.6,.45-.59,.97-.68,1.62-.56,.76,.14,1.52,.26,2.28,.39-1.66,2.54-3.64,4.86-5.49,7.26-7.19,9.35-14.48,18.63-21.57,28.06-1.49,1.99-3.34,1.57-5.22,1.74Z"/><path class="cls-5" d="M95.34,83.91c.72-1.07,1.98-1.48,2.97-2.21,6.15-4.54,9.95-10.47,11.24-17.82,.65-3.72,.51-7.48-.42-11.17,.98-.37,1.96-.71,2.93-1.11,.73-.3,1.07-.06,1.27,.64,.94,3.15,1.27,6.37,.91,9.61-.75,6.75-3.77,12.43-9.03,16.96-2.65,2.28-5.72,3.9-9.06,5.02-.25,.08-.53,.06-.8,.09Z"/><path class="cls-5" d="M107.58,48.47c-1.14-2.84-2.79-5.36-4.91-7.6-2.38-2.51-5.03-4.7-8.2-6.24-.05-.03-.07-.13-.1-.2,3.93,.83,7.33,2.67,10.42,5.1,2.38,1.88,4.29,4.13,5.88,6.68,.52,.84,.33,1.19-.53,1.48-.85,.28-1.66,.65-2.56,.78Z"/><path class="cls-2" d="M95.11,30c.32-.44,.04-.78-.19-1.12-2.53-3.76-5.71-6.88-9.62-9.32-.55-.34-1.33-.25-1.68-.91,2.29,.37,4.36,1.32,6.36,2.41,4.27,2.31,7.6,5.56,10.04,9.65,.17,.29,.31,.59,.4,1.02-1.74-.69-3.55-1.12-5.3-1.73Z"/><path class="cls-2" d="M94.31,55.01c-1.82,0-3.65-1.23-4.14-2.79-.05-.17-.18-.36-.03-.53,.17-.18,.36-.05,.53,.02,2.02,.81,4.12,1.36,6.28,1.69,.57,.09,.53,.35,.16,.64-.81,.64-1.75,.96-2.8,.97Z"/><path class="cls-2" d="M98.38,49.22c-2.23-.2-4.22-.78-6.16-1.56-.17-.07-.41-.13-.37-.36,.03-.25,.3-.32,.5-.43,2.16-1.17,5.03-.13,6.04,2.35Z"/><path class="cls-4" d="M66.08,19.98c-.09,.33-.33,.36-.62,.28,.21-.07,.41-.18,.62-.28Z"/><path class="cls-1" d="M45.58,119.64c-1.67,.01-2.75-1.67-1.97-3.12,.29-.53,.7-1,1.07-1.48,8.94-11.6,17.89-23.2,26.84-34.8,.28-.36,.55-.74,.85-1.08,.88-1,2.13-1.2,3.12-.5,.99,.69,1.24,1.94,.47,3.01-1.15,1.61-2.39,3.17-3.6,4.74-8.18,10.6-16.37,21.2-24.55,31.8-.58,.75-1.16,1.43-2.23,1.43Z"/><path class="cls-1" d="M51.94,59.44c1.16,1.44,1.16,2.14,0,3.58-6.79,3.92-13.59,7.84-20.38,11.76-4.99,2.88-9.97,5.76-14.95,8.66-.81,.47-1.63,.75-2.54,.35-.77-.34-1.2-.96-1.26-1.78-.07-.96,.41-1.65,1.25-2.13,3.55-2.05,7.09-4.1,10.63-6.16,8.06-4.67,16.12-9.33,24.17-14.02,1.02-.6,1.99-.82,3.07-.26Z"/></g></g></svg>