<?xml version="1.0" encoding="UTF-8"?><svg id="Layer_2" xmlns="http://www.w3.org/2000/svg" viewBox="0 0 116.56 116.79"><defs><style>.cls-1{fill:#e9f6f6;}.cls-2{fill:#fefefe;}.cls-3{fill:#b6e5f5;}.cls-4{fill:#06ffd5;}.cls-5{fill:#1a2959;}</style></defs><g id="Layer_1-2"><g><path class="cls-5" d="M101.52,116.79H.03C.03,80.77,.03,44.75,0,8.73c0-1.01,.25-1.22,1.23-1.22,18.27,.03,36.55,.02,54.82,.02,.27,0,.53-.02,.8,0,.48,.05,.71-.08,.57-.62-.09-.37-.06-.77-.17-1.12-.2-.62,.07-.85,.62-1.08,2.77-1.11,5.53-2.26,8.27-3.43,.53-.23,.8-.15,1.12,.31,.6,.88,1.24,1.72,1.89,2.56,.47,.6,1.5,.51,1.68-.19,.34-1.31,.84-2.59,.89-3.96h10.7c.1,1.25,.58,2.42,.8,3.64,.1,.53,.35,.76,.85,.88,.57,.14,.83-.15,1.1-.55,.55-.77,1.15-1.51,1.67-2.3,.35-.54,.68-.64,1.3-.37,2.7,1.17,5.42,2.31,8.16,3.39,.67,.26,.73,.6,.62,1.19-.18,.97-.26,1.96-.46,2.92-.1,.5,.06,.76,.45,1.02,.4,.27,.71,.29,1.12,.02,.85-.56,1.76-1.04,2.61-1.59,.44-.29,.74-.34,1.16,.09,2.12,2.17,4.26,4.32,6.43,6.44,.43,.42,.38,.71,.09,1.16-.55,.86-1.03,1.76-1.59,2.62-.27,.41-.28,.72,0,1.13,.27,.38,.52,.55,1.02,.45,1-.2,2.02-.29,3.03-.47,.51-.09,.81-.05,1.04,.52,1.12,2.81,2.28,5.61,3.46,8.39,.23,.54,.13,.81-.32,1.12-.87,.6-1.72,1.24-2.55,1.9-.6,.48-.5,1.51,.18,1.69,1.31,.33,2.6,.79,3.96,.92v10.72c-1.3,.03-2.48,.59-3.74,.79-.48,.08-.68,.35-.78,.81-.1,.49,.05,.78,.44,1.05,.78,.54,1.5,1.16,2.3,1.67,.62,.4,.74,.77,.43,1.48-.89,2-1.68,4.06-2.54,6.07-.38,.9-.48,2.17-1.25,2.58-.65,.34-1.74-.15-2.64-.28-.3-.04-.61-.03-.9-.11-.49-.14-.82-.09-1.14,.39-.31,.47-.26,.8,.02,1.23,.51,.8,.94,1.65,1.47,2.43,.39,.57,.38,.92-.15,1.43-2.02,1.95-3.96,3.97-5.97,5.94-.45,.44-.6,.88-.6,1.49,.02,14.96,.02,29.93,.02,44.89Zm-59.88-32.41c-.4-.08-.74,.09-1.09,.22-12.73,4.78-19.85,13.98-21.59,27.45-.1,.76,.13,.95,.88,.95,6.9-.03,13.8-.01,20.69-.02,.23,0,.54,.13,.71-.26-.13-.16-.27-.33-.41-.49-2.54-3-3.54-6.47-3.17-10.36,.34-3.6,1.12-7.11,2.09-10.59,.64-2.29,1.29-4.58,1.93-6.87l.14-.1-.08-.06s-.07,.08-.1,.13Zm-1.99-57.93c-.3-.02-.56-.05-.82-.05-11.34,0-22.68,.01-34.02-.03-1.04,0-1.03,.46-1.03,1.21,.01,22.16,0,44.32,.01,66.47,0,.35,.04,.7,.07,1.04,.44-.55,.7-1.12,.97-1.69,.29-.61,.58-1.24,.91-1.83,8.41-15.31,21.15-24.44,38.44-27.07,.74-.11,1.45-.01,1.68-1.19,.19-.98,.98-1.86,1.57-2.74,.3-.45,.28-.77-.02-1.21-.29-.42-.56-.49-1.04-.4-1,.2-2.03,.27-3.03,.48-.57,.12-.8-.05-1-.57-.75-1.9-1.55-3.78-2.33-5.68-.44-1.08-1.34-2.26-1.17-3.24,.18-1.01,1.71-1.45,2.6-2.2,.06-.05,.12-.1,.18-.13,.47-.24,.57-.6,.5-1.13-.08-.6-.48-.71-.92-.82-.92-.23-1.82-.54-2.76-.67-.77-.11-.87-.49-.86-1.15,.03-2.66,.09-5.32-.02-7.98-.05-1.27,.3-1.86,1.59-1.95,.74-.05,1.46-.39,2.2-.54,.49-.1,.69-.35,.77-.82,.08-.47-.03-.77-.44-1.05-.84-.58-1.63-1.24-2.48-1.82-.46-.31-.56-.58-.33-1.12,.3-.68,.7-1.34,.77-2.15Zm52.69,41.78c-.19-.46,.2-.65,.56-.88,1.2-.79,2.43-1.55,3.58-2.42,.6-.46,1.02-.4,1.6-.04,.86,.53,1.76,1.57,2.62,1.38,.85-.19,1.45-1.36,2.24-2,.87-.7,1.05-1.38,.28-2.23-1.34-1.49-1.38-2.87,.1-4.36,.78-.79,1.07-2.3,1.95-2.7,.87-.4,2.19,.14,3.31,.32,.39,.06,.64,.05,.8-.36,.48-1.23,1.38-2.47,1.35-3.68-.02-.9-1.59-1.34-2.41-2.06-.03-.02-.06-.05-.09-.07-.42-.23-.52-.5-.4-1.01,.36-1.51,.66-3.04,.92-4.57,.08-.48,.23-.72,.71-.86,1.1-.31,2.66-.1,3.18-1.08,.49-.92,.13-2.3,.14-3.48,0-.04,0-.08,0-.11,.07-.55-.15-.82-.71-.93-.78-.15-1.54-.41-2.32-.56-.62-.12-.97-.32-1.04-1.06-.1-1.13-.26-2.29-.64-3.35-.46-1.29-.15-2.01,.99-2.76,1.94-1.26,1.89-1.35,.99-3.5-.88-2.12-.89-2.15-3.19-1.72-1.15,.22-2.03,.15-2.51-1.12-.19-.52-.51-1.06-.92-1.43-1.67-1.53-1.53-3.05-.12-4.63,.66-.74,.52-1.34-.24-1.97-.82-.67-1.43-1.88-2.32-2.1-.97-.24-1.9,.88-2.82,1.44-.55,.33-.91,.28-1.4-.1-.96-.73-1.93-1.51-3.01-2.03-1.1-.54-1.27-1.22-1.08-2.33,.45-2.49,.41-2.49-1.84-3.43-1.97-.82-2.05-.88-3.24,.95-.77,1.18-1.55,1.7-2.91,1.09-.4-.18-.89-.28-1.33-.27-2.29,.06-3.4-1.05-3.5-3.32-.03-.76-.38-1.22-1.3-1.11-1.16,.14-2.57-.42-3.43,.22-.77,.57-.66,2.01-.93,3.07-.12,.46-.31,.67-.81,.75-1.57,.26-3.13,.57-4.68,.94-.47,.11-.66-.04-.93-.36-.75-.88-1.15-2.46-2.22-2.55-1.07-.1-2.22,.83-3.35,1.24-.58,.21-.71,.51-.58,1.1,.18,.81,.17,1.67,.37,2.47,.16,.62-.1,.87-.56,1.17-1.22,.77-2.44,1.54-3.58,2.41-.57,.43-.95,.4-1.5,.04-.85-.55-1.79-1.45-2.64-1.4-.94,.06-1.5,1.38-2.32,2.03-.82,.65-1.06,1.29-.28,2.13,1.37,1.5,1.51,2.99-.11,4.44-.17,.15-.31,.35-.39,.56-.73,2.02-2.1,2.67-4.1,1.92-1.06-.4-1.56,.04-1.87,1.04-.31,1.01-1.22,2.11-1,2.92,.23,.82,1.51,1.37,2.37,1.98,.49,.35,.67,.65,.49,1.3-.35,1.31-.6,2.67-.79,4.02-.12,.82-.44,1.18-1.29,1.37-2.83,.63-2.81,.68-2.81,3.57,0,1.69-.02,1.8,1.74,2.1,1.63,.28,2.62,.91,2.5,2.72-.02,.37,.04,.78,.2,1.11,.96,2.02,.29,3.4-1.62,4.32-.88,.42-1.03,1-.54,1.88,.53,.95,.55,2.4,1.4,2.89,.85,.5,2.12-.12,3.19-.3,.56-.09,.83,.05,1.08,.51,.74,1.33,1.59,2.59,2.53,3.78,.34,.43,.33,.75,.06,1.22-.56,.94-1.7,1.92-1.49,2.82,.22,.95,1.49,1.62,2.21,2.5,.58,.71,1.13,.79,1.77,.19,1.67-1.56,3.01-1.12,4.87,.07,2.07,1.32,2.98,2.59,2.13,4.92-.27,.73,.12,1,.73,1.23,.89,.33,1.77,.69,2.61,1.11,.61,.3,.94,.14,1.28-.4,.47-.73,1.03-1.41,1.54-2.12,.22-.3,.42-.49,.84-.36,1.56,.48,3.17,.75,4.78,.98,.52,.07,.66,.35,.78,.8,.28,1.05,.15,2.55,.95,3.04,.84,.51,2.21,.09,3.33,.21,.94,.1,1.35-.29,1.38-1.15,.08-2.22,1.27-2.89,3.39-3.36,2.46-.54,4.08-.3,5.14,2.06,.21,.48,.55,.61,1.09,.34,.95-.46,1.95-.84,2.94-1.21,.52-.2,.67-.46,.54-1.03-.2-.89-.28-1.8-.42-2.79ZM49.27,11.51c-.27-.08-.36-.14-.46-.14-14.74,0-29.48,0-44.23-.02-.72,0-.78,.33-.77,.9,.02,3.04,.05,6.08-.02,9.11-.02,.97,.19,1.26,1.22,1.26,11.26-.04,22.51-.09,33.77,.03,1.96,.02,3.14-.38,3.52-2.36,.12-.64,.52-.74,1.09-.64,1.01,.18,2.02,.29,3.03,.48,.5,.1,.76-.09,1.02-.48,.25-.37,.22-.66-.01-1.03-.53-.83-.97-1.72-1.53-2.53-.39-.57-.39-.94,.15-1.43,1.08-.98,2.09-2.05,3.21-3.16Zm1.54,59.47c-.21,.45-.31,.64-.39,.84-2.53,6.46-4.92,12.97-6.79,19.65-1.13,4.02-2.23,8.06-2.2,12.28,.03,4.64,3.61,8.68,8.06,9.16,5.03,.54,9.37-2.49,10.42-7.28,.45-2.05,.2-4.09-.16-6.11-1.73-9.8-5.34-19.01-8.94-28.54Zm9.23,42.02c.69,0,1.11,0,1.52,0,6.41,0,12.81,0,19.22,0,1.84,0,1.91,0,1.64-1.84-1.94-13.24-9.25-22.1-21.77-26.67-.27-.1-.58-.36-.93-.11,1.25,3.88,2.4,7.76,3.25,11.73,.45,2.08,.79,4.18,.94,6.3,.28,3.99-.98,7.45-3.87,10.58Zm-29.2-40.66c-.08,.04-.18,.09-.28,.14-4.09,1.96-7.81,4.48-11.18,7.5-.44,.39-.22,.6,.08,.9,2.33,2.33,4.67,4.66,6.99,7.01,.33,.33,.54,.4,.92,.05,2.24-2.01,4.72-3.67,7.41-5.01,.46-.23,.59-.42,.37-.94-1.28-3.03-2.52-6.08-3.78-9.12-.09-.21-.09-.57-.51-.52Zm54.44,10.66c-2.54,2.54-5.02,5.05-7.52,7.53-.33,.33-.39,.55-.05,.93,2.02,2.29,3.7,4.8,5.05,7.54,.19,.38,.36,.47,.78,.29,3.1-1.31,6.21-2.6,9.33-3.88,.37-.15,.56-.28,.34-.74-2.04-4.28-4.65-8.16-7.92-11.67ZM9.4,113.01c1.59,0,3.18-.03,4.77,.01,.68,.02,1.03-.12,1.07-.91,.13-2.9,.74-5.71,1.65-8.46,.15-.46,.18-.73-.36-.95-3.08-1.25-6.16-2.52-9.22-3.81-.47-.2-.67-.11-.83,.35-1.47,4.21-2.36,8.54-2.6,13-.03,.61,.16,.79,.75,.77,1.59-.03,3.18-.01,4.77-.01Zm6.9-29.92c-.14,.13-.28,.25-.4,.38-3.02,3.34-5.49,7.05-7.47,11.1-.26,.54-.08,.69,.4,.89,3.01,1.23,6.01,2.49,9,3.75,.5,.21,.77,.21,1.04-.36,1.29-2.68,2.95-5.12,4.92-7.35,.36-.4,.35-.63-.04-1.01-2.35-2.32-4.67-4.66-7.01-7-.13-.13-.28-.25-.45-.4Zm75.72,29.92c1.56,0,3.11-.05,4.66,.02,.81,.03,1.03-.21,.97-1.01-.31-4.3-1.12-8.49-2.5-12.58-.24-.71-.51-.73-1.13-.46-2.92,1.25-5.86,2.47-8.8,3.66-.58,.24-.8,.44-.56,1.13,.92,2.7,1.49,5.49,1.63,8.35,.03,.67,.24,.93,.95,.91,1.59-.05,3.19-.01,4.78-.01Zm5.72-18.01c0-3.72,0-7.44,0-11.16,0-4.64,0-9.27,0-13.91,0-.31,.17-.8-.27-.86-.26-.04-.58,.29-.87,.46-.3,.18-.18,.45-.14,.71,.15,.98,.23,1.97,.45,2.92,.17,.75-.07,1.06-.76,1.33-1.94,.75-3.84,1.59-5.77,2.38-.98,.4-2.04,1.19-2.93,1.04-.92-.16-1.31-1.54-1.98-2.35-.1-.12-.2-.23-.27-.36-.27-.48-.61-.75-1.2-.57-.34,.1-.58,.18-.72,.59-.22,.67,.26,.89,.61,1.19,2.81,2.41,5.3,5.1,7.53,8.05,2.46,3.27,4.48,6.82,6.33,10.54Zm-49.91-27.06c-4.48,.24-8.67,1.19-12.76,2.6-.54,.19-.42,.47-.25,.86,1.25,3.01,2.5,6.01,3.71,9.03,.23,.58,.52,.7,1.1,.51,1-.33,2.03-.6,3.05-.86,.39-.1,.67-.21,.83-.64,1.41-3.79,2.83-7.58,4.31-11.51Zm34.65,12.48c.03-.44-1.21-1.28-1.85-1.28-2.62,0-5.23-.02-7.85,.01-.67,0-1.03-.12-1.15-.87-.16-1.01-.51-1.98-.73-2.98-.11-.52-.43-.62-.87-.71-.51-.1-.65,.19-.81,.57-.92,2.25-1.82,4.49-2.78,6.72-.23,.54-.17,.78,.36,1.05,2.67,1.3,5.11,2.97,7.33,4.95,.42,.37,.64,.33,1.01-.04,2.32-2.35,4.66-4.68,6.99-7.02,.13-.13,.25-.28,.35-.39Zm-24.76-10.21c.15-.42-.06-.62-.34-.87-.8-.72-1.29,.06-1.89,.32-.74,.31-.95,.73-.59,1.57,.87,2.05,1.78,4.12,2.35,6.26,.51,1.89,1.46,2.92,3.41,3.06,.44,.03,.87,.24,1.29,.4,.52,.2,.82,.12,1.02-.46,.29-.86,.63-1.71,1.03-2.52,.33-.67,.22-.97-.49-1.24-1.9-.73-3.76-1.58-5.66-2.32-.57-.22-.74-.47-.61-1.08,.21-1.04,.33-2.1,.48-3.11Z"/><path class="cls-2" d="M116.54,34.23c-1.36-.13-2.65-.58-3.96-.92-.69-.17-.78-1.21-.18-1.69,.83-.66,1.68-1.3,2.55-1.9,.45-.31,.55-.58,.32-1.12-1.19-2.78-2.34-5.58-3.46-8.39-.23-.57-.53-.61-1.04-.52-1.01,.18-2.03,.27-3.03,.47-.5,.1-.75-.06-1.02-.45-.28-.4-.27-.71,0-1.13,.56-.86,1.04-1.76,1.59-2.62,.29-.45,.34-.74-.09-1.16-2.17-2.12-4.31-4.27-6.43-6.44-.42-.43-.71-.38-1.16-.09-.86,.56-1.76,1.03-2.61,1.59-.42,.27-.72,.26-1.12-.02-.39-.27-.55-.52-.45-1.02,.2-.96,.27-1.95,.46-2.92,.11-.6,.05-.93-.62-1.19-2.74-1.08-5.46-2.22-8.16-3.39-.62-.27-.94-.17-1.3,.37-.52,.79-1.12,1.52-1.67,2.3-.28,.39-.54,.69-1.1,.55-.5-.13-.75-.35-.85-.88-.22-1.22-.7-2.39-.8-3.64C93.5,.02,104.6,.03,115.69,0c.71,0,.87,.16,.87,.87-.03,11.12-.02,22.24-.02,33.36Z"/><path class="cls-1" d="M39.65,26.45c-.07,.81-.47,1.47-.77,2.15-.24,.54-.13,.8,.33,1.12,.84,.58,1.63,1.24,2.48,1.82,.41,.28,.52,.58,.44,1.05-.08,.47-.27,.73-.77,.82-.74,.15-1.46,.48-2.2,.54-1.3,.1-1.64,.69-1.59,1.95,.11,2.66,.05,5.32,.02,7.98,0,.66,.09,1.04,.86,1.15,.93,.13,1.84,.44,2.76,.67,.44,.11,.85,.22,.92,.82,.07,.52-.03,.89-.5,1.13-.07,.03-.13,.08-.18,.13-.89,.75-2.42,1.19-2.6,2.2-.17,.98,.73,2.16,1.17,3.24,.77,1.89,1.58,3.77,2.33,5.68,.2,.52,.44,.68,1,.57,1-.21,2.03-.28,3.03-.48,.48-.09,.75-.02,1.04,.4,.3,.44,.32,.76,.02,1.21-.58,.88-1.38,1.76-1.57,2.74-.22,1.17-.94,1.07-1.68,1.19-17.3,2.63-30.04,11.76-38.44,27.07-.33,.6-.61,1.22-.91,1.83-.27,.56-.53,1.14-.97,1.69-.02-.35-.07-.7-.07-1.04,0-22.16,0-44.32-.01-66.47,0-.76-.01-1.22,1.03-1.21,11.34,.04,22.68,.03,34.02,.03,.26,0,.52,.03,.82,.05Zm-5.79,7.47c0-.91-.05-1.83,.03-2.73,.07-.86-.2-1.08-1.06-1.07-8.11,.04-16.22,.03-24.33,0-.82,0-.99,.24-.98,1.01,.04,4.33,.05,8.66,0,12.99-.01,.91,.24,1.11,1.12,1.1,7.84-.03,15.69-.02,23.53-.02q1.69,0,1.71-1.63c0-.68,0-1.37,0-2.05,0-2.53-.01-5.07-.02-7.6Zm-9.37,22.62c-2.23,0-4.46,0-6.7,0-2.76,0-2.71,0-2.76,2.74-.02,.94,.34,1.01,1.1,1.01,4.99-.03,9.99-.02,14.98-.02,2.83,0,2.81,0,2.78-2.85,0-.7-.2-.9-.89-.89-2.84,.04-5.68,.02-8.51,.02Zm-.07-3.8c2.27,0,4.54,0,6.81,0,2.68,0,2.65,0,2.67-2.74,0-.79-.21-1.02-1-1.01-5.03,.04-10.06,.02-15.1,.02-2.76,0-2.73,0-2.76,2.74,0,.78,.16,1.03,.98,1.01,2.8-.06,5.6-.02,8.4-.02Zm-3.68,11.34c-.95,0-1.9,0-2.84,0-2.9,0-2.87,0-2.85,2.88,0,.73,.23,.88,.9,.87,2.54-.04,5.08-.02,7.62-.02,2.92,0,2.89,0,2.82-2.94-.02-.69-.26-.81-.87-.8-1.59,.03-3.18,.01-4.78,.01Zm-11.34,0q-1.85,0-1.85,1.69,0,2.04,2.06,2.04,1.71,0,1.71-1.75,0-1.98-1.93-1.98Zm.01-7.53q-1.86,0-1.86,1.79,0,1.94,1.94,1.94t1.84-1.85-1.91-1.88Zm.04-7.53q-1.9,0-1.9,1.75,0,1.98,2.01,1.98,1.76,0,1.76-1.8,0-1.93-1.87-1.93Z"/><path class="cls-4" d="M92.34,68.23c.14,.99,.22,1.9,.42,2.79,.13,.57-.02,.83-.54,1.03-.99,.37-1.99,.75-2.94,1.21-.55,.27-.88,.14-1.09-.34-1.06-2.37-2.68-2.61-5.14-2.06-2.13,.47-3.31,1.15-3.39,3.36-.03,.85-.44,1.24-1.38,1.15-1.12-.11-2.49,.3-3.33-.21-.8-.49-.66-1.98-.95-3.04-.12-.45-.26-.72-.78-.8-1.61-.23-3.22-.5-4.78-.98-.42-.13-.62,.05-.84,.36-.5,.71-1.07,1.38-1.54,2.12-.34,.54-.67,.7-1.28,.4-.85-.42-1.73-.78-2.61-1.11-.61-.23-.99-.49-.73-1.23,.85-2.32-.07-3.6-2.13-4.92-1.86-1.19-3.21-1.63-4.87-.07-.64,.6-1.19,.52-1.77-.19-.72-.87-2-1.55-2.21-2.5-.21-.9,.94-1.88,1.49-2.82,.28-.47,.28-.79-.06-1.22-.94-1.19-1.79-2.45-2.53-3.78-.26-.46-.52-.61-1.08-.51-1.07,.18-2.34,.79-3.19,.3-.85-.49-.88-1.94-1.4-2.89-.48-.88-.34-1.45,.54-1.88,1.92-.92,2.58-2.29,1.62-4.32-.16-.33-.23-.75-.2-1.11,.11-1.81-.87-2.44-2.5-2.72-1.76-.3-1.74-.41-1.74-2.1,0-2.89-.01-2.94,2.81-3.57,.85-.19,1.17-.55,1.29-1.37,.19-1.35,.44-2.7,.79-4.02,.18-.65,0-.95-.49-1.3-.86-.62-2.14-1.16-2.37-1.98-.23-.82,.69-1.91,1-2.92,.31-1,.81-1.44,1.87-1.04,2,.75,3.37,.1,4.1-1.92,.08-.21,.22-.41,.39-.56,1.62-1.44,1.48-2.93,.11-4.44-.77-.85-.54-1.48,.28-2.13,.82-.65,1.39-1.97,2.32-2.03,.85-.06,1.79,.85,2.64,1.4,.55,.36,.93,.39,1.5-.04,1.14-.87,2.36-1.64,3.58-2.41,.47-.29,.72-.54,.56-1.17-.2-.81-.2-1.66-.37-2.47-.13-.59,0-.89,.58-1.1,1.14-.41,2.28-1.34,3.35-1.24,1.07,.1,1.47,1.67,2.22,2.55,.27,.32,.46,.48,.93,.36,1.55-.36,3.11-.68,4.68-.94,.51-.08,.7-.29,.81-.75,.27-1.06,.16-2.5,.93-3.07,.87-.64,2.28-.08,3.43-.22,.92-.11,1.26,.35,1.3,1.11,.1,2.26,1.21,3.38,3.5,3.32,.44-.01,.92,.09,1.33,.27,1.36,.61,2.14,.09,2.91-1.09,1.19-1.82,1.27-1.77,3.24-.95,2.25,.94,2.29,.95,1.84,3.43-.2,1.1-.02,1.79,1.08,2.33,1.08,.53,2.04,1.3,3.01,2.03,.49,.38,.85,.43,1.4,.1,.92-.56,1.85-1.68,2.82-1.44,.89,.21,1.5,1.42,2.32,2.1,.76,.63,.9,1.22,.24,1.97-1.41,1.58-1.55,3.1,.12,4.63,.41,.37,.72,.91,.92,1.43,.48,1.27,1.36,1.34,2.51,1.12,2.3-.44,2.31-.4,3.19,1.72,.9,2.16,.95,2.24-.99,3.5-1.14,.74-1.45,1.46-.99,2.76,.38,1.06,.54,2.22,.64,3.35,.07,.74,.41,.94,1.04,1.06,.78,.15,1.54,.41,2.32,.56,.56,.11,.78,.38,.71,.93,0,.04,0,.08,0,.11-.01,1.18,.35,2.55-.14,3.48-.51,.97-2.08,.77-3.18,1.08-.48,.14-.63,.38-.71,.86-.26,1.53-.55,3.06-.92,4.57-.12,.51-.03,.79,.4,1.01,.03,.02,.06,.05,.09,.07,.82,.72,2.39,1.15,2.41,2.06,.03,1.21-.87,2.45-1.35,3.68-.16,.41-.41,.43-.8,.36-1.12-.18-2.44-.72-3.31-.32-.87,.41-1.16,1.91-1.95,2.7-1.48,1.5-1.44,2.88-.1,4.36,.77,.85,.6,1.53-.28,2.23-.79,.64-1.39,1.81-2.24,2-.87,.19-1.76-.85-2.62-1.38-.58-.36-1-.42-1.6,.04-1.14,.87-2.37,1.63-3.58,2.42-.36,.24-.75,.42-.56,.88Zm-15.25-56.9c-15.58,0-28.18,12.64-28.18,28.25,0,15.62,12.62,28.23,28.21,28.21,15.53-.02,28.07-12.59,28.13-28.19,.05-15.58-12.6-28.27-28.16-28.28Z"/><path class="cls-3" d="M49.27,11.51c-1.12,1.11-2.13,2.17-3.21,3.16-.54,.49-.54,.86-.15,1.43,.56,.81,1,1.7,1.53,2.53,.23,.37,.26,.66,.01,1.03-.26,.39-.52,.57-1.02,.48-1-.19-2.02-.31-3.03-.48-.57-.1-.96,0-1.09,.64-.39,1.97-1.57,2.38-3.52,2.36-11.25-.12-22.51-.07-33.77-.03-1.03,0-1.24-.29-1.22-1.26,.06-3.04,.03-6.08,.02-9.11,0-.57,.05-.9,.77-.9,14.74,.02,29.48,.02,44.23,.02,.09,0,.19,.06,.46,.14Zm-26.72,5.45q0,1.94,1.98,1.94t1.85-1.86-1.94-1.98-1.89,1.89Zm-3.69,.04q0-1.93-1.87-1.93-1.96,0-1.96,1.94,0,1.9,1.91,1.9,1.92,0,1.92-1.91Zm-11.34-.08q0,1.99,1.93,1.99c.23,0,.46-.03,.68,0,1.03,.18,1.38-.27,1.22-1.25-.03-.18,0-.38,0-.57q0-2.02-2.01-2.02-1.81,0-1.81,1.85Z"/><path class="cls-1" d="M50.81,70.97c3.59,9.53,7.21,18.73,8.94,28.54,.36,2.02,.61,4.06,.16,6.11-1.05,4.79-5.39,7.82-10.42,7.28-4.44-.48-8.03-4.52-8.06-9.16-.02-4.22,1.07-8.26,2.2-12.28,1.87-6.68,4.27-13.19,6.79-19.65,.08-.2,.18-.39,.39-.84Zm-.09,38.3c3.09,.02,5.66-2.49,5.72-5.59,.06-3.11-2.56-5.76-5.68-5.75-3.08,0-5.65,2.57-5.66,5.65-.01,3.09,2.54,5.67,5.62,5.69Z"/><path class="cls-1" d="M60.04,112.99c2.89-3.13,4.15-6.59,3.87-10.58-.15-2.12-.49-4.22-.94-6.3-.85-3.97-2.01-7.85-3.25-11.73,.35-.25,.67,0,.93,.11,12.52,4.57,19.83,13.43,21.77,26.67,.27,1.83,.2,1.84-1.64,1.84-6.41,0-12.81,0-19.22,0-.41,0-.83,0-1.52,0Z"/><path class="cls-1" d="M41.68,84.41c-.64,2.29-1.29,4.58-1.93,6.87-.97,3.48-1.75,6.99-2.09,10.59-.37,3.89,.63,7.36,3.17,10.36,.14,.17,.28,.34,.41,.49-.17,.39-.47,.26-.71,.26-6.9,0-13.8,0-20.69,.02-.75,0-.98-.19-.88-.95,1.73-13.47,8.86-22.67,21.59-27.45,.35-.13,.7-.3,1.09-.22l.04,.04Z"/><path class="cls-4" d="M30.84,72.33c.42-.05,.42,.31,.51,.52,1.26,3.04,2.5,6.09,3.78,9.12,.22,.53,.09,.71-.37,.94-2.69,1.34-5.17,3.01-7.41,5.01-.38,.34-.6,.28-.92-.05-2.32-2.35-4.65-4.68-6.99-7.01-.29-.29-.51-.5-.08-.9,3.38-3.03,7.09-5.54,11.18-7.5,.1-.05,.2-.1,.28-.14Z"/><path class="cls-4" d="M85.27,82.99c3.26,3.51,5.87,7.39,7.92,11.67,.22,.46,.03,.59-.34,.74-3.11,1.28-6.23,2.57-9.33,3.88-.42,.18-.59,.1-.78-.29-1.35-2.74-3.03-5.26-5.05-7.54-.34-.38-.28-.6,.05-.93,2.5-2.49,4.99-4.99,7.52-7.53Z"/><path class="cls-4" d="M9.4,113.01c-1.59,0-3.18-.02-4.77,.01-.59,.01-.78-.16-.75-.77,.24-4.46,1.14-8.79,2.6-13,.16-.46,.36-.55,.83-.35,3.07,1.29,6.14,2.57,9.22,3.81,.54,.22,.51,.48,.36,.95-.91,2.75-1.52,5.56-1.65,8.46-.04,.79-.38,.93-1.07,.91-1.59-.04-3.18-.01-4.77-.01Z"/><path class="cls-4" d="M16.3,83.09c.17,.15,.32,.27,.45,.4,2.33,2.33,4.65,4.68,7.01,7,.39,.38,.39,.61,.04,1.01-1.96,2.23-3.63,4.67-4.92,7.35-.27,.56-.55,.57-1.04,.36-2.99-1.27-5.99-2.52-9-3.75-.48-.2-.66-.35-.4-.89,1.98-4.05,4.45-7.75,7.47-11.1,.12-.13,.26-.25,.4-.38Z"/><path class="cls-4" d="M92.02,113.01c-1.59,0-3.19-.03-4.78,.01-.7,.02-.91-.24-.95-.91-.15-2.86-.71-5.65-1.63-8.35-.24-.69-.02-.89,.56-1.13,2.95-1.19,5.88-2.41,8.8-3.66,.62-.27,.89-.25,1.13,.46,1.38,4.09,2.19,8.28,2.5,12.58,.06,.81-.16,1.04-.97,1.01-1.55-.06-3.11-.02-4.66-.02Z"/><path class="cls-1" d="M97.74,95c-1.86-3.73-3.87-7.27-6.33-10.54-2.22-2.95-4.72-5.65-7.53-8.05-.35-.3-.83-.53-.61-1.19,.14-.41,.39-.49,.72-.59,.59-.17,.93,.1,1.2,.57,.07,.13,.18,.25,.27,.36,.67,.81,1.07,2.19,1.98,2.35,.89,.15,1.95-.64,2.93-1.04,1.92-.79,3.83-1.63,5.77-2.38,.69-.27,.93-.58,.76-1.33-.22-.96-.3-1.95-.45-2.92-.04-.26-.16-.53,.14-.71,.29-.17,.61-.5,.87-.46,.45,.06,.27,.55,.27,.86,0,4.64,0,9.27,0,13.91,0,3.72,0,7.44,0,11.16Z"/><path class="cls-4" d="M47.83,67.94c-1.48,3.93-2.9,7.71-4.31,11.51-.16,.43-.44,.54-.83,.64-1.03,.26-2.05,.53-3.05,.86-.58,.19-.87,.07-1.1-.51-1.22-3.02-2.46-6.03-3.71-9.03-.16-.39-.29-.67,.25-.86,4.1-1.41,8.28-2.36,12.76-2.6Z"/><path class="cls-4" d="M82.48,80.42c-.1,.11-.22,.26-.35,.39-2.33,2.34-4.67,4.67-6.99,7.02-.37,.37-.59,.42-1.01,.04-2.22-1.97-4.66-3.64-7.33-4.95-.54-.26-.6-.51-.36-1.05,.96-2.23,1.86-4.48,2.78-6.72,.15-.38,.3-.67,.81-.57,.44,.09,.76,.19,.87,.71,.21,1,.56,1.97,.73,2.98,.12,.75,.48,.88,1.15,.87,2.62-.03,5.23-.02,7.85-.01,.64,0,1.88,.84,1.85,1.28Z"/><path class="cls-4" d="M57.72,70.22c-.15,1.02-.26,2.08-.48,3.11-.13,.61,.04,.86,.61,1.08,1.9,.74,3.76,1.58,5.66,2.32,.71,.28,.82,.58,.49,1.24-.4,.81-.74,1.66-1.03,2.52-.2,.58-.51,.66-1.02,.46-.42-.16-.86-.37-1.29-.4-1.95-.14-2.9-1.18-3.41-3.06-.58-2.14-1.48-4.21-2.35-6.26-.36-.84-.15-1.25,.59-1.57,.6-.25,1.09-1.04,1.89-.32,.28,.26,.49,.45,.34,.87Z"/><path class="cls-4" d="M41.64,84.38s.07-.08,.1-.13c.03,.02,.05,.04,.08,.06-.05,.03-.09,.07-.14,.1,0,0-.04-.04-.04-.04Z"/><path class="cls-5" d="M33.88,41.52c0,.68,0,1.37,0,2.05q-.02,1.63-1.71,1.63c-7.84,0-15.69-.01-23.53,.02-.87,0-1.13-.2-1.12-1.1,.05-4.33,.04-8.66,0-12.99,0-.78,.16-1.02,.98-1.01,8.11,.03,16.22,.03,24.33,0,.86,0,1.14,.22,1.06,1.07-.08,.9-.03,1.82-.03,2.73-.45,.02-.91,.05-1.36,.05-6.67,0-13.33,.02-20-.02-.97,0-1.21,.27-1.17,1.2,.08,1.74,.07,3.49,0,5.24-.03,.85,.22,1.09,1.07,1.08,5.49-.04,10.99-.03,16.48-.02,1.66,0,3.33,.05,4.99,.07Z"/><path class="cls-4" d="M33.88,41.52c-1.66-.03-3.33-.07-4.99-.07-5.49,0-10.99-.02-16.48,.02-.86,0-1.11-.23-1.07-1.08,.07-1.74,.07-3.49,0-5.24-.04-.93,.2-1.21,1.17-1.2,6.67,.05,13.33,.03,20,.02,.45,0,.91-.03,1.36-.05,0,2.53,.01,5.07,.02,7.6Z"/><path class="cls-5" d="M24.49,56.54c2.84,0,5.68,.02,8.51-.02,.7,0,.89,.19,.89,.89,.03,2.85,.05,2.85-2.78,2.85-4.99,0-9.99-.01-14.98,.02-.77,0-1.12-.07-1.1-1.01,.06-2.74,0-2.74,2.76-2.74,2.23,0,4.46,0,6.7,0Z"/><path class="cls-5" d="M24.41,52.74c-2.8,0-5.6-.03-8.4,.02-.82,.02-.99-.24-.98-1.01,.03-2.74,0-2.74,2.76-2.74,5.03,0,10.07,.02,15.1-.02,.8,0,1.01,.22,1,1.01-.02,2.73,.01,2.74-2.67,2.74-2.27,0-4.54,0-6.81,0Z"/><path class="cls-5" d="M20.73,64.07c1.59,0,3.19,.02,4.78-.01,.6-.01,.85,.11,.87,.8,.07,2.94,.1,2.94-2.82,2.94-2.54,0-5.08-.02-7.62,.02-.67,.01-.9-.14-.9-.87-.01-2.88-.04-2.88,2.85-2.88,.95,0,1.9,0,2.84,0Z"/><path class="cls-5" d="M9.39,64.07q1.93,0,1.93,1.98,0,1.75-1.71,1.75-2.06,0-2.06-2.04,0-1.69,1.85-1.69Z"/><path class="cls-5" d="M9.4,56.54q1.91,0,1.91,1.88t-1.84,1.85-1.94-1.94,1.86-1.79Z"/><path class="cls-5" d="M9.44,49.01q1.87,0,1.87,1.93t-1.76,1.8q-2.01,0-2.01-1.98,0-1.75,1.9-1.75Z"/><path class="cls-5" d="M77.09,11.33c15.56,0,28.21,12.7,28.16,28.28-.05,15.6-12.59,28.17-28.13,28.19-15.59,.02-28.2-12.6-28.21-28.21,0-15.61,12.6-28.26,28.18-28.25Zm24.42,28.25c0-13.49-10.98-24.5-24.45-24.5-13.4,0-24.39,10.98-24.43,24.41-.04,13.47,10.95,24.54,24.4,24.57,13.44,.03,24.47-11.01,24.48-24.48Z"/><path class="cls-5" d="M22.55,16.95q0-1.89,1.89-1.89t1.94,1.98-1.85,1.86-1.98-1.94Z"/><path class="cls-5" d="M18.87,16.99q0,1.91-1.92,1.91t-1.91-1.9,1.96-1.94,1.87,1.93Z"/><path class="cls-5" d="M7.52,16.91q0-1.85,1.81-1.85,2.01,0,2.01,2.02c0,.19-.03,.38,0,.57,.16,.98-.19,1.43-1.22,1.25-.22-.04-.45,0-.68,0q-1.93,0-1.93-1.99Z"/><path class="cls-5" d="M50.72,109.27c-3.08-.02-5.63-2.6-5.62-5.69,.01-3.08,2.58-5.65,5.66-5.65,3.11,0,5.73,2.65,5.68,5.75-.06,3.1-2.63,5.61-5.72,5.59Zm1.88-5.67c0-1.05-.85-1.87-1.89-1.84-1,.03-1.76,.83-1.76,1.85,0,1.08,.8,1.85,1.88,1.82,1.02-.03,1.77-.8,1.77-1.83Z"/><path class="cls-3" d="M101.51,39.58c0,13.48-11.04,24.51-24.48,24.48-13.45-.03-24.44-11.1-24.4-24.57,.04-13.43,11.03-24.41,24.43-24.41,13.47,0,24.45,11.01,24.45,24.5Zm-37.59,.01c.33-.32,.64-.59,.93-.88,1.76-1.77,2.73-3.88,2.81-6.39q.07-2.18-2.16-2.18c-1.54,0-1.54,0-1.55,1.55,0,2.31-.95,4.09-2.97,5.27-.57,.33-.87,.34-.84-.47,.05-1.21,.01-2.43,.01-3.64,0-2.72,0-2.69-2.67-2.73-.83-.01-1.08,.17-1.07,1.05,.05,5.01,.02,10.02,.02,15.03,0,2.91,0,2.89,2.92,2.83,.67-.01,.82-.23,.81-.85-.03-1.82,.02-3.65-.03-5.47-.02-.88,.29-.87,.9-.5,1.68,.99,2.59,2.48,2.89,4.4,.12,.8-.43,1.89,.31,2.32,.63,.36,1.63,.03,2.46,.11,.83,.08,.97-.26,.99-1.02,.13-3.42-1.06-6.23-3.77-8.41Zm28.17,9.41c1.59,0,3.18-.04,4.77,.02,.7,.02,.89-.18,.9-.89,.04-2.91,.07-2.93-2.81-2.92-.7,0-.98-.12-.96-.91,.05-3.15,.05-6.3,0-9.46-.01-.77,.23-.93,.95-.93,2.88,0,2.86-.02,2.82-2.92,0-.7-.19-.89-.89-.88-3.15,.04-6.29,.04-9.44,0-.71,0-1.05,.13-.95,.92,.12,.93-.4,2.13,.21,2.73,.55,.55,1.73,.16,2.63,.15,.66-.01,.92,.12,.91,.86-.04,3.19-.04,6.38,0,9.57,.01,.75-.25,.86-.91,.87-.93,0-2.2-.45-2.7,.21-.46,.61-.09,1.83-.15,2.77-.04,.66,.19,.84,.83,.82,1.59-.04,3.18-.01,4.77-.01Zm-17.27-18.82s0-.03,0-.04c-.8,0-1.6,.06-2.39-.02-.82-.08-.99,.24-.99,1.01,.03,5.01,.02,10.03,.02,15.04,0,2.93,0,2.91,2.9,2.85,.63-.01,.86-.17,.84-.83-.04-1.48-.01-2.96-.01-4.44q0-2.14,2.1-2.29c3.05-.22,5.31-2.49,5.41-5.41,.1-2.99-1.94-5.46-4.92-5.84-.97-.12-1.97-.02-2.95-.02Z"/><path class="cls-4" d="M52.6,103.6c0,1.02-.75,1.8-1.77,1.83-1.08,.03-1.88-.74-1.88-1.82,0-1.01,.76-1.81,1.76-1.85,1.04-.03,1.88,.79,1.89,1.84Z"/><path class="cls-5" d="M63.92,39.6c2.7,2.18,3.89,4.99,3.77,8.41-.03,.76-.17,1.1-.99,1.02-.83-.08-1.83,.26-2.46-.11-.74-.43-.19-1.52-.31-2.32-.3-1.92-1.2-3.4-2.89-4.4-.62-.37-.93-.37-.9,.5,.05,1.82,0,3.64,.03,5.47,.01,.62-.14,.84-.81,.85-2.92,.06-2.92,.08-2.92-2.83,0-5.01,.02-10.02-.02-15.03,0-.88,.24-1.06,1.07-1.05,2.67,.04,2.67,0,2.67,2.73,0,1.21,.04,2.43-.01,3.64-.03,.82,.28,.81,.84,.47,2.01-1.18,2.96-2.96,2.97-5.27,0-1.55,.01-1.55,1.55-1.55q2.23,0,2.16,2.18c-.08,2.51-1.05,4.62-2.81,6.39-.29,.29-.6,.57-.93,.88Z"/><path class="cls-5" d="M92.08,49.01c-1.59,0-3.18-.03-4.77,.01-.64,.02-.88-.16-.83-.82,.06-.94-.31-2.16,.15-2.77,.49-.66,1.77-.2,2.7-.21,.66,0,.92-.12,.91-.87-.05-3.19-.04-6.38,0-9.57,.01-.74-.25-.88-.91-.86-.9,.02-2.08,.4-2.63-.15-.61-.6-.09-1.8-.21-2.73-.1-.79,.24-.93,.95-.92,3.15,.04,6.29,.04,9.44,0,.7,0,.89,.18,.89,.88,.03,2.9,.06,2.92-2.82,2.92-.72,0-.96,.16-.95,.93,.05,3.15,.05,6.31,0,9.46-.01,.79,.27,.91,.96,.91,2.88,0,2.85,.02,2.81,2.92,0,.7-.2,.91-.9,.89-1.59-.05-3.18-.02-4.77-.02Z"/><path class="cls-5" d="M74.81,30.18c.98,0,1.98-.11,2.95,.02,2.99,.38,5.02,2.85,4.92,5.84-.1,2.93-2.36,5.19-5.41,5.41q-2.1,.15-2.1,2.29c0,1.48-.03,2.96,.01,4.44,.02,.66-.21,.82-.84,.83-2.9,.06-2.9,.08-2.9-2.85,0-5.01,.02-10.03-.02-15.04,0-.78,.16-1.09,.99-1.01,.79,.07,1.59,.02,2.39,.02,0,.01,0,.03,0,.04Zm.34,5.62c.24,.72-.63,2.01,1.17,1.89,1.75-.12,2.68-.69,2.64-1.94-.03-1.21-.91-1.71-2.63-1.84-1.8-.13-.95,1.15-1.18,1.89Z"/><path class="cls-3" d="M75.15,35.81c.23-.73-.62-2.02,1.18-1.89,1.71,.13,2.59,.63,2.63,1.84,.04,1.25-.89,1.82-2.64,1.94-1.8,.12-.92-1.17-1.17-1.89Z"/></g></g></svg>