<?xml version="1.0" encoding="UTF-8"?><svg id="Layer_2" xmlns="http://www.w3.org/2000/svg" viewBox="0 0 114.23 130.92"><defs><style>.cls-1{fill:#fff;}.cls-2{fill:#b6e5f5;}.cls-3{fill:#add;}.cls-4{fill:#06ffd5;}.cls-5{fill:#1a2959;}</style></defs><g id="Layer_1-2"><g id="XCBa31"><g><path class="cls-5" d="M33.1,130.92c-2.24-1.05-3.02-2.82-2.88-5.26,.15-2.63,.03-5.28,.04-7.92,.01-3.11,1.45-5.37,4.21-6.74,.65-.32,.73-.51,.39-1.16-1.74-3.28-1.26-6.97,1.18-9.57,2.34-2.5,6-3.29,9.14-1.97,3.23,1.35,5.22,4.55,5.04,8.13-.07,1.48-.61,2.81-1.41,4.15,.34,.17,.67,.32,.98,.49,2.55,1.42,3.96,3.56,4.01,6.5,.05,2.77-.08,5.54,.04,8.31,.1,2.45-.75,4.17-3.1,5.03h-17.64Zm10.78-28.92c-1.9-.87-3.85-.48-5.15,1.01-1.29,1.48-1.43,3.65-.35,5.3,1.11,1.68,3,2.32,4.97,1.68,1.76-.53,2.93-1.96,3.05-3.74,.13-1.9-.75-3.39-2.51-4.25Zm-4.14,12.15c-.55-.02-1.1-.06-1.66-.06-2.65,.04-3.98,1.38-3.99,4.05,0,1.62-.01,3.24,0,4.86,.01,1.31-.46,3.19,.21,3.8,.93,.85,2.74,.25,4.17,.24,3.57,.01,7.14,0,10.71,.06,.75,.01,.8-.33,.8-.92-.02-2.76,0-5.53-.01-8.29-.02-2.27-1.33-3.7-3.6-3.77-2.21-.07-4.42,.01-6.63,.03Z"/><path class="cls-5" d="M2.94,130.92c-2.28-1-3.06-2.77-2.92-5.2,.14-2.33,.11-4.68,.01-7.02-.16-3.83,1.38-6.56,4.95-8.07-2.2-4.73-1.56-8.63,1.82-11.24,3.11-2.4,7.35-2.29,10.35,.25,3.14,2.67,3.71,6.68,1.48,10.95,.32,.16,.64,.31,.95,.48,2.52,1.38,3.93,3.5,4.01,6.36,.09,3.15,.03,6.3,.02,9.45,0,2.09-1.26,3.27-3.05,4.04H2.94Zm10.23-20.95c1.76-.55,2.91-1.99,3.03-3.79,.13-1.77-.8-3.32-2.51-4.17-1.9-.88-3.87-.5-5.17,1-1.28,1.46-1.43,3.71-.35,5.32,1.12,1.67,3.05,2.31,5,1.65Zm-3.6,4.18c-1.02-.09-2.03-.15-3.04,.1-1.5,.38-2.57,1.53-2.6,3.07-.07,3.01-.03,6.03-.05,9.05,0,.55,.18,.75,.74,.73,1.23-.04,2.46-.04,3.69-.05,3.53,.01,7.07,0,10.6,.06,.78,.01,.9-.3,.89-.97-.03-2.73,0-5.45-.02-8.18-.02-2.34-1.36-3.77-3.7-3.84-2.17-.06-4.34,.02-6.51,.04Z"/><path class="cls-5" d="M93.43,130.92c-2.24-1.14-2.98-2.99-2.83-5.44,.14-2.25,.1-4.51,.02-6.77-.14-3.82,1.41-6.56,5.04-8.11-1.34-2.17-1.84-4.47-1.13-6.94,.52-1.81,1.56-3.28,3.08-4.41,3.07-2.27,7.39-2.08,10.25,.46,3.09,2.75,3.63,6.79,1.42,10.81,.22,.39,.69,.4,1.03,.6,2.36,1.34,3.78,3.32,3.86,6.04,.1,3.32,.05,6.64,.03,9.96-.01,1.96-1.3,3-2.87,3.79h-17.89Zm10.82-28.95c-1.95-.85-3.85-.44-5.17,1.11-1.26,1.5-1.38,3.58-.29,5.22,1.09,1.65,2.91,2.28,4.89,1.7,1.78-.51,2.92-1.85,3.09-3.62,.19-2-.68-3.54-2.52-4.42Zm-4.16,12.18c-.46-.02-.93-.06-1.39-.06-2.87,.01-4.21,1.35-4.22,4.19,0,1.57-.04,3.14,.01,4.7,.04,1.34-.6,3.17,.26,3.88,.9,.75,2.67,.22,4.06,.17,3.57,.01,7.14,.01,10.71,.05,.66,0,.88-.18,.87-.86-.03-2.85,.02-5.7-.03-8.54-.04-2.13-1.35-3.5-3.52-3.57-2.25-.08-4.5,.01-6.75,.03Z"/><path class="cls-5" d="M63.27,130.92c-2.25-1.1-3.02-2.92-2.85-5.37,.15-2.16,.12-4.34,.01-6.51-.21-3.95,1.25-6.86,5.01-8.43-1.91-3.27-2.02-6.5,.21-9.6,2.51-3.48,7.27-4.35,10.92-2.09,3.58,2.22,4.96,6.86,3,10.6-.53,1-.29,1.22,.58,1.67,2.49,1.32,3.8,3.47,3.85,6.3,.05,2.85-.07,5.71,.04,8.55,.1,2.43-.84,4.05-3.13,4.87h-4.86c-.62-.47-1.19-.99-1.31-1.82,.38-1.59,.86-2,2.42-2.01,.68,0,1.36-.06,2.03,.01,.8,.08,1-.21,.99-.99-.05-2.76,0-5.51-.02-8.27-.02-2.21-1.3-3.63-3.5-3.71-2.24-.08-4.49,0-6.74,.02-.89-.1-1.78-.13-2.66,.03-1.78,.32-2.94,1.62-2.96,3.44-.04,2.88,.01,5.77-.03,8.66,0,.72,.27,.82,.89,.83,1.14,0,2.29-.16,3.42,.13,.69,.44,1.09,1.06,1.12,1.9-.1,.85-.69,1.33-1.33,1.79h-5.11Zm10.8-28.93c-1.92-.86-3.86-.46-5.16,1.06-1.29,1.52-1.41,3.65-.29,5.31,1.1,1.63,2.94,2.25,4.89,1.64,1.75-.51,2.91-1.88,3.07-3.61,.18-2-.69-3.52-2.51-4.4Z"/><path class="cls-5" d="M86.55,67.98c1.38,.2,1.96,1.05,1.95,2.39-.01,.89,.06,1.79-.16,2.67-.47,1.84-2.03,2.95-4.24,2.95-7.92,0-15.85,.03-23.77-.03-1.16,0-1.45,.3-1.38,1.41,.1,1.53,.06,3.07,.01,4.6-.02,.7,.16,1,.91,.95,1.02-.06,2.04-.01,3.07-.01,12.82,0,25.64,0,38.47,0,2.48,0,2.99,.52,2.99,3,0,2.39,.01,4.77,0,7.16,0,1.51-.71,2.35-1.91,2.36-1.24,.01-1.91-.78-1.92-2.32-.01-1.83-.03-3.66,0-5.5,.01-.66-.18-.88-.86-.88-8.22,.02-16.44,.02-24.66,0-.67,0-.89,.2-.88,.87,.04,1.83,.03,3.66,0,5.5-.02,1.53-.72,2.33-1.94,2.33-1.23,0-1.87-.79-1.89-2.36-.02-1.75-.04-3.49,.01-5.24,.02-.8-.16-1.11-1.05-1.11-8.09,.04-16.19,.04-24.28,0-.96,0-1.12,.36-1.1,1.19,.05,1.79,.04,3.58,0,5.37-.02,1.37-.69,2.12-1.84,2.15-1.19,.03-1.95-.75-1.98-2.15-.04-1.83-.04-3.66,0-5.5,.02-.72-.1-1.06-.96-1.05-8.18,.03-16.36,.03-24.54,0-.76,0-.93,.27-.91,.96,.04,1.87,.03,3.75,0,5.62-.02,1.34-.72,2.1-1.87,2.11-1.14,.01-1.93-.76-1.95-2.06-.04-2.77-.04-5.54,0-8.31,.02-1.43,.78-2.13,2.29-2.15,2.77-.03,5.54,0,8.31,0,11.12,0,22.24-.02,33.35,.03,1.08,0,1.37-.27,1.3-1.33-.1-1.53-.08-3.07,0-4.6,.04-.88-.29-1.04-1.09-1.04-8.01,.03-16.02,0-24.03,.03-1.51,0-2.74-.47-3.64-1.71-.54-.75-.74-1.6-.73-2.52,.02-3.71-.02-7.41,.02-11.12,.05-5.4,3.17-9.83,8.24-11.76,.75-.29,1.81-.4,2.16-.95,.31-.49-.64-1.22-.95-1.89-1.19-2.61-1.33-5.25-.29-7.93,.52-1.35,1.36-2.44,2.68-3.11,1.01-.51,1.8-1.27,2.25-2.34,.41-.97,.55-1.77-.23-2.77-1.38-1.78-1.48-3.88-.51-5.91,.38-.81,.53-1.57,.52-2.43-.03-3.06-.13-6.13,.82-9.11C42.87,4.59,50.26-.5,58.41,.04c7.93,.53,14.54,6.47,16.02,14.44,.46,2.45,.28,4.93,.28,7.4,0,.69,.13,1.3,.45,1.94,1.02,2.07,.89,4.11-.37,6.06-.98,1.51-.79,3.03,.58,4.3,.19,.17,.4,.32,.61,.46,4.24,2.85,5.28,8.02,2.47,12.33-.2,.31-.41,.63-.64,.98,.97,.39,1.87,.75,2.77,1.11,4.78,1.91,7.89,6.49,7.9,11.63,0,1.31-.63,2.07-1.93,2.26-1.3-.2-1.85-.99-1.92-2.28-.19-3.37-1.54-6.12-4.64-7.68-1.81-.91-3.78-1.52-5.67-2.27-.48-.19-.73-.18-.85,.46-.31,1.67-1.25,2.98-2.63,3.92-.6,.41-.61,.77-.36,1.34,.45,1.07,.63,2.21,.58,3.37-.16,3.23-2.1,5.06-4.92,6.16-1.34,.52-2.76,.85-3.87,1.85-1.31,.78-2.2,1.96-3,3.21-.44,.69-.49,1.19,.59,1.13,.8-.05,1.6-.04,2.41-.06,3.99,.02,7.99,.02,11.98,.07,.77,0,.78-.39,.78-.95-.01-2.76,0-5.53-.01-8.29,0-.72,.13-1.36,.73-1.81,.58-.44,1.23-.56,1.92-.25,.83,.37,1.19,1.06,1.19,1.94,0,2.72,.04,5.44-.02,8.16-.02,.9,.14,1.32,1.16,1.22,1.05-.1,2.13-.11,3.18,0,1.25,.13,1.6-.31,1.53-1.54-.1-1.81,.26-2.21,1.86-2.66Zm-31.21-18.4c2.51,.43,4.89-.03,7.21-1,.65-.27,.98-.76,1.27-1.34,.18-.35,.13-.54-.23-.68-1.63-.61-2.1-1.96-2.15-3.6-1.54,.52-3.06,.62-4.57,.76-1.17-.21-2.36-.35-3.51-.64-.66-.17-.84-.04-.81,.61,.05,1.13-.51,1.94-1.43,2.53-1.04,.67-1.03,1.54,.1,2.14,1.28,.68,2.64,1.16,4.12,1.21Zm-13.54-3.84c1.86-.69,3.73-1.37,5.58-2.08,1.61-.62,1.94-2.31,.68-3.51-1.25-1.18-2.24-2.54-2.99-4.07-.37-1.06-.75-2.12-1.14-3.22-.11,.11-.23,.19-.26,.29-.67,2.39-2.21,4.05-4.31,5.26-.54,.31-.87,.8-1.06,1.38-.63,1.9-.34,3.69,.77,5.33,.82,1.23,1.4,1.33,2.75,.62Zm26.34-1.57c1.33,.53,2.67,1.06,4,1.6,1.73,.69,2.32,.48,3.23-1.18,.26-.48,.53-1,.59-1.53,.18-1.68,.48-3.5-1.18-4.63-1.09-.74-2.12-1.53-3.06-2.45-.49-1.01-.97-2.02-1.46-3.03-1.62,4.36-2.24,5.44-4.18,7.28-1.35,1.28-1.07,2.81,.63,3.43,.48,.17,.96,.34,1.43,.5Zm-17.65-20.08c-.64,0-1.28,.05-1.91,0-.75-.05-.93,.28-.91,.97,.04,1.91-.02,3.83,.03,5.74,.11,4.15,3.04,7.77,6.87,8.57,4.97,1.72,10.7-1.68,11.76-7,.46-2.32,.1-4.67,.26-7,.07-1.01-.26-1.3-1.26-1.29-2.92,.05-5.7-.42-7.83-2.68-.35-.37-.55-.21-.82,.07-1.69,1.76-3.85,2.41-6.2,2.61Zm-17.39,29.61c-2.33,1.62-3.5,3.9-3.57,6.69-.08,3.02-.02,6.04-.03,9.06q0,2.84,2.83,2.65c.64,.02,1.28-.01,1.91,.07,.94,.12,1.23-.19,1.21-1.17-.07-2.64-.03-5.28-.02-7.92,0-1.47,.76-2.38,1.92-2.39,1.18,0,1.91,.88,1.91,2.36,.01,2.64,.05,5.28-.02,7.92-.02,.95,.21,1.22,1.19,1.21,4.47-.06,8.94-.02,13.42-.03,.4,0,.94,.22,1.19-.18,.29-.46-.13-.87-.38-1.26-1.51-2.45-3.78-3.83-6.46-4.7-2.54-.83-4.4-2.39-5.01-5.12-.34-1.55-.07-3.05,.47-4.51,.18-.49,.27-.83-.25-1.19-1.46-1-2.42-2.37-2.79-4.12-.06-.3-.14-.63-.56-.43-2.3,1.06-4.88,1.48-6.95,3.06ZM53.04,4.6c-.17,.03-.34,.04-.5,.09-5.65,1.93-9.16,7.33-9.21,14.02,0,1.17-.01,2.01,1.54,1.54,.47-.14,1.01-.04,1.52-.05,1.32,0,2.64,.04,3.96-.01,2.3-.1,3.99-1.11,4.72-3.4,.32-1.02,1-1.62,2.03-1.63,1.03-.01,1.75,.55,2.07,1.57,.73,2.36,2.45,3.38,4.8,3.47,2.12,.08,4.25,.07,6.38,.17,.68,.03,.54-.38,.54-.73,.04-1.83-.04-3.66-.48-5.45-1.89-7.63-10.4-12.32-17.37-9.58Zm2.04,60.76c.02-.87,.16-1.49-.18-2.1-2.71-4.81-5.41-9.64-8.12-14.45-.14-.25-.23-.52-.63-.52-1.37,0-2.1,1-1.67,2.31,.29,.86,.94,1.38,1.68,1.84,1.89,1.17,2.29,2.49,1.41,4.54-.15,.35-.31,.7-.42,1.07-.66,2.14-.08,3.5,2.01,4.25,2.05,.73,4.04,1.52,5.91,3.07Zm3.99-.04c1.67-1.33,3.48-2.2,5.41-2.86,2.75-.94,3.37-2.42,2.24-5.14-1.1-2.66-.85-3.51,1.54-5.08,.91-.59,1.48-1.32,1.5-2.48,.02-1.11-.87-1.09-1.51-1.39-.74-.34-.85,.34-1.08,.74-2.61,4.62-5.18,9.26-7.8,13.87-.4,.71-.5,1.4-.31,2.34Zm-2-6.04c1.16-2.07,2.2-3.93,3.32-5.93-2.3,.13-4.35,.32-6.65-.02,1.16,2.08,2.19,3.92,3.32,5.95Zm13.41-30.59c1.03-.56,1.57-1.26,1.51-2.35-.05-.94-.55-1.51-1.51-1.86v4.21Zm-26.66-4.23c-1.06,.48-1.57,1.11-1.52,2.13,.05,.98,.57,1.61,1.52,2.1v-4.23Z"/><path class="cls-4" d="M62.25,67.82c1.11-1,2.53-1.33,3.87-1.85,2.82-1.1,4.76-2.94,4.92-6.16,.06-1.16-.12-2.29-.58-3.37-.24-.57-.24-.94,.36-1.34,1.38-.94,2.32-2.26,2.63-3.92,.12-.64,.37-.65,.85-.46,1.89,.75,3.85,1.36,5.67,2.27,3.1,1.55,4.45,4.31,4.64,7.68,.07,1.29,.62,2.08,1.92,2.28,0,1.68,0,3.36,0,5.04-1.6,.46-1.96,.85-1.86,2.66,.07,1.23-.28,1.67-1.53,1.54-1.05-.11-2.13-.1-3.18,0-1.02,.1-1.18-.32-1.16-1.22,.06-2.72,.02-5.44,.02-8.16,0-.88-.36-1.56-1.19-1.94-.69-.31-1.33-.19-1.92,.25-.6,.45-.73,1.1-.73,1.81,.01,2.76,0,5.53,.01,8.29,0,.56,0,.96-.78,.95-3.99-.05-7.99-.05-11.98-.07,0-1.43,0-2.85,0-4.28Z"/><path class="cls-1" d="M39.74,114.15c2.21-.02,4.42-.1,6.63-.03,2.28,.07,3.59,1.5,3.6,3.77,.02,2.76,0,5.53,.01,8.29,0,.59-.05,.93-.8,.92-3.57-.05-7.14-.04-10.71-.06,0-2.79,.06-5.59-.03-8.38-.05-1.68,.23-3.19,1.29-4.51Z"/><path class="cls-3" d="M39.74,114.15c-1.07,1.32-1.34,2.84-1.29,4.51,.08,2.79,.03,5.59,.03,8.38-1.43,0-3.24,.61-4.17-.24-.67-.61-.2-2.49-.21-3.8-.01-1.62-.01-3.24,0-4.86,.02-2.67,1.34-4.01,3.99-4.05,.55,0,1.1,.04,1.66,.06Z"/><path class="cls-3" d="M43.34,109.99c-1.97,.64-3.86,0-4.97-1.68-1.08-1.64-.93-3.81,.35-5.3,1.3-1.5,3.26-1.88,5.15-1.01-.86,.14-1.05,.88-1.34,1.52-1.04,2.31-.42,4.43,.8,6.47Z"/><path class="cls-1" d="M43.34,109.99c-1.22-2.04-1.84-4.16-.8-6.47,.29-.64,.48-1.38,1.34-1.52,1.76,.86,2.64,2.36,2.51,4.25-.12,1.78-1.29,3.21-3.05,3.74Z"/><path class="cls-1" d="M9.57,114.15c2.17-.02,4.34-.09,6.51-.04,2.34,.06,3.68,1.49,3.7,3.84,.02,2.73-.01,5.45,.02,8.18,0,.67-.11,.98-.89,.97-3.53-.05-7.07-.04-10.6-.06,0-3.09,.02-6.19-.01-9.28-.02-1.38,.41-2.57,1.28-3.62Z"/><path class="cls-3" d="M9.57,114.15c-.86,1.05-1.29,2.23-1.28,3.62,.03,3.09,.01,6.18,.01,9.28-1.23,.01-2.46,0-3.69,.05-.55,.02-.74-.18-.74-.73,.03-3.02-.02-6.03,.05-9.05,.04-1.54,1.1-2.69,2.6-3.07,1-.25,2.02-.19,3.04-.1Z"/><path class="cls-3" d="M13.17,109.98c-1.95,.66-3.88,.02-5-1.65-1.08-1.61-.93-3.86,.35-5.32,1.31-1.5,3.27-1.88,5.17-1-.64,.06-.93,.52-1.17,1.04-1.12,2.43-.93,4.75,.64,6.93Z"/><path class="cls-1" d="M13.17,109.98c-1.58-2.18-1.76-4.5-.64-6.93,.24-.51,.52-.98,1.17-1.04,1.71,.86,2.64,2.4,2.51,4.17-.13,1.81-1.28,3.24-3.03,3.79Z"/><path class="cls-1" d="M100.09,114.15c2.25-.02,4.5-.1,6.75-.03,2.17,.07,3.48,1.44,3.52,3.57,.05,2.85,0,5.7,.03,8.54,0,.68-.21,.86-.87,.86-3.57-.04-7.14-.04-10.71-.05,0-2.54,.05-5.07-.02-7.61-.06-1.91,.21-3.68,1.31-5.28Z"/><path class="cls-3" d="M100.09,114.15c-1.09,1.6-1.37,3.38-1.31,5.28,.08,2.53,.02,5.07,.02,7.61-1.39,.05-3.16,.58-4.06-.17-.86-.72-.22-2.55-.26-3.88-.05-1.57-.02-3.14-.01-4.7,0-2.84,1.35-4.18,4.22-4.19,.46,0,.93,.04,1.39,.06Z"/><path class="cls-3" d="M103.68,110.01c-1.98,.58-3.8-.05-4.89-1.7-1.09-1.65-.97-3.73,.29-5.22,1.31-1.55,3.22-1.97,5.17-1.11-1.3,.79-2.14,3.07-1.8,4.77,.23,1.17,.75,2.21,1.23,3.27Z"/><path class="cls-1" d="M103.68,110.01c-.49-1.06-1.01-2.11-1.23-3.27-.33-1.7,.5-3.97,1.8-4.77,1.84,.88,2.71,2.41,2.52,4.42-.17,1.77-1.31,3.11-3.09,3.62Z"/><path class="cls-1" d="M74.74,129.1c-1.68,.01-3.36,.02-5.04,.03-.03-.84-.43-1.45-1.12-1.9,.02-2.59,.11-5.19,.03-7.78-.06-1.92,.19-3.71,1.31-5.31,2.25-.02,4.5-.11,6.74-.02,2.2,.08,3.48,1.5,3.5,3.71,.03,2.76-.02,5.52,.02,8.27,.01,.78-.19,1.07-.99,.99-.67-.07-1.36-.02-2.03-.01-1.56,.02-2.04,.42-2.42,2.01Z"/><path class="cls-3" d="M69.92,114.15c-1.12,1.6-1.38,3.38-1.31,5.31,.09,2.59,0,5.18-.03,7.78-1.13-.29-2.28-.13-3.42-.13-.62,0-.9-.11-.89-.83,.04-2.88,0-5.77,.03-8.66,.02-1.82,1.18-3.12,2.96-3.44,.88-.16,1.77-.13,2.66-.03Z"/><path class="cls-3" d="M73.51,110c-1.95,.61-3.79,0-4.89-1.64-1.12-1.66-1.01-3.79,.29-5.31,1.3-1.52,3.24-1.92,5.16-1.06-.3,.05-.58,.13-.74,.42-.84,1.46-1.33,2.97-1.01,4.7,.2,1.07,.84,1.91,1.2,2.89Z"/><path class="cls-1" d="M73.51,110c-.36-.98-1-1.82-1.2-2.89-.32-1.73,.17-3.24,1.01-4.7,.17-.29,.45-.37,.74-.42,1.82,.88,2.69,2.39,2.51,4.4-.15,1.73-1.32,3.11-3.07,3.61Z"/><path class="cls-1" d="M53.04,4.6c6.97-2.73,15.49,1.96,17.37,9.58,.44,1.79,.52,3.62,.48,5.45,0,.35,.13,.76-.54,.73-2.12-.09-4.25-.09-6.38-.17-2.35-.09-4.07-1.11-4.8-3.47-.32-1.02-1.04-1.59-2.07-1.57-1.03,.01-1.71,.61-2.03,1.63-.72,2.29-2.41,3.31-4.72,3.4-1.32,.05-2.64,.01-3.96,.01,0-.68-.01-1.36,0-2.04,.09-4.47,1.49-8.39,4.75-11.56,.65-.63,1.48-1.13,1.89-2Z"/><path class="cls-4" d="M33.1,53.7c2.07-1.58,4.65-2,6.95-3.06,.43-.2,.5,.14,.56,.43,.38,1.75,1.33,3.12,2.79,4.12,.52,.36,.43,.69,.25,1.19-.54,1.46-.81,2.96-.47,4.51,.61,2.74,2.47,4.3,5.01,5.12,2.68,.87,4.94,2.25,6.46,4.7,.24,.39,.66,.8,.38,1.26-.25,.4-.79,.17-1.19,.18-4.47,.01-8.94-.02-13.42,.03-.97,.01-1.21-.27-1.19-1.21,.07-2.64,.03-5.28,.02-7.92,0-1.49-.74-2.37-1.91-2.36-1.16,0-1.91,.92-1.92,2.39-.01,2.64-.05,5.28,.02,7.92,.03,.98-.27,1.29-1.21,1.17-.63-.08-1.27-.05-1.91-.07,0-.64-.03-1.28,0-1.92,.31-5.49-.76-11.05,.77-16.48Z"/><path class="cls-1" d="M50.49,24.09c2.35-.21,4.51-.86,6.2-2.61,.27-.28,.47-.44,.82-.07,2.13,2.26,4.91,2.74,7.83,2.68,1-.02,1.32,.28,1.26,1.29-.15,2.33,.21,4.68-.26,7-1.06,5.32-6.79,8.72-11.76,7-2.03-2.05-3.59-4.34-3.94-7.31-.31-2.66-.06-5.32-.15-7.98Z"/><path class="cls-4" d="M55.08,65.36c-1.87-1.54-3.87-2.33-5.91-3.07-2.09-.75-2.68-2.11-2.01-4.25,.11-.36,.27-.72,.42-1.07,.88-2.05,.48-3.37-1.41-4.54-.74-.46-1.39-.98-1.68-1.84-.43-1.31,.3-2.31,1.67-2.31,.4,0,.49,.27,.63,.52,2.71,4.82,5.41,9.64,8.12,14.45,.34,.61,.2,1.23,.18,2.1Z"/><path class="cls-4" d="M59.06,65.32c-.19-.94-.1-1.63,.31-2.34,2.62-4.61,5.2-9.25,7.8-13.87,.22-.4,.34-1.08,1.08-.74,.65,.3,1.53,.28,1.51,1.39-.02,1.16-.6,1.89-1.5,2.48-2.39,1.57-2.64,2.42-1.54,5.08,1.12,2.72,.5,4.2-2.24,5.14-1.93,.66-3.73,1.53-5.41,2.86Z"/><path class="cls-1" d="M71.72,35.98c.94,.92,1.96,1.71,3.06,2.45,1.67,1.13,1.36,2.95,1.18,4.63-.06,.53-.33,1.05-.59,1.53-.9,1.66-1.5,1.87-3.23,1.18-1.33-.53-2.67-1.06-4-1.6,0-.46,.04-.94-.03-1.39-.27-1.8,.37-3.17,1.78-4.3,.81-.65,1.58-1.4,1.83-2.5Z"/><path class="cls-1" d="M45.07,36.08c.75,1.54,1.74,2.89,2.99,4.07,1.27,1.2,.93,2.89-.68,3.51-1.85,.71-3.72,1.39-5.58,2.08-.24-1.49-.61-2.95-.55-4.5,.11-2.67,1.22-4.29,3.81-5.17Z"/><path class="cls-3" d="M33.1,53.7c-1.53,5.44-.45,10.99-.77,16.48-.04,.64,0,1.28,0,1.92q-2.83,.19-2.83-2.65c0-3.02-.06-6.04,.03-9.06,.08-2.79,1.24-5.07,3.57-6.69Z"/><path class="cls-1" d="M56.88,43.73c1.51-.14,3.03-.24,4.57-.76,.05,1.64,.52,2.99,2.15,3.6,.36,.14,.41,.33,.23,.68-.3,.58-.63,1.07-1.27,1.34-2.32,.97-4.7,1.43-7.21,1-.12-.22-.23-.46-.36-.67-1.06-1.67-1-2.1,.76-2.91,1.07-.49,1.24-1.27,1.15-2.27Z"/><path class="cls-2" d="M53.04,4.6c-.41,.87-1.23,1.36-1.89,2-3.27,3.17-4.66,7.09-4.75,11.56-.01,.68,0,1.36,0,2.04-.51,.01-1.05-.09-1.52,.05-1.56,.47-1.55-.37-1.54-1.54,.05-6.69,3.56-12.09,9.21-14.02,.16-.05,.33-.06,.5-.09Z"/><path class="cls-2" d="M50.49,24.09c.09,2.66-.17,5.32,.15,7.98,.35,2.97,1.91,5.26,3.94,7.31-3.83-.79-6.76-4.41-6.87-8.57-.05-1.91,.01-3.83-.03-5.74-.02-.69,.16-1.03,.91-.97,.63,.04,1.27,0,1.91,0Z"/><path class="cls-2" d="M45.07,36.08c-2.59,.88-3.7,2.49-3.81,5.17-.06,1.55,.3,3.01,.55,4.5-1.34,.71-1.92,.61-2.75-.62-1.1-1.64-1.39-3.43-.77-5.33,.19-.58,.52-1.07,1.06-1.38,2.1-1.21,3.65-2.87,4.31-5.26,.03-.1,.16-.18,.26-.29,.39,1.1,.76,2.16,1.14,3.22Z"/><path class="cls-2" d="M56.88,43.73c.1,1-.07,1.78-1.15,2.27-1.75,.81-1.82,1.24-.76,2.91,.14,.21,.24,.45,.36,.67-1.48-.05-2.84-.54-4.12-1.21-1.13-.6-1.14-1.47-.1-2.14,.92-.59,1.48-1.4,1.43-2.53-.03-.65,.16-.78,.81-.61,1.15,.29,2.33,.44,3.51,.64Z"/><path class="cls-2" d="M71.72,35.98c-.25,1.1-1.02,1.85-1.83,2.5-1.41,1.13-2.05,2.5-1.78,4.3,.07,.45,.02,.93,.03,1.39-.48-.17-.96-.33-1.43-.5-1.7-.62-1.98-2.16-.63-3.43,1.94-1.83,2.56-2.92,4.18-7.28,.49,1.01,.98,2.02,1.46,3.03Z"/><path class="cls-1" d="M57.06,59.28c-1.13-2.03-2.16-3.87-3.32-5.95,2.3,.35,4.35,.15,6.65,.02-1.12,2-2.16,3.86-3.32,5.93Z"/><path class="cls-3" d="M62.25,67.82c0,1.43,0,2.85,0,4.28-.8,.02-1.61,.02-2.41,.06-1.08,.06-1.03-.44-.59-1.13,.8-1.25,1.69-2.43,3-3.21Z"/><path class="cls-3" d="M70.47,28.69v-4.21c.96,.35,1.46,.93,1.51,1.86,.06,1.09-.48,1.78-1.51,2.35Z"/><path class="cls-3" d="M43.81,24.47v4.23c-.95-.49-1.47-1.12-1.52-2.1-.05-1.02,.46-1.65,1.52-2.13Z"/></g></g></g></svg>