<svg viewBox="0 0 200 200" xmlns="http://www.w3.org/2000/svg"><circle cx="100" cy="100" fill="#e9f6f6" r="100"/><path d="m52.37 158.05c-1.67-1.86-1.35-5.59.71-7.37.57-.5.78-.97.78-1.71 0-12.14.04-24.27.06-36.41 0-4.73 0-9.47 0-14.2 0-.41.13-.86-.22-1.38-1.81 1.71-3.61 3.37-5.35 5.08-.26.25-.34.71-.44 1.08-.68 2.36-1.32 4.73-2.02 7.09-.68 2.29-2.62 3.69-4.54 3.32-2.37-.46-3.79-2.62-3.19-4.99.8-3.11 1.67-6.2 2.51-9.3.43-1.58 1.29-2.89 2.49-3.99 2.68-2.44 5.36-4.87 8.03-7.32 1.23-1.13 2.67-1.67 4.34-1.65 1.23.02 2.47 0 3.7.01.34 0 .66-.01.77-.39.1-.34-.04-.59-.32-.82-1.08-.88-1.8-2.01-2.2-3.33-.12-.39-.36-.53-.72-.68-2.38-1.02-3.19-3.25-1.9-5.45.5-.85.31-1.69.34-2.54.11-3.71 2.15-6.52 5.66-7.29 2.16-.47 4.44-.75 6.39.83.37.3.74.21 1.13.18 3.02-.24 5.13 1.65 5.23 4.67.02.68.01 1.35 0 2.03-.01.99.07 1.92.48 2.88.79 1.82-.13 3.82-2.03 4.6-.58.24-.88.54-1.06 1.12-.37 1.16-1.05 2.13-1.98 2.91-.3.25-.51.51-.38.91.14.42.52.31.81.28 4.65-.57 8.58.98 12.07 3.97.84.72 1.81 1.29 2.74 1.93 1.84-2.66 3.01-5.7 5.08-8.25-.6-.06-1.22-.04-1.79-.21-1.94-.57-3.14-2.64-2.63-4.72.75-3 1.6-5.97 2.44-8.94.57-2.01 1.73-3.65 3.25-5.04 2.14-1.96 4.31-3.89 6.43-5.88 2.22-2.08 4.9-2.63 7.82-2.53.62.02 1.51.42 1.86-.3.41-.82-.72-.98-1-1.55-.09-.17-.28-.29-.37-.47-.77-1.53-1.66-2.84-3.22-3.82-1.29-.8-1.5-2.5-.77-3.88.58-1.1.6-2.17.64-3.31.11-3.52 2.17-6.32 5.46-7.09 2.29-.54 4.66-.8 6.7.91.29.25.6.14.91.1 2.82-.38 5.07 1.43 5.3 4.31.06.75.02 1.51.03 2.27 0 1.03.05 2 .48 3.01.78 1.83-.17 3.78-2.06 4.59-.4.17-.79.26-.93.78-.34 1.3-1.08 2.38-2.1 3.25-.3.26-.49.54-.34.92.15.41.53.27.82.27 1.03 0 2.07.04 3.1 0 2.35-.11 4.23.79 5.8 2.51 2.15 2.35 4.37 4.63 6.51 6.98.55.61.9.67 1.49.06.85-.89 1.77-1.72 2.72-2.51.64-.53.77-.98.4-1.8-3.08-6.75-6.09-13.53-9.12-20.3-.31-.69-.64-1.36-.59-2.16.08-1.26.88-2.44 1.92-2.78 1.26-.41 2.65-.07 3.41 1 .44.62.94.72 1.61.72 4.3.01 8.59.05 12.89.09.73 0 1.56-.21 1.99.68.44.91-.27 1.4-.75 1.95-2.86 3.26-5.72 6.52-8.63 9.73-.55.61-.58 1.05-.25 1.76 1.03 2.19 2 4.41 2.96 6.63.25.57.56.94 1.19 1.19 1.82.73 2.88 2.64 2.36 4.41-.35 1.17-.19 2.13.37 3.14.5.89.74 1.84.36 2.86-.4 1.09-1.14 1.82-2.29 2.03s-2.12-.18-2.89-1.05c-.26-.29-.45-.64-.7-.99-1.14 1.08-2.22 2.13-3.34 3.15-2.81 2.57-6.1 2.5-8.79-.19-1.88-1.89-3.73-3.81-5.61-5.7-.26-.27-.45-.65-.99-.75v11.81c0 .56.28.61.73.67 4.54.55 6.61 2.93 6.61 7.55 0 5.69.03 11.38 0 17.07 0 .7.17 1.14.77 1.56 1.48 1.05 2.05 2.61 2.01 4.36-.03 1.44.99.72 1.58.86.69.16.95-.11.94-.88-.04-5.21-.03-10.43 0-15.64 0-.6-.21-.89-.7-1.21-1.35-.86-1.9-2.33-1.53-3.82.4-1.57 1.57-2.56 3.23-2.7.32-.03.64-.03.95-.03.8 0 1.65.18 2.37-.05.97-.31.29-1.36.58-2.06.62-1.52 1.75-2.57 3.48-2.62 2.34-.07 4.7-.08 7.04 0 2.18.07 3.6 1.56 3.65 3.75.02.77.21 1.05 1.01 1 .95-.06 1.91-.03 2.86.03 1.43.1 2.79 1.16 3.04 2.3.45 2.02-.12 3.69-1.74 4.37-.88.37-.92.86-.92 1.62.01 20.25 0 40.51.02 60.76 0 .82-.1 1.56-.69 2.16h-104.32zm60.79-35.44c0-3.06-.02-6.12-.03-9.18 0-2.15.18-2.37 2.28-2.33.85.02 1.05-.24 1.05-1.06 0-1.71.61-3.2 2.04-4.23.42-.3.5-.64.5-1.1 0-4.85 0-9.7.04-14.55 0-.68-.19-.88-.87-.87-1.83.04-3.66.01-5.49.02-1.92 0-2.29.37-2.29 2.29 0 9.11.01 18.21-.02 27.32 0 .84.17 1.39.92 1.83.73.43 1.19 1.15 1.5 1.95-.03.33.12.57.41.85.09-.37.11-.65-.04-.93zm41.83 2.37c0-9.95-.01-19.89.02-29.84 0-.88-.21-1.14-1.12-1.14-5.45.04-10.9.04-16.35 0-.87 0-1.14.18-1.14 1.1.03 19.81.04 39.62 0 59.43 0 1.02.37 1.14 1.23 1.13 5.33-.03 10.66-.04 15.99 0 1.06.01 1.39-.22 1.39-1.35-.05-9.79-.03-19.57-.03-29.36zm-80.36-28.76v.94 11.58c0 .49.21.56.64.61 4.64.57 6.69 2.92 6.7 7.61 0 5.69 0 11.38.03 17.07 0 .44-.17.91.38 1.26 1.7 1.07 2.41 2.71 2.38 4.66-.01.79.3.91.98.89 1.83-.04 3.66-.06 5.49 0 .87.03 1.04-.26 1.04-1.07-.04-4.02-.02-8.04-.02-12.06 0-1.44.3-1.73 1.76-1.75 1.11-.01 2.23-.04 3.34.01.69.03.91-.22.86-.89-.09-1.32.13-2.69 1.14-3.51 1.31-1.07 1.37-2.34 1.31-3.78-.04-.83.05-1.67.05-2.5 0-15.56 0-31.11 0-46.67 0-.42.12-.85-.08-1.2-4.06 2.61-6.71 6.17-7.4 11.03-.01.08 0 .16-.03.24-.51 1.6-.72 3.34-2.27 4.52 4.32-.03 5.66 3.65 3.72 6.75-1.45 2.31-2.57 4.83-3.83 7.26-2.17 4.2-6.31 5.31-10.32 2.76-1.87-1.19-3.74-2.4-5.86-3.75zm59.39 38.4c0-6.57-.03-13.13.03-19.7 0-1.1-.18-1.5-1.39-1.46-5.25.15-10.5.22-15.75.01-1.08-.04-1.41.25-1.4 1.37.07 8.44.07 16.87.09 25.31 0 4.78.02 9.55-.01 14.33 0 .86.11 1.23 1.13 1.22 5.41-.06 10.82-.05 16.23 0 .93 0 1.09-.27 1.09-1.13-.04-6.65-.02-13.29-.02-19.94zm-39.4 7.34s0 0 .01 0v12.76c0 .55-.05.97.76.97 5.64-.03 11.29-.02 16.93 0 .58 0 .76-.2.74-.76-.03-1.07 0-2.15 0-3.22 0-7.39 0-14.79 0-22.18 0-.58.16-1.16-.83-1.15-5.52.04-11.05.03-16.57 0-.86 0-1.05.27-1.04 1.08.04 4.17.02 8.35.02 12.52zm16.44-62.4c2.31 0 4.62-.04 6.92.02.86.02 1.06-.27 1.05-1.09-.04-4.14-.02-8.28-.02-12.42 0-.98.03-1.95 1.15-2.38 1.07-.42 1.72.28 2.37.94 2.39 2.45 4.77 4.91 7.17 7.34 1.78 1.8 3.62 1.83 5.45.13.93-.87 1.86-1.74 2.78-2.62 1.84-1.75 1.82-1.74-.06-3.5-.42-.39-.67-.41-1.08-.02-1.06 1.02-2.15 2.01-3.25 2.99-1.08.96-1.46.94-2.48-.13-1.92-2.02-3.83-4.04-5.74-6.07-3.98-4.23-3-3.78-8.82-3.82-.76 0-1.38.03-1.73.87-.24.56-.78.93-1.38 1.05-1.53.31-3.08.3-4.62.01-.44-.08-.92-.3-1.09-.68-.59-1.37-1.74-1.19-2.89-1.22-2.25-.08-4.36.21-6.1 1.84-2.18 2.04-4.4 4.04-6.6 6.04-1.34 1.21-2.2 2.7-2.66 4.44-.32 1.19-.6 2.39-.95 3.57-.22.75-.14 1.23.75 1.32.27.03.55.11.8.23.89.41 1.27.18 1.55-.82.42-1.56.54-3.32 1.62-4.57 2.16-2.5 4.67-4.66 7.16-6.82 1.05-.91 2.41-.25 2.67 1.14.07.39.07.79.08 1.19 0 3.94.04 7.88-.02 11.82-.02 1.02.31 1.27 1.28 1.24 2.23-.07 4.46-.02 6.68-.02zm-46.81 29.78c2.35 0 4.69-.04 7.04.02.81.02.97-.26.97-1.01-.03-4.18-.01-8.35-.02-12.53 0-.89-.02-1.79.89-2.31s1.66-.04 2.41.45c2.2 1.42 4.4 2.86 6.63 4.23 2.29 1.41 4.91.8 6.19-1.45.82-1.45 1.52-2.96 2.29-4.45.15-.29.37-.58-.04-.81-.76-.42-1.51-1.07-2.31-1.14-.49-.04-.73 1.03-1.09 1.59-.26.4-.48.82-.72 1.23-.99 1.63-2.2 1.9-3.79.8-1.83-1.26-3.66-2.53-5.46-3.84-1.41-1.02-2.96-1.51-4.68-1.5-1.03 0-2.07.03-3.1-.01-.62-.03-1.03.13-1.34.72-.41.78-1.09 1.3-1.98 1.35-1.23.06-2.47.04-3.7 0-.57-.02-1.23-.24-1.44-.72-.66-1.49-1.91-1.25-3.11-1.24-.68 0-1.35 0-2.03 0-.97 0-1.93.08-2.69.75-3.02 2.65-6.09 5.25-8.86 8.15-1.96 2.05-1.87 4.99-2.7 7.53-.14.44.18.5.5.62q2.28.85 2.97-1.47c.09-.3.18-.61.28-.91.31-.9.28-2 .96-2.66 2.64-2.59 5.35-5.11 8.07-7.61.64-.59 1.39-.41 1.77.39.19.4.17.93.17 1.4.01 4.46.03 8.91-.01 13.37 0 .81.17 1.1 1.03 1.07 2.31-.06 4.61-.02 6.92-.02zm-7.86 19.26c0 5.21.02 10.42-.02 15.63 0 .96.28 1.28 1.21 1.19.71-.07 1.44-.09 2.14 0 1.23.17 1.51-.3 1.5-1.5-.06-7.75-.03-15.51-.03-23.27 0-2.21 1.16-3.62 3.33-3.94 2.68-.4 5.39-.1 8.09-.16 1.58-.03 1.97.4 1.97 1.96 0 3.62.03 7.24-.02 10.86-.01.94.28 1.29 1.23 1.22.91-.07 1.83-.06 2.74 0 .76.04 1.04-.19 1.04-.99-.03-4.41.01-8.83-.03-13.24-.03-2.95-1.78-4.62-4.74-4.62-5.73 0-11.45.02-17.18-.02-.98 0-1.28.25-1.28 1.25.05 5.21.02 10.42.02 15.63zm46.79-29.69c0 4.45-.01 8.91 0 13.36 0 1.1-.48 2.53.2 3.23.74.76 2.2.12 3.32.27 1.1.15 1.3-.32 1.3-1.34-.04-7.79-.03-15.59-.02-23.38 0-2.62 1.53-4.14 4.16-4.15 2.43-.01 4.85 0 7.28 0 1.71 0 1.95.24 1.96 1.9 0 2.7-.02 5.41.01 8.11.01 1.22-.53 2.83.21 3.57.85.85 2.49.16 3.78.29.83.09.99-.31.98-1.05-.03-4.37.01-8.75-.02-13.12-.02-2.82-1.75-4.51-4.56-4.52-5.81 0-11.61.04-17.42 0-1.05 0-1.23.38-1.22 1.31.04 5.17.02 10.34.02 15.51zm-39.59 36.01c0 4.57.02 9.15-.02 13.72 0 .77.1 1.31.83 1.76 1.01.63 1.5 1.67 1.9 2.79.29.82-.42 2.01.56 2.4.79.32 1.8.07 2.72.07.24 0 .48-.03.72 0 .79.13.99-.2.98-.97-.04-3.42-.03-6.84-.01-10.26 0-.69.03-1.31-.83-1.58-.42-.13-.65-.57-.7-1.04-.27-2.37-.17-4.64 1.93-6.27.38-.3.53-.61.53-1.09 0-4.85 0-9.71.04-14.56 0-.67-.19-.88-.86-.87-1.87.04-3.74 0-5.61.02-1.81 0-2.18.37-2.18 2.15v13.72zm19.28 20.74c2.78 0 5.56-.03 8.34.02.77.01 1.02-.18 1.01-.98-.04-3.5-.04-6.99 0-10.49 0-.77-.2-1.01-.99-1-5.52.04-11.04.05-16.57.02-.75 0-1.03.16-1.02.97.04 3.5.04 6.99 0 10.49 0 .8.23 1 1.01.99 2.74-.05 5.48-.02 8.22-.02zm32.99-107.31c0-.82-.04-1.5.01-2.17.04-.6-.17-.82-.77-.91-.78-.12-1.55-.34-2.22-.79-.39-.26-.71-.22-1.06.07-1.4 1.16-3.02 1.69-4.82 1.7-.51 0-.7.15-.68.67.03 1.07-.01 2.15.01 3.22.06 2.35 1.81 4.26 4.1 4.51 2.53.27 4.62-1.13 5.25-3.48.26-.98.13-1.98.17-2.82zm-46.78 29.63c0-.64-.05-1.28.01-1.91.08-.76-.2-1.09-.96-1.15-.56-.04-4.56.29-5.11.51-.25.1-.55.12-.78.25-.85.46-2.18-.27-2.6.54-.41.79-.1 1.94-.1 2.94v.24c.02 2.97 1.94 4.97 4.75 4.97 2.82 0 4.74-1.99 4.79-4.96 0-.48 0-.95 0-1.43zm76.81 13.5s0 .03 0 .04h10.6c.79 0 1.35-.33 1.37-1.15.02-.74-.47-1.14-1.22-1.17-.32-.01-.64-.02-.95-.01-3.22.02-6.43.06-9.65.06-3.45 0-6.91-.03-10.36-.06-.86 0-1.57.24-1.55 1.21.02.92.71 1.09 1.52 1.09 3.41-.02 6.83 0 10.24 0zm-27.98-48.18c.3-2.32-.4-3.92-1.96-3.71-1.66.22-2.79-.12-4.11-1.08-1.07-.78-2.55-.35-3.83-.05-2.07.48-3.68 2.61-3.6 4.64 0 .24-.15.68.26.65 2.15-.2 4.52.42 6.21-1.62.46-.56 1.11-1.12 1.85-.59 1.54 1.09 3.31 1.42 5.18 1.77zm-46.69 29.92c0-.49 0-.77 0-1.04-.02-2.5-1.16-3.36-3.54-2.63-.49.15-.96.09-1.19-.25-1.01-1.46-2.49-1.33-3.97-1.29-2.27.06-3.98 1.34-4.68 3.52-.48 1.51-.38 1.68 1.14 1.78.04 0 .08 0 .12.01 1.99.47 3.64-.1 5.04-1.58.75-.79 1.63-.88 2.52-.1.48.42 1.08.67 1.7.81.91.21 1.89.13 2.86.77zm62.37-32.47c.93 2.08 1.81 4.07 2.7 6.05 1.01 2.24 1.02 2.25 2.63.45 1.86-2.09 3.71-4.2 5.75-6.51h-11.08zm-56.39 100.05h4.28c.45 0 .91.02.92-.63.02-1.55-.75-3.22-2.58-3.18-1.62.03-3.25-.04-4.87 0-1.88.04-2.81.98-2.94 2.84-.05.68.14 1.02.91.99 1.42-.05 2.85-.01 4.28-.02zm-18.25 14.85h4.29c.32 0 .7.14.83-.41.38-1.56-.87-3.35-2.48-3.4-1.67-.05-3.34-.04-5.01-.01-1.83.02-2.88 1.22-2.81 3.08.02.57.2.76.76.75 1.47-.03 2.94 0 4.41 0zm64.99-44.64c1.43 0 2.85-.03 4.28.01.67.02.9-.21.89-.89-.02-1.8-1-2.88-2.85-2.94-1.46-.05-2.93-.04-4.4 0-1.9.05-2.9 1.05-3.05 2.93-.05.66.15.93.85.91 1.43-.04 2.85-.01 4.28-.01zm-18.29 14.83h4.4c.39 0 .76.06.83-.56.16-1.45-.69-2.79-2.14-3.09-1.88-.4-3.79-.33-5.66-.08-1.73.23-2.43 1.19-2.5 2.77-.03.69.15 1 .91.97 1.38-.05 2.77-.02 4.16-.02zm33.88-65.82c-.1-.24-.2-.49-.31-.74-2.49-5.53-4.98-11.06-7.46-16.59-.49-1.08-.94-2.18-1.43-3.26-.19-.42-.51-.78-1.03-.52-.46.23-.33.67-.19 1.05.09.26.23.5.34.76 1.21 2.72 2.42 5.43 3.64 8.15 1.68 3.77 3.36 7.53 5.06 11.29.13.28.15.81.67.63.32-.11.66-.3.71-.75zm6.4 26.67h3.8c1.04 0 1.36-.52.9-1.47-.32-.66-.91-.82-1.58-.82-2.02 0-4.04 0-6.06 0-.28 0-.57 0-.82.09-.8.27-1.03.91-.98 1.69.06.92.78.46 1.18.48 1.18.07 2.37.02 3.56.02zm-3.03-22.74c0-.9-.6-1.51-1.48-1.51-.68 0-2.15 1.03-2.12 1.48.01.17 1.89 2.13 2.04 2.13.46 0 1.56-1.47 1.55-2.1zm-19.06 40.76c.59 0 1.18-.02 1.77 0 .58.03.74-.22.75-.77 0-.56-.19-.77-.75-.76-1.1.02-2.21.02-3.31 0-.57-.02-.87.11-.87.78 0 .68.32.79.88.76.51-.03 1.03 0 1.54 0zm-30.83-17.63c-.02-.75-.64-1.39-1.34-1.39-.66 0-2.09 1.55-2.06 2.25 0 .21 1.92 1.46 2.23 1.46.36 0 1.2-1.64 1.18-2.31zm-5.76-7.32c-.02.9.69 1.63 1.48 1.62.85-.01 1.81-1.01 1.6-1.99-.23-1.09-1.46-.89-2.22-1.01-1.03-.17-.43 1.04-.85 1.39zm-45.33 31.28c.89 0 1.82-.91 1.61-1.93-.23-1.11-1.52-.94-2.3-1.03-.86-.1-.68 1.01-.71 1.55-.05.81.48 1.39 1.41 1.4zm35.21 21.92c-.56 0-1.12.03-1.67 0-.55-.04-.77.13-.77.72 0 .58.17.76.75.74 1.11-.04 2.23-.03 3.34 0 .54.01.78-.12.77-.72 0-.58-.2-.77-.76-.74-.55.04-1.11 0-1.67 0zm28.48-13.36c.56 0 1.11-.03 1.67 0 .57.04.76-.15.74-.73-.02-.52-.08-.8-.71-.78-1.07.05-2.14.03-3.21 0-.59-.02-.95.02-.94.8 0 .75.4.71.9.7.52-.02 1.03 0 1.55 0zm-46.85 29.62c.6 0 1.19-.03 1.79 0 .52.03.69-.15.68-.67 0-.52-.07-.81-.7-.78-1.11.05-2.22.05-3.33 0-.63-.03-.8.18-.81.8 0 .69.38.65.84.64.52-.01 1.03 0 1.55 0zm52.24-90.6s0 0 0 0c.48 0 .97.08 1.43-.02.58-.12.85-.63.77-1.17-.08-.53-.61-.45-.98-.36-.75.2-1.48.2-2.24.01-.39-.1-.96-.25-1.01.42-.04.5.18.97.73 1.08.42.08.87.02 1.31.02zm-46.63 29.7c.4 0 .8.03 1.19 0 .66-.05.87-.59.85-1.09-.02-.66-.5-.44-.95-.39-.78.09-1.59.06-2.38 0-.39-.03-.82-.3-.9.32-.07.55.14 1.05.76 1.15.47.07.95.01 1.43.02zm79.42-18.75c-.25-.41-.22-1.16-.79-1.37-.28-.11-.82.4-.8.83.03.57.25 1.2.94 1.32.42.07.61-.26.65-.78z" fill="#1a2959"/><path d="m43.05 158.05c-.33-.5-.89-.91-.54-1.65.36-.76 1.02-.75 1.71-.74.99.01 1.97.01 2.96 0 .69 0 1.35 0 1.7.76.35.75-.23 1.14-.58 1.63z" fill="#1a2959"/><path d="m80.72 35.63c.72 2.47 2.13 3.84 4.46 4.53-2.33.68-3.71 2.03-4.42 4.37-.77-2.26-2.07-3.72-4.45-4.35 2.3-.76 3.75-2.06 4.41-4.55z" fill="#1a2959"/><path d="m160.02 64.97c.16.88-.31 1.21-1.05 1.25-.59.03-.84.24-.83.86.02.68-.36 1.14-1.06 1.18-.77.05-1.22-.43-1.26-1.13-.04-.65-.25-.88-.89-.92-.66-.04-1.12-.42-1.13-1.13-.02-.79.49-1.16 1.19-1.21.59-.04.81-.23.83-.85.02-.71.43-1.2 1.21-1.19.77.01 1.14.5 1.13 1.24 0 .56.21.75.76.78.68.04 1.29.26 1.11 1.13z" fill="#06ffd5"/><path d="m48.52 127.2c-.11.77-.63 1.12-1.31 1.16-.62.03-.82.26-.82.86 0 .69-.39 1.12-1.1 1.14s-1.18-.4-1.21-1.06c-.02-.73-.34-.93-.99-.99-.67-.07-1.09-.47-1.04-1.2.05-.72.47-1.09 1.16-1.08.62.01.82-.23.83-.84.02-.77.45-1.29 1.27-1.26.78.03 1.11.56 1.08 1.29-.03.67.34.8.89.8.78 0 1.13.47 1.22 1.18z" fill="#b6e5f5"/><path d="m90.09 52.14c-.03.72-.41 1.16-1.09 1.17-.67 0-1.14-.4-1.16-1.09s.42-1.08 1.11-1.12c.72-.03 1.08.36 1.14 1.04z" fill="#1a2959"/><path d="m151.94 77.36c-.8-.03-1.18-.52-1.15-1.23.03-.7.56-1.08 1.2-1.05.7.03 1.18.46 1.13 1.25-.05.72-.5 1.03-1.18 1.04z" fill="#fff"/><path d="m154.99 124.98c0 9.79-.02 19.57.03 29.36 0 1.13-.33 1.36-1.39 1.35-5.33-.05-10.66-.04-15.99 0-.86 0-1.23-.11-1.23-1.13.03-19.81.02-39.62 0-59.43 0-.92.27-1.11 1.14-1.1 5.45.04 10.9.04 16.35 0 .91 0 1.12.25 1.12 1.14-.03 9.94-.02 19.89-.02 29.84z" fill="#06ffd5"/><path d="m134.02 134.61c0 6.65-.02 13.29.02 19.94 0 .86-.16 1.14-1.09 1.13-5.41-.05-10.82-.06-16.23 0-1.02.01-1.14-.36-1.13-1.22.03-4.78.02-9.55.01-14.33-.02-8.44-.02-16.87-.09-25.31 0-1.12.32-1.41 1.4-1.37 5.25.21 10.5.14 15.75-.01 1.21-.04 1.4.36 1.39 1.46-.05 6.57-.03 13.13-.03 19.7z" fill="#add"/><path d="m94.62 141.95c0-4.17.02-8.35-.02-12.52 0-.81.18-1.08 1.04-1.08 5.52.04 11.05.05 16.57 0 .99 0 .83.58.83 1.15v22.18c0 1.07-.02 2.15 0 3.22.02.56-.16.76-.74.76-5.64-.02-11.29-.03-16.93 0-.81 0-.76-.42-.76-.97 0-4.25 0-8.51 0-12.76 0 0 0 0-.01 0z" fill="#06ffd5"/><path d="m111.06 79.55c-2.23 0-4.46-.05-6.68.02-.97.03-1.3-.21-1.28-1.24.06-3.94.03-7.88.02-11.82 0-.4 0-.8-.08-1.19-.26-1.39-1.62-2.05-2.67-1.14-2.49 2.17-5 4.33-7.16 6.82-1.08 1.25-1.2 3.01-1.62 4.57-.27 1-.66 1.23-1.55.82-.25-.12-.53-.2-.8-.23-.9-.09-.97-.58-.75-1.32.35-1.18.63-2.38.95-3.57.46-1.73 1.32-3.22 2.66-4.44 2.21-2.01 4.42-4.01 6.6-6.04 1.74-1.63 3.84-1.91 6.1-1.84 1.15.04 2.3-.15 2.89 1.22.16.38.65.59 1.09.68 1.54.29 3.08.3 4.62-.01.6-.12 1.14-.49 1.38-1.05.36-.83.97-.87 1.73-.87 5.82.03 4.84-.41 8.82 3.82 1.91 2.03 3.82 4.06 5.74 6.07 1.02 1.08 1.4 1.1 2.48.13 1.1-.98 2.19-1.97 3.25-2.99.4-.39.66-.37 1.08.02 1.88 1.76 1.9 1.75.06 3.5-.92.88-1.85 1.75-2.78 2.62-1.83 1.7-3.67 1.67-5.45-.13-2.41-2.43-4.78-4.9-7.17-7.34-.65-.66-1.3-1.35-2.37-.94-1.12.43-1.15 1.4-1.15 2.38 0 4.14-.02 8.28.02 12.42 0 .81-.19 1.11-1.05 1.09-2.31-.06-4.61-.02-6.92-.02zm1.22-7.39c-.06-.68-.42-1.16-1.1-1.19-.71-.04-1.24.34-1.26 1.12-.02.69.35 1.13 1.06 1.19.79.07 1.14-.42 1.3-1.12zm0-4.4c-.04-.7-.38-1.14-1.08-1.18-.74-.05-1.23.3-1.28 1.08-.04.71.41 1.15 1.06 1.2.72.06 1.18-.36 1.3-1.1zm.01-4.52c-.12-.62-.47-1.1-1.15-1.12-.72-.01-1.21.4-1.21 1.17 0 .69.41 1.11 1.1 1.14.77.03 1.12-.45 1.26-1.19zm-1.13 14.53c.66-.18 1.17-.54 1.1-1.31-.06-.67-.49-1.08-1.21-1.05-.72.02-1.11.44-1.12 1.13-.01.76.48 1.12 1.23 1.24z" fill="#06ffd5"/><path d="m64.24 109.33c-2.31 0-4.61-.04-6.92.02-.87.02-1.04-.27-1.03-1.07.04-4.46.02-8.91.01-13.37 0-.47.02-1-.17-1.4-.38-.79-1.13-.97-1.77-.39-2.73 2.5-5.44 5.02-8.07 7.61-.68.67-.65 1.77-.96 2.66-.1.3-.19.61-.28.91q-.69 2.32-2.97 1.47c-.32-.12-.65-.18-.5-.62.83-2.54.74-5.47 2.7-7.53 2.77-2.9 5.85-5.5 8.86-8.15.77-.67 1.72-.76 2.69-.75h2.03c1.2-.01 2.45-.25 3.11 1.24.21.48.87.7 1.44.72 1.23.03 2.47.06 3.7 0 .9-.04 1.58-.57 1.98-1.35.31-.59.72-.75 1.34-.72 1.03.05 2.07.02 3.1.01 1.72 0 3.27.48 4.68 1.5 1.8 1.31 3.63 2.58 5.46 3.84 1.59 1.1 2.8.83 3.79-.8.25-.41.46-.83.72-1.23.36-.56.6-1.63 1.09-1.59.8.07 1.55.71 2.31 1.14.41.23.19.52.04.81-.76 1.48-1.47 3-2.29 4.45-1.28 2.25-3.89 2.86-6.19 1.45-2.23-1.37-4.43-2.81-6.63-4.23-.75-.49-1.5-.97-2.41-.45s-.89 1.42-.89 2.31c0 4.18-.02 8.35.02 12.53 0 .75-.15 1.03-.97 1.01-2.35-.06-4.69-.02-7.04-.02zm-1.14-2.94c.14.63.52 1.09 1.29 1.03.7-.05 1.09-.52 1.07-1.19-.03-.76-.54-1.17-1.27-1.12-.66.05-1.06.5-1.09 1.28zm1.29-5.71c-.77 0-1.24.35-1.27 1.1-.03.76.43 1.19 1.15 1.22.67.03 1.14-.38 1.19-1.06.06-.73-.35-1.17-1.07-1.26zm1.1-7.76c-.14-.67-.5-1.13-1.28-1.08-.72.05-1.09.48-1.08 1.16.02.76.51 1.16 1.25 1.13.69-.03 1.04-.5 1.12-1.21zm-1.24 5.68c.67-.08 1.19-.41 1.21-1.16.02-.73-.43-1.19-1.17-1.21-.68-.01-1.12.4-1.17 1.08-.06.75.38 1.15 1.13 1.29z" fill="#fff"/><path d="m56.39 128.59c0-5.21.03-10.42-.02-15.63 0-1.01.3-1.26 1.28-1.25 5.73.04 11.45.01 17.18.02 2.96 0 4.71 1.68 4.74 4.62.04 4.41 0 8.83.03 13.24 0 .81-.27 1.04-1.04.99-.91-.05-1.83-.07-2.74 0-.95.07-1.24-.28-1.23-1.22.04-3.62.02-7.24.02-10.86 0-1.57-.39-1.99-1.97-1.96-2.7.05-5.41-.24-8.09.16-2.17.32-3.33 1.73-3.33 3.94 0 7.76-.03 15.51.03 23.27 0 1.2-.27 1.67-1.5 1.5-.7-.1-1.43-.07-2.14 0-.93.09-1.22-.23-1.21-1.19.05-5.21.02-10.42.02-15.63z" fill="#b6e5f5"/><path d="m103.18 98.9c0-5.17.02-10.34-.02-15.51 0-.94.17-1.32 1.22-1.31 5.81.05 11.61 0 17.42 0 2.8 0 4.54 1.7 4.56 4.52.03 4.37 0 8.75.02 13.12 0 .74-.16 1.13-.98 1.05-1.29-.13-2.93.55-3.78-.29-.74-.74-.2-2.35-.21-3.57-.03-2.7 0-5.41-.01-8.11 0-1.66-.25-1.9-1.96-1.9-2.43 0-4.85 0-7.28 0-2.63.01-4.16 1.53-4.16 4.15 0 7.79-.02 15.59.02 23.38 0 1.01-.2 1.48-1.3 1.34-1.13-.15-2.59.48-3.32-.27-.68-.7-.2-2.13-.2-3.23-.02-4.45 0-8.91 0-13.36z" fill="#b6e5f5"/><path d="m82.87 155.66c-2.74 0-5.48-.03-8.22.02-.77.01-1.02-.19-1.01-.99.04-3.5.04-6.99 0-10.49-.01-.82.27-.98 1.02-.97 5.52.02 11.04.02 16.57-.02.79 0 1 .23.99 1-.04 3.5-.04 6.99 0 10.49 0 .8-.24.99-1.01.98-2.78-.04-5.56-.02-8.34-.02z" fill="#add"/><path d="m115.86 48.35c-.05.84.09 1.84-.17 2.82-.63 2.36-2.71 3.75-5.25 3.48-2.3-.25-4.04-2.16-4.1-4.51-.03-1.07.02-2.15-.01-3.22-.02-.52.17-.67.68-.67 1.8 0 3.43-.54 4.82-1.7.35-.29.67-.34 1.06-.07.67.45 1.44.67 2.22.79.6.09.81.31.77.91-.05.67-.01 1.35-.01 2.17z" fill="#fff"/><path d="m69.07 77.98v1.43c-.04 2.97-1.97 4.95-4.79 4.96-2.82 0-4.74-2-4.75-4.97 0-.08 0-.16 0-.24 0-.99-.3-2.15.1-2.94.42-.81 1.75-.08 2.6-.54.24-.13.53-.15.78-.25.54-.21 4.55-.55 5.11-.51.76.06 1.04.39.96 1.15-.06.63-.01 1.27-.01 1.91z" fill="#fff"/><path d="m145.88 91.48c-3.41 0-6.83-.01-10.24 0-.81 0-1.5-.17-1.52-1.09-.02-.97.7-1.22 1.55-1.21 3.45.03 6.91.06 10.36.06 3.22 0 6.43-.04 9.65-.06.32 0 .64 0 .95.01.75.03 1.24.43 1.22 1.17-.02.81-.58 1.15-1.37 1.15-3.53 0-7.07 0-10.6 0 0-.01 0-.03 0-.04z" fill="#fff"/><path d="m117.9 43.3c-1.88-.35-3.65-.68-5.18-1.77-.74-.52-1.39.04-1.85.59-1.69 2.05-4.06 1.43-6.21 1.62-.41.04-.25-.41-.26-.65-.08-2.03 1.53-4.15 3.6-4.64 1.27-.3 2.76-.73 3.83.05 1.32.95 2.45 1.29 4.11 1.08 1.56-.21 2.26 1.39 1.96 3.71z" fill="#fff"/><path d="m71.21 73.22c-.96-.65-1.95-.56-2.86-.77-.62-.15-1.22-.39-1.7-.81-.89-.79-1.77-.7-2.52.1-1.41 1.48-3.05 2.05-5.04 1.58-.04 0-.08 0-.12-.01-1.52-.1-1.62-.27-1.14-1.78.7-2.18 2.41-3.46 4.68-3.52 1.47-.04 2.95-.17 3.97 1.29.24.34.7.4 1.19.25 2.39-.73 3.53.13 3.54 2.63z" fill="#fff"/><path d="m133.58 40.75h11.08c-2.04 2.31-3.88 4.41-5.75 6.51-1.6 1.8-1.62 1.79-2.63-.45-.89-1.98-1.77-3.97-2.7-6.05z" fill="#06ffd5"/><path d="m77.19 140.81c-1.43 0-2.85-.04-4.28.01-.77.03-.96-.31-.91-.99.13-1.86 1.05-2.8 2.94-2.84 1.62-.03 3.25.04 4.87 0 1.83-.03 2.6 1.64 2.58 3.18 0 .65-.47.63-.92.63-1.43 0-2.85 0-4.28 0z" fill="#add"/><path d="m58.94 155.66c-1.47 0-2.94-.02-4.41 0-.57.01-.74-.19-.76-.75-.07-1.86.97-3.06 2.81-3.08 1.67-.02 3.34-.03 5.01.01 1.61.04 2.86 1.83 2.48 3.4-.13.55-.51.41-.83.41-1.43.02-2.86 0-4.29 0z" fill="#add"/><path d="m123.93 111.02c-1.43 0-2.86-.03-4.28.01-.7.02-.9-.24-.85-.91.15-1.88 1.14-2.88 3.05-2.93 1.47-.04 2.93-.05 4.4 0 1.85.06 2.83 1.15 2.85 2.94 0 .67-.22.91-.89.89-1.43-.04-2.85-.01-4.28-.01z" fill="#add"/><path d="m105.64 125.85c-1.39 0-2.78-.04-4.16.02-.76.03-.94-.28-.91-.97.07-1.59.77-2.54 2.5-2.77 1.87-.25 3.79-.32 5.66.08 1.45.31 2.3 1.64 2.14 3.09-.07.61-.44.56-.83.56-1.47 0-2.93 0-4.4 0z" fill="#add"/><g fill="#fff"><path d="m139.52 60.03c-.05.45-.39.64-.71.75-.53.19-.55-.35-.67-.63-1.7-3.76-3.37-7.53-5.06-11.29-1.21-2.72-2.42-5.43-3.64-8.15-.11-.25-.25-.5-.34-.76-.14-.38-.27-.82.19-1.05.51-.26.83.1 1.03.52.49 1.08.94 2.18 1.43 3.26 2.48 5.53 4.97 11.06 7.46 16.59.11.25.21.51.31.74z"/><path d="m145.92 86.7c-1.19 0-2.38.04-3.56-.02-.4-.02-1.11.44-1.18-.48-.05-.78.18-1.42.98-1.69.26-.09.55-.09.82-.09h6.06c.67 0 1.26.16 1.58.82.45.94.14 1.46-.9 1.47-1.27 0-2.53 0-3.8 0z"/><path d="m142.89 63.97c0 .62-1.09 2.1-1.55 2.1-.15 0-2.03-1.96-2.04-2.13-.03-.45 1.44-1.48 2.12-1.48.87 0 1.47.61 1.48 1.51z"/><path d="m123.84 104.72c-.51 0-1.03-.02-1.54 0-.56.03-.88-.09-.88-.76 0-.66.3-.79.87-.78 1.1.03 2.21.03 3.31 0 .56-.01.76.2.75.76 0 .55-.17.8-.75.77-.59-.03-1.18 0-1.77 0z"/><path d="m93.01 87.1c.02.67-.82 2.31-1.18 2.31-.31 0-2.22-1.25-2.23-1.46-.03-.69 1.4-2.25 2.06-2.25.71 0 1.32.64 1.34 1.39z"/><path d="m87.25 79.77c.42-.35-.17-1.56.85-1.39.76.13 1.99-.08 2.22 1.01.21.98-.74 1.98-1.6 1.99-.79.01-1.5-.72-1.48-1.62z"/><path d="m41.91 111.05c-.92-.01-1.46-.59-1.41-1.4.03-.54-.14-1.65.71-1.55.78.09 2.07-.08 2.3 1.03.22 1.02-.72 1.93-1.61 1.93z"/><path d="m77.12 132.97c.56 0 1.11.03 1.67 0 .56-.04.76.16.76.74 0 .6-.23.74-.77.72-1.11-.03-2.23-.04-3.34 0-.58.02-.75-.16-.75-.74 0-.59.21-.76.77-.72.55.04 1.11 0 1.67 0z"/><path d="m105.6 119.6c-.52 0-1.03-.01-1.55 0-.5.01-.89.05-.9-.7 0-.77.35-.81.94-.8 1.07.03 2.14.04 3.21 0 .62-.03.69.26.71.78.02.58-.18.77-.74.73-.55-.04-1.11 0-1.67 0z"/><path d="m58.75 149.22c-.52 0-1.03 0-1.55 0-.46.01-.84.05-.84-.64 0-.62.18-.83.81-.8 1.11.05 2.22.05 3.33 0 .63-.03.7.26.7.78s-.16.7-.68.67c-.59-.04-1.19 0-1.79 0z"/><path d="m111 58.62c-.44 0-.89.07-1.31-.02-.54-.11-.77-.59-.73-1.08.06-.68.62-.52 1.01-.42.76.19 1.48.18 2.24-.01.37-.1.9-.17.98.36.09.54-.19 1.05-.77 1.17-.46.1-.95.02-1.43.02z"/><path d="m64.37 88.32c-.48 0-.96.06-1.43-.02-.62-.1-.83-.6-.76-1.15.08-.63.51-.35.9-.32.79.06 1.59.09 2.38 0 .46-.05.93-.27.95.39.01.5-.19 1.04-.85 1.09-.4.03-.79 0-1.19 0z"/><path d="m143.79 69.57c-.04.51-.23.85-.65.78-.69-.12-.91-.75-.94-1.32-.02-.43.52-.94.8-.83.57.21.54.97.79 1.37z"/></g><path d="m112.78 122.69c.12-.03.25-.05.37-.08.16.28.13.56.04.93-.3-.28-.45-.52-.41-.85z" fill="#1a2959"/><path d="m112.28 72.16c-.16.7-.51 1.19-1.3 1.12-.71-.06-1.08-.5-1.06-1.19.02-.78.55-1.16 1.26-1.12.67.03 1.04.51 1.1 1.19z" fill="#1a2959"/><path d="m112.27 67.77c-.12.74-.58 1.16-1.3 1.1-.65-.05-1.1-.49-1.06-1.2.04-.78.53-1.13 1.28-1.08.7.05 1.05.48 1.08 1.18z" fill="#1a2959"/><path d="m112.28 63.25c-.13.74-.49 1.22-1.26 1.19-.69-.03-1.1-.45-1.1-1.14 0-.76.48-1.18 1.21-1.17.68.01 1.03.49 1.15 1.12z" fill="#1a2959"/><path d="m111.15 77.77c-.75-.11-1.24-.47-1.23-1.24 0-.69.4-1.11 1.12-1.13s1.14.38 1.21 1.05c.07.77-.44 1.13-1.1 1.31z" fill="#1a2959"/><path d="m63.1 106.39c.04-.79.43-1.24 1.09-1.28.72-.05 1.24.36 1.27 1.12.02.68-.36 1.14-1.07 1.19-.77.06-1.15-.4-1.29-1.03z" fill="#1a2959"/><path d="m64.39 100.69c.72.09 1.13.53 1.07 1.26-.06.67-.52 1.08-1.19 1.06-.72-.03-1.18-.46-1.15-1.22.03-.75.5-1.1 1.27-1.1z" fill="#1a2959"/><path d="m65.49 92.93c-.08.72-.42 1.18-1.12 1.21-.74.03-1.23-.36-1.25-1.13-.02-.68.36-1.12 1.08-1.16.78-.05 1.14.41 1.28 1.08z" fill="#1a2959"/><path d="m64.26 98.61c-.75-.14-1.19-.54-1.13-1.29.06-.68.5-1.09 1.17-1.08.74.01 1.18.48 1.17 1.21-.02.75-.53 1.08-1.21 1.16z" fill="#1a2959"/></svg>