<?xml version="1.0" encoding="UTF-8"?><svg id="Layer_2" xmlns="http://www.w3.org/2000/svg" viewBox="0 0 117 116.99"><defs><style>.cls-1{fill:#fdfdfd;}.cls-2{fill:#add;}.cls-3{fill:#06ffd5;}.cls-4{fill:#1a2959;}</style></defs><g id="Layer_1-2"><g><path class="cls-4" d="M116.98,32.92c-.56,1.06-.46,2.25-.73,3.38-1.27,5.25-3.62,9.93-7.41,13.78-6.7,6.81-13.47,13.55-20.27,20.27-2.98,2.95-6.53,5.07-10.51,6.42-.73,.25-1.09,.67-1.33,1.37-1.54,4.51-4.18,8.33-7.54,11.67-6.5,6.47-12.83,13.13-19.54,19.38-13.74,12.8-35.92,9.41-45.46-6.75-6.7-11.34-5.32-25.54,3.7-35.18,6.63-7.08,13.61-13.84,20.56-20.62,2.98-2.9,6.49-5,10.41-6.38,.69-.24,1.13-.58,1.38-1.32,1.54-4.6,4.25-8.45,7.66-11.85,5.85-5.83,11.72-11.64,17.51-17.53,4.99-5.07,10.9-8.3,17.98-9.28,.24-.03,.56,.09,.68-.26h5.94c.1,.31,.37,.2,.57,.22,1.86,.19,3.69,.54,5.45,1.14,10.83,3.69,17.59,11.09,20.29,22.22,.25,1.05,.12,2.17,.65,3.16v6.17Zm-39.47-12.87c-.8-1.79-.56-2.69,1.09-3.73,3.3-2.08,6.89-2.98,10.78-2.4,6.21,.93,10.59,4.33,12.8,10.17,2.25,5.94,1.31,11.61-3.05,16.24-6.68,7.09-13.64,13.92-20.65,20.68-.31,.3-.75,.49-.62,1.1,.66,3.15,.72,6.34,.44,9.66,3.09-1.3,5.64-3.17,7.91-5.44,6.2-6.19,12.38-12.38,18.58-18.57,3.94-3.94,6.38-8.63,7.31-14.13,1.63-9.58-3.12-20.11-11.4-25.12-10.4-6.29-22.65-4.91-31.32,3.62-6.32,6.22-12.6,12.49-18.81,18.82-6.35,6.47-8.7,14.27-6.89,23.14,1.56,7.63,6.03,13.23,12.84,16.98,2.94,1.62,3.43,1.33,3.64-2.07,.24-3.8-1.34-6.79-3.85-9.52-5.55-6.07-5.51-15.33,.08-21.38,2.58-2.79,5.33-5.44,8.03-8.11,1.22-1.21,2.18-1.19,3.62-.08,.76,1.49,.65,2.26-.55,3.46-2.22,2.24-4.45,4.48-6.71,6.69-.52,.51-.69,.74,.15,1.12,6.81,3.09,11.79,8.06,14.89,14.87,.35,.77,.56,.75,1.12,.18,2.45-2.5,4.94-4.96,7.41-7.44,3.6-3.6,7.23-7.19,10.81-10.82,4.06-4.12,4.64-10.26,1.43-14.8-3.43-4.86-9.95-6.28-15.08-3.24-1.36,.8-2.63,1.41-4.02,.13Zm-38.81,25.18c-3.09,1.35-5.63,3.18-7.87,5.42-6.22,6.22-12.44,12.43-18.66,18.66-3.94,3.94-6.36,8.64-7.29,14.15-1.77,10.54,4.08,21.82,13.75,26.38,10.12,4.77,21.12,2.88,29.11-5.05,6.19-6.14,12.35-12.31,18.5-18.49,8.6-8.65,10.15-20.95,3.84-31.39-2.8-4.63-6.83-7.9-11.85-9.97-.5-.21-.78-.21-.89,.38-.05,.3-.18,.58-.24,.88-.91,4.3,.4,7.87,3.32,11.09,6.04,6.66,5.87,15.9-.42,22.31-6.24,6.36-12.56,12.64-18.9,18.9-4.08,4.02-9.02,5.6-14.64,4.41-6.08-1.3-10.2-5.04-12-10.97-1.81-5.93-.48-11.36,3.87-15.8,6.69-6.82,13.39-13.63,20.31-20.22,.36-.34,.59-.62,.47-1.16-.65-3.08-.69-6.19-.41-9.52Zm-9.15,53.48c3.14,0,6.12-1.24,8.42-3.53,6.07-6.04,12.1-12.12,18.19-18.14,.76-.75,.45-.9-.29-1.23-3.76-1.69-7-4.09-9.76-7.16-2-2.22-3.67-4.66-4.84-7.41-.46-1.08-.79-.99-1.45-.21-.56,.67-1.23,1.25-1.85,1.87-5.56,5.58-11.23,11.06-16.65,16.76-3.27,3.44-3.89,7.71-2.07,12.08,1.9,4.56,5.6,6.7,10.31,6.98Z"/><path class="cls-1" d="M116.98,26.75c-.53-.99-.39-2.11-.65-3.16-2.7-11.13-9.46-18.53-20.29-22.22-1.76-.6-3.59-.95-5.45-1.14-.21-.02-.47,.09-.57-.22C98.74,.02,107.46,.03,116.18,0c.68,0,.82,.14,.82,.82-.03,8.64-.02,17.29-.02,25.93Z"/><path class="cls-4" d="M87.57,85.31c.76,.05,1.37,.39,1.9,.92,3.06,3.07,6.14,6.13,9.19,9.21,1.13,1.15,1.18,2.45,.2,3.43-.91,.91-2.29,.91-3.35-.14-3.15-3.1-6.26-6.23-9.37-9.36-.75-.76-1.07-1.67-.63-2.7,.38-.89,1.13-1.29,2.07-1.37Z"/><path class="cls-4" d="M31.7,29.42c-.04,1.74-1.9,2.8-3.37,1.96-.36-.2-.68-.49-.97-.78-2.94-2.93-5.86-5.86-8.8-8.79-.61-.61-1.12-1.26-1.09-2.16,.07-1.74,2.18-2.89,3.48-1.73,3.63,3.24,7.02,6.73,10.34,10.28,.33,.35,.32,.84,.41,1.23Z"/><path class="cls-4" d="M102.19,73.81c2.13,0,4.25-.01,6.38,0,1.63,.01,2.71,.96,2.68,2.31-.03,1.32-1.07,2.24-2.64,2.25-4.33,.02-8.66,.02-12.99,0-1.56,0-2.6-.93-2.62-2.26-.02-1.37,1.04-2.29,2.69-2.3,2.17-.02,4.33,0,6.5,0Z"/><path class="cls-4" d="M78.37,102.14c0,2.13,.01,4.25,0,6.38-.01,1.65-.91,2.72-2.27,2.73-1.36,.01-2.29-1.05-2.3-2.7-.01-4.29-.01-8.59,0-12.88,0-1.64,.95-2.7,2.32-2.67,1.32,.03,2.23,1.07,2.24,2.64,.02,2.17,0,4.33,0,6.5Z"/><path class="cls-4" d="M38.39,14.88c0-2.09,0-4.18,0-6.27,0-1.75,.87-2.84,2.26-2.86,1.39-.02,2.31,1.07,2.31,2.8,0,4.25,.02,8.51,0,12.76,0,2.05-1.67,3.26-3.29,2.42-.95-.49-1.28-1.34-1.28-2.36,0-2.17,0-4.33,0-6.5Z"/><path class="cls-4" d="M15.56,42.97c-2.13,0-4.25,0-6.38,0-1.66,0-2.72-.89-2.75-2.25-.02-1.35,1.05-2.31,2.68-2.31,4.33-.01,8.66-.03,12.99,0,1.96,.01,3.12,1.7,2.31,3.29-.49,.95-1.34,1.28-2.36,1.27-2.16,0-4.33,0-6.49,0Z"/><path class="cls-3" d="M68.06,29.88c-1.44-1.11-2.4-1.13-3.62,.08-2.71,2.68-5.45,5.32-8.03,8.11-5.59,6.05-5.64,15.31-.08,21.38,2.5,2.73,4.08,5.72,3.85,9.52-.21,3.4-.71,3.69-3.64,2.07-6.81-3.75-11.28-9.35-12.84-16.98-1.82-8.87,.54-16.66,6.89-23.14,6.21-6.33,12.49-12.6,18.81-18.82,8.66-8.53,20.92-9.91,31.32-3.62,8.28,5.01,13.03,15.54,11.4,25.12-.94,5.51-3.38,10.2-7.31,14.13-6.19,6.19-12.38,12.39-18.58,18.57-2.27,2.27-4.82,4.14-7.91,5.44,.27-3.32,.22-6.51-.44-9.66-.13-.61,.31-.8,.62-1.1,7.02-6.76,13.97-13.59,20.65-20.68,4.36-4.62,5.29-10.3,3.05-16.24-2.21-5.84-6.59-9.24-12.8-10.17-3.89-.59-7.47,.31-10.78,2.4-1.64,1.04-1.89,1.94-1.09,3.73-1.02,1.09-2.04,2.18-3.06,3.27-.86-.66-1.78-.97-2.81-.4-1.25,.7-1.46,2.02-.56,3.59-.28,.31-.57,.61-.84,.93-.71,.83-1.71,1.4-2.18,2.45Z"/><path class="cls-2" d="M38.7,45.22c-.27,3.33-.23,6.44,.41,9.52,.11,.54-.12,.82-.47,1.16-6.92,6.59-13.62,13.4-20.31,20.22-4.35,4.43-5.68,9.86-3.87,15.8,1.81,5.93,5.92,9.67,12,10.97,5.62,1.2,10.56-.38,14.64-4.41,6.34-6.26,12.66-12.54,18.9-18.9,6.29-6.41,6.46-15.65,.42-22.31-2.92-3.22-4.22-6.79-3.32-11.09,.06-.3,.19-.58,.24-.88,.11-.59,.38-.59,.89-.38,5.01,2.06,9.05,5.34,11.85,9.97,6.31,10.43,4.76,22.74-3.84,31.39-6.15,6.18-12.31,12.35-18.5,18.49-7.99,7.93-18.99,9.82-29.11,5.05-9.67-4.55-15.52-15.83-13.75-26.38,.93-5.51,3.35-10.21,7.29-14.15,6.22-6.22,12.44-12.44,18.66-18.66,2.25-2.25,4.79-4.07,7.87-5.42Z"/><path class="cls-4" d="M74.45,23.31c.74,1.36,.69,2.42-.16,3.21-.85,.79-1.85,.79-3.22-.02-.89-1.57-.69-2.89,.56-3.59,1.03-.57,1.95-.26,2.81,.4Z"/></g></g></svg>