<?xml version="1.0" encoding="UTF-8"?><svg id="Layer_2" xmlns="http://www.w3.org/2000/svg" viewBox="0 0 118.38 118.39"><defs><style>.cls-1{fill:#fff;}.cls-2{fill:#b6e5f5;}.cls-3{fill:#add;}.cls-4{fill:#06ffd5;}.cls-5{fill:#1a2959;}</style></defs><g id="Layer_1-2"><g id="OP7PYA"><g><path class="cls-5" d="M68.71,79.2v27.68h-26.71c0,1.77,.03,3.46-.01,5.15-.02,.83-.07,1.68-.31,2.46-.71,2.28-2.87,3.87-5.32,3.88-10.22,.02-20.44,.03-30.66,0-3.19,0-5.67-2.51-5.68-5.71-.03-11.45-.03-22.91,0-34.36,0-3.26,2.49-5.7,5.77-5.74,1.99-.03,3.98,.03,5.96-.03,.39-.01,.9-.27,1.14-.58,1.59-2.05,3.63-3.14,6.23-3.24,.37-.01,.86-.23,1.08-.52,4.56-6.16,10.53-10.28,17.99-12.42,0-1.61,.04-3.24-.03-4.86-.02-.35-.38-.75-.68-1.01-2.16-1.94-4.46-3.74-6.51-5.78-7.37-7.34-9.92-16.15-6.82-26.1C27.24,8.04,34.36,2.2,44.63,.32c1.9-.35,3.88-.28,5.82-.3,4.61-.04,9.22-.02,13.84-.01,7.28,0,12.15,4.97,12.06,12.28,0,.15,.01,.31,.03,.65,10.13-.46,20.24-.92,30.14-1.37,.59-1.05,.94-2.11,1.64-2.85,1.52-1.62,7.43-1.65,8.93-.01,.66,.73,1.22,1.87,1.23,2.83,.09,8.87,.07,17.74,.04,26.6,0,2.23-1.62,3.81-3.85,3.87-.91,.02-1.83,0-2.74,0-3.12,0-4.23-.85-4.99-3.9-1.15-.06-2.33-.12-3.68-.19v1.35c0,6.6,0,13.2,0,19.8-.02,11.33-7.56,20.48-18.69,22.66-4.37,.85-8.62,.29-12.74-1.35-.92-.37-1.83-.73-2.95-1.18Zm22.92-33.32c0,2.8,.06,5.46-.01,8.13-.22,7.91-7.46,13.94-15.26,12.6-2.01-.35-3.95-1.15-5.9-1.82-2.92-1.01-5.81-2.09-8.78-3.17-1.13,3.35-2.22,6.61-3.35,9.96-1.73-1.03-3.32-1.98-4.95-2.94-1.05,1.24-1.8,2.34-1.35,4.17,1.82,7.32,3.45,14.69,5.17,22.04,.18,.75,.11,1.33-.42,1.96-1.46,1.73-2.85,3.52-4.27,5.29-.22,.28-.43,.57-.68,.93h13.12v-34.2h3.79c0,1.86,.02,3.64-.01,5.42-.01,.6,.14,.93,.73,1.15,1.56,.57,3.09,1.26,4.66,1.81,11.25,3.98,23.59-3.43,24.88-15.27,.57-5.23,.2-10.56,.25-15.85,0-.06-.08-.13-.14-.21h-7.48Zm-34.42-7.64c.47,2.24,1.58,3.55,3.36,3.71,1.41,.13,2.83,.03,4.17,.03,.09-.13,.14-.16,.14-.19-.36-3.06,.18-5.75,3.29-7.36-2.75-3.51-3.46-7.38-3.25-11.51-4.48,0-8.77,0-13.06,0-1.9,0-3.5-.65-4.72-2.12-.37-.45-.66-.96-.99-1.45-3.54,1.25-4.42,3.98-4.13,7.39-1.18,0-2.21,0-3.24,0-2.66,0-4.39,1.49-4.41,3.79-.02,2.33,1.74,3.85,4.47,3.85,1.02,0,2.04,0,3.16,0v1.41c0,6.52,0,13.04,.02,19.56,0,.43,.11,1.02,.4,1.25,1.73,1.39,3.52,2.69,5.31,4.03,1.8-1.35,3.52-2.62,5.21-3.93,.25-.19,.48-.56,.49-.86,.05-1.38,.02-2.77,.02-4.17-2.14-.73-4.19-1.42-6.32-2.14,.41-1.23,.79-2.35,1.2-3.58,.6,.19,1.12,.35,1.64,.52,3.05,1,6.08,2.09,9.16,2.99,2.6,.76,5.29-1.06,5.52-3.62-2.55-.11-5.19,.38-7.53-1.14-2.33-1.51-3.54-3.63-3.67-6.46h3.75Zm-3.79-22.96c-.55,0-.99,0-1.42,0-1.49,.02-2.36,.75-2.34,1.94,.02,1.16,.86,1.87,2.29,1.87,4.29,0,8.59,.03,12.88,0,4.33-.03,7.71-3.37,7.73-7.58,.02-4.28-3.36-7.66-7.75-7.68-5.52-.02-11.05-.03-16.57,0-4.07,.02-7.83,1.16-11.28,3.31-12.31,7.68-15.4,26.92,1.19,38.04v-6.88c-5.01-.95-7.67-3.76-7.57-7.97,.09-4.07,2.95-6.83,7.8-7.5,1.06-3.81,3.43-6.34,7.34-7.33,.25-.06,.5-.35,.64-.6,1.6-2.84,3.82-3.88,7.08-3.28v3.67Zm30.66,21.79c-4.27-.19-8.31-.39-12.35-.54-.9-.03-2.97,2.22-2.98,3.16-.02,1.87,.03,3.74-.02,5.61-.11,3.87-2.89,7.26-6.69,7.92-1.51,.27-3.11,.04-4.75,.04,0,.51,.04,1.19-.01,1.86-.04,.61,.17,.91,.76,1.12,5.75,2.07,11.46,4.25,17.24,6.23,6.27,2.15,12.48-2.37,12.54-9.03,.03-2.58,.04-5.17-.03-7.75-.02-.56-.28-1.26-.68-1.62-2.02-1.86-3.55-3.9-3.04-6.99ZM11.38,76.38c-1.71,0-3.33,0-4.96,0-2.01,0-2.6,.6-2.6,2.65,0,10.97,0,21.95,0,32.92,0,2.02,.6,2.61,2.63,2.61,9.66,0,19.32,0,28.98,0,2.19,0,2.75-.56,2.75-2.74,0-10.89,0-21.79,0-32.68,0-.36,.03-.72-.03-1.07-.15-.92-.7-1.6-1.63-1.64-1.97-.08-3.94-.03-5.9-.03-.09,1.31-.17,2.49-.26,3.82h3.9v30.46H7.72v-30.51h3.92c-.09-1.28-.17-2.46-.26-3.79Zm19.12,7.7H11.54v22.76H30.5v-22.76ZM106.87,15.38c-7.68,.35-15.23,.69-22.79,1.03v17.12c.57-.4,.98-.58,1.25-.89,1.23-1.4,2.75-2.1,4.61-2.09,2.38,0,4.77,0,7.15,0,2.29,0,4.04,.96,5.25,2.91,.15,.25,.4,.6,.62,.61,1.29,.06,2.58,.03,3.9,.03V15.38ZM47.74,101.95c1.8-2.25,3.51-4.34,5.15-6.48,.24-.31,.3-.89,.21-1.3-1.56-6.88-3.14-13.76-4.75-20.63-.08-.35-.41-.65-.62-.98-.21,.33-.52,.64-.6,1-1.61,6.87-3.2,13.75-4.76,20.63-.09,.38-.05,.92,.17,1.2,1.67,2.17,3.39,4.28,5.21,6.56ZM80.11,33.06V16.77c-1.51,0-2.94-.04-4.36,.03-.36,.02-.83,.3-1.03,.6-1.36,2.1-3.14,3.66-5.44,4.64-.23,.1-.51,.42-.52,.65-.2,3.32,.13,6.52,2.32,9.23,.29,.36,.79,.73,1.21,.75,2.57,.18,5.15,.26,7.82,.38Zm-42.97,38.53c-1.14-3.39-2.23-6.65-3.35-10-3.6,1.81-6.63,4.17-9.24,7.29,2.04,.59,3.59,1.67,4.75,3.32,.17,.24,.67,.34,1.03,.35,1.99,.03,3.98,0,5.96,.02,1.82,.02,3.39,.7,4.43,2.18,.66,.94,1.03,2.09,1.49,3.05,.37-1.58,.65-3.36,1.22-5.04,.61-1.8-.31-2.9-1.37-4.1-1.65,.98-3.24,1.93-4.93,2.94ZM114.46,38.15V11.53h-3.66v26.62h3.66Zm-15.18,3.86c0-1.85,0-3.52,0-5.19,0-.16,0-.32,0-.48-.08-1.2-.77-1.94-1.96-1.96-2.5-.04-5-.08-7.5,.04-.6,.03-1.6,.56-1.67,.99-.23,1.28-.46,2.78,.01,3.91,.45,1.08,1.68,2.42,2.72,2.56,2.72,.36,5.52,.12,8.41,.12ZM21.01,80.2c.67,0,1.35-.03,2.02,0,4.01,.22,3.77-1.06,3.69-3.93-.06-2.03-1.62-3.62-3.63-3.7-1.39-.06-2.78-.06-4.17,0-1.97,.08-3.51,1.62-3.63,3.58-.04,.67-.03,1.35,0,2.02,.05,1.26,.76,1.97,2.03,2.01,1.23,.03,2.46,0,3.69,0Zm23.3-17.36c-1.21-.91-2.34-1.6-3.27-2.5-1.22-1.19-2.35-.86-3.69-.17,.63,1.9,1.25,3.75,1.9,5.7,1.71-1.03,3.3-1.98,5.06-3.03Zm11.91,3.03c.63-1.91,1.23-3.69,1.91-5.74-1.02-.16-2.11-.69-2.74-.36-1.48,.77-2.74,1.95-4.22,3.07,1.76,1.05,3.37,2.02,5.06,3.03Zm-10.68,.82c1.24,2.12,1.45,2.42,2.63,1.98,.77-.29,1.28-1.25,1.92-1.93-2.47-1.7-2.49-1.7-4.55-.05Zm-1.87,36.37c-.55-.69-1.02-1.29-1.62-2.04v2.04h1.62Z"/><path class="cls-1" d="M91.63,45.88h7.48c.06,.08,.14,.15,.14,.21-.05,5.29,.32,10.62-.25,15.85-1.29,11.84-13.63,19.25-24.88,15.27-1.57-.56-3.1-1.24-4.66-1.81-.59-.22-.74-.55-.73-1.15,.04-1.78,.01-3.57,.01-5.42h-3.79v34.2h-13.12c.26-.35,.46-.65,.68-.93,1.41-1.77,2.8-3.56,4.27-5.29,.53-.63,.6-1.21,.42-1.96-1.72-7.35-3.35-14.72-5.17-22.04-.46-1.83,.29-2.93,1.35-4.17,1.63,.97,3.22,1.92,4.95,2.94,1.13-3.36,2.22-6.61,3.35-9.96,2.97,1.08,5.87,2.16,8.78,3.17,1.95,.67,3.89,1.48,5.9,1.82,7.8,1.34,15.04-4.69,15.26-12.6,.07-2.66,.01-5.33,.01-8.13Z"/><path class="cls-1" d="M57.21,38.25h-3.75c.13,2.83,1.34,4.95,3.67,6.46,2.34,1.52,4.98,1.03,7.53,1.14-.23,2.56-2.92,4.38-5.52,3.62-3.08-.9-6.11-1.98-9.16-2.99-.52-.17-1.04-.33-1.64-.52-.41,1.23-.79,2.35-1.2,3.58,2.13,.72,4.18,1.42,6.32,2.14,0,1.39,.03,2.78-.02,4.17-.01,.3-.25,.67-.49,.86-1.69,1.31-3.42,2.58-5.21,3.93-1.79-1.34-3.58-2.65-5.31-4.03-.29-.23-.4-.82-.4-1.25-.02-6.52-.02-13.04-.02-19.56v-1.41c-1.12,0-2.14,0-3.16,0-2.73,0-4.49-1.52-4.47-3.85,.02-2.29,1.75-3.78,4.41-3.79,1.03,0,2.05,0,3.24,0-.29-3.41,.59-6.14,4.13-7.39,.33,.49,.62,1.01,.99,1.45,1.22,1.47,2.81,2.13,4.72,2.12,4.29-.01,8.58,0,13.06,0-.21,4.13,.5,8,3.25,11.51-3.1,1.61-3.65,4.3-3.29,7.36,0,.03-.04,.06-.14,.19-1.34,0-2.77,.1-4.17-.03-1.78-.16-2.89-1.47-3.36-3.71Zm-.47-12.57c-.87,.79-1.75,1.58-2.83,2.56,.91,.75,1.75,1.45,2.79,2.31-1.05,.87-1.89,1.58-2.7,2.25,1.04,1.08,1.88,1.95,2.65,2.73,1.71-1.71,3.38-3.38,4.98-4.98-1.6-1.6-3.27-3.27-4.88-4.87Z"/><path class="cls-3" d="M53.41,15.28v-3.67c-3.26-.6-5.48,.45-7.08,3.28-.14,.25-.39,.53-.64,.6-3.91,1-6.28,3.52-7.34,7.33-4.85,.68-7.7,3.43-7.8,7.5-.1,4.21,2.57,7.03,7.57,7.97v6.88c-16.59-11.12-13.51-30.36-1.19-38.04,3.45-2.15,7.21-3.29,11.28-3.31,5.52-.03,11.05-.03,16.57,0,4.39,.02,7.77,3.4,7.75,7.68-.02,4.22-3.39,7.56-7.73,7.58-4.29,.03-8.58,.01-12.88,0-1.43,0-2.27-.71-2.29-1.87-.02-1.19,.86-1.92,2.34-1.94,.43,0,.87,0,1.42,0Z"/><path class="cls-1" d="M11.38,76.38c.09,1.33,.17,2.51,.26,3.79h-3.92v30.51h26.55v-30.46h-3.9c.09-1.33,.17-2.51,.26-3.82,1.96,0,3.93-.06,5.9,.03,.93,.04,1.48,.72,1.63,1.64,.06,.35,.03,.71,.03,1.07,0,10.89,0,21.79,0,32.68,0,2.19-.56,2.74-2.75,2.74-9.66,0-19.32,0-28.98,0-2.04,0-2.63-.59-2.63-2.61,0-10.97,0-21.95,0-32.92,0-2.05,.59-2.65,2.6-2.65,1.62,0,3.25,0,4.96,0Z"/><path class="cls-4" d="M30.5,84.08v22.76H11.54v-22.76H30.5Zm-11.48,17.66c2.97-2.96,5.92-5.89,8.71-8.67-.74-.84-1.54-1.75-2.51-2.85-2.07,2.14-4.08,4.21-6.34,6.54-.73-.96-1.4-1.84-1.92-2.52-1.11,1-2.01,1.8-2.86,2.57,1.69,1.69,3.34,3.35,4.93,4.93Z"/><path class="cls-2" d="M106.87,15.38v18.73c-1.32,0-2.62,.03-3.9-.03-.22,0-.47-.37-.62-.61-1.21-1.95-2.96-2.92-5.25-2.91-2.38,0-4.77,0-7.15,0-1.86,0-3.38,.69-4.61,2.09-.27,.31-.68,.49-1.25,.89V16.41c7.56-.34,15.11-.69,22.79-1.03Z"/><path class="cls-4" d="M47.74,101.95c-1.82-2.27-3.54-4.39-5.21-6.56-.22-.28-.25-.82-.17-1.2,1.56-6.88,3.15-13.76,4.76-20.63,.08-.36,.4-.67,.6-1,.21,.32,.54,.62,.62,.98,1.61,6.87,3.2,13.75,4.75,20.63,.09,.4,.03,.99-.21,1.3-1.64,2.14-3.35,4.23-5.15,6.48Z"/><path class="cls-2" d="M80.11,33.06c-2.67-.12-5.25-.2-7.82-.38-.42-.03-.92-.4-1.21-.75-2.2-2.71-2.52-5.91-2.32-9.23,.01-.23,.29-.55,.52-.65,2.3-.98,4.08-2.55,5.44-4.64,.2-.3,.67-.58,1.03-.6,1.42-.07,2.85-.03,4.36-.03v16.28Z"/><path class="cls-1" d="M37.14,71.59c1.69-1,3.28-1.95,4.93-2.94,1.06,1.2,1.98,2.3,1.37,4.1-.57,1.68-.85,3.46-1.22,5.04-.46-.96-.83-2.11-1.49-3.05-1.05-1.48-2.61-2.16-4.43-2.18-1.99-.02-3.98,.01-5.96-.02-.35,0-.85-.11-1.03-.35-1.16-1.65-2.72-2.73-4.75-3.32,2.61-3.11,5.64-5.48,9.24-7.29,1.12,3.35,2.22,6.61,3.35,10Z"/><path class="cls-2" d="M114.46,38.15h-3.66V11.53h3.66v26.62Z"/><path class="cls-1" d="M99.28,42.01c-2.89,0-5.69,.24-8.41-.12-1.03-.14-2.27-1.48-2.72-2.56-.47-1.13-.24-2.63-.01-3.91,.08-.43,1.08-.97,1.67-.99,2.5-.11,5-.07,7.5-.04,1.19,.02,1.88,.76,1.96,1.96,.01,.16,0,.32,0,.48,0,1.67,0,3.33,0,5.19Z"/><path class="cls-1" d="M21.01,80.2c-1.23,0-2.46,.03-3.69,0-1.27-.04-1.97-.75-2.03-2.01-.03-.67-.04-1.35,0-2.02,.12-1.96,1.66-3.5,3.63-3.58,1.39-.06,2.78-.06,4.17,0,2.01,.08,3.57,1.67,3.63,3.7,.08,2.86,.32,4.15-3.69,3.93-.67-.04-1.35,0-2.02,0Z"/><path class="cls-1" d="M44.31,62.84c-1.76,1.05-3.35,2.01-5.06,3.03-.65-1.95-1.27-3.8-1.9-5.7,1.34-.69,2.48-1.02,3.69,.17,.92,.9,2.06,1.59,3.27,2.5Z"/><path class="cls-1" d="M56.22,65.87c-1.69-1.01-3.3-1.98-5.06-3.03,1.48-1.11,2.74-2.3,4.22-3.07,.64-.33,1.73,.2,2.74,.36-.68,2.04-1.27,3.83-1.91,5.74Z"/><path class="cls-4" d="M45.54,66.69c2.06-1.65,2.08-1.65,4.55,.05-.65,.68-1.16,1.65-1.92,1.93-1.18,.44-1.39,.14-2.63-1.98Z"/><path class="cls-1" d="M43.68,103.06h-1.62v-2.04c.6,.76,1.07,1.35,1.62,2.04Z"/><path class="cls-5" d="M56.74,25.67c1.61,1.6,3.28,3.27,4.88,4.87-1.61,1.61-3.28,3.28-4.98,4.98-.76-.79-1.6-1.65-2.65-2.73,.81-.68,1.66-1.38,2.7-2.25-1.03-.86-1.88-1.56-2.79-2.31,1.09-.98,1.96-1.77,2.83-2.56Z"/><path class="cls-5" d="M19.02,101.74c-1.58-1.58-3.23-3.24-4.93-4.93,.86-.77,1.76-1.58,2.86-2.57,.52,.68,1.19,1.56,1.92,2.52,2.26-2.33,4.27-4.41,6.34-6.54,.97,1.1,1.77,2.01,2.51,2.85-2.79,2.78-5.74,5.72-8.71,8.67Z"/></g></g></g></svg>