<?xml version="1.0" encoding="UTF-8"?><svg id="Layer_2" xmlns="http://www.w3.org/2000/svg" viewBox="0 0 123.8 123.76"><defs><style>.cls-1{fill:#fff;}.cls-2{fill:#b6e5f5;}.cls-3{fill:#06ffd5;}.cls-4{fill:#1a2959;}</style></defs><g id="Layer_1-2"><g><path class="cls-2" d="M92.71,61.38c.09,16.9-13.67,30.74-30.71,30.87-16.89,.13-30.77-13.63-30.92-30.65-.15-16.9,13.71-30.86,30.76-30.97,16.84-.11,30.78,13.77,30.87,30.75Zm-4.81,.11c.02-14.29-11.79-26.11-26.04-26.04-14.3,.06-25.94,11.71-25.97,25.98-.02,14.32,11.71,26.04,26.04,26.01,14.31-.03,25.94-11.65,25.97-25.95Z"/><path class="cls-1" d="M67.07,59.37c-.14,.9-.16,1.84-.45,2.69-.77,2.29-3.08,3.57-5.54,3.22-2.31-.33-4.12-2.3-4.22-4.68-.05-1.04-.1-2.1,.08-3.11,.45-2.62,2.82-4.29,5.53-4.05,2.43,.21,4.36,2.29,4.48,4.83,.01,.36,0,.72,0,1.08,.04,.01,.08,.01,.12,.02Z"/><path class="cls-1" d="M61.61,70.26c5.93-.1,10.3,2.65,13.33,7.67-6.37,5.84-18.43,6.59-26.12,.07,2.88-4.88,7.08-7.64,12.79-7.74Z"/><path class="cls-3" d="M76.73,46.39c8.51,8.34,7.81,20.95,1.76,28.03-2.29-3.36-5.26-5.9-8.95-7.47,.64-1.41,1.52-2.71,1.83-4.13,.85-3.84,.75-7.62-2.02-10.79-2.64-3.02-6.03-4.1-9.88-3.11-4.01,1.03-6.53,3.71-7.24,7.81-.62,3.56-.36,7.06,2.26,10.09-3.86,1.68-6.89,4.19-9.18,7.6-5.85-6.74-6.89-19.26,1.55-27.86,8.13-8.29,21.47-8.41,29.87-.17Z"/><path class="cls-4" d="M123.53,80.29c.04,1.4,.02,2.8,0,4.21-.03,1.81-.9,2.7-2.73,2.81-.28,.02-.56,.01-.84,.01-7.59,0-15.17,0-22.75-.01-.6,0-1.21-.03-1.79-.16-1.03-.24-1.77-1.3-1.72-2.34,.04-1.06,.82-2.02,1.87-2.21,.51-.09,1.04-.1,1.56-.1h21.39c1.13-6.49-2.95-12.03-8.77-12.94-.68-.11-1.36-.19-2.04-.2-3.65-.02-7.29-.01-10.96-.01-3.87,13.75-12.35,23.14-26.28,26.6-13.95,3.46-25.84-.84-35.7-11.3-.23,.2-.5,.41-.74,.65-8.6,8.59-17.19,17.2-25.8,25.78-1.07,1.08-1.8,2.27-1.62,3.84,.21,1.7,1.12,2.91,2.74,3.5,1.77,.65,3.3,.14,4.6-1.16,4.72-4.71,9.43-9.42,14.14-14.12,.31-.32,.62-.64,.97-.9,1.07-.83,2.27-.79,3.17,.07,.93,.88,1.01,2.14,.17,3.26-.24,.32-.53,.6-.81,.88-4.26,4.26-8.54,8.48-12.75,12.79-1.94,1.98-4,3.69-6.79,4.28h-2.65c-.44-.16-.89-.32-1.34-.47-2.95-.98-4.95-2.94-5.85-5.9-1.12-3.71-.01-6.84,2.68-9.52,8.66-8.65,17.3-17.31,25.97-25.95,.33-.34,.8-.53,1.21-.8-.18-.06-.36-.13-.55-.2-1.56-3.74-3.12-7.48-4.73-11.31-3.62,0-7.43-.02-11.23,.02-.83,0-1.69,.15-2.49,.38-5.62,1.62-8.76,6.67-7.87,12.73h2.23c2.65,.01,5.3-.02,7.95,.07,1.28,.04,2.17,1.08,2.19,2.28,.03,1.13-.8,2.12-1.99,2.35-.39,.08-.8,.11-1.2,.11-3.65,.01-7.3-.02-10.95,.02-1.47,.02-2.57-.47-3.18-1.86v-7.22c.61-2.32,1.18-4.64,2.58-6.67,2.17-3.16,5.01-5.36,8.73-6.39,.27-.07,.53-.18,.91-.32-.18-.36-.35-.7-.53-1.04-1.86-3.62-1.79-10.95,2.61-14.34,3.83-2.97,8.95-3.06,12.76-.01,.22,.17,.44,.34,.64,.49,7.06-16.31,19.13-25.25,37.16-23.85,15.06,1.17,24.98,9.95,30.63,23.82,.77-.5,1.55-1.09,2.41-1.55,5.95-3.24,13.58,.48,14.6,7.17,.49,3.18,.42,6.33-1.45,9.23,1.21,.47,2.38,.83,3.46,1.38,5.74,2.94,8.59,7.71,8.77,14.12Zm-15.71-19.38c.97-3.94,.29-7.37-3.39-8.64-.45-.16-.94-.24-1.42-.25-3.32-.12-5.49,2.32-5.49,6.15,0,3.29,1.2,5.3,3.65,6.1,2.78,.9,5.96-.56,6.65-3.36Zm-45.82,31.34c17.04-.13,30.8-13.97,30.71-30.87-.09-16.98-14.03-30.86-30.87-30.75-17.05,.11-30.91,14.07-30.76,30.97,.15,17.02,14.03,30.78,30.92,30.65ZM26.13,60.25c.22-1.28,.22-2.66,.01-3.95-.55-3.17-3.82-5.03-6.86-4.03-2.41,.8-3.63,2.81-3.62,5.99,0,.36-.01,.72,0,1.08,.11,2.73,2.15,4.94,4.78,5.17,2.74,.23,5.24-1.54,5.69-4.26Z"/><path class="cls-4" d="M61.86,35.45c14.25-.07,26.06,11.75,26.04,26.04-.03,14.3-11.66,25.92-25.97,25.95-14.33,.03-26.06-11.69-26.04-26.01,.03-14.27,11.67-25.92,25.97-25.98Zm16.63,38.97c6.05-7.08,6.75-19.69-1.76-28.03-8.4-8.24-21.74-8.12-29.87,.17-8.44,8.6-7.4,21.12-1.55,27.86,2.29-3.41,5.32-5.92,9.18-7.6-2.62-3.03-2.88-6.53-2.26-10.09,.71-4.1,3.23-6.78,7.24-7.81,3.85-.99,7.24,.09,9.88,3.11,2.77,3.17,2.87,6.95,2.02,10.79-.31,1.42-1.19,2.72-1.83,4.13,3.69,1.57,6.66,4.11,8.95,7.47Zm-11.42-15.05s-.08,0-.12-.02c0-.36,.01-.72,0-1.08-.12-2.54-2.05-4.62-4.48-4.83-2.71-.24-5.08,1.43-5.53,4.05-.18,1.01-.13,2.07-.08,3.11,.1,2.38,1.91,4.35,4.22,4.68,2.46,.35,4.77-.93,5.54-3.22,.29-.85,.31-1.79,.45-2.69Zm7.87,18.56c-3.03-5.02-7.4-7.77-13.33-7.67-5.71,.1-9.91,2.86-12.79,7.74,7.69,6.52,19.75,5.77,26.12-.07Z"/><path class="cls-4" d="M82.3,9.69c.77,.79,1.15,1.9,.44,2.72-1.62,1.86-3.44,3.56-5.21,5.28-.26,.24-.74,.26-1.4,.47-.53-.42-1.41-.8-1.71-1.44-.3-.65-.34-1.84,.06-2.31,1.53-1.79,3.23-3.44,4.97-5.01,.79-.72,2.1-.47,2.85,.29Z"/><path class="cls-4" d="M64.32,2.86c.03,1.28,.01,2.56,.01,3.84s.02,2.64-.01,3.96c-.04,1.51-.98,2.52-2.31,2.57-1.27,.04-2.42-.97-2.46-2.43-.08-2.71-.08-5.44,0-8.15,.04-1.46,1.21-2.46,2.49-2.39,1.32,.07,2.23,1.08,2.27,2.6Z"/><path class="cls-4" d="M62.07,16.39c1.29,.09,2.3,1.22,2.24,2.51-.07,1.28-1.23,2.34-2.49,2.26-1.27-.08-2.35-1.27-2.27-2.51,.09-1.27,1.28-2.34,2.52-2.26Z"/><path class="cls-4" d="M48.93,13.78c1.11,1.18,1.14,2.54,.16,3.53-.99,1-2.36,.99-3.53-.13-1.39-1.32-2.75-2.68-4.07-4.07-.75-.79-1.08-1.81-.46-2.74,.45-.67,1.25-1.09,1.93-1.65,.82,.44,1.49,.65,1.97,1.09,1.38,1.27,2.7,2.61,4,3.97Z"/><path class="cls-4" d="M39.44,97.57c.02,1.26-1.09,2.37-2.38,2.38-1.31,0-2.38-1.04-2.38-2.35-.01-1.29,1.07-2.39,2.35-2.4,1.26-.01,2.4,1.12,2.41,2.37Z"/></g></g></svg>