<?xml version="1.0" encoding="UTF-8"?><svg id="Layer_2" xmlns="http://www.w3.org/2000/svg" viewBox="0 0 128 132.4"><defs><style>.cls-1{fill:#030101;}.cls-2{fill:#020202;}.cls-3{fill:#e9f6f6;}.cls-4{fill:#fff;}.cls-5{fill:#b6e5f5;}.cls-6{fill:#06ffd5;}</style></defs><g id="Layer_1-2"><g><path class="cls-2" d="M63.92,132.4c-30.49,.18-57.49-22.28-62.84-52.21C-1.19,67.46,.1,55.15,5.17,43.25c.31-.72,.25-1.21-.18-1.86-2.13-3.22-4.05-6.57-4.75-10.44C-1.18,22.92,4.52,14.86,12.56,13.48c4.6-.79,8.76,.22,12.42,3.09,.67,.52,1.02,.42,1.62-.01C38.61,7.91,52.04,3.89,66.81,4.44c7.44,.27,14.64,1.89,21.51,4.79,.87,.37,1.19,.23,1.6-.61,3.21-6.53,10.41-9.89,17.39-8.17,7.13,1.75,12.03,8.02,11.85,15.28-.09,3.59-1.41,6.89-3.39,9.75-1.56,2.26-1.26,3.65,.28,5.84,26.83,37.99,6.16,90.03-38.87,99.71-4.37,.94-8.79,1.41-13.27,1.37Zm7.33-66.39c2.33,4.98,1.85,9.59-.32,14.11-.34,.72,.14,1,.51,1.37,2.3,2.31,4.59,4.64,6.93,6.92,.78,.76,1.13,1.6,1.11,2.69-.05,2.57-.04,5.15,0,7.72,.01,.94-.2,1.79-.97,2.32-3.09,2.14-4.07,5.08-3.46,8.67,.02,.09-.01,.19,0,.28,.38,2.4-.49,4.22-2.36,5.77-1.51,1.26-3.35,2.56-4.04,4.25-.71,1.74-.21,3.97-.22,5.99-.01,1.72,0,1.74,1.71,1.55,11.36-1.26,21.58-5.35,30.61-12.38,.56-.44,.8-.87,.8-1.6-.04-3.4-.04-6.8,0-10.2,0-.75-.21-1.28-.74-1.8-3.08-3.03-6.11-6.11-9.19-9.14-.77-.76-1.15-1.58-1.13-2.68,.05-2.71-.03-5.42,.04-8.13,.03-1.02-.29-1.71-1.02-2.39-1.38-1.28-2.56-2.81-4.04-3.94-3.08-2.37-3.97-5.3-3.94-9.17,.03-3.78,.67-6.82,3.84-9.05,.57-.4,.74-.95,.74-1.66-.04-3.17-.03-6.34,0-9.51,0-.64-.16-1.12-.62-1.58-2.85-2.81-5.67-5.64-8.48-8.48-.46-.46-.92-.65-1.57-.64-2.85,.03-5.7-.02-8.55,.03-1.09,.02-1.93-.33-2.69-1.11-2.61-2.66-5.24-5.29-7.9-7.9-.78-.76-1.12-1.6-1.11-2.69,.04-4.27-.03-8.55,.05-12.82,.02-1.14-.36-1.32-1.33-1.1-1.65,.38-3.33,.66-4.97,1.1-4.06,1.07-7.98,2.5-11.95,4.6,1.23,.02,1.94,.45,2.58,1.1,1.9,1.94,3.81,3.86,5.75,5.75,.74,.72,1.1,1.52,1.08,2.56-.04,2.57-.04,5.15,0,7.72,.02,1.04-.33,1.84-1.07,2.57-2.36,2.32-4.68,4.68-7.05,6.99-.54,.53-.75,1.06-.74,1.81,.04,2.11-.01,4.23,.03,6.34,.02,.99-.31,1.77-1.01,2.45-1.94,1.9-3.97,3.72-5.73,5.77-2.08,2.43-4.38,3.98-7.72,3.32-.18-.03-.37,0-.55,0-.2,0-.33,.08-.42,.27-.33,.64,.11,3.35,.64,3.89,2.44,2.44,4.75,5.03,7.36,7.26,2.38,2.04,3.15,4.34,3.11,7.44-.03,2.93-.56,5.3-3.01,7.04-3.07,2.17-4.42,5.06-3.73,8.83,.19,1.02-.29,1.84-1.03,2.57-2.23,2.19-4.41,4.43-6.65,6.61-.56,.54-.54,.86-.04,1.44,2.46,2.81,5.11,5.41,8.03,7.74,7.98,6.37,17.02,10.4,27.06,12.25,1.08,.2,1.39-.06,1.37-1.19-.07-3.81-.05-7.63,0-11.44,0-.76-.16-1.35-.77-1.78-3.16-2.19-4.14-5.19-3.7-8.94,.26-2.24,.02-2.5-2.26-2.21-3.84,.48-6.66-.82-9.09-3.78-1.17-1.44-1.72-2.74-1.93-4.6-.47-4.23,.73-7.53,4.22-9.98,1.99-1.4,2.24-2.86,1.34-5.34-4.07-11.18,5.28-22.13,17.03-20.24,2.2,.35,4.17,1.27,6.22,2.48-.23-2,.45-3.79-1.32-5.39-3.43-3.09-3.33-3.21-3.14-8.15,.06-1.61,.87-2.43,2.52-2.43,4.18-.02,8.37-.02,12.55,0,1.79,0,2.57,.82,2.59,2.64,.02,2.9-.22,5.81,.06,8.68,.35,3.61-.63,6.4-3.55,8.62-1.38,1.04-2.35,2.69-4.71,1.96Zm39.98-33.72c-1.77,2.2-3.58,4.33-5.53,6.34-1.38,1.42-2.54,1.46-3.89,.05-3.54-3.69-6.83-7.59-9.47-11.98-2.24-3.72-4.23-7.55-4.03-12.09,.03-.6-.33-.77-.77-.97-8.54-3.66-17.46-5.25-26.74-4.78-.91,.05-1.24,.32-1.22,1.29,.06,4.04,.04,8.09,.01,12.14,0,.69,.15,1.2,.66,1.7,2.11,2.05,4.18,4.14,6.24,6.24,.45,.46,.92,.65,1.57,.64,2.9-.03,5.79,0,8.69-.03,.99-.01,1.76,.31,2.45,1.01,3.43,3.46,6.88,6.9,10.34,10.34,.66,.65,.97,1.39,.97,2.33-.02,4.14-.02,8.27,0,12.41,0,.88-.18,1.71-.9,2.2-3.23,2.18-4.1,5.26-3.52,8.92,.03,.18,.03,.37,0,.55-.11,.75,.2,1.28,.74,1.8,2.37,2.31,4.68,4.68,7.05,6.99,.74,.73,1.08,1.53,1.06,2.57-.04,2.8,.01,5.61-.03,8.41-.01,.8,.22,1.36,.79,1.92,3.02,2.96,5.98,5.98,9,8.94,.88,.86,1.31,1.78,1.28,3.04-.07,2.68-.02,5.37-.02,8.21,20.99-20.29,23.78-54.66,5.29-78.22ZM8.65,46.53c-.15,.34-.28,.59-.38,.84-3.47,9.2-4.6,18.67-3.37,28.43,1.19,9.47,4.5,18.12,9.82,26.03,.5,.74,.8,.92,1.5,.18,1.67-1.77,3.42-3.47,5.17-5.17,.51-.49,.81-.99,.67-1.69-.79-4.2,.79-7.41,4.19-9.81,2.08-1.47,2.79-3.42,2.48-5.92-.11-.92-.31-1.61-.98-2.27-3.02-2.96-5.99-5.97-9-8.95-.64-.64-1.12-1.31-1.11-2.27,.03-2.07-.02-4.14,.02-6.21,.03-1.54,.86-2.35,2.42-2.38,1.52-.03,3.03-.04,4.55,0,.65,.02,1.12-.17,1.57-.63,2.06-2.1,4.14-4.19,6.24-6.24,.51-.5,.68-1.01,.66-1.7-.04-2.07,.03-4.14-.03-6.21-.03-1.15,.37-2.01,1.18-2.8,2.34-2.28,4.62-4.61,6.95-6.9,.49-.48,.75-.96,.73-1.67-.07-2.02,.46-4.24-.24-6-.65-1.65-2.56-2.81-3.91-4.18-.26-.26-.53-.51-.78-.78-.23-.23-.46-.42-.82-.42-2.11,.01-4.23-.05-6.34,.04-.72,.03-1.45,.35-.86,1.43,2.46,4.51,2.44,9.11,.39,13.77-2.78,6.33-7.09,11.56-11.74,16.56-1.68,1.81-2.74,1.79-4.46-.07-1.52-1.64-3-3.32-4.55-5.04ZM59.59,119.76v4.97c0,3.2,0,3.15,3.19,3.25,1.11,.04,1.27-.36,1.24-1.32-.06-2.34,0-4.69-.03-7.03-.02-.99,.32-1.76,1.02-2.45,1.58-1.54,3.1-3.14,4.71-4.65,.7-.66,.95-1.34,.92-2.29-.07-2.07,0-4.14-.03-6.21,0-.83,.16-1.64,.85-2.09,3.47-2.25,4.05-5.57,3.57-9.32-.01-.09-.01-.19,0-.28,.11-.7-.17-1.2-.68-1.69-1.69-1.63-3.36-3.27-4.97-4.98-.73-.77-1.1-.9-1.77,.12-2.34,3.59-5.07,6.88-8.04,9.97-1.69,1.76-2.71,1.76-4.38,.03-3.03-3.15-5.8-6.53-8.21-10.18-.49-.75-.78-.83-1.4-.15-.99,1.09-2.07,2.09-3.11,3.13-.29,.29-.54,.56-.57,1.04-.16,2.56-.21,5.02,2.34,6.68,.64,.42,1.14,.77,1.94,.76,2.21-.05,4.41-.04,6.62,0,1.47,.02,2.29,.86,2.35,2.32,.04,.92,.12,1.86-.01,2.76-.53,3.5,.39,6.36,3.41,8.43,.81,.55,1.05,1.43,1.04,2.43-.04,2.25-.01,4.51-.01,6.76ZM103.07,4.38c-.93,0-2.43,.36-3.89,.98-4.44,1.91-8.54,7.84-5.32,14.85,2.09,4.55,5.07,8.5,8.29,12.28,1.55,1.82,1.59,1.83,3.13,0,3.49-4.15,6.89-8.39,8.76-13.58,2.56-7.12-2.75-14.54-10.98-14.54ZM14.82,17.62c-.96,0-2.5,.38-4,1.03-4.37,1.92-8.47,7.87-5.18,14.9,2.08,4.45,4.99,8.34,8.14,12.06,1.65,1.95,1.7,1.96,3.31,.05,3.46-4.12,6.82-8.33,8.68-13.46,2.57-7.12-2.71-14.55-10.95-14.57Zm53.61,54.76c-.27-4.26-2.33-7.76-6.59-9.65-4.26-1.88-8.34-1.24-11.79,1.87-3.4,3.06-4.61,6.96-3.09,11.37,2.03,5.9,6,10.57,9.99,15.21,.43,.49,.67,.23,.97-.11,3.47-3.99,6.77-8.11,9.05-12.93,.81-1.71,1.41-3.49,1.46-5.76Zm6.61-18.6c0-1.37-.05-2.75,.02-4.12,.04-.86-.17-1.2-1.11-1.16-2.2,.07-4.4,.01-6.6,.04-.37,0-.91-.26-1.08,.25-.17,.52-.07,1.04,.4,1.49,.97,.9,1.87,1.89,2.84,2.8,.79,.74,1.17,1.57,1.13,2.67-.06,1.6-.04,3.21,0,4.81,0,.4-.33,.99,.31,1.17,.54,.16,1-.07,1.48-.45,1.95-1.55,3.14-3.36,2.62-5.98-.1-.48-.01-1.01-.01-1.51Z"/><path class="cls-5" d="M71.25,66.01c2.36,.73,3.33-.92,4.71-1.96,2.92-2.22,3.91-5.01,3.55-8.62-.28-2.87-.05-5.79-.06-8.68-.01-1.82-.8-2.64-2.59-2.64-4.18-.02-8.37-.02-12.55,0-1.65,0-2.46,.82-2.52,2.43-.19,4.94-.3,5.06,3.14,8.15,1.77,1.59,1.08,3.39,1.32,5.39-2.06-1.21-4.03-2.13-6.22-2.48-11.75-1.89-21.1,9.06-17.03,20.24,.9,2.48,.65,3.94-1.34,5.34-3.49,2.45-4.69,5.75-4.22,9.98,.21,1.85,.75,3.16,1.93,4.6,2.43,2.97,5.25,4.27,9.09,3.78,2.28-.29,2.52-.03,2.26,2.21-.43,3.74,.55,6.75,3.7,8.94,.62,.43,.78,1.03,.77,1.78-.04,3.81-.06,7.63,0,11.44,.02,1.13-.29,1.39-1.37,1.19-10.04-1.85-19.08-5.87-27.06-12.25-2.92-2.33-5.57-4.93-8.03-7.74-.5-.57-.52-.89,.04-1.44,2.24-2.18,4.42-4.42,6.65-6.61,.74-.73,1.22-1.55,1.03-2.57-.69-3.78,.66-6.66,3.73-8.83,2.45-1.73,2.98-4.1,3.01-7.04,.03-3.1-.73-5.4-3.11-7.44-2.61-2.23-4.92-4.82-7.36-7.26-.54-.54-.97-3.24-.64-3.89,.09-.18,.23-.26,.42-.27,.18,0,.37-.04,.55,0,3.34,.66,5.64-.89,7.72-3.32,1.76-2.05,3.79-3.87,5.73-5.77,.7-.69,1.03-1.46,1.01-2.45-.04-2.11,.02-4.23-.03-6.34-.02-.75,.2-1.28,.74-1.81,2.37-2.31,4.68-4.68,7.05-6.99,.74-.72,1.09-1.52,1.07-2.57-.04-2.57-.04-5.15,0-7.72,.02-1.05-.35-1.84-1.08-2.56-1.94-1.89-3.85-3.82-5.75-5.75-.64-.65-1.35-1.09-2.58-1.1,3.97-2.1,7.89-3.53,11.95-4.6,1.64-.43,3.32-.71,4.97-1.1,.97-.22,1.35-.04,1.33,1.1-.07,4.27,0,8.55-.05,12.82,0,1.09,.33,1.93,1.11,2.69,2.66,2.61,5.29,5.24,7.9,7.9,.76,.78,1.6,1.13,2.69,1.11,2.85-.05,5.7,0,8.55-.03,.65,0,1.11,.18,1.57,.64,2.81,2.84,5.64,5.67,8.48,8.48,.47,.46,.63,.93,.62,1.58-.03,3.17-.03,6.34,0,9.51,0,.71-.17,1.26-.74,1.66-3.17,2.23-3.81,5.27-3.84,9.05-.03,3.88,.86,6.81,3.94,9.17,1.48,1.14,2.66,2.67,4.04,3.94,.73,.67,1.05,1.37,1.02,2.39-.08,2.71,0,5.42-.04,8.13-.02,1.1,.36,1.92,1.13,2.68,3.08,3.03,6.11,6.11,9.19,9.14,.54,.53,.75,1.06,.74,1.8-.03,3.4-.04,6.8,0,10.2,0,.73-.24,1.17-.8,1.6-9.04,7.03-19.25,11.12-30.61,12.38-1.71,.19-1.72,.17-1.71-1.55,.01-2.02-.48-4.25,.22-5.99,.69-1.69,2.53-2.99,4.04-4.25,1.87-1.55,2.74-3.37,2.36-5.77-.01-.09,.01-.19,0-.28-.61-3.59,.37-6.53,3.46-8.67,.76-.53,.98-1.38,.97-2.32-.03-2.57-.04-5.15,0-7.72,.02-1.09-.33-1.93-1.11-2.69-2.33-2.28-4.62-4.61-6.93-6.92-.37-.37-.86-.65-.51-1.37,2.17-4.52,2.65-9.12,.32-14.11Z"/><path class="cls-6" d="M111.23,32.29c18.49,23.56,15.7,57.92-5.29,78.22,0-2.84-.05-5.53,.02-8.21,.03-1.25-.39-2.18-1.28-3.04-3.02-2.96-5.98-5.98-9-8.94-.57-.56-.8-1.12-.79-1.92,.04-2.8,0-5.61,.03-8.41,.02-1.04-.32-1.85-1.06-2.57-2.36-2.32-4.68-4.68-7.05-6.99-.54-.52-.85-1.05-.74-1.8,.03-.18,.03-.37,0-.55-.57-3.67,.3-6.74,3.52-8.92,.72-.49,.91-1.32,.9-2.2-.02-4.14-.02-8.27,0-12.41,0-.94-.31-1.68-.97-2.33-3.46-3.44-6.9-6.88-10.34-10.34-.69-.7-1.46-1.02-2.45-1.01-2.9,.04-5.79,0-8.69,.03-.65,0-1.12-.18-1.57-.64-2.06-2.1-4.14-4.19-6.24-6.24-.51-.5-.66-1.02-.66-1.7,.03-4.04,.05-8.09-.01-12.14-.01-.97,.31-1.24,1.22-1.29,9.29-.47,18.2,1.12,26.74,4.78,.45,.19,.8,.36,.77,.97-.2,4.54,1.79,8.37,4.03,12.09,2.65,4.39,5.94,8.29,9.47,11.98,1.35,1.41,2.51,1.37,3.89-.05,1.95-2.01,3.76-4.15,5.53-6.34Z"/><path class="cls-6" d="M8.65,46.53c1.55,1.72,3.03,3.4,4.55,5.04,1.72,1.86,2.77,1.88,4.46,.07,4.65-5,8.95-10.23,11.74-16.56,2.05-4.67,2.06-9.26-.39-13.77-.59-1.08,.14-1.4,.86-1.43,2.11-.09,4.23-.03,6.34-.04,.37,0,.59,.19,.82,.42,.26,.26,.52,.52,.78,.78,1.35,1.37,3.26,2.53,3.91,4.18,.69,1.75,.17,3.98,.24,6,.02,.72-.24,1.19-.73,1.67-2.33,2.29-4.61,4.62-6.95,6.9-.81,.79-1.22,1.65-1.18,2.8,.06,2.07,0,4.14,.03,6.21,.01,.69-.15,1.2-.66,1.7-2.11,2.05-4.18,4.14-6.24,6.24-.46,.47-.93,.65-1.57,.63-1.52-.04-3.03-.04-4.55,0-1.56,.03-2.39,.84-2.42,2.38-.03,2.07,.01,4.14-.02,6.21-.01,.97,.46,1.63,1.11,2.27,3,2.98,5.97,5.99,9,8.95,.67,.66,.87,1.34,.98,2.27,.31,2.51-.41,4.45-2.48,5.92-3.4,2.41-4.97,5.61-4.19,9.81,.13,.7-.17,1.2-.67,1.69-1.75,1.69-3.5,3.39-5.17,5.17-.7,.74-1,.56-1.5-.18-5.32-7.91-8.63-16.56-9.82-26.03-1.23-9.76-.1-19.23,3.37-28.43,.1-.25,.22-.5,.38-.84Z"/><path class="cls-6" d="M59.59,119.76c0-2.25-.03-4.51,.01-6.76,.02-.99-.23-1.88-1.04-2.43-3.02-2.07-3.94-4.92-3.41-8.43,.14-.9,.05-1.84,.01-2.76-.06-1.46-.88-2.29-2.35-2.32-2.21-.04-4.41-.04-6.62,0-.8,.02-1.3-.34-1.94-.76-2.55-1.66-2.5-4.12-2.34-6.68,.03-.48,.28-.75,.57-1.04,1.04-1.04,2.12-2.05,3.11-3.13,.62-.68,.91-.6,1.4,.15,2.41,3.66,5.17,7.03,8.21,10.18,1.67,1.74,2.69,1.73,4.38-.03,2.97-3.09,5.7-6.38,8.04-9.97,.66-1.02,1.04-.9,1.77-.12,1.61,1.7,3.28,3.35,4.97,4.98,.5,.49,.79,.99,.68,1.69-.01,.09-.01,.18,0,.28,.48,3.75-.1,7.07-3.57,9.32-.69,.45-.86,1.25-.85,2.09,.02,2.07-.04,4.14,.03,6.21,.03,.95-.22,1.63-.92,2.29-1.61,1.51-3.13,3.11-4.71,4.65-.7,.68-1.04,1.45-1.02,2.45,.04,2.34-.03,4.69,.03,7.03,.03,.96-.13,1.36-1.24,1.32-3.19-.1-3.19-.05-3.19-3.25,0-1.66,0-3.31,0-4.97Z"/><path class="cls-3" d="M103.07,4.38c8.23,0,13.54,7.42,10.98,14.54-1.87,5.19-5.27,9.42-8.76,13.58-1.53,1.82-1.58,1.82-3.13,0-3.22-3.78-6.2-7.73-8.29-12.28-3.22-7.01,.88-12.94,5.32-14.85,1.45-.63,2.96-.97,3.89-.98Zm7.27,11.25c.09-3.68-2.83-6.77-6.47-6.83-3.61-.06-6.66,2.82-6.76,6.39-.1,3.67,2.81,6.75,6.47,6.83,3.59,.08,6.67-2.83,6.76-6.39Z"/><path class="cls-4" d="M14.82,17.62c8.24,.02,13.52,7.45,10.95,14.57-1.86,5.14-5.22,9.34-8.68,13.46-1.61,1.92-1.65,1.91-3.31-.05-3.15-3.72-6.05-7.6-8.14-12.06-3.29-7.03,.81-12.98,5.18-14.9,1.49-.65,3.03-1.03,4-1.03Zm7.25,11.09c0-3.68-2.98-6.68-6.63-6.67-3.6,0-6.57,2.96-6.6,6.56-.02,3.66,2.97,6.66,6.63,6.67,3.59,0,6.59-2.98,6.6-6.56Z"/><path class="cls-4" d="M68.43,72.38c-.05,2.27-.65,4.05-1.46,5.76-2.28,4.82-5.58,8.93-9.05,12.93-.3,.34-.55,.61-.97,.11-3.99-4.64-7.97-9.31-9.99-15.21-1.51-4.4-.3-8.31,3.09-11.37,3.45-3.11,7.53-3.75,11.79-1.87,4.27,1.88,6.32,5.39,6.59,9.65Zm-4.43,.4c-.02-3.67-3.03-6.64-6.7-6.61-3.6,.04-6.54,3.02-6.53,6.62,0,3.65,3.02,6.63,6.7,6.61,3.58-.02,6.55-3.04,6.53-6.62Z"/><path class="cls-6" d="M75.04,53.78c0,.5-.08,1.02,.01,1.51,.52,2.62-.67,4.43-2.62,5.98-.48,.38-.94,.61-1.48,.45-.64-.18-.3-.78-.31-1.17-.04-1.6-.06-3.21,0-4.81,.04-1.1-.34-1.93-1.13-2.67-.97-.9-1.86-1.9-2.84-2.8-.48-.44-.58-.96-.4-1.49,.17-.51,.71-.25,1.08-.25,2.2-.03,4.4,.04,6.6-.04,.94-.03,1.15,.3,1.11,1.16-.07,1.37-.02,2.75-.02,4.12Z"/><path class="cls-1" d="M110.34,15.63c-.09,3.57-3.17,6.48-6.76,6.39-3.65-.09-6.57-3.16-6.47-6.83,.1-3.57,3.15-6.46,6.76-6.39,3.63,.06,6.56,3.15,6.47,6.83Zm-4.41-.18c.03-1.19-.93-2.21-2.12-2.25-1.19-.04-2.22,.9-2.28,2.09-.06,1.24,.94,2.31,2.19,2.32,1.19,0,2.19-.96,2.21-2.16Z"/><path class="cls-1" d="M22.07,28.71c0,3.58-3.01,6.57-6.6,6.56-3.67,0-6.66-3.01-6.63-6.67,.02-3.6,2.99-6.55,6.6-6.56,3.66,0,6.64,2.99,6.63,6.67Zm-6.68,2.15c1.19,.04,2.21-.92,2.26-2.11,.05-1.19-.89-2.23-2.07-2.3-1.24-.08-2.32,.93-2.33,2.18-.01,1.19,.95,2.2,2.14,2.23Z"/><path class="cls-1" d="M64,72.78c.02,3.59-2.95,6.6-6.53,6.62-3.67,.02-6.69-2.96-6.7-6.61,0-3.61,2.94-6.59,6.53-6.62,3.66-.04,6.68,2.94,6.7,6.61Zm-6.55-2.2c-1.19-.04-2.22,.91-2.27,2.11-.06,1.24,.96,2.31,2.21,2.31,1.19,0,2.18-.98,2.2-2.17,.02-1.19-.95-2.2-2.14-2.24Z"/><path class="cls-4" d="M105.93,15.46c-.03,1.2-1.02,2.17-2.21,2.16-1.25,0-2.26-1.08-2.19-2.32,.06-1.19,1.09-2.14,2.28-2.09,1.19,.04,2.15,1.06,2.12,2.25Z"/><path class="cls-4" d="M15.39,30.86c-1.19-.04-2.16-1.04-2.14-2.23,.01-1.25,1.09-2.25,2.33-2.18,1.19,.07,2.13,1.12,2.07,2.3-.05,1.19-1.08,2.15-2.26,2.11Z"/><path class="cls-5" d="M57.45,70.58c1.19,.04,2.16,1.05,2.14,2.24-.02,1.2-1.01,2.17-2.2,2.17-1.25,0-2.26-1.06-2.21-2.31,.05-1.19,1.08-2.14,2.27-2.11Z"/></g></g></svg>