<?xml version="1.0" encoding="UTF-8"?><svg id="Layer_2" xmlns="http://www.w3.org/2000/svg" viewBox="0 0 118.65 116.79"><defs><style>.cls-1{fill:#020304;}.cls-2{fill:#fbfbfb;}.cls-3{fill:#b6e5f5;}.cls-4{fill:#aed7f7;}.cls-5{fill:#aed7f8;}.cls-6{fill:#add6f6;}.cls-7{fill:#d9e5f4;}.cls-8{fill:#dae7f5;}.cls-9{fill:#06ffd5;}.cls-10{fill:#05bfa0;}.cls-11{fill:#1a2959;}.cls-12{fill:#89acb8;}</style></defs><g id="Layer_1-2"><g><path class="cls-11" d="M118.65,62.6c-.43,.26-.32,.75-.41,1.13-1.77,7.73-8.48,13.15-16.42,13.24-.54,0-1.08,0-1.62,0-2.17,0-2.19,0-2.17,2.12,.03,2.34-.33,4.61-1.18,6.79-2.47,6.33-8.58,10.63-15.37,10.75-1.41,.02-2.38,.63-3.25,1.67-5.88,7.07-12.88,12.84-20.64,17.72-2.8,1.77-6.06,.34-6.51-2.81-.15-1.05,.26-1.97,.69-2.88,1.86-3.9,3.33-7.95,4.33-12.16,.29-1.22,.05-1.52-1.21-1.52-3.78,0-7.57-.02-11.35,0-1.18,0-1.91-.48-2.12-1.66,.27-1.4,.76-1.82,2.18-1.82,3.66,0,7.32,.05,10.97-.03,1.82-.04,3.32,.47,4.48,1.89,.21,.58,.48,1.14,.61,1.73,.31,1.42-.3,2.74-.65,4.06-1.04,3.87-2.46,7.61-4.2,11.22-.18,.38-.43,.79,0,1.15,.33,.29,.65,.05,.94-.14,3.51-2.23,6.93-4.59,10.05-7.35,3.7-2.94,6.98-6.3,10-9.93,1.42-1.71,3.19-2.58,5.43-2.63,7.46-.15,13.29-6.06,13.3-13.53,.03-14.32,0-28.64,.01-42.97,0-1.05-.13-2.08-.38-3.09-1.57-6.37-6.79-10.41-13.53-10.41-20.04-.01-40.07,0-60.11,0-.35,0-.69,.03-1.04,.05-.96-.01-1.93-.05-2.89-.04-7.1,.13-13.07,6.02-13.1,13.1-.06,14.58-.04,29.16,0,43.74,0,3.23,1.19,6.1,3.33,8.53,3.37,3.83,7.73,4.97,12.64,4.58,5.01,.01,10.03,.02,15.04,.04,1.55,0,1.94,.31,2.34,1.81-.29,1.27-1.11,1.69-2.38,1.68-5.83-.04-11.66,0-17.49-.02C7.54,96.62,.04,89.13,.02,79.66c-.03-14.32-.03-28.65,0-42.97,.02-9.44,7.41-16.86,16.86-16.99,.97-.01,1.93-.06,2.89,.01,.74,.05,.91-.21,.88-.91-.11-2.68,.11-5.31,1.09-7.85C24.27,4.39,30.41,.03,37.44,.02c21.47-.03,42.93-.03,64.4,0,8.22,.01,15.12,5.92,16.58,14.03,.04,.21-.07,.48,.24,.57v20.39c-.44,.62-.97,1.12-1.78,1.21-1.27-.27-1.72-1.07-1.71-2.35,.03-5.75,.06-11.5,0-17.25-.08-7.09-6.02-13.1-13.1-13.11-21.61-.05-43.23-.03-64.84,0-2.69,0-5.17,.85-7.35,2.43-4.23,3.06-5.94,7.31-5.78,12.44,.03,1.02,.22,1.34,1.31,1.34,17.79-.04,35.59,0,53.38-.05,3.6-.01,7.07,.33,10.34,1.95,.09,.07,.16,.16,.26,.22,5.89,3.58,8.7,8.82,8.67,15.7-.04,11.51-.01,23.02-.01,34.52,0,.27,.02,.54,0,.81-.03,.43,.13,.62,.59,.62,2.54-.03,5.1,.19,7.54-.8,5.23-1.72,8.97-6.87,9.01-12.48,.04-5.71,0-11.41,.01-17.12,0-1.5,.29-1.89,1.7-2.33,.83,.05,1.34,.58,1.78,1.21v20.62Z"/><path class="cls-2" d="M116.88,36.23c.81-.08,1.33-.59,1.78-1.21v6.95c-.44-.63-.94-1.16-1.78-1.21,0-1.51,0-3.02,0-4.54Z"/><path class="cls-9" d="M59.06,95.05c-1.16-1.41-2.65-1.92-4.48-1.89-3.66,.08-7.31,.02-10.97,.03-1.42,0-1.91,.42-2.18,1.82-1.52,0-3.04,0-4.56,0-.4-1.51-.79-1.81-2.34-1.82-5.01-.02-10.03-.03-15.04-.04-.28-.2-.56-.41-.84-.61-4.62-3.22-7.05-7.59-7.05-13.28,.02-14.24-.03-28.49,.03-42.73,.02-3.95,1.45-7.42,4.23-10.31,1.1-1.14,2.39-2.03,3.64-2.99,.35-.02,.69-.05,1.04-.05,20.04,0,40.07-.01,60.11,0,6.75,0,11.96,4.04,13.53,10.41,.25,1.01,.38,2.04,.38,3.09,0,14.32,.02,28.64-.01,42.97-.01,7.47-5.85,13.37-13.3,13.53-2.23,.05-4.01,.92-5.43,2.63-3.02,3.63-6.3,6.99-10,9.93-.37-.43,.01-.81,.14-1.17,.73-2.07,1.3-4.19,1.85-6.31,.44-1.73-.7-3.2-2.47-3.21-2.09-.02-4.17,0-6.26,0Zm-13.16-35.56c.03-3.75-2.95-6.81-6.67-6.86-3.79-.04-6.87,2.98-6.88,6.76-.02,3.72,2.99,6.76,6.73,6.81,3.7,.05,6.79-2.99,6.82-6.71Zm-29.87-.11c-.01,3.7,3.02,6.77,6.74,6.82,3.73,.05,6.88-3.08,6.86-6.82-.02-3.71-3.08-6.75-6.8-6.75-3.71,0-6.78,3.05-6.8,6.75Zm46.16-.02c-.02-3.74-3.04-6.74-6.78-6.73-3.72,0-6.75,3.04-6.75,6.77,0,3.74,3,6.77,6.73,6.8,3.76,.03,6.83-3.05,6.81-6.84Zm9.48-6.73c-3.7,.02-6.76,3.11-6.74,6.81,.02,3.7,3.1,6.77,6.8,6.77,3.75,0,6.86-3.15,6.8-6.88-.06-3.72-3.13-6.71-6.86-6.69Z"/><path class="cls-3" d="M116.88,36.23c0,1.51,0,3.02,0,4.54-1.41,.44-1.7,.83-1.7,2.33,0,5.71,.03,11.41-.01,17.12-.04,5.62-3.78,10.76-9.01,12.48,0-11.77,0-23.53-.02-35.3,0-1.04-.04-2.06-.2-3.1-.65-4.24-2.89-7.49-6.23-10.02-3.14-2.38-6.76-3-10.6-2.66-3.26-1.62-6.73-1.96-10.34-1.95-17.79,.06-35.59,.02-53.38,.05-1.09,0-1.28-.33-1.31-1.34-.16-5.14,1.55-9.38,5.78-12.44,2.18-1.58,4.65-2.43,7.35-2.43,21.61-.02,43.23-.04,64.84,0,7.09,.02,13.03,6.02,13.1,13.11,.06,5.75,.03,11.5,0,17.25,0,1.27,.44,2.08,1.71,2.35Z"/><path class="cls-10" d="M19.5,23.23c-1.25,.95-2.54,1.84-3.64,2.99-2.79,2.89-4.22,6.36-4.23,10.31-.06,14.24-.01,28.49-.03,42.73,0,5.7,2.43,10.06,7.05,13.28,.28,.2,.56,.4,.84,.61-4.91,.4-9.26-.75-12.64-4.58-2.15-2.43-3.32-5.3-3.33-8.53-.04-14.58-.06-29.16,0-43.74,.03-7.08,6-12.97,13.1-13.1,.96-.02,1.93,.02,2.89,.04Z"/><path class="cls-12" d="M89.11,21.62c3.84-.34,7.46,.28,10.6,2.66,3.34,2.53,5.58,5.78,6.23,10.02,.16,1.04,.19,2.06,.2,3.1,0,11.77,.01,23.53,.02,35.3-2.44,1-5,.78-7.54,.8-.46,0-.62-.19-.59-.62,.02-.27,0-.54,0-.81,0-11.51-.03-23.02,.01-34.52,.03-6.88-2.78-12.12-8.67-15.7-.1-.06-.17-.15-.26-.22Z"/><path class="cls-10" d="M59.06,95.05c2.09,0,4.17-.03,6.26,0,1.78,.01,2.91,1.48,2.47,3.21-.54,2.12-1.12,4.24-1.85,6.31-.12,.36-.51,.73-.14,1.17-3.12,2.76-6.54,5.11-10.05,7.35-.29,.19-.61,.42-.94,.14-.42-.36-.18-.77,0-1.15,1.74-3.61,3.16-7.35,4.2-11.22,.36-1.32,.96-2.64,.65-4.06-.13-.59-.4-1.15-.61-1.73Z"/><path class="cls-1" d="M45.9,59.49c-.03,3.72-3.12,6.76-6.82,6.71-3.74-.05-6.75-3.09-6.73-6.81,.02-3.78,3.09-6.8,6.88-6.76,3.71,.04,6.69,3.11,6.67,6.86Zm-5.8-3.14c-1.38-.46-2.69-.08-3.57,1.04-.84,1.07-.92,2.61-.2,3.77,.8,1.29,2.08,1.74,3.8,1.36,1.56-.64,2.33-1.73,2.28-3.23-.05-1.41-.89-2.47-2.31-2.93Z"/><path class="cls-1" d="M16.03,59.38c.01-3.7,3.08-6.75,6.8-6.75,3.72,0,6.78,3.04,6.8,6.75,.02,3.74-3.13,6.87-6.86,6.82-3.72-.05-6.75-3.12-6.74-6.82Zm7.85-3.03c-1.4-.47-2.72-.12-3.61,.98-.89,1.09-1,2.57-.28,3.77,.76,1.27,2.04,1.77,3.67,1.45,1.54-.5,2.45-1.62,2.48-3.08,.03-1.4-.81-2.56-2.27-3.11Z"/><path class="cls-1" d="M62.19,59.36c.02,3.78-3.04,6.86-6.81,6.84-3.73-.03-6.72-3.06-6.73-6.8,0-3.73,3.02-6.76,6.75-6.77,3.74,0,6.76,2.99,6.78,6.73Zm-5.86,3.17c1.59-.57,2.37-1.61,2.37-3.12,0-1.48-.79-2.55-2.27-3.06-1.39-.48-2.69-.11-3.59,1.02-.86,1.08-.95,2.59-.22,3.78,.77,1.25,2.05,1.73,3.71,1.39Z"/><path class="cls-1" d="M71.67,52.63c3.73-.02,6.8,2.97,6.86,6.69,.06,3.73-3.05,6.88-6.8,6.88-3.7,0-6.78-3.06-6.8-6.77-.02-3.7,3.04-6.78,6.74-6.81Zm1.11,3.72c-1.39-.47-2.72-.12-3.61,.97-.88,1.09-.99,2.57-.28,3.77,.76,1.27,2.03,1.78,3.67,1.45,1.54-.5,2.45-1.62,2.48-3.08,.03-1.41-.81-2.57-2.27-3.11Z"/><path class="cls-5" d="M40.14,62.51c-1.72,.39-3-.07-3.8-1.36-.72-1.16-.64-2.7,.2-3.77,.88-1.12,2.19-1.5,3.57-1.04-1.25,2.06-1.3,4.12,.04,6.17Z"/><path class="cls-8" d="M40.14,62.51c-1.34-2.05-1.29-4.1-.04-6.17,1.42,.46,2.26,1.52,2.31,2.93,.05,1.51-.71,2.6-2.28,3.23Z"/><path class="cls-6" d="M23.67,62.55c-1.63,.32-2.91-.18-3.67-1.45-.72-1.2-.61-2.67,.28-3.77,.89-1.09,2.21-1.45,3.61-.98-.8,1.06-.96,2.27-.97,3.57,0,.99,.71,1.69,.76,2.62Z"/><path class="cls-7" d="M23.67,62.55c-.04-.93-.76-1.63-.76-2.62,.01-1.31,.17-2.51,.97-3.57,1.45,.55,2.3,1.71,2.27,3.11-.03,1.46-.94,2.58-2.48,3.08Z"/><path class="cls-4" d="M56.34,62.53c-1.65,.34-2.93-.14-3.71-1.39-.73-1.19-.65-2.7,.22-3.78,.9-1.13,2.2-1.49,3.59-1.02-1.36,2.04-1.26,4.1-.1,6.18Z"/><path class="cls-8" d="M56.34,62.53c-1.15-2.08-1.26-4.14,.1-6.18,1.47,.51,2.27,1.58,2.27,3.06,0,1.52-.78,2.55-2.37,3.12Z"/><path class="cls-6" d="M72.56,62.55c-1.63,.32-2.91-.18-3.67-1.45-.72-1.2-.61-2.68,.28-3.77,.89-1.09,2.21-1.45,3.61-.97-.83,1.1-.97,2.35-.96,3.69,0,.95,.73,1.61,.75,2.5Z"/><path class="cls-7" d="M72.56,62.55c-.02-.9-.74-1.56-.75-2.5,0-1.34,.13-2.59,.96-3.69,1.45,.54,2.3,1.71,2.27,3.11-.03,1.46-.94,2.58-2.48,3.08Z"/></g></g></svg>