<?xml version="1.0" encoding="UTF-8"?><svg id="Layer_2" xmlns="http://www.w3.org/2000/svg" viewBox="0 0 75.06 110.05"><defs><style>.cls-1{fill:#e9f6f6;}.cls-2{fill:#80a6a6;}.cls-3{fill:#b6e5f5;}.cls-4{fill:#add;}.cls-5{fill:#06ffd5;}.cls-6{fill:#1a2959;}.cls-7{fill:#89acb8;}</style></defs><g id="Layer_1-2"><g><path class="cls-6" d="M72.35,98.14c1.38-.25,2.05,.16,2.33,1.5,.61,2.94,.31,5.92,.3,8.89,0,.95-.66,1.5-1.63,1.5-6.37,.01-12.75,.02-19.12,0-.99,0-1.58-.62-1.66-1.61-.04-.46,0-.93-.01-1.4-.02-1.77-.93-2.7-2.72-2.72-1.97-.02-3.94,0-5.91,0-5.98,0-11.96,0-17.94,0-2.36,0-3.14,.78-3.15,3.15,0,2.22-.38,2.59-2.64,2.59-5.84,0-11.67,0-17.51,0-1.85,0-2.36-.48-2.32-2.37,.06-2.64-.28-5.3,.34-7.92,1.36-5.77,6.19-9.69,12.1-9.87,.95-.03,1.91,0,3.15,0-1.01-1-1.84-1.82-2.66-2.64-1.92-1.93-3.88-3.82-5.76-5.79C-1.65,71.87-2.54,56.73,5.42,46.1c.64-.86,1.34-1.25,2.38-.93,1.12,1.05,1.15,1.6,.17,2.94-6.76,9.22-6.34,21.73,1.22,30.31,2.93,3.32,6.19,6.35,9.36,9.46,1,.98,2.23,1.66,3.69,1.77,1.08,.38,2.19,.32,3.27,.07,3.03-.68,5.12-2.51,6.05-5.47,.94-3,.32-5.76-1.86-8.04-2.42-2.54-4.94-4.97-7.42-7.46-3.85-3.86-3.87-8.54-.03-12.38,5.41-5.42,10.83-10.83,16.24-16.25,.4-.4,.81-.81,1.17-1.26,2.14-2.62,2.41-6.32,.69-9.23-1.74-2.94-5.01-4.42-8.42-3.79-1.86,.24-3.31,1.22-4.6,2.51-4.8,4.81-9.6,9.61-14.41,14.41-1,1-1.54,1.04-2.71,.24-.59-.94-.38-1.72,.39-2.48,4.93-4.9,9.83-9.82,14.75-14.74,.71-.71,1.49-1.36,2.38-1.81,.5-.25,.54-.51,.36-1.01-.42-1.18-.76-2.38-1.12-3.58-.48-1.56-.15-2.12,1.37-2.67,.39-.14,1.13,.07,1.11-.68-.03-1.09-.75-2.15-1.44-2.28-2.17-.39-3.86-2.17-4.06-4.28-.23-2.35,.95-4.45,3.14-5.18,4.34-1.44,8.7-2.8,13.08-4.11,2.12-.63,4.33,.34,5.46,2.21,1.14,1.9,.87,4.3-.67,5.95-.51,.55-.44,2.51,.11,2.97,.21,.17,.4,.02,.59-.03,.48-.13,.96-.33,1.45-.37,1.04-.09,1.52,.56,1.8,1.47,1.67,5.35,3.35,10.7,5.03,16.05,2.34,7.46,4.68,14.92,7.02,22.38,.56,1.78,.24,2.36-1.56,2.92-1.12,.35-2.23,.75-3.37,1.05-.6,.15-.61,.42-.45,.91,.55,1.7,1.1,3.4,1.62,5.1,.43,1.39,.06,2.11-1.3,2.55-1.87,.6-3.74,1.19-5.62,1.76-1.3,.4-2.03,0-2.45-1.31-.53-1.67-1.07-3.33-1.55-5.01-.18-.63-.39-.87-1.1-.6-1.16,.45-2.38,.77-3.57,1.13-1.38,.42-2.08,.06-2.52-1.34-1.03-3.27-2.05-6.54-3.08-9.81-.06-.2-.15-.4-.23-.61-.4,.1-.58,.43-.82,.67-3.5,3.49-7,6.98-10.49,10.48-2.47,2.48-2.46,5.2,.03,7.7,1.9,1.9,3.82,3.78,5.68,5.71,.57,.6,1.16,.87,1.97,.78,.28-.03,.57,0,.86,0,.68,0,1.44,.18,2.02-.06,.7-.29,.28-1.18,.47-1.79,.67-2.17,2.4-3.64,4.75-3.65,5.73-.05,11.46-.05,17.19,0,2.67,.03,4.62,1.88,4.83,4.52,.07,.88,.39,1,1.15,1,3.03-.03,4.85,1.18,5.53,3.58,.81,2.85-1.16,5.81-4.11,6.08-1.24,.12-2.51,.09-3.76,.05-.65-.02-.86,.15-.84,.83,.05,1.86,.06,3.73,0,5.59-.02,.74,.24,.89,.91,.86,3.32-.13,6.39,.61,9.04,2.71,1.18,.93,1.28,1.41,.59,2.75-.79,.55-1.57,.64-2.35-.02-1.99-1.67-4.32-2.23-6.88-2.23-15.53,.02-31.07,0-46.6,.01-.43,0-.86,.04-1.28,.06-4.38-.37-8.53,2.56-9.7,6.85-.57,2.08-.3,4.2-.37,6.3-.02,.58,.36,.51,.72,.5,1.47-.01,2.94-.02,4.4-.04,3.4,.01,6.8,.02,10.2,.03,.35,0,.64,.07,.74-.49,.66-3.67,2.6-5.26,6.35-5.26,7.77,0,15.54,.02,23.31-.02,1.87,0,3.52,.44,4.93,1.7,.81,1.05,1.5,2.17,1.52,3.55,.01,.55,.32,.53,.69,.52,1.49-.02,2.99-.02,4.48-.04,3.39,.01,6.77,.02,10.16,.03,.35,0,.72,.08,.7-.5-.08-1.99,.19-4-.28-5.97-.22-.94-.02-1.69,.83-2.21Zm-20.24-37.09q1.65-.29,1.18-1.84c-.19-.61-.36-1.23-.56-1.83-.57-1.7-.36-1.39-1.95-.89-.21,.05-.41,.12-.62,.15-.96,.14-1.12,.62-.73,1.48,.29,.65,.42,1.36,.64,2.04q.5,1.53,2.05,.89ZM34.93,14.59c2.17-.66,4.34-1.32,6.52-1.96,.44-.13,.55-.34,.37-.76-.13-.29-.21-.6-.28-.92-.13-.62-.4-.78-1.04-.57-2.02,.69-4.05,1.31-6.08,1.96-.37,.11-.75,.21-1.12,.33-1.4,.42-1.36,.41-.98,1.78,.2,.74,.48,1.02,1.23,.64,.43-.22,.92-.34,1.38-.5Zm3.39,8.87c.09,.05,.17,.11,.26,.16,2.81,1.62,4.82,3.9,5.7,7.06,.81,2.88,.41,5.66-.81,8.35-1.19,2.04-2.94,3.59-4.57,5.24-.29,.29-.6,.51-.41,1.08,1.07,3.3,2.09,6.61,3.11,9.92,.15,.49,.37,.57,.85,.41,1.86-.62,3.74-1.21,5.61-1.8,2.9-.9,5.78-1.83,8.69-2.68,.75-.22,.81-.49,.59-1.2-2.3-7.24-4.57-14.5-6.84-21.76-1.35-4.29-2.68-8.58-4.03-12.87-.13-.42-.14-.93-.89-.68-2.97,.99-5.96,1.94-8.95,2.9-1.29,.38-2.59,.74-3.88,1.14q-2.52,.78-1.58,3.27s.04,.06,.04,.1c.06,.39,.27,.54,.67,.47,2.25-.39,4.37,.16,6.46,.92h-.01Zm5.64,49.38c4.68,.01,9.35,.03,14.03,.02,.35,0,.86,.23,1.03-.26,.16-.44,.02-.92-.27-1.32-.37-.51-.91-.71-1.49-.71-4.28,0-8.57,.03-12.85,.05-1.39-.21-2.78-.12-4.17-.07-.9,.03-1.52,.59-1.67,1.53-.08,.5,.04,.81,.66,.79,1.57-.04,3.14-.04,4.71-.05ZM31.24,6.42c-.99,.29-2,.54-2.97,.9-.94,.35-1.31,1.18-1.03,2.06,.27,.84,1.12,1.36,2.05,1.12,.96-.25,1.89-.62,2.84-.94,2.23-.5,4.37-1.34,6.56-1.98,1.06-.31,2.13-.62,3.17-.99,.97-.35,1.43-1.24,1.18-2.12-.26-.89-1.17-1.44-2.11-1.15-3.23,1-6.45,2.06-9.68,3.09Zm5.85,69.74c-.36-.02-.71-.05-1.07-.05-.71,.01-1.69-.22-2.05,.15-.38,.39,.49,1.14,.56,1.81,.13,1.19,.83,1.52,1.9,1.34,.21-.04,.42-.05,.64-.07,.21,.02,.43,.06,.64,.06,8.7,0,17.4,0,26.1,0,.25,0,.5,0,.75-.05,.92-.17,1.5-.99,1.3-1.89-.23-1.01-.95-1.34-1.92-1.34-3.62,0-7.23,0-10.85,0-5.33,0-10.67,.03-16,.04Zm1.28,13.66c5.98,.01,11.96,.02,17.93,.05,.57,0,.74-.22,.73-.76-.02-1.86-.02-3.72,0-5.59,0-.57-.13-.84-.77-.84-5.73-.02-11.45-.06-17.18-.08-.24,0-.49,.09-.73,.14-.82,0-1.64-.02-2.46-.02-.31,0-.68-.07-.75,.39-.36,2.52-1.36,4.74-3.24,6.71,2.29,0,4.38,0,6.47,0Z"/><path class="cls-1" d="M72.35,98.14c-.86,.52-1.05,1.27-.83,2.21,.47,1.97,.2,3.98,.28,5.97,.02,.58-.35,.5-.7,.5-3.39-.01-6.77-.02-10.16-.03-.1-2.48-1.68-4.04-4.13-4.05-.85,0-1.71,0-2.56,.01-1.41-1.26-3.05-1.71-4.93-1.7-7.77,.04-15.54,.02-23.31,.02-3.75,0-5.7,1.59-6.35,5.26-.1,.56-.4,.49-.74,.49-3.4,0-6.8-.02-10.2-.03,0-1.21,0-2.42,0-3.63,0-3.39,1.09-6.32,3.6-8.69,.45-.43,1.11-.66,1.36-1.3,.43-.02,.86-.06,1.28-.06,15.53,0,31.07,0,46.6-.01,2.55,0,4.89,.56,6.88,2.23,.78,.66,1.56,.57,2.35,.02,.58,.9,1.4,1.67,1.57,2.8Z"/><path class="cls-1" d="M10.2,43c1.16,.8,1.71,.77,2.71-.24,4.81-4.8,9.61-9.6,14.41-14.41,1.29-1.29,2.74-2.27,4.6-2.51-.05,.48-.46,.71-.76,1-5.84,5.85-11.72,11.67-17.53,17.56-5.67,5.76-8.09,12.71-7.31,20.76,.59,6.14,3.1,11.36,7.47,15.7,2.59,2.57,5.17,5.16,7.74,7.75,.29,.29,.71,.52,.7,1.03-1.46-.11-2.69-.79-3.69-1.77-3.17-3.11-6.44-6.13-9.36-9.46-7.56-8.58-7.98-21.08-1.22-30.31,.98-1.34,.95-1.89-.17-2.94,1.1-.39,1.67-1.37,2.41-2.17Z"/><path class="cls-1" d="M22.24,89.64c0-.51-.41-.73-.7-1.03-2.58-2.59-5.15-5.17-7.74-7.75-4.37-4.34-6.88-9.56-7.47-15.7-.77-8.05,1.64-15,7.31-20.76,5.8-5.89,11.69-11.7,17.53-17.56,.29-.3,.7-.52,.76-1,3.41-.63,6.68,.84,8.42,3.79,1.72,2.91,1.45,6.61-.69,9.23-.36,.44-.76,.85-1.17,1.26-5.41,5.42-10.83,10.83-16.24,16.25-3.83,3.84-3.82,8.52,.03,12.38,2.48,2.48,5,4.92,7.42,7.46,2.18,2.28,2.8,5.04,1.86,8.04-.93,2.96-3.02,4.79-6.05,5.47-1.08,.24-2.19,.31-3.27-.07Zm-5.1-27.89c.07-2.93-2.2-5.31-5.11-5.34-2.79-.04-5.15,2.23-5.24,5.03-.09,2.87,2.25,5.31,5.14,5.35,2.79,.04,5.14-2.24,5.21-5.04Zm6.69,15.16c-2.87,.02-5.17,2.36-5.14,5.21,.04,2.86,2.38,5.16,5.24,5.13,2.83-.02,5.19-2.41,5.15-5.23-.04-2.86-2.38-5.13-5.25-5.11Zm14.83-43.07c0-2.86-2.32-5.2-5.16-5.21-2.83,0-5.19,2.36-5.2,5.19,0,2.83,2.35,5.19,5.19,5.2,2.86,0,5.18-2.31,5.18-5.18Z"/><path class="cls-5" d="M43.47,39.03c1.21-2.69,1.61-5.47,.81-8.35-.89-3.16-2.9-5.44-5.7-7.06-.09-.05-.17-.11-.26-.16,0,0,.01,.01,.01,.01-.26-2.05-1.04-3.96-1.71-5.89,2.98-.96,5.97-1.91,8.95-2.9,.74-.25,.76,.27,.89,.68,1.35,4.29,2.69,8.58,4.03,12.87,2.27,7.25,4.54,14.51,6.84,21.76,.22,.7,.16,.98-.59,1.2-2.91,.86-5.8,1.78-8.69,2.68-.09-.34-.17-.69-.27-1.03-1.43-4.61-2.87-9.21-4.31-13.82Z"/><path class="cls-4" d="M38.36,82.74c.24-.05,.49-.14,.73-.14,5.73,.02,11.45,.07,17.18,.08,.64,0,.78,.28,.77,.84-.02,1.86-.02,3.72,0,5.59,0,.54-.16,.77-.73,.76-5.98-.03-11.96-.04-17.93-.05,0-2.36-.01-4.72-.02-7.08Z"/><path class="cls-5" d="M37.09,76.16c5.33-.01,10.67-.03,16-.04,3.62,0,7.23,0,10.85,0,.96,0,1.69,.34,1.92,1.34,.2,.9-.38,1.73-1.3,1.89-.24,.04-.5,.05-.75,.05-8.7,0-17.4,0-26.1,0-.21,0-.43-.04-.64-.06-.29-1.06-.38-2.12,.02-3.18Z"/><path class="cls-5" d="M43.47,39.03c1.44,4.61,2.87,9.21,4.31,13.82,.11,.34,.18,.68,.27,1.03-1.87,.6-3.75,1.18-5.61,1.8-.48,.16-.69,.08-.85-.41-1.02-3.31-2.04-6.63-3.11-9.92-.19-.57,.12-.79,.41-1.08,1.63-1.65,3.38-3.2,4.57-5.24Z"/><path class="cls-1" d="M13.66,93.17c-.25,.64-.9,.87-1.36,1.3-2.52,2.36-3.6,5.3-3.6,8.69,0,1.21,0,2.42,0,3.63-1.47,.01-2.94,.03-4.4,.04-.35,0-.74,.07-.72-.5,.07-2.1-.2-4.23,.37-6.3,1.17-4.28,5.32-7.22,9.7-6.85Z"/><path class="cls-4" d="M31.24,6.42c3.22-1.03,6.44-2.09,9.68-3.09,.94-.29,1.86,.26,2.11,1.15,.25,.88-.2,1.77-1.18,2.12-1.04,.37-2.11,.68-3.17,.99-2.19,.64-4.32,1.47-6.56,1.98-.79-.91-.95-2-.89-3.15Z"/><path class="cls-3" d="M44.41,70.65c4.28-.02,8.57-.05,12.85-.05,.58,0,1.13,.19,1.49,.71,.28,.4,.43,.87,.27,1.32-.18,.49-.68,.26-1.03,.26-4.68,0-9.35-.01-14.03-.02-.09-.79,.09-1.51,.46-2.21Z"/><path class="cls-2" d="M38.36,82.74c0,2.36,.01,4.72,.02,7.08-2.09,0-4.17,0-6.47,0,1.88-1.97,2.88-4.19,3.24-6.71,.07-.46,.44-.39,.75-.39,.82,0,1.64,.01,2.46,.02Z"/><path class="cls-5" d="M36.62,17.58c.66,1.94,1.45,3.84,1.71,5.89-2.09-.76-4.21-1.31-6.46-.92-.39,.07-.61-.08-.67-.47,0-.03-.03-.07-.04-.1q-.93-2.48,1.58-3.27c1.29-.4,2.59-.76,3.88-1.14Z"/><path class="cls-1" d="M54.24,102.75c.85,0,1.71-.02,2.56-.01,2.45,.01,4.04,1.57,4.13,4.05-1.49,.01-2.99,.02-4.48,.04-.37,0-.68,.03-.69-.52-.03-1.38-.71-2.5-1.52-3.55Z"/><path class="cls-1" d="M34.42,12.35c2.03-.65,4.06-1.28,6.08-1.96,.64-.22,.91-.05,1.04,.57,.06,.31,.15,.63,.28,.92,.18,.42,.08,.63-.37,.76-2.18,.64-4.35,1.3-6.52,1.96,.06-.8-.43-1.47-.51-2.24Z"/><path class="cls-2" d="M31.24,6.42c-.07,1.15,.1,2.24,.89,3.15-.94,.32-1.88,.69-2.84,.94-.93,.24-1.78-.28-2.05-1.12-.28-.88,.09-1.72,1.03-2.06,.97-.36,1.98-.6,2.97-.9Z"/><path class="cls-7" d="M44.41,70.65c-.36,.69-.55,1.42-.46,2.21-1.57,.01-3.14,0-4.71,.05-.62,.02-.74-.28-.66-.79,.15-.95,.76-1.5,1.67-1.53,1.39-.05,2.78-.14,4.17,.07Z"/><path class="cls-5" d="M37.09,76.16c-.4,1.06-.31,2.12-.02,3.18-.21,.02-.43,.03-.64,.07-1.08,.18-1.78-.14-1.9-1.34-.07-.67-.94-1.42-.56-1.81,.36-.37,1.34-.13,2.05-.15,.36,0,.71,.03,1.07,.05Z"/><path class="cls-2" d="M52.11,61.05q-1.55,.64-2.05-.89c-.22-.68-.35-1.4-.64-2.04-.39-.86-.23-1.34,.73-1.48,.21-.03,.42-.1,.62-.15,.26,1.58,.94,3.03,1.33,4.57Z"/><path class="cls-4" d="M52.11,61.05c-.39-1.54-1.07-2.99-1.33-4.57,1.59-.5,1.38-.81,1.95,.89,.2,.61,.37,1.22,.56,1.83q.47,1.55-1.18,1.84Z"/><path class="cls-1" d="M34.42,12.35c.07,.77,.57,1.44,.51,2.24-.46,.16-.95,.28-1.38,.5-.75,.38-1.03,.1-1.23-.64-.37-1.36-.41-1.35,.98-1.78,.37-.11,.74-.22,1.12-.33Z"/><path class="cls-5" d="M38.32,23.46c.09,.05,.17,.11,.26,.16-.09-.05-.17-.11-.26-.16Z"/><path class="cls-6" d="M17.14,61.75c-.07,2.8-2.43,5.08-5.21,5.04-2.89-.04-5.23-2.48-5.14-5.35,.09-2.8,2.44-5.06,5.24-5.03,2.91,.04,5.19,2.41,5.11,5.34Zm-5.15,1.81c1.07,0,1.94-.91,1.93-2-.02-1.1-.9-1.95-2-1.91-1.03,.03-1.89,.91-1.9,1.93,0,1.05,.92,1.99,1.97,1.98Z"/><path class="cls-6" d="M23.82,76.91c2.87-.02,5.21,2.26,5.25,5.11,.04,2.82-2.31,5.21-5.15,5.23-2.85,.02-5.2-2.27-5.24-5.13-.04-2.85,2.27-5.19,5.14-5.21Zm2.01,5.27c.07-1.02-.75-1.95-1.78-2.03-1.12-.09-2.03,.67-2.12,1.77-.09,1.08,.73,2.03,1.81,2.11,1.06,.07,2.02-.78,2.09-1.85Z"/><path class="cls-6" d="M38.65,33.84c0,2.87-2.32,5.19-5.18,5.18-2.84,0-5.19-2.37-5.19-5.2,0-2.83,2.37-5.19,5.2-5.19,2.84,0,5.16,2.34,5.16,5.21Zm-5.13,1.94c1.1-.02,1.93-.9,1.89-2.01-.03-1.04-.89-1.89-1.92-1.9-1.04,0-1.98,.94-1.98,1.98,0,1.06,.94,1.95,2.01,1.93Z"/><path class="cls-5" d="M11.98,63.56c-1.05,0-1.98-.93-1.97-1.98,0-1.02,.87-1.9,1.9-1.93,1.1-.03,1.98,.81,2,1.91,.02,1.09-.85,2-1.93,2Z"/><path class="cls-5" d="M25.83,82.18c-.07,1.07-1.03,1.92-2.09,1.85-1.08-.08-1.9-1.03-1.81-2.11,.09-1.1,1-1.86,2.12-1.77,1.03,.08,1.84,1.01,1.78,2.03Z"/><path class="cls-5" d="M33.52,35.78c-1.07,.02-2-.87-2.01-1.93,0-1.04,.93-1.99,1.98-1.98,1.03,0,1.89,.86,1.92,1.9,.03,1.12-.79,1.99-1.89,2.01Z"/></g></g></svg>