<?xml version="1.0" encoding="UTF-8"?><svg id="Layer_2" xmlns="http://www.w3.org/2000/svg" viewBox="0 0 165.51 165.51"><defs><style>.cls-1{fill:#e9f6f6;}.cls-2{fill:#fff;}.cls-3{fill:#80a6a6;}.cls-4{fill:#b6e5f5;}.cls-5{fill:#add;}.cls-6{fill:#06ffd5;}.cls-7{fill:#1a2959;}.cls-8{fill:#89acb8;}</style></defs><g id="Layer_1-2"><g><rect class="cls-2" y="0" width="165.51" height="165.51"/><g><path class="cls-7" d="M127.65,131.32c1.76-.31,2.62,.21,2.97,1.92,.78,3.76,.4,7.57,.39,11.36,0,1.22-.85,1.92-2.08,1.92-8.15,.02-16.3,.02-24.45,0-1.27,0-2.02-.8-2.12-2.06-.05-.59,0-1.19-.01-1.79-.03-2.27-1.19-3.45-3.48-3.48-2.52-.03-5.04,0-7.55,0-7.65,0-15.29,0-22.94,0-3.02,0-4.02,1-4.03,4.03,0,2.84-.49,3.32-3.38,3.32-7.46,0-14.93,0-22.39,0-2.37,0-3.02-.62-2.96-3.03,.07-3.38-.36-6.78,.43-10.13,1.74-7.37,7.91-12.4,15.47-12.62,1.22-.04,2.44,0,4.02,0-1.3-1.28-2.36-2.32-3.4-3.37-2.46-2.46-4.96-4.89-7.36-7.4-11.76-12.27-12.89-31.63-2.72-45.22,.82-1.09,1.71-1.6,3.04-1.18,1.43,1.34,1.47,2.05,.22,3.76-8.64,11.79-8.1,27.78,1.56,38.75,3.74,4.25,7.92,8.12,11.97,12.09,1.28,1.25,2.85,2.12,4.72,2.26,1.38,.49,2.8,.4,4.19,.09,3.88-.87,6.55-3.21,7.74-7,1.2-3.84,.4-7.37-2.38-10.28-3.1-3.24-6.32-6.36-9.49-9.54-4.92-4.94-4.94-10.92-.04-15.83,6.92-6.93,13.85-13.85,20.77-20.77,.52-.52,1.03-1.04,1.49-1.61,2.73-3.35,3.08-8.08,.88-11.8-2.22-3.77-6.41-5.65-10.77-4.84-2.38,.31-4.23,1.56-5.88,3.21-6.14,6.15-12.28,12.29-18.43,18.43-1.28,1.28-1.98,1.32-3.46,.3-.75-1.2-.48-2.19,.5-3.17,6.3-6.27,12.57-12.56,18.86-18.84,.91-.91,1.9-1.73,3.05-2.32,.63-.33,.69-.65,.46-1.29-.53-1.51-.97-3.04-1.44-4.57-.61-1.99-.19-2.71,1.76-3.42,.49-.18,1.44,.09,1.42-.87-.04-1.39-.95-2.75-1.84-2.91-2.77-.5-4.94-2.77-5.19-5.47-.29-3.01,1.21-5.69,4.01-6.62,5.55-1.84,11.13-3.57,16.72-5.25,2.71-.81,5.54,.43,6.98,2.82,1.46,2.43,1.11,5.5-.86,7.61-.66,.7-.56,3.21,.14,3.79,.27,.22,.51,.02,.76-.04,.62-.16,1.22-.42,1.85-.48,1.34-.12,1.94,.71,2.31,1.88,2.13,6.84,4.29,13.68,6.43,20.52,2.99,9.54,5.99,19.08,8.98,28.62,.71,2.28,.31,3.01-1.99,3.73-1.44,.45-2.86,.97-4.31,1.34-.77,.2-.78,.54-.58,1.16,.71,2.17,1.4,4.34,2.08,6.52,.55,1.77,.07,2.7-1.67,3.26-2.39,.77-4.79,1.53-7.19,2.26-1.67,.51-2.59,0-3.13-1.68-.68-2.13-1.37-4.26-1.99-6.41-.24-.81-.5-1.11-1.41-.76-1.49,.57-3.04,.99-4.57,1.45-1.77,.53-2.65,.07-3.22-1.71-1.32-4.18-2.62-8.36-3.93-12.55-.08-.26-.19-.51-.29-.78-.51,.12-.74,.55-1.04,.85-4.48,4.46-8.95,8.93-13.41,13.4-3.16,3.17-3.15,6.65,.04,9.84,2.43,2.43,4.89,4.83,7.27,7.31,.73,.77,1.49,1.11,2.51,.99,.36-.04,.73,0,1.1,0,.87,0,1.84,.23,2.58-.07,.89-.37,.36-1.51,.6-2.29,.85-2.77,3.06-4.65,6.07-4.67,7.33-.06,14.66-.07,21.98,0,3.41,.03,5.91,2.4,6.17,5.78,.09,1.13,.5,1.28,1.48,1.27,3.87-.04,6.2,1.5,7.07,4.58,1.03,3.65-1.48,7.42-5.26,7.78-1.59,.15-3.2,.11-4.8,.06-.83-.02-1.1,.19-1.08,1.06,.06,2.38,.07,4.76,0,7.14-.03,.95,.3,1.13,1.16,1.1,4.24-.17,8.17,.78,11.57,3.47,1.51,1.19,1.64,1.81,.76,3.51-1.01,.7-2,.81-3.01-.03-2.55-2.13-5.53-2.86-8.79-2.85-19.86,.02-39.72,.01-59.59,.01-.55,0-1.09,.05-1.64,.07-5.6-.47-10.91,3.28-12.41,8.76-.73,2.66-.39,5.37-.48,8.06-.02,.74,.47,.65,.92,.64,1.88-.01,3.75-.03,5.63-.05,4.35,.01,8.7,.03,13.04,.04,.44,0,.82,.09,.95-.62,.84-4.69,3.33-6.73,8.12-6.73,9.93,0,19.87,.03,29.8-.02,2.4-.01,4.51,.56,6.3,2.17,1.04,1.35,1.91,2.78,1.95,4.54,.01,.7,.41,.67,.89,.67,1.91-.02,3.82-.03,5.73-.05,4.33,.01,8.66,.03,12.99,.04,.45,0,.92,.1,.89-.64-.1-2.54,.24-5.11-.36-7.63-.28-1.2-.03-2.16,1.06-2.83Zm-25.88-47.43q2.11-.37,1.51-2.36c-.24-.78-.46-1.57-.71-2.34-.73-2.18-.46-1.78-2.49-1.14-.27,.07-.53,.16-.8,.2-1.23,.18-1.43,.79-.94,1.89,.37,.83,.54,1.74,.82,2.61q.63,1.96,2.62,1.14Zm-21.97-59.41c2.78-.84,5.55-1.68,8.34-2.51,.56-.17,.7-.44,.47-.98-.16-.37-.27-.77-.35-1.17-.16-.79-.52-1-1.33-.73-2.58,.88-5.18,1.68-7.77,2.51-.48,.14-.95,.27-1.43,.42-1.79,.54-1.74,.53-1.26,2.27,.26,.94,.61,1.31,1.57,.82,.56-.28,1.17-.43,1.77-.64Zm4.33,11.34c.11,.07,.22,.14,.33,.21,3.59,2.08,6.16,4.98,7.29,9.03,1.03,3.68,.52,7.23-1.03,10.67-1.52,2.61-3.76,4.59-5.85,6.69-.37,.38-.77,.65-.53,1.38,1.37,4.21,2.68,8.45,3.98,12.69,.19,.63,.47,.73,1.08,.52,2.38-.8,4.78-1.54,7.17-2.3,3.7-1.15,7.4-2.34,11.12-3.43,.96-.28,1.04-.63,.76-1.53-2.95-9.26-5.84-18.54-8.75-27.82-1.72-5.49-3.43-10.98-5.16-16.46-.17-.53-.19-1.19-1.14-.88-3.8,1.27-7.63,2.48-11.44,3.71-1.65,.48-3.31,.95-4.96,1.46q-3.22,.99-2.03,4.18s.05,.08,.05,.13c.07,.5,.35,.69,.85,.6,2.88-.5,5.59,.2,8.27,1.17v-.02Zm7.19,63.16c5.98,.01,11.96,.04,17.94,.03,.45,0,1.1,.3,1.32-.33,.2-.57,.02-1.17-.34-1.68-.47-.66-1.16-.9-1.91-.9-5.48,0-10.95,.04-16.43,.07-1.77-.26-3.56-.15-5.33-.08-1.16,.04-1.94,.75-2.13,1.96-.1,.64,.05,1.03,.85,1.01,2.01-.05,4.02-.05,6.03-.06ZM75.08,14.02c-1.27,.38-2.56,.69-3.79,1.15-1.2,.45-1.68,1.51-1.32,2.64,.34,1.08,1.43,1.74,2.62,1.44,1.23-.32,2.42-.79,3.63-1.2,2.85-.64,5.58-1.71,8.38-2.53,1.36-.4,2.72-.79,4.05-1.27,1.25-.44,1.83-1.58,1.51-2.71-.33-1.14-1.49-1.84-2.7-1.47-4.13,1.28-8.25,2.63-12.37,3.95Zm7.48,89.18c-.46-.02-.91-.07-1.37-.06-.91,.02-2.16-.28-2.62,.19-.49,.5,.62,1.46,.71,2.31,.16,1.53,1.06,1.94,2.43,1.71,.27-.05,.54-.06,.81-.09,.27,.03,.54,.07,.82,.07,11.12,0,22.25,0,33.37,0,.32,0,.64,0,.96-.06,1.17-.21,1.92-1.27,1.66-2.42-.29-1.29-1.22-1.72-2.45-1.72-4.62,0-9.25,0-13.87,0-6.82,.01-13.64,.03-20.46,.05Zm1.64,17.47c7.64,.02,15.29,.03,22.93,.07,.73,0,.94-.28,.93-.98-.03-2.38-.03-4.76,0-7.14,0-.73-.17-1.08-.99-1.08-7.32-.02-14.65-.07-21.97-.11-.31,0-.62,.12-.93,.18-1.05,0-2.09-.03-3.14-.02-.39,0-.88-.09-.96,.5-.46,3.22-1.75,6.06-4.14,8.58,2.93,0,5.6,0,8.27,0Z"/><path class="cls-1" d="M127.65,131.32c-1.09,.66-1.35,1.63-1.06,2.83,.6,2.52,.26,5.08,.36,7.63,.03,.74-.45,.64-.89,.64-4.33-.01-8.66-.03-12.99-.04-.12-3.17-2.15-5.16-5.29-5.18-1.09,0-2.18,.01-3.28,.02-1.8-1.61-3.91-2.18-6.3-2.17-9.93,.05-19.87,.02-29.8,.02-4.79,0-7.28,2.04-8.12,6.73-.13,.71-.51,.62-.95,.62-4.35-.01-8.7-.03-13.04-.04,0-1.55-.01-3.1,0-4.64,0-4.33,1.39-8.08,4.61-11.11,.58-.55,1.42-.84,1.74-1.66,.55-.03,1.09-.07,1.64-.07,19.86,0,39.72,0,59.59-.01,3.26,0,6.25,.72,8.79,2.85,1,.84,2,.73,3.01,.03,.74,1.15,1.79,2.13,2.01,3.58Z"/><path class="cls-1" d="M48.18,60.8c1.49,1.02,2.18,.98,3.46-.3,6.15-6.14,12.29-12.28,18.43-18.43,1.65-1.65,3.51-2.9,5.88-3.21-.07,.62-.59,.9-.97,1.28-7.47,7.48-14.99,14.92-22.41,22.45-7.25,7.36-10.34,16.25-9.35,26.55,.75,7.85,3.96,14.53,9.55,20.08,3.31,3.29,6.61,6.6,9.9,9.91,.37,.38,.91,.66,.9,1.31-1.87-.14-3.44-1.01-4.72-2.26-4.05-3.97-8.23-7.84-11.97-12.09-9.66-10.97-10.2-26.96-1.56-38.75,1.25-1.71,1.21-2.42-.22-3.76,1.41-.5,2.14-1.76,3.08-2.78Z"/><path class="cls-1" d="M63.57,120.44c.01-.65-.52-.94-.9-1.31-3.29-3.31-6.59-6.62-9.9-9.91-5.59-5.55-8.8-12.23-9.55-20.08-.99-10.3,2.1-19.19,9.35-26.55,7.42-7.53,14.94-14.96,22.41-22.45,.38-.38,.9-.66,.97-1.28,4.36-.81,8.55,1.08,10.77,4.84,2.2,3.73,1.86,8.45-.88,11.8-.46,.57-.98,1.09-1.49,1.61-6.92,6.93-13.85,13.85-20.77,20.77-4.9,4.91-4.88,10.89,.04,15.83,3.17,3.18,6.39,6.29,9.49,9.54,2.79,2.92,3.58,6.45,2.38,10.28-1.19,3.79-3.86,6.13-7.74,7-1.38,.31-2.8,.39-4.19-.09Zm-6.53-35.66c.09-3.75-2.81-6.79-6.54-6.83-3.57-.04-6.58,2.85-6.7,6.43-.12,3.67,2.88,6.79,6.57,6.85,3.56,.05,6.57-2.86,6.66-6.44Zm8.55,19.38c-3.66,.02-6.62,3.02-6.57,6.67,.05,3.66,3.04,6.6,6.7,6.56,3.62-.03,6.63-3.09,6.58-6.69-.05-3.65-3.04-6.56-6.71-6.54Zm18.96-55.07c0-3.66-2.97-6.65-6.6-6.66-3.61,0-6.64,3.02-6.65,6.64,0,3.62,3,6.64,6.63,6.64,3.65,0,6.62-2.96,6.62-6.62Z"/><path class="cls-6" d="M90.72,55.73c1.55-3.44,2.06-6.99,1.03-10.67-1.13-4.04-3.7-6.95-7.29-9.03-.11-.07-.22-.14-.33-.21,0,0,.01,.02,.01,.02-.33-2.63-1.33-5.06-2.18-7.54,3.82-1.23,7.64-2.44,11.44-3.71,.95-.32,.97,.34,1.14,.88,1.73,5.49,3.44,10.98,5.16,16.46,2.91,9.28,5.8,18.56,8.75,27.82,.29,.9,.21,1.25-.76,1.53-3.72,1.09-7.41,2.28-11.12,3.43-.11-.44-.21-.88-.35-1.31-1.83-5.89-3.67-11.78-5.51-17.67Z"/><path class="cls-5" d="M84.18,111.62c.31-.06,.62-.18,.93-.18,7.32,.03,14.65,.09,21.97,.11,.82,0,1,.35,.99,1.08-.03,2.38-.03,4.76,0,7.14,0,.69-.2,.98-.93,.98-7.64-.04-15.29-.05-22.93-.07,0-3.02-.01-6.03-.02-9.05Z"/><path class="cls-6" d="M82.56,103.2c6.82-.02,13.64-.04,20.46-.05,4.62,0,9.25,0,13.87,0,1.23,0,2.16,.43,2.45,1.72,.26,1.15-.49,2.21-1.66,2.42-.31,.06-.64,.06-.96,.06-11.12,0-22.25,0-33.37,0-.27,0-.54-.05-.82-.07-.37-1.36-.48-2.71,.03-4.07Z"/><path class="cls-6" d="M90.72,55.73c1.84,5.89,3.68,11.78,5.51,17.67,.13,.43,.23,.88,.35,1.31-2.39,.76-4.79,1.51-7.17,2.3-.61,.21-.89,.11-1.08-.52-1.3-4.24-2.61-8.47-3.98-12.69-.24-.73,.16-1,.53-1.38,2.09-2.11,4.33-4.09,5.85-6.69Z"/><path class="cls-1" d="M52.61,124.95c-.32,.82-1.16,1.12-1.74,1.66-3.22,3.02-4.6,6.77-4.61,11.11,0,1.55,0,3.1,0,4.64-1.88,.02-3.75,.03-5.63,.05-.45,0-.94,.09-.92-.64,.09-2.69-.25-5.4,.48-8.06,1.5-5.48,6.81-9.23,12.41-8.76Z"/><path class="cls-5" d="M75.08,14.02c4.12-1.32,8.24-2.67,12.37-3.95,1.21-.37,2.37,.33,2.7,1.47,.33,1.13-.26,2.26-1.51,2.71-1.33,.47-2.69,.87-4.05,1.27-2.8,.82-5.53,1.89-8.38,2.53-1-1.16-1.22-2.55-1.13-4.02Z"/><path class="cls-4" d="M91.93,96.15c5.48-.03,10.95-.06,16.43-.07,.75,0,1.44,.25,1.91,.9,.36,.51,.55,1.11,.34,1.68-.22,.62-.87,.33-1.32,.33-5.98,0-11.96-.01-17.94-.03-.12-1,.12-1.94,.58-2.82Z"/><path class="cls-3" d="M84.18,111.62c0,3.02,.01,6.03,.02,9.05-2.67,0-5.34,0-8.27,0,2.4-2.52,3.68-5.36,4.14-8.58,.08-.59,.57-.5,.96-.5,1.05,0,2.09,.02,3.14,.02Z"/><path class="cls-6" d="M81.96,28.3c.85,2.48,1.86,4.91,2.18,7.54-2.67-.97-5.39-1.67-8.27-1.17-.5,.09-.78-.1-.85-.6,0-.04-.04-.08-.05-.13q-1.19-3.18,2.03-4.18c1.65-.51,3.31-.97,4.96-1.46Z"/><path class="cls-1" d="M104.49,137.21c1.09,0,2.18-.02,3.28-.02,3.13,.01,5.16,2,5.29,5.18-1.91,.01-3.82,.03-5.73,.05-.48,0-.87,.03-.89-.67-.03-1.76-.91-3.19-1.95-4.54Z"/><path class="cls-1" d="M79.15,21.61c2.59-.83,5.2-1.63,7.77-2.51,.81-.28,1.17-.06,1.33,.73,.08,.4,.19,.8,.35,1.17,.24,.54,.1,.81-.47,.98-2.78,.82-5.56,1.67-8.34,2.51,.07-1.02-.56-1.88-.65-2.87Z"/><path class="cls-3" d="M75.08,14.02c-.08,1.47,.13,2.86,1.13,4.02-1.21,.41-2.4,.88-3.63,1.2-1.19,.31-2.28-.36-2.62-1.44-.36-1.13,.12-2.19,1.32-2.64,1.24-.46,2.53-.77,3.79-1.15Z"/><path class="cls-8" d="M91.93,96.15c-.46,.88-.7,1.82-.58,2.82-2.01,.02-4.02,0-6.03,.06-.79,.02-.95-.36-.85-1.01,.19-1.21,.98-1.91,2.13-1.96,1.77-.07,3.56-.18,5.33,.08Z"/><path class="cls-6" d="M82.56,103.2c-.51,1.35-.4,2.71-.03,4.07-.27,.03-.54,.04-.81,.09-1.38,.23-2.27-.18-2.43-1.71-.09-.85-1.2-1.82-.71-2.31,.46-.47,1.71-.17,2.62-.19,.45,0,.91,.04,1.37,.06Z"/><path class="cls-3" d="M101.77,83.88q-1.98,.82-2.62-1.14c-.28-.87-.44-1.79-.82-2.61-.49-1.1-.29-1.71,.94-1.89,.27-.04,.53-.13,.8-.19,.33,2.01,1.21,3.87,1.7,5.84Z"/><path class="cls-5" d="M101.77,83.88c-.49-1.97-1.37-3.83-1.7-5.84,2.03-.64,1.77-1.04,2.49,1.14,.26,.77,.48,1.56,.71,2.34q.6,1.98-1.51,2.36Z"/><path class="cls-1" d="M79.15,21.61c.09,.98,.72,1.85,.65,2.87-.59,.21-1.21,.36-1.77,.64-.96,.48-1.31,.12-1.57-.82-.48-1.75-.53-1.73,1.26-2.27,.47-.14,.95-.28,1.43-.42Z"/><path class="cls-6" d="M84.13,35.82c.11,.07,.22,.14,.33,.21-.11-.07-.22-.14-.33-.21Z"/><path class="cls-7" d="M57.05,84.78c-.09,3.58-3.1,6.5-6.66,6.44-3.69-.06-6.69-3.18-6.57-6.85,.11-3.58,3.12-6.47,6.7-6.43,3.73,.05,6.63,3.08,6.54,6.83Zm-6.59,2.31c1.37,0,2.48-1.16,2.46-2.56-.02-1.41-1.15-2.49-2.55-2.45-1.31,.04-2.42,1.16-2.43,2.47-.01,1.34,1.18,2.54,2.52,2.54Z"/><path class="cls-7" d="M65.6,104.16c3.67-.02,6.66,2.89,6.71,6.54,.05,3.6-2.96,6.66-6.58,6.69-3.65,.03-6.65-2.91-6.7-6.56-.05-3.65,2.9-6.64,6.57-6.67Zm2.57,6.74c.09-1.3-.96-2.49-2.27-2.6-1.43-.12-2.6,.85-2.71,2.26-.11,1.38,.93,2.6,2.31,2.7,1.35,.09,2.59-.99,2.68-2.36Z"/><path class="cls-7" d="M84.55,49.09c0,3.67-2.97,6.63-6.62,6.62-3.63,0-6.64-3.03-6.63-6.64,0-3.62,3.04-6.64,6.65-6.64,3.63,0,6.6,3,6.6,6.66Zm-6.56,2.48c1.41-.03,2.46-1.15,2.42-2.58-.04-1.33-1.14-2.42-2.46-2.43-1.33,0-2.54,1.2-2.53,2.53,0,1.35,1.2,2.5,2.57,2.47Z"/><path class="cls-6" d="M50.46,87.09c-1.34,0-2.53-1.19-2.52-2.54,.01-1.3,1.12-2.43,2.43-2.47,1.4-.04,2.53,1.04,2.55,2.45,.02,1.4-1.09,2.55-2.46,2.56Z"/><path class="cls-6" d="M68.17,110.9c-.09,1.37-1.32,2.46-2.68,2.36-1.38-.1-2.42-1.32-2.31-2.7,.12-1.41,1.28-2.38,2.71-2.26,1.32,.11,2.36,1.3,2.27,2.6Z"/><path class="cls-6" d="M78,51.57c-1.37,.03-2.56-1.12-2.57-2.47,0-1.33,1.19-2.54,2.53-2.53,1.32,0,2.42,1.1,2.46,2.43,.04,1.43-1.01,2.55-2.42,2.58Z"/></g></g></g></svg>