<?xml version="1.0" encoding="UTF-8"?><svg id="Layer_2" xmlns="http://www.w3.org/2000/svg" viewBox="0 0 200 200"><defs><style>.cls-1{fill:#e9f6f6;}.cls-2{fill:#b6e5f5;}.cls-3{fill:#add;}.cls-4{fill:#06ffd5;}.cls-5{fill:#1a2959;}</style></defs><g id="circles"><circle class="cls-1" cx="100" cy="100" r="100"/></g><g id="Layer_1-2"><g id="ILNYYz"><g><path class="cls-5" d="M71.03,66.74c4.02-2,7.85-4.01,11.77-5.82,1.57-.72,2.1-1.58,2.04-3.32-.15-4.63-.02-9.27-.07-13.9-.02-1.46,.49-2.39,1.78-3.11,4.99-2.79,9.95-5.63,14.89-8.52,1.23-.72,2.28-.68,3.47,.01,4.95,2.87,9.91,5.71,14.89,8.52,1.23,.69,1.73,1.61,1.71,3.02-.05,5.02,0,10.03-.04,15.05,0,.88,.24,1.35,1.05,1.74,4.19,2.03,8.35,4.13,12.73,6.32,0-1.73,.04-3.32-.01-4.91-.05-1.3,.49-2.16,1.6-2.79,5.1-2.89,10.19-5.79,15.27-8.72,1.01-.58,1.94-.62,2.96-.03,5.12,2.95,10.25,5.87,15.39,8.79,1.13,.64,1.52,1.57,1.51,2.84-.03,5.69-.04,11.37,0,17.06,.01,1.41-.52,2.31-1.74,3-4.45,2.49-8.85,5.06-13.3,7.55-.75,.42-1.06,.86-1.06,1.75,.05,6.02,.04,12.04,0,18.06,0,.84,.29,1.25,.99,1.64,4.44,2.5,8.85,5.08,13.3,7.56,1.28,.71,1.82,1.64,1.81,3.1-.05,5.64-.05,11.28,0,16.91,.01,1.48-.57,2.38-1.83,3.09-4.91,2.75-9.79,5.54-14.65,8.38-1.3,.76-2.4,.82-3.72,.04-4.35-2.56-8.77-5.02-13.13-7.56-.76-.44-1.3-.43-2.05,.05-4.71,2.99-9.44,5.94-14.19,8.87-.69,.43-.97,.88-.93,1.7,.07,1.38,0,2.77,.03,4.16,.02,1.12-.44,1.92-1.4,2.47-5.22,2.98-10.43,5.95-15.64,8.94-.92,.53-1.8,.5-2.71-.03-5.21-2.99-10.42-5.97-15.63-8.95-.92-.53-1.35-1.3-1.33-2.35,.02-1.43-.04-2.87,.02-4.3,.03-.75-.19-1.18-.86-1.59-4.79-2.95-9.56-5.93-14.31-8.95-.7-.45-1.22-.45-1.93-.04-4.33,2.51-8.71,4.94-13.02,7.48-1.39,.82-2.54,.89-3.97,.04-4.84-2.86-9.73-5.64-14.64-8.38-1.29-.72-1.79-1.66-1.78-3.12,.05-5.64,.05-11.28,0-16.91-.01-1.41,.5-2.31,1.73-3,4.45-2.49,8.85-5.07,13.3-7.56,.75-.42,1.08-.85,1.07-1.75-.05-6.02-.04-12.04,0-18.06,0-.82-.26-1.25-.97-1.65-4.45-2.5-8.84-5.09-13.3-7.57-1.28-.71-1.84-1.61-1.83-3.08,.05-5.64,.05-11.28,0-16.91-.01-1.47,.54-2.37,1.82-3.09,4.95-2.77,9.87-5.59,14.76-8.45,1.27-.74,2.35-.74,3.6-.01,4.9,2.85,9.82,5.68,14.76,8.45,1.28,.72,1.87,1.64,1.8,3.11-.07,1.51-.02,3.03-.02,4.73Zm50.47,79.87c4.53-2.84,8.8-5.53,13.11-8.17,.69-.42,.66-.94,.66-1.56,0-5.02,.04-10.04-.03-15.05-.02-1.57,.5-2.57,1.9-3.34,4.42-2.44,8.77-5.02,13.18-7.48,.78-.43,1.03-.9,1.02-1.77-.04-5.97-.04-11.95,0-17.92,0-.87-.24-1.34-1.02-1.78-4.41-2.46-8.77-5.03-13.18-7.49-1.32-.73-1.97-1.65-1.9-3.19,.09-1.96-.02-3.92,.04-5.88,.03-.83-.23-1.27-.99-1.64-4.71-2.3-9.4-4.63-14.07-7.02-.75-.38-1.27-.28-1.93,.1-3.96,2.3-7.92,4.58-11.92,6.81-.75,.41-.96,.88-.94,1.67,.05,2.2,.06,4.4,0,6.59-.02,.83,.27,1.25,.98,1.65,4.45,2.5,8.85,5.08,13.3,7.56,1.28,.71,1.83,1.63,1.82,3.1-.05,5.64-.05,11.28,0,16.92,.01,1.47-.54,2.39-1.82,3.1-4.45,2.49-8.85,5.06-13.3,7.56-.71,.4-1,.82-.98,1.65,.06,2.2,.07,4.4,0,6.59-.03,.91,.32,1.32,1.07,1.74,4.45,2.49,8.85,5.06,13.3,7.56,1.23,.69,1.77,1.6,1.72,3.01-.07,2.13-.02,4.27-.02,6.66Zm-36.7-.02c0-2.32,.06-4.4-.02-6.48-.06-1.51,.49-2.48,1.84-3.22,4.42-2.45,8.77-5.02,13.19-7.48,.83-.46,1.11-.97,1.08-1.9-.07-2.15-.06-4.3,0-6.45,.02-.81-.23-1.25-.96-1.66-4.45-2.5-8.84-5.08-13.3-7.57-1.28-.71-1.85-1.61-1.84-3.08,.05-5.64,.05-11.28,0-16.92-.01-1.46,.52-2.38,1.81-3.1,4.46-2.48,8.85-5.07,13.3-7.57,.7-.39,1.02-.8,1-1.64-.07-2.24-.05-4.49,0-6.74,.01-.69-.15-1.12-.79-1.48-4.12-2.31-8.21-4.65-12.3-7.01-.56-.32-.99-.31-1.56-.03-4.76,2.4-9.52,4.8-14.31,7.15-.73,.36-.92,.78-.9,1.54,.05,1.91-.07,3.83,.04,5.73,.1,1.66-.58,2.66-2,3.44-4.38,2.43-8.7,4.96-13.07,7.4-.76,.42-1.05,.87-1.05,1.76,.04,5.97,.05,11.95,0,17.92,0,.97,.35,1.42,1.13,1.86,4.45,2.49,8.86,5.05,13.31,7.55,1.17,.66,1.69,1.55,1.67,2.9-.05,3.63-.02,7.26-.01,10.9,0,1.86-.55,4.04,.23,5.5,.74,1.39,2.89,2.04,4.42,3,2.97,1.86,5.95,3.71,9.11,5.68Zm29.78-7.32c-3.8-2.17-7.35-4.19-10.88-6.24-.59-.34-.98-.04-1.43,.22-2.36,1.35-4.72,2.69-7.07,4.03-1.09,.63-2.17,1.27-3.44,2.01,3.77,2.16,7.32,4.19,10.85,6.23,.37,.21,.69,.23,1.06,.01,3.54-2.04,7.09-4.07,10.91-6.26Zm-9.14-72.76c3.34-1.91,6.44-3.77,9.63-5.45,1.38-.73,1.95-1.54,1.88-3.17-.15-3.59-.05-7.19-.05-10.99-3.8,2.17-7.38,4.24-10.98,6.26-.49,.28-.48,.64-.48,1.07,0,4.01,0,8.02,0,12.28Zm-66.52-1.28c0,4.26,.02,8.26-.02,12.27,0,.72,.34,.99,.87,1.29,2.53,1.42,5.05,2.87,7.57,4.32,.97,.55,1.94,1.11,3.04,1.74,0-4.25,0-8.26,0-12.26,0-.52-.1-.88-.6-1.16-3.56-2.01-7.1-4.04-10.87-6.19Zm112.4,19.62c0-4.34,0-8.47,0-12.6,0-.4-.21-.58-.52-.76-3.59-2.04-7.17-4.1-10.95-6.26,0,4.35,0,8.48,0,12.6,0,.4,.21,.58,.52,.76,3.59,2.04,7.17,4.1,10.94,6.26Zm-50.46,29.82c0-4.25-.02-8.25,.02-12.26,0-.71-.33-1-.86-1.3-2.7-1.52-5.38-3.07-8.07-4.6-.81-.46-1.61-.92-2.56-1.46,0,4.25,0,8.26,0,12.26,0,.52,.1,.87,.6,1.15,3.56,2,7.1,4.04,10.87,6.2Zm-50.47,29.82c0-4.31,0-8.4,0-12.48,0-.35-.06-.62-.42-.82-3.63-2.06-7.25-4.14-11.05-6.32,0,4.31,0,8.4,0,12.48,0,.35,.06,.62,.41,.82,3.63,2.06,7.25,4.14,11.06,6.31Zm89.46-19.62c0,4.27,.02,8.27-.02,12.28,0,.72,.36,.99,.88,1.28,3.02,1.71,6.03,3.45,9.06,5.16,.47,.27,.88,.72,1.55,.66,0-4.03,0-8.04,0-12.04,0-.53-.12-.87-.61-1.15-3.56-2.01-7.1-4.04-10.86-6.19Zm-39-58.38c0-4.26,0-8.22,0-12.17,0-.48,.03-.89-.52-1.2-3.6-2.02-7.17-4.09-10.95-6.25,0,4.35,0,8.47,0,12.6,0,.4,.21,.58,.52,.76,3.59,2.04,7.17,4.1,10.95,6.26Zm-11.47,76.73c0,4.26,.02,8.26-.02,12.26,0,.71,.34,.99,.87,1.29,2.7,1.52,5.38,3.06,8.07,4.6,.81,.46,1.62,.91,2.56,1.44,0-4.24,0-8.24,0-12.24,0-.52-.1-.87-.6-1.16-3.56-2-7.1-4.04-10.87-6.19ZM41.27,61.28c3.81,2.18,7.4,4.23,10.98,6.3,.61,.35,1-.09,1.43-.33,2.78-1.57,5.56-3.17,8.33-4.77,.64-.37,1.35-.63,1.95-1.29-2.72-1.55-5.48-2.83-7.88-4.59-2.46-1.81-4.44-1.64-6.85,.05-2.43,1.71-5.15,3.02-7.96,4.62Zm123.77,0c-3.81-2.18-7.36-4.21-10.91-6.26-.52-.3-.88-.07-1.31,.17-3.23,1.85-6.47,3.69-9.7,5.54-.25,.15-.68,.19-.62,.72,3.45,1.97,6.94,3.95,10.41,5.96,.46,.26,.82,.35,1.31,.06,3.51-2.03,7.03-4.03,10.82-6.2Zm-110.07,23.57c3.75-2.14,7.26-4.16,10.79-6.13,.63-.35,.69-.8,.69-1.4-.01-3.58,0-7.16-.02-10.74,0-.39,.19-.84-.22-1.22-3.56,2.04-7.11,4.08-10.68,6.09-.44,.25-.57,.55-.57,1.02,.01,4.05,0,8.09,0,12.37Zm61.93,10.21c-3.81,2.17-7.43,4.25-11.06,6.31-.36,.2-.4,.48-.4,.83,0,4.08,0,8.17,0,12.48,3.77-2.16,7.35-4.21,10.94-6.25,.38-.22,.54-.46,.54-.9-.01-4.08,0-8.17,0-12.47Zm-11.47,67.78c2.69-1.54,5.06-3.21,7.67-4.3,3.13-1.32,4.28-3.26,3.87-6.64-.34-2.79-.07-5.65-.07-8.68-3.77,2.15-7.31,4.19-10.88,6.2-.51,.29-.6,.64-.6,1.15,.01,4.01,0,8.02,0,12.27Zm-13.71-119.92c3.76,2.15,7.25,4.12,10.71,6.14,.61,.36,1.03,.22,1.56-.09,2.52-1.46,5.05-2.89,7.58-4.34,.93-.53,1.85-1.08,2.97-1.73-3.78-2.17-7.34-4.2-10.89-6.23-.3-.17-.59-.26-.93-.06-3.59,2.06-7.18,4.11-11,6.3Zm0,48.17c3.82,2.19,7.41,4.24,11,6.31,.54,.31,.91-.05,1.3-.27,2.95-1.68,5.89-3.36,8.83-5.05,.51-.29,1.11-.49,1.46-1-.12-.13-.18-.21-.25-.26-2.19-1.26-4.39-2.52-6.58-3.78-1.41-.8-2.79-2.13-4.25-2.23-1.54-.1-2.92,1.42-4.37,2.23-2.32,1.28-4.61,2.62-7.13,4.05Zm-50.46,29.82c3.78,2.17,7.34,4.19,10.87,6.25,.6,.35,.99,.04,1.44-.22,3.07-1.75,6.14-3.49,9.2-5.26,.38-.22,.93-.29,1.06-.93-3.52-2.01-7.04-4.01-10.55-6.04-.42-.24-.76-.26-1.19-.01-3.51,2.03-7.03,4.04-10.83,6.21Zm100.93,0c3.79,2.17,7.34,4.19,10.88,6.25,.6,.35,.99,.03,1.44-.22,3.15-1.8,6.3-3.59,9.44-5.41,.3-.17,.76-.23,.79-.79-3.5-2-7.03-4.01-10.54-6.03-.42-.24-.76-.25-1.19,0-3.51,2.03-7.03,4.04-10.82,6.21Zm25.17-55.68c-3.76,2.14-7.26,4.16-10.79,6.13-.63,.35-.68,.8-.68,1.4,.01,3.05,0,6.11,0,9.16,0,.92,0,1.84,0,2.92,3.76-2.14,7.27-4.15,10.79-6.14,.45-.25,.69-.54,.69-1.11-.03-4.04-.01-8.09-.01-12.36Zm-100.93,59.63c-3.79,2.17-7.37,4.23-10.96,6.27-.32,.18-.51,.37-.51,.76,0,4.13,0,8.26,0,12.59,3.78-2.17,7.36-4.23,10.96-6.26,.55-.31,.5-.74,.5-1.21,0-3.96,0-7.92,0-12.16Zm100.93,0c-3.73,2.13-7.19,4.13-10.68,6.08-.64,.36-.8,.78-.8,1.47,.03,3.72,.01,7.45,.02,11.17,0,.24-.17,.58,.26,.74,3.5-1.99,7.02-4,10.53-6,.38-.22,.68-.43,.68-.97-.02-4.09-.01-8.18-.01-12.49Z"/><path class="cls-4" d="M114.57,139.28c-3.81,2.19-7.36,4.22-10.91,6.26-.37,.21-.69,.2-1.06-.01-3.54-2.04-7.08-4.07-10.85-6.23,1.26-.74,2.34-1.38,3.44-2.01,2.35-1.35,4.71-2.69,7.07-4.03,.45-.26,.84-.56,1.43-.22,3.53,2.05,7.08,4.07,10.88,6.24Z"/><path class="cls-2" d="M105.44,66.51c0-4.27,0-8.28,0-12.28,0-.43,0-.79,.48-1.07,3.6-2.03,7.18-4.09,10.98-6.26,0,3.8-.11,7.4,.05,10.99,.07,1.63-.5,2.44-1.88,3.17-3.19,1.68-6.29,3.55-9.63,5.45Z"/><path class="cls-3" d="M38.91,65.24c3.77,2.15,7.31,4.19,10.87,6.19,.5,.28,.6,.64,.6,1.16-.01,4.01,0,8.01,0,12.26-1.1-.63-2.07-1.19-3.04-1.74-2.52-1.44-5.04-2.89-7.57-4.32-.53-.3-.88-.57-.87-1.29,.04-4.01,.02-8.01,.02-12.27Z"/><path class="cls-3" d="M151.31,84.85c-3.77-2.16-7.36-4.22-10.94-6.26-.31-.18-.53-.36-.52-.76,0-4.13,0-8.26,0-12.6,3.78,2.16,7.36,4.22,10.95,6.26,.31,.18,.52,.37,.52,.76,0,4.13,0,8.26,0,12.6Z"/><path class="cls-3" d="M100.85,114.67c-3.77-2.15-7.31-4.19-10.87-6.2-.51-.28-.6-.64-.6-1.15,.01-4,0-8.01,0-12.26,.94,.54,1.75,1,2.56,1.46,2.69,1.54,5.37,3.08,8.07,4.6,.53,.3,.87,.58,.86,1.3-.04,4-.02,8.01-.02,12.26Z"/><path class="cls-3" d="M50.38,144.49c-3.81-2.18-7.43-4.25-11.06-6.31-.36-.2-.41-.48-.41-.82,0-4.08,0-8.17,0-12.48,3.8,2.18,7.42,4.25,11.05,6.32,.35,.2,.42,.47,.42,.82,0,4.08,0,8.17,0,12.48Z"/><path class="cls-3" d="M139.85,124.88c3.76,2.15,7.3,4.18,10.86,6.19,.49,.28,.62,.62,.61,1.15-.02,4,0,8.01,0,12.04-.67,.06-1.08-.39-1.55-.66-3.03-1.71-6.04-3.45-9.06-5.16-.52-.29-.88-.56-.88-1.28,.04-4,.02-8.01,.02-12.28Z"/><path class="cls-3" d="M100.85,66.5c-3.78-2.16-7.36-4.22-10.95-6.26-.32-.18-.52-.36-.52-.76,0-4.13,0-8.25,0-12.6,3.78,2.16,7.35,4.22,10.95,6.25,.54,.31,.52,.72,.52,1.2,0,3.96,0,7.91,0,12.17Z"/><path class="cls-3" d="M89.38,143.23c3.77,2.15,7.31,4.19,10.87,6.19,.5,.28,.61,.64,.6,1.16-.01,4,0,8.01,0,12.24-.94-.53-1.75-.98-2.56-1.44-2.69-1.53-5.37-3.08-8.07-4.6-.53-.3-.87-.57-.87-1.29,.04-4,.02-8.01,.02-12.26Z"/><path class="cls-4" d="M41.27,61.28c2.81-1.61,5.52-2.92,7.96-4.62,2.4-1.69,4.38-1.85,6.85-.05,2.4,1.76,5.17,3.03,7.88,4.59-.6,.66-1.32,.92-1.95,1.29-2.77,1.6-5.54,3.19-8.33,4.77-.43,.24-.82,.68-1.43,.33-3.58-2.06-7.17-4.11-10.98-6.3Z"/><path class="cls-4" d="M165.04,61.29c-3.79,2.17-7.31,4.17-10.82,6.2-.49,.28-.86,.2-1.31-.06-3.47-2-6.95-3.99-10.41-5.96-.05-.52,.37-.57,.62-.72,3.23-1.86,6.47-3.69,9.7-5.54,.42-.24,.78-.48,1.31-.17,3.54,2.05,7.1,4.08,10.91,6.26Z"/><path class="cls-2" d="M54.97,84.86c0-4.28,0-8.33,0-12.37,0-.47,.13-.77,.57-1.02,3.56-2.01,7.11-4.05,10.68-6.09,.41,.38,.22,.83,.22,1.22,.02,3.58,0,7.16,.02,10.74,0,.6-.06,1.05-.69,1.4-3.53,1.97-7.04,3.99-10.79,6.13Z"/><path class="cls-2" d="M116.9,95.07c0,4.3,0,8.38,0,12.47,0,.43-.16,.68-.54,.9-3.59,2.04-7.17,4.09-10.94,6.25,0-4.31,0-8.39,0-12.48,0-.35,.04-.62,.4-.83,3.63-2.06,7.26-4.13,11.06-6.31Z"/><path class="cls-2" d="M105.44,162.85c0-4.25,0-8.26,0-12.27,0-.51,.09-.87,.6-1.15,3.56-2,7.11-4.04,10.88-6.2,0,3.02-.27,5.89,.07,8.68,.41,3.38-.74,5.32-3.87,6.64-2.61,1.1-4.98,2.76-7.67,4.3Z"/><path class="cls-4" d="M91.73,42.94c3.83-2.19,7.42-4.24,11-6.3,.34-.2,.63-.12,.93,.06,3.55,2.03,7.1,4.07,10.89,6.23-1.12,.65-2.04,1.2-2.97,1.73-2.53,1.45-5.06,2.88-7.58,4.34-.53,.31-.95,.44-1.56,.09-3.46-2.02-6.95-3.99-10.71-6.14Z"/><path class="cls-4" d="M91.73,91.1c2.52-1.43,4.81-2.77,7.13-4.05,1.45-.8,2.83-2.33,4.37-2.23,1.46,.1,2.85,1.43,4.25,2.23,2.2,1.25,4.39,2.51,6.58,3.78,.08,.04,.13,.13,.25,.26-.35,.52-.95,.71-1.46,1-2.94,1.69-5.88,3.37-8.83,5.05-.4,.23-.76,.59-1.3,.27-3.58-2.06-7.17-4.12-11-6.31Z"/><path class="cls-4" d="M41.27,120.92c3.79-2.17,7.32-4.18,10.83-6.21,.43-.25,.77-.23,1.19,.01,3.51,2.02,7.04,4.03,10.55,6.04-.13,.64-.68,.71-1.06,.93-3.06,1.77-6.13,3.51-9.2,5.26-.45,.25-.84,.56-1.44,.22-3.53-2.06-7.09-4.08-10.87-6.25Z"/><path class="cls-4" d="M142.2,120.92c3.79-2.17,7.31-4.18,10.82-6.21,.43-.25,.77-.24,1.19,0,3.51,2.02,7.04,4.03,10.54,6.03-.03,.56-.49,.61-.79,.79-3.14,1.81-6.29,3.61-9.44,5.41-.45,.25-.84,.57-1.44,.22-3.54-2.06-7.09-4.08-10.88-6.25Z"/><path class="cls-2" d="M167.37,65.25c0,4.27-.01,8.31,.01,12.36,0,.57-.24,.85-.69,1.11-3.52,1.99-7.03,4-10.79,6.14,0-1.08,0-2,0-2.92,0-3.05,0-6.11,0-9.16,0-.6,.05-1.05,.68-1.4,3.54-1.97,7.04-3.99,10.79-6.13Z"/><path class="cls-2" d="M66.44,124.88c0,4.24,0,8.2,0,12.16,0,.47,.05,.89-.5,1.21-3.6,2.02-7.18,4.09-10.96,6.26,0-4.34,0-8.46,0-12.59,0-.39,.19-.58,.51-.76,3.59-2.04,7.18-4.1,10.96-6.27Z"/><path class="cls-2" d="M167.37,124.88c0,4.31-.01,8.4,.01,12.49,0,.54-.3,.75-.68,.97-3.52,2-7.03,4.01-10.53,6-.43-.15-.26-.49-.26-.74-.01-3.72,0-7.45-.02-11.17,0-.69,.16-1.12,.8-1.47,3.49-1.95,6.96-3.95,10.68-6.08Z"/></g></g></g></svg>