<?xml version="1.0" encoding="UTF-8"?><svg id="Layer_2" xmlns="http://www.w3.org/2000/svg" viewBox="0 0 200 200"><defs><style>.cls-1{fill:#e9f6f6;}.cls-2{fill:#fff;}.cls-3{fill:#b6e5f5;}.cls-4{fill:#add;}.cls-5{fill:#06ffd5;}.cls-6{fill:#1a2959;}</style></defs><g id="Layer_1-2"><circle class="cls-1" cx="100" cy="100" r="100"/><g><path class="cls-6" d="M122.8,95.59c-.91,4.04-2.3,5.44-6.24,6.26-.23,.87-.47,1.74-.74,2.74,9.73,4.4,16.52,11.63,19.8,21.93,2.36,7.42,2.23,14.89-.31,22.27-5.1,14.82-19.14,24.39-34.97,23.87-15.21-.5-28.69-11.36-32.68-26.45-4.02-15.19,2.36-32.18,17.71-40.41-.96-.8-2.11-1.47-2.86-2.45-.76-.99-1.13-2.29-1.75-3.62-4.04-1.22-4.98-2.16-6.03-6.27-3.4-.52-5.52-2.4-6.14-5.9-.07-.37-.53-.72-.89-.98-5.42-3.94-11.78-5.77-17.94-8.03-4.1-1.5-8.21-3-12.34-4.51v-30.68c1.09,0,2.16,0,3.22,0,2.82,0,5.64-.06,8.45,.04,.89,.03,1.88,.32,2.62,.81,5.33,3.49,10.6,7.07,15.93,10.57,.5,.33,1.3,.47,1.88,.35,4.41-.91,8.79-1.94,13.2-2.88,4.56-.98,9.05-.58,13.46,.85,1.81,.59,3.61,1.23,5.44,1.74,6.33,1.74,12.66,3.51,19.04,5.09,1.67,.41,3.41,.3,5.12-.69,8.9-5.2,17.88-10.28,26.83-15.4,.36-.21,.79-.44,1.19-.44,4.15-.03,8.31-.02,12.55-.02v30.76c-3.88,1.2-7.8,2.42-11.72,3.63-5.21,1.61-10.46,3.11-15.62,4.85-1.77,.6-3.35,1.77-5,2.72-1.46,.84-2.91,1.72-4.34,2.62-.29,.18-.63,.51-.69,.82-.82,4.65-1.89,5.85-6.14,6.83Zm-20.91,18.69c-12.63,0-22.91,10.3-22.9,22.97,0,12.6,10.26,22.9,22.82,22.92,12.64,.03,22.95-10.26,22.97-22.9,.02-12.66-10.26-22.98-22.89-22.98Zm7.57-32.88c3.67,3.07,7.26,6.07,10.86,9.06,1.4,1.17,2.99,1.18,3.92,.05,.91-1.1,.66-2.3-.77-3.59-5.51-4.97-11.02-9.94-16.53-14.91-2.03-1.83-3.68-2-6.01-.61-2.35,1.4-4.68,2.82-7.02,4.22-1.54,.92-3.19,1.35-4.98,1.01-3.02-.57-5.21-2.84-5.71-5.85-.51-3.08,.81-6.06,3.52-7.52,2.98-1.6,6.03-3.05,9.05-4.57,.45-.23,.88-.47,1.51-.81-4.09-1.51-8.02-2.55-12.14-1.79-4.72,.88-9.41,1.96-14.1,3-.33,.07-.75,.49-.84,.82-1.77,6.39-3.52,12.8-5.22,19.21-.09,.34,.13,.97,.4,1.15,1.44,.95,2.94,1.8,4.39,2.66,2.19-2.18,4.29-4.31,6.44-6.38,1.83-1.77,4.03-2.38,6.47-1.61,2.38,.74,3.86,2.4,4.43,4.85,.09,.37,.18,.74,.27,1.08,3.67,.54,5.68,2.66,6.21,6.25,3.7,.5,5.72,2.68,6.26,6.24,4.39,.92,6.12,3.04,6.13,7.42,0,.21-.05,.52,.07,.62,1.16,1.02,2.17,2.43,3.88,2.36,.72-.03,1.58-.62,2.07-1.21,.61-.74,.3-1.67-.34-2.37-.38-.41-.84-.76-1.27-1.12-3.25-2.72-6.51-5.44-9.85-8.23,.92-1.1,1.77-2.12,2.67-3.19,3.35,2.79,6.6,5.51,9.86,8.23,.57,.47,1.11,.99,1.73,1.37,1.1,.68,2.58,.39,3.28-.57,.73-1,.54-2.11-.55-3.1-.35-.32-.73-.62-1.09-.92-3.19-2.67-6.38-5.33-9.65-8.07,.91-1.09,1.76-2.11,2.66-3.19Zm18.43-18.63c.04,.2,.03,.3,.07,.37,3.23,4.88,6.49,9.74,9.7,14.64,.46,.71,.93,.54,1.54,.35,7.31-2.27,14.62-4.54,21.95-6.75,.89-.27,1.11-.66,1.1-1.53-.04-7.03-.02-14.07-.02-21.1,0-.38-.05-.75-.08-1.21-2.24,0-4.4-.04-6.56,.03-.7,.02-1.46,.2-2.07,.54-6.56,3.71-13.09,7.47-19.63,11.21-2.02,1.16-4.03,2.32-6.02,3.46Zm-18.42,48.34c14.02,4.3,21.23,18,19.12,30.42-2.12,12.48-11.82,21.43-24.53,22.73-11.69,1.2-23.33-6.2-27.55-17.63-2.53-6.86-2.32-13.72,.67-20.42,2.97-6.65,7.97-11.29,14.51-14.11-1.24-.97-2.41-1.9-3.67-2.9-.1,.05-.37,.17-.64,.31-11.68,6.01-18.44,19.33-16.4,32.32,2.74,17.46,18.9,29.13,36.22,26.21,13.21-2.23,24.46-13.38,25.77-28.07,1.17-13.13-6.01-26.07-18.88-31.53-1.27-.54-2.49-.96-3.77-.31-.28,.99-.56,1.94-.86,2.98ZM41.59,47.53c-.03,.32-.07,.49-.07,.66,0,7.34,.02,14.68-.03,22.03,0,.9,.48,1.06,1.11,1.29,5.82,2.11,11.63,4.23,17.45,6.34,.26,.1,.55,.13,.89,.21,1.69-6.23,3.38-12.38,4.99-18.54,.09-.34-.34-1-.71-1.25-5.06-3.43-10.15-6.82-15.24-10.2-.38-.25-.85-.5-1.28-.51-2.34-.05-4.67-.02-7.12-.02Zm92.63,32.76c-.1-.23-.14-.4-.24-.54-3.31-4.99-6.61-9.98-9.97-14.94-.23-.34-.82-.53-1.27-.59-1.27-.2-2.6-.13-3.84-.46-3.93-1.03-7.84-2.18-11.74-3.31-2.27-.65-4.47-.53-6.58,.51-3.85,1.89-7.68,3.81-11.5,5.75-1.75,.89-2.32,2.79-1.4,4.41,.85,1.5,2.54,1.83,4.28,.8,2.27-1.35,4.53-2.73,6.8-4.08,3.89-2.33,7.58-1.97,10.97,1.07,3.87,3.48,7.73,6.98,11.6,10.47,1.92,1.74,3.85,3.47,5.79,5.21,2.42-1.46,4.76-2.87,7.11-4.29Zm-50.79,.63c-.58-.65-1.03-1.4-1.69-1.83-.9-.59-1.86-.27-2.6,.47-1.88,1.86-3.76,3.72-5.61,5.62-1.04,1.07-1.04,2.42-.1,3.37,.94,.95,2.29,.96,3.36-.07,1.9-1.85,3.77-3.72,5.6-5.63,.42-.44,.61-1.1,1.04-1.92Zm6.24,6.26c-.58-.65-1.03-1.41-1.68-1.84-.9-.59-1.86-.27-2.6,.46-1.89,1.86-3.76,3.72-5.61,5.62-1.04,1.07-1.05,2.41-.11,3.37,.94,.95,2.29,.97,3.36-.07,1.9-1.85,3.77-3.72,5.6-5.63,.42-.44,.61-1.1,1.04-1.92Zm3.86,3.92c-.75,.34-1.31,.45-1.66,.78-2.06,1.99-4.1,4-6.07,6.07-.86,.91-.74,2.2,.09,3.07,.83,.87,2.16,1.07,3.05,.23,2.11-1.99,4.2-4.03,6.13-6.19,.44-.5,.5-1.7,.23-2.37-.27-.67-1.17-1.08-1.77-1.59Zm6.28,6.29c-.74,.3-1.28,.37-1.59,.67-2.12,2.05-4.23,4.12-6.25,6.26-.81,.85-.63,2.13,.16,2.96,.83,.87,2.16,1.08,3.05,.23,2.11-1.99,4.2-4.03,6.13-6.19,.44-.5,.5-1.69,.24-2.37-.27-.67-1.17-1.08-1.73-1.56Zm.88,10.91c1,.99,2.03,2.33,3.76,1.65,.66-.26,1.39-1.15,1.51-1.84,.27-1.6-1.18-2.2-2.23-3.06-1.01,1.08-1.98,2.12-3.04,3.25Z"/><path class="cls-6" d="M51.65,110.49c-2.78,3.71-5.56,7.43-8.46,11.29-1.1-.82-2.15-1.61-3.32-2.49,4.7-6.28,9.36-12.52,14.14-18.92,4.75,6.35,9.41,12.58,14.15,18.91-1.14,.86-2.19,1.66-3.31,2.51-2.88-3.84-5.69-7.58-8.71-11.62v43.68h-4.17v-43.29l-.31-.06Z"/><path class="cls-6" d="M149.76,100.37c4.78,6.39,9.42,12.6,14.14,18.91-1.12,.85-2.18,1.65-3.31,2.51-2.88-3.84-5.68-7.58-8.7-11.61v43.66h-4.17v-43.28c-.1-.04-.19-.07-.29-.11-2.81,3.75-5.63,7.5-8.49,11.31-1.12-.84-2.16-1.61-3.32-2.48,4.7-6.28,9.36-12.52,14.15-18.92Z"/><path class="cls-6" d="M56.01,162.19h-3.99v-4.02h3.99v4.02Z"/><path class="cls-6" d="M151.74,162.2h-4.01v-4.01h4.01v4.01Z"/><path class="cls-3" d="M101.89,114.28c12.63,0,22.9,10.32,22.89,22.98-.02,12.64-10.33,22.93-22.97,22.9-12.56-.03-22.81-10.33-22.82-22.92,0-12.66,10.27-22.97,22.9-22.97Zm-2.07,8.29c-.37,.04-.59,.06-.8,.08-4.62,.6-7.81,4.35-7.53,8.88,.27,4.41,3.92,7.74,8.54,7.77,1.34,.01,2.69-.03,4.03,.01,2.27,.08,4.03,1.88,4.06,4.09,.03,2.27-1.74,4.15-4.06,4.22-1.43,.05-2.86,.04-4.29,0-2.34-.07-4.05-1.81-4.13-4.16-.02-.67,0-1.35,0-2.02h-4.09c-.24,2.35-.04,4.55,1.26,6.54,1.64,2.49,4.04,3.66,7.06,3.91v4.02h4.12v-4.05c.34-.03,.56-.05,.77-.08,4.62-.61,7.81-4.39,7.51-8.9-.29-4.42-3.93-7.72-8.56-7.75-1.34,0-2.69,.04-4.03-.02-2.26-.08-4.02-1.9-4.04-4.11-.02-2.28,1.75-4.12,4.08-4.21,.95-.04,1.92-.11,2.86,.02,1.3,.18,2.76,.22,3.79,.89,.96,.63,1.45,1.99,2.23,3.15h3.68c-.05-1.99-.68-3.66-1.85-5.13-1.63-2.05-3.86-2.96-6.52-3.18v-4.03h-4.08v4.05Z"/><path class="cls-2" d="M109.46,81.4c-.9,1.08-1.75,2.1-2.66,3.19,3.28,2.74,6.47,5.4,9.65,8.07,.37,.31,.74,.6,1.09,.92,1.09,.99,1.28,2.11,.55,3.1-.7,.96-2.19,1.26-3.28,.57-.62-.39-1.16-.9-1.73-1.37-3.26-2.72-6.52-5.44-9.86-8.23-.9,1.07-1.75,2.09-2.67,3.19,3.34,2.79,6.59,5.51,9.85,8.23,.43,.36,.89,.71,1.27,1.12,.65,.7,.95,1.63,.34,2.37-.49,.59-1.35,1.18-2.07,1.21-1.71,.07-2.72-1.34-3.88-2.36-.12-.1-.07-.41-.07-.62,0-4.38-1.74-6.5-6.13-7.42-.54-3.55-2.56-5.73-6.26-6.24-.53-3.59-2.54-5.71-6.21-6.25-.09-.35-.18-.71-.27-1.08-.57-2.45-2.05-4.1-4.43-4.85-2.44-.76-4.64-.15-6.47,1.61-2.15,2.08-4.25,4.21-6.44,6.38-1.45-.86-2.95-1.71-4.39-2.66-.28-.18-.49-.82-.4-1.15,1.7-6.41,3.44-12.82,5.22-19.21,.09-.33,.51-.75,.84-.82,4.69-1.04,9.38-2.12,14.1-3,4.12-.77,8.06,.28,12.14,1.79-.63,.34-1.06,.58-1.51,.81-3.02,1.52-6.07,2.97-9.05,4.57-2.71,1.45-4.03,4.44-3.52,7.52,.5,3.01,2.69,5.27,5.71,5.85,1.79,.34,3.44-.09,4.98-1.01,2.35-1.4,4.68-2.82,7.02-4.22,2.33-1.39,3.98-1.22,6.01,.61,5.51,4.97,11.02,9.94,16.53,14.91,1.43,1.29,1.68,2.49,.77,3.59-.93,1.12-2.52,1.11-3.92-.05-3.6-2.99-7.18-5.99-10.86-9.06Z"/><path class="cls-4" d="M127.89,62.77c1.98-1.14,4-2.3,6.02-3.46,6.54-3.75,13.07-7.5,19.63-11.21,.6-.34,1.37-.52,2.07-.54,2.16-.07,4.32-.03,6.56-.03,.03,.46,.07,.83,.08,1.21,0,7.03-.01,14.07,.02,21.1,0,.88-.21,1.27-1.1,1.53-7.33,2.21-14.64,4.48-21.95,6.75-.61,.19-1.08,.36-1.54-.35-3.21-4.89-6.46-9.76-9.7-14.64-.04-.07-.03-.16-.07-.37Z"/><path class="cls-5" d="M109.47,111.11c.3-1.04,.57-1.99,.86-2.98,1.28-.65,2.5-.23,3.77,.31,12.86,5.46,20.05,18.4,18.88,31.53-1.31,14.69-12.57,25.85-25.77,28.07-17.32,2.92-33.48-8.74-36.22-26.21-2.04-12.99,4.72-26.32,16.4-32.32,.27-.14,.54-.26,.64-.31,1.26,1,2.44,1.92,3.67,2.9-6.55,2.83-11.54,7.46-14.51,14.11-2.99,6.69-3.2,13.55-.67,20.42,4.21,11.43,15.85,18.83,27.55,17.63,12.71-1.3,22.41-10.25,24.53-22.73,2.11-12.42-5.11-26.12-19.12-30.42Z"/><path class="cls-4" d="M41.59,47.53c2.45,0,4.79-.03,7.12,.02,.43,0,.9,.26,1.28,.51,5.09,3.38,10.18,6.77,15.24,10.2,.37,.25,.8,.91,.71,1.25-1.61,6.16-3.3,12.31-4.99,18.54-.34-.08-.63-.12-.89-.21-5.82-2.11-11.63-4.23-17.45-6.34-.63-.23-1.12-.39-1.11-1.29,.05-7.34,.03-14.68,.03-22.03,0-.17,.03-.33,.07-.66Z"/><path class="cls-2" d="M134.23,80.29c-2.36,1.42-4.69,2.83-7.11,4.29-1.93-1.74-3.86-3.47-5.79-5.21-3.87-3.49-7.72-6.98-11.6-10.47-3.39-3.04-7.07-3.4-10.97-1.07-2.27,1.36-4.52,2.73-6.8,4.08-1.74,1.03-3.43,.7-4.28-.8-.91-1.62-.34-3.52,1.4-4.41,3.82-1.94,7.65-3.87,11.5-5.75,2.11-1.03,4.31-1.16,6.58-.51,3.91,1.13,7.81,2.28,11.74,3.31,1.23,.32,2.56,.26,3.84,.46,.45,.07,1.04,.26,1.27,.59,3.35,4.96,6.66,9.95,9.97,14.94,.09,.14,.14,.31,.24,.54Z"/><path class="cls-2" d="M83.43,80.92c-.43,.82-.62,1.48-1.04,1.92-1.83,1.92-3.7,3.79-5.6,5.63-1.07,1.04-2.42,1.03-3.36,.07-.94-.95-.94-2.3,.1-3.37,1.84-1.9,3.72-3.76,5.61-5.62,.75-.74,1.7-1.06,2.6-.47,.66,.43,1.11,1.18,1.69,1.83Z"/><path class="cls-2" d="M89.67,87.18c-.43,.82-.62,1.48-1.04,1.92-1.83,1.91-3.7,3.79-5.6,5.63-1.06,1.04-2.42,1.02-3.36,.07-.94-.95-.94-2.3,.11-3.37,1.84-1.9,3.72-3.76,5.61-5.62,.75-.74,1.7-1.05,2.6-.46,.66,.43,1.1,1.18,1.68,1.84Z"/><path class="cls-2" d="M93.53,91.1c.6,.51,1.51,.92,1.77,1.59,.27,.67,.21,1.87-.23,2.37-1.93,2.17-4.02,4.2-6.13,6.19-.89,.84-2.22,.64-3.05-.23-.83-.87-.95-2.16-.09-3.07,1.97-2.07,4.02-4.08,6.07-6.07,.34-.33,.91-.44,1.66-.78Z"/><path class="cls-2" d="M99.81,97.39c.57,.48,1.47,.89,1.73,1.56,.27,.67,.21,1.87-.24,2.37-1.93,2.17-4.02,4.2-6.13,6.19-.89,.84-2.22,.64-3.05-.23-.79-.83-.97-2.11-.16-2.96,2.02-2.14,4.13-4.21,6.25-6.26,.31-.3,.85-.37,1.59-.67Z"/><path class="cls-2" d="M100.69,108.3c1.06-1.13,2.02-2.17,3.04-3.25,1.05,.85,2.5,1.46,2.23,3.06-.12,.7-.85,1.59-1.51,1.84-1.73,.67-2.76-.66-3.76-1.65Z"/><path class="cls-6" d="M99.82,122.57v-4.05h4.08v4.03c2.67,.22,4.89,1.13,6.52,3.18,1.17,1.47,1.8,3.14,1.85,5.13h-3.68c-.78-1.16-1.26-2.52-2.23-3.15-1.03-.67-2.5-.72-3.79-.89-.94-.13-1.9-.05-2.86-.02-2.33,.09-4.1,1.93-4.08,4.21,.02,2.21,1.78,4.03,4.04,4.11,1.34,.05,2.69,0,4.03,.02,4.63,.03,8.27,3.34,8.56,7.75,.29,4.51-2.89,8.29-7.51,8.9-.21,.03-.43,.04-.77,.08v4.05h-4.12v-4.02c-3.02-.24-5.43-1.41-7.06-3.91-1.3-1.98-1.5-4.18-1.26-6.54h4.09c0,.67-.02,1.35,0,2.02,.07,2.36,1.78,4.1,4.13,4.16,1.43,.04,2.86,.05,4.29,0,2.32-.08,4.1-1.96,4.06-4.22-.03-2.21-1.8-4.02-4.06-4.09-1.34-.05-2.69,0-4.03-.01-4.62-.04-8.27-3.37-8.54-7.77-.27-4.53,2.91-8.29,7.53-8.88,.21-.03,.42-.04,.8-.08Z"/></g></g></svg>