<?xml version="1.0" encoding="UTF-8"?><svg id="Layer_2" xmlns="http://www.w3.org/2000/svg" viewBox="0 0 110.17 121.78"><defs><style>.cls-1{fill:#fff;}.cls-2{fill:#06ffd5;}.cls-3{fill:#1a2959;}</style></defs><g id="Layer_1-2"><rect class="cls-2" x="78.54" y="16.12" width="14.75" height="64.01" rx="3.59" ry="3.59"/><polygon class="cls-2" points="24.95 75.56 38.4 105.53 37.51 112.94 26.78 118.03 15.4 119.69 7.21 108.96 3.84 92.15 3.23 83.3 7.98 78.33 22.39 74.79 24.95 75.56"/><g><path class="cls-3" d="M108.78,65.58c1.89,3.52,1.47,7.23-1.45,9.96-2.53,2.37-5.29,4.5-7.97,6.7-4.09,3.36-8.17,6.73-12.29,10.04-2.63,2.1-5.69,3.34-8.95,4.14-12.32,3-24.65,6.02-36.98,9.04-.34,.08-.67,.19-.91,.26-.13,1.66-.08,3.3-.42,4.84-.89,3.98-3.39,6.72-7.27,7.84-4.09,1.17-8.28,1.96-12.43,2.92-.22,.05-.44,.14-.67,.21h-2.84c-2.08-.51-4.07-1.19-5.73-2.65-1.68-1.47-2.83-3.28-3.42-5.42-.8-2.88-1.51-5.79-2.27-8.69-.23-.9-.06-1.66,.75-2.17,1.06-.68,2.28-.1,2.67,1.34,.72,2.58,1.38,5.18,2.06,7.77,1.27,4.88,4.82,7.03,9.73,5.9,3.31-.76,6.62-1.49,9.92-2.25,4.55-1.04,7.33-5.93,5.73-10.26-3.58-9.64-7.21-19.27-10.82-28.9-.07-.18-.15-.35-.27-.63-2.66,.75-5.31,1.51-7.95,2.26-2.12,.6-4.24,1.19-6.36,1.81-4.8,1.39-6.95,5.18-5.71,10.03,.52,2.03,1.05,4.05,1.55,6.08,.33,1.32-.14,2.28-1.22,2.53-.99,.23-1.85-.37-2.19-1.64-.64-2.48-1.33-4.95-1.85-7.46-1.15-5.5,2.28-11.25,8.29-12.91,4.98-1.38,9.97-2.71,14.87-4.31,2.26-.74,4.34-2.04,6.46-3.16,.25-.14,.36-.74,.36-1.13,.03-4.93-.01-9.87,.03-14.8,.02-3.84,2.02-6.8,5.53-7.35,2.65-.42,5.46-.41,8.11,0,3.47,.55,5.49,3.5,5.56,7.24,.03,1.81,0,3.62,0,5.66,1.08-.57,2.05-.99,2.9-1.58,.28-.19,.33-.83,.33-1.27,.02-5.41,.02-10.82,.01-16.23-.01-3.48,1.29-6.21,4.46-7.86,3.99-2.08,10.44-.97,13,2.19,1.4,1.72,1.78,3.73,1.78,5.87v36.39c.18,.06,.22,.08,.26,.08q2.95-.2,2.95-3.09c0-16.86,0-33.72-.01-50.57,0-2.83,.77-5.32,3.1-7.09,.77-.58,1.67-1.14,2.59-1.33,3.28-.67,6.61-1,9.67,.76,2.25,1.3,3.59,3.33,3.77,5.95,.13,1.97,.11,3.95,.09,5.92-.02,1.27-.69,1.94-1.76,1.94-1.06,0-1.7-.68-1.74-1.96-.05-1.5-.01-3-.03-4.5-.04-3.26-1.75-4.97-4.98-4.98-.98,0-1.97-.03-2.96,.02-2.06,.11-3.72,1.61-4.07,3.65-.07,.42-.11,.86-.11,1.29,0,17.06,0,34.11,0,51.17,0,.19,.02,.39,.05,.79,.58-.28,1.13-.47,1.58-.79,3.33-2.32,6.66-4.65,9.93-7.06,.37-.27,.55-1,.55-1.52,.04-9.79,.03-19.58,.03-29.37,0-.52,.01-1.03,.09-1.54,.15-.92,.81-1.38,1.66-1.39,.91,0,1.58,.49,1.72,1.47,.06,.47,.06,.95,.07,1.42v27.75c1.52-.58,2.86-1.28,4.28-1.6,3.84-.88,7.31,.8,9.15,4.23Zm-4.83,8.29c2.44-2.02,3.01-4.71,1.53-6.89-1.76-2.62-4.71-3.16-7.42-1.27-4.63,3.22-9.24,6.47-13.85,9.73-2.98,2.11-6.23,3.76-9.87,3.97-5.42,.31-10.88,.23-16.32,.25-1.76,.01-3.01-.95-3.59-2.59-.59-1.69-.15-3.2,1.2-4.38,.92-.81,1.88-1.57,2.84-2.33,2.69-2.13,4.23-4.94,4.96-8.24,.42-1.92-.66-3.79-2.6-4.11-.92-.15-2.06,.09-2.9,.53-9.64,5.05-19.24,10.17-28.85,15.27-.24,.13-.46,.28-.78,.47,3.51,9.36,7,18.68,10.5,28.01,.26,0,.34,.01,.42,0,11.36-2.79,22.73-5.56,34.09-8.36,3.44-.85,7.02-1.35,10.01-3.41,2.21-1.52,4.28-3.24,6.36-4.93,4.77-3.88,9.53-7.79,14.27-11.72Zm-34.6,2.19V39.46c0-.43-.02-.87-.07-1.29-.31-2.31-1.94-3.86-4.27-4.01-.82-.05-1.65-.02-2.48-.02-3.6,.01-5.29,1.69-5.3,5.29-.01,4.7,0,9.39,0,14.09v1.23c.58-.13,.99-.22,1.41-.31,4.77-1.02,9.23,3.19,8.31,8-.34,1.76-.99,3.48-1.7,5.13-1.37,3.16-4.02,5.21-6.64,7.26-.38,.29-.78,.57-1.18,.85,.1,.13,.19,.25,.28,.38h11.64Zm-22.48-16.32c.03-2.48,.08-4.97-.02-7.45-.09-2.09-1.62-3.45-3.72-3.5-1.33-.03-2.67,0-4.01,0-3,0-4.34,1.33-4.35,4.31-.01,4.14,0,8.27,0,12.41,0,.34,.04,.68,.06,1.01,.16,.01,.25,.05,.31,.02,3.76-1.98,7.52-3.96,11.26-5.97,.24-.13,.46-.54,.47-.82Z"/><path class="cls-1" d="M105.48,66.98c1.48,2.18,.91,4.87-1.53,6.89-4.74,3.93-9.5,7.84-14.27,11.72-2.08,1.69-4.15,3.41-6.36,4.93-2.99,2.06-6.57,2.56-10.01,3.41-11.36,2.8-22.73,5.57-34.09,8.36-.08,.01-.16,0-.42,0-3.5-9.33-6.99-18.65-10.5-28.01,.32-.19,.54-.34,.78-.47,9.61-5.1,19.21-10.22,28.85-15.27,.84-.44,1.98-.68,2.9-.53,1.94,.32,3.02,2.19,2.6,4.11-.73,3.3-2.27,6.11-4.96,8.24-.96,.76-1.92,1.52-2.84,2.33-1.35,1.18-1.79,2.69-1.2,4.38,.58,1.64,1.83,2.6,3.59,2.59,5.44-.02,10.9,.06,16.32-.25,3.64-.21,6.89-1.86,9.87-3.97,4.61-3.26,9.22-6.51,13.85-9.73,2.71-1.89,5.66-1.35,7.42,1.27Z"/><path class="cls-3" d="M72.51,6.81c0,4.38,.04,8.77,0,13.15-.04,3.63-3.04,6.05-6.61,5.42-2.02-.35-3.18-1.66-3.78-3.5-.31-.96-.43-1.99-.66-3.13-.31,.28-.62,.55-.91,.84-4.13,3.96-8.25,7.94-12.37,11.9-2.56,2.46-4.57,2.75-7.7,1.13-1.33-.68-2.7-1.32-3.98-2.08-.79-.47-1.25-.38-1.89,.28-8.16,8.26-16.34,16.48-24.52,24.72-1.35,1.37-2.84,2.4-4.9,2.08-2.1-.33-3.67-1.41-4.49-3.4-.81-1.96-.48-3.79,.81-5.46,.28-.37,.62-.71,.95-1.05L29.81,20.14c2.64-2.66,4.59-2.96,7.96-1.22,1.44,.74,2.86,1.51,4.32,2.19,.32,.15,.95,.1,1.19-.13,3.27-3.09,6.5-6.22,9.74-9.35,.07-.08,.12-.19,.23-.36-.65-.11-1.26-.16-1.85-.3-2.41-.59-3.77-2.16-3.98-4.53-.22-2.5,1.03-4.71,3.2-5.7,.35-.16,.69-.32,1.04-.49h16.58c3.56,1.52,4.27,2.62,4.27,6.56Zm-3.56,12.74c.02-2.25,.01-4.5,.01-6.75s0-4.65-.01-6.98c-.01-1.42-.54-2-1.9-2-4.66-.03-9.31-.03-13.97,0-1.3,0-2.12,.8-2.12,1.91,0,1.11,.83,1.85,2.14,1.88,1.38,.03,2.76,.02,4.14,0,.96-.01,1.83,.11,2.27,1.12,.45,1.03-.12,1.72-.81,2.38-4.66,4.48-9.33,8.96-13.97,13.47-.94,.91-1.86,1.01-2.99,.4-1.94-1.05-3.91-2.04-5.88-3.04-1.74-.9-1.97-.86-3.38,.55-9.14,9.22-18.29,18.43-27.43,27.65-.25,.25-.52,.49-.73,.77-.7,.92-.64,1.95,.13,2.67,.73,.69,1.83,.65,2.66-.1,.29-.27,.56-.56,.84-.84,8.45-8.51,16.9-17.03,25.35-25.54,1.22-1.23,1.7-1.3,3.23-.52,1.86,.95,3.71,1.91,5.57,2.87,1.79,.92,2.15,.87,3.63-.55,5.26-5.06,10.52-10.12,15.78-15.19,.72-.69,1.43-1.43,2.57-.92,1.06,.48,1.09,1.43,1.08,2.41-.02,1.46-.02,2.92,0,4.38,.01,1.49,.74,2.36,1.91,2.35s1.88-.88,1.88-2.38Z"/><path class="cls-2" d="M69.35,74.85v1.21h-11.64c-.09-.13-.18-.25-.28-.38,.4-.28,.8-.56,1.18-.85,2.62-2.05,5.27-4.1,6.64-7.26,.71-1.65,1.36-3.37,1.7-5.13,.92-4.81-3.54-9.02-8.31-8-.42,.09-.83,.18-1.41,.31v-1.23c0-4.7-.01-9.39,0-14.09,.01-3.6,1.7-5.28,5.3-5.29,.83,0,1.66-.03,2.48,.02,2.33,.15,3.96,1.7,4.27,4.01,.05,.42,.07,.86,.07,1.29v35.39Z"/><path class="cls-2" d="M68.96,12.8c0,2.25,0,4.5-.01,6.75,0,1.5-.71,2.37-1.88,2.38s-1.9-.86-1.91-2.35c-.02-1.46-.02-2.92,0-4.38,.01-.98-.02-1.93-1.08-2.41-1.14-.51-1.85,.23-2.57,.92-5.26,5.07-10.52,10.13-15.78,15.19-1.48,1.42-1.84,1.47-3.63,.55-1.86-.96-3.71-1.92-5.57-2.87-1.53-.78-2.01-.71-3.23,.52-8.45,8.51-16.9,17.03-25.35,25.54-.28,.28-.55,.57-.84,.84-.83,.75-1.93,.79-2.66,.1-.77-.72-.83-1.75-.13-2.67,.21-.28,.48-.52,.73-.77,9.14-9.22,18.29-18.43,27.43-27.65,1.41-1.41,1.64-1.45,3.38-.55,1.97,1,3.94,1.99,5.88,3.04,1.13,.61,2.05,.51,2.99-.4,4.64-4.51,9.31-8.99,13.97-13.47,.69-.66,1.26-1.35,.81-2.38-.44-1.01-1.31-1.13-2.27-1.12-1.38,.02-2.76,.03-4.14,0-1.31-.03-2.13-.77-2.14-1.88,0-1.11,.82-1.91,2.12-1.91,4.66-.03,9.31-.03,13.97,0,1.36,0,1.89,.58,1.9,2,.02,2.33,.01,4.66,.01,6.98Z"/><path class="cls-2" d="M46.85,52.29c.1,2.48,.05,4.97,.02,7.45-.01,.28-.23,.69-.47,.82-3.74,2.01-7.5,3.99-11.26,5.97-.06,.03-.15-.01-.31-.02-.02-.33-.06-.67-.06-1.01,0-4.14-.01-8.27,0-12.41,.01-2.98,1.35-4.3,4.35-4.31,1.34,0,2.68-.02,4.01,0,2.1,.05,3.63,1.41,3.72,3.5Z"/><path class="cls-3" d="M22.36,99.56c3.8-.02,7.02,3.2,7.01,7.01-.01,3.84-3.19,6.98-7.04,6.95-3.87-.02-6.96-3.16-6.93-7.04,.03-3.78,3.17-6.9,6.96-6.92Zm3.46,7.03c.02-1.88-1.56-3.48-3.44-3.48-1.83-.01-3.38,1.5-3.42,3.35-.05,1.92,1.44,3.48,3.35,3.51,1.92,.02,3.49-1.49,3.51-3.38Z"/><path class="cls-1" d="M22.38,103.11c1.88,0,3.46,1.6,3.44,3.48-.02,1.89-1.59,3.4-3.51,3.38-1.91-.03-3.4-1.59-3.35-3.51,.04-1.85,1.59-3.36,3.42-3.35Z"/></g></g></svg>