<?xml version="1.0" encoding="UTF-8"?><svg id="Layer_2" xmlns="http://www.w3.org/2000/svg" viewBox="0 0 200 200"><defs><style>.cls-1{fill:#e9f6f6;}.cls-2{fill:#fff;}.cls-3{fill:#caf0f7;}.cls-4{fill:#d2eded;}.cls-5{fill:#06ffd5;}.cls-6{fill:#1a2959;}</style></defs><g id="Layer_1-2"><g><circle class="cls-1" cx="100" cy="100" r="100"/><g><path class="cls-6" d="M134.14,137.84c4.26-3.2,5.77-7.63,5.57-12.81-.18-4.69-1.37-9.21-2.19-13.79-.7-3.91-1.21-7.83-1.08-11.81,.03-.85,.23-1.53,.87-2.2,1.9-2,2.67-4.43,2.08-7.17-.1-.47-.07-.8,.12-1-.29-.62-.43-1.35-.37-2.18,0-.08,.02-.15,.03-.22-.02-.17-.03-.34-.03-.52,0-2.9,.92-5.72,1.07-8.62,.09-1.66-.23-3.28-.47-4.92-.65-1.45-1.15-2.92-1.49-4.4-1.76-3.32-3.96-6.35-5.43-9.79-.19-.1-.29-.33-.42-.48-5.62-6.27-12.6-9.65-21.02-10.01-.52-.02-.95-.18-1.4-.4-20.38-9.86-43.94,1.67-48.67,23.84-1.06,4.95-.93,9.92,.27,14.85,.18,.73,.11,1.32-.2,2-1.43,3.09-.8,6.72,1.59,9.16,.51,.51,.7,1.01,.74,1.71,.28,5.62-.8,11.09-1.88,16.55-.7,3.56-1.44,7.12-1.36,10.78,.1,4.78,1.85,8.75,5.79,11.59,.64,.46,.59,.74,.22,1.35-3.79,6.22-5.76,12.98-5.86,20.28-.02,1.53,.39,2.65,1.82,3.29h75.46c1.36-.78,1.77-1.95,1.72-3.5-.22-7.11-2.07-13.74-5.75-19.83-.47-.77-.51-1.15,.28-1.74Zm-20.56-84.79c7.64,1.14,13.45,5.03,17.56,11.54,.09,.14,.15,.29,.22,.44,.01,.03-.03,.08-.08,.22-3.15-.12-6.35,.29-9.53-.24-5.23-.87-9.25-5.66-9.34-10.95-.02-.97,.23-1.16,1.18-1.02Zm-1.62,12.07c2.47,2.41,5.16,3.99,8.33,4.69,1.29,.28,2.6,.41,3.92,.41,2.84-.01,5.68,0,8.52,0,.53,0,.89,.03,1.07,.69,1.09,4.03,1.07,8.06,.12,12.11-.13,.54-.39,.67-.88,.52-.88-.27-1.8-.17-2.7-.2-1.46-.05-2.16-.66-2.39-2.12-.29-1.82-1.13-2.56-3.03-2.53-2.5,.05-4.95-.11-7.17-1.42-4.53-2.68-6.32-6.72-5.79-12.16Zm-25.53,38.81c1.53,0,3.05,.02,4.58,0,3.78-.06,6.88-2.49,7.8-6.19,.2-.8,.52-1.03,1.32-1,.71,.03,1.02,.15,1.21,.96,.87,3.71,4.06,6.17,7.91,6.23,1.73,.02,3.46,.03,5.19,0,4.54-.07,8.08-3.57,8.08-8.11,0-1.25,.34-2.01,1.41-2.68,1.98-1.25,3.85-2.68,5.77-4.04,1.68-1.19,3.49-.84,4.47,.87,.96,1.67,.31,3.78-1.44,4.61-.61,.29-1.26,.35-1.92,.36-2.34,.03-3.09,.73-3.29,3.05-1,11.41-9.97,21.56-21.25,24.03-2.06,.45-4.14,.71-5.56,.72-14.68-.03-26.52-10.8-28.08-24.92-.25-2.22-.94-2.85-3.16-2.88-2.58-.04-4.07-1.49-3.84-3.74,.24-2.38,2.77-3.56,4.7-2.2,2.12,1.49,4.23,3.01,6.38,4.47,.64,.44,.92,.89,.92,1.7,.01,5.43,3.4,8.76,8.82,8.77Zm-.85-11.37h2.84c1.6,0,3.21,.03,4.81-.01,.7-.02,.96,.21,.91,.91-.05,.82,.01,1.65-.03,2.47-.09,1.69-1.31,2.96-3,3.01-1.85,.06-3.7,.06-5.55,0-1.54-.05-2.66-1.14-2.94-2.67-.62-3.37-.35-3.71,2.96-3.71Zm20.43,.64c-.01-.59,.35-.65,.81-.65,3.33,0,6.67,.01,10,0,.56,0,.87,.15,.8,.76,0,.08,0,.17,0,.25,.18,4.12-.33,5.75-5.94,5.41-.77,0-1.63,.03-2.49,0-1.66-.07-2.9-1.14-3.1-2.79-.12-.98-.04-1.97-.07-2.96Zm3.77-16.62c3.18,4.36,7.43,6.8,12.85,7,.76,.03,.98,.44,1.2,.98,.27,.67,1.27,1.15,1.01,1.79-.24,.58-1.13,.9-1.73,1.33-.13,.1-.28,.18-.4,.29-.94,.9-1.84,1.28-3.02,.25-.68-.59-1.68-.62-2.6-.62-3.5,0-7.01,0-10.51,0-2.48,0-4.28,1.14-5.15,3.48-.28,.77-.73,.74-1.3,.71-.54-.02-1.06,.15-1.36-.66-.87-2.41-2.71-3.53-5.24-3.54-3.46,0-6.93,0-10.39,0-1.23,0-2.39,.25-3.36,1.03-.51,.41-.85,.42-1.36,.02-1.07-.83-2.2-1.58-3.33-2.38,.27-.33,.57-.55,.67-.83,.61-1.82,1.98-1.86,3.59-1.83,4.86,.08,9.73-.1,14.59,.06,7.43,.24,12.27-3.06,15.34-7.56,.28,.04,.36,.29,.5,.48Zm-42.21-8.88c1.83-5.16,5-9.38,9.34-12.64,8.91-6.7,18.62-7.87,29.05-4.01,1.56,.58,1.57,1.51,1.52,2.81-.18,4.98-3.14,9.15-7.72,10.73-1.29,.45-2.63,.65-4,.64-2.26-.01-4.53,0-6.79,0-1.93,0-2.66,.6-3.07,2.48,.42,1.83,1.16,2.46,2.97,2.47,2.51,.01,5.03,.04,7.54-.02,3.88-.09,7.31-1.44,10.43-4.06,.13,1.36-.01,2.52-.28,3.65-1.23,5.24-5.55,8.81-10.93,8.87-6.72,.08-13.44,.02-20.16,.03-2.16,0-2.79,.54-3.22,2.7-.25,1.25-1.01,1.91-2.33,1.95-1.03,.03-2.07-.05-3.07,.26-.57,.18-.84,0-.92-.59-.72-5.23-.45-10.36,1.63-15.3Zm-2.06,56.12c.47-4.85,1.76-9.56,2.47-14.36,.26-1.78,.47-3.56,.73-5.62,2.67,8.77,7.9,15.24,15.74,19.82-4.1,1.87-7.71,4.15-10.87,7.09-1.02,.95-2.04,1.93-2.94,3-.62,.74-1.03,.64-1.7,.11-3.28-2.62-3.82-6.17-3.44-10.04Zm10.8,31.89c.38,.37,.81,.7,1.22,1.05,.38,.32,.76,.63,1.41,1.18-4.46,0-8.57,0-12.67,0-1,0-.61-.71-.57-1.13,.6-6.2,2.65-11.88,6.28-16.96,1.38-1.94,2.92-3.74,4.69-5.3,0,2.7,0,5.32,0,7.93,0,.54-.06,1.07-.08,1.61-.04,1.29,.49,2.22,1.71,2.73,.83,.35,1.64,.74,2.66,1.2-1.03,.88-1.94,1.67-2.86,2.45-.6,.51-1.23,.98-1.79,1.52-1.16,1.12-1.15,2.58,0,3.71Zm10.75,2.23c-.37,0-.62-.19-.87-.4-1.23-1.03-2.43-2.1-3.71-3.08-.71-.54-.5-.81,.06-1.26,1.41-1.13,2.78-2.32,4.18-3.48,2.16-1.8,1.88-3.76-.72-4.91-1.17-.52-2.31-1.08-3.51-1.52-.71-.27-.88-.68-.85-1.4,.14-3.46,.25-6.93,.31-10.39,.01-.76,.23-1.22,.92-1.54,.82-.38,1.6-.83,2.48-1.29,2.33,9.79,4.64,19.47,6.97,29.27-1.82,0-3.54,0-5.27,0Zm19.76-16.99c-1.33,5.39-2.59,10.8-3.86,16.21-.13,.56-.35,.89-.99,.79-.36-.05-.74,0-1.11-.01-1.14-.06-2.58,.47-3.34-.22-.68-.63-.66-2.04-.92-3.12-1.06-4.44-2.1-8.89-3.18-13.33-.21-.87-.15-1.25,.91-1.19,1.93,.09,3.87,.03,5.8,.03,1.98,0,3.95,.01,5.93,0,.62,0,.97-.01,.76,.85Zm-6.73-5.8c-2.31,0-4.62-.07-6.92,.03-1.02,.05-1.33-.36-1.51-1.24-.4-1.93-.88-3.85-1.33-5.78-.34-1.46,.1-1.86,1.63-1.51,1.6,.37,3.22,.67,4.86,.85,3.77,.42,7.48,.05,11.15-.81,.32-.07,.66-.21,.96-.16,.73,.13,1.38,.23,1.02,1.38-.63,2.08-1.06,4.23-1.53,6.36-.15,.69-.44,.91-1.16,.89-2.39-.05-4.78-.02-7.17-.02Zm12.95,14.19c1.73,1.52,3.51,2.98,5.34,4.52-1.55,1.3-3.04,2.53-4.51,3.78-.35,.3-.74,.31-1.15,.3-1.28,0-2.56-.04-3.83,.01-.84,.04-1.04-.16-.82-1.03,1.59-6.52,3.13-13.05,4.68-19.58,.61-2.56,1.26-5.12,1.82-7.69,.18-.8,.4-.84,1.14-.56,1.83,.68,2.67,1.78,2.61,3.85-.09,2.96,.12,5.94,.26,8.9,.04,.79-.21,1.19-.94,1.47-1.34,.53-2.66,1.11-3.96,1.73-1.91,.9-2.22,2.9-.63,4.3Zm21.42,7.68c.04,.53,.11,.94-.68,.94-4.07-.03-8.15-.01-12.54-.01,.98-.82,1.72-1.41,2.42-2.04,1.44-1.29,1.44-2.84-.04-4.13-1.4-1.22-2.84-2.39-4.33-3.64,.61-.59,1.38-.75,2.06-1.06,1.89-.87,2.24-1.36,2.18-3.39-.07-2.64-.17-5.28-.25-7.92-.01-.39,0-.79,0-1.42,2.94,2.67,5.2,5.56,7,8.82,2.38,4.32,3.81,8.93,4.19,13.85Zm-3.52-22.96c-.4,.3-.7,.49-1.13-.01-3.85-4.47-8.52-7.86-14.01-10.35,9.45-6.69,11.32-9.02,15.7-19.71,.2,1.7,.31,3.14,.55,4.57,.8,4.71,1.7,9.41,2.46,14.13,.34,2.08,.38,4.19-.11,6.28-.5,2.14-1.72,3.81-3.46,5.11Z"/><path class="cls-2" d="M100.71,122.74c-14.68-.03-26.52-10.8-28.08-24.92-.25-2.22-.94-2.85-3.16-2.88-2.58-.04-4.07-1.49-3.84-3.74,.24-2.38,2.77-3.56,4.7-2.2,2.12,1.49,4.23,3.01,6.38,4.47,.64,.44,.92,.89,.92,1.7,.01,5.43,3.4,8.76,8.82,8.77,1.53,0,3.05,.02,4.58,0,3.78-.06,6.88-2.49,7.8-6.19,.2-.8,.52-1.03,1.32-1,.71,.03,1.02,.15,1.21,.96,.87,3.71,4.06,6.18,7.91,6.23,1.73,.02,3.46,.03,5.19,0,4.54-.07,8.08-3.57,8.08-8.11,0-1.25,.34-2.01,1.41-2.68,1.98-1.25,3.85-2.68,5.77-4.04,1.68-1.19,3.49-.84,4.47,.87,.96,1.67,.31,3.78-1.44,4.61-.61,.29-1.26,.35-1.92,.36-2.34,.03-3.09,.73-3.29,3.05-1,11.41-9.97,21.56-21.25,24.03-2.06,.45-4.14,.71-5.56,.72Zm-.82-14.87c-2.63,.06-5.07,.99-7.11,2.91-1.16,1.09-1.31,2.58-.38,3.62,.97,1.09,2.38,1.13,3.63,.1,2.75-2.26,5.34-2.26,8.13-.01,1.28,1.04,2.67,1.01,3.63-.08,.99-1.12,.84-2.56-.43-3.71-2.07-1.88-4.51-2.81-7.46-2.83Z"/><path class="cls-4" d="M67.58,67.71c1.83-5.16,5-9.38,9.34-12.64,8.91-6.7,18.62-7.87,29.05-4.01,1.56,.58,1.57,1.51,1.52,2.82-.18,4.98-3.14,9.15-7.72,10.73-1.29,.45-2.63,.65-4,.64-2.26-.01-4.53,0-6.79,0-1.93,0-2.66,.6-3.07,2.48-2.04,0-4.07,0-6.11,0-.35-1.64-1.14-2.45-2.45-2.48-1.35-.03-2.21,.79-2.58,2.48-2.4,0-4.79-.02-7.19-.03Z"/><path class="cls-4" d="M67.58,67.71c2.4,0,4.79,.02,7.19,.03,.38,1.66,1.25,2.5,2.57,2.46,1.28-.03,2.09-.84,2.45-2.46,2.04,0,4.07,0,6.11,0,.42,1.83,1.16,2.46,2.97,2.47,2.51,.01,5.03,.04,7.54-.02,3.88-.09,7.31-1.44,10.43-4.06,.13,1.36-.01,2.52-.28,3.65-1.23,5.24-5.55,8.81-10.93,8.87-6.72,.08-13.44,.02-20.16,.03-2.16,0-2.79,.54-3.22,2.7-.25,1.25-1.01,1.91-2.33,1.95-1.03,.03-2.07-.05-3.07,.26-.57,.18-.84,0-.92-.59-.72-5.23-.45-10.36,1.63-15.3Z"/><path class="cls-2" d="M75.1,86.27c.27-.33,.57-.55,.67-.83,.61-1.82,1.98-1.86,3.59-1.83,4.86,.08,9.73-.1,14.59,.06,7.43,.24,12.27-3.06,15.34-7.56,.28,.04,.36,.29,.5,.48,3.18,4.36,7.43,6.8,12.85,7,.76,.03,.98,.44,1.2,.98,.27,.67,1.27,1.15,1.01,1.79-.24,.58-1.13,.9-1.73,1.33-.13,.1-.28,.18-.4,.29-.94,.9-1.84,1.28-3.02,.25-.68-.59-1.68-.62-2.6-.62-3.5,0-7.01,0-10.51,0-2.48,0-4.28,1.14-5.15,3.48-.28,.77-.73,.74-1.3,.71-.54-.02-1.06,.15-1.36-.66-.87-2.41-2.71-3.53-5.24-3.54-3.46,0-6.93,0-10.39,0-1.23,0-2.39,.25-3.36,1.03-.51,.41-.85,.42-1.36,.02-1.07-.83-2.2-1.58-3.33-2.38Z"/><path class="cls-4" d="M84.46,123.67c-4.1,1.87-7.71,4.15-10.87,7.09-1.02,.95-2.04,1.93-2.94,3-.62,.74-1.03,.64-1.7,.11-3.28-2.62-3.82-6.17-3.44-10.04,.47-4.85,1.76-9.56,2.47-14.36,.26-1.78,.47-3.57,.73-5.62,2.67,8.77,7.9,15.24,15.74,19.82Z"/><path class="cls-4" d="M115.82,123.7c9.45-6.69,11.32-9.02,15.7-19.71,.2,1.7,.31,3.14,.55,4.57,.8,4.71,1.7,9.41,2.46,14.13,.34,2.08,.38,4.19-.11,6.28-.5,2.14-1.72,3.81-3.46,5.11-.4,.3-.7,.49-1.13-.01-3.85-4.47-8.52-7.86-14.01-10.35Z"/><path class="cls-4" d="M111.97,65.12c2.47,2.41,5.16,3.99,8.33,4.69,1.29,.28,2.6,.41,3.92,.41,2.84-.01,5.68,0,8.52,0,.53,0,.89,.03,1.07,.69,1.09,4.03,1.07,8.06,.12,12.11-.13,.54-.39,.67-.88,.52-.88-.27-1.8-.17-2.7-.2-1.46-.05-2.16-.66-2.39-2.12-.29-1.82-1.13-2.56-3.03-2.53-2.5,.05-4.95-.11-7.17-1.42-4.53-2.68-6.32-6.72-5.79-12.16Z"/><path class="cls-5" d="M78.95,157.95c-4.46,0-8.57,0-12.67,0-1,0-.61-.71-.57-1.13,.6-6.2,2.65-11.88,6.28-16.96,1.38-1.94,2.92-3.74,4.69-5.3,0,2.7,0,5.32,0,7.93,0,.54-.06,1.07-.08,1.61-.04,1.29,.49,2.22,1.71,2.73,.83,.35,1.64,.74,2.66,1.2-1.03,.88-1.94,1.67-2.86,2.45-.6,.51-1.23,.98-1.79,1.52-1.16,1.12-1.15,2.58,0,3.71,.38,.37,.81,.7,1.22,1.05,.38,.32,.76,.63,1.41,1.18Z"/><path class="cls-5" d="M121.27,157.95c.98-.82,1.72-1.41,2.42-2.04,1.44-1.29,1.44-2.84-.04-4.13-1.4-1.22-2.84-2.39-4.33-3.64,.61-.59,1.38-.75,2.06-1.06,1.89-.87,2.24-1.36,2.18-3.39-.07-2.64-.17-5.28-.25-7.92-.01-.39,0-.79,0-1.42,2.94,2.67,5.2,5.56,7,8.82,2.38,4.32,3.81,8.93,4.19,13.85,.04,.53,.11,.94-.68,.94-4.07-.03-8.15-.01-12.54-.01Z"/><path class="cls-1" d="M100.15,140.12c1.98,0,3.95,.01,5.93,0,.62,0,.97-.01,.76,.85-1.33,5.39-2.59,10.8-3.86,16.21-.13,.56-.35,.89-.99,.79-.36-.05-.74,0-1.11-.01-1.14-.06-2.58,.47-3.34-.22-.68-.63-.66-2.04-.92-3.12-1.06-4.44-2.1-8.89-3.18-13.33-.21-.87-.15-1.25,.91-1.19,1.93,.09,3.87,.03,5.8,.03Z"/><path class="cls-5" d="M118.4,153.87c-1.55,1.3-3.04,2.53-4.51,3.78-.35,.3-.74,.31-1.15,.3-1.28,0-2.56-.04-3.83,.01-.84,.04-1.04-.16-.82-1.03,1.59-6.52,3.13-13.05,4.68-19.58,.61-2.56,1.26-5.12,1.82-7.69,.18-.8,.4-.84,1.14-.56,1.83,.68,2.67,1.78,2.61,3.85-.09,2.96,.12,5.94,.26,8.9,.04,.79-.21,1.19-.94,1.47-1.34,.53-2.66,1.11-3.96,1.73-1.91,.9-2.22,2.9-.63,4.3,1.73,1.52,3.51,2.98,5.34,4.52Z"/><path class="cls-5" d="M92.34,157.95c-1.82,0-3.54,0-5.27,0-.37,0-.62-.19-.87-.4-1.23-1.03-2.43-2.1-3.71-3.08-.71-.54-.5-.81,.06-1.26,1.41-1.13,2.78-2.32,4.18-3.48,2.16-1.8,1.88-3.76-.72-4.91-1.17-.52-2.31-1.08-3.51-1.52-.71-.27-.88-.68-.85-1.4,.14-3.46,.25-6.93,.31-10.39,.01-.76,.23-1.22,.92-1.54,.82-.38,1.6-.83,2.48-1.29,2.33,9.79,4.64,19.47,6.97,29.27Z"/><path class="cls-2" d="M100.11,135.16c-2.31,0-4.62-.07-6.92,.03-1.02,.05-1.33-.36-1.51-1.24-.4-1.93-.88-3.85-1.33-5.78-.34-1.46,.1-1.86,1.63-1.51,1.6,.37,3.22,.67,4.86,.85,3.77,.42,7.48,.05,11.15-.81,.32-.07,.66-.21,.96-.16,.73,.13,1.38,.23,1.02,1.38-.63,2.08-1.06,4.23-1.53,6.36-.15,.69-.44,.91-1.16,.89-2.39-.05-4.78-.02-7.17-.02Z"/><path class="cls-4" d="M131.28,65.26c-3.15-.12-6.35,.29-9.53-.24-5.23-.87-9.25-5.66-9.34-10.95-.02-.97,.23-1.16,1.18-1.02,7.64,1.14,13.45,5.03,17.56,11.54,.09,.14,.15,.29,.22,.44,.01,.03-.03,.08-.08,.22Z"/><path class="cls-3" d="M111.69,98.97c-.76,0-1.63,.03-2.49,0-1.66-.07-2.9-1.14-3.1-2.79-.12-.98-.04-1.97-.07-2.96-.01-.59,.35-.65,.81-.65,3.33,0,6.67,.01,10,0,.56,0,.87,.15,.8,.76,0,.08,0,.16,0,.25,.18,4.12-.33,5.75-5.94,5.41Z"/><path class="cls-3" d="M88.43,92.56c1.6,0,3.21,.03,4.81-.01,.7-.02,.96,.21,.91,.91-.05,.82,.01,1.65-.03,2.47-.09,1.69-1.31,2.96-3,3.01-1.85,.06-3.7,.06-5.55,0-1.54-.05-2.66-1.14-2.94-2.67-.62-3.37-.35-3.71,2.96-3.71,.95,0,1.89,0,2.84,0Z"/><path class="cls-6" d="M99.9,107.87c2.95,.02,5.39,.96,7.46,2.83,1.27,1.15,1.42,2.59,.43,3.71-.96,1.09-2.34,1.12-3.63,.08-2.79-2.25-5.38-2.25-8.13,.01-1.25,1.03-2.66,.99-3.63-.1-.92-1.04-.77-2.54,.38-3.62,2.04-1.92,4.48-2.85,7.11-2.91Z"/><path class="cls-6" d="M79.8,67.74c-.36,1.62-1.16,2.43-2.45,2.46-1.32,.03-2.2-.8-2.57-2.46,.37-1.69,1.23-2.52,2.58-2.48,1.3,.03,2.1,.84,2.45,2.48Z"/></g></g></g></svg>