<?xml version="1.0" encoding="UTF-8"?><svg id="Layer_2" xmlns="http://www.w3.org/2000/svg" viewBox="0 0 200 250.65"><defs><style>.cls-1{fill:#e9f6f6;}.cls-2{fill:#e8e8e8;}.cls-3{fill:#add;}.cls-4{fill:#06ffd5;}.cls-5{fill:#1a2959;}</style></defs><g id="Layer_1-2"><g><path class="cls-5" d="M125.79,7.88c1.49-6.59,5.71-8.14,12.12-7.85,11.58,.53,23.21,.13,34.81,.16,5.51,.01,7.08,2.39,4.99,7.48-3.62,8.8-7.25,17.6-10.87,26.4-.13,.16-.3,.29-.38,.47-7.07,16.81-14.11,33.63-21.26,50.4-.68,1.6-.03,2.45,.71,3.6,6.41,9.99,14.29,18.5,24.47,24.74,.97,.59,1.83,1.37,2.77,2.01,1.64,1.11,2.59,2.53,2.76,4.6,.27,3.41,.85,6.8,1.12,10.21,.54,6.87,1.65,13.56,5.39,19.53,1.34,3.26,2.63,6.54,4.05,9.76,.82,1.84,.86,3.56,0,5.39-1.02,2.16-1.72,4.48-2.88,6.55-5,8.93-6.65,18.7-7.13,28.71-.23,4.82-1.76,8.41-6.1,10.98-10.09,5.97-18,14.27-24.07,24.26-2.23,3.67-5.26,5.18-9.4,5.41-4.55,.26-9.07,1.03-13.62,1.37-5.24,.39-9.91,2.68-14.18,5.2-7.69,4.54-14.73,4.54-22.26-.12-9.36-5.78-20.2-5.6-30.64-6.86-2.28-.28-3.91-1.15-5.09-3.04-7.23-11.65-16.67-21.1-28.31-28.33-1.92-1.19-2.72-2.89-2.92-5.16-.48-5.49-1.19-10.95-1.81-16.42-.26-2.28-.73-4.46-1.7-6.59-2.37-5.19-4.54-10.47-6.88-15.66-.92-2.05-.92-3.93,0-5.97,1.32-2.92,2.45-5.92,3.67-8.88,2.16-4.23,4.45-8.4,4.91-13.27,.43-4.55,1.13-9.08,1.38-13.64,.23-4.24,1.69-7.36,5.47-9.71,4.39-2.73,8.4-6.07,12.54-9.19,.9-.68,1.78-1.44,2.45-2.34,3.43-4.56,6.75-9.21,10.21-13.75,.95-1.25,1-2.26,.39-3.65-2.16-4.93-4.18-9.93-6.29-14.89-5.15-12.1-10.32-24.19-15.48-36.28-3.48-8.43-6.94-16.86-10.43-25.28C15.96,2.52,17.45,.19,23.54,.19c12.25-.01,24.5,0,36.75,0q6.44,0,8.94,5.9c.28,.67,.6,1.32,.9,1.98,8.77,20.91,17.54,41.83,26.31,62.74,.31,.74,.4,1.75,1.44,1.81,1.1,.06,1.19-.98,1.5-1.71,8.81-21,17.61-42.01,26.41-63.01Zm52.46,154.09c-.3-.72-.6-1.49-.93-2.24-1.74-4-3.52-7.98-5.22-11.99-1.05-2.47-2.27-4.87-2.53-7.65-.5-5.27-1.3-10.52-1.71-15.8-.16-2.02-.97-3.22-2.58-4.21-10.5-6.49-18.97-15.03-25.47-25.53-1-1.62-2.26-2.3-4.23-2.56-9.28-1.24-19.06-.72-27.34-6.07-7.18-4.63-13.87-4.06-20.97,.15-3.24,1.92-6.78,3.66-10.66,4.14-5.45,.67-10.91,1.37-16.38,1.82-1.86,.16-3.08,.79-4.03,2.33-6.55,10.59-15.05,19.25-25.65,25.79-.18,.11-.32,.27-.5,.38-1.38,.78-1.81,1.94-2.03,3.54-1.27,9.3-.7,19.08-5.96,27.43-4.55,7.23-4.41,14.05-.02,21.3,1.95,3.22,3.67,6.78,4.15,10.68,.66,5.36,1.38,10.72,1.77,16.11,.16,2.13,.94,3.45,2.65,4.51,10.36,6.48,18.86,14.85,25.29,25.28,.16,.26,.41,.48,.55,.75,.76,1.45,1.99,1.74,3.55,1.99,8.74,1.39,17.84,.76,26.01,5.27,3.78,2.09,7.99,4.8,11.98,4.75,4.12-.05,8.18-3.16,12.3-4.83,3.15-1.27,6.09-3.11,9.61-3.43,5.26-.49,10.5-1.25,15.77-1.71,1.83-.16,3.06-.78,4.02-2.35,6.55-10.73,15.28-19.31,25.92-25.95,1.43-.9,2.14-1.98,2.21-3.76,.47-12.74,3.59-24.79,9.69-36.01,.2-.36,.34-.76,.48-1.15,.1-.29,.17-.59,.27-.97ZM151.29,8.63c-4.57,0-9.14,.12-13.7-.05-2.08-.08-3.09,.55-3.88,2.53-3.42,8.46-7.05,16.84-10.54,25.27-.82,1.98-2.86,4.3-1.93,5.93,.83,1.46,3.81,.36,5.83,.48,2.91,.17,4.84,1.75,4.9,4.15,.06,2.41-1.77,4.21-4.71,4.36-2.69,.13-5.4,.14-8.09,.02-1.7-.08-2.58,.5-3.24,2.12-2.77,6.82-5.62,13.62-8.59,20.36-.79,1.8-.23,2.3,1.34,3.18,8.11,4.56,17.02,5.59,26.02,6.4,1.28,.12,2.06-.1,2.63-1.46,6.38-15.33,12.81-30.62,19.28-45.91,.57-1.35,.43-1.88-1.14-1.82-1.97,.07-3.94,.05-5.92,0-2.91-.07-4.82-1.72-4.85-4.14-.03-2.44,1.83-4.16,4.75-4.22,3.11-.07,6.23-.07,9.34,0,1.4,.03,2.26-.3,2.84-1.76,1.79-4.53,3.7-9.02,5.66-13.49,.7-1.6,.23-1.99-1.36-1.97-4.88,.05-9.76,.02-14.63,.02ZM82.19,59.78c-.07-.6-.04-.93-.15-1.19-6.74-16.07-13.51-32.12-20.22-48.2-.58-1.38-1.36-1.8-2.8-1.79-9.54,.06-19.09,.08-28.63,0-2.06-.02-2.56,.38-1.68,2.4,3.06,7.04,6.01,14.12,8.92,21.23,.6,1.46,1.37,2.04,2.98,2,4.67-.1,9.34-.09,14-.02,3.14,.05,5.05,1.79,5.02,4.35-.03,2.55-1.95,4.19-5.11,4.24-3.32,.05-6.64,.09-9.96-.02-1.86-.06-2.37,.3-1.55,2.22,5.21,12.21,10.34,24.45,15.44,36.71,.5,1.21,1.06,1.84,2.48,1.72,9.33-.76,18.52-2.01,26.86-6.77,.92-.53,1.41-.78,1.01-2.06-1.83-5.97-2.05-6.2-8.26-6.2-1.24,0-2.5,.07-3.73-.03-2.64-.21-4.54-2.02-4.39-4.33,.18-2.7,1.83-4.1,4.47-4.24,1.73-.09,3.47-.02,5.28-.02Z"/><path class="cls-2" d="M28.75,33.48c5.16,12.09,10.33,24.18,15.48,36.28,2.11,4.96,4.13,9.96,6.29,14.89,.61,1.4,.56,2.4-.39,3.65-3.46,4.54-6.78,9.19-10.21,13.75-.67,.89-1.56,1.66-2.45,2.34-4.14,3.12-8.16,6.46-12.54,9.19-3.78,2.35-5.24,5.47-5.47,9.71-.25,4.56-.95,9.09-1.38,13.64-.46,4.87-2.76,9.04-4.91,13.27-3.61-3.78-4.98-8.74-6.79-13.41C1.39,123.99-.65,110.61,.18,96.95c.72-11.9,3.43-23.41,8.37-34.41,4.64-10.32,10.9-19.44,18.53-27.69,.48-.52,1.11-.92,1.67-1.37Zm-8.92,45.6c.05-2.51-2.14-4.83-4.66-4.94-2.63-.11-5.04,2.25-5.01,4.9,.04,2.54,2.28,4.77,4.82,4.78,2.53,.02,4.8-2.2,4.85-4.74Z"/><path class="cls-1" d="M182.42,149.63c-3.75-5.97-4.86-12.66-5.39-19.53-.27-3.41-.85-6.8-1.12-10.21-.16-2.07-1.11-3.49-2.76-4.6-.95-.64-1.8-1.41-2.77-2.01-10.18-6.24-18.06-14.75-24.47-24.74-.74-1.15-1.39-2-.71-3.6,7.15-16.77,14.18-33.6,21.26-50.4,.08-.18,.25-.31,.38-.47,3.44,.88,4.82,4.03,6.78,6.42,4.81,5.89,9.28,12.05,12.11,19.21-.79,.24-1.58,.46-2.37,.71-7.92,2.56-11.34,11.97-6.9,19.01,3.61,5.71,9.82,7.29,17.23,4.36,1.57,3.91,1.67,8.12,1.89,12.17,.98,17.9-2.32,35.01-10.46,51.07-.59,1.17-.94,2.64-2.7,2.61Z"/><path class="cls-2" d="M125.79,7.88c-8.8,21-17.6,42.01-26.41,63.01-.31,.73-.4,1.77-1.5,1.71-1.04-.06-1.12-1.07-1.44-1.81-8.77-20.91-17.54-41.82-26.31-62.74,5.62-.78,11.04-2.58,16.72-3.04,7.4-.59,14.79-.66,22.2,0,5.67,.51,11.08,2.38,16.73,2.85Z"/><path class="cls-5" d="M193.69,83.78c-7.41,2.93-13.63,1.36-17.23-4.36-4.44-7.04-1.03-16.45,6.9-19.01,.78-.25,1.58-.47,2.37-.71,7.83,.37,12.51,3.73,13.93,10.23,1.31,5.99-1.28,10.4-5.97,13.85Zm-2.28-10.94c.15-2.35-1.48-4.23-3.82-4.41-2.35-.18-4.28,1.43-4.48,3.75-.22,2.52,1.49,4.5,3.96,4.59,2.35,.09,4.19-1.57,4.34-3.93Z"/><path class="cls-4" d="M178.24,161.97c-.1,.38-.17,.69-.27,.97-.14,.39-.28,.79-.48,1.15-6.11,11.23-9.22,23.27-9.69,36.01-.07,1.78-.78,2.86-2.21,3.76-10.64,6.64-19.36,15.22-25.92,25.95-.96,1.57-2.19,2.19-4.02,2.35-5.27,.46-10.5,1.22-15.77,1.71-3.53,.33-6.46,2.16-9.61,3.43-4.13,1.66-8.19,4.78-12.3,4.83-3.98,.05-8.19-2.66-11.98-4.75-8.17-4.51-17.28-3.88-26.01-5.27-1.55-.25-2.79-.54-3.55-1.99-.14-.27-.39-.49-.55-.75-6.43-10.43-14.92-18.8-25.29-25.28-1.7-1.07-2.49-2.38-2.65-4.51-.39-5.38-1.12-10.74-1.77-16.11-.48-3.9-2.2-7.46-4.15-10.68-4.4-7.25-4.54-14.07,.02-21.3,5.26-8.35,4.7-18.13,5.96-27.43,.22-1.6,.65-2.76,2.03-3.54,.18-.1,.32-.27,.5-.38,10.61-6.54,19.11-15.19,25.65-25.79,.95-1.54,2.17-2.17,4.03-2.33,5.47-.46,10.93-1.15,16.38-1.82,3.89-.48,7.42-2.22,10.66-4.14,7.1-4.21,13.8-4.78,20.97-.15,8.29,5.35,18.06,4.84,27.34,6.07,1.97,.26,3.22,.94,4.23,2.56,6.5,10.49,14.98,19.03,25.47,25.53,1.61,1,2.43,2.19,2.58,4.21,.41,5.28,1.2,10.53,1.71,15.8,.26,2.77,1.48,5.17,2.53,7.65,1.7,4.01,3.48,8,5.22,11.99,.33,.76,.63,1.53,.93,2.24Zm-12.35,.16c.03-37.63-30.23-68.06-67.77-68.17-37.67-.1-68.18,30.36-68.19,68.07-.01,37.62,30.26,68.06,67.79,68.16,37.68,.11,68.14-30.31,68.17-68.07Z"/><path class="cls-1" d="M151.29,8.63c4.88,0,9.76,.03,14.63-.02,1.59-.02,2.06,.37,1.36,1.97-1.96,4.46-3.87,8.95-5.66,13.49-.57,1.46-1.44,1.79-2.84,1.76-3.11-.07-6.23-.07-9.34,0-2.93,.06-4.79,1.78-4.75,4.22,.03,2.41,1.95,4.07,4.85,4.14,1.97,.04,3.95,.07,5.92,0,1.57-.06,1.71,.47,1.14,1.82-6.46,15.29-12.9,30.59-19.28,45.91-.57,1.36-1.35,1.58-2.63,1.46-9-.81-17.91-1.84-26.02-6.4-1.57-.88-2.13-1.38-1.34-3.18,2.96-6.74,5.82-13.53,8.59-20.36,.66-1.62,1.54-2.2,3.24-2.12,2.69,.12,5.4,.12,8.09-.02,2.93-.15,4.76-1.95,4.71-4.36-.06-2.4-1.99-3.97-4.9-4.15-2.02-.12-5,.98-5.83-.48-.93-1.63,1.11-3.95,1.93-5.93,3.49-8.44,7.13-16.81,10.54-25.27,.8-1.97,1.8-2.61,3.88-2.53,4.56,.17,9.13,.05,13.7,.05Z"/><path class="cls-3" d="M82.19,59.78c-1.82,0-3.56-.08-5.28,.02-2.64,.14-4.29,1.54-4.47,4.24-.15,2.3,1.75,4.11,4.39,4.33,1.24,.1,2.49,.03,3.73,.03,6.21,0,6.43,.23,8.26,6.2,.39,1.29-.09,1.54-1.01,2.06-8.33,4.76-17.53,6-26.86,6.77-1.43,.12-1.98-.52-2.48-1.72-5.1-12.25-10.23-24.5-15.44-36.71-.82-1.92-.31-2.28,1.55-2.22,3.32,.1,6.64,.07,9.96,.02,3.16-.05,5.08-1.69,5.11-4.24,.03-2.56-1.88-4.3-5.02-4.35-4.67-.07-9.34-.09-14,.02-1.61,.04-2.39-.54-2.98-2-2.91-7.1-5.86-14.19-8.92-21.23-.88-2.03-.38-2.42,1.68-2.4,9.54,.08,19.09,.07,28.63,0,1.44,0,2.22,.41,2.8,1.79,6.71,16.08,13.48,32.13,20.22,48.2,.11,.27,.08,.59,.15,1.19Z"/><path class="cls-5" d="M19.83,79.09c-.05,2.54-2.32,4.76-4.85,4.74-2.54-.02-4.78-2.24-4.82-4.78-.04-2.65,2.37-5,5.01-4.9,2.53,.1,4.72,2.42,4.66,4.94Z"/><path class="cls-2" d="M191.41,72.84c-.15,2.36-1.99,4.02-4.34,3.93-2.46-.09-4.17-2.07-3.96-4.59,.2-2.32,2.12-3.94,4.48-3.75,2.34,.18,3.98,2.07,3.82,4.41Z"/><path class="cls-5" d="M165.89,162.13c-.03,37.76-30.49,68.18-68.17,68.07-37.53-.11-67.8-30.54-67.79-68.16,.01-37.71,30.53-68.17,68.19-68.07,37.54,.1,67.8,30.53,67.77,68.17Zm-67.9,59.66c32.76-.06,59.63-27.08,59.52-59.85-.12-32.86-27.21-59.84-59.8-59.54-32.91,.3-59.27,26.84-59.27,59.66,0,32.91,26.79,59.78,59.55,59.72Z"/><path class="cls-1" d="M97.99,221.79c-32.76,.06-59.56-26.81-59.55-59.72,0-32.82,26.37-59.36,59.27-59.66,32.59-.3,59.68,26.67,59.8,59.54,.12,32.76-26.75,59.78-59.52,59.85Zm-29.89-57.27c.21-.09,.42-.18,.63-.26,2.69,4.04,5.42,8.05,8.05,12.12,1.33,2.06,3.05,3.21,5.47,2.46,2.31-.72,2.98-2.68,2.97-4.94,0-7.89,.04-15.79-.02-23.68-.02-3.29-1.59-5.05-4.21-5.09-2.81-.04-4.27,1.72-4.31,5.24-.03,3.15,0,6.29,0,9.44-3.38-4.1-6.2-8.29-8.99-12.51-1.24-1.88-2.96-2.63-5.09-1.99-2.04,.61-2.9,2.19-2.9,4.29,0,8.31-.01,16.62,.01,24.93,0,2.68,1.28,4.36,4.07,4.49,2.6,.13,4.22-1.59,4.28-4.59,.07-3.3,.02-6.61,.02-9.91Zm46.78-2.38s-.04,0-.06,0c0-2.81,.15-5.62-.03-8.42-.31-4.69-4.05-8.31-8.73-8.57-2.28-.13-4.57-.08-6.85-.04-5.31,.1-9.3,3.39-9.66,8.64-.37,5.48-.36,11.03-.03,16.51,.32,5.25,4.28,8.62,9.55,8.78,2.07,.06,4.15,.06,6.23,0,5.69-.18,9.4-3.96,9.56-9.73,.07-2.39,.01-4.78,.01-7.17Zm-17.31,38.24h0c8.51-.01,17.01,.04,25.52-.04,2.89-.03,4.85-1.94,4.57-4.36-.3-2.65-1.92-4.02-4.63-4.02-16.7,0-33.4,0-50.1-.01-2.72,0-4.37,1.3-4.72,3.94-.35,2.61,1.76,4.46,5.1,4.48,8.09,.05,16.18,.02,24.27,.02Zm30.16-43.86c0,6.16-.01,12.07,0,17.97,0,2.68,1.28,4.4,4.04,4.52,2.78,.12,4.35-1.57,4.39-4.19,.12-8.5,.16-17.01-.04-25.51-.08-3.47-2.98-5.06-6.19-3.72-2,.83-3.91,1.89-5.85,2.87-4.5,2.26-5.73,4.12-4.51,6.79,1.23,2.68,3.17,3.03,8.14,1.28Zm-29.86-37c3.93,0,7.86,.04,11.79-.01,3.41-.04,5.24-1.65,5.18-4.41-.06-2.66-1.81-4.15-5.08-4.17-7.86-.03-15.72-.03-23.58,0-3.43,.01-5.24,1.6-5.18,4.38,.05,2.6,1.87,4.15,5.09,4.2,3.93,.05,7.86,.01,11.79,.01Zm-.05,93.71c3.95,0,7.89,.03,11.84,0,3.34-.03,5.08-1.44,5.18-4.09,.1-2.75-1.76-4.47-5.14-4.5-7.89-.05-15.78-.06-23.67,0-3.23,.03-5.03,1.67-5.03,4.3,0,2.68,1.76,4.25,4.99,4.28,3.94,.05,7.89,.01,11.84,.01Zm.29-89.43c-2.8,0-5.61-.07-8.4,.02-2.83,.09-4.42,1.65-4.44,4.13-.02,2.5,1.57,4.17,4.37,4.21,5.5,.09,11,.08,16.5,0,2.77-.04,4.46-1.72,4.48-4.14,.02-2.44-1.64-4.11-4.4-4.2-2.69-.1-5.4-.02-8.09-.03Zm-49.07,42.62s0-.04,0-.06c.73,0,1.46,.07,2.17-.01,2.49-.3,4.1-1.71,4.13-4.23,.03-2.53-1.56-4.04-4.05-4.29-1.64-.17-3.34-.2-4.96,.05-2.33,.36-3.73,1.93-3.68,4.31,.05,2.22,1.41,3.64,3.59,4.09,.9,.18,1.86,.11,2.79,.15Zm97.59,.03c1.14-.08,2.21,0,3.19-.25,2.15-.55,3.42-2.04,3.35-4.28-.06-2.08-1.29-3.56-3.33-3.97-2.03-.41-4.15-.44-6.17,.03-2.05,.48-3.2,2-3.2,4.07,0,2.08,1.16,3.55,3.18,4.1,.98,.27,2.05,.21,2.98,.29Z"/><path class="cls-5" d="M68.1,164.52c0,3.3,.06,6.61-.02,9.91-.07,3-1.68,4.72-4.28,4.59-2.79-.14-4.07-1.81-4.07-4.49-.03-8.31,0-16.62-.01-24.93,0-2.1,.86-3.68,2.9-4.29,2.12-.64,3.84,.12,5.09,1.99,2.79,4.21,5.6,8.41,8.99,12.51,0-3.15-.02-6.29,0-9.44,.03-3.52,1.5-5.28,4.31-5.24,2.62,.04,4.18,1.8,4.21,5.09,.06,7.89,.02,15.79,.02,23.68,0,2.26-.66,4.22-2.97,4.94-2.42,.75-4.14-.4-5.47-2.46-2.63-4.08-5.36-8.09-8.05-12.12-.21,.09-.42,.18-.63,.26Z"/><path class="cls-5" d="M114.87,162.15c0,2.39,.05,4.78-.01,7.17-.16,5.77-3.87,9.55-9.56,9.73-2.07,.07-4.15,.07-6.23,0-5.27-.16-9.24-3.53-9.55-8.78-.33-5.49-.34-11.03,.03-16.51,.35-5.25,4.35-8.54,9.66-8.64,2.28-.04,4.57-.09,6.85,.04,4.68,.26,8.42,3.88,8.73,8.57,.19,2.79,.03,5.61,.03,8.42,.02,0,.04,0,.06,0Zm-16.98-.21v2.8c0,6.36,0,6.31,6.23,5.97,1.71-.09,2.43-.69,2.39-2.41-.06-3,.02-6.01-.02-9.01-.1-6.27,1.44-5.78-6.42-5.78-1.56,0-2.26,.62-2.2,2.23,.08,2.07,.02,4.14,.02,6.21Z"/><path class="cls-5" d="M97.57,200.39c-8.09,0-16.18,.03-24.27-.02-3.33-.02-5.45-1.87-5.1-4.48,.36-2.64,2.01-3.94,4.72-3.94,16.7,.02,33.4,.01,50.1,.01,2.72,0,4.33,1.37,4.63,4.02,.27,2.43-1.69,4.34-4.57,4.36-8.51,.08-17.01,.03-25.52,.03h0Z"/><path class="cls-5" d="M127.73,156.52c-4.97,1.76-6.92,1.4-8.14-1.28-1.22-2.67,0-4.53,4.51-6.79,1.94-.98,3.85-2.04,5.85-2.87,3.21-1.34,6.11,.25,6.19,3.72,.2,8.5,.15,17.01,.04,25.51-.04,2.62-1.6,4.3-4.39,4.19-2.76-.12-4.04-1.83-4.04-4.52-.02-5.91,0-11.82,0-17.97Z"/><path class="cls-5" d="M97.87,119.52c-3.93,0-7.86,.04-11.79-.01-3.21-.04-5.03-1.6-5.09-4.2-.06-2.78,1.76-4.36,5.18-4.38,7.86-.03,15.72-.03,23.58,0,3.27,.01,5.02,1.51,5.08,4.17,.06,2.76-1.77,4.37-5.18,4.41-3.93,.05-7.86,.01-11.79,.01Z"/><path class="cls-5" d="M97.82,213.24c-3.95,0-7.89,.04-11.84-.01-3.23-.04-4.99-1.6-4.99-4.28,0-2.63,1.8-4.27,5.03-4.3,7.89-.06,15.78-.06,23.67,0,3.38,.02,5.24,1.74,5.14,4.5-.1,2.65-1.84,4.06-5.18,4.09-3.94,.04-7.89,0-11.84,0Z"/><path class="cls-5" d="M98.12,123.81c2.7,0,5.4-.07,8.09,.02,2.76,.1,4.42,1.77,4.4,4.2-.02,2.42-1.71,4.1-4.48,4.14-5.5,.08-11,.08-16.5,0-2.8-.05-4.39-1.71-4.37-4.21,.02-2.48,1.61-4.04,4.44-4.13,2.8-.09,5.6-.02,8.4-.02Z"/><path class="cls-5" d="M49.05,166.43c-.93-.04-1.89,.04-2.79-.15-2.18-.45-3.55-1.87-3.59-4.09-.05-2.38,1.35-3.95,3.68-4.31,1.62-.25,3.32-.22,4.96-.05,2.49,.25,4.08,1.76,4.05,4.29-.03,2.52-1.64,3.93-4.13,4.23-.72,.09-1.45,.01-2.17,.01,0,.02,0,.04,0,.06Z"/><path class="cls-5" d="M146.64,166.47c-.93-.08-2-.02-2.98-.29-2.02-.56-3.19-2.03-3.18-4.1,0-2.07,1.15-3.6,3.2-4.07,2.03-.47,4.14-.45,6.17-.03,2.04,.42,3.27,1.9,3.33,3.97,.07,2.24-1.21,3.73-3.35,4.28-.98,.25-2.06,.17-3.19,.25Z"/><path class="cls-1" d="M97.9,161.94c0-2.07,.06-4.15-.02-6.21-.06-1.61,.64-2.23,2.2-2.23,7.86,0,6.32-.49,6.42,5.78,.05,3-.04,6.01,.02,9.01,.04,1.72-.69,2.32-2.39,2.41-6.23,.34-6.23,.39-6.23-5.97,0-.93,0-1.86,0-2.8Z"/></g></g></svg>