<?xml version="1.0" encoding="UTF-8"?><svg id="Layer_2" xmlns="http://www.w3.org/2000/svg" viewBox="0 0 126.65 116.79"><defs><style>.cls-1{fill:#e9f6f6;}.cls-2{fill:#b6e5f5;}.cls-3{fill:#add;}.cls-4{fill:#06ffd5;}.cls-5{fill:#070604;}.cls-6{fill:#070705;}.cls-7{fill:#1a2959;}</style></defs><g id="Layer_1-2"><g><path class="cls-7" d="M126.65,50.98c-.56,.57-.44,1.36-.65,2.04-1.41,4.56-4.19,7.95-8.48,10.08-.29,.14-.56,.31-.92,.52,.91,.62,1.77,1.15,2.56,1.75,1.31,.99,1.55,1.99,.91,3.45-4.03,9.16-15.58,12.61-23.79,6.96-1.89-1.3-2.63,.3-3.85,.93,.84,0,1.69-.02,2.53,0,4.27,.13,7.36,3.22,7.44,7.49,.05,2.97,.04,5.94,0,8.9-.01,.78,.21,.93,.95,.96,6.6,.27,11.84,5.66,11.93,12.26,.03,2.47,.02,4.95,0,7.42-.01,2.15-.93,3.05-3.12,3.05-13.27,0-26.54,0-39.82,0-1.92,0-2.62-.57-3.11-2.47,.5-1.94,1.19-2.47,3.24-2.47,6.31,0,12.62,0,18.93,0,5.98,0,11.96-.02,17.94,.02,.8,0,1.07-.2,1.02-1.02-.07-1.11-.02-2.23-.02-3.34,0-5.59-2.94-8.53-8.53-8.53-24.58,0-49.15,0-73.73,0-1.44,0-2.89-.03-4.33,.01-4.22,.13-7.28,3.19-7.41,7.4-.05,1.4,.06,2.81-.04,4.2-.08,1.04,.25,1.28,1.27,1.27,10.23-.04,20.45-.03,30.68-.02,2.05,0,2.73,.53,3.24,2.47-.49,1.9-1.19,2.47-3.11,2.47-11.3,0-22.59,0-33.89,0-2.2,0-3.14-.9-3.1-3.07,.06-3.13-.31-6.28,.21-9.38,.98-5.8,5.85-10.04,11.74-10.28,.79-.03,.93-.26,.92-.99-.04-2.76-.02-5.52-.02-8.29,.01-5,3.09-8.07,8.11-8.08,.62,0,1.23,0,1.95-.19-.78-.46-1.54-.94-2.34-1.37-.57-.3-.89,.27-1.26,.51-4.49,2.94-9.31,3.66-14.39,1.99-4.58-1.5-7.82-4.6-9.8-8.99-.57-1.28-.3-2.3,.82-3.17,.84-.65,1.75-1.21,2.75-1.89-1.44-.72-2.82-1.43-4.02-2.43C1.71,57.56-.21,52.91,.02,47.34c.06-1.53,.95-2.34,2.67-2.53,.88-.1,1.11-.21,.63-1.14-2.39-4.61-2.62-9.35-.64-14.18,.71-1.74,1.64-2.21,3.49-1.83,5.61,1.16,9.51,4.44,11.97,9.57,.38,.05,.52-.3,.73-.52,.94-.94,1.97-1.75,3.1-2.44,2.51-1.53,3.44-1.39,5.2,.93,2.48,3.27,3.63,6.98,3.3,11.09-.06,.69,.1,1.07,.72,1.48,7.82,5.2,9.85,15.06,4.71,22.86-.46,.69-.38,.97,.33,1.32,1.28,.63,2.52,1.35,4.07,1.9,0-1.15-.01-2.19,0-3.24,.05-4.61,3.17-7.72,7.8-7.77,1.57-.02,3.14-.06,4.7,.02,.92,.05,1.15-.21,1.14-1.14-.04-8.12-.02-16.25-.02-24.37,0-3.96,0-7.91,0-11.88-.45-.13-.57,.28-.77,.47-1.51,1.47-2.95,3-4.49,4.43-2.02,1.89-4.79,1.92-6.8,.03-2.22-2.09-4.38-4.25-6.48-6.47-1.93-2.04-1.9-4.88,.09-6.89,5.33-5.4,10.72-10.74,16.08-16.1C52.23,.28,53.04,0,54,0c5.24,.02,10.47,0,15.71,.01,2.08,0,3,.93,3,3.05,0,7.46,0,14.93,0,22.39,0,1.94-.62,2.69-2.47,3.09-1.86-.4-2.47-1.15-2.47-3.09,0-6.47-.02-12.94,.02-19.41,0-.84-.17-1.11-1.06-1.1-3.79,.05-7.58,.04-11.38,.01-.58,0-.99,.17-1.4,.58-4.77,4.79-9.54,9.58-14.35,14.33-.63,.62-.48,.93,.06,1.44,1.63,1.58,3.24,3.17,4.8,4.81,.58,.61,.91,.66,1.53,.02,2.76-2.83,5.59-5.61,8.37-8.41,.87-.88,1.86-1.24,3.02-.74,1.12,.48,1.48,1.44,1.48,2.62,0,15.09,0,30.17-.01,45.26,0,2-.96,2.93-2.98,2.94-2.6,.02-5.19-.02-7.79,.01-1.87,.02-2.8,.97-2.83,2.84-.02,1.69,.04,3.38-.03,5.07-.03,.83,.25,1.01,1.03,1,5.11-.03,10.22-.02,15.33-.02,6.22,0,12.45-.02,18.67,.02,.94,0,1.18-.24,1.14-1.16-.08-1.6,0-3.21-.03-4.82-.02-2.01-.95-2.94-2.97-2.95-2.56-.02-5.11,0-7.67,0-2.03-.01-2.96-.94-2.97-2.96-.01-5.89-.01-11.79,0-17.68,0-1.82,.66-2.57,2.47-2.96,1.85,.39,2.46,1.15,2.47,3.09,0,4.82,.03,9.64-.02,14.46-.01,.93,.23,1.18,1.15,1.13,1.6-.08,3.21-.04,4.82-.02,4.48,.07,7.6,3.17,7.67,7.63,.02,1.07,0,2.14,0,3.34,1.8-.58,3.34-1.47,4.9-2.4-2.44-3.42-3.65-7.14-3.26-11.3,.5-5.29,3.01-9.41,7.43-12.34,.66-.44,.79-.85,.74-1.59-.33-4.58,1.12-8.59,4.14-12.02,.89-1.02,1.98-1.16,3.25-.54,1.83,.9,3.38,2.17,4.88,3.72,.97-1.94,2.04-3.7,3.52-5.18,2.5-2.49,5.49-4,8.94-4.65,1.37-.26,2.42,.35,3.01,1.77,2.02,4.84,1.86,9.63-.54,14.29-.5,.96-.37,1.19,.63,1.2,1.35,.02,2.11,.87,2.67,1.97v4.21Zm-63.46,43.05c11.05,0,22.1-.01,33.15,.02,.93,0,1.17-.22,1.14-1.14-.07-2.72-.02-5.44-.03-8.16,0-2.19-.9-3.08-3.09-3.08-20.7,0-41.4,0-62.09,0-2.19,0-3.09,.9-3.1,3.08-.01,2.68,.05,5.36-.03,8.04-.03,1.03,.23,1.28,1.27,1.27,10.93-.04,21.85-.03,32.78-.03ZM16.69,59.81c-.6-6.79-7.08-10.83-11.68-10.18,.55,6.36,6.47,10.6,11.68,10.18Zm104.92-10.23c-5.98-.3-11.39,4.52-11.58,10.24,5.13,.42,11.03-3.84,11.58-10.24ZM21.72,73.55c1.65,.01,3.17-.43,4.66-1.08,.67-.29,.61-.53,.24-1.05-3.04-4.3-9.41-5.85-14.04-3.43-.57,.3-.61,.47-.23,.96,2.36,3.11,5.52,4.56,9.37,4.6Zm92.9-5.14c-4.28-3-11.21-1.59-14.54,2.93-.48,.66-.42,.85,.31,1.19,5.05,2.35,11.08,.63,14.23-4.12Zm-83.33,.1c3.53-4.43,3.23-10.74-.62-14.81-.55-.58-.79-.7-1.3,.07-3.1,4.63-2.36,10.59,1.93,14.74Zm64.04,0c4.28-4.02,5.06-10.07,1.97-14.7-.44-.66-.66-.83-1.3-.16-3.85,4.06-4.18,10.23-.67,14.86ZM6.74,32.94c-1.42,5.57,1.25,11.14,6.26,13.36,1.04,.46,1.22,.11,1.34-.8,.76-5.64-2.15-10.5-7.6-12.56Zm113.17,.03c-5.31,1.67-8.67,7.36-7.59,12.81,.14,.7,.32,.92,1.11,.59,5.11-2.13,7.82-7.6,6.48-13.4ZM20.86,54.25c4.74-3.03,6.07-9.99,3.25-14.75-.37-.63-.59-.27-.91-.02-4.38,3.49-5.41,9.99-2.34,14.76Zm84.86,.06c3.1-4.83,2.11-11.13-2.19-14.76-.69-.58-.84-.35-1.18,.29-.82,1.51-1.26,3.13-1.29,4.83-.07,3.98,1.43,7.23,4.67,9.65Z"/><path class="cls-3" d="M51.47,114.32c-.51-1.95-1.18-2.47-3.24-2.47-10.23,0-20.45-.02-30.68,.02-1.02,0-1.35-.23-1.27-1.27,.1-1.39,0-2.8,.04-4.2,.14-4.22,3.2-7.27,7.41-7.4,1.44-.05,2.89-.01,4.33-.01,24.58,0,49.15,0,73.73,0,5.6,0,8.53,2.93,8.53,8.53,0,1.11-.05,2.23,.02,3.34,.05,.82-.21,1.02-1.02,1.02-5.98-.03-11.96-.02-17.94-.02-6.31,0-12.62,0-18.93,0-2.05,0-2.73,.53-3.24,2.47-2.19,0-4.38,0-6.58,0-.41-2.04-2.01-2.99-3.6-2.17-.9,.46-1.18,1.29-1.42,2.17-2.05,0-4.1,0-6.15,0Z"/><path class="cls-4" d="M70.24,44.19c-1.81,.39-2.47,1.14-2.47,2.96-.01,5.89-.01,11.79,0,17.68,0,2.02,.94,2.95,2.97,2.96,2.56,.02,5.11,0,7.67,0,2.03,.01,2.95,.94,2.97,2.95,.02,1.61-.05,3.22,.03,4.82,.05,.92-.2,1.16-1.14,1.16-6.22-.05-12.45-.02-18.67-.02-5.11,0-10.22-.02-15.33,.02-.79,0-1.07-.17-1.03-1,.07-1.69,0-3.38,.03-5.07,.03-1.88,.96-2.82,2.83-2.84,2.6-.03,5.19,0,7.79-.01,2.03-.01,2.98-.94,2.98-2.94,0-15.09,0-30.17,.01-45.26,0-1.17-.36-2.13-1.48-2.62-1.16-.5-2.15-.14-3.02,.74-2.79,2.81-5.61,5.58-8.37,8.41-.62,.64-.95,.59-1.53-.02-1.56-1.64-3.17-3.24-4.8-4.81-.53-.51-.69-.82-.06-1.44,4.81-4.75,9.58-9.54,14.35-14.33,.41-.41,.82-.59,1.4-.58,3.79,.03,7.58,.04,11.38-.01,.9-.01,1.07,.26,1.06,1.1-.04,6.47-.02,12.94-.02,19.41,0,1.94,.62,2.69,2.47,3.09-.01,1.59-.02,3.17-.03,4.76-1.55,.28-2.45,1.19-2.44,2.46,.01,1.26,.88,2.13,2.47,2.46v5.98Z"/><path class="cls-6" d="M57.62,114.32c.24-.88,.52-1.71,1.42-2.17,1.6-.82,3.19,.14,3.6,2.17-.32,1.56-1.18,2.44-2.43,2.46-1.23,.03-2.07-.77-2.59-2.47Z"/><path class="cls-5" d="M70.24,38.22c-1.58-.33-2.45-1.2-2.47-2.46-.01-1.26,.89-2.18,2.44-2.46,1.57,.26,2.44,1.08,2.49,2.36,.05,1.29-.84,2.22-2.46,2.56Z"/><path class="cls-1" d="M63.19,94.03c-10.93,0-21.85-.02-32.78,.03-1.03,0-1.3-.24-1.27-1.27,.08-2.68,.02-5.36,.03-8.04,0-2.18,.9-3.08,3.1-3.08,20.7,0,41.4,0,62.09,0,2.19,0,3.08,.9,3.09,3.08,.01,2.72-.04,5.44,.03,8.16,.02,.93-.22,1.15-1.14,1.14-11.05-.04-22.1-.02-33.15-.02Z"/><path class="cls-2" d="M16.69,59.81c-5.21,.43-11.13-3.81-11.68-10.18,4.6-.66,11.08,3.38,11.68,10.18Z"/><path class="cls-2" d="M121.61,49.57c-.56,6.41-6.45,10.66-11.58,10.24,.19-5.72,5.6-10.54,11.58-10.24Z"/><path class="cls-2" d="M21.72,73.55c-3.85-.04-7.01-1.48-9.37-4.6-.38-.5-.34-.67,.23-.96,4.63-2.42,11-.87,14.04,3.43,.37,.52,.43,.76-.24,1.05-1.49,.65-3.01,1.09-4.66,1.08Z"/><path class="cls-2" d="M114.62,68.41c-3.15,4.75-9.19,6.48-14.23,4.12-.73-.34-.79-.54-.31-1.19,3.33-4.52,10.26-5.94,14.54-2.93Z"/><path class="cls-2" d="M31.28,68.51c-4.29-4.14-5.02-10.1-1.93-14.74,.52-.77,.76-.65,1.3-.07,3.85,4.07,4.15,10.38,.62,14.81Z"/><path class="cls-2" d="M95.32,68.51c-3.51-4.63-3.18-10.8,.67-14.86,.64-.67,.86-.51,1.3,.16,3.09,4.63,2.31,10.68-1.97,14.7Z"/><path class="cls-2" d="M6.74,32.94c5.45,2.05,8.36,6.92,7.6,12.56-.12,.92-.31,1.26-1.34,.8-5.01-2.22-7.68-7.79-6.26-13.36Z"/><path class="cls-2" d="M119.91,32.96c1.34,5.8-1.37,11.27-6.48,13.4-.79,.33-.97,.11-1.11-.59-1.08-5.45,2.28-11.14,7.59-12.81Z"/><path class="cls-2" d="M20.86,54.25c-3.07-4.77-2.04-11.28,2.34-14.76,.32-.25,.54-.61,.91,.02,2.83,4.76,1.5,11.72-3.25,14.75Z"/><path class="cls-2" d="M105.72,54.31c-3.24-2.42-4.75-5.67-4.67-9.65,.03-1.69,.47-3.31,1.29-4.83,.34-.63,.5-.87,1.18-.29,4.31,3.64,5.29,9.93,2.19,14.76Z"/></g></g></svg>