<?xml version="1.0" encoding="UTF-8"?><svg id="Layer_2" xmlns="http://www.w3.org/2000/svg" viewBox="0 0 116.83 117.05"><defs><style>.cls-1{fill:#fff;}.cls-2{fill:#add;}.cls-3{fill:#06ffd5;}.cls-4{fill:#1a2959;}.cls-5{fill:#646c77;}</style></defs><g id="Layer_1-2"><g><path class="cls-4" d="M52.77,29.21c0,.5,0,.93,0,1.36,0,14.74,0,29.49,0,44.23,0,4.15-2.23,6.41-6.4,6.37-.89,0-1.19,.17-1.16,1.13,.07,2.67,.02,2.67-2.61,2.67-13.81,0-27.62,0-41.44,.02-.88,0-1.18-.17-1.16-1.13,.07-3.18,.01-6.37,.03-9.55,.03-4.72,3.06-8.44,7.65-9.41,1.95-.41,3.92-.78,5.87-1.2,.49-.1,1-.23,1.45-.46,1.41-.73,1.5-1.22,.51-2.38-.73-.85-2.87-2.25-3.92-2.56-2.77-.82-4.5-3.71-3.87-6.53,.13-.59,.03-1.02-.29-1.52-2.18-3.48-2.42-7.12-.46-10.72,1.96-3.6,5.12-5.43,9.22-5.5,2.59-.04,5.18,.01,7.77,.06,.44,0,.74-.17,1.07-.37,4.25-2.67,9.46-1.85,12.47,1.94,3.06,3.85,2.75,9.09-.79,12.61-.49,.48-.57,.71-.13,1.3,1.33,1.78,1.53,3.77,.55,5.77-1,2.04-2.7,3.13-4.97,3.2-.67,.02-1.05,.2-1.33,.82-.34,.75-.86,1.42-1.48,1.96-.56,.48-.4,.83,.02,1.25,.67,.67,1.48,1,2.38,1.17,1.96,.38,3.92,.77,5.87,1.18,4.52,.95,7.57,4.69,7.62,9.32,0,.51-.12,1.06,.03,1.52,.18,.55-.69,1.52,.56,1.66,1.91,.21,2.96-.35,3.15-1.64,.05-.35,.03-.71,.03-1.06,0-15.57,0-31.14,.02-46.71,0-.77-.22-1.28-.79-1.81-4.88-4.49-6.24-11.49-3.45-17.47C47.45,2.98,53.82-.64,59.93,.09c6.68,.81,11.98,5.62,13.27,12.05,1.65,8.2-3.75,16.24-12.01,17.79-.78,.15-.91,.42-.91,1.12,.02,18.32,.02,36.64,0,54.96,0,.67,.05,1.05,.89,1.13,.95,.09,1.88,.45,2.89,.71v-10.45c0-4.72,0-9.44,0-14.15,0-4.44,2.15-6.6,6.54-6.61,5.77,0,11.53,0,17.48,0-1.01-1.75-2-3.38-2.9-5.05-3.25-6.01-3.15-11.99,.59-17.72,4.17-6.4,12.26-9.03,19.6-6.56,7.19,2.41,11.81,9.22,11.42,16.85-.14,2.79-1.01,5.38-2.43,7.79-1.75,2.97-3.46,5.97-5.23,8.93-.4,.67-.36,.93,.41,1.19,2.1,.72,4,1.8,5.51,3.48,2.34,2.61,2.38,5.89,.07,8.52-2.14,2.43-4.97,3.65-8.03,4.35-6.48,1.47-12.83,1.27-18.94-1.65-1.39-.67-2.61-1.59-3.61-2.78-2.19-2.6-2.18-5.78,.06-8.35,1.51-1.74,3.47-2.77,5.57-3.6,.27-.11,.89-.03,.72-.52-.15-.45-.26-1.13-1.01-1.11-.24,0-.47,0-.71,0-6.24,0-12.48,0-18.72,0-2.02,0-2.61,.58-2.61,2.57,0,8.69,0,17.38-.02,26.07,0,.76,.2,1.28,.78,1.81,4.64,4.26,6.13,10.81,3.84,16.6-2.28,5.75-7.84,9.56-13.99,9.57-7.77,.01-14.28-5.92-15.06-13.73-.76-7.6,4.63-14.76,12.23-16.17,.76-.14,.93-.38,.93-1.1-.02-18.32-.02-36.64,0-54.96,0-.78-.18-1.07-.99-1.16-.91-.1-1.8-.45-2.79-.71Zm-30.13,51.98c5.92,0,11.84-.02,17.77,.02,.9,0,1.11-.24,1.08-1.11-.07-1.92,0-3.85-.02-5.78-.02-2.88-1.7-5.05-4.5-5.69-2.25-.51-4.53-.89-6.78-1.42-.62-.15-.72,.15-.94,.53-3.1,5.35-10.03,5.37-13.22,.03-.28-.47-.51-.66-1.09-.53-2.22,.5-4.45,.89-6.67,1.4-2.74,.63-4.45,2.79-4.48,5.58-.02,1.96,.05,3.93-.03,5.89-.03,.9,.23,1.1,1.1,1.09,5.92-.04,11.84-.02,17.77-.02ZM86.68,43.75c.02,1.77,.59,3.95,1.76,5.96,3.31,5.7,6.62,11.39,9.94,17.07,.91,1.55,2.08,1.55,2.99-.01,3.3-5.65,6.59-11.31,9.88-16.97,1.02-1.76,1.63-3.65,1.77-5.67,.5-7.27-5.16-13.61-12.34-13.87-7.83-.29-13.96,5.38-14,13.5Zm-16.96,58.26c.03-6.23-5.03-11.35-11.24-11.38-6.22-.03-11.33,5.04-11.36,11.26-.03,6.23,5.03,11.35,11.24,11.38,6.22,.03,11.33-5.04,11.36-11.26ZM58.47,26.46c6.21-.02,11.27-5.14,11.25-11.37-.02-6.22-5.12-11.29-11.34-11.27-6.21,.02-11.27,5.14-11.25,11.37,.02,6.22,5.13,11.3,11.34,11.28Zm-37.06,11.35c-1.99,0-3.95-.14-5.89,.03-4.54,.4-7.32,5.16-5.52,9.28,.25,.57,.48,.94,1.19,.54,.73-.41,1.57-.49,2.4-.43,.7,.05,1.23-.16,1.8-.62,1.22-.99,2.71-1.79,4.22-1.07,3.46,1.65,7.1,1.8,10.8,1.66,2.85-.11,5.19-2.43,5.4-5.26,.21-2.78-1.69-5.26-4.52-5.9-2.65-.6-5.41,.95-6.41,3.56-.25,.64,0,1.6-.66,1.88-.63,.27-1.46,.07-2.21,.08-.12,0-.24-.02-.35,0-.88,.15-1-.36-.86-1.04,.18-.88,.4-1.74,.62-2.72Zm78.47,37.73c1.77,.04,3.53-.16,5.26-.52,2.39-.5,4.71-1.23,6.61-2.86,1.73-1.5,1.72-3.07-.01-4.56-1.3-1.11-2.85-1.76-4.45-2.31-.51-.17-.69,0-.91,.4-.65,1.16-1.31,2.32-2.02,3.45-2.2,3.54-6.8,3.52-8.99-.04-.68-1.1-1.3-2.23-1.97-3.34-.17-.28-.24-.7-.76-.52-1.94,.66-3.84,1.4-5.24,2.99-.97,1.1-.95,2.14-.04,3.29,.7,.88,1.62,1.46,2.61,1.96,3.12,1.56,6.48,2.02,9.91,2.08ZM28.29,53.49c0-.43-.05-.87,.01-1.29,.14-.96-.17-1.27-1.18-1.23-2.65,.11-5.21-.45-7.67-1.42-1.49-.59-2.42,0-2.46,1.59-.03,1.29-.04,2.59,0,3.88,.1,2.75,2.27,5.06,5,5.38,2.73,.32,5.32-1.45,6.08-4.12,.27-.93,.19-1.87,.21-2.8Zm-5.92,14.49c1.8,0,3.27-1.05,3.79-2.46,.24-.64-.09-1.02-.39-1.48-.33-.51-.68-.18-1.03-.1-1.36,.32-2.71,.36-4.07,.03-.45-.11-.89-.46-1.31,.23-.36,.58-.4,1.03-.11,1.61,.7,1.4,1.85,2.07,3.12,2.17Zm-9.15-13.19c0-1.11-.03-2.12,.01-3.13,.03-.79-.32-.73-.83-.46-.77,.4-1.16,1.05-1.04,1.9,.13,.95,.73,1.49,1.86,1.68Zm18.83,.03c1.11-.24,1.74-.75,1.86-1.71,.11-.85-.27-1.5-1.04-1.9-.52-.27-.86-.32-.83,.47,.04,1.01,.01,2.01,.01,3.15Z"/><path class="cls-4" d="M20.63,92.52c-4.04,0-8.08-.02-12.12,.02-.77,0-.97-.19-.96-.96,.02-2.83-.01-2.83,2.85-2.83,7.49,0,14.99,.02,22.48-.02,.88,0,1.1,.2,1.09,1.09-.05,2.71-.01,2.71-2.73,2.71h-10.59Z"/><path class="cls-4" d="M20.63,100.07c-4.04,0-8.08-.02-12.12,.02-.77,0-.97-.19-.96-.96,.02-2.83-.01-2.83,2.85-2.83,7.49,0,14.99,.02,22.48-.02,.88,0,1.1,.2,1.09,1.09-.05,2.71-.01,2.71-2.73,2.71h-10.59Z"/><path class="cls-4" d="M9.45,103.84q1.88,0,1.88,1.89t-1.89,1.88-1.88-1.89,1.89-1.88Z"/><path class="cls-4" d="M18.87,105.78q0,1.83-1.82,1.83t-1.95-1.94,1.82-1.83,1.95,1.94Z"/><path class="cls-4" d="M26.4,105.78q0,1.83-1.82,1.83t-1.95-1.94,1.82-1.83,1.95,1.94Z"/><path class="cls-4" d="M33.93,105.78q0,1.83-1.82,1.83t-1.95-1.94,1.82-1.83,1.95,1.94Z"/><path class="cls-3" d="M22.64,81.19c-5.92,0-11.84-.02-17.77,.02-.87,0-1.13-.19-1.1-1.09,.08-1.96,0-3.93,.03-5.89,.03-2.79,1.74-4.96,4.48-5.58,2.21-.51,4.45-.9,6.67-1.4,.58-.13,.81,.06,1.09,.53,3.19,5.34,10.11,5.32,13.22-.03,.22-.38,.32-.68,.94-.53,2.25,.53,4.53,.91,6.78,1.42,2.79,.64,4.48,2.8,4.5,5.69,.01,1.93-.04,3.85,.02,5.78,.03,.87-.18,1.11-1.08,1.11-5.92-.05-11.84-.02-17.77-.02Z"/><path class="cls-3" d="M86.68,43.75c.04-8.12,6.17-13.79,14-13.5,7.19,.26,12.84,6.61,12.34,13.87-.14,2.02-.75,3.92-1.77,5.67-3.3,5.66-6.58,11.32-9.88,16.97-.91,1.56-2.08,1.57-2.99,.01-3.32-5.69-6.64-11.38-9.94-17.07-1.17-2.01-1.74-4.19-1.76-5.96Zm13.28-9.74c-5.2-.04-9.48,4.18-9.51,9.37-.03,5.16,4.14,9.43,9.26,9.5,5.2,.07,9.52-4.13,9.57-9.31,.05-5.22-4.14-9.52-9.32-9.56Z"/><path class="cls-2" d="M69.72,102.01c-.03,6.22-5.14,11.29-11.36,11.26-6.2-.03-11.27-5.16-11.24-11.38,.03-6.22,5.14-11.29,11.36-11.26,6.21,.03,11.27,5.15,11.24,11.38Zm-17.56,.6c-.14,.13-.29,.25-.43,.39-.53,.52-1.03,1.08-1.59,1.57-.49,.43-.52,.73-.02,1.2,1.31,1.24,2.6,2.51,3.82,3.83,.57,.62,.89,.56,1.45-.02,3.27-3.33,6.58-6.62,9.87-9.92,2.09-2.09,2.06-2.07,0-4.11-.54-.54-.81-.45-1.29,.04-2.58,2.63-5.2,5.23-7.8,7.84q-1.51,1.51-3.01,.02c-.3-.3-.53-.68-1-.83Z"/><path class="cls-2" d="M58.47,26.46c-6.21,.02-11.33-5.06-11.34-11.28-.02-6.23,5.05-11.35,11.25-11.37,6.22-.02,11.32,5.05,11.34,11.27,.02,6.23-5.04,11.35-11.25,11.37Zm-3.89-3.1c.39-.05,.55-.36,.76-.57,3.38-3.38,6.76-6.77,10.14-10.15,1.83-1.83,1.79-1.79,0-3.7-.71-.75-1.06-.63-1.72,.05-2.79,2.87-5.64,5.67-8.45,8.51-.4,.41-.67,.66-1.21,.1-.61-.63-1.15-1.79-1.95-1.65-.73,.13-1.31,1.15-1.96,1.78-.03,.03-.05,.06-.08,.08-.49,.36-.48,.67-.02,1.11,1.38,1.33,2.72,2.71,4.08,4.07,.14,.14,.28,.26,.41,.38Z"/><path class="cls-5" d="M21.41,37.8c-.22,.97-.44,1.84-.62,2.72-.14,.68-.02,1.18,.86,1.04,.11-.02,.23,0,.35,0,.74,0,1.58,.19,2.21-.08,.65-.28,.41-1.24,.66-1.88,1.01-2.61,3.77-4.16,6.41-3.56,2.83,.65,4.73,3.12,4.52,5.9-.21,2.84-2.55,5.15-5.4,5.26-3.7,.14-7.33-.01-10.8-1.66-1.51-.72-3,.08-4.22,1.07-.57,.46-1.1,.67-1.8,.62-.83-.06-1.67,.02-2.4,.43-.72,.4-.94,.03-1.19-.54-1.8-4.11,.98-8.88,5.52-9.28,1.93-.17,3.89-.03,5.89-.03Z"/><path class="cls-1" d="M28.29,53.49c-.02,.94,.05,1.87-.22,2.8-.76,2.66-3.35,4.43-6.08,4.12-2.73-.32-4.9-2.63-5-5.38-.05-1.29-.04-2.59,0-3.88,.04-1.6,.97-2.18,2.46-1.59,2.46,.97,5.02,1.53,7.67,1.42,1.01-.04,1.32,.27,1.18,1.23-.06,.42-.01,.86,0,1.29Z"/><path class="cls-1" d="M22.37,67.97c-1.28-.1-2.42-.77-3.12-2.17-.29-.58-.24-1.03,.11-1.61,.42-.69,.87-.34,1.31-.23,1.36,.33,2.72,.29,4.07-.03,.35-.08,.7-.41,1.03,.1,.3,.46,.63,.84,.39,1.48-.52,1.41-2,2.46-3.79,2.46Z"/><path class="cls-1" d="M13.22,54.79c-1.13-.19-1.73-.73-1.86-1.68-.12-.85,.27-1.5,1.04-1.9,.51-.27,.86-.33,.83,.46-.04,1.01-.01,2.02-.01,3.13Z"/><path class="cls-1" d="M32.05,54.82c0-1.13,.03-2.14-.01-3.15-.03-.78,.31-.74,.83-.47,.77,.4,1.15,1.05,1.04,1.9-.12,.96-.75,1.47-1.86,1.71Z"/><path class="cls-4" d="M99.96,34.01c5.18,.04,9.37,4.34,9.32,9.56-.05,5.18-4.37,9.38-9.57,9.31-5.12-.07-9.29-4.34-9.26-9.5,.03-5.19,4.31-9.41,9.51-9.37Zm-.08,15.08c3.07,0,5.62-2.55,5.62-5.63,0-3.08-2.52-5.64-5.59-5.66-3.13-.02-5.7,2.56-5.68,5.69,.02,3.08,2.57,5.61,5.65,5.61Z"/><path class="cls-4" d="M52.16,102.61c.46,.15,.7,.54,1,.83q1.51,1.49,3.01-.02c2.6-2.61,5.22-5.2,7.8-7.84,.48-.49,.74-.58,1.29-.04,2.07,2.05,2.09,2.02,0,4.11-3.3,3.3-6.61,6.59-9.87,9.92-.56,.58-.88,.64-1.45,.02-1.22-1.32-2.51-2.59-3.82-3.83-.5-.47-.47-.77,.02-1.2,.56-.49,1.06-1.05,1.59-1.57,.14-.14,.29-.26,.43-.39Z"/><path class="cls-4" d="M54.57,23.36c-.13-.12-.27-.24-.41-.38-1.36-1.36-2.7-2.73-4.08-4.07-.45-.43-.47-.75,.02-1.11,.03-.02,.06-.06,.08-.08,.65-.63,1.22-1.65,1.96-1.78,.8-.14,1.34,1.02,1.95,1.65,.54,.55,.8,.3,1.21-.1,2.81-2.84,5.67-5.64,8.45-8.51,.65-.67,1.01-.8,1.72-.05,1.79,1.91,1.83,1.87,0,3.7-3.38,3.39-6.76,6.77-10.14,10.15-.21,.21-.37,.52-.76,.57Z"/></g></g></svg>