<?xml version="1.0" encoding="UTF-8"?><svg id="Layer_2" xmlns="http://www.w3.org/2000/svg" viewBox="0 0 144.03 140.75"><defs><style>.cls-1{fill:#e9f6f6;}.cls-2{fill:#fff;}.cls-3{fill:#b6e5f5;}.cls-4{fill:#add;}.cls-5{fill:#06ffd5;}.cls-6{fill:#1a2959;}</style></defs><g id="Layer_1-2"><g id="kltSiJ"><g><path class="cls-6" d="M7.65,114.99c-1.28,.82-2.36,.55-3.36-.54-.92-1-1.93-1.92-2.87-2.9-1.86-1.94-1.91-4.51-.05-6.41,3.25-3.31,6.53-6.59,9.83-9.85,1.71-1.69,3.95-1.86,5.86-.42,.65,.49,.96,.42,1.45-.13,1.47-1.63,2.34-3.48,2.36-5.7,.02-2.01,0-4.03,.02-6.04,.03-3.38,1.17-6.32,3.57-8.73,3.17-3.19,6.34-6.39,9.54-9.55,1.98-1.95,3.18-2.48,7.33-3.47-1.75-3.72-1.01-7.68-1.08-11.56-.06-3.08-.28-6.19,.17-9.26,.38-2.53,1.64-4.65,3.44-6.45,1.39-1.39,2.8-2.77,4.16-4.19,1.56-1.62,2.36-3.56,2.4-5.82,0-.64-.07-.96-.84-1.1-2.63-.5-3.94-2.14-3.95-4.81-.02-4.4-.02-8.81,0-13.21C45.64,1.88,47.5,0,50.44,0c12.93,0,25.87-.01,38.8,0,2.89,0,4.72,1.86,4.73,4.76,.02,4.45,.01,8.9,0,13.35,0,2.57-1.23,4.17-3.7,4.72-.7,.15-.88,.41-.9,1.1-.06,2.39,.51,4.53,2.1,6.37,2.11,2.45,3.02,5.32,3.02,8.54-.01,7.45,0,14.9,0,22.35,0,.5-.16,1.03,.27,1.47,.4,.4,.65,.73,1.38,.34,5.24-2.81,10.14-2.06,14.34,2.12,2.96,2.94,5.89,5.91,8.84,8.85,2.02,2.01,3.37,4.35,3.7,7.22,.07,.6,.13,.98,.99,.89,1.32-.13,2.3,.91,2.25,2.11-.05,1.21-1.01,2.07-2.38,2.02-.41-.01-.68-.16-.71,.45-.14,2.98,.15,5.8,2.38,8.09,.51,.52,.79,.64,1.45,.14,1.91-1.45,4.14-1.28,5.86,.42,3.31,3.25,6.56,6.56,9.85,9.83,.6,.59,.85,1.38,1.33,2.03v2.53c-.98,1.61-2.37,2.85-3.68,4.16-8.28,8.29-16.55,16.59-24.83,24.88-2.69,2.7-4.93,2.69-7.61,0-2.98-2.98-5.97-5.96-8.94-8.96-1.93-1.94-2.18-3.96-.68-6.18,.35-.51,.28-.71-.09-1.12-1.72-1.89-3.81-2.99-6.36-3.19-2.87-.22-5.32-1.37-7.37-3.37-2.21-2.16-4.4-4.34-6.59-6.53-1.3-1.3-1.36-1.93-.4-3.57,1.35-.78,2.44-.43,3.49,.66,2.05,2.12,4.18,4.17,6.27,6.26,1.38,1.37,3,2.19,4.96,2.35,3.46,.28,6.41,1.66,8.76,4.22,.54,.59,.87,.71,1.51,.06,6.69-6.76,13.42-13.48,20.16-20.19,.58-.57,.54-.88,0-1.43-2.56-2.6-3.76-5.75-3.68-9.4,.04-1.78,.02-3.56,0-5.34-.02-1.98-.53-3.84-1.93-5.28-3.4-3.49-6.81-6.97-10.33-10.34-1.89-1.82-4.27-2.22-6.8-1.51-1.39,.39-1.42,.51-.42,1.52,1.39,1.4,2.79,2.78,4.16,4.19,1.14,1.17,1.21,2.42,.24,3.32-.9,.84-2.13,.71-3.23-.35-1.38-1.33-2.74-2.68-4.11-4.02-.55-.71-1.15-1.37-1.96-1.9-.04,.22-.07,.31-.07,.4,0,4.49,0,8.98-.01,13.47-.02,5.47-3.92,8.64-9.26,7.5-.85-.18-.92,.13-.92,.81,0,1.59,.06,3.19-.11,4.76-.51,4.46-4.81,7.29-9.11,5.98-1.04-.32-1.33,0-1.4,.92-.98,1.95-2.38,3.45-4.53,4.12-.48,.15-.76,.54-1.09,.86-2.68,2.68-5.37,5.36-8.04,8.06-2.19,2.21-4.78,3.54-7.91,3.78-2.5,.19-4.53,1.32-6.23,3.15-.44,.48-.4,.72-.05,1.23,1.37,2.02,1.18,4.14-.52,5.87-3.22,3.27-6.46,6.52-9.73,9.74-1.96,1.93-4.53,1.92-6.49-.04-6.04-6.01-12.04-12.06-18.08-18.08-.97-.96-1.2-1.96-.49-3.14,1.47-1.14,2.24-1.08,3.63,.3,5.8,5.8,11.59,11.59,17.36,17.41,.61,.61,.96,.77,1.65,.05,2.87-2.96,5.79-5.87,8.73-8.76,.56-.55,.59-.88,.01-1.45-8.95-8.93-17.89-17.88-26.8-26.85-.57-.58-.9-.55-1.44,.01-2.12,2.18-4.3,4.31-6.44,6.48-.98,.99-2.61,1.96-2.71,3.05-.11,1.14,1.73,1.99,2.64,3.04,.06,.07,.13,.13,.2,.2,1.19,1.23,1.25,1.98,.3,3.46ZM66.64,20.84c.48-1.73,.93-2.08,2.79-2.08,6.32,0,12.64-.02,18.97,.01,.98,0,1.4-.16,1.38-1.29-.07-4.03-.05-8.05-.01-12.08,0-.88-.18-1.2-1.14-1.2-12.55,.03-25.1,.03-37.65,0-.82,0-1.15,.17-1.14,1.08,.04,4.12,.04,8.24,0,12.36,0,.87,.27,1.14,1.12,1.12,2.43-.04,4.87,.03,7.3-.03,1.55-.04,2.51,.55,2.81,2.1-.28,1.44-1.14,2.18-2.63,2.14-.51-.01-1.02,0-1.53,0-2.18,0-2.17,0-2.33,2.1-.05,.64-.17,1.28-.25,1.93-.8,2.55-2.14,4.76-4.1,6.59-1.23,1.15-2.4,2.37-3.57,3.58-1.39,1.43-2.2,3.14-2.21,5.16-.02,4.73-.06,9.47,.01,14.2,.04,2.7,1.43,4.69,3.75,6.02,1.1,.63,1.35,.47,1.36-.81,.01-2.06-.03-4.12,.02-6.18,.03-1.15,.62-1.96,1.83-2.13,1.07-.15,1.86,.34,2.22,1.31,.19,.5,.14,1.11,.14,1.67,0,12.42,0,24.83,.01,37.25,0,.6,.01,1.23,.16,1.81,.37,1.49,1.63,2.32,3.16,2.18,1.42-.13,2.45-1.18,2.59-2.67,.05-.51,.04-1.03,.04-1.54,0-11.11,0-22.21,0-33.32,0-1.64,.81-2.62,2.09-2.65,1.28-.03,2.09,.95,2.13,2.58,0,.37,0,.75,0,1.12,0,12.65,0,25.3,0,37.96,0,2.29,1.15,3.6,3.03,3.58,1.82-.02,2.92-1.31,2.93-3.53,.01-1.87-.06-3.75-.06-5.62,0-10.87,0-21.74,0-32.61,0-.42-.02-.85,.02-1.26,.13-1.31,.98-2.16,2.15-2.17,1.16-.01,2,.84,2.12,2.17,.04,.42,.01,.84,.01,1.26,0,10.96,0,21.93,0,32.89,0,.42-.02,.85,.02,1.26,.15,1.43,1.28,2.48,2.71,2.56,1.48,.08,2.71-.77,3.02-2.18,.14-.63,.15-1.3,.15-1.95,0-11.11,0-22.21,0-33.32,0-1.1,.18-2.11,1.35-2.52,1.19-.42,2.09,.07,2.74,1.1,.04,.75,.12,1.49,.12,2.24,.01,7.17,.02,14.34,0,21.51,0,1.35,.28,2.52,1.55,3.22,2.17,1.2,4.41-.41,4.41-3.21,.01-14.67,0-29.34,0-44.01,0-1.99-.57-3.79-1.88-5.31-2.22-2.61-3.35-5.61-3.19-9.04,.05-1.03-.35-1.23-1.28-1.22-4.83,.04-9.66,.03-14.48,.01-1.78,0-2.31-.43-2.77-2.13Zm-24.72,44.77c-1.98,0-3.63,.79-5.01,2.17-3.15,3.15-6.29,6.3-9.44,9.45-1.61,1.61-2.36,3.57-2.37,5.82,0,1.69-.04,3.38,0,5.06,.11,3.75-1.07,7-3.71,9.68-.48,.49-.6,.77-.04,1.33,6.78,6.74,13.53,13.51,20.27,20.3,.58,.58,.9,.53,1.41-.04,2.45-2.71,5.55-4.04,9.16-4.33,1.49-.12,2.86-.68,3.92-1.7,1.99-1.91,3.9-3.91,5.84-5.87,.15-.11,.3-.22,.45-.33,.89-.65,1.07-1.17-.03-1.9-1.15-.76-1.85-1.97-2.26-3.3-.13-.42-.21-.71-.84-.48-4.95,1.78-9.88-1.92-9.75-7.64,.18-7.86,.04-15.73,.04-23.6,0-.49,0-.98,0-1.83-.94,.99-1.63,1.72-2.32,2.45-1.3,1.27-2.58,2.54-3.89,3.79-1.07,1.03-2.34,1.1-3.21,.21-.91-.92-.83-2.09,.24-3.2,1.26-1.31,2.53-2.59,3.8-3.89,.49-.34,.95-.72,1.22-1.34-1.1-.6-2.23-.94-3.47-.81Zm69.65,70.78c.46,0,.63-.32,.85-.54,8.94-8.95,17.88-17.91,26.83-26.85,.51-.51,.55-.81,.02-1.34-3-2.96-5.98-5.95-8.94-8.95-.53-.54-.83-.5-1.34,.01-8.93,8.97-17.87,17.92-26.82,26.86-.55,.55-.61,.87-.03,1.44,2.98,2.92,5.91,5.89,8.86,8.84,.19,.19,.4,.37,.57,.53Z"/><path class="cls-2" d="M96.52,70.54c1.37,1.34,2.74,2.68,4.11,4.02,1.1,1.06,2.33,1.19,3.23,.35,.97-.91,.9-2.16-.24-3.32-1.37-1.41-2.77-2.79-4.16-4.19-1-1-.97-1.12,.42-1.52,2.53-.71,4.91-.31,6.8,1.51,3.51,3.37,6.93,6.85,10.33,10.34,1.4,1.44,1.91,3.29,1.93,5.28,.02,1.78,.03,3.56,0,5.34-.08,3.65,1.12,6.8,3.68,9.4,.55,.55,.58,.86,0,1.43-6.74,6.71-13.46,13.43-20.16,20.19-.64,.65-.97,.53-1.51-.06-2.35-2.57-5.3-3.94-8.76-4.22-1.96-.16-3.58-.98-4.96-2.35-2.09-2.08-4.22-4.13-6.27-6.26-1.05-1.09-2.14-1.43-3.49-.66-.74-.44-1.31-1.06-1.8-1.75,2.08,.1,4.1-.17,5.93-1.26,3.29-1.96,4.93-4.86,4.76-8.71-.05-1.02,.08-1.51,1.36-1.63,5.33-.51,9.01-4.63,8.81-9.72-.16-4.06-.02-8.14-.02-12.2Z"/><path class="cls-3" d="M7.65,114.99c.95-1.48,.89-2.23-.3-3.46-.07-.07-.14-.13-.2-.2-.91-1.05-2.75-1.89-2.64-3.04,.1-1.09,1.73-2.06,2.71-3.05,2.14-2.16,4.32-4.29,6.44-6.48,.55-.56,.87-.59,1.44-.01,8.92,8.97,17.85,17.91,26.8,26.85,.57,.57,.55,.89-.01,1.45-2.94,2.89-5.86,5.79-8.73,8.76-.69,.72-1.05,.56-1.65-.05-5.77-5.82-11.57-11.61-17.36-17.41-1.39-1.39-2.16-1.44-3.63-.3-.71-1.25-1.84-2.1-2.87-3.04Zm25.33,9.65c-1.18-.03-2.24,.99-2.28,2.18-.04,1.22,.9,2.25,2.13,2.3,1.29,.06,2.35-.94,2.36-2.22,0-1.19-1.01-2.24-2.2-2.27Z"/><path class="cls-1" d="M96.52,70.54c0,4.07-.15,8.14,.02,12.2,.2,5.09-3.48,9.22-8.81,9.72-1.29,.12-1.41,.61-1.36,1.63,.18,3.85-1.46,6.75-4.76,8.71-1.82,1.09-3.84,1.35-5.93,1.26-.79-.38-1.15-1.3-2.02-1.58,.07-.92,.35-1.23,1.4-.92,4.3,1.31,8.61-1.52,9.11-5.98,.18-1.57,.11-3.17,.11-4.76,0-.68,.07-.99,.92-.81,5.34,1.14,9.25-2.04,9.26-7.5,.01-4.49,0-8.98,.01-13.47,0-.09,.03-.18,.07-.4,.81,.52,1.41,1.19,1.96,1.9Z"/><path class="cls-6" d="M85.9,127.16c.03,1.18-.91,2.16-2.08,2.18-1.13,.02-2.15-1-2.14-2.14,0-1.11,.91-2.03,2.04-2.07,1.21-.05,2.15,.83,2.18,2.04Z"/><path class="cls-6" d="M105.49,29.28c-.03,1.17-1.02,2.08-2.21,2.03-1.18-.05-2.08-1.04-2.01-2.22,.06-1.11,1.03-2.02,2.12-2,1.14,.02,2.13,1.06,2.1,2.19Z"/><path class="cls-6" d="M26.47,40.83c-.01,1.15-1.02,2.14-2.16,2.12-1.14-.02-2.1-1.05-2.06-2.21,.04-1.11,.97-2.01,2.09-2.02,1.19-.01,2.15,.93,2.13,2.11Z"/><path class="cls-6" d="M119.84,51.76c-1.18-.03-2.1-1-2.07-2.18,.03-1.18,1.02-2.1,2.2-2.04,1.09,.06,2.01,1.02,2.02,2.12,.01,1.16-.98,2.13-2.15,2.11Z"/><path class="cls-6" d="M18.77,55.79c.03,1.17-.93,2.15-2.1,2.16-1.14,.01-2.04-.85-2.1-1.99-.05-1.21,.83-2.19,2-2.24,1.16-.05,2.17,.91,2.2,2.07Z"/><path class="cls-6" d="M93.89,124.49c-.03,1.14-1.06,2.11-2.21,2.07-1.17-.04-2.07-1.03-2.01-2.22,.05-1.13,.96-1.99,2.1-1.99,1.17,0,2.15,.99,2.12,2.14Z"/><path class="cls-6" d="M15.95,72.42c.03,1.18-.9,2.14-2.09,2.15-1.16,.01-2.04-.81-2.1-1.97-.06-1.2,.82-2.2,1.99-2.26,1.13-.05,2.17,.93,2.2,2.07Z"/><path class="cls-6" d="M16.41,80.93c0,1.22-.9,2.11-2.12,2.09-1.14-.02-2.04-.9-2.08-2.03-.04-1.13,.95-2.18,2.09-2.2,1.16-.02,2.11,.95,2.11,2.14Z"/><path class="cls-6" d="M58.76,130.17c-1.14-.02-2.14-1.06-2.1-2.19,.04-1.18,1.02-2.07,2.22-2.02,1.17,.05,2,.91,2,2.07,0,1.18-.97,2.16-2.12,2.13Z"/><path class="cls-6" d="M109.94,33c1.16,.02,2.09,1,2.07,2.18-.02,1.21-.95,2.08-2.17,2.03-1.11-.04-2.03-.99-2.05-2.08-.01-1.13,1.02-2.16,2.15-2.14Z"/><path class="cls-6" d="M52.8,125.77c.02,1.14-.98,2.16-2.11,2.16-1.09,0-2.04-.91-2.09-2.02-.06-1.22,.81-2.16,2.01-2.19,1.2-.03,2.17,.88,2.19,2.05Z"/><path class="cls-6" d="M125.1,57.93c-.02,1.16-1.01,2.09-2.2,2.05-1.21-.04-2.06-.97-2.01-2.2,.05-1.13,.97-2.03,2.08-2.02,1.13,0,2.14,1.03,2.12,2.17Z"/><path class="cls-6" d="M16.15,87.12c1.17,.03,2.12,1.02,2.07,2.18-.05,1.08-1.03,2.04-2.1,2.05-1.15,0-2.1-.97-2.1-2.15,0-1.22,.9-2.1,2.13-2.07Z"/><path class="cls-6" d="M77.66,128.69c.03,1.17-.91,2.13-2.1,2.14-1.14,0-2.06-.85-2.12-1.97-.06-1.17,.86-2.18,2.03-2.24,1.13-.05,2.17,.92,2.2,2.07Z"/><path class="cls-6" d="M31.91,34.28c.03,1.18-.9,2.17-2.05,2.2-1.14,.03-2.16-.97-2.16-2.12,0-1.1,.9-2.04,2.02-2.09,1.22-.06,2.16,.8,2.19,2.01Z"/><path class="cls-6" d="M127.21,75.4c-.02,1.21-.95,2.11-2.15,2.07-1.11-.04-2.03-.98-2.04-2.08-.01-1.15,.98-2.15,2.13-2.15,1.17,0,2.09,.96,2.07,2.16Z"/><path class="cls-6" d="M69.24,129.01c0,1.19-.93,2.11-2.13,2.09-1.12-.02-2.05-.92-2.09-2.02-.04-1.14,.94-2.17,2.08-2.19,1.16-.02,2.13,.95,2.13,2.12Z"/><path class="cls-6" d="M16.69,64.06c0,1.22-.92,2.11-2.13,2.09-1.13-.02-2.04-.91-2.07-2.03-.03-1.14,.96-2.18,2.09-2.2,1.15-.02,2.11,.96,2.11,2.14Z"/><path class="cls-6" d="M115.46,39.9c1.17,0,2.14,.97,2.13,2.13-.02,1.1-.95,2.06-2.04,2.1-1.14,.04-2.16-.94-2.19-2.09-.03-1.19,.9-2.14,2.1-2.14Z"/><path class="cls-6" d="M36.25,26.7c1.19,.02,2.1,.99,2.05,2.18-.05,1.11-1,2.03-2.09,2.04-1.15,0-2.15-.99-2.14-2.14,.01-1.17,1-2.1,2.18-2.08Z"/><path class="cls-6" d="M98.08,24.47c-.03,1.17-1.01,2.07-2.21,2.02-1.15-.05-2-.92-2-2.07,0-1.17,.97-2.16,2.11-2.14,1.13,.02,2.13,1.05,2.1,2.18Z"/><path class="cls-6" d="M22.01,47.97c.03,1.21-.86,2.14-2.07,2.15-1.18,.01-2.17-.95-2.15-2.1,.02-1.07,.97-2.07,2.04-2.12,1.15-.06,2.15,.89,2.18,2.07Z"/><path class="cls-6" d="M43.38,22.17c1.2,.02,2.1,.96,2.06,2.15-.04,1.11-.97,2.03-2.07,2.04-1.15,.02-2.14-.97-2.13-2.12,0-1.18,.94-2.09,2.15-2.07Z"/><path class="cls-6" d="M124.72,64.42c1.17-.02,2.14,.95,2.14,2.13,0,1.11-.9,2.05-2.01,2.1-1.18,.05-2.16-.86-2.2-2.04-.03-1.18,.9-2.17,2.07-2.18Z"/><path class="cls-2" d="M84.16,58.78c-.65-1.03-1.55-1.52-2.74-1.1-1.17,.41-1.35,1.42-1.35,2.52,0,11.11,0,22.21,0,33.32,0,.65-.01,1.32-.15,1.95-.31,1.41-1.54,2.26-3.02,2.18-1.43-.07-2.56-1.13-2.71-2.56-.04-.42-.02-.84-.02-1.26,0-10.96,0-21.93,0-32.89,0-.42,.02-.85-.01-1.26-.11-1.33-.95-2.18-2.12-2.17-1.17,.01-2.02,.85-2.15,2.17-.04,.42-.02,.84-.02,1.26,0,10.87,0,21.74,0,32.61,0,1.87,.07,3.75,.06,5.62-.01,2.22-1.11,3.51-2.93,3.53-1.89,.02-3.03-1.29-3.03-3.58,0-12.65,0-25.3,0-37.96,0-.37,0-.75,0-1.12-.04-1.63-.84-2.61-2.13-2.58-1.28,.03-2.09,1.01-2.09,2.65-.01,11.11,0,22.21,0,33.32,0,.52,.01,1.03-.04,1.54-.14,1.49-1.17,2.54-2.59,2.67-1.53,.14-2.78-.69-3.16-2.18-.15-.58-.16-1.2-.16-1.81,0-12.42,0-24.83-.01-37.25,0-.56,.05-1.16-.14-1.67-.37-.98-1.16-1.46-2.22-1.31-1.21,.17-1.8,.98-1.83,2.13-.05,2.06,0,4.12-.02,6.18,0,1.28-.26,1.45-1.36,.81-2.31-1.33-3.71-3.32-3.75-6.02-.07-4.73-.03-9.47-.01-14.2,0-2.02,.82-3.72,2.21-5.16,1.17-1.21,2.34-2.43,3.57-3.58,1.97-1.84,3.31-4.04,4.1-6.59,4.93,.21,9.88-.41,14.81,.52,8.46,1.59,15.45,9.89,15.28,18.28-.08,3.83,0,7.67-.02,11.51,0,.5,.17,1.04-.24,1.47Z"/><path class="cls-2" d="M61.96,107.47c-1.94,1.96-3.84,3.96-5.84,5.87-1.07,1.02-2.44,1.58-3.92,1.7-3.61,.28-6.71,1.62-9.16,4.33-.51,.57-.84,.62-1.41,.04-6.73-6.79-13.49-13.55-20.27-20.3-.56-.56-.44-.84,.04-1.33,2.64-2.68,3.82-5.93,3.71-9.68-.05-1.69-.02-3.37,0-5.06,.01-2.25,.76-4.21,2.37-5.82,3.15-3.14,6.29-6.3,9.44-9.45,1.38-1.38,3.02-2.17,5.01-2.17,.75,.72,1.5,1.44,2.25,2.15-1.27,1.29-2.54,2.58-3.8,3.89-1.07,1.11-1.15,2.28-.24,3.2,.87,.88,2.14,.81,3.21-.21,1.31-1.25,2.59-2.53,3.89-3.79,.52,.45,.3,1.05,.3,1.59,.01,7.59,0,15.19,.01,22.78,0,.56,.01,1.1,.18,1.66,1.39,4.66,4.75,7.2,9.65,7.16,.95,0,1.58,.23,2.05,1.08,.58,1.04,1.39,1.88,2.52,2.35Z"/><path class="cls-5" d="M61.07,20.84c-.3-1.55-1.26-2.14-2.81-2.1-2.43,.06-4.87-.01-7.3,.03-.85,.02-1.13-.25-1.12-1.12,.04-4.12,.04-8.24,0-12.36,0-.9,.33-1.08,1.14-1.08,12.55,.02,25.1,.03,37.65,0,.96,0,1.15,.32,1.14,1.2-.04,4.03-.06,8.05,.01,12.08,.02,1.13-.4,1.29-1.38,1.29-6.32-.04-12.64-.02-18.97-.01-1.86,0-2.31,.35-2.79,2.08-1.86,0-3.71,0-5.57,0Zm-2.03-9.41c-.03-1.21-1.04-2.18-2.27-2.17-1.3,0-2.27,1.04-2.21,2.34,.06,1.22,1.11,2.19,2.3,2.14,1.18-.05,2.2-1.14,2.18-2.31Z"/><path class="cls-4" d="M111.58,136.39c-.17-.15-.38-.33-.57-.53-2.95-2.95-5.88-5.92-8.86-8.84-.59-.58-.52-.9,.03-1.44,8.96-8.94,17.9-17.89,26.82-26.86,.51-.51,.81-.55,1.34-.01,2.96,3.01,5.94,5.99,8.94,8.95,.54,.53,.49,.83-.02,1.34-8.95,8.94-17.89,17.9-26.83,26.85-.22,.22-.39,.55-.85,.54Zm20.98-28.57c.09-1.28-.77-2.3-2.02-2.39-1.26-.09-2.3,.78-2.41,2.03-.1,1.2,.83,2.31,2.05,2.43,1.2,.12,2.29-.83,2.38-2.06Z"/><path class="cls-1" d="M61.07,20.84c1.86,0,3.71,0,5.57,0,.47,1.7,.99,2.13,2.77,2.13,4.83,.01,9.66,.03,14.48-.01,.94,0,1.33,.19,1.28,1.22-.16,3.43,.97,6.43,3.19,9.04,1.3,1.53,1.88,3.33,1.88,5.31,0,14.67,0,29.34,0,44.01,0,2.8-2.25,4.41-4.41,3.21-1.27-.7-1.56-1.88-1.55-3.22,.01-7.17,0-14.34,0-21.51,0-.75-.08-1.49-.12-2.24,.42-.43,.24-.98,.24-1.47,.01-3.84-.06-7.67,.02-11.51,.17-8.38-6.82-16.68-15.28-18.28-4.93-.93-9.88-.31-14.81-.52,.09-.64,.2-1.28,.25-1.93,.16-2.1,.15-2.1,2.33-2.1,.51,0,1.02-.01,1.53,0,1.49,.04,2.35-.69,2.63-2.14Z"/><path class="cls-1" d="M61.96,107.47c-1.13-.48-1.94-1.31-2.52-2.35-.47-.85-1.1-1.08-2.05-1.08-4.9,.04-8.26-2.51-9.65-7.16-.17-.56-.18-1.1-.18-1.66,0-7.59,0-15.19-.01-22.78,0-.54,.21-1.14-.3-1.59,.69-.73,1.38-1.46,2.32-2.45,0,.85,0,1.34,0,1.83,0,7.87,.13,15.74-.04,23.6-.13,5.72,4.79,9.41,9.75,7.64,.64-.23,.71,.06,.84,.48,.41,1.34,1.11,2.54,2.26,3.3,1.1,.73,.92,1.25,.03,1.9-.15,.11-.3,.22-.45,.33Z"/><path class="cls-2" d="M44.18,67.76c-.75-.72-1.5-1.44-2.25-2.15,1.24-.13,2.37,.21,3.47,.81-.27,.62-.73,.99-1.22,1.34Z"/><path class="cls-6" d="M32.98,124.64c1.19,.03,2.21,1.08,2.2,2.27,0,1.28-1.07,2.27-2.36,2.22-1.22-.05-2.17-1.08-2.13-2.3,.04-1.19,1.11-2.21,2.28-2.18Z"/><path class="cls-6" d="M59.05,11.43c.03,1.17-1,2.25-2.18,2.31-1.19,.05-2.24-.92-2.3-2.14-.06-1.31,.91-2.34,2.21-2.34,1.23,0,2.24,.97,2.27,2.17Z"/><path class="cls-6" d="M132.56,107.82c-.09,1.23-1.18,2.18-2.38,2.06-1.22-.12-2.15-1.23-2.05-2.43,.11-1.24,1.15-2.12,2.41-2.03,1.25,.09,2.11,1.12,2.02,2.39Z"/></g></g></g></svg>