<?xml version="1.0" encoding="UTF-8"?><svg id="Layer_2" xmlns="http://www.w3.org/2000/svg" viewBox="0 0 117 118.59"><defs><style>.cls-1{fill:#050401;}.cls-2{fill:#e9f6f6;}.cls-3{fill:#add;}.cls-4{fill:#06ffd5;}.cls-5{fill:#05bfa0;}.cls-6{fill:#1a2959;}</style></defs><g id="Layer_1-2"><g><path class="cls-6" d="M98.82,91.31c.72,1.01,.57,1.9-.3,2.78-1.22,1.23-2.44,2.48-3.85,3.5-.7,.51-.96,1.08-1,1.91-.15,3.55-.57,7.07-1,10.59-.52,4.26-3.44,7.45-7.67,8.27-.08,.02-.15,.14-.22,.21h-3.24c-.08-.3-.36-.23-.56-.29-3.93-1.25-6.27-3.91-6.97-7.96-.24-1.4-.4-2.82-.52-4.24-.05-.56-.24-.68-.77-.68-8.18,0-16.36,0-24.53-.02-.5,0-.65,.15-.69,.65-.12,1.3-.31,2.6-.45,3.9-.44,4.03-3.07,7.21-6.84,8.31-.42,.12-.93-.07-1.26,.34h-3.01c-.55-.45-1.27-.44-1.89-.73-3.39-1.57-5.28-4.21-5.76-7.92-.51-3.9-.89-7.81-1.06-11.74-.03-.6-.25-.99-.68-1.36-7.71-6.65-11.87-15.08-12.59-25.23-.03-.37,.08-.77-.56-.74-2.55,.15-5.07,.43-7.31,1.83-1.18,.74-2.07,1.71-2.45,3.09-.34,1.28,.09,2.68,1.02,3.33,1.19,.84,2.65,.18,2.81-1.27,.14-1.26,.84-1.96,1.87-1.88,.99,.07,1.6,.85,1.61,2.03,.02,2-1.37,3.91-3.38,4.66-2.06,.77-4.46,.11-5.97-1.65-1.93-2.25-2.1-5.58-.38-8.29,1.82-2.87,4.65-4.17,7.83-4.84,1.36-.29,2.74-.49,4.13-.46,.69,.02,.8-.27,.85-.87,.34-3.98,1.32-7.81,2.96-11.46,.64-1.42,1.18-1.68,2.73-1.35,.97,.85,.88,1.8,.41,2.91-4.28,10.13-3.59,19.98,1.85,29.5,1.36,2.37,3.06,4.48,5.14,6.5,.24-2.25,.29-4.33,.69-6.36,.26-1.32,.99-1.96,2.09-1.78,1.05,.18,1.54,1.1,1.35,2.41-.17,1.18-.32,2.37-.43,3.56-.52,6.03,.1,12.02,.78,18,.21,1.89,.5,3.76,2.16,5.04,1.76,1.61,3.79,1.98,5.99,1.15,2.26-.86,3.5-2.58,3.81-4.95,.27-2.06,.48-4.13,.72-6.2,.15-1.28,.9-1.88,2.21-1.79,.88,.06,1.77,.16,2.65,.16,7.52,.02,15.04,.02,22.56,.02q1.42,0,1.27-1.42c-.03-1-.09-1.99-.09-2.99,0-1.08,.68-1.81,1.65-1.86,.92-.05,1.62,.57,1.79,1.59,.06,.34,.09,.69,.09,1.03,.09,3.15,.41,6.28,.78,9.41,.25,2.13,.35,4.33,2.26,5.82,1.7,1.62,3.7,2.01,5.87,1.23,2.26-.81,3.56-2.5,3.9-4.88,.58-4.05,.95-8.12,1.12-12.2,.03-.81,.35-1.38,1-1.84,1.7-1.22,3.25-2.61,4.69-4.11,1.04-1.08,1.52-1.13,2.83-.39Z"/><path class="cls-6" d="M12.05,5.29c-.59-1.46-.41-2.04,.89-2.87,1.7-1.07,3.54-1.76,5.5-2.16,.2-.04,.48,.06,.55-.26h4.4c.81,.44,1.74,.41,2.6,.67,7.8,2.38,12.6,10.35,11.02,18.35-1.56,7.91-8.91,13.44-16.95,12.76-11.06-.94-17.84-12.56-13.15-22.53,.67-1.43,1.18-1.67,2.74-1.29,.94,.82,.89,1.71,.4,2.8-2.92,6.51,.17,14.29,6.56,16.62,4.85,2.24,10.94,.7,14.46-3.66,3.93-4.86,3.59-12.37-.74-16.3h0c-.07-.08-.15-.16-.22-.25-3.71-4.07-10.2-4.87-15.23-1.84-1,.61-1.9,.77-2.84-.04Z"/><path class="cls-2" d="M33.73,113.54c-1.66-1.28-1.94-3.15-2.16-5.04-.68-5.98-1.3-11.97-.78-18,.1-1.19,.25-2.37,.43-3.56,.19-1.32-.3-2.24-1.35-2.41-1.1-.19-1.83,.46-2.09,1.78-.4,2.04-.46,4.11-.69,6.36-2.08-2.02-3.79-4.13-5.14-6.5-5.44-9.52-6.14-19.36-1.85-29.5,.47-1.11,.56-2.06-.41-2.91,.49-1.17,1-2.32,2.04-3.13,1.18,.39,1.95-.13,2.67-1.04,3.48-4.42,7.84-7.71,13.01-9.9,.33-.14,.81-.71,1.17,0,.73,1.45,1.74,2.7,2.79,3.95-1.41,.57-1.95,1.35-1.65,2.33,.32,1.06,1.19,1.41,2.64,1.06,1.96-.47,3.93-.75,5.95-.74,5.83,.01,11.65,0,17.48,0,.39,0,.78,.02,1.15-.04,.98-.16,1.64-.95,1.52-1.86-.12-.96-.68-1.53-1.69-1.57-.56-.02-1.11,0-1.84,0,.83-1.24,1.81-2.2,2.09-3.41,.51-2.22,1.89-2.52,3.85-2.36,1.94,.16,2.16-.16,2.8-2,1.84-5.31,5.53-8.55,11-9.83,.98-.23,1.14,.08,1.14,.98-.04,4.05,0,8.1-.03,12.15,0,1.07,.37,1.8,1.35,2.33,8.86,4.73,14.48,12,16.88,21.75,.32,1.3,.84,1.69,2.21,1.7,1.27,.02,2.54,.03,3.82,.05,0,3.7,.02,7.41,0,11.11-.01,2.1-1.41,3.46-3.5,3.46-1.81,0-3.63,.08-5.44-.02-1.45-.08-2.26,.48-2.86,1.78-1.98,4.31-4.65,8.12-8.25,11.26-.78,.68-1.52,1.42-2.38,2-.5,.34-.68,.79-.73,1.36-.35,3.89-.66,7.79-1.13,11.67-.41,3.39-3.16,6.43-6.31,6.7-1.91-1.49-2.01-3.69-2.26-5.82-.37-3.13-.7-6.26-.78-9.41,0-.34-.04-.69-.09-1.03-.17-1.02-.87-1.64-1.79-1.59-.97,.05-1.64,.78-1.65,1.86,0,1,.06,1.99,.09,2.99-10.29,0-20.58,.03-30.88-.03-1.12,0-1.46,.47-1.48,1.35-.04,1.58-.37,3.12-.5,4.68-.3,3.67-2.97,6.63-6.35,7.02Zm57.08-56.91c0,.61,0,1.23,0,1.84,0,.08,0,.15,0,.23,.12,.98,.85,1.65,1.76,1.63,.92-.02,1.65-.7,1.69-1.69,.04-1.3,.04-2.61,0-3.92-.03-1.02-.7-1.69-1.64-1.73-1-.04-1.74,.62-1.82,1.67-.05,.65,0,1.31-.01,1.96Z"/><path class="cls-6" d="M110.02,64.18c-1.27-.02-2.54-.03-3.82-.05-1.38-.02-1.89-.4-2.21-1.7-2.4-9.76-8.02-17.02-16.88-21.75-.98-.53-1.36-1.26-1.35-2.33,.02-4.05-.01-8.1,.03-12.15,0-.9-.15-1.21-1.14-.98-5.47,1.28-9.17,4.52-11,9.83-.64,1.84-.86,2.16-2.8,2-1.96-.16-3.33,.14-3.85,2.36-.28,1.21-1.26,2.17-2.09,3.41,.73,0,1.29-.02,1.84,0,1,.04,1.56,.6,1.69,1.57,.12,.91-.54,1.7-1.52,1.86-.38,.06-.77,.04-1.15,.04-5.83,0-11.65,.02-17.48,0-2.02,0-3.99,.28-5.95,.74-1.46,.35-2.32,0-2.64-1.06-.3-.97,.24-1.75,1.65-2.33-1.05-1.25-2.07-2.5-2.79-3.95-.36-.71-.83-.15-1.17,0-5.18,2.19-9.54,5.48-13.01,9.9-.72,.91-1.49,1.44-2.67,1.04-1.16-1.2-1.2-1.77-.16-3.09,3.92-4.99,8.81-8.7,14.66-11.13,.74-.31,.96-.6,.83-1.41-1.4-8.79,4.6-17.13,13.14-18.32,9.03-1.26,17.09,4.7,18.33,13.59,.11,.76,.05,1.54,.13,2.31,.03,.35-.36,.98,.36,.98,.6,0,1.33,.4,1.72-.63,1.22-3.25,3.29-5.9,6.09-7.97,2.5-1.85,5.31-2.94,8.37-3.37,2.11-.3,4.02,1.35,4.05,3.6,.05,3.7,.08,7.41-.01,11.11-.03,1.17,.38,1.74,1.35,2.32,8.12,4.86,13.56,11.84,16.23,20.94,.25,.84,.58,1.17,1.49,1.11,1.27-.09,2.55-.05,3.82,0,2.69,.09,4.82,2.22,4.85,4.91,.04,4.36,.04,8.72,0,13.08-.02,2.81-2.2,4.93-5.03,4.97-1.93,.03-3.86,.03-5.79,0-.58,0-.9,.15-1.14,.71-.37,.89-.82,1.74-1.27,2.58-.73,1.37-1.18,1.57-2.7,1.26-.96-.79-1.05-1.7-.46-2.77,.54-.98,1.05-1.97,1.5-2.99,.69-1.56,1.87-2.28,3.55-2.27,1.93,0,3.86,0,5.79,0,1.57,0,2.09-.51,2.09-2.06,0-3.59,0-7.17,0-10.76,0-3.15-.24-3.37-3.49-3.17ZM61.96,24.19c-.11-.12-.23-.24-.34-.35-.02-.03-.03-.08-.05-.1-3.55-3.5-7.78-4.64-12.51-3.17-5.02,1.57-8,5.15-8.67,10.34-.62,4.81,1.24,8.73,5.11,11.67,.25,.19,.52,.3,.85,.29,2.62-.05,5.23-.08,7.85-.11,1.65,.02,3.31,.03,4.96,.06,.28,0,.52-.07,.75-.23,6.53-4.57,6.65-13.64,2.07-18.35l-.03-.04Z"/><path class="cls-4" d="M12.05,5.29c.94,.81,1.83,.64,2.84,.04,5.03-3.04,11.52-2.23,15.23,1.84,.07,.08,.15,.17,.22,.25,0,0,0,0,0,0,.59,2.41,1.32,4.74,.99,7.34-.54,4.26-2.58,7.54-5.92,10.04-2.58,1.93-5.56,2.74-8.79,2.58-6.39-2.32-9.49-10.11-6.56-16.62,.49-1.09,.53-1.98-.4-2.8,.67-1.01,1.44-1.91,2.39-2.67Zm10.48,7s0,0,0,0c.62,0,1.23,0,1.85,0,1.36-.02,2.11-.65,2.1-1.75-.01-1.05-.76-1.75-2.03-1.7-.84,.03-1.09-.17-1.12-1.05-.03-.94-.7-1.54-1.7-1.53-.99,.01-1.69,.58-1.67,1.54,.02,.89-.39,1.04-1.08,1.24-2.1,.61-3.39,2.68-3.1,4.81,.29,2.09,2.05,3.69,4.18,3.78,.65,.03,1.31,.01,1.97,0,.72,0,1.52,0,1.54,.95,.02,.98-.78,.99-1.5,.99-1.35,0-2.7-.03-4.05,.03-1,.04-1.72,.79-1.68,1.7,.05,.97,.59,1.57,1.57,1.7,.46,.06,.92,.06,1.38,.05,.44,0,.67,.07,.73,.62,.12,1.34,.78,2.02,1.77,1.97,.99-.04,1.59-.73,1.67-2.09,.03-.51,.28-.61,.65-.77,2.26-.97,3.3-2.82,2.89-5.05-.4-2.12-2.21-3.53-4.61-3.57-.69-.01-1.39,0-2.08-.01-.59-.02-.96-.34-.95-.93,0-.59,.39-.91,.97-.93,.77-.03,1.54,0,2.31,0Z"/><path class="cls-3" d="M110.02,64.18c3.24-.21,3.49,.02,3.49,3.17,0,3.59,0,7.17,0,10.76,0,1.54-.52,2.05-2.09,2.06-1.93,0-3.86,0-5.79,0-1.68,0-2.86,.71-3.55,2.27-.45,1.02-.97,2.01-1.5,2.99-.59,1.07-.5,1.98,.46,2.77-.74,1.04-1.48,2.08-2.22,3.13-1.31-.74-1.79-.69-2.83,.39-1.45,1.51-3,2.89-4.69,4.11-.64,.46-.96,1.03-1,1.84-.17,4.09-.54,8.16-1.12,12.2-.34,2.38-1.63,4.07-3.9,4.88-2.17,.78-4.16,.38-5.87-1.23,3.16-.27,5.9-3.31,6.31-6.7,.47-3.88,.77-7.78,1.13-11.67,.05-.57,.24-1.02,.73-1.36,.86-.59,1.6-1.32,2.38-2,3.6-3.14,6.27-6.96,8.25-11.26,.6-1.31,1.41-1.86,2.86-1.78,1.81,.1,3.63,.03,5.44,.02,2.09,0,3.48-1.37,3.5-3.46,.02-3.7,0-7.41,0-11.11Z"/><path class="cls-3" d="M33.73,113.54c3.39-.4,6.05-3.36,6.35-7.02,.13-1.56,.46-3.11,.5-4.68,.02-.88,.36-1.36,1.48-1.35,10.29,.06,20.58,.03,30.88,.03q.15,1.42-1.27,1.42c-7.52,0-15.04,0-22.56-.02-.88,0-1.77-.1-2.65-.16-1.31-.09-2.06,.5-2.21,1.79-.24,2.07-.44,4.14-.72,6.2-.31,2.37-1.55,4.09-3.81,4.95-2.21,.84-4.23,.46-5.99-1.15Z"/><path class="cls-5" d="M16.63,27.37c3.23,.15,6.22-.66,8.79-2.58,3.34-2.5,5.38-5.78,5.92-10.04,.33-2.59-.41-4.93-.99-7.34,4.32,3.93,4.66,11.44,.74,16.3-3.52,4.36-9.61,5.9-14.46,3.66Z"/><path class="cls-5" d="M30.35,7.42c-.07-.08-.15-.17-.22-.25,.07,.08,.15,.17,.22,.25Z"/><path class="cls-6" d="M90.81,56.63c0-.65-.04-1.31,.01-1.96,.07-1.05,.82-1.71,1.82-1.67,.94,.04,1.61,.7,1.64,1.73,.04,1.3,.04,2.61,0,3.92-.03,1-.76,1.68-1.69,1.69-.91,.02-1.65-.66-1.76-1.63,0-.08,0-.15,0-.23,0-.61,0-1.23,0-1.84Z"/><path class="cls-4" d="M54.2,42.75c-2.62,.04-5.23,.07-7.85,.11-.33,0-.6-.1-.85-.29-3.88-2.94-5.73-6.86-5.11-11.67,.67-5.19,3.65-8.78,8.67-10.34,4.73-1.48,8.95-.33,12.51,3.17,.03,.03,.04,.07,.05,.1,.02,.21,.01,.44,.34,.35,0,0,.03,.04,.03,.04-.3,.48,.03,.9,.15,1.32,.78,2.64,.89,5.28,.1,7.94-1.27,4.32-3.98,7.38-8.04,9.27Zm-.26-13.99s0-.01,0-.02c.77,0,1.55,.04,2.31,0,.95-.06,1.49-.67,1.57-1.56,.08-.91-.41-1.55-1.31-1.8-.33-.09-.69-.11-1.03-.08-.58,.04-.79-.13-.82-.76-.04-1.14-.72-1.81-1.67-1.82-.95-.01-1.7,.66-1.75,1.77-.03,.62-.22,.83-.81,.99-2.17,.58-3.58,2.59-3.34,4.65,.27,2.3,1.98,3.89,4.35,4.01,.81,.04,1.62,0,2.43,.04,.57,.03,.98,.34,.98,.93,0,.58-.41,.89-.97,.96-.27,.03-.54,.01-.81,.02-1.27,0-2.55-.02-3.82,.02-.94,.03-1.52,.57-1.62,1.49-.11,.98,.38,1.63,1.33,1.88,.36,.1,.77,.11,1.15,.08,.77-.08,1.16,.06,1.17,1.01,.01,.98,.91,1.67,1.8,1.56,.96-.11,1.61-.67,1.58-1.66-.02-.76,.29-1.03,.94-1.3,1.9-.78,3.01-2.75,2.72-4.63-.32-2.06-1.85-3.57-3.94-3.79-.88-.09-1.77-.07-2.66-.07-.63,0-1.11-.26-1.13-.9-.02-.7,.48-1,1.15-1.01,.73,0,1.47,0,2.2,0Z"/><path class="cls-5" d="M54.2,42.75c4.06-1.89,6.77-4.95,8.04-9.27,.78-2.66,.68-5.3-.1-7.94-.12-.42-.45-.84-.15-1.32,4.58,4.71,4.46,13.78-2.07,18.35-.23,.16-.47,.24-.75,.23-1.65-.02-3.31-.04-4.96-.06Z"/><path class="cls-5" d="M61.96,24.19c-.33,.09-.32-.15-.34-.35,.11,.12,.23,.24,.34,.35Z"/><path class="cls-6" d="M22.53,12.29c-.77,0-1.54-.02-2.31,0-.58,.02-.96,.34-.97,.93,0,.59,.36,.91,.95,.93,.69,.02,1.39,0,2.08,.01,2.4,.04,4.21,1.45,4.61,3.57,.42,2.23-.63,4.08-2.89,5.05-.37,.16-.62,.26-.65,.77-.08,1.37-.68,2.05-1.67,2.09-.99,.04-1.64-.63-1.77-1.97-.05-.55-.28-.62-.73-.62-.46,0-.93,.01-1.38-.05-.98-.13-1.52-.73-1.57-1.7-.05-.9,.68-1.66,1.68-1.7,1.35-.05,2.7-.02,4.05-.03,.72,0,1.52-.02,1.5-.99-.02-.96-.82-.96-1.54-.95-.66,0-1.31,.02-1.97,0-2.13-.09-3.89-1.69-4.18-3.78-.3-2.13,1-4.21,3.1-4.81,.69-.2,1.1-.36,1.08-1.24-.02-.97,.68-1.53,1.67-1.54,1-.01,1.67,.59,1.7,1.53,.03,.88,.28,1.08,1.12,1.05,1.27-.05,2.02,.65,2.03,1.7,.01,1.1-.74,1.74-2.1,1.75-.62,0-1.23,0-1.85,0,0,0,0,0,0,0Z"/><path class="cls-1" d="M53.94,28.76c-.73,0-1.47,0-2.2,0-.67,0-1.17,.31-1.15,1.01,.02,.63,.5,.89,1.13,.9,.89,0,1.78-.02,2.66,.07,2.09,.22,3.62,1.72,3.94,3.79,.29,1.89-.82,3.86-2.72,4.63-.65,.27-.96,.54-.94,1.3,.03,.99-.63,1.55-1.58,1.66-.9,.11-1.79-.58-1.8-1.56-.01-.94-.4-1.08-1.17-1.01-.38,.04-.78,.02-1.15-.08-.95-.25-1.44-.9-1.33-1.88,.11-.92,.68-1.47,1.62-1.49,1.27-.03,2.55-.01,3.82-.02,.27,0,.54,.02,.81-.02,.56-.07,.97-.38,.97-.96,0-.59-.41-.91-.98-.93-.81-.04-1.62,0-2.43-.04-2.37-.12-4.08-1.71-4.35-4.01-.24-2.06,1.17-4.07,3.34-4.65,.59-.16,.78-.37,.81-.99,.05-1.11,.8-1.78,1.75-1.77,.95,.01,1.63,.68,1.67,1.82,.02,.63,.24,.8,.82,.76,.34-.02,.7,0,1.03,.08,.9,.25,1.39,.89,1.31,1.8-.08,.89-.62,1.5-1.57,1.56-.77,.05-1.54,0-2.31,0,0,0,0,.01,0,.02Z"/></g></g></svg>