<?xml version="1.0" encoding="UTF-8"?><svg id="Layer_2" xmlns="http://www.w3.org/2000/svg" viewBox="0 0 104.75 116.79"><defs><style>.cls-1{fill:#040202;}.cls-2{fill:#010204;}.cls-3{fill:#030503;}.cls-4{fill:#030303;}.cls-5{fill:#9ec2cc;}.cls-6{fill:#b6e5f5;}.cls-7{fill:#06ffd5;}.cls-8{fill:#05bfa0;}</style></defs><g id="Layer_1-2"><g><path class="cls-4" d="M68.35,116.79c-1.21-.48-2.5-.29-3.74-.43-2.56-.29-5.14-.41-7.69-.79-5-.75-8.1-4.24-8.8-9.71-.04-.3-.06-.61-.1-.91-.2-1.39,.11-1.91,1.44-2.4,1.17,.05,1.81,.66,1.92,1.83,.04,.42,.11,.83,.17,1.24,.53,4.09,2.63,6.14,6.66,6.64,4.37,.55,8.75,.88,13.15,1.02,3.71,.11,7.43,.24,11.14-.15,3.95,.02,7.86-.48,11.77-.9,3.4-.36,5.72-2.69,6.22-6.06,1.11-7.53,1.1-15.05,0-22.58-.47-3.22-2.69-5.6-5.9-6.01-2.1-.27-4.22-.45-6.33-.66-.3-.03-.59-.06-.86,.16-2.19,1.76-4.83,2.01-7.48,2.31-3.92,.44-7.86,.58-11.78,.89-4.39,0-8.78,.02-13.16-.23-2.07-.12-2.38,.13-3.02,2.14-.1,.32-.18,.66-.23,.99-.7,4.16-.97,8.35-.92,12.57,.02,1.4-.4,1.88-1.75,2.2-1.23-.2-1.66-.95-1.68-2.16-.05-4.46,.28-8.88,.97-13.28,.15-.98,.51-1.89,.92-2.89-1.64-.18-3.22-.31-4.78-.54-4.97-.75-8.15-4.19-8.88-9.53-.08-.56-.16-1.13-.23-1.69q-.2-1.73-1.97-1.73c-3.68,0-7.36,0-11.04,0-11.14,0-20.06-7.41-21.98-18.39-.68-3.87-.24-7.81-.3-11.72-.03-2.1,.31-4.16,.89-6.18,2.36-8.21,9.75-14.54,18.14-15.47,.78-.09,.99-.36,1.02-1.11,.04-1.13,.17-2.27,.38-3.39,.87-4.69,6.38-6.89,10.03-3.86,4.34,3.6,8.07,7.81,10.97,12.69,1.24,2.09,1.24,4.29,0,6.38-2.9,4.88-6.66,9.04-10.97,12.69-1.85,1.57-4.09,1.73-6.32,.79-2.43-1.03-3.63-2.99-3.88-5.57-.1-.98-.18-1.97-.27-2.95-2.34,.35-4.45,2.85-4.52,5.52-.08,3.04-.08,6.08,0,9.12,.09,3.15,2.8,5.88,5.95,5.94,4.32,.08,8.65,.01,12.97,.05,.72,0,.78-.36,.84-.89,.16-1.39,.28-2.8,.56-4.17,.92-4.38,4.56-7.53,9.1-7.97,1.39-.14,2.78-.31,4.11-.46-1.81-6.62-1.88-13.36-1.58-20.11,.11-2.39,.42-4.76,.76-7.13,.7-4.75,4.33-8.28,9.08-8.79,3.58-.38,7.16-.78,10.76-.93,.18,0,.39,.03,.46-.22h14.57c.05,.17,.19,.2,.34,.21,3.7,.13,7.39,.5,11.06,.92,1.75,.2,3.39,.7,4.86,1.7,2.9,1.97,4.22,4.82,4.58,8.23,.15,1.45-.08,1.99-1.46,2.51-1.22-.07-1.85-.73-1.92-1.95-.02-.34-.12-.67-.16-1.01-.45-3.42-2.82-5.72-6.23-6.05-2.79-.27-5.58-.61-8.38-.79-5.68-.37-11.36-.55-17.05-.09-3.94,.05-7.87,.43-11.76,1.02-2.92,.45-4.87,2.64-5.35,5.6-1.12,6.87-1.18,13.75-.37,20.65,.19,1.64,.28,3.33,1.11,4.85,.41,.74,.88,1.07,1.79,1.01,3.97-.24,7.95-.36,11.93-.28,3.94,.07,7.86,.39,11.79,.63,.79,.1,1.58,.19,2.37,.29,1.91,.25,3.97,.18,5.56,1.37,1.59,1.2,3.21,1,4.92,.81,1.17-.13,2.33-.27,3.5-.39,3.33-.35,5.69-2.67,6.16-5.99,.62-4.29,.92-8.59,.87-12.93-.02-1.41,.29-1.79,1.65-2.16,1.36,.31,1.74,.77,1.76,2.21,.09,4.53-.25,9.04-.91,13.52-.67,4.5-3.86,7.81-8.35,8.6-1.69,.3-3.4,.44-4.9,.63,2.19,10.27,2.19,20.39,0,30.59,1.25,.14,2.64,.3,4.03,.44,4.88,.49,8.56,4.08,9.26,8.89,1.14,7.92,1.15,15.82,0,23.74-.65,4.46-3.79,7.91-8.26,8.7-3.7,.65-7.45,.85-11.2,1.1-.34,.02-.76-.21-1.02,.22h-15.03ZM28.71,54.12c-2.35-.02-4.7-.01-7.05-.06-4.62-.1-8.67-3.38-9.31-7.97-.56-4.02-.57-8.13,.03-12.15,.62-4.2,4.55-7.48,8.71-7.71,1.52-.08,2.11,.37,2.27,1.87,.17,1.59,.26,3.18,.41,4.77,.12,1.23,.72,2.18,1.9,2.61,1.11,.4,2.16,.21,3.07-.61,3.63-3.26,6.88-6.85,9.53-10.97,.89-1.38,.9-2.63,.01-4.01-2.6-4.06-5.8-7.59-9.35-10.82-.99-.9-2.08-1.25-3.34-.74-1.27,.51-1.76,1.58-1.85,2.89-.11,1.55-.24,3.1-.4,4.65-.13,1.17-.68,1.63-1.86,1.71-.72,.05-1.43,.11-2.15,.2-7.89,.94-14.79,7.9-15.63,15.81-.41,3.86-.31,7.75-.14,11.61,.36,8.17,6.04,14.97,13.96,16.96,3.69,.93,7.47,.49,11.21,.51,1.82,.01,3.64,0,5.46,.06,.63,.02,.74-.23,.73-.8-.03-2.35-.03-4.71,0-7.07,0-.57-.1-.81-.73-.8-1.82,.05-3.64,.04-5.46,.06Zm41.26,22.5c4.25,0,8.49-.37,12.67-1.09,2.91-.5,4.67-2.48,5.18-5.36,.4-2.24,.59-4.52,.77-6.79,.43-5.44,.09-10.85-.66-16.25-.46-3.36-2.83-5.73-6.23-6.07-1.81-.18-3.62-.4-5.43-.55-6.66-.56-13.32-.82-20-.34-3.94,.07-7.87,.43-11.76,1.05-2.82,.45-4.63,2.25-5.26,5.02-.41,1.8-.56,3.68-.72,5.53-.51,5.77-.32,11.53,.44,17.28,.54,4.15,2.7,6.29,6.83,6.74,2.6,.28,5.2,.58,7.81,.73,5.45,.32,10.9,.61,16.36,.12Z"/><path class="cls-5" d="M49.04,97.96c1.36-.32,1.77-.8,1.75-2.2-.05-4.22,.22-8.41,.92-12.57,.06-.33,.13-.67,.23-.99,.63-2.01,.95-2.26,3.02-2.14,4.38,.25,8.77,.23,13.16,.23-.15,1.05-.39,2.09-.43,3.14-.22,5.3,.08,10.53,2.11,15.53-.19,3,1.25,5.02,3.79,6.39,.82,1.72,2.24,2.91,3.62,4.12,1.61,1.43,3.53,2.43,5.27,3.67-3.71,.39-7.42,.27-11.14,.15-4.39-.14-8.78-.47-13.15-1.02-4.03-.51-6.13-2.55-6.66-6.64-.05-.41-.13-.83-.17-1.24-.11-1.17-.75-1.78-1.92-1.83-.14-1.53-.28-3.06-.42-4.59Z"/><path class="cls-6" d="M102.54,13.56c.14,1.53,.28,3.06,.43,4.59-1.36,.36-1.66,.74-1.65,2.16,.06,4.33-.25,8.64-.87,12.93-.48,3.32-2.83,5.64-6.16,5.99-1.17,.12-2.33,.26-3.5,.39-1.71,.19-3.34,.39-4.92-.81-1.58-1.19-3.65-1.12-5.56-1.37-.79-.1-1.58-.19-2.37-.29-.29-.29-.56-.62-.88-.88-2.56-2.09-4.52-4.68-6-7.61-4.06-8.02-4.21-16.42-2.26-24.99,5.69-.46,11.37-.27,17.05,.09,2.8,.18,5.58,.53,8.38,.79,3.41,.33,5.78,2.63,6.23,6.05,.04,.34,.14,.67,.16,1.01,.07,1.22,.7,1.88,1.92,1.95Zm-23.54,7.83c0-2.81,0-5.62,0-8.42,0-1.06-.33-1.96-1.47-2.1-1.46-.18-2.95-.19-4.41,.01-.9,.12-1.38,.77-1.35,1.69,.03,.92,.54,1.48,1.45,1.61,.45,.07,.91,.09,1.36,.05,.81-.08,1.03,.24,1.02,1.03-.03,4.63-.02,9.26-.02,13.89,0,.42-.01,.84,0,1.25,.05,1.01,.68,1.7,1.58,1.75,.94,.06,1.69-.62,1.82-1.66,.04-.3,.02-.61,.02-.91,0-2.73,0-5.46,0-8.2Z"/><path class="cls-7" d="M56.28,40.17c6.68-.49,13.34-.22,20,.34,1.81,.15,3.62,.37,5.43,.55,3.4,.34,5.76,2.72,6.23,6.07,.74,5.4,1.08,10.81,.66,16.25-.18,2.27-.37,4.55-.77,6.79-.51,2.89-2.27,4.87-5.18,5.36-4.18,.72-8.42,1.08-12.67,1.09-.23-.39-.65-.49-1.01-.69-2.96-1.75-5.69-3.78-7.7-6.63,2.35-.04,4.7-.07,7.05-.13,1.07-.03,1.8-.71,1.82-1.64,.02-.92-.69-1.66-1.73-1.76-.45-.04-.91-.01-1.36-.01-1.43,0-2.85,0-4.29,0-.01-.51,.32-.75,.53-1.05,1.19-1.67,2.4-3.33,3.58-5,.9-1.27,1.72-2.6,2.18-4.1,1-3.25-.68-6.56-3.87-7.71-3.13-1.12-6.64,.46-7.89,3.55-.62,1.53-.39,2.6,.67,3.06,1.05,.46,1.81-.06,2.49-1.72,.6-1.45,2.19-2.17,3.67-1.64,1.45,.52,2.15,2.1,1.61,3.64-.29,.83-.71,1.59-1.21,2.31-1.85,2.69-3.75,5.34-5.76,7.92-.5-.11-.57-.58-.73-.94-3.52-7.76-3.59-15.77-1.71-23.93Z"/><path class="cls-6" d="M69.8,98.95c-2.03-4.99-2.33-10.23-2.11-15.53,.04-1.05,.28-2.09,.43-3.14,3.93-.31,7.86-.44,11.78-.89,2.65-.3,5.29-.54,7.48-2.31,.27-.22,.56-.19,.86-.16,2.11,.22,4.22,.39,6.33,.66,3.21,.41,5.43,2.79,5.9,6.01,1.11,7.53,1.11,15.04,0,22.58-.5,3.38-2.82,5.7-6.22,6.06-3.92,.42-7.82,.92-11.77,.9-1.75-1.24-3.66-2.25-5.27-3.67-1.38-1.22-2.8-2.41-3.62-4.12,.29,.08,.58,.17,.87,.24,2.66,.65,5.38-.41,6.85-2.66,1.43-2.2,1.36-5.18-.29-7.24-.5-.62-.54-.92-.01-1.56,1.59-1.94,1.73-4.77,.49-6.95-1.21-2.11-3.72-3.42-6.01-3.14-2.65,.32-4.78,2.07-5.47,4.49-.36,1.25,.05,2.22,1.05,2.52,1.01,.3,1.76-.18,2.21-1.4,.6-1.63,1.8-2.41,3.28-2.13,1.41,.27,2.33,1.38,2.33,2.8,0,1.54-.94,2.54-2.67,2.85-1.25,.22-1.88,.81-1.87,1.75,.01,.93,.67,1.53,1.9,1.74,1.76,.29,2.71,1.36,2.64,2.98-.06,1.46-1.23,2.65-2.69,2.74-1.49,.09-2.78-1.02-2.99-2.68-.11-.87-.37-1.57-1.26-1.81-1-.27-1.67,.22-2.14,1.08Z"/><path class="cls-7" d="M28.72,62.67c-3.74-.02-7.51,.41-11.21-.51-7.92-1.98-13.6-8.79-13.96-16.96-.17-3.86-.28-7.75,.14-11.61,.85-7.91,7.75-14.87,15.63-15.81,.71-.08,1.43-.15,2.15-.2,1.19-.08,1.73-.54,1.86-1.71,.17-1.55,.29-3.1,.4-4.65,.09-1.31,.58-2.37,1.85-2.89,1.25-.51,2.35-.16,3.34,.74,3.54,3.24,6.75,6.76,9.35,10.82,.89,1.39,.87,2.64-.01,4.01-2.65,4.12-5.9,7.71-9.53,10.97-.91,.82-1.95,1.01-3.07,.61-1.18-.43-1.78-1.38-1.9-2.61-.15-1.59-.24-3.18-.41-4.77-.16-1.49-.74-1.95-2.27-1.87-4.16,.23-8.09,3.51-8.71,7.71-.59,4.02-.58,8.13-.03,12.15,.64,4.59,4.69,7.87,9.31,7.97,2.35,.05,4.7,.04,7.05,.06-.3,2.85-.3,5.7,0,8.54Z"/><path class="cls-8" d="M56.28,40.17c-1.88,8.15-1.81,16.16,1.71,23.93,.16,.36,.23,.83,.73,.94-.3,.43-.63,.85-.89,1.3-.79,1.39-.09,2.67,1.51,2.81,.64,.06,1.27,.1,1.91,.16,2.01,2.86,4.74,4.88,7.7,6.63,.35,.21,.78,.31,1.01,.69-5.46,.49-10.91,.2-16.36-.12-2.61-.15-5.21-.45-7.81-.73-4.13-.44-6.28-2.59-6.83-6.74-.75-5.75-.95-11.5-.44-17.28,.16-1.85,.32-3.72,.72-5.53,.63-2.77,2.44-4.57,5.26-5.02,3.89-.62,7.81-.98,11.76-1.05Z"/><path class="cls-6" d="M68.8,3.67c-1.94,8.58-1.8,16.98,2.26,24.99,1.48,2.93,3.44,5.52,6,7.61,.32,.26,.59,.58,.88,.88-3.93-.25-7.85-.56-11.79-.63-3.98-.07-7.96,.04-11.93,.28-.91,.05-1.39-.27-1.79-1.01-.83-1.52-.92-3.21-1.11-4.85-.81-6.9-.75-13.79,.37-20.65,.48-2.96,2.43-5.15,5.35-5.6,3.89-.6,7.81-.97,11.76-1.02Z"/><path class="cls-8" d="M28.72,62.67c-.3-2.85-.3-5.7,0-8.54,1.82-.01,3.64,0,5.46-.06,.63-.02,.74,.23,.73,.8-.03,2.35-.03,4.71,0,7.07,0,.57-.1,.81-.73,.8-1.82-.05-3.64-.04-5.46-.06Z"/><path class="cls-1" d="M69.8,98.95c.46-.86,1.14-1.34,2.14-1.08,.89,.24,1.15,.94,1.26,1.81,.21,1.66,1.5,2.77,2.99,2.68,1.46-.09,2.63-1.28,2.69-2.74,.07-1.61-.88-2.68-2.64-2.98-1.23-.21-1.89-.81-1.9-1.74-.01-.93,.63-1.53,1.87-1.75,1.73-.31,2.67-1.31,2.67-2.85,0-1.42-.92-2.53-2.33-2.8-1.48-.28-2.68,.5-3.28,2.13-.45,1.22-1.2,1.7-2.21,1.4-1-.3-1.41-1.26-1.05-2.52,.69-2.42,2.82-4.17,5.47-4.49,2.29-.28,4.8,1.03,6.01,3.14,1.24,2.17,1.1,5-.49,6.95-.52,.64-.49,.94,.01,1.56,1.65,2.06,1.72,5.04,.29,7.24-1.47,2.25-4.19,3.31-6.85,2.66-.29-.07-.58-.16-.87-.24-2.54-1.37-3.98-3.4-3.79-6.39Z"/><path class="cls-3" d="M79.01,21.39c0,2.73,0,5.46,0,8.2,0,.3,.02,.61-.02,.91-.13,1.04-.88,1.71-1.82,1.66-.89-.05-1.52-.74-1.58-1.75-.02-.42,0-.83,0-1.25,0-4.63-.02-9.26,.02-13.89,0-.79-.22-1.11-1.02-1.03-.45,.05-.91,.02-1.36-.05-.91-.13-1.42-.69-1.45-1.61-.03-.92,.45-1.57,1.35-1.69,1.46-.2,2.95-.2,4.41-.01,1.14,.14,1.47,1.04,1.47,2.1,0,2.81,0,5.62,0,8.42Z"/><path class="cls-2" d="M61.26,69.3c-.64-.05-1.27-.1-1.91-.16-1.6-.14-2.3-1.43-1.51-2.81,.26-.46,.59-.87,.89-1.3,2.01-2.58,3.91-5.23,5.76-7.92,.5-.72,.92-1.48,1.21-2.31,.54-1.54-.16-3.12-1.61-3.64-1.48-.53-3.07,.19-3.67,1.64-.68,1.66-1.43,2.18-2.49,1.72-1.06-.46-1.29-1.53-.67-3.06,1.26-3.09,4.77-4.67,7.89-3.55,3.2,1.14,4.87,4.46,3.87,7.71-.46,1.51-1.28,2.83-2.18,4.1-1.18,1.67-2.39,3.33-3.58,5-.21,.3-.54,.53-.53,1.05,1.44,0,2.87,0,4.29,0,.45,0,.91-.03,1.36,.01,1.04,.1,1.76,.85,1.73,1.76-.02,.93-.75,1.61-1.82,1.64-2.35,.06-4.7,.09-7.05,.13Z"/></g></g></svg>