<?xml version="1.0" encoding="UTF-8"?><svg id="Layer_2" xmlns="http://www.w3.org/2000/svg" viewBox="0 0 200 200"><defs><style>.cls-1{fill:#e9f6f6;}.cls-2{fill:#fff;}.cls-3{fill:#b6e5f5;}.cls-4{fill:#add;}.cls-5{fill:#06ffd5;}.cls-6{fill:#1a2959;}</style></defs><g id="Layer_1-2"><circle class="cls-1" cx="100" cy="100" r="100"/><g><path class="cls-6" d="M84.03,106.51h-1.31c-7.61,0-15.22,0-22.82,0-6.1,0-10.1,4.03-10.11,10.16,0,4.73,0,9.45,0,14.18,.01,5.88,4.07,9.96,9.93,9.98,1.7,0,3.4,0,5.28,0,0-.67-.01-1.28,0-1.9,.07-3.2,2.47-5.7,5.65-5.71,10.18-.03,20.37-.03,30.55,0,3.12,0,5.54,2.48,5.64,5.6,.02,.63,0,1.25,0,1.94h15.26c.96-7.23,4.47-12.84,10.91-16.43,4.5-2.51,9.33-3.14,14.37-2.1,9.89,2.04,16.9,11.17,16.51,21.53-.37,9.78-8.3,18.32-17.82,19.76-9.9,1.5-22.58-5.27-24.02-18.83-.22-.02-.45-.05-.68-.05-4.79,0-9.58,0-14.52,0,0,.73,.02,1.39,0,2.05-.1,3.06-2.51,5.54-5.56,5.55-10.22,.04-20.45,.04-30.67,0-3.12-.01-5.52-2.51-5.6-5.64-.02-.59,0-1.19,0-1.97-1.25,0-2.46-.03-3.67,0-2.72,.07-5.38-.09-7.86-1.38-4.69-2.45-7.28-6.32-7.45-11.59-.16-5.24-.09-10.48-.03-15.72,.08-7.37,5.9-13.18,13.28-13.23,7.77-.06,15.53-.01,23.3-.01,.43,0,.86,0,1.45,0,0-.69-.01-1.31,0-1.93,.07-3.2,2.49-5.67,5.68-5.68,10.14-.03,20.29-.03,30.43,0,3.25,0,5.67,2.48,5.73,5.76,.01,.56,0,1.11,0,1.86,.45,0,.87,0,1.28,0,7.65,0,15.3,0,22.94,0,5.95,0,10-4.06,10.01-10.02,0-4.17,.01-8.34,0-12.51-.02-5.79-4.11-9.86-9.91-9.88-1.7,0-3.41,0-5.3,0,0,.65,.01,1.26,0,1.88-.07,3.26-2.49,5.73-5.75,5.74-10.1,.02-20.21,.02-30.31,0-3.32,0-5.73-2.49-5.78-5.83,0-.55,0-1.1,0-1.72h-11.37c0,.87,.07,1.73-.03,2.58-.04,.35-.4,.83-.72,.94-1.12,.4-2.28,.65-3.42,.98-1.16,.33-1.52,1.18-.94,2.23,.69,1.24,1.4,2.48,2.08,3.68-2.52,2.48-5,4.92-7.56,7.45-1.06-.6-2.3-1.31-3.54-2-1.08-.61-1.96-.24-2.3,.97-.32,1.15-.59,2.31-.97,3.43-.09,.28-.49,.66-.75,.66-3.28,.04-6.57,.03-9.91,.03-.41-1.47-.8-2.88-1.2-4.28-.29-1.01-1.17-1.39-2.07-.89-1.11,.61-2.19,1.28-3.32,1.85-.26,.13-.8,.11-.99-.08-2.36-2.29-4.68-4.63-7.04-6.98,.68-1.2,1.33-2.33,1.97-3.47,.87-1.53,.59-2.21-1.06-2.66-1.07-.3-2.15-.55-3.19-.93-.3-.11-.67-.56-.67-.86-.05-3.21-.03-6.43-.03-9.79,1.37-.37,2.72-.74,4.08-1.12,1.34-.38,1.69-1.19,1.02-2.39-.68-1.21-1.37-2.41-1.99-3.5,2.51-2.51,4.97-4.97,7.52-7.53,1.06,.61,2.29,1.32,3.52,2.01,1.14,.64,1.93,.3,2.3-.98,.39-1.36,.76-2.73,1.16-4.15,3.32,0,6.57-.02,9.81,.03,.29,0,.72,.41,.83,.72,.39,1.16,.66,2.37,1,3.55,.31,1.09,1.19,1.44,2.19,.89,1.25-.69,2.48-1.41,3.6-2.05,2.5,2.51,4.95,4.97,7.51,7.54-.61,1.08-1.34,2.35-2.04,3.62-.54,.98-.19,1.83,.89,2.15,.19,.06,.38,.12,.57,.18,1.1,.31,2.53,.31,3.22,1.02,.63,.64,.46,2.06,.65,3.22h11.17c0-.64-.01-1.26,0-1.89,.08-3.14,2.47-5.64,5.59-5.65,10.22-.04,20.45-.04,30.67,0,3.06,.01,5.47,2.48,5.58,5.54,.02,.63,0,1.26,0,2.07,1.9,0,3.75,0,5.59,0,3.07,.01,5.86,.9,8.27,2.82,3.3,2.62,5.06,6.07,5.14,10.28,.08,4.49,.05,8.97,.02,13.46-.06,7.6-5.85,13.42-13.43,13.46-7.73,.04-15.45,0-23.18,0-.43,0-.86,0-1.43,0,0,.7,.01,1.33,0,1.95-.08,3.14-2.47,5.65-5.58,5.66-10.22,.04-20.45,.04-30.67,0-3.11-.01-5.51-2.52-5.58-5.66-.01-.59,0-1.19,0-1.95Zm41.85,36.19c0,9.43,7.65,17.15,17.03,17.18,9.47,.03,17.19-7.67,17.2-17.13,0-9.43-7.65-17.15-17.04-17.18-9.47-.03-17.19,7.66-17.2,17.13Zm-41.98-62.57c-.07-.13-.15-.36-.29-.54-1.46-1.84-1.84-3.64-.56-5.88,.67-1.17,1.15-2.01,2.57-2.31,2.29-.48,2.26-.59,2.26-2.88,0-2.44,.02-2.51-2.35-3.05-1.28-.29-1.82-.98-2.43-2.14-1.19-2.23-1.12-4.09,.46-6.01,.18-.22,.23-.82,.07-1.01-.92-1.08-1.92-2.08-2.85-3.07-.86,.48-1.54,.76-2.08,1.2-1.17,.94-2.19,.61-3.54,.23-2.44-.68-3.39-2.2-3.73-4.47-.05-.31-.41-.79-.64-.8-1.38-.05-2.89-.31-4.09,.17-.62,.25-.69,1.89-1.01,2.9-.05,.15-.06,.33-.15,.45-.26,.3-.5,.69-.84,.84-1.25,.58-2.57,1.54-3.81,1.48-1.24-.06-2.44-1.18-3.65-1.84-.03-.02-.08,0-.1,0-1.09,1.1-2.17,2.18-3.31,3.32,.27,.48,.49,1.04,.86,1.5,1.11,1.39,1.33,2.76,.21,4.26-.27,.37-.43,.86-.51,1.32-.16,.91-.69,1.28-1.55,1.49-3.01,.75-2.92,.78-3.04,3.87-.05,1.35,.39,1.96,1.68,2.09,1.82,.18,3.05,1.01,3.35,2.97,.08,.53,.54,.99,.66,1.51,.11,.48,.16,1.08-.03,1.5-.47,1.03-1.1,2-1.71,3.08,.53,.5,1.02,.96,1.5,1.43,1.86,1.85,1.89,1.91,4.09,.55,1.04-.64,1.9-.87,2.99-.13,.67,.45,1.55,.58,2.28,.97,.39,.21,.81,.59,.96,.99,.39,1.07,.64,2.19,.97,3.37,.44,0,.83,.01,1.22,0,1.14-.04,2.56,.32,3.33-.24,.71-.51,.66-2.03,1.08-3.04,.19-.46,.67-.91,1.13-1.13,1.2-.59,2.49-1.5,3.69-1.42,1.21,.07,2.36,1.18,3.54,1.83,.03,.02,.07,0,.02,0,1.13-1.13,2.21-2.21,3.34-3.35Zm40.08-6.03c4.95,0,9.91,0,14.86,0,1.55,0,2.24-.71,2.26-2.26,.02-2.3,.02-4.61,0-6.91-.01-1.55-.71-2.26-2.26-2.26-9.91,0-19.81,0-29.72,0-1.55,0-2.24,.7-2.25,2.26-.02,2.22,0,4.45,0,6.67,0,1.87,.63,2.5,2.5,2.5,4.87,0,9.75,0,14.62,0Zm-19.14,36.22c4.99,0,9.99,0,14.98,0,1.55,0,2.25-.71,2.26-2.26,.02-2.3,.02-4.61,0-6.91-.01-1.56-.7-2.26-2.26-2.26-9.91,0-19.81,0-29.72,0-1.55,0-2.24,.7-2.26,2.26-.02,2.22,0,4.45,0,6.67,0,1.87,.63,2.5,2.5,2.5,4.83,0,9.67,0,14.5,0Zm-18.8,26.69c-4.91,0-9.83,0-14.74,0-1.81,0-2.47,.64-2.48,2.4,0,2.26-.01,4.53,0,6.79,.01,1.55,.71,2.24,2.27,2.24,9.91,0,19.81,0,29.72,0,1.54,0,2.23-.71,2.24-2.28,.02-2.22,0-4.45,0-6.67,0-1.85-.64-2.48-2.51-2.48-4.83,0-9.67,0-14.5,0Z"/><path class="cls-5" d="M125.88,142.7c0-9.47,7.73-17.16,17.2-17.13,9.39,.03,17.04,7.75,17.04,17.18,0,9.47-7.74,17.16-17.2,17.13-9.39-.03-17.04-7.75-17.03-17.18Zm25.2-8.99c-4.63,4.65-9.2,9.24-14.05,14.1-.71-.93-1.37-1.81-2.05-2.7-1.05,1.05-1.89,1.88-2.59,2.58,1.71,1.73,3.39,3.43,4.84,4.9,5.38-5.4,10.86-10.88,16.25-16.29-.68-.73-1.48-1.59-2.41-2.59Z"/><path class="cls-5" d="M83.89,80.14c-1.13,1.14-2.22,2.22-3.34,3.35,.05,0,0,.01-.02,0-1.18-.65-2.32-1.76-3.54-1.83-1.2-.07-2.49,.84-3.69,1.42-.46,.22-.93,.67-1.13,1.13-.43,1.01-.37,2.53-1.08,3.04-.77,.55-2.19,.2-3.33,.24-.39,.01-.78,0-1.22,0-.33-1.18-.58-2.3-.97-3.37-.15-.4-.57-.78-.96-.99-.73-.39-1.61-.51-2.28-.97-1.09-.74-1.95-.51-2.99,.13-2.21,1.36-2.24,1.3-4.09-.55-.47-.47-.97-.93-1.5-1.43,.62-1.08,1.24-2.05,1.71-3.08,.19-.42,.14-1.02,.03-1.5-.12-.53-.58-.99-.66-1.51-.3-1.96-1.53-2.79-3.35-2.97-1.29-.13-1.73-.73-1.68-2.09,.12-3.08,.03-3.12,3.04-3.87,.87-.22,1.39-.58,1.55-1.49,.08-.46,.23-.96,.51-1.32,1.11-1.5,.9-2.87-.21-4.26-.36-.45-.59-1.02-.86-1.5,1.13-1.14,2.22-2.22,3.31-3.32,.02,0,.07,0,.1,0,1.22,.65,2.41,1.77,3.65,1.84,1.25,.06,2.56-.9,3.81-1.48,.34-.16,.58-.54,.84-.84,.09-.11,.11-.3,.15-.45,.32-1.01,.38-2.64,1.01-2.9,1.2-.48,2.71-.23,4.09-.17,.23,0,.59,.5,.64,.8,.34,2.26,1.29,3.78,3.73,4.47,1.35,.38,2.38,.71,3.54-.23,.55-.44,1.23-.72,2.08-1.2,.93,.99,1.93,2,2.85,3.07,.16,.19,.11,.79-.07,1.01-1.58,1.91-1.65,3.77-.46,6.01,.61,1.16,1.15,1.85,2.43,2.14,2.36,.54,2.35,.61,2.35,3.05,0,2.3,.02,2.4-2.26,2.88-1.42,.3-1.9,1.13-2.57,2.31-1.28,2.24-.9,4.04,.56,5.88,.14,.18,.22,.41,.29,.54Zm-3.63-11.69c0-6.31-5.12-11.45-11.39-11.45-6.25,0-11.42,5.19-11.42,11.45,0,6.29,5.14,11.42,11.42,11.41,6.33,0,11.39-5.08,11.38-11.41Z"/><path class="cls-4" d="M123.97,74.1c-4.87,0-9.75,0-14.62,0-1.86,0-2.49-.63-2.5-2.5,0-2.22-.01-4.45,0-6.67,.01-1.56,.7-2.26,2.25-2.26,9.91,0,19.81,0,29.72,0,1.55,0,2.25,.7,2.26,2.26,.02,2.3,.02,4.61,0,6.91-.01,1.56-.7,2.26-2.26,2.26-4.95,.01-9.91,0-14.86,0Zm-13.22-7.6v3.71h3.61v-3.71h-3.61Zm11.23,3.74v-3.67h-3.65v3.67h3.65Zm3.94-.01h3.68v-3.66h-3.68v3.66Zm7.58-.01h3.69v-3.64h-3.69v3.64Z"/><path class="cls-3" d="M104.83,110.32c-4.83,0-9.67,0-14.5,0-1.86,0-2.49-.63-2.5-2.5,0-2.22-.01-4.45,0-6.67,.01-1.56,.7-2.26,2.26-2.26,9.91,0,19.81,0,29.72,0,1.55,0,2.25,.7,2.26,2.26,.02,2.3,.02,4.61,0,6.91-.01,1.55-.71,2.26-2.26,2.26-4.99,.01-9.99,0-14.98,0Zm-9.44-7.57h-3.69v3.68h3.69v-3.68Zm7.59,3.7v-3.68h-3.65v3.68h3.65Zm3.93-3.71v3.69h3.66v-3.69h-3.66Zm7.65-.02v3.71h3.61v-3.71h-3.61Z"/><path class="cls-2" d="M86.03,137.01c4.83,0,9.67,0,14.5,0,1.87,0,2.51,.63,2.51,2.48,0,2.22,.01,4.45,0,6.67-.01,1.56-.7,2.27-2.24,2.28-9.91,0-19.81,0-29.72,0-1.56,0-2.26-.7-2.27-2.24-.02-2.26-.01-4.53,0-6.79,0-1.75,.67-2.39,2.48-2.4,4.91,0,9.83,0,14.74,0Zm-13.36,7.56h3.67v-3.66h-3.67v3.66Zm7.61,0h3.68v-3.66h-3.68v3.66Zm7.64-3.7v3.67h3.65v-3.67h-3.65Zm11.26,3.71v-3.69h-3.66v3.69h3.66Z"/><path class="cls-6" d="M151.07,133.71c.93,1,1.73,1.86,2.41,2.59-5.4,5.41-10.87,10.89-16.25,16.29-1.45-1.47-3.13-3.17-4.84-4.9,.7-.7,1.54-1.53,2.59-2.58,.68,.89,1.34,1.77,2.05,2.7,4.84-4.86,9.42-9.46,14.05-14.1Z"/><path class="cls-6" d="M80.26,68.45c0,6.34-5.06,11.41-11.38,11.41-6.29,0-11.42-5.12-11.42-11.41,0-6.26,5.17-11.44,11.42-11.45,6.27,0,11.39,5.14,11.39,11.45Zm-3.8,0c0-4.23-3.43-7.66-7.61-7.63-4.13,.03-7.54,3.44-7.59,7.58-.04,4.19,3.38,7.65,7.59,7.66,4.24,0,7.61-3.36,7.61-7.6Z"/><path class="cls-6" d="M110.76,66.5h3.61v3.71h-3.61v-3.71Z"/><path class="cls-6" d="M121.99,70.24h-3.65v-3.67h3.65v3.67Z"/><path class="cls-6" d="M125.93,70.23v-3.66h3.68v3.66h-3.68Z"/><path class="cls-6" d="M133.51,70.21v-3.64h3.69v3.64h-3.69Z"/><path class="cls-6" d="M95.4,102.75v3.68h-3.69v-3.68h3.69Z"/><path class="cls-6" d="M102.98,106.45h-3.65v-3.68h3.65v3.68Z"/><path class="cls-6" d="M106.91,102.75h3.66v3.69h-3.66v-3.69Z"/><path class="cls-6" d="M114.56,102.72h3.61v3.71h-3.61v-3.71Z"/><path class="cls-6" d="M72.67,144.57v-3.66h3.67v3.66h-3.67Z"/><path class="cls-6" d="M80.28,144.57v-3.66h3.68v3.66h-3.68Z"/><path class="cls-6" d="M87.92,140.87h3.65v3.67h-3.65v-3.67Z"/><path class="cls-6" d="M99.18,144.58h-3.66v-3.69h3.66v3.69Z"/></g></g></svg>