<?xml version="1.0" encoding="UTF-8"?><svg id="Layer_2" xmlns="http://www.w3.org/2000/svg" viewBox="0 0 123.59 123.91"><defs><style>.cls-1{fill:#fff;}.cls-2{fill:#b6e5f5;}.cls-3{fill:#add;}.cls-4{fill:#06ffd5;}.cls-5{fill:#1a2959;}</style></defs><g id="Layer_1-2"><g><path class="cls-5" d="M21.12,52.02H4.9c-1.07,5.82-1.17,11.64-.4,17.64-1.28,.19-2.53,.37-3.78,.56C-2.05,54.42,2.7,30.54,22.53,14.21,42.64-2.36,70.42-4.62,92.76,8.4c22.53,13.14,33.58,38.21,30.23,61.78-1.24-.16-2.49-.32-3.72-.48,.11-3,.35-5.94,.29-8.87-.06-2.9-.42-5.79-.65-8.76h-16.41c1.2,5.32,1.58,10.66,.66,16.17-1.31-.2-2.52-.38-3.88-.59,.89-6.58,.27-12.95-2.14-19.29-1.46,1.58-2.81,3.03-4.16,4.49-2.17,2.35-4.37,4.68-6.48,7.09-.44,.5-.74,1.29-.75,1.96-.06,4.58-.02,9.15-.04,13.73-.01,4.11-1.69,6.46-5.56,7.92-.36,.14-.76,.51-.88,.86-1.15,3.38-3.39,5.78-6.56,7.3-.76,.37-1,.8-.96,1.61,.07,1.53,.02,3.07,.02,4.49,2.68,.65,5.3,1.11,7.8,1.93,6.41,2.11,11.5,5.86,14.26,12.28,1.44,3.34,2.15,8.14,1.75,11.79H27.95c-.28-6.86,1.08-13.12,6.08-18.12,4.87-4.86,11.07-6.8,17.8-7.68,0-1.84,.03-3.62-.04-5.39-.01-.28-.45-.63-.77-.79-3.22-1.62-5.57-3.99-6.72-7.48-.11-.34-.56-.69-.93-.82-3.7-1.36-5.48-3.8-5.49-7.72-.02-5.41-.06-10.82,.02-16.23,.11-7.65,4.94-13.73,12.11-15.16,1.48-.3,2.66-.88,3.89-1.69,3.85-2.53,8.19-3,12.67-2.63,3.85,.32,7.52,1.22,10.85,3.3,.23,.14,.66,.17,.9,.05,4.05-2,8.08-4.03,12.13-6.06-7.65-9.88-23.31-16.56-39.41-11.82-16.56,4.88-29.55,21.69-26.78,42.07-1.21,.2-2.42,.39-3.62,.59-1.03-2.41-.84-8.64,.5-16.21Zm42.61,13.96c-4.49-.2-8.49-1.09-10.85-5.4-.13-.24-.57-.45-.85-.43-2.56,.18-4.19,1.94-4.19,4.49,0,5.53,.02,11.07-.01,16.6-.01,1.86,.67,3.41,1.87,4.75,1.31,1.46,2.98,2.36,4.83,2.94,3.14,.99,6.36,1.14,9.61,.91,2.58-.19,5.12-.65,7.39-1.98,2.73-1.61,4.32-3.86,4.24-7.22-.1-4.45-.03-8.9-.03-13.36,0-.44,0-.88,0-1.39-3.36-.33-6.47-1.03-8.94-3.32-2.57-2.39-3.39-5.4-2.97-8.97,1.32,.26,2.56,.5,3.86,.75,0,.39,0,.68,0,.96,.02,2.72,1.37,4.57,3.83,5.59,.98,.41,2.06,.68,3.11,.81,1.67,.21,3.36,.25,5.13,.37v6.14c.67,.23,1.25,.42,1.95,.66,0-3.5,.07-6.9-.02-10.3-.14-5.69-2.7-10.01-7.82-12.51-4.75-2.31-9.8-2.73-14.92-1.33-2.68,.73-4.92,2.04-5.22,5.19h-3.84c-.04-.48-.07-.91-.12-1.41-4.1,1.22-6.47,4.01-7.37,7.96-.48,2.12-.45,4.36-.54,6.56-.08,1.92-.02,3.85-.02,5.82q1.99-.62,1.99-2.43c0-.62,0-1.25,0-1.87,0-3.86,2.06-6.88,5.8-7.88,1.65-.44,2.4-1.08,2.21-2.76,0-.06,.09-.12,.19-.25,.57,.1,1.19,.2,1.79,.32,.63,.12,1.26,.27,1.86,.4,.03,5.42,1.33,6.66,8.02,7.71v3.89ZM32.63,12.13c3.51,4.1,7.01,8.19,10.47,12.24,.2-.04,.29-.04,.36-.07,.42-.18,.84-.36,1.25-.55,5.28-2.41,10.83-3.66,16.63-3.72,6.36-.07,12.45,1.2,18.2,3.94,.74,.35,1.16,.27,1.66-.36,1.11-1.4,2.3-2.73,3.47-4.09,2.1-2.46,4.2-4.91,6.31-7.38-17.05-10.79-41.35-10.73-58.34,0Zm-3.5,2.05C17.23,22.67,9.42,33.8,5.71,47.94H22.38c3.34-9.09,9.09-16.24,17.23-21.51-3.52-4.12-6.95-8.12-10.48-12.25Zm65.62,21.05c3.01-1.51,6.37-3.22,9.76-4.88,1.77-.87,3.67-.37,4.76,1.16,1,1.4,.79,2.81-.63,4.36-2.34,2.54-4.6,5.15-7.05,7.58-1.21,1.2-1.49,2.24-.67,3.73,.33,.61,.63,.83,1.3,.82,2.28-.04,4.57-.01,6.85-.01,2.9,0,5.8,0,8.83,0-3.75-14.19-11.56-25.35-23.43-33.8-3.51,4.11-6.94,8.11-10.35,12.1,1.83,1.43,3.62,2.77,5.33,4.21,1.75,1.47,3.41,3.04,5.3,4.74ZM45.86,119.89c1.91,0,3.69-.04,5.46,.02,.79,.03,1.17-.21,1.41-.99,.66-2.19,1.36-4.36,2.15-6.5,.47-1.26,.63-2.33-.11-3.6-.51-.88-.62-2.06-.67-3.12-.05-1.09,.17-2.2,.28-3.3-2.35-1.15-10.13,.76-14.36,3.51-5.01,3.27-7.55,7.95-8.02,13.91h9.89v-7.82h3.96v7.89Zm35.84-.07h9.89c-.54-6.57-3.52-11.53-9.27-14.63-4.07-2.19-8.41-3.43-13.3-3.08,.76,3.01,.72,5.6-.81,8.02-.12,.19-.04,.56,.04,.81,.9,2.76,1.81,5.52,2.76,8.27,.1,.28,.46,.65,.71,.65,1.98,.05,3.95,.03,6.06,.03v-7.93h3.91v7.86Zm3.99-64.93c5.83-6.33,11.76-12.78,17.7-19.22-.06-.07-.12-.14-.17-.21-7.34,3.68-14.68,7.36-21.71,10.88,1.44,2.93,2.79,5.69,4.19,8.55Zm-29.87,38.8c0,1.32-.03,2.81,.03,4.3,0,.27,.32,.67,.57,.75,3.78,1.2,7.55,1.36,11.3-.12v-4.93h-11.9Zm11.15,26.14c-.83-2.51-1.62-4.95-2.47-7.37-.09-.25-.52-.52-.81-.53-1.28-.06-2.57-.04-3.86,0-.24,0-.63,.17-.69,.35-.86,2.49-1.68,5-2.54,7.62,3.34,0,6.49,0,9.64,0,.2,0,.4-.03,.72-.07Zm-8.87-16.27c.06,1.14,.07,2.27,.19,3.39,.08,.7,.52,1.03,1.3,.99,1.15-.06,2.31-.02,3.47-.02,2.08,0,2.54-.47,2.47-2.61-.02-.6-.18-1.2-.26-1.75h-7.16Zm-14.32-24.14v-6.92c-1.48,.81-1.92,2.03-1.91,3.47,0,1.43,.44,2.65,1.91,3.45Zm36.01-6.93v6.94c1.43-.79,1.89-1.95,1.92-3.34,.03-1.47-.37-2.76-1.92-3.6Z"/><path class="cls-5" d="M23.87,119.89v3.82c-.1,.06-.16,.14-.23,.14-5.4,.01-10.8,.13-16.19-.02-4.48-.12-7.52-3.62-7.44-8.19,.08-4.39,3.34-7.68,7.8-7.73,5.23-.06,10.46-.02,15.69-.02,.91,0,1.76-.1,2.21-1.05,.67-1.41-.17-2.88-1.75-2.93-1.91-.06-3.82-.01-5.73-.02-3.75-.02-6.26-2.4-6.27-5.95-.02-3.61,2.49-6.02,6.31-6.03,4.48-.01,8.97,.02,13.45-.01,2.58-.02,4.08-1.43,4.14-3.82,.07-2.62-1.44-4.15-4.17-4.16-5.85-.02-11.71,.01-17.56-.01-4.37-.02-7.05-3.57-5.92-7.78,.63-2.34,2.73-4.13,5.32-4.16,6.72-.07,13.45-.02,20.26-.02v3.98c-.44,0-.88,0-1.32,0-6.06,0-12.12,0-18.19,0-1.65,0-2.44,.78-2.32,2.21,.1,1.22,.82,1.77,2.38,1.78,5.69,0,11.38-.01,17.07,.02,.94,0,1.92,.1,2.82,.36,3.91,1.1,6.11,4.61,5.56,8.73-.53,4.01-3.63,6.81-7.76,6.86-4.61,.06-9.22,.02-13.83,.01-1.05,0-1.9,.27-2.21,1.4-.39,1.44,.44,2.55,2,2.58,1.87,.04,3.74,0,5.61,.01,3.75,.02,6.26,2.4,6.27,5.95,.02,3.61-2.5,6.02-6.32,6.03-5.15,.01-10.3-.01-15.45,.01-2.72,.01-4.22,1.57-4.14,4.19,.08,2.39,1.58,3.77,4.17,3.78,5.19,.02,10.38,0,15.7,0Z"/><path class="cls-5" d="M89.76,75.94v-4h1.01c6.19,0,12.37,0,18.56,0,3.76,0,6.26,2.39,6.28,5.94,.02,3.61-2.49,6.03-6.31,6.04-5.81,.01-11.63-.02-17.44,.01-3.02,.01-4.71,2.15-4.05,5.04,.43,1.91,1.8,2.92,4.06,2.93,4.53,.02,9.05-.01,13.58,.01,4.38,.02,7.06,3.56,5.94,7.77-.66,2.47-2.89,4.15-5.68,4.2-1.91,.04-3.82,0-5.73,.01-1.56,.01-2.29,.66-2.29,1.99,0,1.32,.73,1.99,2.29,1.99,5.11,.01,10.21,0,15.32,0,5.71,.02,9.25,4.41,8.06,9.99-.69,3.26-3.44,5.8-6.99,5.91-5.51,.17-11.03,.05-16.62,.05v-3.97c1.93,0,3.83,0,5.73,0,3.36,0,6.73,.03,10.09-.01,2.54-.03,4.01-1.51,4.03-3.93,.02-2.54-1.48-4.03-4.16-4.04-5.19-.02-10.38,.01-15.57-.01-4.37-.02-7.05-3.56-5.94-7.77,.65-2.43,2.85-4.13,5.56-4.19,1.95-.05,3.9,0,5.85-.02,1.56-.01,2.29-.66,2.29-1.99,0-1.33-.73-1.99-2.29-1.99-4.44-.01-8.89,0-13.33,0-5.75-.02-9.31-4.5-8.04-10.11,.77-3.42,3.9-5.83,7.72-5.85,5.85-.03,11.71,0,17.56-.01,1.56,0,2.27-.56,2.36-1.79,.11-1.4-.65-2.18-2.21-2.19-3.94-.02-7.89,0-11.83,0-2.57,0-5.14,0-7.81,0Z"/><path class="cls-1" d="M63.73,65.97v-3.89c-6.69-1.06-7.99-2.29-8.02-7.71-.6-.13-1.23-.27-1.86-.4-.61-.12-1.22-.22-1.79-.32-.1,.12-.19,.19-.19,.25,.19,1.68-.55,2.32-2.21,2.76-3.74,1-5.8,4.02-5.8,7.88,0,.62,0,1.25,0,1.87q0,1.81-1.99,2.43c0-1.97-.06-3.9,.02-5.82,.09-2.19,.06-4.44,.54-6.56,.9-3.94,3.27-6.73,7.37-7.96,.04,.5,.08,.93,.12,1.41h3.84c.3-3.14,2.54-4.46,5.22-5.19,5.12-1.4,10.17-.98,14.92,1.33,5.12,2.49,7.68,6.82,7.82,12.51,.08,3.4,.02,6.8,.02,10.3-.7-.24-1.28-.43-1.95-.66v-6.14c-1.78-.12-3.47-.16-5.13-.37-1.06-.13-2.13-.41-3.11-.81-2.45-1.01-3.8-2.86-3.83-5.59,0-.28,0-.57,0-.96-1.3-.25-2.54-.49-3.86-.75-.43,3.57,.39,6.59,2.97,8.97,2.46,2.29,5.58,2.99,8.94,3.32,0,.51,0,.95,0,1.39,0,4.45-.08,8.91,.03,13.36,.08,3.35-1.51,5.61-4.24,7.22-2.27,1.34-4.81,1.79-7.39,1.98-3.25,.24-6.47,.08-9.61-.91-1.85-.58-3.52-1.48-4.83-2.94-1.2-1.34-1.88-2.89-1.87-4.75,.03-5.53,0-11.07,.01-16.6,0-2.55,1.63-4.31,4.19-4.49,.28-.02,.72,.19,.85,.43,2.35,4.31,6.36,5.19,10.85,5.4Zm2.52,14.82c-3.93,3.59-5.39,3.59-8.91,0-1,.75-2.01,1.51-3.02,2.27,4.33,6.49,11.21,5.15,14.95,0-1.01-.76-2.03-1.52-3.02-2.27Zm-10.45-8.81c.02-1.08-.86-2-1.94-2.03-1.08-.02-2,.86-2.02,1.95-.02,1.08,.86,2.01,1.94,2.03,1.08,.02,2-.87,2.03-1.95Zm13.94,1.95c1.08,.01,1.99-.89,2-1.97,.01-1.08-.88-2-1.96-2.01-1.08-.01-1.99,.88-2,1.97-.01,1.08,.88,2,1.96,2.01Z"/><path class="cls-2" d="M32.63,12.13c16.99-10.74,41.3-10.79,58.34,0-2.11,2.47-4.21,4.92-6.31,7.38-1.16,1.36-2.35,2.69-3.47,4.09-.51,.64-.93,.71-1.66,.36-5.75-2.74-11.84-4-18.2-3.94-5.8,.06-11.35,1.31-16.63,3.72-.41,.19-.83,.37-1.25,.55-.07,.03-.16,.03-.36,.07-3.46-4.04-6.96-8.14-10.47-12.24Z"/><path class="cls-3" d="M29.13,14.18c3.53,4.13,6.96,8.14,10.48,12.25-8.14,5.27-13.89,12.42-17.23,21.51H5.71c3.71-14.14,11.52-25.27,23.42-33.76Z"/><path class="cls-4" d="M94.75,35.23c-1.89-1.7-3.55-3.27-5.3-4.74-1.71-1.44-3.5-2.77-5.33-4.21,3.41-3.99,6.83-7.99,10.35-12.1,11.88,8.45,19.69,19.61,23.43,33.8-3.03,0-5.93,0-8.83,0-2.28,0-4.57-.02-6.85,.01-.67,.01-.96-.21-1.3-.82-.82-1.49-.54-2.53,.67-3.73,2.45-2.43,4.71-5.04,7.05-7.58,1.43-1.55,1.63-2.96,.63-4.36-1.09-1.53-2.99-2.03-4.76-1.16-3.39,1.67-6.75,3.38-9.76,4.88Z"/><path class="cls-3" d="M45.86,119.89v-7.89h-3.96v7.82h-9.89c.47-5.96,3.01-10.65,8.02-13.91,4.22-2.76,12.01-4.67,14.36-3.51-.1,1.09-.33,2.2-.28,3.3,.05,1.06,.16,2.24,.67,3.12,.74,1.28,.58,2.35,.11,3.6-.8,2.14-1.49,4.32-2.15,6.5-.24,.79-.62,1.02-1.41,.99-1.77-.06-3.55-.02-5.46-.02Z"/><path class="cls-3" d="M81.7,119.82v-7.86h-3.91v7.93c-2.11,0-4.09,.02-6.06-.03-.25,0-.62-.38-.71-.65-.95-2.75-1.86-5.51-2.76-8.27-.08-.25-.16-.62-.04-.81,1.53-2.41,1.57-5.01,.81-8.02,4.89-.35,9.23,.88,13.3,3.08,5.75,3.1,8.73,8.06,9.27,14.63h-9.89Z"/><path class="cls-4" d="M85.69,54.89c-1.4-2.85-2.75-5.62-4.19-8.55,7.04-3.53,14.38-7.21,21.71-10.88,.06,.07,.12,.14,.17,.21-5.93,6.44-11.87,12.89-17.7,19.22Z"/><path class="cls-1" d="M55.82,93.68h11.9v4.93c-3.75,1.48-7.52,1.32-11.3,.12-.25-.08-.56-.49-.57-.75-.06-1.49-.03-2.98-.03-4.3Z"/><path class="cls-4" d="M66.97,119.82c-.33,.03-.52,.07-.72,.07-3.15,0-6.3,0-9.64,0,.87-2.62,1.68-5.13,2.54-7.62,.06-.18,.45-.35,.69-.35,1.29-.03,2.57-.05,3.86,0,.28,.01,.72,.28,.81,.53,.85,2.42,1.64,4.86,2.47,7.37Z"/><path class="cls-4" d="M58.1,103.55h7.16c.09,.55,.24,1.15,.26,1.75,.07,2.14-.39,2.61-2.47,2.61-1.16,0-2.32-.05-3.47,.02-.78,.04-1.22-.28-1.3-.99-.12-1.12-.13-2.25-.19-3.39Z"/><path class="cls-1" d="M43.79,79.41c-1.47-.8-1.91-2.02-1.91-3.45,0-1.44,.43-2.66,1.91-3.47v6.92Z"/><path class="cls-1" d="M79.8,72.48c1.55,.84,1.94,2.12,1.92,3.6-.02,1.39-.49,2.56-1.92,3.34v-6.94Z"/><path class="cls-5" d="M66.25,80.8c.99,.75,2.01,1.51,3.02,2.27-3.74,5.15-10.62,6.5-14.95,0,1.01-.76,2.02-1.52,3.02-2.27,3.52,3.59,4.98,3.59,8.91,0Z"/><path class="cls-5" d="M55.81,71.99c-.02,1.08-.95,1.97-2.03,1.95-1.08-.02-1.96-.95-1.94-2.03,.02-1.09,.94-1.97,2.02-1.95,1.08,.02,1.97,.95,1.94,2.03Z"/><path class="cls-5" d="M69.75,73.94c-1.08-.01-1.97-.93-1.96-2.01,.01-1.09,.92-1.98,2-1.97,1.08,.01,1.98,.92,1.96,2.01-.01,1.08-.93,1.98-2,1.97Z"/></g></g></svg>