<?xml version="1.0" encoding="UTF-8"?><svg id="Layer_2" xmlns="http://www.w3.org/2000/svg" viewBox="0 0 12 12"><defs><style>.cls-1{fill:#06ffd5;}.cls-2{fill:#1a2959;stroke:#1a2959;stroke-miterlimit:10;stroke-width:.5px;}</style></defs><g id="Layer_1-2"><g><circle class="cls-1" cx="6" cy="6" r="6"/><path class="cls-2" d="M6,2.94c-1.06,0-1.91,.86-1.91,1.91h.77c0-.63,.52-1.15,1.15-1.15s1.15,.52,1.15,1.15c0,.41-.17,.56-.57,.86-.15,.11-.31,.24-.47,.4-.5,.5-.5,1-.49,1.04v.77h.77v-.77s0-.23,.27-.49c.12-.12,.26-.23,.39-.33,.41-.31,.87-.67,.87-1.47,0-1.06-.86-1.91-1.91-1.91Zm-.38,6.04h.77v.77h-.77v-.77Z"/></g></g></svg>