<?xml version="1.0" encoding="UTF-8"?><svg id="Layer_2" xmlns="http://www.w3.org/2000/svg" viewBox="0 0 125.16 123.98"><defs><style>.cls-1{fill:#e9f6f6;}.cls-2{fill:#fff;}.cls-3{fill:#b6e5f5;}.cls-4{fill:#add;}.cls-5{fill:#e1e3e7;}.cls-6{fill:#06ffd5;}.cls-7{fill:#1a2959;}</style></defs><g id="circles"><path class="cls-5" d="M28.25,104.73c-1.82,2.01-3.54,3.88-5.22,5.77-.34,.38-.53,.23-.78-.06-1.67-1.86-3.36-3.71-5.15-5.69,3.74-1.24,7.34-1.21,11.16-.03Z"/></g><g id="Layer_1-2"><g><path class="cls-7" d="M84.5,109.9H41.38c-.14,.35,.16,.57,.31,.82,2.2,3.79,3.15,7.88,3.09,12.26-.01,.87-.3,1-1.06,.99-10-.02-20.01-.02-30.01-.02-3.98,0-7.95-.02-11.93,.02-.9,0-1.27-.11-1.26-1.18,.13-10.13,4.76-17.27,13.99-21.4,.14-.06,.28-.13,.54-.25-3.14-2.83-4.75-6.25-4.41-10.42,.25-3.08,1.55-5.7,3.82-7.82,4.55-4.25,11.6-4.33,16.2-.16,2.73,2.47,4.06,5.58,4.04,9.25-.02,2.94-.74,4.46-4.3,9.16,5.48,2.72,5.69,2.87,10.32,7.9-.1-4.91,1.02-9.37,3.7-13.39,2.66-3.99,6.25-6.79,10.68-8.54-.06-.47-.45-.62-.71-.88-2.37-2.41-3.63-5.29-3.59-8.69,0-.72-.22-1.08-.8-1.49-6.48-4.68-12.97-9.34-19.36-14.14-4.62-3.48-8.07-7.98-10.61-13.19-.62-1.27-1.27-2.53-1.92-3.81q-1.59,1.26-3.03-.18c-4.85-4.86-9.69-9.74-14.57-14.58-.62-.62-.76-.93-.05-1.64C8.98,20.09,17.44,11.6,25.88,3.1c.57-.58,.87-.74,1.54-.07,5.12,5.19,10.27,10.35,15.45,15.48,.66,.65,.62,1.01-.05,1.54-.57,.46-1.07,1.01-1.77,1.67,3.18,.37,6.07,.72,8.96,1.03,3.73,.39,7.13,1.65,10.28,3.69,5.96,3.87,11.88,7.81,17.94,11.51,5.22,3.18,9.2,7.58,13,12.24,3.84,4.7,7.77,9.34,11.69,13.97,2.87,3.39,2.8,8.09-.25,11.15-3.09,3.09-7.9,3.19-11.19,.11-2.17-2.03-4.18-4.23-6.54-6.65,0,1.94,.03,3.5,0,5.06-.11,4.46-3.84,8.19-8.25,7.76-1.96-.19-2.75,.28-3.38,1.99-.51,1.37-1.67,2.37-2.79,3.44,9.54,4.21,14.37,11.49,14.51,22.11,2.74-3.7,6.15-6.31,10.32-7.91-5.57-6.95-5.76-13.31-.58-18.23,4.52-4.3,11.58-4.44,16.2-.31,2.78,2.48,4.17,5.61,4.12,9.34-.05,3.68-1.68,6.66-4.45,9.14,5.17,2.05,9.08,5.36,11.74,10.1,2.08,3.71,2.87,7.72,2.8,11.95-.01,.93-.53,.75-1.04,.75-6.9,0-13.81,0-20.71,0s-14.23-.02-21.35,.02c-.93,0-1.15-.21-1.16-1.16-.05-4.6,1.05-8.86,3.6-12.92Zm-3.58-50.24c0-4.07-.15-8.14,.06-12.2,.11-2.09-.63-3.29-2.3-4.35-7.2-4.58-14.34-9.25-21.52-13.85-1.77-1.14-3.73-1.93-5.82-2.2-4.31-.56-8.64-1-12.95-1.54-.71-.09-1.16,.11-1.65,.59-4.99,5.03-9.98,10.04-15.01,15.03-.57,.56-.55,.96-.21,1.6,.83,1.55,1.58,3.14,2.37,4.71,2.37,4.72,5.66,8.69,9.9,11.84,2.49,1.85,5,3.66,7.5,5.49,3.58,2.61,7.14,5.27,10.77,7.82,3.31,2.33,7.71,.89,8.61-2.78,.5-2.04-.23-3.69-1.75-5.06-5.45-4.91-10.84-9.88-16.36-14.69-1.47-1.28-2.02-2.63-1.84-4.48,.15-1.58,1.2-2.45,2.74-2.03,6.81,1.85,13.63,3.66,20.41,5.61,5.54,1.59,8.99,6.29,9.01,12.05,.01,2.94,0,5.87,0,8.81,0,.45-.06,.9,.22,1.33,.98,1.55,1.52,3.26,1.71,5.07,.06,.62,.35,.84,.88,1.02,2.58,.86,5.2-1.08,5.22-3.95,.03-4.61,0-9.23,0-13.84ZM16.53,40.43c.4-.02,.55-.31,.75-.51,6.66-6.66,13.31-13.34,19.98-19.99,.48-.48,.57-.76,.03-1.29-3.34-3.29-6.64-6.62-9.94-9.95-.46-.47-.74-.61-1.29-.06-6.66,6.72-13.35,13.41-20.05,20.09-.45,.45-.52,.71-.03,1.2,3.36,3.33,6.69,6.69,10.04,10.03,.17,.17,.36,.33,.51,.47Zm6.11,79.5c5.57,0,11.13-.03,16.7,.03,1.13,.01,1.33-.32,1.11-1.33-1.01-4.81-3.48-8.65-7.45-11.54-.66-.48-1.05-.5-1.63,.16-2.64,2.98-5.35,5.9-8,8.87-.54,.61-.84,.68-1.43,.02-2.67-3.01-5.4-5.96-8.09-8.95-.41-.45-.71-.7-1.33-.26-4.16,2.95-6.74,6.9-7.71,11.92-.17,.89,.08,1.12,.98,1.11,5.61-.04,11.22-.02,16.83-.02Zm80.43,0c5.56,0,11.12-.04,16.68,.03,1.2,.02,1.26-.43,1.07-1.37-1.01-4.8-3.48-8.63-7.45-11.52-.68-.5-1.06-.46-1.62,.18-2.61,2.94-5.29,5.82-7.9,8.77-.61,.69-.94,.79-1.6,.03-2.6-2.95-5.29-5.83-7.9-8.77-.54-.6-.9-.76-1.62-.23-4.01,2.91-6.51,6.77-7.5,11.62-.18,.88-.08,1.3,1.04,1.29,5.6-.06,11.2-.03,16.81-.03Zm-40.26-14.09c5.57,0,11.13-.03,16.7,.03,1.06,.01,1.37-.21,1.15-1.29-1.02-4.85-3.49-8.73-7.52-11.62-.62-.44-.98-.47-1.52,.15-2.58,2.92-5.24,5.76-7.82,8.68-.69,.78-1.05,.98-1.85,.05-2.58-2.98-5.28-5.84-7.91-8.77-.43-.48-.73-.64-1.32-.22-4.15,2.95-6.73,6.9-7.69,11.92-.17,.89,.08,1.11,.98,1.1,5.61-.04,11.21-.02,16.82-.02Zm-40.19-22.14c-4.43,.02-8.02,3.67-7.99,8.12,.03,4.38,3.64,7.97,8.01,7.98,4.43,.01,8.06-3.62,8.06-8.06,0-4.44-3.64-8.06-8.07-8.04Zm80.43,0c-4.44,0-8.06,3.62-8.05,8.06,0,4.39,3.58,8,7.95,8.04,4.44,.04,8.1-3.57,8.12-8,.02-4.45-3.58-8.09-8.01-8.1Zm-18.1-34.72c0,.62,0,.87,0,1.12,0,4.15,0,8.3-.01,12.45,0,.51,.18,.85,.52,1.2,2.88,2.86,5.72,5.76,8.62,8.6,1.74,1.7,4.11,1.72,5.73,.13,1.58-1.55,1.62-3.83,.09-5.65-2.04-2.44-4.08-4.88-6.13-7.32-2.87-3.42-5.74-6.84-8.82-10.52Zm-14.07,28.65c0-3.33-2.22-6.47-5.28-7.52-.51-.17-.82-.34-1.02,.47-1.11,4.42-4.31,6.96-8.84,7.05-.81,.02-.98,.23-.89,.99,.53,4.19,4.25,7.3,8.5,7.07,4.19-.23,7.55-3.82,7.54-8.06Zm-2.01-10.46c0-2.09,.02-4.04,0-5.99-.05-4-2.43-7.12-6.29-8.21-3.57-1.01-7.15-1.99-10.72-2.97-1.37-.38-2.76-.72-4.13-1.08,.08,.37,.26,.54,.44,.71,4.38,3.95,8.75,7.9,13.15,11.83,1.14,1.02,2.1,2.15,2.71,3.56,.16,.36,.3,.7,.74,.75,1.42,.16,2.71,.73,4.12,1.4ZM28.25,104.73c-3.82-1.18-7.42-1.21-11.16,.03,1.8,1.98,3.48,3.83,5.15,5.69,.26,.29,.44,.44,.78,.06,1.69-1.89,3.4-3.76,5.22-5.77Zm29.02-14.07c1.83,2.01,3.55,3.91,5.28,5.81,.22,.24,.4,.23,.61,0,1.72-1.9,3.45-3.8,5.27-5.81-3.8-1.2-7.36-1.21-11.15,0Zm51.35,14.08c-3.81-1.19-7.38-1.2-11.16,.01,1.83,2.02,3.56,3.92,5.29,5.83,.32,.36,.5,.08,.69-.13,1.68-1.85,3.35-3.7,5.18-5.71Z"/><path class="cls-7" d="M124.49,2.58c-.2,.22-.35,.41-.53,.59-5.44,5.45-10.88,10.9-16.31,16.36-.44,.44-.7,.54-1.18,.03-1.41-1.48-2.87-2.93-4.34-4.36-.42-.41-.52-.72,0-1.09,.03-.02,.06-.06,.09-.09,.72-.7,1.36-1.82,2.18-1.97,.79-.14,1.43,1.11,2.07,1.8,.59,.63,.87,.26,1.28-.15,4.37-4.39,8.77-8.75,13.1-13.18,.72-.74,1.13-.7,1.73,.04,.45,.55,1,1.01,1.49,1.52,.14,.14,.26,.3,.42,.49Z"/><path class="cls-7" d="M107.1,25.31c3.33,.02,6.03,2.8,5.97,6.15-.05,3.28-2.79,5.95-6.08,5.93-3.33-.02-6.02-2.8-5.97-6.15,.05-3.28,2.79-5.94,6.08-5.92Zm-.06,8.04c1.07,0,1.99-.89,2.01-1.97,.02-1.08-.85-2.01-1.93-2.05-1.13-.04-2.09,.9-2.07,2.03,.01,1.08,.92,1.98,1.99,1.98Z"/><path class="cls-7" d="M84.83,17.26c-3.64,0-7.28-.02-10.92,.02-.79,0-1.05-.16-1.04-1.01,.02-3.03-.02-3.03,3.03-3.03,6.65,0,13.31,.02,19.96-.02,.91,0,1.19,.17,1.17,1.14-.06,2.9-.01,2.91-2.91,2.91-3.1,0-6.19,0-9.29,0Z"/><path class="cls-7" d="M84.96,21.29c3.68,0,7.37,.03,11.05-.02,.84-.01,1.02,.24,1.02,1.04-.02,3.01,.01,3.01-2.92,3.01-6.7,0-13.39-.02-20.09,.03-.96,0-1.16-.25-1.15-1.17,.05-2.88,.01-2.88,2.93-2.88s6.11,0,9.16,0Z"/><path class="cls-7" d="M80.81,33.36c-2.34,0-4.69-.03-7.03,.02-.7,.01-.9-.18-.91-.89-.04-3.15-.06-3.15,3.03-3.15,4.02,0,8.03,.02,12.05-.02,.81,0,1.04,.19,1.03,1.02-.02,3.02,.01,3.02-3.03,3.02-1.72,0-3.43,0-5.15,0Z"/><path class="cls-7" d="M97,31.46q0,1.91-1.86,1.91-2.15,0-2.15-2.12,0-1.91,1.86-1.91,2.15,0,2.15,2.12Z"/><path class="cls-2" d="M80.93,59.66c0,4.61,.02,9.23,0,13.84-.02,2.87-2.63,4.8-5.22,3.95-.53-.18-.82-.4-.88-1.02-.18-1.81-.72-3.52-1.71-5.07-.27-.43-.22-.88-.22-1.33,0-2.94,0-5.87,0-8.81-.03-5.76-3.47-10.46-9.01-12.05-6.78-1.94-13.6-3.76-20.41-5.61-1.54-.42-2.59,.45-2.74,2.03-.18,1.85,.37,3.19,1.84,4.48,5.53,4.81,10.92,9.79,16.36,14.69,1.52,1.37,2.25,3.02,1.75,5.06-.91,3.66-5.31,5.11-8.61,2.78-3.62-2.56-7.18-5.21-10.77-7.82-2.5-1.82-5.01-3.64-7.5-5.49-4.24-3.15-7.52-7.12-9.9-11.84-.79-1.57-1.55-3.16-2.37-4.71-.34-.64-.36-1.04,.21-1.6,5.03-4.99,10.02-10,15.01-15.03,.48-.49,.94-.68,1.65-.59,4.31,.54,8.64,.99,12.95,1.54,2.09,.27,4.05,1.07,5.82,2.2,7.18,4.6,14.32,9.28,21.52,13.85,1.67,1.06,2.41,2.26,2.3,4.35-.21,4.06-.06,8.13-.06,12.2Z"/><path class="cls-6" d="M16.53,40.43c-.15-.14-.34-.3-.51-.47-3.34-3.35-6.68-6.71-10.04-10.03-.49-.49-.41-.75,.03-1.2,6.7-6.68,13.38-13.38,20.05-20.09,.55-.55,.82-.41,1.29,.06,3.3,3.33,6.6,6.66,9.94,9.95,.53,.53,.45,.81-.03,1.29-6.67,6.65-13.32,13.33-19.98,19.99-.2,.2-.35,.49-.75,.51Z"/><path class="cls-4" d="M22.64,119.93c-5.61,0-11.22-.02-16.83,.02-.9,0-1.15-.23-.98-1.11,.97-5.02,3.55-8.97,7.71-11.92,.62-.44,.92-.2,1.33,.26,2.69,2.99,5.42,5.94,8.09,8.95,.59,.66,.89,.59,1.43-.02,2.65-2.97,5.36-5.89,8-8.87,.58-.66,.96-.64,1.63-.16,3.97,2.89,6.44,6.73,7.45,11.54,.21,1.01,.02,1.35-1.11,1.33-5.57-.06-11.13-.03-16.7-.03Z"/><path class="cls-4" d="M103.07,119.93c-5.6,0-11.2-.03-16.81,.03-1.12,.01-1.22-.4-1.04-1.29,.99-4.85,3.49-8.71,7.5-11.62,.72-.52,1.08-.37,1.62,.23,2.61,2.94,5.3,5.81,7.9,8.77,.67,.76,.99,.66,1.6-.03,2.61-2.95,5.29-5.82,7.9-8.77,.56-.64,.94-.67,1.62-.18,3.97,2.89,6.44,6.71,7.45,11.52,.2,.94,.14,1.38-1.07,1.37-5.56-.07-11.12-.03-16.68-.03Z"/><path class="cls-3" d="M62.81,105.84c-5.61,0-11.21-.02-16.82,.02-.9,0-1.15-.21-.98-1.1,.96-5.02,3.54-8.97,7.69-11.92,.59-.42,.89-.26,1.32,.22,2.63,2.93,5.33,5.8,7.91,8.77,.8,.93,1.16,.73,1.85-.05,2.58-2.92,5.24-5.76,7.82-8.68,.55-.62,.91-.59,1.52-.15,4.03,2.89,6.5,6.77,7.52,11.62,.23,1.08-.09,1.3-1.15,1.29-5.56-.06-11.13-.03-16.7-.03Z"/><path class="cls-2" d="M22.62,83.7c4.44-.02,8.07,3.6,8.07,8.04,0,4.44-3.63,8.07-8.06,8.06-4.37-.01-7.98-3.6-8.01-7.98-.03-4.45,3.57-8.1,7.99-8.12Z"/><path class="cls-6" d="M103.05,83.7c4.43,0,8.04,3.65,8.01,8.1-.02,4.43-3.68,8.04-8.12,8-4.37-.04-7.95-3.65-7.95-8.04,0-4.45,3.62-8.07,8.05-8.06Z"/><path class="cls-2" d="M84.95,48.98c3.09,3.68,5.96,7.1,8.82,10.52,2.04,2.44,4.08,4.88,6.13,7.32,1.53,1.82,1.49,4.11-.09,5.65-1.61,1.58-3.99,1.57-5.73-.13-2.9-2.84-5.74-5.74-8.62-8.6-.35-.34-.53-.69-.52-1.2,.02-4.15,.01-8.3,.01-12.45,0-.25,0-.49,0-1.12Z"/><path class="cls-2" d="M70.88,77.63c0,4.24-3.35,7.83-7.54,8.06-4.25,.23-7.97-2.88-8.5-7.07-.1-.76,.08-.97,.89-.99,4.54-.09,7.73-2.63,8.84-7.05,.2-.81,.52-.64,1.02-.47,3.06,1.05,5.28,4.19,5.28,7.52Z"/><path class="cls-1" d="M57.27,90.66c3.79-1.22,7.35-1.21,11.15,0-1.82,2.01-3.55,3.91-5.27,5.81-.21,.24-.39,.25-.61,0-1.72-1.9-3.45-3.8-5.28-5.81Z"/><path class="cls-6" d="M108.62,104.74c-1.82,2.01-3.5,3.86-5.18,5.71-.19,.21-.37,.49-.69,.13-1.72-1.91-3.45-3.81-5.29-5.83,3.78-1.22,7.34-1.2,11.16-.01Z"/><path class="cls-6" d="M107.04,33.36c-1.08,0-1.98-.9-1.99-1.98-.01-1.13,.95-2.07,2.07-2.03,1.08,.04,1.95,.97,1.93,2.05-.02,1.08-.94,1.97-2.01,1.97Z"/></g></g></svg>