<?xml version="1.0" encoding="UTF-8"?><svg id="Layer_2" xmlns="http://www.w3.org/2000/svg" viewBox="0 0 116.79 116.79"><defs><style>.cls-1{fill:#e9f6f6;}.cls-2{fill:#fff;}.cls-3{fill:#b6e5f5;}.cls-4{fill:#add;}.cls-5{fill:#06ffd5;}.cls-6{fill:#1a2959;}</style></defs><g id="Layer_1-2"><g id="fBMuzW"><g><path class="cls-2" d="M80.96,88.54c-1.39,0-2.79,0-4.18,0,1.85-2.02,3.71-4.03,5.55-6.07,.62-.69,1.8-1.34,1.71-2.08-.09-.73-1.27-1.28-1.89-1.98-.52-.58-.8-.43-1.27,.08-2.94,3.21-5.94,6.37-8.86,9.6-.6,.67-.84,.65-1.46,0-5.96-6.17-15.2-6.95-22.15-1.9-.53,.38-1.04,.46-1.63,.46-13.46,0-26.92,0-40.37,0-2.06,0-2.62-.57-2.62-2.67,0-25.86,0-51.71,0-77.57,0-2.08,.56-2.64,2.65-2.64,34.64,0,69.29,0,103.93,0,2.1,0,2.67,.56,2.67,2.62,0,25.9,0,51.79,0,77.69,0,1.99-.59,2.57-2.6,2.57-9.14,0-18.28,0-27.43,0q-1.94,0-2.04,1.89ZM7.54,43.32c0,10.51,0,21.02,0,31.54,0,2.74,1.49,4.26,4.18,4.26,13.53,0,27.07,0,40.6,0,2.7,0,4.19-1.52,4.19-4.25,0-21.02,0-42.05,0-63.07,0-2.79-1.48-4.26-4.3-4.26-13.45,0-26.91,0-40.36,0-2.85,0-4.31,1.48-4.31,4.36,0,10.47,0,20.95,0,31.42ZM84.75,15.07c-6.82,0-13.64,0-20.47,0-2.41,0-3.99,1.57-4,3.96-.02,2.35-.01,4.7,0,7.06,.01,2.49,1.55,4.05,4.03,4.05,13.64,0,27.29,0,40.93,0,2.46,0,3.99-1.58,4.01-4.08,.01-2.23,0-4.47,0-6.7,0-2.81-1.48-4.28-4.27-4.29-6.74,0-13.49,0-20.23,0Zm0,22.6h-18.12c-2.6,0-2.54,0-2.62,2.59-.03,1,.25,1.2,1.22,1.2,12.51-.04,25.03-.02,37.54-.02,2.72,0,2.68,0,2.73-2.71,.02-.9-.23-1.08-1.1-1.08-6.55,.04-13.1,.02-19.65,.02Zm-.09,18.84h18.36c2.45,0,2.38,0,2.48-2.5,.05-1.14-.35-1.3-1.36-1.29-12.51,.03-25.03,.02-37.54,.02-2.58,0-2.52,0-2.6,2.61-.03,1.04,.31,1.18,1.24,1.18,6.47-.04,12.95-.02,19.42-.02Zm-3.71-7.53h14.36c2.64,0,2.59,0,2.66-2.67,.03-.97-.31-1.12-1.17-1.12-10,.03-20.01,.02-30.01,.02-2.78,0-2.74,0-2.78,2.79-.01,.86,.27,1,1.05,1,5.3-.04,10.59-.02,15.89-.02Zm-16.92,20.65c0,.67-.02,1.33,0,2,.07,2.05,1.61,3.65,3.64,3.72,1.33,.05,2.66,.04,3.99,0,1.99-.06,3.57-1.6,3.65-3.57,.06-1.37,.05-2.74,0-4.11-.07-1.98-1.65-3.52-3.63-3.6-.7-.03-1.41,.04-2.11-.02-4.09-.33-5.9,1.35-5.55,5.59Zm26.37,.1c.35-4.28-1.33-5.76-5.69-5.75-4.23,0-5.69,1.44-5.7,5.7,0,4.34,1.46,5.76,5.76,5.76,4.23,0,5.97-1.46,5.62-5.7Zm15.07-.04c.35-4.25-1.38-5.71-5.61-5.71-4.37,0-5.76,1.46-5.77,5.74,0,4.31,1.52,5.71,5.68,5.72,4.37,0,6.04-1.48,5.7-5.74Zm-3.77-22.67q0,1.96,1.92,1.96t1.84-1.81q0-1.96-1.92-1.96-1.84,0-1.84,1.81Z"/><path class="cls-6" d="M80.96,88.54q.1-1.89,2.04-1.89c9.14,0,18.28,0,27.43,0,2.01,0,2.6-.58,2.6-2.57,0-25.9,0-51.79,0-77.69,0-2.06-.57-2.62-2.67-2.62-34.64,0-69.29,0-103.93,0-2.09,0-2.65,.56-2.65,2.64,0,25.86,0,51.71,0,77.57,0,2.1,.56,2.67,2.62,2.67,13.46,0,26.92,0,40.37,0,.6,0,1.11-.07,1.63-.46,6.96-5.06,16.2-4.28,22.15,1.9,.62,.64,.86,.66,1.46,0,2.92-3.23,5.92-6.39,8.86-9.6,.47-.51,.75-.66,1.27-.08,.62,.7,1.8,1.25,1.89,1.98,.1,.74-1.09,1.39-1.71,2.08-1.84,2.03-3.7,4.05-5.55,6.07-.97,1.02-1.91,2.07-2.93,3.04-.54,.52-.19,.89,.01,1.34,3.4,7.65,.77,16.56-6.23,21.12-6.6,4.3-15.25,3.5-20.92-1.94-5.72-5.49-6.93-13.98-2.95-20.8,.14-.23,.27-.47,.52-.88h-1.32c-12.2,0-24.41,0-36.61,0-4.09,0-6.35-2.25-6.35-6.31C0,58.17,0,32.24,0,6.3,0,2.3,2.28,0,6.25,0c34.77,0,69.54,0,104.3,0,3.93,0,6.24,2.29,6.24,6.18,0,26.02,0,52.03,0,78.05,0,3.89-2.32,6.18-6.24,6.18-9.18,0-18.37,0-27.55,0q-1.94,0-2.04-1.88Zm-22.48,13.93c.14-.09,.26-.13,.34-.21,3.13-3.36,6.23-6.73,9.38-10.07,.59-.63,.19-.95-.18-1.34-3.24-3.29-7.12-4.72-11.73-4-6.62,1.03-11.34,6.86-11.07,13.66,.26,6.49,5.64,12.02,12.16,12.48,7.2,.51,13.49-4.81,14.14-12,.18-1.98-.04-3.93-.91-5.87-.38,.4-.65,.68-.91,.96-3.6,3.88-7.21,7.75-10.79,11.65-.52,.56-.77,.63-1.26-.05-1.55-2.16-3.18-4.28-4.78-6.41-1.66-2.21-1.65-2.19,.59-3.88,.6-.46,.92-.45,1.36,.18,1.18,1.66,2.43,3.27,3.65,4.9Z"/><path class="cls-6" d="M7.53,43.32c0-10.47,0-20.95,0-31.42,0-2.88,1.47-4.36,4.31-4.36,13.45,0,26.91,0,40.36,0,2.82,0,4.3,1.46,4.3,4.26,0,21.02,0,42.05,0,63.07,0,2.73-1.49,4.25-4.19,4.25-13.53,0-27.07,0-40.6,0-2.7,0-4.18-1.52-4.18-4.26,0-10.51,0-21.02,0-31.54Zm45.17,15.7c.02-.44,.04-.59,.04-.74,0-15.34,0-30.69,.02-46.03,0-.94-.39-.95-1.1-.95-13.11,.02-26.21,.02-39.32-.01-.93,0-1.06,.28-1.06,1.12,.02,15.15,.02,30.29,.03,45.44,0,.31-.19,.69,.14,.94,.74-.89,1.43-1.8,2.2-2.63,3.39-3.65,7.56-5.93,12.44-6.85,.78-.15,.86-.61,1.08-1.15,.27-.65-.28-.72-.59-.95-1.68-1.21-3.03-2.77-3.44-4.76-.41-2-1.45-3.58-2.48-5.24-3.96-6.36-1.27-14.59,5.66-17.46,2.48-1.03,5.06-.98,7.65-.85,5.96,.29,10.91,5.34,11.22,11.29,.17,3.35-1.06,6.2-2.99,8.83-.44,.6-.84,1.2-.95,1.99-.37,2.63-1.72,4.67-3.83,6.23-.31,.23-.85,.32-.55,.96,.22,.48,.24,.99,.99,1.1,1.51,.22,2.97,.68,4.39,1.26,4.26,1.73,7.65,4.53,10.44,8.49Zm-30.1,9.95c0,2.01-.02,3.66,.01,5.3,0,.41-.35,1.15,.58,1.06,.71-.07,1.59,.43,1.81-.96,.66-4.18,1.52-8.32,2.24-12.49,.46-2.69,1.48-5.39,.03-8.12-.3-.56-.44-.83-1.17-.65-4.83,1.16-8.64,3.77-11.49,7.82-2.96,4.19-3.54,8.95-3.32,13.91,.03,.66,.46,.51,.81,.51,1.92,0,3.85-.03,5.77,.02,.75,.02,1-.17,.98-.96-.05-3.14-.02-6.28-.02-9.41,0-.68,.01-1.43-.4-1.92-1.13-1.32-.47-2.17,.6-2.99,.25-.19,.47-.42,.66-.67,.34-.42,.61-.35,.93,.04,.85,1.06,1.47,2.21,1.75,3.55,.44,2.1,.1,4.23,.22,5.98Zm18.84,.44c0-1.49,0-2.98,0-4.47,0-1.74,.46-3.33,1.43-4.77,.9-1.35,.91-1.34,2.08-.17,.3,.31,.59,.64,.92,.91,.49,.41,.68,.75,.17,1.33-.54,.63-.81,1.44-.81,2.29-.02,3.37,0,6.75-.02,10.12,0,.48,.09,.7,.64,.7,2.08-.03,4.16-.02,6.24,0,.51,0,.67-.15,.67-.67,0-2.75,.11-5.5-.72-8.17-2.22-7.09-6.91-11.58-14.13-13.39-.31-.08-.77-.36-.9,.13-.38,1.45-1.32,2.74-.99,4.39,.62,3.15,1.15,6.32,1.73,9.48,.45,2.51,.93,5.01,1.36,7.52,.22,1.26,1.17,.56,1.78,.69,.72,.15,.55-.46,.56-.85,.01-1.69,0-3.37,0-5.06Zm-3.77-32.07c0-.94-.04-1.69,0-2.43,.08-1.21-.39-2-1.51-2.5-1.18-.52-2.33-1.12-3.45-1.74-.51-.28-.91-.25-1.4,.01-1.21,.64-2.44,1.24-3.66,1.84-.86,.42-1.3,1.06-1.28,2.04,.02,1.72-.03,3.45,.02,5.17,.08,2.81,2.28,5.15,5.06,5.43,2.74,.28,5.29-1.49,6.03-4.18,.35-1.28,.12-2.57,.2-3.66Zm-14.78-5.01c.32-.51,.57-.95,.86-1.37,.96-1.41,2.53-1.93,3.95-2.66,1.43-.73,2.88-1.95,4.33-1.95,1.44,0,2.89,1.24,4.33,1.94,1.92,.93,3.93,1.76,4.71,4.09,.36-.44,.34-.8,.36-1.15,.21-3.92-2.49-7.5-6.31-8.41-1.44-.35-2.89-.21-4.33-.22-1.91-.02-3.61,.65-5.11,1.82-2.4,1.88-3.64,5.37-2.79,7.91Zm9.09,43.01c.82,0,1.65-.06,2.47,.02,.83,.07,.96-.23,.82-.98-.95-5.08-1.86-10.16-2.79-15.24-.05-.29,.02-.71-.42-.73-.53-.03-.44,.45-.5,.77-.93,5.08-1.85,10.16-2.79,15.24-.12,.65-.1,1.03,.74,.95,.82-.08,1.64-.02,2.47-.02Zm1.81-24.48c-.13-.4-.29-.73-.33-1.07-.18-1.34-1.23-.68-1.91-.85-.75-.18-.77,.4-.96,.86-.73,1.72,.48,3.07,.88,4.56,.12,.44,.93,.46,1.13-.02,.49-1.14,.81-2.35,1.19-3.49Z"/><path class="cls-6" d="M84.75,15.07c6.74,0,13.49,0,20.23,0,2.79,0,4.26,1.48,4.27,4.29,0,2.23,0,4.47,0,6.7-.01,2.5-1.55,4.07-4.01,4.08-13.64,0-27.29,0-40.93,0-2.48,0-4.02-1.56-4.03-4.05-.01-2.35-.02-4.7,0-7.06,.02-2.38,1.6-3.95,4-3.96,6.82-.01,13.64,0,20.47,0Zm.14,3.77c-6.63,0-13.26,.01-19.88-.02-.75,0-1.01,.16-.98,.95,.06,1.92,.05,3.84,0,5.76-.01,.66,.18,.85,.85,.85,13.26-.02,26.51-.02,39.77,0,.65,0,.88-.15,.86-.83-.05-1.88-.07-3.77,0-5.65,.03-.88-.21-1.1-1.09-1.09-6.51,.04-13.02,.02-19.53,.02Z"/><path class="cls-6" d="M84.76,37.67c6.55,0,13.1,.02,19.65-.02,.86,0,1.11,.18,1.1,1.08-.06,2.71-.01,2.71-2.73,2.71-12.51,0-25.03-.01-37.54,.02-.96,0-1.25-.2-1.22-1.2,.08-2.59,.02-2.59,2.62-2.59h18.12Z"/><path class="cls-6" d="M84.68,56.51c-6.47,0-12.95-.02-19.42,.02-.93,0-1.27-.14-1.24-1.18,.08-2.61,.02-2.61,2.6-2.61,12.51,0,25.03,.01,37.54-.02,1.01,0,1.4,.16,1.36,1.29-.1,2.49-.03,2.5-2.48,2.5h-18.36Z"/><path class="cls-6" d="M80.96,48.98c-5.3,0-10.59-.02-15.89,.02-.79,0-1.06-.14-1.05-1,.04-2.79,0-2.79,2.78-2.79,10,0,20.01,.01,30.01-.02,.87,0,1.2,.14,1.17,1.12-.07,2.67-.02,2.67-2.66,2.67-4.79,0-9.57,0-14.36,0Z"/><path class="cls-6" d="M64.05,69.62c-.35-4.24,1.46-5.91,5.55-5.59,.7,.06,1.41-.01,2.11,.02,1.98,.09,3.55,1.62,3.63,3.6,.05,1.37,.05,2.74,0,4.11-.08,1.97-1.66,3.51-3.65,3.57-1.33,.04-2.66,.05-3.99,0-2.03-.07-3.57-1.67-3.64-3.72-.02-.66,0-1.33,0-2Zm5.55,1.96q1.98,0,1.98-2.02,0-1.75-1.78-1.75-1.98,0-1.98,2.02,0,1.75,1.78,1.75Z"/><path class="cls-6" d="M90.42,69.72c.35,4.25-1.39,5.7-5.62,5.7-4.3,0-5.77-1.42-5.76-5.76,0-4.26,1.47-5.69,5.7-5.7,4.36,0,6.03,1.47,5.69,5.75Zm-3.77,.03q0-1.94-1.94-1.94t-1.82,1.83,1.94,1.94,1.82-1.83Z"/><path class="cls-6" d="M105.49,69.68c.35,4.27-1.33,5.75-5.7,5.74-4.16,0-5.69-1.41-5.68-5.72,0-4.28,1.4-5.75,5.77-5.74,4.22,0,5.96,1.46,5.61,5.71Zm-3.77,.05q0-1.91-1.97-1.91-1.8,0-1.8,1.85t1.97,1.91q1.8,0,1.8-1.85Z"/><path class="cls-6" d="M101.72,47.02q0-1.81,1.84-1.81t1.92,1.96q0,1.81-1.84,1.81-1.92,0-1.92-1.96Z"/><path class="cls-5" d="M58.48,102.47c-1.23-1.64-2.47-3.24-3.65-4.9-.45-.63-.76-.64-1.36-.18-2.24,1.69-2.26,1.67-.59,3.88,1.6,2.13,3.22,4.24,4.78,6.41,.49,.68,.74,.61,1.26,.05,3.58-3.9,7.19-7.77,10.79-11.65,.26-.29,.54-.56,.91-.96,.87,1.95,1.09,3.89,.91,5.87-.65,7.19-6.94,12.52-14.14,12-6.52-.47-11.91-5.99-12.16-12.48-.27-6.8,4.45-12.62,11.07-13.66,4.61-.72,8.49,.71,11.73,4,.38,.38,.78,.71,.18,1.34-3.15,3.33-6.26,6.71-9.38,10.07-.08,.08-.19,.12-.34,.21Z"/><path class="cls-4" d="M52.7,59.02c-2.79-3.96-6.19-6.76-10.44-8.49-1.42-.58-2.88-1.04-4.39-1.26-.75-.11-.77-.62-.99-1.1-.3-.64,.24-.73,.55-.96,2.11-1.57,3.46-3.61,3.83-6.23,.11-.78,.51-1.39,.95-1.99,1.93-2.63,3.16-5.47,2.99-8.83-.3-5.96-5.26-11.01-11.22-11.29-2.58-.12-5.17-.18-7.65,.85-6.92,2.87-9.62,11.1-5.66,17.46,1.03,1.66,2.07,3.24,2.48,5.24,.41,2,1.76,3.55,3.44,4.76,.31,.22,.86,.3,.59,.95-.22,.54-.3,1-1.08,1.15-4.88,.93-9.06,3.2-12.44,6.85-.77,.83-1.46,1.74-2.2,2.63-.33-.25-.14-.63-.14-.94-.01-15.15,0-30.29-.03-45.44,0-.83,.13-1.12,1.06-1.12,13.11,.04,26.21,.03,39.32,.01,.72,0,1.1,.02,1.1,.95-.03,15.34-.02,30.69-.02,46.03,0,.15-.02,.3-.04,.74Z"/><path class="cls-1" d="M22.6,68.97c-.12-1.75,.23-3.88-.22-5.98-.28-1.33-.9-2.49-1.75-3.55-.32-.39-.59-.46-.93-.04-.2,.24-.42,.48-.66,.67-1.08,.82-1.73,1.67-.6,2.99,.42,.49,.4,1.25,.4,1.92,0,3.14-.03,6.28,.02,9.41,.01,.79-.23,.98-.98,.96-1.92-.05-3.84-.01-5.77-.02-.36,0-.78,.15-.81-.51-.22-4.96,.36-9.71,3.32-13.91,2.85-4.04,6.67-6.65,11.49-7.82,.74-.18,.87,.09,1.17,.65,1.45,2.73,.44,5.43-.03,8.12-.72,4.17-1.58,8.31-2.24,12.49-.22,1.39-1.1,.89-1.81,.96-.93,.09-.57-.65-.58-1.06-.04-1.65-.01-3.29-.01-5.3Z"/><path class="cls-1" d="M41.44,69.42c0,1.69,0,3.37,0,5.06,0,.39,.17,1-.56,.85-.61-.13-1.56,.58-1.78-.69-.43-2.51-.91-5.01-1.36-7.52-.57-3.16-1.1-6.33-1.73-9.48-.33-1.64,.62-2.94,.99-4.39,.13-.49,.59-.21,.9-.13,7.22,1.81,11.91,6.3,14.13,13.39,.83,2.67,.72,5.42,.72,8.17,0,.52-.17,.67-.67,.67-2.08-.02-4.16-.03-6.24,0-.55,0-.64-.22-.64-.7,.02-3.37,0-6.75,.02-10.12,0-.84,.27-1.65,.81-2.29,.5-.59,.32-.93-.17-1.33-.33-.27-.61-.61-.92-.91-1.17-1.17-1.18-1.18-2.08,.17-.97,1.44-1.43,3.03-1.43,4.77,0,1.49,0,2.98,0,4.47Z"/><path class="cls-2" d="M37.67,37.35c-.08,1.09,.15,2.38-.2,3.66-.74,2.68-3.29,4.46-6.03,4.18-2.78-.29-4.98-2.63-5.06-5.43-.05-1.72,0-3.45-.02-5.17-.01-.98,.42-1.62,1.28-2.04,1.23-.6,2.46-1.2,3.66-1.84,.49-.26,.89-.29,1.4-.01,1.13,.62,2.28,1.21,3.45,1.74,1.12,.5,1.6,1.29,1.51,2.5-.05,.74,0,1.49,0,2.43Z"/><path class="cls-2" d="M22.89,32.34c-.85-2.54,.39-6.03,2.79-7.91,1.49-1.17,3.19-1.84,5.11-1.82,1.45,.01,2.9-.13,4.33,.22,3.82,.92,6.52,4.49,6.31,8.41-.02,.35,0,.71-.36,1.15-.78-2.33-2.79-3.16-4.71-4.09-1.44-.7-2.89-1.94-4.33-1.94-1.44,0-2.9,1.22-4.33,1.95-1.42,.73-2.99,1.25-3.95,2.66-.28,.42-.54,.85-.86,1.37Z"/><path class="cls-5" d="M31.98,75.35c-.82,0-1.65-.06-2.47,.02-.85,.08-.87-.3-.74-.95,.94-5.08,1.86-10.16,2.79-15.24,.06-.32-.04-.8,.5-.77,.43,.02,.36,.44,.42,.73,.93,5.08,1.85,10.16,2.79,15.24,.14,.75,.01,1.06-.82,.98-.82-.07-1.64-.02-2.47-.02Z"/><path class="cls-5" d="M33.79,50.87c-.38,1.14-.7,2.35-1.19,3.49-.2,.48-1.02,.45-1.13,.02-.4-1.49-1.61-2.85-.88-4.56,.19-.46,.21-1.04,.96-.86,.69,.17,1.73-.5,1.91,.85,.05,.34,.2,.67,.33,1.07Z"/><path class="cls-5" d="M84.89,18.84c6.51,0,13.02,.02,19.53-.02,.88,0,1.12,.21,1.09,1.09-.07,1.88-.05,3.76,0,5.65,.02,.69-.21,.83-.86,.83-13.26-.02-26.51-.02-39.77,0-.67,0-.86-.18-.85-.85,.04-1.92,.06-3.84,0-5.76-.03-.79,.24-.96,.98-.95,6.63,.03,13.26,.02,19.88,.02Z"/><path class="cls-3" d="M69.6,71.58q-1.78,0-1.78-1.75,0-2.02,1.98-2.02,1.78,0,1.78,1.75,0,2.02-1.98,2.02Z"/><path class="cls-3" d="M86.65,69.75q0,1.83-1.82,1.83t-1.94-1.94,1.82-1.83,1.94,1.94Z"/><path class="cls-3" d="M101.72,69.73q0,1.85-1.8,1.85-1.97,0-1.97-1.91t1.8-1.85q1.97,0,1.97,1.91Z"/></g></g></g></svg>