<?xml version="1.0" encoding="UTF-8"?><svg id="Layer_2" xmlns="http://www.w3.org/2000/svg" viewBox="0 0 117 118.98"><defs><style>.cls-1{fill:#e9f6f6;}.cls-2{fill:#fff;}.cls-3{fill:#6acaeb;}.cls-4{fill:#b6e5f5;}.cls-5{fill:#06ffd5;}.cls-6{fill:#05bfa0;}.cls-7{fill:#1a2959;}.cls-8{fill:#44c4b4;}</style></defs><g id="Layer_1-2"><g><path class="cls-7" d="M56.59,81.87c0-1.98-.02-3.73,.01-5.48,0-.55-.16-.8-.71-.84-5.08-.4-8.81-3.22-11.97-6.9-1.51-1.76-2.96-2.57-5.5-2.4-7.91,.52-13.03-4.42-13.54-12.58-.08-1.27-.06-2.55,0-3.83,.05-1.22,.72-2,1.92-2.03,4.6-.11,8.97,.71,12.65,3.71,3.28,2.68,4.59,6.31,4.57,10.46,0,.86,.22,1.49,.83,2.11,1.64,1.68,3.13,3.51,4.98,4.98,1.75,1.39,3.71,2.28,5.93,2.61,.69,.1,.88-.08,.87-.78-.03-3.71-.04-7.42,0-11.12,0-.74-.26-.93-.93-1.03-8.94-1.29-15.78-7.6-17.81-16.37-2.76-11.94,5.6-23.98,17.76-25.56,11.66-1.51,22.01,6.32,23.82,18.03,1.71,11.05-6.03,21.73-17.25,23.81q-1.78,.33-1.78,2.15c0,3.35,.03,6.7-.02,10.05-.01,.8,.23,.92,.95,.81,2.56-.4,4.74-1.55,6.65-3.26,1.66-1.49,3.1-3.21,4.64-4.82,.35-.36,.37-.76,.36-1.2-.19-8.66,5.59-13.46,13.49-14.41,1.18-.14,2.38-.2,3.57-.18,1.25,.03,2.01,.71,2.08,1.87,.18,3,.06,5.98-.98,8.85-1.96,5.39-7.16,8.5-13.22,7.73-1.72-.22-2.89,.1-3.99,1.48-1.08,1.37-2.39,2.57-3.68,3.74-2.51,2.28-5.45,3.7-8.85,4.03-.7,.07-1.04,.25-1.01,1.07,.07,2.11,.06,4.23,0,6.34-.02,.68,.24,.97,.82,1.24,1.44,.66,2.89,1.34,4.27,2.11,.87,.48,1.55,.41,2.4-.06,11.33-6.2,22.68-12.36,34.02-18.55,3.52-1.92,6.92-1.93,10.16,.54,3.62,2.76,4.45,7.56,2.07,11.43-.61,.99-1.36,1.86-2.22,2.65-12.06,11.06-24.07,22.19-36.22,33.16-3.99,3.61-8.85,4.4-13.95,2.66-9.81-3.35-19.41-7.27-29.12-10.9-4.18-1.56-8.38-1.61-12.61-.21-.67,.22-.91,.52-.91,1.26-.01,3.36-1.73,5.01-5.11,5.02-2.59,0-5.17,.01-7.76,0-2.86-.02-4.74-1.85-4.74-4.71-.02-11.92-.02-23.84,0-35.77,0-2.86,1.88-4.69,4.74-4.7,2.71-.01,5.41-.01,8.12,0,2.95,.01,4.75,1.82,4.77,4.77,0,.16,.02,.32,0,.48-.11,.85,.11,1.11,1.03,.84,3.07-.89,6.22-1.3,9.42-1.3,5.86-.01,11.41,1.32,16.67,3.94,3.37,1.68,6.76,3.31,10.35,5.07Zm-1.46-60.96l.02-.02c-.44-.05-.86,.06-1.28,.19-6.93,2.18-11.27,6.84-12.42,13.99-1.13,7.01,1.45,12.75,7.19,16.95,1.93,1.41,4.07,2.47,6.52,2.69l-.02-.02c.1,.23,.3,.19,.49,.18,1.92,.42,3.84,.39,5.76,0,.19,.02,.38,.04,.5-.17,0,0-.02,.02-.02,.02,.43-.07,.87-.1,1.28-.22,11.77-3.32,16.54-17.37,9.18-27.14-2.63-3.48-6.06-5.8-10.45-6.48l.02,.02c-.11-.22-.31-.18-.5-.17-1.92-.41-3.84-.41-5.76,0-.19-.01-.39-.05-.49,.18ZM10.29,109.39c1.15,.02,2.31-.03,3.45,.06,1.17,.1,1.6-.28,1.58-1.52-.06-5.41-.03-10.83-.03-16.24,0-6.17-.01-12.34,.01-18.51,0-.9-.24-1.33-1.21-1.28-1.27,.07-2.54,.05-3.81,.06-1.11-.02-2.22-.05-3.33-.05-1.61,0-1.67,.06-1.67,1.69,0,10.03,0,20.06,0,30.09,0,1.51,.02,3.02,0,4.54-.01,.85,.33,1.25,1.2,1.23,1.27-.04,2.54-.04,3.81-.06Zm25-21.23c1.03-1.31,1.59-1.46,3.05-.75,5,2.44,9.99,4.88,14.98,7.33,3.92,1.92,7.83,3.89,11.77,5.76,3.08,1.47,6.21-.22,6.69-3.55,.29-1.99-.83-3.78-3.08-4.88-8.09-3.97-16.19-7.94-24.29-11.9-7.84-3.83-15.95-4.51-24.32-2.04-.54,.16-1.02,.26-.99,1.06,.07,2.43,.05,4.86,.07,7.29v16.78c6.05-2.02,11.68-.98,17.32,1.26,8.53,3.39,17.13,6.58,25.74,9.75,4.2,1.54,8.11,.96,11.51-2.18,5.97-5.51,11.97-10.98,17.96-16.47,5.78-5.3,11.56-10.61,17.34-15.91,1.16-1.07,2.18-2.24,2.47-3.84,.35-1.94-.27-3.57-1.88-4.72-1.83-1.31-3.76-1.3-5.72-.23-10.68,5.82-21.37,11.63-32.06,17.45-.26,.14-.63,.18-.68,.61,.16,.11,.32,.22,.48,.33,.17,.11,.34,.21,.5,.32,2.56,1.93,3.82,4.52,3.39,7.69-.84,6.23-6.54,9.29-12.25,6.55-8.95-4.31-17.85-8.73-26.77-13.11-1.2-.59-1.5-1.26-1.24-2.62Zm44.16-25.63c1.75-.09,3.86-.37,5.63-1.79,2.48-1.99,3.01-4.82,3.28-7.76,.09-.94-.03-1.55-1.22-1.22-.61,.17-1.25,.17-1.87,.29-4.62,.92-7.55,3.71-8.32,7.9-.42,2.29-.2,2.57,2.5,2.58Zm-41.24,0c.14-.01,.57-.09,1.01-.1,.75-.02,1-.35,.96-1.12-.1-2.13-.69-4.08-2.06-5.72-2.31-2.76-5.5-3.57-8.89-3.91-.57-.06-.57,.25-.56,.63,.14,6.12,2.61,10.11,9.55,10.21Z"/><path class="cls-7" d="M98.48,0c10.2-.02,18.52,8.31,18.52,18.53,0,10.23-8.31,18.52-18.53,18.5-10.17-.02-18.45-8.29-18.47-18.45C79.98,8.35,88.27,.02,98.48,0Zm-3.49,32.68c.03,.15,.15,.17,.27,.15,2.15,.52,4.31,.51,6.46,0,.12-.05,.24-.11,.36-.16,0,0,.08,0,.08,0,.27-.05,.55-.08,.81-.16,7.11-2.24,11.47-9.74,9.9-17.06-1.16-5.4-5.75-10.17-10.68-11.09-2.46-.73-4.93-.71-7.39,0-.2,.03-.4,.04-.59,.1-8.92,2.73-13.1,13.1-8.49,21.23,2.07,3.65,5.11,6.12,9.3,7.01l-.03-.02Z"/><path class="cls-7" d="M18.45,0c10.13-.05,18.49,8.25,18.54,18.4,.05,10.25-8.18,18.58-18.41,18.64C8.37,37.09,.02,28.81,0,18.59-.02,8.35,8.22,.05,18.45,0Zm-3.46,32.68c.03,.16,.15,.17,.27,.15,2.15,.51,4.31,.51,6.46,0,.12-.05,.24-.11,.36-.16h.08c.27-.05,.55-.08,.81-.16,7.06-2.23,11.41-9.68,9.9-16.93-1.15-5.49-5.65-10.21-10.68-11.2-2.46-.73-4.93-.72-7.39-.01-.2,.03-.4,.04-.59,.1C5.19,7.21,1.04,17.78,5.84,25.91c2.09,3.54,5.09,5.95,9.19,6.8l-.03-.03Z"/><path class="cls-1" d="M35.28,88.16c-.25,1.36,.04,2.03,1.24,2.62,8.92,4.38,17.82,8.8,26.77,13.11,5.71,2.75,11.41-.31,12.25-6.55,.43-3.18-.83-5.76-3.39-7.69-.16-.12-.33-.21-.5-.32-.16-.11-.33-.22-.48-.33,.05-.43,.42-.47,.68-.61,10.68-5.82,21.37-11.63,32.06-17.45,1.97-1.07,3.89-1.08,5.72,.23,1.61,1.15,2.23,2.77,1.88,4.72-.29,1.61-1.31,2.78-2.47,3.84-5.78,5.3-11.56,10.61-17.34,15.91-5.99,5.49-11.99,10.96-17.96,16.47-3.4,3.14-7.31,3.73-11.51,2.18-8.61-3.17-17.22-6.36-25.74-9.75-5.64-2.24-11.27-3.28-17.32-1.26,0-5.67,0-11.23,0-16.78,.54-.08,1.09-.21,1.63-.23,3.61-.14,7.17,.23,10.7,.98,1.27,.27,2.48,.8,3.79,.92Zm62.47-4.98c.35,.04,.77-.19,1.16-.48,2.85-2.09,5.71-4.17,8.55-6.28,1.04-.78,1.24-1.89,.56-2.8-.68-.91-1.76-1.02-2.84-.25-1.61,1.16-3.21,2.34-4.81,3.52-1.28,.94-2.57,1.87-3.84,2.82-.72,.53-.98,1.27-.69,2.11,.28,.81,.84,1.34,1.93,1.36Zm-9.39,3.35c-.01,1.46,1.45,2.47,2.67,1.84,.77-.39,1.48-.94,2.12-1.52,.82-.74,.85-1.73,.13-2.56-.7-.8-1.55-.95-2.45-.38-.61,.38-1.17,.82-1.74,1.26-.47,.36-.7,.86-.73,1.36Z"/><path class="cls-2" d="M35.28,88.16c-1.31-.12-2.51-.65-3.79-.92-3.53-.75-7.09-1.12-10.7-.98-.55,.02-1.09,.15-1.63,.23-.02-2.43,0-4.86-.07-7.29-.02-.8,.46-.9,.99-1.06,8.37-2.47,16.48-1.8,24.32,2.04,8.1,3.96,16.19,7.93,24.29,11.9,2.25,1.1,3.37,2.89,3.08,4.88-.49,3.32-3.61,5.02-6.69,3.55-3.94-1.88-7.85-3.84-11.77-5.76-4.99-2.45-9.99-4.89-14.98-7.33-1.46-.71-2.01-.56-3.05,.75Z"/><path class="cls-5" d="M55.62,20.73c1.92-.41,3.84-.41,5.76,0,.12,.18,.3,.2,.5,.17,0,0-.02-.02-.02-.02,.23,.21,.44,.44,.7,.62,6.42,4.35,9.45,10.34,8.85,18.13-.34,4.37-2.12,8.07-4.99,11.32-1.33,1.5-3.05,2.5-4.56,3.77,0,0,.02-.02,.02-.02-.19-.02-.37,0-.5,.17-1.92,.4-3.84,.42-5.76,0-.12-.18-.3-.2-.49-.18,0,0,.02,.02,.02,.02-.2-.18-.39-.39-.61-.54-6.46-4.35-9.55-10.36-8.94-18.2,.34-4.37,2.12-8.07,5-11.31,1.33-1.5,3.04-2.51,4.56-3.77,0,0-.02,.02-.02,.02,.19,.02,.37,0,.49-.18Zm10.06,12.3c.02-2.06-1.69-3.9-3.88-3.9-1.16,0-1.5-.3-1.42-1.45,.09-1.31-.73-2.16-1.84-2.18-1.16-.03-2,.85-1.92,2.22,.06,1.04-.31,1.38-1.29,1.59-2.58,.55-4.18,2.89-3.99,5.6,.17,2.4,2.13,4.47,4.61,4.71,1.38,.14,2.78,.09,4.17,.11,.95,.02,1.65,.35,1.72,1.4,.06,.91-.61,1.51-1.73,1.53-1.31,.03-2.63-.02-3.94,.02-.63,.02-1-.11-1.19-.8-.28-1.03-1.08-1.45-2.12-1.3-.98,.14-1.57,.98-1.54,2.09,.04,2.01,1.73,3.77,3.87,3.78,1.15,0,1.5,.3,1.42,1.45-.09,1.29,.75,2.16,1.85,2.18,1.1,.02,1.98-.85,1.91-2.12-.06-1.06,.22-1.48,1.32-1.7,2.47-.49,4.07-2.77,3.98-5.38-.09-2.45-1.95-4.52-4.41-4.92-1.46-.24-2.94-.09-4.41-.12-.97-.02-1.64-.34-1.69-1.41-.04-.95,.58-1.5,1.72-1.52,1.31-.02,2.63,.02,3.94-.02,.63-.02,1,.09,1.19,.79,.28,1.03,1.09,1.49,2.11,1.29,1.02-.19,1.54-.91,1.55-1.96Z"/><path class="cls-4" d="M10.29,71.96c1.27-.02,2.54,0,3.81-.06,.97-.05,1.21,.38,1.21,1.28-.03,6.17-.01,12.34-.01,18.51,0,5.41-.04,10.83,.03,16.24,.01,1.25-.41,1.62-1.58,1.52-1.15-.09-2.3-.05-3.45-.06,0-12.48,0-24.96,0-37.43Z"/><path class="cls-3" d="M10.29,71.96c0,12.48,0,24.96,0,37.43-1.27,.02-2.54,.02-3.81,.06-.87,.03-1.22-.38-1.2-1.23,.02-1.51,0-3.02,0-4.54,0-10.03,0-20.06,0-30.09,0-1.63,.06-1.7,1.67-1.69,1.11,0,2.22,.03,3.33,.05Z"/><path class="cls-6" d="M61.85,54.71c1.51-1.27,3.23-2.27,4.56-3.77,2.87-3.25,4.66-6.95,4.99-11.32,.6-7.79-2.43-13.78-8.85-18.13-.26-.17-.47-.41-.7-.62,4.4,.68,7.83,3,10.45,6.48,7.36,9.77,2.59,23.82-9.18,27.14-.41,.12-.85,.15-1.28,.22Z"/><path class="cls-6" d="M55.15,20.89c-1.52,1.26-3.23,2.27-4.56,3.77-2.88,3.24-4.66,6.94-5,11.31-.6,7.84,2.48,13.85,8.94,18.2,.22,.15,.41,.36,.61,.54-2.45-.22-4.59-1.28-6.52-2.69-5.74-4.2-8.32-9.94-7.19-16.95,1.15-7.15,5.5-11.81,12.42-13.99,.42-.13,.84-.24,1.28-.19Z"/><path class="cls-8" d="M79.44,62.53c-2.69,0-2.92-.28-2.5-2.58,.77-4.19,3.7-6.98,8.32-7.9,.62-.12,1.27-.12,1.87-.29,1.19-.33,1.3,.27,1.22,1.22-.27,2.94-.8,5.77-3.28,7.76-1.77,1.42-3.88,1.7-5.63,1.79Z"/><path class="cls-8" d="M38.2,62.53c-6.94-.1-9.42-4.09-9.55-10.21,0-.38,0-.69,.56-.63,3.39,.34,6.58,1.15,8.89,3.91,1.38,1.64,1.96,3.59,2.06,5.72,.04,.76-.21,1.1-.96,1.12-.43,0-.87,.08-1.01,.1Z"/><path class="cls-6" d="M55.62,20.73c-.12,.18-.3,.2-.49,.18,.1-.23,.3-.19,.49-.18Z"/><path class="cls-6" d="M61.88,20.9c-.19,.03-.37,.01-.5-.17,.19-.02,.39-.05,.5,.17Z"/><path class="cls-6" d="M55.13,54.69c.19-.02,.37,0,.49,.18-.19,.01-.39,.05-.49-.18Z"/><path class="cls-6" d="M61.38,54.86c.13-.17,.3-.19,.5-.17-.11,.21-.31,.19-.5,.17Z"/><path class="cls-5" d="M94.8,4.37c2.46-.71,4.93-.73,7.39,0,.08,.3,.33,.41,.56,.58,5.46,4.12,7.76,9.64,6.77,16.35-.65,4.35-2.89,7.94-6.5,10.57-.32,.24-.66,.44-.86,.8,0,0-.08,0-.08,0-.12,.05-.24,.11-.36,.16-2.15,.51-4.31,.51-6.46,0-.09-.05-.18-.1-.27-.15,0,0,.03,.02,.03,.02-1.46-1.26-3.08-2.33-4.26-3.93-2.89-3.94-4.09-8.3-3.23-13.11,.79-4.44,2.95-8.09,6.74-10.66,.22-.15,.35-.42,.52-.63Zm10.19,17.01c-.04-2.52-2.1-4.65-4.61-4.75-1.03-.04-2.07-.02-3.1-.01-.7,0-1.32-.11-1.35-.97-.04-.99,.67-1.02,1.39-1.02,.95,0,1.91,.01,2.86,0,.54,0,.92,.02,1.19,.67,.39,.97,1.26,1.29,2.27,1.02,.92-.25,1.45-1.23,1.3-2.27-.25-1.71-1.49-3.03-3.21-3.18-.99-.09-1.32-.4-1.36-1.41-.05-1.15-.84-1.75-1.88-1.74-1.04,0-1.7,.64-1.87,1.78-.02,.16-.05,.32-.04,.48,.06,.59-.19,.79-.78,.93-2.4,.58-4.01,2.83-3.75,5.11,.3,2.61,2.27,4.39,4.92,4.43,.99,.02,1.99,0,2.98,0,.71,0,1.19,.32,1.17,1.04-.02,.66-.49,.94-1.15,.93-1.11-.01-2.23-.02-3.34,0-.49,.01-.74-.13-.97-.63-.48-1.03-1.41-1.38-2.37-1.04-.89,.31-1.37,1.25-1.2,2.33,.28,1.78,1.64,3.04,3.51,3.14,.68,.03,.96,.17,1,.93,.07,1.51,.77,2.22,1.96,2.19,1.15-.03,1.81-.72,1.86-2.17,.03-.71,.27-.9,.92-1.07,2.21-.57,3.7-2.56,3.66-4.73Z"/><path class="cls-6" d="M94.8,4.37c-.17,.21-.3,.48-.52,.63-3.8,2.57-5.95,6.23-6.74,10.66-.86,4.81,.34,9.17,3.23,13.11,1.18,1.6,2.79,2.67,4.26,3.93-4.19-.88-7.23-3.36-9.3-7.01-4.61-8.13-.43-18.5,8.49-21.23,.19-.06,.39-.07,.59-.1Z"/><path class="cls-6" d="M102.16,32.68c.2-.36,.53-.57,.86-.8,3.61-2.63,5.86-6.21,6.5-10.57,1-6.71-1.3-12.24-6.77-16.35-.22-.17-.48-.28-.56-.58,4.93,.92,9.52,5.68,10.68,11.09,1.57,7.32-2.78,14.82-9.9,17.06-.26,.08-.54,.11-.81,.16Z"/><path class="cls-6" d="M94.99,32.68c.09,.05,.18,.1,.27,.15-.13,.02-.24,0-.27-.15Z"/><path class="cls-6" d="M101.73,32.83c.12-.05,.24-.11,.36-.16-.12,.05-.24,.11-.36,.16Z"/><path class="cls-5" d="M14.81,4.36c2.47-.7,4.93-.71,7.39,.01,.08,.3,.33,.41,.56,.58,1.22,.89,2.35,1.88,3.28,3.09,2.7,3.49,3.97,7.38,3.59,11.83-.4,4.58-2.26,8.34-5.77,11.31-.57,.48-1.29,.8-1.68,1.49,0,0-.08,0-.08,0-.12,.05-.24,.11-.36,.16-2.15,.51-4.31,.52-6.46,0-.09-.05-.18-.1-.27-.15,0,0,.03,.03,.03,.02-.17-.16-.34-.33-.52-.46-5.22-3.79-7.67-8.84-7.13-15.33,.33-3.93,1.93-7.23,4.64-10.02,.87-.9,1.86-1.68,2.79-2.52Zm3.95,10.27c.52,0,1.03,0,1.55,0,.46-.01,.78,.05,1,.59,.42,1.02,1.28,1.4,2.34,1.09,.96-.28,1.44-1.26,1.23-2.42-.3-1.72-1.53-2.88-3.45-3.09-.72-.08-1.01-.26-1.04-1.05-.07-1.4-.8-2.08-1.97-2.05-1.14,.04-1.79,.75-1.85,2.19-.03,.61-.16,.87-.82,1.03-2.36,.56-3.96,2.79-3.73,5.02,.28,2.62,2.24,4.45,4.86,4.5,1.03,.02,2.07,0,3.1,0,.65,0,1.08,.3,1.09,.99,0,.7-.43,.98-1.09,.97-1.07,0-2.15-.02-3.22,.01-.58,.02-.9-.11-1.16-.71-.42-.97-1.32-1.28-2.3-.95-1,.33-1.39,1.15-1.27,2.18,.21,1.83,1.64,3.2,3.52,3.28,.78,.03,1.02,.25,1.02,1.03,0,1.04,.44,1.87,1.58,2.07,1.25,.22,2.11-.55,2.26-2,.05-.48-.12-.96,.67-1.15,2.61-.66,4.17-2.88,3.83-5.26-.38-2.68-2.29-4.28-5.14-4.3-.88,0-1.75,0-2.63,0-.68,0-1.21-.23-1.24-.98-.04-.78,.49-1.01,1.18-1.01,.56,0,1.11,0,1.67,0Z"/><path class="cls-6" d="M22.18,32.67c.39-.69,1.11-1.01,1.68-1.49,3.52-2.97,5.38-6.73,5.77-11.31,.38-4.45-.89-8.34-3.59-11.83-.93-1.21-2.06-2.2-3.28-3.09-.23-.17-.48-.28-.56-.58,5.03,.99,9.53,5.71,10.68,11.2,1.52,7.26-2.83,14.71-9.9,16.93-.26,.08-.54,.11-.81,.16Z"/><path class="cls-6" d="M14.81,4.36c-.93,.84-1.92,1.62-2.79,2.52-2.71,2.79-4.31,6.09-4.64,10.02-.54,6.49,1.92,11.55,7.13,15.33,.19,.14,.35,.31,.52,.46-4.11-.85-7.1-3.26-9.19-6.8C1.04,17.78,5.19,7.21,14.22,4.46c.19-.06,.39-.07,.59-.1Z"/><path class="cls-6" d="M21.73,32.83c.12-.05,.24-.11,.36-.16-.12,.05-.24,.11-.36,.16Z"/><path class="cls-6" d="M15,32.68c.09,.05,.18,.1,.27,.15-.13,.02-.24,0-.27-.15Z"/><path class="cls-7" d="M97.75,83.17c-1.08-.02-1.65-.55-1.93-1.36-.29-.84-.03-1.57,.69-2.11,1.28-.95,2.56-1.88,3.84-2.82,1.6-1.17,3.19-2.36,4.81-3.52,1.08-.78,2.16-.66,2.84,.25,.68,.91,.49,2.03-.56,2.8-2.84,2.11-5.7,4.19-8.55,6.28-.39,.29-.8,.52-1.16,.48Z"/><path class="cls-7" d="M88.37,86.52c.03-.5,.26-1,.73-1.36,.57-.44,1.13-.88,1.74-1.26,.9-.56,1.76-.42,2.45,.38,.72,.83,.7,1.81-.13,2.56-.65,.58-1.36,1.13-2.12,1.52-1.22,.63-2.68-.38-2.67-1.84Z"/><path class="cls-7" d="M65.68,33.03c-.01,1.06-.53,1.77-1.55,1.96-1.03,.19-1.84-.26-2.11-1.29-.19-.7-.56-.81-1.19-.79-1.31,.04-2.63,0-3.94,.02-1.15,.02-1.77,.57-1.72,1.52,.05,1.07,.73,1.39,1.69,1.41,1.47,.02,2.94-.12,4.41,.12,2.46,.4,4.32,2.48,4.41,4.92,.09,2.6-1.5,4.88-3.98,5.38-1.1,.22-1.38,.64-1.32,1.7,.07,1.27-.81,2.14-1.91,2.12-1.1-.02-1.94-.88-1.85-2.18,.08-1.16-.27-1.45-1.42-1.45-2.15-.01-3.83-1.77-3.87-3.78-.02-1.11,.56-1.95,1.54-2.09,1.04-.15,1.84,.27,2.12,1.3,.19,.7,.55,.82,1.19,.8,1.31-.04,2.63,0,3.94-.02,1.12-.02,1.79-.62,1.73-1.53-.07-1.05-.77-1.39-1.72-1.4-1.39-.02-2.79,.03-4.17-.11-2.49-.24-4.45-2.31-4.61-4.71-.19-2.71,1.41-5.05,3.99-5.6,.98-.21,1.36-.54,1.29-1.59-.08-1.38,.76-2.25,1.92-2.22,1.11,.03,1.93,.87,1.84,2.18-.08,1.15,.26,1.45,1.42,1.45,2.18,0,3.9,1.84,3.88,3.9Z"/><path class="cls-7" d="M105,21.38c.04,2.17-1.45,4.16-3.66,4.73-.65,.17-.89,.36-.92,1.07-.05,1.45-.72,2.14-1.86,2.17-1.19,.03-1.89-.68-1.96-2.19-.03-.76-.32-.9-1-.93-1.87-.1-3.23-1.36-3.51-3.14-.17-1.09,.31-2.02,1.2-2.33,.96-.34,1.89,0,2.37,1.04,.23,.49,.48,.64,.97,.63,1.11-.02,2.23-.02,3.34,0,.66,0,1.13-.27,1.15-.93,.02-.72-.47-1.04-1.17-1.04-.99,0-1.99,.01-2.98,0-2.65-.04-4.62-1.82-4.92-4.43-.26-2.29,1.35-4.54,3.75-5.11,.59-.14,.84-.35,.78-.93-.02-.16,.01-.32,.04-.48,.17-1.14,.83-1.77,1.87-1.78,1.04,0,1.83,.6,1.88,1.74,.04,1.01,.38,1.32,1.36,1.41,1.73,.15,2.96,1.47,3.21,3.18,.16,1.04-.38,2.02-1.3,2.27-1.01,.28-1.88-.05-2.27-1.02-.26-.65-.65-.68-1.19-.67-.95,.02-1.91,0-2.86,0-.72,0-1.43,.03-1.39,1.02,.04,.86,.65,.98,1.35,.97,1.03,0,2.07-.03,3.1,.01,2.51,.1,4.57,2.23,4.61,4.75Z"/><path class="cls-7" d="M18.76,14.63c-.56,0-1.11,0-1.67,0-.69,0-1.21,.23-1.18,1.01,.03,.75,.56,.98,1.24,.98,.88,0,1.75,0,2.63,0,2.85,.02,4.76,1.62,5.14,4.3,.34,2.38-1.22,4.6-3.83,5.26-.78,.2-.62,.67-.67,1.15-.15,1.45-1.01,2.21-2.26,2-1.14-.2-1.59-1.03-1.58-2.07,0-.78-.24-1-1.02-1.03-1.88-.07-3.3-1.45-3.52-3.28-.12-1.03,.27-1.84,1.27-2.18,.98-.33,1.88-.02,2.3,.95,.26,.6,.58,.73,1.16,.71,1.07-.04,2.15-.01,3.22-.01,.66,0,1.09-.27,1.09-.97,0-.69-.44-.98-1.09-.99-1.03,0-2.07,.01-3.1,0-2.62-.06-4.59-1.88-4.86-4.5-.23-2.22,1.37-4.46,3.73-5.02,.66-.16,.79-.42,.82-1.03,.07-1.44,.71-2.15,1.85-2.19,1.17-.04,1.91,.64,1.97,2.05,.04,.79,.32,.97,1.04,1.05,1.92,.21,3.15,1.36,3.45,3.09,.2,1.15-.27,2.14-1.23,2.42-1.07,.31-1.92-.07-2.34-1.09-.22-.54-.54-.6-1-.59-.52,.01-1.03,0-1.55,0Z"/></g></g></svg>