<?xml version="1.0" encoding="UTF-8"?><svg id="Layer_2" xmlns="http://www.w3.org/2000/svg" viewBox="0 0 200 200"><defs><style>.cls-1{fill:#67d4e4;}.cls-2{fill:#e9f6f6;}.cls-3{fill:#fff;}.cls-4{fill:#b6e5f5;}.cls-5{fill:#aaebeb;}.cls-6{fill:#add;}.cls-7{fill:#1a2959;}</style></defs><g id="Layer_1-2"><circle class="cls-2" cx="100" cy="100" r="100"/><g id="_6xvF1V"><g><path class="cls-7" d="M32.67,142.38c1.6-1.8,3.57-2.97,5.92-3.5,.55-.12,1.05-.32,1.52-.68,5.27-3.93,10.54-7.86,15.86-11.73,.82-.6,1.01-1.15,.73-2.05-.24-.79-.42-1.6-.56-2.41-.26-1.52-.83-2.81-1.94-3.99-1.73-1.84-2.4-4.17-2.32-6.73,.07-2.26,0-4.53,.01-6.8,0-1.76,.33-2.18,2-2.73,1.67,.54,2.01,1,2.02,2.73,0,1.14,.03,2.27,0,3.41-.02,.66,.17,.92,.88,.91,3.23-.05,6.46-.05,9.69-.07,1.61,.02,3.23-.02,4.84,.07,.96,.05,1.26-.2,1.25-1.21-.06-4.98,0-9.96-.05-14.94-.01-1.29,.41-2.21,1.31-3.11,6.7-6.64,13.36-13.32,20.02-20,.32-.32,.63-.67,.99-1.06-1.29-.75-2.21-1.73-3.15-2.69-.36-1.11-.78-.89-1.47-.19-5.87,5.92-11.77,11.8-17.67,17.69-1.25,1.25-2.01,1.31-3.43,.33-2.75-1.91-5.7-2.18-8.65-.68-2.96,1.5-4.5,4.03-4.55,7.39-.02,1.66,0,3.32-.01,4.98-.02,1.64-.44,2.15-2.02,2.55-1.07-.15-1.9-.69-1.93-1.8-.08-2.87-.36-5.77,.32-8.61,1.85-7.62,10.09-11.58,17.17-8.23,.8,.38,1.22,.35,1.86-.29,5.84-5.9,11.71-11.76,17.6-17.6,.56-.56,.81-1.1,.83-1.92,.12-4.28,2.22-7.32,6.04-9.19,.98-.48,2.01-.59,3.05-.21,.34,.12,.66,.22,1.01,.08,1.34-.54,2.57-.16,3.76,.48,3.42,1.84,5.29,4.71,5.58,8.57,.04,.56,.2,.96,.6,1.36,6.22,6.2,12.42,12.41,18.62,18.62,.38,.38,.66,.6,1.31,.3,8.65-4,17.58,1.51,17.91,11.02,.06,1.66,0,3.32,.01,4.98,0,1.37-.57,2.25-2,2.45-1.57-.4-2.01-.93-2.03-2.55-.02-1.74,.03-3.49-.03-5.23-.18-5.24-4.75-8.84-9.94-7.86-1.24,.16-2.29,.74-3.3,1.43-1.34,.93-2.11,.85-3.31-.31-1.15-1.12-2.29-2.23-3.44-3.35-5.1-5.12-10.2-10.24-15.31-15.36-.05-.05-.16-.05-.31-.1-.53,1.1-1.4,1.94-2.2,2.86-.42,.3-.83,.6-1.45,1.03,.47,.37,.87,.64,1.21,.98,6.73,6.71,13.43,13.45,20.18,20.14,.91,.9,1.29,1.85,1.28,3.12-.05,4.97-.02,9.94-.02,14.91,0,.59-.18,1.22,.84,1.2,3.31-.07,6.62-.06,9.93-.08,1.66,.02,3.31,.02,4.97,.07,.7,.02,.91-.25,.89-.91-.04-1.13-.02-2.27,0-3.4,.01-1.72,.36-2.18,2.03-2.72,1.85,.77,1.99,.99,2,3.11,.02,2.27,.06,4.54,.08,6.81,.02,2.66-.98,4.95-2.79,6.85-.7,.73-1.15,1.49-1.31,2.46-.1,.6-.15,1.24-.39,1.78-.96,2.15-.25,3.42,1.69,4.75,4.92,3.38,9.65,7.05,14.44,10.63,.55,.41,1.13,.64,1.77,.78,1.83,.41,3.43,1.27,4.82,2.5,1.19,1.06,1.29,2.17,.19,3.28-4.3,4.34-8.63,8.67-12.97,12.97-1.11,1.11-2.25,1.06-3.28-.12-2.32-2.64-3.34-5.73-2.73-9.2,.22-1.27-.09-1.92-1.11-2.64-4.55-3.24-8.98-6.65-13.54-9.86-2.62-1.84-4.51-3.98-4.33-7.58-1.74,.93-3.31,1.76-4.87,2.6-.41,.22-.39,.63-.45,1.02-.93,6.12-1.87,12.24-2.82,18.36-.09,.58-.05,1.08,.3,1.6,1,1.52,1.52,3.23,1.69,5.03,.17,1.82-.63,2.7-2.47,2.7-6.55,.01-13.1,0-19.65,0-6.51,0-13.02,0-19.52,0-2.37,0-3.14-.92-2.76-3.27,.25-1.57,.69-3.08,1.58-4.39,.48-.7,.57-1.32,.42-2.16-1-5.89-1.95-11.79-2.86-17.69-.11-.73-.34-1.18-1-1.51-1.4-.69-2.76-1.46-4.08-2.16-.32,.2-.25,.44-.26,.64-.11,2.58-1.26,4.54-3.35,6.06-4.88,3.53-9.69,7.15-14.59,10.64-1,.71-1.26,1.36-1.06,2.54,.6,3.48-.4,6.56-2.69,9.22-1.03,1.19-2.19,1.28-3.27,.2-4.37-4.34-8.71-8.71-13.08-13.05-.23-.23-.28-.65-.67-.72v-1.57Zm67.09,11.8c1.49-3.63,3.83-6.02,7.31-7.18,.74-.25,.55-.77,.57-1.25,.15-5.98,.32-11.96,.42-17.94,.04-2.05,.78-3.68,2.3-5.06,3.96-3.63,7.87-7.31,11.82-10.95,.55-.51,.82-1.02,.81-1.79-.03-5.5-.03-11,0-16.51,0-.71-.22-1.22-.72-1.72-7.24-7.21-14.47-14.43-21.67-21.68-.62-.63-.95-.7-1.62-.03-7.2,7.25-14.43,14.47-21.67,21.68-.54,.54-.76,1.08-.76,1.83,.03,5.55,.03,11.09,0,16.64,0,.74,.26,1.2,.77,1.67,3.94,3.59,7.84,7.22,11.79,10.79,1.55,1.4,2.33,3.06,2.37,5.16,.1,5.98,.27,11.96,.43,17.94,.01,.43-.22,.94,.47,1.18,3.51,1.18,5.9,3.57,7.4,7.22Zm12.3-17.69c-.14,0-.28,0-.43,0,0,2.88,.03,5.76-.02,8.63-.01,.89,.03,1.46,1.17,1.52,.98,.05,1.95,.46,2.83,.95,.54,.3,.81,.32,.92-.43,.8-5.61,1.7-11.2,2.44-16.82,.17-1.29,.64-2.04,1.75-2.64,6.46-3.45,12.88-6.94,19.33-10.41,1.47-.79,2.55-1.92,3.24-3.46,.39-.87,.21-1.11-.75-1.1-4.89,.04-9.77,.03-14.66,0-.66,0-1.14,.2-1.62,.65-4.39,4.12-8.8,8.22-13.22,12.31-.65,.6-1.01,1.25-1,2.16,.03,2.88,.01,5.76,.01,8.63Zm-24.16,.11c-.14,0-.29,0-.43,0,0-2.92-.01-5.85,0-8.77,0-.8-.24-1.43-.83-1.97-4.57-4.19-9.13-8.39-13.69-12.59-.33-.3-.64-.52-1.14-.52-5.02,.02-10.04,.02-15.07,0-.69,0-.83,.18-.59,.83,.66,1.77,1.9,2.98,3.54,3.86,6.42,3.44,12.82,6.91,19.24,10.35,.91,.49,1.44,1.1,1.59,2.2,.79,5.7,1.67,11.39,2.5,17.09,.11,.76,.39,.82,1.02,.47,.88-.5,1.85-.84,2.84-.92,.89-.07,1.05-.44,1.04-1.24-.05-2.92-.02-5.85-.02-8.77Zm51.15-14.21c-1.63,.87-3.09,1.84-4.69,2.46-1.85,.72-2.43,1.9-2.22,3.79,.12,1.08,.2,2.11,1.13,2.79,5.08,3.75,10.19,7.48,15.27,11.23,.49,.37,.79,.33,1.17-.15,.89-1.09,1.99-1.94,3.24-2.6q1.3-.69,.13-1.54c-4.5-3.3-8.99-6.61-13.5-9.88-1.03-.75-1.48-1.58-1.13-2.9,.26-.99,.62-1.98,.59-3.2Zm-78.7-.08c.25,1.21,.37,2.19,.66,3.12,.44,1.39-.01,2.3-1.16,3.12-4.56,3.29-9.07,6.64-13.6,9.97-.3,.22-.73,.33-.76,.86,1.55,.7,3.01,1.59,4.1,2.92,.59,.72,.98,.68,1.67,.17,4.83-3.58,9.69-7.12,14.54-10.68,1.35-.99,2.15-4.13,1.45-5.59-.08-.17-.29-.31-.47-.41-2.06-1.12-4.12-2.23-6.43-3.48Zm-12.64,31.09c1.42-3.01,1-6.17-1.03-8.41-1.99-2.2-5.28-3.03-8-2.01-.45,.17-1.13,.25-.4,.99,3.12,3.09,6.21,6.21,9.42,9.44Zm104.12-.05c3.19-3.19,6.35-6.35,9.51-9.51,.65-.65-.12-.69-.43-.81-2.69-1.1-6.08-.26-8.11,2-2.02,2.24-2.44,5.56-.98,8.33Zm-62.93,2.24c2.05,0,4.1-.02,6.14,0,.76,0,.94-.21,.58-.91-1.4-2.71-3.59-4.2-6.66-4.26-2.91-.06-5.69,1.76-6.79,4.28-.32,.73-.15,.9,.59,.89,2.05-.03,4.1,0,6.14,0Zm21.66,0c2.05,0,4.1-.03,6.14,.01,.84,.02,1-.23,.61-.96-1.43-2.69-3.63-4.21-6.7-4.21-3.07,0-5.27,1.51-6.7,4.21-.41,.78-.16,.97,.63,.96,2-.03,4.01,0,6.01,0Zm-9.14-90.14c2.5-1.31,3.69-3.13,3.79-5.55,.09-2.34-.96-4.19-2.92-5.5-.56-.37-.89-.47-.88,.44,.03,3.44,.01,6.87,.01,10.61Zm-3.93-11.38c-2.18,.73-3.65,2.81-3.77,5.06-.12,2.43,1.21,4.99,3.04,5.84,.44,.2,.73,.25,.73-.4-.01-3.48,0-6.95,0-10.51Z"/><path class="cls-5" d="M66.48,108.74c-3.23,.02-6.46,.02-9.69,.07-.71,.01-.9-.25-.88-.91,.04-1.13,.02-2.27,0-3.41-.02-1.73-.35-2.18-2.02-2.73,0-1.29,0-2.59,0-3.88,1.58-.4,2.01-.92,2.02-2.55,.02-1.66-.01-3.32,.01-4.98,.05-3.36,1.59-5.89,4.55-7.39,2.96-1.5,5.9-1.23,8.65,.68,1.42,.98,2.17,.92,3.43-.33,5.9-5.89,11.8-11.78,17.67-17.69,.69-.7,1.11-.92,1.47,.19-1.25,2.3-3.27,3.91-5.07,5.73-4.54,4.58-9.12,9.11-13.66,13.7-.94,.95-1.81,1.99-2.63,3.06-2.88,3.76-3.75,8.14-3.84,12.74-.05,2.57-.02,5.14-.02,7.71Z"/><path class="cls-7" d="M125.94,62.98c.09-3.54,.94-6.92,3.49-9.65,3.48-3.73,8.58-3.58,11.9,.29,4.21,4.91,4.26,13.87,.12,18.85-3.42,4.1-8.75,4.2-12.25,.18-2.38-2.73-3.19-6.03-3.25-9.67Zm14.59,.13c-.09-2.54-.58-4.78-2.08-6.67-1.96-2.47-4.54-2.44-6.48,.04-2.72,3.48-2.73,9.77,0,13.27,1.93,2.48,4.53,2.52,6.48,.06,1.59-2.01,2.05-4.39,2.09-6.69Z"/><path class="cls-7" d="M73.58,63.11c-.04,3.17-.74,6.14-2.61,8.75-3.51,4.92-9.6,4.99-13.23,.17-3.65-4.84-3.65-12.96-.01-17.82,3.62-4.83,9.7-4.77,13.23,.14,1.87,2.61,2.58,5.58,2.62,8.75Zm-3.96-.04c-.12-2.49-.61-4.85-2.27-6.82-1.82-2.16-4.18-2.18-6.06-.07-3.04,3.41-3.04,10.47-.02,13.87,1.91,2.15,4.32,2.11,6.14-.13,1.62-1.99,2.1-4.36,2.2-6.85Z"/><path class="cls-6" d="M145.63,101.76c-1.66,.54-2.01,1-2.03,2.72,0,1.13-.03,2.27,0,3.4,.02,.66-.18,.94-.89,.91-1.66-.06-3.31-.05-4.97-.07-.13-6.56,.33-13.13-.26-19.69-.25-2.84-1.64-5.06-3.86-6.8,5.19-.98,9.76,2.62,9.94,7.86,.06,1.74,0,3.49,.03,5.23,.02,1.62,.46,2.15,2.03,2.55,0,1.29,0,2.59,0,3.88Z"/><path class="cls-7" d="M84.49,50.65c-.67,.02-1.21-.15-1.52-.57-.78-1.07-1.35-.81-2.18,.02-1.06,1.05-2.67,.57-3.17-.79-.35-.96,.03-1.72,.74-2.31,.64-.53,.64-.91,.02-1.51-1.11-1.07-1.17-2.2-.29-3.07,.88-.88,2.01-.83,3.08,.3,.61,.65,.94,.56,1.51-.03,1.07-1.11,2.2-1.15,3.07-.24,.84,.88,.84,2-.26,2.97-.85,.75-.52,1.14,.1,1.7,.71,.64,.95,1.45,.53,2.36-.34,.74-.96,1.09-1.63,1.16Z"/><path class="cls-7" d="M110.5,31.9c.52-.49,.84-.85,1.21-1.15,.9-.73,1.93-.7,2.71,.06,.75,.74,.88,1.92,.07,2.69-.86,.82-1.01,1.36-.03,2.22,.83,.73,.72,1.96,.01,2.7-.76,.8-1.96,.91-2.79,.04-.78-.82-1.27-.95-2.09-.03-.82,.91-2,.82-2.79,.03-.76-.76-.83-2.01,.05-2.8,.84-.76,.89-1.23,.02-2.01-.89-.8-.83-2.03-.07-2.8,.79-.81,1.88-.84,2.81-.03,.32,.28,.56,.67,.91,1.09Z"/><path class="cls-3" d="M133.63,82.24c2.22,1.74,3.61,3.95,3.86,6.8,.58,6.56,.12,13.13,.26,19.69-3.31,.02-6.62,.01-9.93,.08-1.02,.02-.84-.61-.84-1.2,0-4.97-.03-9.94,.02-14.91,.01-1.27-.37-2.22-1.28-3.12-6.75-6.69-13.45-13.43-20.18-20.14-.34-.34-.75-.61-1.21-.98,.62-.44,1.03-.74,1.45-1.03,2.92,2.6,5.56,5.49,8.35,8.22,2.64,2.58,5.81,4,9.46,4.38,1.15,1.12,2.29,2.23,3.44,3.35,1.19,1.16,1.96,1.24,3.31,.31,1.01-.7,2.06-1.27,3.3-1.43Z"/><path class="cls-4" d="M112.06,136.5c0-2.88,.02-5.76-.01-8.63,0-.91,.35-1.56,1-2.16,4.42-4.09,8.82-8.19,13.22-12.31,.48-.45,.95-.65,1.62-.65,4.89,.03,9.77,.04,14.66,0,.96,0,1.14,.23,.75,1.1-.69,1.53-1.77,2.66-3.24,3.46-6.44,3.47-12.87,6.97-19.33,10.41-1.11,.59-1.59,1.35-1.75,2.64-.74,5.62-1.63,11.21-2.44,16.82-.11,.76-.38,.73-.92,.43-.88-.49-1.85-.89-2.83-.95-1.14-.06-1.19-.63-1.17-1.52,.05-2.88,.02-5.76,.02-8.63,.14,0,.28,0,.43,0Z"/><path class="cls-4" d="M87.9,136.6c0,2.92-.03,5.85,.02,8.77,.01,.8-.15,1.17-1.04,1.24-.99,.08-1.97,.43-2.84,.92-.63,.36-.91,.29-1.02-.47-.83-5.7-1.71-11.38-2.5-17.09-.15-1.09-.68-1.71-1.59-2.2-6.42-3.44-12.82-6.91-19.24-10.35-1.64-.88-2.88-2.08-3.54-3.86-.24-.65-.1-.84,.59-.83,5.02,.02,10.04,.02,15.07,0,.49,0,.81,.22,1.14,.52,4.56,4.2,9.12,8.4,13.69,12.59,.59,.54,.84,1.17,.83,1.97-.02,2.92,0,5.85,0,8.77,.14,0,.29,0,.43,0Z"/><path class="cls-1" d="M66.48,108.74c0-2.57-.03-5.14,.02-7.71,.09-4.6,.96-8.98,3.84-12.74,.82-1.07,1.69-2.11,2.63-3.06,4.54-4.58,9.12-9.11,13.66-13.7,1.79-1.81,3.82-3.42,5.07-5.73,.95,.96,1.87,1.94,3.15,2.69-.36,.39-.67,.74-.99,1.06-6.67,6.67-13.33,13.35-20.02,20-.9,.9-1.33,1.83-1.31,3.11,.06,4.98,0,9.96,.05,14.94,.01,1.01-.29,1.27-1.25,1.21-1.61-.09-3.23-.05-4.84-.07Z"/><path class="cls-6" d="M139.05,122.4c.04,1.22-.32,2.22-.59,3.2-.35,1.32,.09,2.15,1.13,2.9,4.51,3.28,9,6.59,13.5,9.88q1.16,.85-.13,1.54c-1.25,.66-2.35,1.51-3.24,2.6-.39,.47-.68,.51-1.17,.15-5.08-3.75-10.18-7.48-15.27-11.23-.93-.68-1.01-1.71-1.13-2.79-.21-1.89,.36-3.07,2.22-3.79,1.6-.62,3.06-1.59,4.69-2.46Z"/><path class="cls-6" d="M60.35,122.32c2.31,1.25,4.37,2.36,6.43,3.48,.18,.1,.39,.24,.47,.41,.71,1.46-.1,4.6-1.45,5.59-4.84,3.56-9.71,7.1-14.54,10.68-.7,.52-1.08,.55-1.67-.17-1.09-1.33-2.55-2.22-4.1-2.92,.02-.52,.46-.64,.76-.86,4.52-3.34,9.04-6.68,13.6-9.97,1.14-.83,1.59-1.74,1.16-3.12-.29-.93-.41-1.91-.66-3.12Z"/><path class="cls-6" d="M123.59,80.02c-3.66-.38-6.82-1.81-9.46-4.38-2.8-2.73-5.43-5.61-8.35-8.22,.79-.92,1.67-1.76,2.2-2.86,.15,.05,.26,.05,.31,.1,5.1,5.12,10.2,10.24,15.31,15.36Z"/><path class="cls-7" d="M101.83,90.98c-.26-.11-.74-.15-.96-.41-.89-1.08-1.59-1.16-2.62-.05-.79,.85-2.23,.47-2.8-.53-.56-.97-.38-1.89,.46-2.59,.74-.62,.78-1.02,.03-1.71-1.05-.96-1.04-2.15-.18-2.99,.83-.81,2-.84,2.89,.15,.78,.86,1.2,.68,1.89-.07,.85-.91,1.99-.88,2.8-.11,.81,.76,.94,2,.04,2.78-1.03,.89-.78,1.43,.06,2.2,.62,.57,.7,1.37,.3,2.17-.37,.75-1.01,1.04-1.91,1.15Z"/></g></g></g></svg>