<?xml version="1.0" encoding="UTF-8"?><svg id="Layer_2" xmlns="http://www.w3.org/2000/svg" viewBox="0 0 200 200"><defs><style>.cls-1{fill:#e9f6f6;}.cls-2{fill:#fff;}.cls-3{fill:#b6e5f5;}.cls-4{fill:#add;}.cls-5{fill:#06ffd5;}.cls-6{fill:#1a2959;}</style></defs><g id="Layer_1-2"><circle class="cls-1" cx="100" cy="100" r="100"/><g><path class="cls-6" d="M82.51,107.78c0-4.51,.04-8.63-.03-12.76-.02-1.07,.21-1.44,1.33-1.35,1.39,.11,2.79,0,4.18,.04,.62,.02,.82-.15,.81-.79-.04-2.36,.05-4.72-.05-7.07-.12-2.59-1.39-4.63-3.35-6.27-4.67-3.93-7.57-8.88-8.77-14.89-2.76-13.76,7.51-27.88,21.49-29.45,13.69-1.53,25.67,7.23,27.94,20.79,1.53,9.16-1.4,17-8.37,23.14-2.62,2.31-4.01,4.94-3.82,8.44,.1,1.74,.05,3.49,0,5.24-.02,.68,.17,.9,.87,.87,1.48-.05,2.97,.04,4.44-.04,.81-.04,1.01,.2,1,1.01-.04,4.23-.02,8.47,.16,12.76,.46-1.37,.93-2.73,1.38-4.1,.98-2.93,1.96-5.86,2.9-8.8,.2-.63,.48-.86,1.18-.86,13.16,.02,26.32,.02,39.49,.03,.37,0,.93-.23,.9,.53-.13,4.44,.37,8.91-.43,13.33-1.68,9.3-6.81,16.09-15.18,20.35-1.73,.88-.91,2.17-1.12,3.32-.19,1.08,.8,.98,1.36,1.2,9.03,3.5,15.24,12.37,15.36,22.05,.04,3.19-.01,6.38,.03,9.56,.01,.75-.22,.97-.95,.92-.91-.06-1.83-.01-2.74-.01-41.53,0-83.07,0-124.6,.03-1.19,0-1.51-.29-1.46-1.48,.18-3.92-.32-7.87,.28-11.77,1.44-9.24,6.53-15.65,15.13-19.29,.56-.24,1.54-.15,1.34-1.22-.21-1.15,.59-2.42-1.13-3.32-10.25-5.38-15.43-13.96-15.6-25.56-.04-2.58,.02-5.15-.02-7.73-.01-.73,.18-.97,.93-.94,1.39,.06,2.79-.05,4.18,.04,.98,.07,1.21-.22,1.21-1.2-.04-9.82,.11-19.65-.09-29.47-.08-3.79,.68-7.13,2.48-10.44,2.59-4.73,4.83-9.65,7.29-14.45,1.93-3.77,6.83-4.25,9.3-.96,.31,.41,.56,.88,.79,1.35,3.04,6.07,6.06,12.15,9.11,18.22,.31,.61,.4,1.22,.4,1.88,0,11.27,0,22.53-.03,33.8,0,.99,.19,1.38,1.25,1.29,1.17-.1,2.36,.04,3.53-.05,.77-.06,1.04,.26,1.26,.93,1.31,4.06,2.67,8.1,4.01,12.15,.08,.23,.19,.45,.43,1.02Zm-2.09-47.58c-.05,1.25,.13,2.64,.4,4.01,.96,4.89,3.42,8.9,7.21,12.11,2.08,1.76,3.58,3.89,4.42,6.5,.26,.81-.03,2.01,.71,2.39,.73,.37,1.79,.04,2.7,.13,.93,.09,1.15-.22,1.08-1.14-.41-5.62-.77-11.23-1.09-16.85-.05-.79-.36-.91-1.04-.9-1.34,.03-2.7,.12-4-.38-2.89-1.09-4.63-4.18-3.99-7.13,.72-3.26,3.54-5.31,6.94-5.04,3.08,.25,5.54,2.79,5.75,5.95,.16,2.42,.17,2.31,1.94,2.46,1.35,.11,1.8-.37,1.69-1.63-.03-.35,.01-.7,.04-1.05,.29-3.21,2.97-5.69,6.22-5.74,3.37-.05,6.14,2.28,6.54,5.53,.4,3.18-1.71,6.12-4.92,6.89-.99,.24-2,.18-2.99,.13-.88-.04-1.2,.19-1.22,1.13-.06,2.14-.26,4.27-.4,6.4-.22,3.48-.45,6.97-.65,10.45-.02,.32-.31,.87,.37,.89,1.09,.03,2.18,.01,3.27,0,.45,0,.42-.39,.46-.67,.49-3.73,2.6-6.4,5.32-8.84,5.47-4.91,7.79-11.12,6.85-18.44-1.4-10.92-11.04-18.79-22.1-18.12-10.77,.65-19.48,9.95-19.51,20.96Zm20.92,37.7c-4.53,0-9.06,.02-13.59-.02-.84,0-1.08,.2-1.08,1.07,.04,6.59,0,13.18,.03,19.77,.02,4.8,3.64,8.45,8.42,8.5,4.14,.04,8.28,.04,12.41,0,4.78-.04,8.41-3.69,8.43-8.49,.03-6.59,0-13.18,.03-19.77,0-.85-.21-1.09-1.07-1.08-4.53,.04-9.06,.02-13.59,.02Zm23.07,62.74c.19,.07,.27,.13,.36,.13,7.97,0,15.95,0,23.92,.03,.82,0,.77-.41,.77-.96-.01-2.79,0-5.59,0-8.38,0-3.35,0-3.32,3.3-3.27,.79,.01,.9,.29,.9,.98-.03,3.54,0,7.07-.03,10.61,0,.77,.13,1.06,.98,1.03,2.18-.07,4.36-.05,6.54,0,.66,.01,.91-.14,.89-.86-.06-1.92,.01-3.84-.04-5.76-.23-8.12-5.8-15.57-13.52-18.13-.55-.18-1.05-.28-1.63-.03-2.55,1.11-5.18,2.05-7.66,3.29-8.8,4.4-13.57,11.63-14.75,21.33Zm-58.64-25c0-1.85-.05-3.55,.02-5.25,.03-.86-.21-1.1-1.07-1.08-1.02,.02-2.42,.51-2.97-.21-.51-.67-.1-2.01-.18-3.05-.06-.77,.24-.94,.96-.92,2.18,.04,4.35,.04,6.53,0,2.89-.04,5.01-2.17,5.07-5.05,.03-1.44,.15-2.9-.03-4.31-.23-1.84,.41-2.81,2.13-3.51,1.93-.78,2.47-2.3,1.82-4.3-1-3.1-2.08-6.18-3.07-9.29-.2-.63-.49-.79-1.11-.79-5.18,.02-10.36,.04-15.54-.01-.89,0-.96,.35-.95,1.06,.03,2.57,.01,5.15,.01,7.72,0,1.69,0,1.71-1.69,1.71-1.05,0-1.91,.3-2.31,1.34-.4,1.02-.22,1.96,.59,2.75,.9,.89,1.75,1.83,2.69,2.67,.57,.52,.75,1.07,.75,1.82-.03,4.71-.02,9.42-.02,14.13,0,.55-.09,1.05,.65,1.35,2.54,1,5.04,2.09,7.71,3.21Zm71.13,0c2.52-1.06,4.86-2.09,7.24-3.02,.85-.33,1.18-.73,1.16-1.68-.07-3.45,.2-6.91-.09-10.33-.29-3.36,.47-6.03,3.3-7.98,.21-.14,.39-.36,.53-.58,.6-.93,.61-1.9,0-2.82-.52-.77-1.34-.99-2.2-.85-1.36,.22-1.64-.33-1.59-1.61,.11-2.61,0-5.23,.05-7.85,.01-.73-.08-1.07-.96-1.06-5.18,.05-10.36,.03-15.54,.02-.52,0-.87,.05-1.07,.66-1.04,3.27-2.18,6.52-3.21,9.79-.48,1.5,.12,2.88,1.47,3.7,.56,.34,1.14,.65,1.74,.88,.67,.26,.86,.68,.84,1.4-.06,1.83-.03,3.66-.02,5.5,.03,3.19,2.14,5.29,5.34,5.31,2.13,.01,4.27,0,6.4,0,.36,0,.83-.14,.81,.51-.03,1.17,.31,2.54-.18,3.45-.36,.67-1.85,.14-2.83,.22-.13,.01-.26,.02-.39,0-.64-.1-.81,.18-.8,.8,.04,1.79,.01,3.58,.01,5.51Zm-45.14,20.92c-1.28-5.74-2.52-11.22-3.71-16.71-.15-.69-.29-.88-.99-.57-3.51,1.54-6.41,3.83-8.72,6.88-.35,.47-.31,.81-.04,1.28,2.24,3.81,3.62,7.91,4,12.32,.06,.72,.27,1.03,1.1,1.02,11.93-.03,23.87-.03,35.8,0,.9,0,1.09-.36,1.16-1.11,.39-4.37,1.76-8.42,3.98-12.19,.3-.52,.33-.89-.05-1.4-2.29-3.01-5.14-5.29-8.61-6.82-.76-.33-.98-.15-1.07,.62-.09,.73-.31,1.45-.48,2.17-1.06,4.75-2.11,9.49-3.21,14.42-.43-.39-.75-.67-1.05-.96-2.5-2.5-5.04-4.95-7.46-7.52-.9-.96-1.36-.84-2.2,.04-2.71,2.83-5.51,5.56-8.46,8.52Zm-20.13-11.2c-.86,1.71-1.7,3.19-2.35,4.75-.42,.99-.8,.93-1.6,.44-3.74-2.3-7.52-4.56-11.3-6.8-.58-.34-.89-.76-1.04-1.4-.4-1.7-.91-3.37-1.23-5.08-.2-1.05-.59-1.01-1.4-.65-5.09,2.3-8.65,6.04-10.73,11.23-1.6,3.97-1.29,8.14-1.32,12.27,0,.67,.36,.65,.83,.65,2.13,0,4.27-.05,6.4,.02,.89,.03,1.19-.18,1.17-1.13-.07-2.79-.02-5.59-.02-8.38,0-3.17,0-3.13,3.22-3.11,.85,0,.99,.29,.98,1.05-.04,3.54,0,7.07-.02,10.61,0,.57-.01,.97,.79,.96,7.8-.03,15.6-.02,23.4,0,.61,0,.83-.12,.75-.8-.61-5.5-2.77-10.29-6.52-14.61Zm10.75-34.24c-.52,1.36-1.06,2.81-2.29,3.53-1.73,1.01-1.99,2.4-1.77,4.13,.04,.3,0,.61,0,.92-.03,4.91-2.8,8.37-7.56,9.39-.65,.14-.83,.38-.82,1.03,.04,2.49,.01,4.97,.02,7.46,0,.3-.07,.63,.22,.84,1.88,1.38,3.53,3.02,5.14,4.75,1.78-2.22,3.75-4.05,6.02-5.56,2.86-1.89,5.98-3.18,9.35-3.8,1.39-.26,1.09-1.54,1.4-2.36,.29-.76-.7-.58-1.09-.73-4.55-1.75-7.41-4.95-8.27-9.77-.58-3.24-.07-6.53-.36-9.82Zm37.78,.01c0,2.59,.03,5.18,0,7.76-.07,5.41-3.43,10.02-8.53,11.83-.38,.13-1.35-.05-1.04,.76,.31,.8,.05,2.05,1.32,2.29,6.29,1.18,11.41,4.33,15.47,9.37,1.55-1.71,3.15-3.3,4.99-4.63,.45-.33,.35-.76,.35-1.18,0-2.36-.04-4.72,.03-7.07,.02-.85-.29-1.06-1.06-1.23-3.8-.84-6.16-3.21-7.1-7-.43-1.72-.17-3.48-.27-5.22-.02-.42,.09-.87-.41-1.15-1.82-1.02-2.93-2.62-3.75-4.55ZM46.95,76.93c0,5.23,.02,10.47-.02,15.7,0,.85,.2,1.11,1.07,1.08,2.13-.06,4.27-.05,6.4,0,.75,.02,.93-.22,.93-.95-.02-10.56-.02-21.11,0-31.67,0-.73-.19-.97-.93-.95-2.13,.05-4.27,.06-6.4,0-.87-.03-1.07,.25-1.07,1.09,.04,5.23,.02,10.47,.02,15.7Zm12.55,.02c0,5.19,.03,10.38-.03,15.57-.01,1,.26,1.25,1.22,1.21,2.04-.08,4.09-.05,6.13,0,.74,.02,1.06-.1,1.05-.97-.03-10.55-.03-21.1,0-31.65,0-.76-.22-.95-.95-.94-2.13,.05-4.27,.06-6.4,0-.91-.03-1.05,.3-1.05,1.11,.03,5.23,.02,10.46,.02,15.7Zm89.96,46.84c4.63-2.59,7.92-6.06,10.18-10.55,2.34-4.65,2.5-9.64,2.39-14.69-.02-.8-.49-.65-.95-.65-3.57,0-7.15,.02-10.72-.02-.77,0-.94,.26-.92,.97,.05,1.61,.03,3.23,0,4.85-.01,.58,.15,.9,.71,1.2,3.96,2.16,4.71,7.13,1.6,10.43-.6,.63-1.21,1.25-1.84,1.86-.3,.29-.48,.57-.47,1.01,.02,1.78,0,3.56,0,5.6Zm-108.81-22.32c-.11,8.94,3.27,16.08,10.7,21.18,.53,.36,1.16,1.05,1.67,.78,.54-.29,.12-1.19,.21-1.82,.35-2.61-.35-4.64-2.42-6.53-2.73-2.5-2.56-7.13,.46-9.21,2.01-1.38,2.04-2.89,1.96-4.79-.03-.61-.07-1.23,0-1.83,.13-1.06-.2-1.43-1.33-1.4-2.56,.09-5.13,.01-7.7,.03-1.12,.01-2.58-.48-3.28,.19-.77,.74-.13,2.23-.28,3.37Zm25.87-45.53c-.17-.37-.26-.6-.38-.83-2.43-4.87-4.85-9.73-7.28-14.6-.32-.64-.66-1.27-1.5-1.25-.84,.02-1.14,.69-1.45,1.32-2.4,4.83-4.81,9.66-7.21,14.49-.13,.26-.35,.51-.24,.87h18.06Zm34.81,75.47c-.65,0-1.3,0-1.95,0-2.88,0-2.86,0-3.74,2.73-.19,.59-.18,1.01,.31,1.49,1.63,1.57,3.22,3.17,4.78,4.8,.49,.51,.77,.47,1.24-.02,1.1-1.17,2.15-2.44,3.42-3.39,1.82-1.36,2.01-2.84,1.04-4.76-.29-.58-.49-.9-1.19-.87-1.3,.05-2.6,.02-3.91,.02Zm.14-41.9h-5.48c-3.07,0-3.04,0-3.05,3.14,0,.86,.24,1.08,1.09,1.07,4.17-.04,8.34-.02,12.52-.02,3.26,0,3.23,0,3.17-3.27-.01-.75-.22-.95-.95-.94-2.43,.04-4.87,.02-7.3,.02Zm-42.93,47.68c.05,2.36,.97,3.91,3.06,4.82,1.27,.55,2.4,1.41,3.59,2.12,1.82,1.09,1.77,1.07,2.78-.8,.44-.81,.24-1.16-.44-1.65-2.74-1.99-5.84-3.22-8.99-4.48Zm42.58-53.03c.51-.13,.46-.5,.48-.85,.34-5.05,.69-10.1,1.02-15.16,.11-1.73,.08-1.68-1.65-1.72-.83-.02-1.02,.21-.96,1.02,.4,5.56,.75,11.13,1.12,16.7Zm-6.91,64.22c1.31-1.39,2.34-2.55,3.45-3.63,.56-.54,.64-.87,.03-1.44-1.27-1.18-2.45-2.47-3.7-3.68-.61-.59-1.09-1.33-2.11-1.8,.77,3.48,1.49,6.77,2.33,10.56Zm14.25-.04c.82-3.72,1.55-7.02,2.28-10.32-2.2,1.78-4.13,3.7-6.06,5.62-.37,.36-.16,.59,.11,.86,1.14,1.19,2.28,2.38,3.68,3.84Zm-14.64-86.08q1.63,0,1.53-1.62c-.02-.26,0-.52-.05-.78-.21-1.19-1.22-1.91-2.46-1.78-1.16,.12-2.01,1.07-1.95,2.19,.06,1.12,.91,1.91,2.16,1.99,.26,.02,.52,0,.78,0Zm14.83,0c2.16,0,3.18-.72,3.14-2.14-.03-1.17-.98-2.05-2.23-2.05-1.62,0-2.28,1.03-2.3,3.49-.01,1.36,1.04,.36,1.39,.7Z"/><path class="cls-6" d="M141.09,67.92c-1-3.55,.79-5.71,3.58-7.49,1.39-.88,2.61-2.03,3.89-3.08,2.69-2.22,3.65-5.52,2.54-8.69-1.12-3.21-3.98-5.22-7.49-5.26-5.24-.06-8.19,2.53-8.77,7.76-.06,.53-.22,.66-.69,.64-.65-.03-1.31,0-1.96,0q-1.69,0-1.51-1.72c.63-6.13,5.69-10.76,11.88-10.86,6.47-.11,11.3,3.23,12.76,8.99,1.16,4.57-.02,8.57-3.45,11.79-1.84,1.73-3.88,3.24-5.87,4.8-.53,.42-.76,.84-.74,1.52,.05,1.83-.01,3.67,.03,5.5,.02,.7-.12,.96-.9,.97-3.3,.04-3.3,.07-3.3-3.27v-1.57Z"/><path class="cls-6" d="M149.46,83.27c-.02,3.42-2.84,6.23-6.26,6.24-3.47,0-6.31-2.86-6.29-6.34,.02-3.47,2.91-6.29,6.39-6.23,3.41,.05,6.18,2.9,6.16,6.34Zm-4.19,0c.03-1.13-.9-2.1-2.04-2.13-1.13-.02-2.1,.91-2.12,2.04-.03,1.13,.9,2.1,2.04,2.13,1.13,.03,2.1-.91,2.12-2.04Z"/><path class="cls-1" d="M80.43,60.2c.02-11.01,8.74-20.31,19.51-20.96,11.06-.67,20.7,7.2,22.1,18.12,.94,7.33-1.39,13.54-6.85,18.44-2.72,2.44-4.83,5.11-5.32,8.84-.04,.27,0,.66-.46,.67-1.09,0-2.18,.02-3.27,0-.68-.02-.39-.57-.37-.89,.2-3.49,.43-6.97,.65-10.45,.14-2.13,.34-4.27,.4-6.4,.03-.94,.34-1.17,1.22-1.13,.99,.05,2,.11,2.99-.13,3.21-.77,5.32-3.71,4.92-6.89-.41-3.25-3.17-5.59-6.54-5.53-3.25,.05-5.93,2.53-6.22,5.74-.03,.35-.07,.7-.04,1.05,.11,1.26-.34,1.74-1.69,1.63-1.77-.14-1.78-.03-1.94-2.46-.21-3.16-2.67-5.7-5.75-5.95-3.4-.27-6.22,1.78-6.94,5.04-.65,2.95,1.09,6.04,3.99,7.13,1.31,.49,2.66,.4,4,.38,.67-.01,.99,.1,1.04,.9,.33,5.62,.69,11.24,1.09,16.85,.07,.93-.15,1.24-1.08,1.14-.91-.09-1.97,.24-2.7-.13-.74-.37-.44-1.57-.71-2.39-.84-2.61-2.34-4.75-4.42-6.5-3.79-3.2-6.25-7.21-7.21-12.11-.27-1.37-.45-2.76-.4-4.01Z"/><path class="cls-2" d="M101.35,97.9c4.53,0,9.06,.02,13.59-.02,.86,0,1.07,.23,1.07,1.08-.04,6.59,0,13.18-.03,19.77-.02,4.8-3.65,8.45-8.43,8.49-4.14,.04-8.28,.04-12.41,0-4.78-.04-8.4-3.7-8.42-8.5-.03-6.59,0-13.18-.03-19.77,0-.87,.24-1.08,1.08-1.07,4.53,.04,9.06,.02,13.59,.02Zm-1.51,20.96h0c1.26,0,2.52,.03,3.78-.01,3.02-.09,5.57-2.39,6.04-5.34,.12-.77-.09-1-.85-.95-.82,.06-1.65,.03-2.48,0-.47-.02-.76,.04-.93,.6-.33,1.11-1.18,1.53-2.31,1.51-1.61-.02-3.22,0-4.83,0-3.44,0-3.42,0-3.22,3.47,.03,.57,.18,.75,.75,.73,1.35-.04,2.7-.01,4.04-.01Z"/><path class="cls-2" d="M124.42,160.64c1.18-9.71,5.96-16.93,14.75-21.33,2.48-1.24,5.12-2.18,7.66-3.29,.58-.25,1.08-.16,1.63,.03,7.72,2.56,13.29,10.01,13.52,18.13,.06,1.92-.01,3.84,.04,5.76,.02,.72-.23,.87-.89,.86-2.18-.04-4.36-.06-6.54,0-.85,.03-.99-.27-.98-1.03,.04-3.54,0-7.07,.03-10.61,0-.69-.1-.97-.9-.98-3.3-.05-3.3-.08-3.3,3.27,0,2.79,0,5.59,0,8.38,0,.56,.05,.97-.77,.96-7.97-.03-15.95-.02-23.92-.03-.08,0-.16-.06-.36-.13Z"/><path class="cls-2" d="M65.78,135.64c-2.67-1.12-5.18-2.21-7.71-3.21-.74-.29-.65-.8-.65-1.35,0-4.71-.02-9.42,.02-14.13,0-.75-.18-1.31-.75-1.82-.94-.85-1.79-1.78-2.69-2.67-.81-.79-.98-1.73-.59-2.75,.4-1.04,1.26-1.34,2.31-1.34,1.69,0,1.69-.02,1.69-1.71,0-2.57,.02-5.15-.01-7.72,0-.72,.06-1.07,.95-1.06,5.18,.05,10.36,.03,15.54,.01,.61,0,.91,.16,1.11,.79,.99,3.11,2.07,6.19,3.07,9.29,.64,1.99,.11,3.52-1.82,4.3-1.72,.7-2.36,1.67-2.13,3.51,.18,1.42,.06,2.88,.03,4.31-.06,2.88-2.19,5.01-5.07,5.05-2.18,.03-4.35,.03-6.53,0-.71-.01-1.01,.15-.96,.92,.08,1.04-.33,2.38,.18,3.05,.55,.72,1.95,.23,2.97,.21,.86-.02,1.11,.23,1.07,1.08-.07,1.7-.02,3.4-.02,5.25Z"/><path class="cls-4" d="M136.91,135.65c0-1.93,.02-3.72-.01-5.51-.01-.62,.16-.9,.8-.8,.13,.02,.26,.01,.39,0,.98-.08,2.47,.45,2.83-.22,.49-.91,.15-2.28,.18-3.45,.02-.65-.45-.51-.81-.51-2.13,0-4.27,0-6.4,0-3.21-.02-5.32-2.12-5.34-5.31-.01-1.83-.04-3.67,.02-5.5,.02-.71-.17-1.13-.84-1.4-.6-.24-1.18-.55-1.74-.88-1.35-.82-1.94-2.2-1.47-3.7,1.04-3.28,2.17-6.52,3.21-9.79,.2-.62,.55-.66,1.07-.66,5.18,0,10.36,.03,15.54-.02,.88,0,.97,.33,.96,1.06-.04,2.62,.06,5.24-.05,7.85-.05,1.28,.23,1.84,1.59,1.61,.85-.14,1.68,.08,2.2,.85,.62,.92,.61,1.88,0,2.82-.14,.22-.32,.43-.53,.58-2.83,1.95-3.59,4.62-3.3,7.98,.29,3.42,.02,6.89,.09,10.33,.02,.95-.31,1.35-1.16,1.68-2.38,.93-4.72,1.96-7.24,3.02Z"/><path class="cls-4" d="M91.77,156.57c2.95-2.96,5.76-5.69,8.46-8.52,.84-.88,1.3-1,2.2-.04,2.42,2.57,4.96,5.02,7.46,7.52,.3,.3,.62,.57,1.05,.96,1.1-4.92,2.15-9.67,3.21-14.42,.16-.72,.39-1.44,.48-2.17,.09-.77,.31-.95,1.07-.62,3.47,1.52,6.32,3.8,8.61,6.82,.39,.51,.36,.88,.05,1.4-2.22,3.77-3.58,7.82-3.98,12.19-.07,.75-.25,1.11-1.16,1.11-11.93-.04-23.87-.04-35.8,0-.83,0-1.04-.3-1.1-1.02-.39-4.41-1.77-8.51-4-12.32-.28-.47-.32-.82,.04-1.28,2.31-3.06,5.21-5.34,8.72-6.88,.69-.31,.84-.12,.99,.57,1.19,5.49,2.43,10.97,3.71,16.71Z"/><path class="cls-4" d="M71.63,145.37c3.75,4.32,5.91,9.12,6.52,14.61,.08,.68-.14,.8-.75,.8-7.8-.02-15.6-.02-23.4,0-.8,0-.79-.39-.79-.96,.01-3.54-.01-7.07,.02-10.61,0-.76-.13-1.04-.98-1.05-3.22-.02-3.22-.05-3.22,3.11,0,2.79-.04,5.59,.02,8.38,.02,.95-.28,1.16-1.17,1.13-2.13-.07-4.27-.03-6.4-.02-.46,0-.83,.02-.83-.65,.04-4.14-.27-8.3,1.32-12.27,2.08-5.19,5.64-8.93,10.73-11.23,.81-.36,1.2-.39,1.4,.65,.32,1.71,.83,3.38,1.23,5.08,.15,.63,.46,1.06,1.04,1.4,3.78,2.24,7.56,4.5,11.3,6.8,.8,.49,1.18,.56,1.6-.44,.66-1.56,1.5-3.04,2.35-4.75Z"/><path class="cls-1" d="M46.95,76.93c0-5.23,.02-10.47-.02-15.7,0-.84,.2-1.11,1.07-1.09,2.13,.07,4.27,.05,6.4,0,.75-.02,.94,.22,.93,.95-.02,10.56-.02,21.11,0,31.67,0,.73-.18,.97-.93,.95-2.13-.05-4.27-.06-6.4,0-.87,.03-1.08-.24-1.07-1.08,.04-5.23,.02-10.47,.02-15.7Z"/><path class="cls-4" d="M59.5,76.95c0-5.23,.02-10.46-.02-15.7,0-.81,.14-1.14,1.05-1.11,2.13,.07,4.26,.05,6.4,0,.73-.02,.96,.18,.95,.94-.02,10.55-.03,21.1,0,31.65,0,.87-.31,.99-1.05,.97-2.04-.04-4.09-.07-6.13,0-.97,.04-1.24-.21-1.22-1.21,.06-5.19,.03-10.38,.03-15.57Z"/><path class="cls-3" d="M149.46,123.79c0-2.04,.01-3.82,0-5.6,0-.44,.17-.73,.47-1.01,.63-.6,1.25-1.22,1.84-1.86,3.11-3.3,2.36-8.27-1.6-10.43-.56-.3-.72-.62-.71-1.2,.03-1.61,.04-3.23,0-4.85-.02-.71,.14-.98,.92-.97,3.57,.04,7.15,.02,10.72,.02,.46,0,.93-.15,.95,.65,.11,5.05-.06,10.03-2.39,14.69-2.26,4.5-5.55,7.96-10.18,10.55Z"/><path class="cls-3" d="M40.65,101.47c.15-1.14-.49-2.64,.28-3.37,.7-.67,2.16-.18,3.28-.19,2.57-.02,5.14,.05,7.7-.03,1.12-.04,1.46,.34,1.33,1.4-.08,.6-.04,1.22,0,1.83,.08,1.9,.05,3.41-1.96,4.79-3.02,2.07-3.19,6.71-.46,9.21,2.06,1.89,2.77,3.92,2.42,6.53-.09,.63,.33,1.53-.21,1.82-.51,.27-1.14-.42-1.67-.78-7.43-5.1-10.81-12.24-10.7-21.18Z"/><path class="cls-1" d="M66.52,55.94h-18.06c-.11-.37,.11-.61,.24-.87,2.4-4.83,4.81-9.66,7.21-14.49,.32-.63,.62-1.3,1.45-1.32,.84-.02,1.18,.61,1.5,1.25,2.42,4.87,4.85,9.73,7.28,14.6,.11,.23,.21,.46,.38,.83Z"/><path class="cls-2" d="M101.33,131.41c1.3,0,2.61,.04,3.91-.02,.69-.03,.89,.29,1.19,.87,.97,1.92,.79,3.4-1.04,4.76-1.27,.95-2.32,2.22-3.42,3.39-.46,.49-.75,.53-1.24,.02-1.56-1.63-3.16-3.24-4.78-4.8-.49-.47-.5-.9-.31-1.49,.87-2.73,.86-2.73,3.74-2.73,.65,0,1.3,0,1.95,0Z"/><path class="cls-1" d="M101.48,89.51c2.43,0,4.87,.03,7.3-.02,.73-.01,.94,.19,.95,.94,.05,3.27,.08,3.27-3.17,3.27-4.17,0-8.35-.02-12.52,.02-.84,0-1.09-.21-1.09-1.07,0-3.14-.03-3.14,3.05-3.14,1.83,0,3.65,0,5.48,0Z"/><path class="cls-5" d="M58.54,137.19c3.15,1.27,6.25,2.49,8.99,4.48,.67,.49,.88,.84,.44,1.65-1.02,1.87-.96,1.9-2.78,.8-1.19-.72-2.33-1.58-3.59-2.12-2.09-.9-3.01-2.46-3.06-4.82Z"/><path class="cls-1" d="M101.13,84.16c-.37-5.57-.72-11.14-1.12-16.7-.06-.81,.14-1.04,.96-1.02,1.74,.04,1.77-.01,1.65,1.72-.33,5.05-.68,10.1-1.02,15.16-.02,.35,.03,.72-.48,.85Z"/><path class="cls-5" d="M94.22,148.38c-.84-3.79-1.56-7.08-2.33-10.56,1.02,.48,1.5,1.22,2.11,1.8,1.25,1.21,2.43,2.5,3.7,3.68,.62,.57,.53,.9-.03,1.44-1.11,1.08-2.14,2.24-3.45,3.63Z"/><path class="cls-5" d="M108.47,148.34c-1.4-1.47-2.54-2.66-3.68-3.84-.26-.27-.47-.5-.11-.86,1.94-1.91,3.86-3.83,6.06-5.62-.73,3.3-1.46,6.6-2.28,10.32Z"/><path class="cls-1" d="M93.83,62.26c-.26,0-.52,.01-.78,0-1.24-.07-2.1-.87-2.16-1.99-.06-1.12,.79-2.07,1.95-2.19,1.25-.13,2.25,.59,2.46,1.78,.05,.25,.04,.52,.05,.78q.1,1.63-1.53,1.62Z"/><path class="cls-1" d="M108.65,62.26c-.35-.34-1.4,.66-1.39-.7,.02-2.47,.69-3.49,2.3-3.49,1.25,0,2.2,.87,2.23,2.05,.03,1.42-.99,2.14-3.14,2.14Z"/><path class="cls-6" d="M99.84,118.86c-1.35,0-2.7-.02-4.04,.01-.57,.02-.71-.16-.75-.73-.2-3.47-.22-3.47,3.22-3.47,1.61,0,3.22-.02,4.83,0,1.13,.02,1.98-.41,2.31-1.51,.17-.56,.46-.61,.93-.6,.83,.03,1.66,.05,2.48,0,.76-.05,.97,.18,.85,.95-.47,2.95-3.02,5.25-6.04,5.34-1.26,.04-2.52,0-3.78,0h0Z"/></g></g></svg>