<?xml version="1.0" encoding="UTF-8"?><svg id="Layer_2" xmlns="http://www.w3.org/2000/svg" viewBox="0 0 200 200"><defs><style>.cls-1{fill:#e9f6f6;}.cls-2{fill:#fff;}.cls-3{fill:#b6e5f5;}.cls-4{fill:#add;}.cls-5{fill:#06ffd5;}.cls-6{fill:#1a2959;}</style></defs><g id="Layer_1-2"><circle class="cls-1" cx="100" cy="100" r="100"/><g><path class="cls-6" d="M49.82,46.77h1.35c27.18,0,54.36,.01,81.54-.01,5.02,0,9.48,1.45,13.3,4.76,.26,.22,.59,.41,.91,.5,4.14,1.16,6.15,4.11,5.64,8.32-.03,.21-.06,.43-.12,.63-.53,1.85-.75,3.55-.02,5.57,1.01,2.79-1.62,5.82-4.68,5.99-.67,.04-1.35,0-2.12,0-.48,2.24-1.6,4.07-3.03,5.81-.52,.63-.18,1.97-.18,2.98,0,.08,.42,.2,.65,.25,1.67,.35,3.36,.66,5.03,1.05,4.76,1.1,7.93,5.08,7.94,10,.02,6.66,.01,13.32,0,19.97,0,4.54-3.76,7.27-8.09,5.93-.1-.03-.21-.04-.43-.08v21.1h-4.9c1.8,1.69,2.94,3.51,3.06,5.72,.15,2.63,.03,5.28,.03,7.98H49.86c-.03-.09-.11-.22-.11-.35,0-2.61-.11-5.23,.03-7.84,.18-3.49,1.99-6.01,5.17-7.41,1.29-.57,1.77-1.26,1.7-2.71-.14-3.07-.07-6.16-.03-9.23,.07-5.27,3.97-9.54,9.22-10.16,4.96-.59,9.76,2.77,11,7.76,.23,.93,.32,1.91,.33,2.86,.04,3.26,.03,6.51,0,9.77,0,.55,.09,.92,.66,1.17,1.85,.8,3.56,1.82,4.77,3.67,1.93-2.5,4.83-2.92,7.43-3.9-.62-1.77-1.33-3.45-1.78-5.2-.75-2.85-1.18-5.76-.37-8.69,1.32-4.78,6.08-8.02,10.92-7.45,5.17,.61,9.11,4.83,9.22,9.94,.08,3.49-.65,6.82-2.07,10-.19,.42-.36,.84-.57,1.34,2.8,1.06,5.85,1.53,7.8,4.29,1.93-2.73,4.95-3.24,7.81-4.25-.2-.48-.36-.9-.54-1.31-1.38-3.04-2.09-6.23-2.11-9.56-.01-3.62,1.48-6.5,4.42-8.6,.52-.37,.74-.73,.73-1.38-.04-3.29-.02-6.59-.02-9.88v-.91H49.82V46.77Zm73.61,48.63c-.71,.17-1.36,.31-2.01,.48-3.02,.84-6.04,1-9.08,.08-2.04-.62-3.92-1.57-5.51-2.99-4.06-3.61-8.1-7.24-12.11-10.91-1.96-1.8-2.61-4.1-1.83-6.65,.76-2.5,2.53-4.03,5.11-4.49,2.24-.4,4.22,.23,5.93,1.77,4.09,3.68,8.23,7.32,12.31,11.01,.55,.5,1,.55,1.7,.35,2.32-.68,4.67-1.27,7.02-1.86,1.17-.29,2.36-.5,3.76-.79-.14-1.1,.09-2.46-.48-3.16-1.38-1.71-2.46-3.48-2.94-5.7-.66,0-1.3,.02-1.94,0-3.91-.12-6.29-4.25-4.35-7.64,.35-.62,.32-1.06,.08-1.67-1.7-4.36-.66-9.07,2.69-12.34,.18-.18,.34-.38,.55-.62H53.24v51.41H123.43v-6.27Zm25.16-4.51c-1.1,1.79-1.12,1.86-1.12,3.98,0,3.04,0,6.08,0,9.12v1.11h5.13c0-4.38,.1-8.67-.04-12.96-.09-2.87-1.66-4.98-4.39-5.88-2.04-.68-4.22-.97-6.36-1.45-1.09,3.01-3.06,4.82-6.2,4.88-3.29,.06-5.36-1.77-6.47-4.8-4.14,.66-8.17,1.55-12.03,3.06-.65,.25-1.09,.16-1.61-.32-2.29-2.1-4.63-4.15-6.95-6.22-.31-.28-.63-.53-.83-.7-1.53,1.53-2.97,2.96-4.46,4.45,1.64,1.48,3.35,2.98,5.01,4.53,4.35,4.08,9.28,4.11,14.59,2.17-.19-.34-.35-.64-.38-.69,.8-.89,1.53-1.7,2.29-2.55,1.43,1.5,2.12,3.28,2.12,5.34,0,4.29,0,8.59,0,12.88,0,.56,0,1.12,0,1.72h17.15c0-.45,0-.84,0-1.23,0-4.51-.02-9.02,.01-13.52,.01-2.03,.73-3.79,2.13-5.19,.87,.82,1.65,1.55,2.41,2.27Zm-74.9,52.06c.02-.23,.05-.37,.05-.5,0-5.58,.01-11.16-.02-16.74,0-.67-.13-1.36-.33-2-.99-3.17-4.19-5.19-7.39-4.73-3.39,.49-5.93,3.28-5.95,6.68-.04,5.61-.01,11.23,0,16.84,0,.13,.04,.27,.07,.44h13.59Zm37.77,6.88c0-1.21,0-2.32,0-3.42-.02-2.46-1.37-4.24-3.65-5.13-3.26-1.27-6.58-2.04-10.11-1.74-1.38,.12-2.78,.01-4.18,.03-.35,0-.72,.04-1.05,.15-1.66,.53-3.33,1.06-4.97,1.65-1.9,.69-3.12,2.08-3.38,4.07-.18,1.43-.04,2.9-.04,4.39h27.38Zm30.83,.02c0-1.48,.1-2.88-.03-4.25-.13-1.49-.81-2.91-2.15-3.52-2.22-1.01-4.54-2.09-6.92-2.41-3.01-.41-6.13-.1-9.2-.09-.21,0-.42,.06-.62,.13-1.69,.56-3.39,1.1-5.07,1.7-1.45,.52-2.67,1.48-2.99,2.99-.38,1.77-.39,3.62-.57,5.47h27.55Zm-7.11-91.72c1.55,1.14,2.77,2.2,4.13,3.01,2.15,1.28,4.6,1.1,6.99,1.09,2.6,0,2.8-.2,2.87-2.87,0-.25,.01-.5,0-.75-.11-1.72-1.44-3.16-3.15-3.21-.8-.03-1.3-.35-1.84-.86-5.05-4.82-12.65-5.72-18.61-2.21-3.2,1.88-4.61,5.67-3.46,9.18,.19,.57,.42,.79,1.05,.75,1.32-.07,2.64-.02,3.96-.04,2.73-.03,5.09-.96,7.05-2.88,.41-.4,.73-.87,1.01-1.22Zm-37.47,77.99c1.14,0,2.29,.04,3.42-.03,.34-.02,.81-.28,.96-.57,1.63-3,2.5-6.22,2.5-9.64,0-3.85-3.04-6.92-6.82-6.94-3.84-.01-6.89,3.07-6.88,6.98,0,3.09,.77,5.99,2.05,8.8,.47,1.03,.99,1.61,2.21,1.43,.84-.12,1.71-.02,2.56-.02Zm30.87,0c1.14,0,2.29,.04,3.42-.03,.34-.02,.8-.29,.96-.58,1.61-2.97,2.48-6.15,2.5-9.54,.02-3.93-3-7.03-6.83-7.04-3.84-.01-6.89,3.07-6.88,6.99,0,3.12,.78,6.07,2.1,8.89,.44,.94,.91,1.49,2.06,1.33,.87-.12,1.78-.02,2.67-.02Zm-1.65-20.51c.25-.02,.39-.03,.53-.04,5.62-.51,10.41,3.11,11.26,8.68,.57,3.74-.33,7.31-1.72,10.77-.14,.34-.26,.69-.4,1.05h7.37v-23.92h-17.04v3.47Zm15.21-50.04c-2.28-.28-4.44-1.13-6.39-2.52-.16-.11-.57,.04-.82,.16-1.08,.53-2.12,1.18-3.23,1.63-.97,.39-2.03,.58-3.09,.87,0,1.81-.04,3.59,0,5.38,.1,3.45,2.84,6.29,6.29,6.59,3.38,.29,6.66-2.01,7.17-5.4,.32-2.15,.06-4.4,.06-6.71ZM56.61,140.67c-1.75,.73-2.95,1.83-3.2,3.52-.28,1.84-.22,3.74-.31,5.59h27.5c0-1.56,.04-3.02,0-4.49-.08-2.13-1.45-3.93-3.43-4.51v5.58h-20.55v-5.69Zm48.33-62.48c-1.22-1.08-2.4-2.19-3.64-3.21-1.32-1.08-3.25-.96-4.39,.2-1.06,1.08-1.26,2.79-.24,3.9,1.19,1.3,2.57,2.44,3.78,3.58,1.55-1.54,2.99-2.98,4.49-4.47Zm42.55,30.49c0,1.56-.07,3.06,.02,4.54,.08,1.31,1.26,2.28,2.54,2.27,1.24,0,2.41-.94,2.5-2.19,.11-1.52,.03-3.05,.03-4.62h-5.09Zm-15.36-28.11c-.31,1.49,.02,2.84,.67,4.09,1.07,2.07,3.98,2.2,5.19,.23,.79-1.29,1.13-2.72,.8-4.32-2.25,.75-4.46,.72-6.66,.01Zm-7-14.88c-1.13,.03-2.37-.41-3.03,.77-.27,.48-.26,1.38,.01,1.85,.68,1.17,1.91,.73,3.02,.76v-3.38Zm20.68,3.38c1.12-.03,2.36,.41,3.03-.77,.27-.48,.27-1.37,0-1.85-.68-1.17-1.91-.73-3.02-.76v3.38Z"/><path class="cls-2" d="M123.43,95.4v6.27H53.24V50.26H122.34c-.21,.24-.37,.44-.55,.62-3.35,3.27-4.39,7.98-2.69,12.34,.24,.61,.27,1.05-.08,1.67-1.94,3.39,.44,7.52,4.35,7.64,.64,.02,1.28,0,1.94,0,.48,2.22,1.56,3.99,2.94,5.7,.57,.71,.34,2.07,.48,3.16-1.4,.29-2.59,.49-3.76,.79-2.35,.59-4.69,1.19-7.02,1.86-.7,.2-1.14,.15-1.7-.35-4.09-3.69-8.22-7.33-12.31-11.01-1.71-1.54-3.69-2.17-5.93-1.77-2.58,.46-4.35,1.99-5.11,4.49-.78,2.55-.14,4.85,1.83,6.65,4,3.67,8.05,7.3,12.11,10.91,1.59,1.42,3.47,2.37,5.51,2.99,3.04,.92,6.06,.76,9.08-.08,.64-.18,1.3-.32,2.01-.48Zm-66.78-21.22h30.76v-3.37h-3.42v-6.81h-3.41v6.74h-3.44v-13.59h-3.44v13.62h-3.41v-10.17h-3.44v10.15h-3.44v-6.74h-3.41v6.83h-3.34v3.34Zm23.9,3.59h-17.01v3.31h17.01v-3.31Zm-17.05,20.47h15.3v-3.31h-15.3v3.31Zm-3.53-20.48h-3.3v3.29h3.3v-3.29Zm27.44,0h-3.31v3.3h3.31v-3.3Zm-30.76,20.49h3.3v-3.31h-3.3v3.31Z"/><path class="cls-5" d="M148.59,90.89c-.76-.72-1.54-1.44-2.41-2.27-1.4,1.4-2.12,3.15-2.13,5.19-.03,4.51,0,9.02-.01,13.52,0,.39,0,.77,0,1.23h-17.15c0-.59,0-1.16,0-1.72,0-4.29,0-8.59,0-12.88,0-2.05-.69-3.83-2.12-5.34-.76,.84-1.48,1.65-2.29,2.55,.03,.06,.19,.35,.38,.69-5.31,1.95-10.24,1.91-14.59-2.17-1.66-1.56-3.38-3.06-5.01-4.53,1.49-1.49,2.93-2.92,4.46-4.45,.2,.16,.52,.42,.83,.7,2.32,2.07,4.66,4.12,6.95,6.22,.52,.48,.96,.57,1.61,.32,3.87-1.51,7.89-2.4,12.03-3.06,1.11,3.03,3.18,4.87,6.47,4.8,3.14-.06,5.12-1.87,6.2-4.88,2.14,.47,4.31,.77,6.36,1.45,2.73,.91,4.29,3.02,4.39,5.88,.14,4.29,.04,8.58,.04,12.96h-5.13v-1.11c0-3.04,0-6.08,0-9.12,0-2.12,.02-2.2,1.12-3.98Z"/><path class="cls-2" d="M73.7,142.95h-13.59c-.03-.17-.07-.3-.07-.44,0-5.61-.03-11.23,0-16.84,.03-3.4,2.56-6.19,5.95-6.68,3.2-.47,6.4,1.56,7.39,4.73,.2,.64,.33,1.33,.33,2,.03,5.58,.02,11.16,.02,16.74,0,.14-.03,.28-.05,.5Z"/><path class="cls-3" d="M111.47,149.83h-27.38c0-1.49-.15-2.96,.04-4.39,.26-2,1.48-3.38,3.38-4.07,1.64-.6,3.31-1.12,4.97-1.65,.33-.11,.7-.14,1.05-.15,1.39-.02,2.79,.09,4.18-.03,3.53-.31,6.85,.46,10.11,1.74,2.29,.89,3.63,2.67,3.65,5.13,.01,1.1,0,2.21,0,3.42Z"/><path class="cls-4" d="M142.3,149.85h-27.55c.17-1.85,.18-3.7,.57-5.47,.33-1.5,1.54-2.46,2.99-2.99,1.68-.6,3.38-1.14,5.07-1.7,.2-.07,.41-.13,.62-.13,3.07,0,6.18-.32,9.2,.09,2.38,.32,4.69,1.4,6.92,2.41,1.35,.61,2.02,2.03,2.15,3.52,.12,1.38,.03,2.77,.03,4.25Z"/><path class="cls-2" d="M135.19,58.13c-.28,.34-.61,.82-1.01,1.22-1.96,1.91-4.32,2.85-7.05,2.88-1.32,.01-2.64-.03-3.96,.04-.63,.03-.86-.18-1.05-.75-1.15-3.51,.26-7.3,3.46-9.18,5.97-3.51,13.57-2.61,18.61,2.21,.53,.51,1.03,.84,1.84,.86,1.71,.06,3.04,1.5,3.15,3.21,.02,.25,0,.5,0,.75-.07,2.67-.27,2.87-2.87,2.87-2.39,0-4.84,.19-6.99-1.09-1.36-.81-2.58-1.87-4.13-3.01Z"/><path class="cls-2" d="M97.72,136.12c-.86,0-1.73-.1-2.56,.02-1.22,.18-1.74-.4-2.21-1.43-1.28-2.8-2.04-5.71-2.05-8.8,0-3.91,3.05-6.99,6.88-6.98,3.79,.01,6.82,3.08,6.82,6.94,0,3.43-.87,6.64-2.5,9.64-.16,.29-.62,.55-.96,.57-1.14,.07-2.28,.03-3.42,.03Z"/><path class="cls-2" d="M128.59,136.12c-.89,0-1.8-.1-2.67,.02-1.14,.16-1.62-.39-2.06-1.33-1.32-2.83-2.09-5.77-2.1-8.89-.01-3.91,3.04-7,6.88-6.99,3.83,.01,6.85,3.11,6.83,7.04-.02,3.39-.89,6.57-2.5,9.54-.16,.29-.62,.56-.96,.58-1.14,.07-2.28,.03-3.42,.03Z"/><path class="cls-3" d="M126.94,115.61v-3.47h17.04v23.92h-7.37c.14-.36,.26-.71,.4-1.05,1.39-3.46,2.3-7.03,1.72-10.77-.85-5.57-5.65-9.19-11.26-8.68-.14,.01-.28,.02-.53,.04Z"/><path class="cls-2" d="M142.15,65.56c0,2.31,.26,4.55-.06,6.71-.51,3.39-3.8,5.69-7.17,5.4-3.45-.3-6.19-3.14-6.29-6.59-.05-1.78,0-3.57,0-5.38,1.06-.29,2.11-.47,3.09-.87,1.11-.45,2.15-1.1,3.23-1.63,.25-.12,.66-.27,.82-.16,1.96,1.39,4.12,2.23,6.39,2.52Z"/><path class="cls-4" d="M56.61,140.67v5.69h20.55v-5.58c1.98,.58,3.35,2.38,3.43,4.51,.05,1.47,0,2.93,0,4.49h-27.5c.09-1.85,.03-3.74,.31-5.59,.26-1.69,1.45-2.79,3.2-3.52Z"/><path class="cls-2" d="M104.94,78.19c-1.5,1.49-2.94,2.93-4.49,4.47-1.22-1.14-2.59-2.27-3.78-3.58-1.01-1.11-.81-2.82,.24-3.9,1.14-1.16,3.07-1.29,4.39-.2,1.24,1.02,2.41,2.12,3.64,3.21Z"/><path class="cls-2" d="M147.5,108.68h5.09c0,1.57,.08,3.1-.03,4.62-.09,1.26-1.26,2.19-2.5,2.19-1.28,0-2.46-.96-2.54-2.27-.09-1.49-.02-2.98-.02-4.54Z"/><path class="cls-2" d="M132.14,80.57c2.21,.71,4.42,.74,6.66-.01,.33,1.6-.01,3.04-.8,4.32-1.21,1.98-4.13,1.84-5.19-.23-.65-1.25-.98-2.59-.67-4.09Z"/><path class="cls-2" d="M125.13,65.7v3.38c-1.11-.02-2.34,.41-3.02-.76-.28-.48-.28-1.37-.01-1.85,.67-1.18,1.91-.74,3.03-.77Z"/><path class="cls-2" d="M145.81,69.08v-3.38c1.12,.02,2.35-.42,3.02,.76,.27,.48,.28,1.37,0,1.85-.67,1.18-1.9,.74-3.03,.77Z"/><path class="cls-5" d="M56.65,74.18v-3.34h3.34v-6.83h3.41v6.74h3.44v-10.15h3.44v10.17h3.41v-13.62h3.44v13.59h3.44v-6.74h3.41v6.81h3.42v3.37h-30.76Z"/><path class="cls-6" d="M80.56,77.77v3.31h-17.01v-3.31h17.01Z"/><path class="cls-6" d="M63.51,98.24v-3.31h15.3v3.31h-15.3Z"/><path class="cls-6" d="M59.98,77.76v3.29h-3.3v-3.29h3.3Z"/><path class="cls-6" d="M87.41,77.76v3.3h-3.31v-3.3h3.31Z"/><path class="cls-6" d="M56.65,98.24v-3.31h3.3v3.31h-3.3Z"/></g></g></svg>