<?xml version="1.0" encoding="UTF-8"?><svg id="Layer_2" xmlns="http://www.w3.org/2000/svg" viewBox="0 0 117.54 117.51"><defs><style>.cls-1{fill:#eeceb3;}.cls-2{fill:#fff;}.cls-3{fill:#b6e5f5;}.cls-4{fill:#06ffd5;}.cls-5{fill:#1a2959;}</style></defs><g id="circles"><path class="cls-1" d="M42.39,18.5c-.15-.01-.24-.1-.25-.25,.13,.04,.27,.06,.25,.25Z"/></g><g id="Layer_1-2"><g id="_3AGQAd"><g><path class="cls-5" d="M101.13,115.59c-1.2-.01-2.79,.43-3.5-.17-.74-.62-.2-2.26-.22-3.46-.04-2.14-.03-4.29-.04-6.43,0-.02-.06-.04-.18-.11-2.23,2.23-4.51,4.46-6.71,6.75-.6,.63-.93,.67-1.53,0-1.04-1.15-2.09-2.3-3.72-2.7-3.2-.77-6.33,1.48-6.54,4.76-.05,.82-.05,1.64,0,2.46,.03,.58-.1,.9-.75,.79-.19-.03-.39,0-.58,0-25.36,0-50.71,0-76.07,.02-.97,0-1.29-.14-1.29-1.23,.05-9.24,.02-18.49,.03-27.73,.01-14.1,8.54-25.89,21.92-30.3,.66-.22,.92-.57,1.02-1.21,.16-1.04,.36-2.07,.62-3.09,.16-.64,.04-.95-.6-1.23-4.13-1.82-6.68-4.99-7.67-9.38-.13-.56-.28-.73-.86-.79-5.52-.6-8.44-5.93-6.02-10.94,.2-.41,.22-.76,.13-1.21-.76-3.59-1.4-7.21-.82-10.89,.68-4.32,3.03-7.52,6.83-9.65,.63-.35,1.09-.79,1.5-1.39,3.03-4.54,7.29-6.97,12.74-7.03,3.77-.05,7.56-.35,11.32,.41,9.06,1.85,15.92,10.07,16.09,19.31,.06,3.14-.32,6.22-1.03,9.27-.11,.46-.06,.81,.14,1.22,2.41,4.92-.52,10.33-5.93,10.91-.59,.06-.81,.19-.96,.82-1,4.38-3.55,7.55-7.69,9.37-.58,.25-.75,.52-.6,1.13,.31,1.29,.26,2.77,.91,3.83,.64,1.05,2.28,.92,3.41,1.49,.82,.42,1.77,1.12,2.52,.97,.77-.16,1.37-1.19,2.03-1.85,.69-.68,1.38-1.38,2.07-2.07,1.59-1.59,1.6-1.59,3.14-.03,.83,.84,1.72,1.56,2.91,1.85,3.2,.8,6.32-1.44,6.56-4.73,0-.12,.01-.23,.01-.35,.02-.93-.31-2.18,.16-2.7,.56-.62,1.83-.18,2.79-.19,3.63-.03,7.26,.03,10.88-.04,1.02-.02,1.23,.29,1.17,1.23-.06,1-.11,2.02,.16,3.02,1.01,3.77,5.51,5.21,8.48,2.68,.62-.53,1.22-1.1,1.75-1.72,.48-.57,.77-.49,1.27,.01,2.59,2.65,5.23,5.25,7.85,7.87,.27,.27,.57,.53,.85,.79q1.18,1.32,.19,2.47c-.37,.34-.76,.66-1.1,1.03-2.29,2.53-1.79,6.19,1.1,8.03,1.33,.98,2.87,.88,4.38,.81,.97-.05,1.32,.14,1.29,1.23-.08,3.74-.03,7.49-.03,11.23,0,2.53,0,2.58-2.5,2.51-1.04-.03-1.28,.27-1.27,1.3,.04,7.68,.01,15.36,0,23.05ZM22.55,18.28c.52,1.1,.48,1.8-.84,2.48-1.95,1.02-2.92,2.91-2.93,5.13-.04,5.03-.06,10.06,0,15.09,.05,4.36,3.26,8.13,7.55,8.88,2.93,.51,5.92,.18,8.87,.2,5.75,.03,9.75-4.02,9.77-9.79,0-4.84,0-9.67,0-14.51q0-1.85,1.85-1.93,1.89,.08,1.89,1.93c0,1.64,0,1.61,2.26,2.22,.67,.18,.93,.05,1.01-.63,.35-2.74,.66-5.47,.27-8.25-.97-6.89-7-12.89-13.88-13.76-3.11-.39-6.23-.19-9.34-.18-4.3,.01-7.67,1.88-9.93,5.55-.64,1.04-1.39,1.76-2.48,2.31-2.89,1.46-4.63,3.83-5.21,7.05-.37,2.03-.06,4.04,.14,6.05,.2,1.99,.25,1.86,2.24,1.63,1.14-.13,1.23-.6,1.23-1.54-.01-3.8,1.63-6.75,4.84-8.78,1.9-1.2,1.92-1.18,2.67,.85ZM63.7,100.98c0,4.17,0,8.21,0,12.26,0,.66,.46,.5,.81,.5,3.24,0,6.47-.02,9.71,.02,.63,0,.77-.25,.89-.77,1.58-6.74,8.17-9.44,14.05-5.74,.48,.3,.71,.26,1.07-.11,1.42-1.45,2.85-2.89,4.31-4.3,.43-.41,.41-.67,.09-1.16-3.68-5.7-.9-12.45,5.74-13.97,.59-.13,.82-.33,.81-.98-.05-1.95-.06-3.9,0-5.85,.02-.72-.25-.91-.88-1.04-6.45-1.38-9.35-8.33-5.76-13.82,.41-.63,.36-.96-.15-1.45-1.38-1.32-2.73-2.68-4.06-4.05-.41-.42-.67-.54-1.25-.17-5.67,3.69-12.42,.89-13.96-5.76-.14-.61-.38-.8-1-.79-1.87,.04-3.75,.06-5.62,0-.81-.03-1.12,.18-1.29,1.01-1.17,5.8-7.53,8.86-12.82,6.23-.62-.31-1.17-1.12-1.78-.92-.63,.21-1.09,.96-1.62,1.47-.03,.03-.05,.06-.08,.08-.62,.45-.61,.79,.06,1.27,2.55,1.84,4.75,4.05,6.57,6.6,.49,.69,.76,.68,1.38,.14,3.23-2.87,7.05-4.44,11.36-4.6,11.89-.46,20.95,9.52,19.43,21.32-1.28,9.99-10.91,17.33-20.84,15.94-1.74-.24-3.39-.78-5.17-1.37Zm-42.51-29.21c-.52-2.59-1.06-4.98-1.47-7.39-.17-1-.43-1.13-1.3-.64-8.96,5.14-14.1,12.84-14.55,23.16-.39,8.68-.09,17.39-.11,26.08,0,.62,.19,.79,.79,.78,1.87-.03,3.75-.08,5.61,.01,.98,.05,1.12-.32,1.11-1.18-.03-9.98-.02-19.97-.02-29.95,0-2.61,0-2.56,2.56-2.63,.98-.03,1.21,.23,1.21,1.21-.04,10.45,0,20.9-.05,31.35,0,.99,.26,1.21,1.22,1.2,3.31-.06,6.63-.02,9.94-.03,.32,0,.69,.17,1.02-.21-1.94-1.93-3.85-3.88-5.84-5.75-.69-.65-.82-1.26-.63-2.14,2.35-11.04,4.65-22.09,7.01-33.13,.26-1.23,.22-2.34-.22-3.51-.26-.68-.46-.75-1.04-.38-1.68,1.05-3.39,2.05-5.24,3.16Zm15.16,41.97h.83c3.47,0,6.94-.04,10.41,.02,.93,.02,1.14-.24,1.14-1.15-.03-10.06-.02-20.12-.02-30.18,0-2.4,0-2.32,2.42-2.43,1.19-.05,1.36,.35,1.35,1.42-.04,10.41-.02,20.82-.04,31.23,0,.84,.15,1.15,1.06,1.11,1.79-.08,3.59-.08,5.38,0,.88,.04,1.09-.21,1.09-1.09-.04-5.3,.01-10.61-.03-15.91-.04-3.9,.29-7.8-.21-11.68-1.22-9.61-6.17-16.7-14.6-21.42-.76-.42-.96-.23-1.1,.55-.41,2.26-.92,4.5-1.33,6.76-.13,.71-.33,.73-.88,.39-1.52-.94-3.07-1.85-4.6-2.77-.33-.2-.68-.5-.88,.14-.34,1.1-.7,2.13-.43,3.39,2.43,11.26,4.78,22.54,7.18,33.81,.14,.68,.02,1.14-.49,1.64-2.04,1.96-4.03,3.97-6.24,6.18Zm2.78-8.35c-.04-.23-.06-.34-.09-.46-2.22-10.5-4.44-21-6.67-31.5-.07-.33,.08-.88-.53-.86-.6,.01-.44,.56-.51,.89-2.22,10.46-4.43,20.93-6.65,31.39-.12,.56-.03,.94,.38,1.34,2.09,2.05,4.16,4.11,6.2,6.2,.48,.49,.75,.44,1.2-.02,2.04-2.09,4.12-4.14,6.19-6.21,.24-.24,.56-.45,.48-.77Zm24.56-13.17c0,1.37,.03,2.57-.01,3.78-.02,.56,.19,.84,.66,1.08,1.9,.95,3.91,1.56,6.03,1.66,6.74,.32,12.8-3.78,14.98-10.11,2.17-6.3-.06-13.14-5.56-17.08-5.8-4.15-13.93-3.53-18.99,1.47-.27,.27-.78,.45-.5,1.03,.53,1.11,1.03,2.23,1.56,3.38,4.53-6,11.77-6.02,16.27-2.46,4.76,3.76,5.65,10.59,2.06,15.49-3.14,4.28-10.08,6.74-16.51,1.76Zm7.54-15.92c-4.14-.02-7.53,3.34-7.54,7.46,0,4.09,3.31,7.46,7.38,7.51,4.14,.05,7.57-3.29,7.6-7.41,.03-4.14-3.31-7.55-7.44-7.57ZM31.86,53.82c-1.13,0-2.27,.07-3.39-.02-.85-.07-1.17,.22-1.28,1.03-.15,1.19-.9,2.61-.47,3.48,.43,.87,2.05,1.09,3.04,1.77,1.46,1,2.78,.97,4.24-.01,.99-.67,2.61-.9,3.03-1.77,.43-.87-.32-2.29-.48-3.48-.1-.74-.36-1.06-1.18-1.01-1.16,.08-2.34,.02-3.51,.02Zm16.86-18.78c0,1.05,.03,2.1-.01,3.15-.03,.63,.22,.7,.76,.59,1.69-.34,3-1.94,3-3.69,0-1.75-1.32-3.35-3-3.69-.53-.11-.79-.04-.76,.59,.05,1.01,.01,2.02,.01,3.03Zm-33.7,.1c0-1.05-.02-2.1,0-3.15,.02-.52-.13-.68-.66-.6-1.7,.26-3.1,1.93-3.09,3.73,0,1.79,1.46,3.48,3.13,3.69,.44,.06,.63-.03,.62-.52-.03-1.05,0-2.1,0-3.15Zm12.97,28.19c-1.16-.58-2.18-1.05-3.16-1.59-.54-.29-1.05-.29-1.54,0-.53,.32-.07,.78-.04,1.14,.07,.73,.31,1.44,.41,2.16,.08,.57,.22,.77,.78,.42,1.11-.7,2.24-1.36,3.55-2.15Zm7.79,0c1.29,.78,2.42,1.45,3.53,2.15,.54,.34,.71,.18,.79-.41,.1-.76,.34-1.51,.43-2.28,.04-.33,.45-.75-.05-1.03-.45-.26-.91-.34-1.43-.07-1.02,.55-2.07,1.04-3.26,1.64Zm-2.63,3.13c-.01-.35-.9-1.07-1.29-.95-.51,.17-1.21,.26-1.22,1-.02,1,.8,2.33,1.33,2.28,.39-.04,1.21-1.66,1.18-2.33Zm64.25,27.93c-.82,1.45-.86,2.89,0,4.58v-4.58Z"/><path class="cls-3" d="M99.26,66.4q.99-1.15-.19-2.47c.47-1.04,.14-2.13,.2-3.19,.06-1.04,0-2.09,0-3.13q1.87-.09,1.87-2.03V18.63q0-2.13-2.17-2.36c1.97-3.15,3.91-6.24,5.92-9.47,2.04,3.26,3.96,6.35,5.94,9.52-.32,.02-.47,.04-.61,.04q-1.59,.03-1.59,1.58c0,17.54,0,35.07,0,52.61q0,1.93,1.88,2.02c0,1.22,0,2.45,0,3.67-.23,.01-.47,.07-.69,.03-.93-.15-1.28,.14-1.21,1.15,.1,1.46,.03,2.93,.03,4.4q0,1.89,1.88,1.99c0,1.22,0,2.45,0,3.67-.35,.01-.71,.07-1.05,.03-.66-.08-.84,.16-.84,.83,.03,9.08,.03,18.16,.03,27.25-2.51,0-5.02,0-7.53,0,0-7.68,.03-15.36,0-23.05,0-1.02,.23-1.33,1.27-1.3,2.5,.07,2.5,.01,2.5-2.51,0-3.74-.05-7.49,.03-11.23,.02-1.09-.32-1.28-1.29-1.23-1.51,.08-3.05,.18-4.38-.81,0-3.02,0-6.04,0-9.06Z"/><path class="cls-5" d="M110.52,72.59q-1.88-.1-1.88-2.02c0-17.54,0-35.07,0-52.61q0-1.55,1.59-1.58c.15,0,.29-.02,.61-.04-1.98-3.18-3.91-6.26-5.94-9.52-2.02,3.22-3.95,6.32-5.92,9.47q2.17,.23,2.17,2.36V55.58q0,1.93-1.87,2.03-1.87-.1-1.87-2.02c0-11.43-.01-22.85,.02-34.28,0-.94-.17-1.29-1.18-1.21-1.28,.1-2.57,.02-3.84,.02-.23-.29,.04-.45,.14-.62,3.93-6.31,7.88-12.61,11.81-18.91,.33-.53,.49-.96,1.03-.1,3.97,6.42,7.99,12.81,11.99,19.22,.06,.09,.08,.2,.17,.41-1.47,0-2.86,.05-4.24-.02-.8-.04-.94,.25-.94,.98,.03,4.21,.02,8.42,.02,12.63v36.85q0,1.93-1.87,2.03Z"/><path class="cls-5" d="M67.43,46.31c-1.2-.01-2.78,.43-3.5-.16-.74-.62-.22-2.26-.22-3.45-.02-7.17-.03-14.34,.01-21.51,0-.87-.19-1.14-1.07-1.08-1.32,.09-2.65,.02-3.98,.02-.16-.39,.16-.58,.31-.82,3.89-6.24,7.8-12.47,11.67-18.72,.47-.75,.64-.73,1.1,0,3.94,6.35,7.91,12.67,11.86,19.01,.08,.12,.15,.25,.31,.53-1.53,0-2.91,.05-4.29-.02-.77-.04-.95,.2-.95,.96,.03,7.99,0,15.98,.04,23.97,0,1.03-.2,1.46-1.3,1.32-.81-.1-1.63-.03-2.45-.04,0-9.32-.01-18.64-.02-27.95q0-1.95,1.88-2c.06,0,.11-.07,.24-.16-1.92-3.08-3.85-6.15-5.87-9.39-2.03,3.25-3.96,6.35-5.97,9.57,.62,0,1.01,.04,1.39,0,.65-.08,.85,.15,.85,.82-.03,9.71-.03,19.41-.03,29.12Z"/><path class="cls-3" d="M67.43,46.31c0-9.71,0-19.42,.03-29.12,0-.67-.19-.9-.85-.82-.38,.05-.78,0-1.39,0,2.01-3.22,3.94-6.32,5.97-9.57,2.02,3.23,3.95,6.31,5.87,9.39-.13,.09-.19,.16-.24,.16q-1.88,.05-1.88,2c0,9.32,.01,18.64,.02,27.95-2.51,0-5.02,0-7.52,0Z"/><path class="cls-5" d="M108.66,115.59c0-9.08,0-18.16-.03-27.25,0-.67,.18-.91,.84-.83,.34,.04,.7-.02,1.05-.03q1.87,.1,1.87,2.03c0,8.34-.01,16.69,.02,25.03,0,.84-.14,1.19-1.06,1.09-.89-.1-1.79-.03-2.69-.04Z"/><path class="cls-5" d="M110.52,83.82q-1.88-.1-1.88-1.99c0-1.47,.08-2.94-.03-4.4-.07-1.01,.28-1.3,1.21-1.15,.22,.04,.46-.02,.69-.03q1.87,.1,1.87,1.99c0,1.47-.07,2.94,.03,4.4,.07,1-.27,1.31-1.2,1.15-.22-.04-.46,.02-.69,.03Z"/><path class="cls-4" d="M63.7,100.98c1.77,.59,3.43,1.12,5.17,1.37,9.94,1.39,19.56-5.95,20.84-15.94,1.52-11.8-7.55-21.78-19.43-21.32-4.31,.17-8.12,1.73-11.36,4.6-.62,.55-.89,.55-1.38-.14-1.82-2.56-4.02-4.77-6.57-6.6-.67-.48-.68-.82-.06-1.27,.03-.02,.06-.06,.08-.08,.53-.51,.98-1.27,1.62-1.47,.61-.2,1.16,.62,1.78,.92,5.29,2.63,11.64-.43,12.82-6.23,.17-.84,.49-1.04,1.29-1.01,1.87,.06,3.74,.05,5.62,0,.62-.01,.86,.18,1,.79,1.54,6.66,8.29,9.45,13.96,5.76,.57-.37,.84-.25,1.25,.17,1.33,1.37,2.68,2.73,4.06,4.05,.51,.49,.56,.82,.15,1.45-3.59,5.49-.69,12.43,5.76,13.82,.63,.14,.91,.32,.88,1.04-.06,1.95-.05,3.9,0,5.85,.02,.65-.22,.84-.81,.98-6.65,1.52-9.43,8.27-5.74,13.97,.32,.49,.34,.75-.09,1.16-1.46,1.41-2.89,2.85-4.31,4.3-.36,.37-.59,.41-1.07,.11-5.87-3.7-12.47-1-14.05,5.74-.12,.52-.27,.78-.89,.77-3.24-.04-6.47-.01-9.71-.02-.35,0-.81,.17-.81-.5,.01-4.04,0-8.09,0-12.26Z"/><path class="cls-3" d="M21.19,71.77c1.86-1.11,3.56-2.12,5.24-3.16,.58-.36,.79-.29,1.04,.38,.45,1.17,.49,2.28,.22,3.51-2.36,11.04-4.66,22.09-7.01,33.13-.19,.88-.05,1.49,.63,2.14,1.99,1.87,3.89,3.82,5.84,5.75-.33,.39-.7,.21-1.02,.21-3.31,.02-6.63-.03-9.94,.03-.96,.02-1.22-.21-1.22-1.2,.04-10.45,.01-20.9,.05-31.35,0-.98-.23-1.23-1.21-1.21-2.56,.07-2.56,.02-2.56,2.63,0,9.98,0,19.97,.02,29.95,0,.86-.13,1.22-1.11,1.18-1.87-.09-3.74-.05-5.61-.01-.6,.01-.79-.15-.79-.78,.03-8.7-.27-17.4,.11-26.08,.46-10.32,5.59-18.01,14.55-23.16,.86-.5,1.13-.36,1.3,.64,.41,2.41,.94,4.81,1.47,7.39Z"/><path class="cls-3" d="M36.36,113.74c2.22-2.2,4.2-4.22,6.24-6.18,.52-.5,.64-.96,.49-1.64-2.39-11.27-4.74-22.55-7.18-33.81-.27-1.25,.09-2.28,.43-3.39,.2-.65,.54-.34,.88-.14,1.54,.92,3.08,1.83,4.6,2.77,.55,.34,.75,.32,.88-.39,.41-2.26,.92-4.5,1.33-6.76,.14-.78,.34-.97,1.1-.55,8.43,4.72,13.38,11.81,14.6,21.42,.49,3.88,.17,7.79,.21,11.68,.05,5.3-.01,10.61,.03,15.91,0,.88-.21,1.12-1.09,1.09-1.79-.07-3.59-.08-5.38,0-.92,.04-1.07-.27-1.06-1.11,.03-10.41,0-20.82,.04-31.23,0-1.07-.16-1.47-1.35-1.42-2.42,.11-2.42,.03-2.42,2.43,0,10.06-.01,20.12,.02,30.18,0,.91-.22,1.16-1.14,1.15-3.47-.06-6.94-.02-10.41-.02h-.83Z"/><path class="cls-2" d="M46.83,23.83q-1.85,.07-1.85,1.93c0,4.84,0,9.67,0,14.51-.01,5.77-4.02,9.82-9.77,9.79-2.96-.02-5.94,.31-8.87-.2-4.3-.75-7.5-4.52-7.55-8.88-.06-5.03-.05-10.06,0-15.09,.02-2.22,.98-4.11,2.93-5.13,1.32-.69,1.36-1.39,.84-2.48,1.55-.02,3.11-.04,4.66-.07,1.06,1.03,2.13,2.05,3.17,3.09q2.12,2.11,4.15-.1s.05-.06,.08-.08c.42-.32,.35-.59,0-.93-.63-.62-1.22-1.29-1.83-1.94,1.27-.01,2.53-.03,3.8-.04,1.06,1.03,2.13,2.05,3.18,3.09,2.12,2.11,2.1,2.1,4.17-.1,.44-.47,.39-.72-.04-1.11-.54-.5-1.01-1.07-1.51-1.61,2.45,.12,4.52,2.6,4.46,5.35Zm-16.21,22.5s0,0,0,0c1.13,0,2.26,.03,3.39,0,3.38-.1,6.27-2.51,7.02-5.81q.38-1.67-1.27-1.67c-.47,0-.94,.04-1.4,0-.61-.07-.83,.12-.97,.76-.42,1.89-1.84,2.97-3.79,2.99-1.52,.02-3.04,0-4.56,0-2.83,0-2.8,0-2.81,2.84,0,.83,.29,.95,1,.92,1.13-.05,2.26-.01,3.39-.01Zm10.61-16.86c0-1.01-.84-1.84-1.85-1.85-1.06-.01-1.92,.88-1.88,1.94,.04,1.01,.9,1.82,1.91,1.8,1.01-.02,1.83-.87,1.83-1.88Zm-18.71-.08c-.05,1,.74,1.89,1.75,1.96,1.04,.07,1.97-.78,1.99-1.83,.02-1.01-.8-1.86-1.81-1.9-1.01-.03-1.88,.77-1.93,1.78Z"/><path class="cls-3" d="M46.83,23.83c.06-2.75-2.01-5.23-4.46-5.35h.03c.02-.17-.13-.19-.25-.23-1.53-1.49-3.06-2.99-4.6-4.47-.26-.25-.51-.72-.95-.28-.74,.74-1.85,1.33-2.07,2.3-.15,.66,.99,1.18,1.51,1.79,.17,.21,.36,.41,.53,.61-1.27,.01-2.53,.03-3.8,.04-1.5-1.46-3-2.94-4.52-4.39-.25-.24-.49-.8-.93-.42-.79,.69-1.74,1.37-2.14,2.27-.3,.67,.87,1.12,1.32,1.72,.21,.28,.46,.52,.69,.78-1.55,.02-3.11,.04-4.66,.07-.76-2.04-.77-2.06-2.67-.85-3.22,2.04-4.85,4.98-4.84,8.78,0,.94-.09,1.41-1.23,1.54-1.99,.23-2.04,.35-2.24-1.63-.2-2.01-.51-4.02-.14-6.05,.58-3.22,2.32-5.59,5.21-7.05,1.09-.55,1.83-1.27,2.48-2.31,2.26-3.66,5.63-5.53,9.93-5.55,3.11-.01,6.23-.21,9.34,.18,6.88,.86,12.91,6.87,13.88,13.76,.39,2.78,.08,5.51-.27,8.25-.09,.67-.35,.81-1.01,.63-2.25-.6-2.26-.58-2.26-2.22q0-1.86-1.89-1.93Z"/><path class="cls-4" d="M39.14,105.39c.08,.31-.23,.52-.48,.77-2.07,2.07-4.14,4.12-6.19,6.21-.45,.46-.72,.51-1.2,.02-2.04-2.09-4.11-4.15-6.2-6.2-.42-.41-.5-.79-.38-1.34,2.23-10.46,4.43-20.93,6.65-31.39,.07-.33-.09-.88,.51-.89,.61-.01,.46,.53,.53,.86,2.23,10.5,4.45,21,6.67,31.5,.02,.11,.04,.23,.09,.46Z"/><path class="cls-3" d="M63.7,92.22c6.42,4.99,13.36,2.53,16.51-1.76,3.59-4.89,2.7-11.72-2.06-15.49-4.51-3.56-11.74-3.55-16.27,2.46-.53-1.15-1.03-2.27-1.56-3.38-.28-.58,.23-.77,.5-1.03,5.06-5,13.19-5.62,18.99-1.47,5.5,3.94,7.73,10.78,5.56,17.08-2.18,6.33-8.23,10.43-14.98,10.11-2.13-.1-4.13-.71-6.03-1.66-.47-.24-.68-.53-.66-1.08,.05-1.2,.01-2.41,.01-3.78Z"/><path class="cls-2" d="M31.86,53.82c1.17,0,2.34,.06,3.51-.02,.82-.06,1.07,.27,1.18,1.01,.16,1.19,.9,2.61,.48,3.48-.42,.87-2.04,1.1-3.03,1.77-1.45,.98-2.77,1.01-4.24,.01-.98-.68-2.61-.9-3.04-1.77-.43-.87,.31-2.29,.47-3.48,.11-.81,.43-1.1,1.28-1.03,1.12,.1,2.26,.02,3.39,.02Z"/><path class="cls-2" d="M48.72,35.04c0-1.01,.03-2.02-.01-3.03-.03-.63,.23-.7,.76-.59,1.68,.34,3,1.94,3,3.69,0,1.75-1.31,3.34-3,3.69-.53,.11-.78,.04-.76-.59,.04-1.05,.01-2.1,.01-3.15Z"/><path class="cls-2" d="M15.01,35.14c0,1.05-.02,2.1,0,3.15,.01,.49-.17,.58-.62,.52-1.67-.21-3.13-1.9-3.13-3.69,0-1.8,1.39-3.46,3.09-3.73,.53-.08,.68,.08,.66,.6-.03,1.05,0,2.1,0,3.15Z"/><path class="cls-2" d="M27.98,63.33c-1.31,.79-2.44,1.46-3.55,2.15-.56,.35-.71,.15-.78-.42-.1-.73-.34-1.44-.41-2.16-.03-.37-.49-.82,.04-1.14,.49-.3,1-.3,1.54,0,.98,.54,2,1.01,3.16,1.59Z"/><path class="cls-2" d="M35.77,63.33c1.2-.6,2.24-1.09,3.26-1.64,.51-.28,.98-.19,1.43,.07,.5,.29,.09,.7,.05,1.03-.09,.76-.33,1.51-.43,2.28-.08,.59-.25,.75-.79,.41-1.11-.7-2.24-1.36-3.53-2.15Z"/><path class="cls-4" d="M33.14,66.46c.03,.67-.8,2.3-1.18,2.33-.53,.05-1.35-1.28-1.33-2.28,.02-.74,.72-.83,1.22-1,.39-.13,1.28,.6,1.29,.95Z"/><path class="cls-5" d="M30.61,46.33c-1.13,0-2.26-.04-3.39,.01-.71,.03-1-.1-1-.92,.02-2.84-.02-2.84,2.81-2.84,1.52,0,3.04,.01,4.56,0,1.94-.02,3.37-1.1,3.79-2.99,.14-.64,.36-.83,.97-.76,.46,.05,.93,0,1.4,0q1.65,0,1.27,1.67c-.75,3.3-3.64,5.7-7.02,5.81-1.13,.03-2.26,0-3.39,0,0,0,0,0,0,0Z"/><path class="cls-5" d="M36.57,18.21c-.18-.2-.36-.41-.53-.61-.52-.62-1.66-1.13-1.51-1.79,.22-.97,1.33-1.56,2.07-2.3,.44-.44,.69,.03,.95,.28,1.54,1.49,3.07,2.98,4.6,4.47,.02,.15,.1,.24,.25,.25,0,0-.03-.01-.03-.01,.5,.54,.97,1.11,1.51,1.61,.42,.4,.48,.64,.04,1.11-2.07,2.19-2.04,2.21-4.17,.1-1.05-1.04-2.12-2.06-3.18-3.09Z"/><path class="cls-5" d="M27.21,18.21c-.23-.26-.49-.5-.69-.78-.45-.6-1.62-1.05-1.32-1.72,.4-.9,1.35-1.58,2.14-2.27,.43-.38,.68,.18,.93,.42,1.52,1.45,3.01,2.92,4.52,4.39,.61,.65,1.2,1.32,1.83,1.94,.35,.34,.43,.62,0,.93-.03,.02-.06,.05-.08,.08q-2.03,2.21-4.15,.1c-1.05-1.04-2.12-2.06-3.17-3.09Z"/><path class="cls-5" d="M41.22,29.47c0,1-.82,1.86-1.83,1.88-1.01,.02-1.87-.79-1.91-1.8-.04-1.06,.83-1.95,1.88-1.94,1.01,0,1.84,.85,1.85,1.85Z"/><path class="cls-5" d="M22.51,29.39c.05-1.01,.92-1.81,1.93-1.78,1.01,.03,1.82,.89,1.81,1.9-.02,1.05-.94,1.9-1.99,1.83-1.01-.07-1.8-.95-1.75-1.96Z"/></g></g></g></svg>