<?xml version="1.0" encoding="UTF-8"?><svg id="Layer_2" xmlns="http://www.w3.org/2000/svg" viewBox="0 0 200 200"><defs><style>.cls-1{fill:#e9f6f6;}.cls-2{fill:#fff;}.cls-3{fill:#b6e5f5;}.cls-4{fill:#add;}.cls-5{fill:#1a2959;}.cls-6{fill:#4e82f7;}</style></defs><g id="Layer_1-2"><circle class="cls-1" cx="100" cy="100" r="100"/><g id="_51e8Je"><g><path class="cls-5" d="M144.93,160.48h-1.35c-.57-.46-1.05-.98-1.14-1.75,.02-2.65,.07-5.31,.04-7.96-.03-3.11-1.8-5.59-4.72-6.69-1.08-.41-2.27-.61-3.26-1.17-1.15-.65-2.19-.58-3.39-.27-.75,.2-.86,.37-.63,1.09,.97,2.98,1.84,5.99,2.82,8.97,.36,1.1,.16,1.92-.67,2.71-1.11,1.05-2.14,2.19-3.2,3.29-1.29,.91-1.64,.91-2.89,0-.93-1.07-1.82-2.18-2.81-3.19-.85-.87-1.06-1.75-.7-2.94,.9-2.92,1.68-5.88,2.53-8.82,.19-.64,.1-.88-.63-1.04-1.2-.26-2.3-.39-3.4,.31-.34,.21-.77,.29-1.16,.41-1.28,.41-1.77,.23-2.51-.93-.22-1.15,.27-1.84,1.35-2.23,3.07-1.1,3.3-1.46,3.31-4.69,0-.3-.03-.6,0-.9,.08-.6-.18-.93-.7-1.23-2.07-1.23-3.07-3.06-3.03-5.49,.04-2.35,0-4.71,0-7.07,0-1.78-.17-3.59,.85-5.3h-14.97c.37,1.03,.76,1.98,.76,3.05-.02,3.29,0,6.58-.01,9.87-.01,1.79-.69,3.42-2.2,4.31-1.41,.84-1.69,1.89-1.51,3.31,.03,.22,0,.45,0,.67,.06,1.66,.68,2.6,2.25,3.09,3.15,1,6.22,2.09,8.09,5.12,1.16-1.23,1.54-1.31,2.92-.65,.67,.91,.55,1.76-.08,2.65-.56,.79-.92,1.71-.99,2.69-.2,3.01-.16,6.02-.03,9.03-.1,.74-.57,1.25-1.08,1.74h-1.35c-.53-.48-.97-1-1.1-1.73,.01-2.8,.14-5.61,.01-8.4-.14-3.05-1.81-5.14-4.64-6.26-1.07-.43-2.28-.6-3.25-1.17-1.2-.7-2.27-.58-3.5-.26-.71,.19-.8,.35-.58,1.02,.98,3.01,1.88,6.05,2.86,9.07,.34,1.05,.16,1.86-.64,2.62-1.13,1.08-2.19,2.24-3.28,3.37-1.3,.89-1.61,.88-2.86-.03-.96-1.1-1.87-2.23-2.88-3.28-.79-.82-.98-1.65-.65-2.74,.88-2.92,1.69-5.87,2.5-8.82,.08-.29,.4-.82,.07-.9-.91-.24-1.88-.83-2.78-.45-1.41,.6-2.88,1.01-4.3,1.58-2.69,1.08-4.4,3.05-4.59,5.94-.19,2.9-.03,5.82-.03,8.73-.11,.75-.58,1.26-1.13,1.72h-1.12c-.88-.48-1.24-1.19-1.18-2.2,.07-1.12,0-2.24,.02-3.36,.03-1.94-.22-3.91,.13-5.82,.83-4.47,3.59-7.22,7.87-8.58,3.99-1.27,4.11-1.53,4.1-5.72,0-.7-.26-1.06-.83-1.4-1.99-1.19-2.96-2.98-2.94-5.31,.01-1.72-.04-3.44,.01-5.16,.08-2.44-.44-4.94,.81-7.37-2.6,0-5.05,.01-7.51,0-4.36-.03-7.4-3.07-7.41-7.42-.02-5.8,0-11.59,0-17.39,0-1.47,.33-1.88,1.76-2.29,1.23,.28,1.63,1.06,1.63,2.29-.04,5.76-.02,11.53-.01,17.29,0,2.59,1.53,4.14,4.1,4.14,22,0,44,0,66,0,2.54,0,4.1-1.51,4.1-4.03,.02-18.41,0-36.82,0-55.24,0-.07,0-.15,0-.22-.11-2.34-1.63-3.82-3.96-3.82-22.07,0-44.15,0-66.22,0-2.46,0-4.01,1.53-4.02,3.98-.02,6.7,0,13.4-.03,20.1,0,.78,.26,.92,.96,.9,1.76-.04,3.52,0,5.28-.02,1.91-.01,4.02,.47,5.66-.2,1.68-.69,2.89-2.52,4.34-3.81,.51-.45,.63-.84,.46-1.53-.59-2.57,1.1-5.07,3.71-5.64,2.42-.53,5.3,1.08,5.48,3.55,.14,1.86,1.19,2.33,2.43,2.95,.5,.25,1,.51,1.47,.81,.47,.3,.83,.28,1.31-.04,.99-.68,2.12-.95,3.31-.66,.62,.15,.96-.09,1.31-.54,.9-1.15,1.8-2.3,2.77-3.39,.46-.51,.52-.91,.26-1.57-.74-1.89-.12-3.99,1.43-5.26,1.61-1.32,3.8-1.46,5.55-.37,1.71,1.07,2.63,3.07,2.09,5.02-.26,.95-.07,1.54,.62,2.12,.34,.29,.64,.63,.93,.97,.74,.88,1.47,1.66,2.8,1.07,.34-.15,.84-.07,1.21,.06,.55,.2,.82-.03,1.12-.41,1.68-2.11,3.35-4.21,5.07-6.29,.39-.47,.44-.84,.19-1.39-.4-.91-.41-1.9-.15-2.86,.66-2.44,3.08-3.96,5.52-3.48,2.49,.49,4.13,2.83,3.8,5.41-.31,2.39-2.51,4.24-5,3.97-1.07-.12-1.61,.24-2.19,1.01-1.38,1.81-2.82,3.59-4.29,5.33-.53,.63-.67,1.14-.39,1.97,.64,1.86,.18,3.57-1.26,4.91-1.48,1.37-3.26,1.67-5.1,.88-1.84-.79-2.81-2.27-2.88-4.31-.02-.69,.16-1.32,.38-1.97,.11-.32-2.98-3.59-3.29-3.48-.99,.33-1.98,.29-2.99,.13-.42-.07-.55,.34-.75,.58-.91,1.09-1.77,2.23-2.71,3.29-.51,.57-.58,1.03-.31,1.77,.92,2.58-.63,5.38-3.24,6.07-2.6,.69-5.55-.88-5.8-3.48-.16-1.68-.97-2.29-2.23-2.85-.58-.26-1.13-.58-1.67-.9-.42-.25-.75-.33-1.21,0-1.28,.88-2.7,1.02-4.17,.53-.33-.11-.62-.18-.92,.13-.58,.59-1.21,1.15-2,1.89,.69,0,1.09,0,1.49,0,.45,0,.9-.02,1.35,0,1.35,.07,2.04,.78,2.08,2.13,.14,5.11-3.63,9-8.78,9.03-4.86,.03-9.72,.03-14.59,.05-1.19-.02-2.39,.02-3.58-.06-1.02-.07-1.28,.35-1.27,1.3,.05,2.77,.02,5.53,.02,8.3,0,19.11,0,38.22,0,57.32,0,.63,.17,1.35-.26,1.84-.48,.55-.32,.95-.15,1.56,.64,2.22,.85,4.17-1.04,5.17h-18.64c-1.57-1.04-1.49-2.57-1.2-4.15,.19-1.02,.91-2.04-.06-3.07-.16-.17-.07-.58-.07-.87,0-7.55,0-15.1,0-22.65,0-1.48,.29-1.86,1.74-2.3,1.22,.28,1.65,1.06,1.64,2.3-.03,6.81,0,13.62-.03,20.42,0,.88,.22,1.19,1.12,1.12,1.08-.08,2.17-.08,3.25,0,1.01,.08,1.32-.22,1.31-1.28-.04-11.18-.03-22.37-.02-33.55,0-.48-.06-.97,.14-1.44,.33-.79,.93-1.19,1.76-1.1,.84,.09,1.35,.61,1.45,1.46,.04,.37,.02,.75,.02,1.12,0,7.63,0,15.26,0,22.89,0,3.63,.02,7.26-.02,10.88,0,.79,.23,1.04,1.01,1,1.16-.06,2.32-.08,3.48,0,.94,.06,1.19-.24,1.19-1.18-.04-8.53-.02-17.06-.02-25.58,0-4.56-.02-9.13-.03-13.69,0-.19,.01-.37,.01-.56q0-1.48-1.53-1.48c-3.69,0-7.38,0-11.06,0q-2.1,0-2,2.08c0,3.69-.02,7.38-.03,11.06,0,1.57-.22,1.86-1.68,2.32-1.37-.43-1.68-.82-1.68-2.24,0-1.95-.02-3.89,.01-5.84,.01-.56-.12-.84-.7-1.03-3.91-1.3-6.06-4.31-6.07-8.44,0-7.26,0-14.52,0-21.78,0-5.92,2.52-9.43,8.12-11.32,3.86-1.3,3.98-1.5,4.01-5.57,0-.79-.27-1.19-.92-1.58-1.83-1.1-2.82-2.78-2.86-4.91-.06-3.25-.07-6.51,0-9.77,.08-3.55,2.89-6.25,6.44-6.29,1.87-.02,3.74-.01,5.61,0,3.84,.02,6.58,2.65,6.67,6.52,.07,3.1,.03,6.21,0,9.32-.02,1.85-.58,3.62-2.17,4.57-1.49,.89-1.76,2.01-1.58,3.5,.03,.26,0,.52,.01,.79,.08,1.32,.72,2.23,1.96,2.74,1.57,.65,3.19,.97,4.91,.93,.82-.02,1.05-.19,1.04-1.04-.04-6.59-.03-13.17-.02-19.76,0-4.58,3.01-7.56,7.6-7.56,21.93,0,43.85,0,65.78,0,.52,0,1.05,0,1.56,.09,3.72,.66,6,3.55,6,7.63,0,18.19,0,36.38,0,54.57,0,.41-.01,.82-.06,1.23-.4,3.77-3.26,6.44-7.03,6.52-2.21,.05-4.42,.01-6.62,.01-1.02,0-2.05,0-3.25,0,.8,1.42,.91,2.78,.9,4.18-.03,2.69-.04,5.39,0,8.08,.04,2.51-.95,4.42-3.11,5.68-.53,.31-.71,.68-.67,1.26,.05,.71-.02,1.42,.02,2.13,.08,1.49,.77,2.54,2.24,3.01,.85,.27,1.7,.56,2.54,.86,4.55,1.61,7.25,5.39,7.3,10.22,.02,2.28-.04,4.57,.02,6.85,.03,1.05-.13,1.95-.95,2.66ZM61.69,64.86l-.02,.02c.18-.03,.36-.08,.43-.28h0c2.19-.81,3.46-2.23,3.06-4.72-.02-.11,0-.22,0-.33q0-2-1.95-2.54c-1.13-.38-2.32-.63-3.37-1.17-2.17-1.1-4.11-.77-5.98,.61-.03,.02-.07,.03-.1,.05-.5,.17-.64,.51-.62,1.03,.04,1.23,.02,2.46,.01,3.7,0,1.11,.45,1.92,1.42,2.48,.97,.56,1.93,1.13,2.86,1.75,1.25,.83,2.42,.84,3.57-.15,.19-.03,.35-.08,.44-.27h0c.1-.06,.19-.12,.29-.18Zm67.36,67.86h-.07s.06,0,.06,0c.28-.03,.51-.16,.7-.37,0,0,.09-.05,.09-.05,1.05-.63,2.12-1.25,3.16-1.89,.79-.49,1.16-1.23,1.16-2.16,0-.6,0-1.19,0-1.79q0-2.16-2.22-2.66c-1.87-.63-3.73-1.26-5.6-1.89-.39-.13-.71-.03-1.06,.14q-3.08,1.48-3.08,4.91c0,.49,0,.97,0,1.46,0,.76,.3,1.42,.92,1.82,1.31,.85,2.66,1.65,4,2.45,.43,.26,.91,.3,1.4,.15,.19,.03,.38,.04,.52-.14Zm-28.71-1.96l.05-.03c1.25-.54,1.78-1.49,1.71-2.84-.04-.78-.07-1.57,0-2.34,.09-.94-.25-1.4-1.19-1.41-2.12-.7-4.25-1.37-6.35-2.11-.6-.21-1.03-.04-1.58,.13-2.36,.75-3.38,2.23-2.88,4.71,.1,.5,.02,1.04,.02,1.56,0,.67,.28,1.23,.75,1.69,3.3,3.18,5.34,3.38,9.09,.89,.03-.02,.05-.06,.07-.08,.1-.05,.19-.11,.29-.16Zm-43.4-60.99c.22,.96-.93,2.18-.06,2.77,.78,.54,2.08,.29,3.16,.16,.11-.01,.22-.02,.33-.02,.99-.02,1.64-.25,1.11-1.48-.18-.42-.1-.95-.14-1.43,.04-.37,.2-.81-.5-.58-1.13,.38-2.28,.39-3.41,0-.73-.25-.51,.22-.49,.57Zm43.29,46.3c-.39-.28-.84-.3-1.29-.3-1.87,0-3.74-.03-5.61,0-2.29,.04-3.54,1.67-3.05,4.01,.47-.24,.97-.42,1.39-.72,1.18-.83,2.35-.85,3.69-.34,1.81,.68,3.69,1.18,5.54,1.75,.38,.13,.83,.62,1.13,.02,.69-1.44-.27-3.71-1.8-4.42Zm-55.41-9.03c.02,2.27,1.28,4.09,3.3,4.68v-4.68c.01-5.13,.03-10.25,.04-15.38,0-1.68-.02-3.37,0-5.05,.02-1.15,.67-1.84,1.66-1.85,1.02-.01,1.65,.66,1.69,1.81,.01,.3,0,.6,0,.9,0,5.58,.02,11.15-.02,16.73,0,.9,.18,1.22,1.15,1.21,4.15-.05,8.31-.05,12.46,0,.93,.01,1.1-.31,1.1-1.16-.03-5.95-.02-11.9-.01-17.85,0-.56,.02-1.13,.13-1.67,.32-1.65,1.76-2.93,3.44-3.06,.52-.04,1.05-.02,1.57-.03,5.91-.02,11.82-.04,17.73-.05,2.36,.07,4.49-1.43,5.1-3.58,.14-.48,.24-.84-.51-.81-1.53,.06-3.06,.05-4.58,.07-.41-.02-.82-.05-1.23-.05-5.5,0-11-.04-16.49,.02-2.07,.02-4.04-.31-5.87-1.19-1.11-.53-2.09-.56-3.28-.31-1.08,.23-1.18,.63-.98,1.55,1.07,4.93,2.09,9.86,3.17,14.79,.19,.87,.02,1.53-.59,2.14-1.17,1.16-2.31,2.35-3.49,3.5-.97,.95-1.88,.93-2.8-.06-1.02-1.1-1.98-2.24-3.01-3.33-.68-.72-.82-1.48-.63-2.46,1-5.02,1.94-10.05,2.9-15.07,.05-.24,.25-.65-.03-.7-1.01-.17-2.04-.83-3.04-.41-1.35,.57-2.74,.97-4.1,1.49-2.9,1.11-4.72,3.23-4.77,6.31-.13,7.85-.03,15.71-.02,23.57Zm8.38-54.09c.58-.29,1.09-.46,1.5-.75,1.18-.85,2.36-.82,3.69-.34,1.96,.71,3.97,1.29,5.97,1.89,.23,.07,.6,.47,.77-.16,.68-2.51-.91-4.67-3.51-4.71-1.64-.03-3.29,0-4.93,0-2.5,0-3.74,1.41-3.49,4.07ZM122.28,119.8c.59-.3,1.11-.5,1.57-.81,1.12-.75,2.21-.78,3.48-.31,1.91,.72,3.9,1.26,5.86,1.86,.31,.09,.7,.46,.91-.14,.76-2.16-.75-4.49-3.05-4.6-1.75-.08-3.51-.05-5.26-.05-2.58,0-3.72,1.26-3.5,4.04Zm-63.18-36.36s-.1,0-.15,0c-.48,2.52-.96,5.04-1.44,7.56-.22,1.15,.33,2.45,1.31,3,.08,.05,.19,.11,.28,.09,.52-.09,1.85-1.98,1.75-2.48-.58-2.73-1.16-5.45-1.74-8.18Zm36.68,56.18v-.03c.33,0,.67,.01,1,0q1.8-.09,1.64-1.86c-.03-.3-.06-.6-.05-.89,.04-.65-.04-1-.85-.7-.62,.23-1.32,.23-1.99,.14-.51-.07-1.16-.39-1.48-.18-.44,.29-.16,1.02-.23,1.56-.27,1.92-.25,1.93,1.74,1.95,.07,0,.15,0,.22,0Zm32.04,0s0,.02,0,.02c.52-.03,1.04-.04,1.56-.08,.26-.02,.51-.12,.77-.14,.55-.03,.73-.23,.49-.77-.12-.26-.12-.58-.16-.88-.06-.55,.09-1.3-.21-1.6-.39-.39-1.07,.2-1.66,.14-.26-.02-.52-.02-.78,0-.63,.06-1.4-.55-1.78-.16-.34,.36-.14,1.2-.22,1.82-.2,1.59-.21,1.59,1.43,1.63,.19,0,.37,0,.56,0Zm.35,8.04c-.08,0-.16,.02-.23,.02-.42,1.48-.77,2.99-1.28,4.45-.31,.89-.26,1.58,.51,2.14,.35,.26,.55,1.1,1.04,.72,.66-.52,1.78-1.04,1.6-1.96-.37-1.82-1.07-3.58-1.63-5.36Zm-32.17-.31c-.55,1.93-1,3.54-1.45,5.14-.04,.14-.1,.28-.12,.43-.07,.43,1.15,2.12,1.54,2.15,.53,.04,1.89-1.85,1.71-2.41-.51-1.67-1.05-3.33-1.67-5.31Zm-32.52,9.77c.67,0,1.34-.01,2.02,0,.62,.01,.67-.26,.47-.77-.39-.97-1.41-1.68-2.54-1.71-1.1-.03-2.19,.66-2.6,1.63-.22,.53-.16,.87,.52,.85,.71-.02,1.42,0,2.13,0Zm-9.07,0c.71,0,1.42,0,2.13,0,.41,0,.64-.1,.51-.59-.24-.9-1.48-1.83-2.55-1.88-1.14-.05-2.36,.7-2.69,1.65-.2,.57-.05,.85,.59,.83,.67-.02,1.34,0,2.01,0ZM119.18,63.59c.72,.02,1.39-.59,1.43-1.31,.05-.74-.62-1.5-1.37-1.48-.83,.02-1.32,.5-1.42,1.31-.09,.75,.6,1.47,1.36,1.49Zm-8.16,10.17c-.1-.71-.57-1.18-1.39-1.22-.78-.04-1.41,.65-1.36,1.45,.05,.85,.56,1.29,1.37,1.33,.76,.04,1.42-.68,1.38-1.56Zm-12.3-6.6c-.06-.68-.5-1.15-1.33-1.21-.78-.05-1.44,.6-1.41,1.4,.03,.84,.5,1.3,1.33,1.35,.82,.05,1.42-.57,1.41-1.53Zm41.33-8.14c.95,.02,1.58-.58,1.54-1.39-.03-.84-.5-1.3-1.33-1.35-.8-.05-1.43,.59-1.4,1.39,.03,.84,.52,1.27,1.19,1.35Zm-10.11,12.99c-.07-.82-.54-1.28-1.36-1.33-.78-.05-1.41,.62-1.4,1.42,.01,.79,.67,1.41,1.47,1.34,.83-.08,1.26-.57,1.29-1.42Z"/><path class="cls-2" d="M112.82,160.48c.5-.49,.98-1,1.08-1.74,4.22-.01,8.43-.03,12.65-.04,1.25,.92,1.6,.92,2.89,0,4.34,0,8.67,.02,13.01,.03,.09,.77,.57,1.29,1.14,1.75h-30.76Z"/><path class="cls-2" d="M94.49,158.7c1.25,.91,1.56,.92,2.86,.03,4.34,0,8.68,.01,13.02,.02,.13,.73,.58,1.26,1.1,1.73h-30.76c.55-.46,1.02-.97,1.13-1.73,4.22-.02,8.43-.04,12.65-.06Z"/><path class="cls-2" d="M74.41,88.45c0-1.14,0-2.27,0-3.41,4.86-.02,9.72-.02,14.59-.05,5.15-.03,8.91-3.91,8.78-9.03-.04-1.35-.73-2.06-2.08-2.13-.45-.02-.9,0-1.35,0-.4,0-.8,0-1.49,0,.79-.74,1.41-1.3,2-1.89,.3-.3,.59-.24,.92-.13,1.47,.48,2.89,.35,4.17-.53,.46-.32,.79-.24,1.21,0,.54,.33,1.1,.65,1.67,.9,1.26,.56,2.07,1.17,2.23,2.85,.25,2.6,3.2,4.17,5.8,3.48,2.62-.7,4.16-3.49,3.24-6.07-.27-.75-.19-1.21,.31-1.77,.94-1.06,1.8-2.2,2.71-3.29,.2-.24,.34-.65,.75-.58,1.01,.16,1.99,.2,2.99-.13,.32-.11,3.4,3.16,3.29,3.48-.22,.64-.4,1.28-.38,1.97,.06,2.03,1.04,3.52,2.88,4.31,1.84,.79,3.62,.49,5.1-.88,1.45-1.34,1.9-3.05,1.26-4.91-.29-.83-.15-1.34,.39-1.97,1.47-1.74,2.91-3.52,4.29-5.33,.59-.77,1.12-1.13,2.19-1.01,2.5,.28,4.7-1.57,5-3.97,.33-2.58-1.31-4.91-3.8-5.41-2.44-.48-4.86,1.03-5.52,3.48-.26,.96-.25,1.95,.15,2.86,.25,.56,.2,.92-.19,1.39-1.72,2.07-3.39,4.18-5.07,6.29-.3,.38-.58,.61-1.12,.41-.37-.13-.87-.21-1.21-.06-1.33,.58-2.07-.2-2.8-1.07-.29-.34-.59-.69-.93-.97-.69-.58-.89-1.17-.62-2.12,.54-1.95-.38-3.95-2.09-5.02-1.74-1.09-3.94-.94-5.55,.37-1.55,1.27-2.16,3.36-1.43,5.26,.25,.65,.19,1.05-.26,1.57-.97,1.09-1.87,2.24-2.77,3.39-.35,.45-.69,.69-1.31,.54-1.19-.29-2.32-.02-3.31,.66-.47,.32-.84,.34-1.31,.04-.47-.3-.97-.56-1.47-.81-1.24-.63-2.29-1.1-2.43-2.95-.18-2.47-3.06-4.08-5.48-3.55-2.61,.57-4.3,3.07-3.71,5.64,.16,.7,.04,1.08-.46,1.53-1.45,1.29-2.66,3.13-4.34,3.81-1.64,.67-3.75,.19-5.66,.2-1.76,0-3.52-.03-5.28,.02-.7,.02-.96-.12-.96-.9,.03-6.7,0-13.4,.03-20.1,0-2.45,1.56-3.98,4.02-3.98,22.07,0,44.15,0,66.22,0,2.33,0,3.85,1.48,3.96,3.82,0,.07,0,.15,0,.22,0,18.41,0,36.82,0,55.24,0,2.52-1.57,4.03-4.1,4.03-22,0-44,0-66,0-2.57,0-4.1-1.55-4.1-4.14,0-5.76-.02-11.53,.01-17.29,0-1.23-.4-2.01-1.63-2.29Zm38.07,5.1c9.27,0,18.54,0,27.82,0,.34,0,.68,.02,1.01-.01,.96-.1,1.61-.8,1.6-1.7,0-.9-.67-1.57-1.64-1.65-.3-.02-.6,0-.9,0-18.58,0-37.16,0-55.75,0-.34,0-.68-.03-1.01,.02-.94,.12-1.51,.69-1.53,1.63-.02,.95,.54,1.52,1.46,1.7,.33,.06,.67,.03,1.01,.03,9.31,0,18.62,0,27.93,0Zm-13.54,7.67c4.97,0,9.94,0,14.91,0,1.34,0,2.14-.75,2.02-1.83-.11-.98-.85-1.54-2.12-1.54-9.83,0-19.66,0-29.49,0-1.39,0-2.19,.63-2.19,1.69,0,1.05,.79,1.67,2.18,1.68,4.9,0,9.79,0,14.69,0Z"/><path class="cls-4" d="M89.08,81.58c-5.91,.02-11.82,.03-17.73,.05-.52,0-1.05-.02-1.57,.03-1.67,.13-3.12,1.4-3.44,3.06-.1,.55-.13,1.12-.13,1.67,0,5.95-.02,11.9,.01,17.85,0,.84-.17,1.17-1.1,1.16-4.15-.05-8.31-.05-12.46,0-.97,.01-1.16-.31-1.15-1.21,.04-5.58,.02-11.15,.02-16.73,0-.3,0-.6,0-.9-.04-1.15-.68-1.82-1.69-1.81-1,.01-1.65,.7-1.66,1.85-.03,1.68,0,3.37,0,5.05-.01,5.13-.03,10.25-.04,15.38-1.1,0-2.2,0-3.3,0,0-7.86-.11-15.71,.02-23.57,.05-3.08,1.87-5.2,4.77-6.31,1.36-.52,2.75-.93,4.1-1.49,1-.42,2.03,.24,3.04,.41,.28,.05,.08,.46,.03,.7-.96,5.03-1.9,10.06-2.9,15.07-.19,.98-.06,1.74,.63,2.46,1.03,1.09,1.99,2.23,3.01,3.33,.92,.99,1.83,1.01,2.8,.06,1.18-1.15,2.32-2.34,3.49-3.5,.61-.61,.78-1.27,.59-2.14-1.08-4.92-2.09-9.86-3.17-14.79-.2-.92-.1-1.32,.98-1.55,1.19-.25,2.16-.23,3.28,.31,1.83,.88,3.81,1.21,5.87,1.19,5.5-.06,11-.02,16.49-.02,.41,0,.82,.04,1.23,.05,0,1.44,0,2.88,0,4.32Z"/><path class="cls-3" d="M49.91,127.44c-.02-1.06-.04-2.12-.06-3.18,1.46-.46,1.68-.76,1.68-2.32,.01-3.69,.02-7.38,.03-11.06,4.86-.02,9.72-.03,14.59-.05,.01,4.56,.03,9.13,.03,13.69,0,8.53-.01,17.06,.02,25.58,0,.94-.26,1.24-1.19,1.18-1.15-.08-2.32-.06-3.48,0-.78,.04-1.02-.21-1.01-1,.04-3.63,.02-7.26,.02-10.88,0-7.63,0-15.26,0-22.89,0-.37,.02-.75-.02-1.12-.1-.86-.61-1.37-1.45-1.46-.83-.09-1.43,.31-1.76,1.1-.2,.47-.14,.96-.14,1.44,0,11.18-.02,22.37,.02,33.55,0,1.05-.3,1.36-1.31,1.28-1.08-.08-2.17-.08-3.25,0-.9,.07-1.12-.24-1.12-1.12,.04-6.81,0-13.62,.03-20.42,0-1.23-.42-2.01-1.64-2.3Z"/><path class="cls-2" d="M115,144.37c.78-.9,1.81-1.42,2.88-1.88,.74,1.16,1.23,1.34,2.51,.93,.39-.12,.82-.2,1.16-.41,1.09-.7,2.2-.57,3.4-.31,.73,.16,.82,.4,.63,1.04-.85,2.94-1.63,5.9-2.53,8.82-.37,1.19-.15,2.06,.7,2.94,.99,1.01,1.87,2.12,2.81,3.19-4.22,.01-8.43,.03-12.65,.04-.13-3.01-.17-6.02,.03-9.03,.07-.98,.43-1.9,.99-2.69,.64-.9,.75-1.75,.08-2.65Z"/><path class="cls-2" d="M142.44,158.73c-4.34,0-8.67-.02-13.01-.03,1.06-1.1,2.09-2.24,3.2-3.29,.84-.79,1.04-1.61,.67-2.71-.98-2.98-1.85-5.99-2.82-8.97-.23-.72-.12-.9,.63-1.09,1.2-.31,2.24-.38,3.39,.27,.99,.56,2.18,.76,3.26,1.17,2.92,1.1,4.69,3.58,4.72,6.69,.02,2.65-.02,5.31-.04,7.96Z"/><path class="cls-4" d="M110.37,158.75c-4.34,0-8.68-.02-13.02-.02,1.09-1.13,2.15-2.29,3.28-3.37,.81-.77,.98-1.58,.64-2.62-.98-3.01-1.88-6.05-2.86-9.07-.21-.66-.13-.83,.58-1.02,1.23-.32,2.3-.44,3.5,.26,.98,.57,2.18,.75,3.25,1.17,2.83,1.12,4.5,3.21,4.64,6.26,.13,2.79,0,5.6-.01,8.4Z"/><path class="cls-4" d="M94.49,158.7c-4.22,.02-8.43,.04-12.65,.06,0-2.91-.17-5.83,.02-8.73,.19-2.89,1.9-4.86,4.59-5.94,1.42-.57,2.89-.97,4.3-1.58,.9-.38,1.87,.21,2.78,.45,.33,.09,0,.61-.07,.9-.81,2.95-1.61,5.9-2.5,8.82-.33,1.1-.14,1.92,.65,2.74,1.01,1.04,1.92,2.18,2.88,3.28Z"/><path class="cls-2" d="M100.05,130.92s-.04,.07-.07,.08c-3.75,2.5-5.79,2.3-9.09-.89-.47-.46-.75-1.01-.75-1.69,0-.52,.08-1.06-.02-1.56-.5-2.48,.52-3.96,2.88-4.71,.55-.17,.98-.35,1.58-.13,2.1,.75,4.23,1.41,6.35,2.11,.08,2.22,.03,4.42-.53,6.59,0,0-.05,.03-.05,.03-.16-.06-.25,.01-.29,.17Z"/><path class="cls-2" d="M60.96,65.31c-1.15,1-2.32,.99-3.57,.15-.93-.62-1.89-1.19-2.86-1.75-.96-.56-1.42-1.38-1.42-2.48,0-1.23,.03-2.47-.01-3.7-.02-.52,.12-.86,.62-1.03,.04-.01,.07-.03,.1-.05,1.87-1.39,3.81-1.71,5.98-.61,1.05,.53,2.25,.79,3.37,1.17-.03,2.58,.4,5.23-1.1,7.6,0,0,0,0,0,0-.22-.02-.39,.02-.43,.28,0,0,.02-.02,.02-.02-.1,.06-.19,.12-.29,.18,0,0,0,0,0,0-.21,0-.37,.05-.44,.27Z"/><path class="cls-2" d="M128.53,132.85c-.49,.15-.97,.11-1.4-.15-1.34-.8-2.69-1.59-4-2.45-.62-.41-.92-1.06-.92-1.82,0-.49,0-.97,0-1.46q0-3.44,3.08-4.91c.36-.17,.68-.27,1.06-.14,1.86,.63,3.73,1.26,5.6,1.89,0,1.42-.03,2.83-.02,4.25,0,1.51-.5,2.76-1.76,3.66-.21,.15-.49,.25-.32,.59,0,0-.09,.05-.09,.05-.42-.23-.63-.07-.7,.37l-.06-.02s.07,.01,.07,.01c-.21-.09-.38-.06-.52,.14Z"/><path class="cls-3" d="M53.2,52.94c-.25-2.67,.99-4.07,3.49-4.07,1.64,0,3.29-.02,4.93,0,2.6,.04,4.18,2.2,3.51,4.71-.17,.63-.55,.23-.77,.16-2-.6-4.01-1.18-5.97-1.89-1.33-.48-2.51-.52-3.69,.34-.41,.3-.92,.47-1.5,.75Z"/><path class="cls-3" d="M122.28,119.8c-.22-2.78,.92-4.04,3.5-4.04,1.75,0,3.51-.03,5.26,.05,2.3,.1,3.81,2.43,3.05,4.6-.21,.6-.6,.24-.91,.14-1.96-.6-3.94-1.14-5.86-1.86-1.27-.48-2.36-.44-3.48,.31-.46,.31-.98,.51-1.57,.81Z"/><path class="cls-4" d="M100.91,120.47c-1.85-.58-3.73-1.07-5.54-1.75-1.34-.51-2.51-.48-3.69,.34-.42,.29-.92,.48-1.39,.72-.49-2.33,.76-3.97,3.05-4.01,1.87-.03,3.74,0,5.61,0,.45,0,.9,.02,1.29,.3,.36,1.45,.88,2.87,.68,4.41Z"/><path class="cls-3" d="M66.15,110.83c-4.86,.02-9.72,.03-14.59,.05q-.1-2.08,2-2.08c3.69,0,7.38,0,11.06,0q1.53,0,1.53,1.48c0,.19,0,.37-.01,.56Z"/><path class="cls-4" d="M59.1,83.44c.58,2.73,1.17,5.45,1.74,8.18,.11,.5-1.23,2.39-1.75,2.48-.08,.01-.19-.05-.28-.09-.98-.55-1.53-1.86-1.31-3,.49-2.52,.96-5.04,1.44-7.56,.05,0,.1,0,.15,0Z"/><path class="cls-2" d="M89.08,81.58c0-1.44,0-2.88,0-4.32,1.53-.02,3.06,0,4.58-.07,.76-.03,.65,.33,.51,.81-.61,2.14-2.74,3.64-5.1,3.58Z"/><path class="cls-2" d="M95.78,139.62c-.07,0-.15,0-.22,0-1.99-.02-2.01-.03-1.74-1.95,.08-.54-.2-1.28,.23-1.56,.32-.21,.97,.11,1.48,.18,.67,.09,1.37,.09,1.99-.14,.81-.31,.89,.05,.85,.7-.02,.3,.02,.59,.05,.89q.17,1.77-1.64,1.86c-.33,.02-.67,0-1,0v.03Z"/><path class="cls-2" d="M127.82,139.61c-.19,0-.37,0-.56,0-1.65-.05-1.64-.05-1.43-1.63,.08-.62-.11-1.47,.22-1.82,.37-.39,1.15,.22,1.78,.16,.26-.02,.52-.03,.78,0,.59,.05,1.27-.53,1.66-.14,.3,.3,.15,1.05,.21,1.6,.03,.3,.04,.61,.16,.88,.24,.55,.06,.74-.49,.77-.26,.01-.51,.12-.77,.14-.52,.04-1.04,.06-1.56,.08,0,0,0-.02,0-.02Z"/><path class="cls-2" d="M129.83,132.31c-.17-.35,.11-.44,.32-.59,1.25-.9,1.77-2.15,1.76-3.66,0-1.42,.01-2.83,.02-4.25q2.22,.5,2.22,2.66c0,.6,0,1.19,0,1.79,0,.93-.37,1.67-1.16,2.16-1.04,.65-2.11,1.26-3.16,1.89Z"/><path class="cls-6" d="M128.17,147.65c.56,1.78,1.27,3.54,1.63,5.36,.18,.92-.94,1.44-1.6,1.96-.49,.39-.69-.46-1.04-.72-.77-.56-.82-1.25-.51-2.14,.51-1.45,.86-2.96,1.28-4.45,.08,0,.16-.02,.23-.02Z"/><path class="cls-4" d="M96.01,147.34c.62,1.98,1.16,3.64,1.67,5.31,.17,.56-1.18,2.45-1.71,2.41-.38-.03-1.6-1.73-1.54-2.15,.02-.15,.08-.28,.12-.43,.45-1.6,.91-3.2,1.45-5.14Z"/><path class="cls-2" d="M62.09,64.61c1.5-2.37,1.07-5.02,1.1-7.6q1.95,.54,1.95,2.54c0,.11-.02,.23,0,.33,.4,2.5-.86,3.91-3.06,4.73Z"/><path class="cls-2" d="M61.34,69.77c.04,.48-.04,1.01,.14,1.43,.53,1.22-.12,1.46-1.11,1.48-.11,0-.22,0-.33,.02-1.08,.13-2.37,.38-3.16-.16-.87-.6,.27-1.81,.06-2.77,1.47,.82,2.94,.86,4.41,0Z"/><path class="cls-2" d="M44.82,107.04c1.1,0,2.2,0,3.3,0,0,1.55,0,3.11,0,4.68-2.02-.59-3.28-2.41-3.3-4.68Z"/><path class="cls-3" d="M63.49,157.11c-.71,0-1.42-.01-2.13,0-.69,.02-.75-.32-.52-.85,.41-.97,1.5-1.66,2.6-1.63,1.13,.03,2.15,.74,2.54,1.71,.2,.51,.15,.78-.47,.77-.67-.01-1.34,0-2.02,0Z"/><path class="cls-3" d="M54.42,157.11c-.67,0-1.34-.02-2.01,0-.64,.02-.79-.26-.59-.83,.33-.95,1.55-1.71,2.69-1.65,1.07,.05,2.31,.99,2.55,1.88,.13,.49-.09,.59-.51,.59-.71,0-1.42,0-2.13,0Z"/><path class="cls-2" d="M100.39,130.72c.56-2.17,.6-4.37,.53-6.59,.94,.01,1.28,.47,1.19,1.41-.08,.77-.05,1.56,0,2.34,.07,1.35-.46,2.3-1.71,2.84Z"/><path class="cls-6" d="M119.18,63.59c-.76-.02-1.46-.74-1.36-1.49,.1-.81,.6-1.28,1.42-1.31,.75-.02,1.42,.74,1.37,1.48-.05,.72-.71,1.33-1.43,1.31Z"/><path class="cls-6" d="M111.01,73.76c.04,.88-.62,1.61-1.38,1.56-.81-.05-1.32-.48-1.37-1.33-.05-.8,.58-1.49,1.36-1.45,.81,.05,1.29,.52,1.39,1.22Z"/><path class="cls-6" d="M98.71,67.15c.01,.97-.59,1.58-1.41,1.53-.83-.05-1.3-.51-1.33-1.35-.03-.79,.62-1.45,1.41-1.4,.83,.06,1.27,.53,1.33,1.21Z"/><path class="cls-6" d="M140.04,59.01c-.68-.08-1.16-.5-1.19-1.35-.03-.8,.6-1.44,1.4-1.39,.83,.05,1.3,.51,1.33,1.35,.03,.81-.59,1.41-1.54,1.39Z"/><path class="cls-6" d="M129.93,72c-.03,.85-.46,1.34-1.29,1.42-.8,.08-1.45-.54-1.47-1.34-.01-.79,.62-1.47,1.4-1.42,.82,.05,1.28,.51,1.36,1.33Z"/><path class="cls-3" d="M100.91,120.47c.2-1.53-.32-2.96-.68-4.41,1.54,.71,2.5,2.98,1.8,4.42-.29,.6-.75,.11-1.13-.02Z"/><path class="cls-2" d="M61.34,69.77c-1.47,.86-2.94,.82-4.41,0-.02-.35-.24-.82,.49-.57,1.13,.38,2.28,.37,3.41,0,.7-.23,.54,.21,.5,.58Z"/><path class="cls-2" d="M129.05,132.72c.07-.43,.28-.59,.7-.37-.19,.21-.42,.33-.7,.37Z"/><path class="cls-2" d="M128.53,132.85c.13-.19,.31-.22,.52-.14-.14,.17-.32,.17-.52,.14Z"/><path class="cls-2" d="M60.96,65.31c.07-.22,.23-.28,.44-.27-.09,.19-.25,.24-.44,.27Z"/><path class="cls-2" d="M61.66,64.88c.04-.25,.22-.29,.43-.28-.08,.2-.25,.24-.43,.28Z"/><path class="cls-2" d="M100.05,130.92c.04-.15,.13-.22,.29-.17-.1,.06-.19,.11-.29,.17Z"/><path class="cls-2" d="M61.4,65.04c.1-.06,.19-.12,.29-.18-.1,.06-.19,.12-.29,.18Z"/><path class="cls-5" d="M112.49,93.55c-9.31,0-18.62,0-27.93,0-.34,0-.68,.04-1.01-.03-.92-.17-1.49-.75-1.46-1.7,.02-.94,.59-1.51,1.53-1.63,.33-.04,.67-.02,1.01-.02,18.58,0,37.16,0,55.75,0,.3,0,.6-.02,.9,0,.97,.08,1.63,.75,1.64,1.65,0,.9-.64,1.6-1.6,1.7-.33,.03-.67,.01-1.01,.01-9.27,0-18.54,0-27.82,0Z"/><path class="cls-5" d="M98.94,101.22c-4.9,0-9.79,0-14.69,0-1.39,0-2.19-.62-2.18-1.68,0-1.06,.8-1.69,2.19-1.69,9.83,0,19.66,0,29.49,0,1.27,0,2.01,.56,2.12,1.54,.12,1.08-.68,1.83-2.02,1.83-4.97,0-9.94,0-14.91,0Z"/></g></g></g></svg>