<?xml version="1.0" encoding="UTF-8"?><svg id="Layer_2" xmlns="http://www.w3.org/2000/svg" viewBox="0 0 117 117.2"><defs><style>.cls-1{fill:#f7f8f2;}.cls-2{fill:#edf2f3;}.cls-3{fill:#fff;}.cls-4{fill:#faebac;}.cls-5{fill:#80a6a6;}.cls-6{fill:#6acaeb;}.cls-7{fill:#b6e5f5;}.cls-8{fill:#add;}.cls-9{fill:#d84854;}.cls-10{fill:#06ffd5;}.cls-11{fill:#05bfa0;}.cls-12{fill:#080807;}.cls-13{fill:#1a2959;}</style></defs><g id="Layer_1-2"><g><path class="cls-13" d="M117,31.36c-.47,.72-.39,1.57-.56,2.36-3.84,17.41-21.53,26.85-38.09,20.32-.21-.08-.43-.14-.64-.21-.67-.35-1.36-.67-2.02-1.04-7.32-4.14-12.06-10.26-14.02-18.49-.11-.46-.15-.96-.81-1.07-1.16-.18-2.29-.54-3.48-.48-2.57-.22-5.1-.02-7.53,.91-.2-.02-.39,0-.52,.19-.07-.03-.12-.01-.16,.04-.11,.02-.23,.02-.33,.05-8.8,3.26-14.34,12.78-12.61,22.03,1.41,7.59,5.79,12.82,13.05,15.56h.04c.17,.06,.34,.11,.51,.16,3.03,1.23,6.24,1.23,9.32,.71,7.42-1.26,12.59-5.54,15.45-12.54,.45-1.11,1.04-1.85,2.36-1.63,1.26,.81,1.45,1.35,.91,2.76-1.7,4.42-4.47,8.01-8.31,10.79-.29,.21-.59,.41-1.15,.8,2.35,0,4.39,0,6.42,0,2.95,0,4.51,1.56,4.52,4.5,0,2.06,.18,4.14-.05,6.17-.2,1.81-.18,3.55,0,5.36,.21,2.08,.25,4.22-.01,6.28-.23,1.86-.23,3.64,.03,5.48,.16,1.12,.06,2.29,.02,3.43-.02,.62,.21,.78,.79,.77,1.29-.03,2.59-.04,3.88,0,3.17,.11,5.77,2.63,6.01,5.78,.25,3.21-1.87,5.99-5.03,6.62-.08,.02-.14,.14-.21,.21H2.09C.51,116.42-.01,115.15,0,113.4c.07-7.55,.03-15.11,.03-22.66,0-2.41,1.07-3.47,3.49-3.47,6.93,0,13.86,0,20.79,0,2.52,0,4.01,1.21,4.41,3.69,.1,.59,.27,.73,.84,.74,2.92,.07,2.77,.08,2.98-2.82,.14-1.96,.25-3.85,0-5.82-.25-2.03-.07-4.11-.05-6.17,.02-2.61,1.68-4.29,4.28-4.3,2.12-.01,4.24,0,6.59,0-.99-.78-1.85-1.37-2.62-2.07-7.32-6.67-10.01-14.91-7.23-24.4,2.74-9.38,9.33-14.9,18.98-16.63,2.53-.45,5.09-.39,7.61,.12,1,.2,.92-.2,.9-.88-.17-7.21,2.12-13.56,6.81-19C72.45,4.35,78.34,1.22,85.36,.23c.2-.03,.47,.08,.57-.23h5.94c.04,.18,.17,.21,.33,.22,5.42,.58,10.21,2.67,14.45,6.07,1.34,1.08,1.42,1.5,.71,3.01-1.05,.71-1.94,.47-2.88-.33-1.95-1.67-4.16-2.95-6.57-3.85-3.64-1.36-7.38-2.09-11.29-1.49-5.76,.38-10.63,2.78-14.73,6.73-10.31,9.92-9.96,26.63,.75,36.11,4.11,3.64,8.91,5.75,14.43,6.12,8.03,.55,14.85-2.12,20.18-8.12,7.51-8.45,8.39-19.87,2.51-29.53-.62-1.02-.83-1.94,0-2.91,1.5-.52,2.02-.37,2.84,.94,1.77,2.8,3.02,5.82,3.75,9.06,.22,.97,.17,2,.65,2.91v6.41Zm-46.45,69.83c0,.34-.04,.68,0,1.02,.08,.8-.8,1.79-.19,2.25,.53,.41,1.6,.1,2.43,.11q3.33,0,3.08-3.39c-.1-.66,.57-1.71-.65-1.81-1.69-.13-3.39-.03-5.18-.03,.19,.69,.35,1.27,.51,1.85ZM7.59,90.76c-1.14-.02-2.28-.02-3.42-.07-.55-.02-.72,.19-.72,.73,.01,7.21,.01,14.42,0,21.62,0,.53,.14,.75,.7,.73,1.14-.04,2.28-.03,3.42-.04,1.67,.01,3.35,0,5.02,.05,.56,.01,.7-.2,.7-.73-.01-7.2-.01-14.4,0-21.6,0-.51-.1-.77-.68-.75-1.67,.05-3.34,.05-5.01,.06Zm68.28-1.25q.14-1.83-1.59-1.83c-12.22,0-24.44,0-36.66,0-.27,0-.53,.01-.8,0-.62-.03-.86,.26-.91,.88-.25,3.16,0,3.42,3.21,3.06,4.63-.25,8.78,1.5,12.93,3.19,1.49,.61,3.04,1.04,4.64,1.05,6.09,.05,12.18,.03,18.27,.05,.66,0,.99-.21,.98-.92-.04-1.83-.04-3.66-.06-5.49Zm-36.77-5.3c6.8,.01,13.6,.03,20.39,.04,5.05,0,10.1-.02,15.16,.02,1.01,0,1.34-.31,1.29-1.31-.08-1.63-.05-3.27-.07-4.9,.02-.19,.05-.38,.05-.57,.02-1.45,0-1.46-1.44-1.46-.53,0-1.06,0-1.6,0-11.86,0-23.71,.01-35.57-.02-1.11,0-1.49,.33-1.42,1.44,.08,1.25,0,2.51,.02,3.77,.09,3.43-.77,3.07,3.18,3Zm47.39,26.09c-.46-1.65-1.32-2.29-3.18-2.29-9.33,0-18.65,0-27.98,0-1.75,0-2.55-.55-2.54-1.75,.01-1.16,.76-1.68,2.46-1.68,2.36,0,4.72,0,7.08,0,.76,0,1.53,.04,2.28-.03,1.52-.14,2.57-1.33,2.48-2.75-.09-1.4-1.17-2.42-2.66-2.45-1.29-.03-2.59-.09-3.88,0-4.39,.3-8.52-.59-12.52-2.38-1.97-.88-4-1.74-6.21-1.77-4.11-.05-8.22-.04-12.33-.07-.51,0-.74,.1-.74,.69,.04,5.07,.05,10.14,.06,15.21-.02,.42-.05,.83-.05,1.25q0,1.49,1.46,1.49c17.48,0,34.97,0,52.45,0,.38,0,.76,.02,1.14,0,1.85-.13,2.95-1.57,2.67-3.46Zm-61.16-8.04c0-3.47-.02-6.94,.01-10.4,0-.82-.26-1.17-1.12-1.16-2.24,.04-4.49,.04-6.73,0-.69-.01-.8,.24-.8,.86,.02,7.13,.02,14.25,0,21.38,0,.74,.22,.87,.9,.86,2.13-.04,4.26-.07,6.39,0,1.05,.04,1.4-.29,1.39-1.36-.06-3.39-.02-6.78-.02-10.17Z"/><path class="cls-10" d="M49.84,33.67c2.44-.93,4.96-1.13,7.53-.91,.23,2.76,1.06,5.37,2.14,7.87,2.75,6.35,7.06,11.38,13.02,14.94,1.42,.85,2.85,1.73,4.51,2.12-.03,.18-.06,.37-.09,.55-1.32-.22-1.91,.52-2.36,1.63-2.86,7-8.03,11.29-15.45,12.54-3.08,.52-6.29,.52-9.32-.71-.11-.26-.29-.27-.51-.15,0,0-.04,0-.04,0-.14-.58-.66-.78-1.08-1.06-2.94-1.97-5.17-4.59-6.75-7.72-1.88-3.71-2.77-7.63-2.38-11.87,.27-2.98,1.04-5.77,2.4-8.37,1.69-3.25,4.13-5.9,7.2-7.94,.27-.18,.5-.35,.51-.69,.04-.06,.1-.07,.16-.04,.21,.03,.39,0,.52-.19Zm12.31,14.21c-.15-1.9-.87-3.75-2.65-4.68-1.6-.83-2.09-1.83-1.9-3.52,.11-1.01-.65-1.67-1.59-1.7-.98-.03-1.69,.63-1.79,1.68-.04,.45-.06,.92,0,1.37,.1,.82-.15,1.24-.97,1.61-2.37,1.07-3.67,3.45-3.47,6.04,.19,2.57,1.89,4.73,4.35,5.45,.69,.2,1.42,.24,2.13,.33,1.38,.18,2.45,1.34,2.46,2.71,.01,1.41-1.1,2.65-2.51,2.8-1.41,.15-2.7-.83-2.97-2.26-.04-.22-.06-.45-.11-.68-.21-1.01-.93-1.61-1.82-1.54-.95,.08-1.59,.84-1.56,1.91,.05,1.82,.66,3.52,2.17,4.45,1.64,1.02,2.67,2.01,2.37,4.13-.13,.88,.75,1.5,1.71,1.45,.94-.04,1.54-.6,1.62-1.6,.03-.46,.06-.92,0-1.37-.1-.85,.15-1.33,1.01-1.72,2.55-1.16,3.92-3.93,3.41-6.59-.57-2.95-2.78-4.92-5.74-5.14-.38-.03-.76-.07-1.12-.17-1.28-.36-2.06-1.5-1.97-2.85,.08-1.28,.99-2.28,2.26-2.51,1.67-.3,2.99,.78,3.26,2.68,.17,1.17,.86,1.82,1.85,1.74,.94-.08,1.58-.84,1.58-2.02Z"/><path class="cls-11" d="M77.03,57.69c-1.65-.38-3.08-1.26-4.51-2.12-5.95-3.56-10.27-8.59-13.02-14.94-1.08-2.5-1.91-5.12-2.14-7.87,1.19-.06,2.32,.3,3.48,.48,.66,.1,.7,.6,.81,1.07,1.97,8.23,6.7,14.34,14.02,18.49,.66,.37,1.34,.7,2.02,1.04-.24,1.28-.16,2.62-.67,3.86Z"/><path class="cls-3" d="M28.82,111.02c-.02-5.07-.03-10.14-.06-15.21,0-.58,.23-.69,.74-.69,4.11,.03,8.22,.02,12.33,.07,2.21,.03,4.24,.88,6.21,1.77,4,1.79,8.13,2.68,12.52,2.38,1.29-.09,2.59-.03,3.88,0,1.48,.03,2.57,1.05,2.66,2.45,.09,1.42-.96,2.61-2.48,2.75-.76,.07-1.52,.03-2.28,.03-2.36,0-4.72,0-7.08,0-1.7,0-2.45,.52-2.46,1.68-.01,1.2,.79,1.75,2.54,1.75,9.33,0,18.65,0,27.98,0,1.86,0,2.73,.64,3.18,2.29-1.02,.56-2.11,.74-3.28,.74-18.13-.02-36.26-.02-54.39-.02Z"/><path class="cls-8" d="M107.36,9.3c.94,.8,1.75,1.7,2.41,2.74-.83,.97-.63,1.89,0,2.91,5.89,9.66,5,21.08-2.51,29.53-5.33,6-12.15,8.67-20.18,8.12-3.79-1.65-7.14-3.92-9.89-7.03-.51-.58-1.13-1.1-1.26-1.94,.47,0,.72,.38,1.05,.62,3.44,2.54,7.31,3.9,11.57,3.99,11.69,.26,20.99-9.38,20.52-21.21-.49-12.31-12.4-21.41-24.38-18.67-3.38,.77-6.31,2.37-9,4.49-.06-.35,.17-.56,.34-.81,1.37-1.98,3.13-3.55,5-5.04,1.73-1.37,3.77-2.2,5.61-3.37,3.91-.6,7.65,.13,11.29,1.49,2.41,.9,4.62,2.18,6.57,3.85,.93,.8,1.82,1.04,2.88,.33Z"/><path class="cls-5" d="M75.91,43.64c.12,.84,.74,1.36,1.26,1.94,2.76,3.1,6.11,5.38,9.89,7.03-5.51-.37-10.31-2.48-14.43-6.12-10.7-9.49-11.06-26.19-.75-36.11,4.1-3.95,8.97-6.35,14.73-6.73-1.84,1.18-3.88,2-5.61,3.37-1.87,1.49-3.63,3.06-5,5.04-.17,.25-.41,.46-.34,.81,0,0,0-.04,0-.04-.08,.09-.16,.18-.24,.27-.2,.22-.4,.45-.61,.67-5.54,5.8-7.25,12.58-5.07,20.29,1.03,3.64,3.17,6.62,5.91,9.19-.15,.11-.17,.19,.05,.22h-.05c.08,.09,.16,.17,.24,.25l.02-.07Z"/><path class="cls-10" d="M75.87,78.06c.02,1.64-.01,3.27,.07,4.9,.05,1-.28,1.31-1.29,1.31-5.05-.05-10.1-.02-15.16-.02-6.8,0-13.6-.03-20.39-.04,0-1.67,.07-3.35-.03-5.02-.06-1.12,.32-1.38,1.4-1.38,11.24,.04,22.48,.03,33.72,.02,.58,0,1.13,.08,1.68,.23Z"/><path class="cls-2" d="M25.34,102.26c0,3.39-.04,6.78,.02,10.17,.02,1.07-.34,1.39-1.39,1.36-2.13-.07-4.26-.05-6.39,0-.67,.01-.9-.12-.9-.86,.03-7.13,.03-14.25,0-21.38,0-.62,.12-.87,.8-.86,2.24,.04,4.49,.04,6.73,0,.86-.01,1.13,.34,1.12,1.16-.03,3.47-.01,6.94-.01,10.4Z"/><path class="cls-10" d="M75.87,89.51c.02,1.83,.02,3.66,.06,5.49,.01,.71-.32,.92-.98,.92-6.09-.02-12.18,0-18.27-.05-1.6-.01-3.15-.44-4.64-1.05-4.15-1.69-8.3-3.44-12.93-3.19q-.04-2.11,2.09-2.11c11.56,0,23.11,0,34.67,0Z"/><path class="cls-1" d="M28.82,111.02c18.13,0,36.26,0,54.39,.02,1.17,0,2.26-.17,3.28-.74,.29,1.89-.82,3.33-2.67,3.46-.38,.03-.76,0-1.14,0-17.48,0-34.97,0-52.45,0q-1.47,0-1.46-1.49c0-.42,.03-.83,.05-1.25Z"/><path class="cls-7" d="M7.59,90.76c1.67-.02,3.34-.02,5.01-.06,.59-.02,.68,.25,.68,.75-.01,7.2-.01,14.4,0,21.6,0,.53-.13,.74-.7,.73-1.67-.04-3.34-.03-5.02-.05,0-7.66,0-15.31,.01-22.97Z"/><path class="cls-11" d="M49.16,33.9c-.02,.35-.24,.52-.51,.69-3.07,2.03-5.51,4.69-7.2,7.94-1.35,2.6-2.12,5.39-2.4,8.37-.39,4.24,.51,8.16,2.38,11.87,1.58,3.13,3.82,5.74,6.75,7.72,.42,.28,.95,.48,1.08,1.06-7.26-2.74-11.64-7.97-13.05-15.56-1.72-9.25,3.81-18.77,12.61-22.03,.1-.04,.22-.04,.33-.05Z"/><path class="cls-6" d="M7.59,90.76c0,7.66,0,15.31-.01,22.97-1.14,.01-2.28,0-3.42,.04-.56,.02-.7-.2-.7-.73,.01-7.21,.01-14.42,0-21.62,0-.54,.17-.75,.72-.73,1.14,.05,2.28,.05,3.42,.07Z"/><path class="cls-11" d="M75.87,78.06c-.55-.15-1.1-.23-1.68-.23-11.24,.01-22.48,.02-33.72-.02-1.08,0-1.46,.26-1.4,1.38,.09,1.67,.03,3.35,.03,5.02-3.95,.08-3.09,.44-3.18-3-.03-1.26,.06-2.52-.02-3.77-.07-1.1,.31-1.44,1.42-1.44,11.86,.04,23.71,.02,35.57,.02,.53,0,1.06,0,1.6,0,1.45,0,1.46,.01,1.44,1.46,0,.19-.03,.38-.05,.57Z"/><path class="cls-11" d="M75.87,89.51c-11.56,0-23.11,0-34.67,0q-2.13,0-2.09,2.11c-3.2,.36-3.46,.11-3.21-3.06,.05-.62,.29-.91,.91-.88,.27,.01,.53,0,.8,0,12.22,0,24.44,0,36.66,0q1.73,0,1.59,1.83Z"/><path class="cls-10" d="M75.87,101.18q.25,3.39-3.08,3.39c-.83,0-1.9,.3-2.43-.11-.61-.47,.27-1.45,.19-2.25-.03-.34,0-.68,0-1.02,1.77,0,3.55,0,5.32,0Z"/><path class="cls-11" d="M75.87,101.18c-1.77,0-3.55,0-5.32,0-.16-.58-.32-1.16-.51-1.85,1.79,0,3.49-.1,5.18,.03,1.22,.09,.55,1.15,.65,1.81Z"/><path class="cls-11" d="M49.84,33.67c-.13,.19-.31,.22-.52,.19,.13-.18,.31-.21,.52-.19Z"/><path class="cls-11" d="M49.3,71.56c.22-.13,.4-.11,.51,.15-.17-.05-.34-.1-.51-.15Z"/><path class="cls-13" d="M62.14,47.88c0,1.17-.64,1.94-1.58,2.02-.99,.08-1.68-.56-1.85-1.74-.27-1.9-1.59-2.98-3.26-2.68-1.27,.23-2.18,1.23-2.26,2.51-.09,1.35,.69,2.49,1.97,2.85,.36,.1,.75,.14,1.12,.17,2.96,.21,5.17,2.19,5.74,5.14,.51,2.66-.86,5.43-3.41,6.59-.85,.39-1.1,.87-1.01,1.72,.05,.45,.03,.92,0,1.37-.07,.99-.67,1.55-1.62,1.6-.96,.05-1.84-.57-1.71-1.45,.3-2.11-.73-3.11-2.37-4.13-1.51-.94-2.13-2.64-2.17-4.45-.03-1.07,.61-1.83,1.56-1.91,.88-.08,1.6,.53,1.82,1.54,.05,.22,.06,.45,.11,.68,.28,1.44,1.56,2.41,2.97,2.26,1.41-.15,2.53-1.39,2.51-2.8-.01-1.37-1.08-2.53-2.46-2.71-.71-.09-1.45-.13-2.13-.33-2.46-.72-4.16-2.88-4.35-5.45-.19-2.58,1.1-4.97,3.47-6.04,.82-.37,1.07-.8,.97-1.61-.05-.45-.04-.92,0-1.37,.09-1.06,.81-1.72,1.79-1.68,.94,.03,1.71,.69,1.59,1.7-.19,1.69,.3,2.69,1.9,3.52,1.79,.93,2.5,2.78,2.65,4.68Z"/><path class="cls-13" d="M75.66,43.24c-2.73-2.57-4.88-5.55-5.91-9.19-2.18-7.71-.47-14.49,5.07-20.29,.21-.22,.4-.45,.61-.67,.08-.09,.16-.18,.24-.27,0,0,0,.04,0,.04,2.69-2.12,5.62-3.72,9-4.49,11.98-2.74,23.89,6.36,24.38,18.67,.47,11.83-8.83,21.47-20.52,21.21-4.26-.09-8.13-1.45-11.57-3.99-.32-.24-.57-.63-1.05-.62,0,0-.02,.07-.02,.07,.08-.24-.02-.31-.24-.24,0,0,.05,0,.05,0,.01-.03,.04-.06,.03-.08-.02-.05-.05-.09-.08-.14Zm8.15-31.03l-.07,.02c-8.46,2.45-13.5,12.2-10.67,20.85,1.79,5.49,5.45,9.21,11.03,10.92,.1,.05,.19,.12,.3,.15,6.4,1.89,13.35-.33,17.61-5.62,4.23-5.26,4.86-12.63,1.59-18.54-3.83-6.91-12.32-10.4-19.27-7.92-.17,.04-.34,.09-.51,.13Z"/><path class="cls-9" d="M75.66,43.24s.06,.09,.08,.14c0,.02-.02,.05-.03,.08-.22-.03-.2-.11-.05-.22Z"/><path class="cls-9" d="M75.66,43.47c.22-.06,.32,0,.24,.24-.08-.08-.16-.16-.24-.24Z"/><path class="cls-9" d="M75.67,12.82c-.08,.09-.16,.18-.24,.27,.08-.09,.16-.18,.24-.27Z"/><path class="cls-3" d="M84.32,12.09c6.95-2.49,15.44,1,19.27,7.92,3.27,5.91,2.64,13.27-1.59,18.54-4.26,5.29-11.21,7.52-17.61,5.62-.1-.03-.2-.1-.3-.15-.11-.15-.18-.35-.33-.44-1.73-1.13-3.24-2.47-4.5-4.12-2.25-2.94-3.52-6.24-3.84-9.92,.92,.4,1.78,.4,2.41-.49,.49-.7,.43-1.44-.13-2.08-.64-.74-1.44-.7-2.27-.35,.22-2.96,1.08-5.71,2.68-8.22,.14-.22,.24-.52,.59-.27-.1,.24-.24,.48-.29,.74-.19,.94,.46,1.86,1.38,2,.97,.15,1.84-.47,1.99-1.41,.14-.93-.53-1.82-1.48-1.95-.61-.08-1.1,.19-1.54,.57-.26-.82,.36-1.26,.8-1.72,1.19-1.25,2.35-2.54,3.8-3.51,.22-.15,.48-.26,.35-.6,0,0,.07-.02,.07-.02,.22,.14,.4,.12,.51-.13Zm2.96,13.1c0,.91,.02,1.83,0,2.74-.01,.57,.17,1.05,.57,1.43,.99,.94,1.97,1.91,2.99,2.81,.76,.66,1.72,.61,2.36-.04,.68-.68,.69-1.68-.04-2.45-.57-.61-1.19-1.18-1.82-1.72-.47-.4-.67-.84-.65-1.47,.05-1.33,.05-2.67,0-3.99-.05-1.04-.84-1.72-1.79-1.67-.91,.04-1.56,.73-1.6,1.73-.03,.87,0,1.75,0,2.63Zm10.59,10.06c-.92-.02-1.67,.7-1.71,1.63-.04,.98,.7,1.78,1.66,1.8,.94,.01,1.76-.81,1.74-1.75-.02-.91-.78-1.66-1.69-1.68Zm3.64-8.9c-.95,0-1.71,.81-1.68,1.79,.03,.94,.76,1.64,1.7,1.63,.93,0,1.68-.73,1.71-1.65,.03-.92-.8-1.77-1.73-1.77Zm-12.52-9.15c.92,0,1.68-.74,1.71-1.65,.03-.92-.8-1.77-1.73-1.77-.95,0-1.71,.82-1.68,1.79,.03,.94,.76,1.63,1.7,1.63Zm1.71,23.46c.01-.92-.8-1.74-1.73-1.74-.9,0-1.65,.73-1.69,1.64-.04,.97,.69,1.76,1.64,1.78,.94,.02,1.76-.75,1.77-1.69Zm8.86-21.51c-.02-.94-.88-1.73-1.81-1.67-.91,.06-1.6,.82-1.59,1.76,.02,.99,.79,1.7,1.78,1.64,.92-.05,1.64-.82,1.62-1.73Zm-17.74,17.77c-.02-.94-.84-1.71-1.78-1.67-.9,.04-1.63,.8-1.64,1.7,0,.94,.78,1.74,1.73,1.73,.94,0,1.72-.81,1.7-1.76Z"/><path class="cls-1" d="M83.73,12.24c.13,.34-.13,.45-.35,.6-1.45,.97-2.61,2.26-3.8,3.51-.44,.46-1.06,.9-.8,1.72l-.06,.06c-.35-.25-.45,.05-.59,.27-1.61,2.51-2.46,5.26-2.68,8.22-.98,1.21-.98,1.7-.02,2.92,.32,3.68,1.59,6.98,3.84,9.92,1.26,1.64,2.77,2.99,4.5,4.12,.14,.09,.22,.29,.33,.44-5.58-1.71-9.23-5.43-11.03-10.92-2.83-8.65,2.21-18.41,10.67-20.85Z"/><path class="cls-4" d="M84.32,12.09c-.12,.25-.3,.26-.51,.13,.17-.04,.34-.09,.51-.13Z"/><path class="cls-13" d="M87.28,25.19c0-.88-.02-1.75,0-2.63,.04-1,.69-1.69,1.6-1.73,.96-.05,1.75,.63,1.79,1.67,.06,1.33,.05,2.66,0,3.99-.02,.63,.17,1.07,.65,1.47,.64,.54,1.25,1.11,1.82,1.72,.73,.77,.72,1.77,.04,2.45-.64,.65-1.61,.7-2.36,.04-1.03-.9-2-1.86-2.99-2.81-.41-.39-.59-.86-.57-1.43,.02-.91,0-1.83,0-2.74Z"/><path class="cls-12" d="M97.87,35.25c.91,.02,1.67,.77,1.69,1.68,.02,.94-.8,1.76-1.74,1.75-.96-.01-1.7-.81-1.66-1.8,.04-.93,.79-1.64,1.71-1.63Z"/><path class="cls-12" d="M101.5,26.36c.93,0,1.76,.85,1.73,1.77-.03,.92-.78,1.64-1.71,1.65-.94,0-1.67-.69-1.7-1.63-.03-.97,.73-1.79,1.68-1.79Z"/><path class="cls-12" d="M78.77,18.07c.44-.38,.93-.65,1.54-.57,.95,.13,1.63,1.02,1.48,1.95-.15,.94-1.02,1.56-1.99,1.41-.92-.14-1.57-1.06-1.38-2,.05-.25,.19-.49,.29-.74,0,0,.06-.06,.06-.06Z"/><path class="cls-12" d="M88.98,17.21c-.94,0-1.67-.69-1.7-1.63-.03-.97,.73-1.78,1.68-1.79,.93,0,1.76,.84,1.73,1.77-.03,.91-.79,1.64-1.71,1.65Z"/><path class="cls-12" d="M90.69,40.66c-.01,.93-.83,1.71-1.77,1.69-.95-.02-1.68-.82-1.64-1.78,.04-.91,.78-1.64,1.69-1.64,.93,0,1.74,.82,1.73,1.74Z"/><path class="cls-12" d="M75.42,29.53c-.97-1.22-.97-1.72,.02-2.92,.83-.35,1.62-.39,2.27,.35,.56,.64,.62,1.38,.13,2.08-.63,.89-1.49,.89-2.41,.49Z"/><path class="cls-12" d="M99.55,19.15c.02,.91-.69,1.68-1.62,1.73-1,.05-1.76-.65-1.78-1.64-.02-.93,.67-1.7,1.59-1.76,.93-.06,1.79,.73,1.81,1.67Z"/><path class="cls-12" d="M81.82,36.92c.02,.94-.75,1.75-1.7,1.76-.94,0-1.73-.79-1.73-1.73,0-.9,.74-1.66,1.64-1.7,.94-.04,1.76,.72,1.78,1.67Z"/></g></g></svg>