<?xml version="1.0" encoding="UTF-8"?><svg id="Layer_2" xmlns="http://www.w3.org/2000/svg" viewBox="0 0 124.29 124.31"><defs><style>.cls-1{fill:#00dabd;}.cls-2{fill:#e9f6f6;}.cls-3{fill:#add;}.cls-4{fill:#1a2959;}</style></defs><g id="Layer_1-2"><g id="xDaHVd"><g><path class="cls-4" d="M70.15,108.77c-1.63-.28-2.04-.73-2.16-2.38-.35-4.76,.21-9.44,1.3-14.07,.05-.23,.09-.47,.18-.89-1.25,.25-2.4,.49-3.56,.71-6.2,1.15-12.42,1.57-18.39-.85-9.27-3.75-14.65-10.67-15.98-20.63-.66-4.92,.04-9.76,1.11-14.55,.2-.9,.38-1.36-.94-1.05-5.1,1.21-10.27,1.79-15.51,1.04-5.5-.79-10.19-3.2-14.13-7.11-.96-.96-1.34-2.24-2.07-3.32v-3.4c.36-.1,.29-.46,.37-.7,1.93-5.14,7.87-6.6,11.95-2.94q1.49,1.34,2.93-.09c7.72-7.72,15.44-15.44,23.16-23.16,1.52-1.52,1.53-1.53,.1-3.1-1.73-1.91-2.33-4.16-1.75-6.63,1.28-5.43,7.89-7.5,11.97-3.69,4.6,4.29,6.96,9.72,7.54,15.94,.11,1.2-.51,1.9-1.65,2.16-1.31-.09-1.88-.81-2.01-2.11-.5-4.94-2.38-9.28-5.87-12.87-.45-.47-.93-.9-1.55-1.14-1.6-.61-3.35-.1-4.31,1.27-1,1.42-.9,3.31,.4,4.67,2.67,2.79,3.97,6.12,4.14,9.95,.21,4.67-.76,9.17-2.09,13.59-1.87,6.18-3.97,12.29-5.82,18.47-1.82,6.1-3.08,12.29-2.34,18.75,1.07,9.39,9.08,17.43,18.46,18.51,5.57,.64,10.95-.27,16.3-1.63,.59-.15,.76-.5,.9-.97,.67-2.16,1.35-4.31,2.02-6.47,.09-.29,.41-.63,.08-.87-.15-.11-.53,.03-.79,.11-3.91,1.18-7.84,2.25-11.92,2.64-4.42,.42-8.66,0-12.33-2.81-5-3.85-6.11-9.16-5.53-15.07,.48-4.93,1.91-9.65,3.41-14.35,2.43-7.61,5.3-15.09,6.53-23.04,.18-1.19,.91-1.75,2.09-1.76,1.38,.55,1.69,1.02,1.46,2.48-.28,1.79-.64,3.56-.99,5.45,2.21-.39,4.36-.82,6.52-1.13,4.61-.66,9.19-.61,13.69,.71,9.64,2.84,16.64,11.37,17.7,21.38,.51,4.89-.08,9.68-1.15,14.43-.21,.94-.34,1.34,.96,1.04,5.55-1.3,11.15-1.91,16.82-.81,4.94,.96,9.18,3.25,12.71,6.82,2.85,2.88,2.89,7.29,.18,10.16-2.76,2.92-7.19,3.07-10.25,.34q-1.59-1.41-3.1,.1c-7.69,7.69-15.38,15.38-23.07,23.08q-1.52,1.52-.1,3.1c1.85,2.07,2.42,4.48,1.6,7.1-.85,2.7-2.67,4.45-5.56,4.93-.09,.01-.16,.14-.24,.21h-2.91c-3.65-1.57-5.81-4.61-7.71-7.89-.75-1.3-.61-1.9,.5-2.94,1.31-.43,2.16,.09,2.76,1.26,.91,1.78,2.15,3.32,3.55,4.74,.98,.99,2.16,1.42,3.53,1.07,2.79-.71,3.71-3.97,1.66-6.14-2.85-3.02-4.08-6.6-4.12-10.69-.05-5.04,1.21-9.84,2.64-14.6,1.95-6.49,4.39-12.83,6.07-19.4,1.47-5.75,2.42-11.54,1.32-17.5-1.65-8.9-9.5-16.1-18.49-17.05-5.45-.58-10.7,.31-15.94,1.62-.62,.16-.83,.5-1,1.03-.66,2.16-1.34,4.31-2.01,6.47-.09,.29-.34,.57-.06,.95,.52-.15,1.06-.3,1.59-.46,4.89-1.44,9.82-2.72,14.98-2.51,7.48,.3,12.92,5.25,13.94,12.66,.57,4.17-.21,8.21-1.2,12.23-1.55,6.31-3.88,12.39-5.8,18.59-2.11,6.82-3.85,13.7-3.2,20.94,.1,1.13-.58,1.69-1.51,2.07Zm6.03-52.78c-1.87,1.84-3.75,3.67-5.61,5.53-4.88,4.89-9.75,9.8-14.62,14.7-.6,.57-1.2,1.14-1.88,1.79,1.23,.39,2.3,.44,3.37,.42,.55,0,1.11,.1,1.56-.42,.6-.7,1.27-1.34,1.9-2.01,5.09-4.95,10.11-9.97,15.06-15.06,2.6-1.63,2.97-3.94,1.98-6.8-.62,.66-1.2,1.26-1.77,1.86Zm-12.81-7.65c-2.01,1.98-4.04,3.95-6.03,5.95-3.02,3.03-6.02,6.08-9.03,9.12-2.62,1.61-2.96,3.92-1.98,6.79,.62-.65,1.19-1.25,1.75-1.85,.33-.3,.67-.58,.98-.89,5.55-5.54,11.09-11.09,16.64-16.64,.88-.89,1.74-1.8,2.61-2.7,.6-.57,1.2-1.14,1.94-1.84-1.21-.27-2.18-.42-3.18-.37-.58,.03-1.21-.2-1.71,.34-.65,.71-1.33,1.4-1.99,2.1Zm21.58,56.31c3.52-3.49,7.05-6.97,10.56-10.48,3.05-3.05,6.07-6.13,9.11-9.19,.75-.63,1.46-1.29,2.07-2.12-1.18-.4-2.31-.3-3.43-.37-.7-.04-1.23,.18-1.68,.71-.52,.61-1.1,1.17-1.65,1.75-5.07,4.93-10.07,9.93-15,15-2.64,2.27-3.14,3.94-1.97,6.81,.69-.72,1.34-1.41,2-2.11ZM39.34,19.68c-2.84,2.81-5.69,5.61-8.51,8.44-3.74,3.74-7.45,7.5-11.18,11.25-.75,.62-1.46,1.29-2.06,2.11,1.18,.4,2.32,.3,3.44,.37,.7,.05,1.23-.18,1.68-.71,.52-.61,1.1-1.17,1.65-1.75,5.07-4.93,10.07-9.93,15-15,2.65-2.28,3.12-3.85,1.98-6.82-.69,.72-1.35,1.41-2,2.11Zm-2.77,22.92c-.39-.16-.64,.03-.9,.11-3.75,1.12-7.52,2.19-11.42,2.6-5.27,.56-10.25,.02-14.31-3.92-1.6-1.55-3.88-1.51-5.3,0-1.43,1.51-1.31,3.71,.3,5.29,3.86,3.78,8.53,5.69,13.89,6.04,4.94,.32,9.73-.56,14.48-1.75,.53-.13,.78-.41,.94-.95,.74-2.47,1.53-4.92,2.32-7.42Zm51.09,39.3c.63-.18,1.09-.31,1.55-.45,5.01-1.49,10.04-2.81,15.33-2.57,3.74,.17,7.01,1.41,9.74,4.01,1.64,1.56,3.89,1.57,5.31,.1,1.49-1.54,1.37-3.74-.31-5.38-2.75-2.69-5.99-4.52-9.74-5.38-6.38-1.47-12.6-.39-18.79,1.21-.47,.12-.59,.46-.72,.87-.76,2.47-1.54,4.93-2.38,7.59Zm-37.21-5.48c.24-.22,.53-.48,.81-.76,7.83-7.83,15.67-15.67,23.5-23.5,1.94-1.94,1.91-2.14-.34-3.89-.44-.35-.69-.37-1.07,.05-.71,.77-1.48,1.49-2.22,2.24-7.49,7.49-14.98,14.98-22.47,22.47-.28,.28-.58,.58-.77,.92-.11,.2,2.18,2.45,2.55,2.47Zm8-29.35c-2.93,.71-5.73,1.58-8.53,2.48-.45,.14-.44,.56-.54,.88-.84,2.61-1.67,5.22-2.27,7.89-.04,.2-.48,.47-.04,.68,.31,.14,.52-.1,.72-.31,3.63-3.63,7.26-7.25,10.88-10.88,.16-.16,.44-.33,.26-.59-.08-.12-.35-.12-.48-.15Zm6.4,30.17c.57,0,.82,.04,1.05,0,2.83-.64,5.58-1.52,8.34-2.41,.3-.1,.46-.25,.56-.55,.89-2.72,1.73-5.44,2.4-8.22,.05-.22,.17-.51-.06-.67-.26-.18-.44,.08-.61,.25-3.82,3.8-7.64,7.61-11.67,11.62ZM40.84,28.5c-4.14,4.14-8.24,8.24-12.29,12.29-.02,0,.1,.04,.2,.02,2.99-.67,5.91-1.59,8.83-2.52,.32-.1,.56-.25,.67-.61,.95-3.03,1.93-6.05,2.6-9.19Zm54.93,54.97c-3.1,.69-6.17,1.64-9.23,2.65-.27,.09-.39,.25-.47,.49-.98,3.06-1.97,6.11-2.61,9.16,4.06-4.06,8.16-8.16,12.3-12.29Z"/><path class="cls-1" d="M54.4,24.92c-1.18,.01-1.9,.57-2.09,1.76-1.23,7.95-4.1,15.43-6.53,23.04-1.5,4.7-2.92,9.41-3.41,14.35-.58,5.91,.53,11.22,5.53,15.07,3.67,2.82,7.91,3.24,12.33,2.81,4.08-.39,8.01-1.46,11.92-2.64,.26-.08,.64-.23,.79-.11,.33,.24,0,.58-.08,.87-.67,2.16-1.35,4.31-2.02,6.47-.15,.47-.31,.82-.9,.97-5.36,1.36-10.73,2.26-16.3,1.63-9.38-1.07-17.39-9.11-18.46-18.51-.74-6.46,.52-12.64,2.34-18.75,1.85-6.19,3.95-12.29,5.82-18.47,1.34-4.42,2.3-8.92,2.09-13.59-.17-3.83-1.47-7.15-4.14-9.95-1.3-1.36-1.4-3.25-.4-4.67,.97-1.37,2.72-1.88,4.31-1.27,.62,.24,1.1,.67,1.55,1.14,3.49,3.59,5.37,7.93,5.87,12.87,.13,1.3,.7,2.02,2.01,2.11-.08,1.62-.16,3.25-.24,4.87Z"/><path class="cls-3" d="M70.15,108.77c.92-.38,1.61-.94,1.51-2.07-.65-7.24,1.09-14.12,3.2-20.94,1.92-6.2,4.24-12.28,5.8-18.59,.99-4.01,1.78-8.06,1.2-12.23-1.02-7.41-6.46-12.35-13.94-12.66-5.17-.21-10.09,1.07-14.98,2.51-.53,.16-1.07,.31-1.59,.46-.27-.39-.03-.66,.06-.95,.67-2.16,1.35-4.31,2.01-6.47,.16-.53,.38-.87,1-1.03,5.24-1.31,10.49-2.2,15.94-1.62,8.99,.95,16.84,8.16,18.49,17.05,1.1,5.96,.15,11.75-1.32,17.5-1.68,6.57-4.11,12.91-6.07,19.4-1.43,4.76-2.69,9.56-2.64,14.6,.04,4.09,1.27,7.67,4.12,10.69,2.05,2.17,1.12,5.43-1.66,6.14-1.37,.35-2.55-.08-3.53-1.07-1.4-1.42-2.63-2.96-3.55-4.74-.6-1.18-1.45-1.69-2.76-1.26-.37-1.59-1.05-3.09-1.29-4.71Z"/><path class="cls-3" d="M36.57,42.6c-.78,2.49-1.58,4.95-2.32,7.42-.16,.54-.42,.82-.94,.95-4.76,1.19-9.55,2.07-14.48,1.75-5.36-.34-10.03-2.26-13.89-6.04-1.61-1.58-1.73-3.78-.3-5.29,1.42-1.5,3.7-1.54,5.3,0,4.06,3.94,9.04,4.47,14.31,3.92,3.91-.41,7.67-1.48,11.42-2.6,.26-.08,.51-.27,.9-.11Z"/><path class="cls-1" d="M87.66,81.9c.84-2.67,1.62-5.13,2.38-7.59,.13-.41,.25-.75,.72-.87,6.19-1.6,12.42-2.68,18.79-1.21,3.74,.86,6.99,2.69,9.74,5.38,1.68,1.65,1.8,3.85,.31,5.38-1.43,1.47-3.68,1.45-5.31-.1-2.74-2.6-6.01-3.84-9.74-4.01-5.3-.24-10.33,1.09-15.33,2.57-.45,.13-.91,.26-1.55,.45Z"/><path class="cls-2" d="M19.65,39.37c3.73-3.75,7.44-7.51,11.18-11.25,2.82-2.83,5.67-5.63,8.51-8.44,.35,.32,.19,.75,.23,1.14,.12,1.2-.16,2.39-.2,3.58-4.93,5.07-9.93,10.07-15,15-.4-.05-.79,.07-1.18,.1-1.18,.1-2.37,.34-3.53-.12Z"/><path class="cls-2" d="M104.62,84.98c-3.04,3.06-6.06,6.14-9.11,9.19-3.51,3.51-7.04,6.99-10.56,10.48-.36-.32-.2-.74-.24-1.13-.12-1.2,.16-2.38,.21-3.57,4.93-5.07,9.93-10.07,15-15,.4,.05,.79-.07,1.18-.1,1.17-.1,2.37-.35,3.52,.13Z"/><path class="cls-2" d="M48.32,63.4c3.01-3.04,6.01-6.09,9.03-9.12,1.99-2,4.02-3.96,6.03-5.95,1.65,.08,3.28-.44,4.94-.23-.87,.9-1.72,1.81-2.61,2.7-5.54,5.55-11.09,11.09-16.64,16.64-.31,.31-.66,.59-.98,.89-.2-1.66,.25-3.29,.23-4.94Z"/><path class="cls-2" d="M75.97,60.94c-4.95,5.09-9.97,10.11-15.06,15.06-1.65-.03-3.29,.45-4.95,.22,4.87-4.9,9.74-9.8,14.62-14.7,1.85-1.86,3.74-3.69,5.61-5.53,.24,1.66-.31,3.29-.21,4.95Z"/><path class="cls-3" d="M75.97,60.94c-.1-1.66,.45-3.28,.21-4.95,.57-.6,1.14-1.2,1.77-1.86,.99,2.87,.62,5.18-1.98,6.8Z"/><path class="cls-3" d="M68.32,48.11c-1.66-.21-3.29,.31-4.94,.23,.66-.7,1.34-1.39,1.99-2.1,.5-.54,1.13-.3,1.71-.34,1-.06,1.97,.1,3.18,.37-.74,.7-1.34,1.27-1.94,1.84Z"/><path class="cls-3" d="M48.32,63.4c.02,1.65-.43,3.28-.23,4.94-.57,.6-1.14,1.2-1.75,1.85-.98-2.86-.64-5.18,1.98-6.79Z"/><path class="cls-3" d="M55.96,76.22c1.66,.23,3.3-.25,4.95-.22-.64,.67-1.31,1.31-1.9,2.01-.45,.52-1.01,.41-1.56,.42-1.08,.01-2.15-.03-3.37-.42,.68-.65,1.28-1.22,1.88-1.79Z"/><path class="cls-3" d="M39.36,24.39c.04-1.2,.32-2.38,.2-3.58-.04-.39,.12-.81-.23-1.14,.66-.69,1.31-1.38,2-2.11,1.14,2.98,.67,4.54-1.98,6.82Z"/><path class="cls-3" d="M19.65,39.37c1.16,.46,2.36,.22,3.53,.12,.39-.03,.78-.15,1.18-.1-.55,.58-1.13,1.14-1.65,1.75-.46,.54-.98,.76-1.68,.71-1.12-.07-2.26,.02-3.44-.37,.6-.82,1.31-1.49,2.06-2.11Z"/><path class="cls-3" d="M104.62,84.98c-1.16-.48-2.35-.23-3.52-.13-.39,.03-.78,.15-1.18,.1,.55-.58,1.14-1.14,1.65-1.75,.46-.54,.98-.76,1.68-.71,1.12,.07,2.26-.03,3.43,.37-.61,.83-1.32,1.5-2.07,2.12Z"/><path class="cls-3" d="M84.92,99.95c-.05,1.19-.32,2.37-.21,3.57,.04,.38-.13,.81,.24,1.13-.66,.69-1.31,1.38-2,2.11-1.17-2.86-.67-4.53,1.97-6.81Z"/></g></g></g></svg>