<?xml version="1.0" encoding="UTF-8"?><svg id="Layer_2" xmlns="http://www.w3.org/2000/svg" viewBox="0 0 200 200"><defs><style>.cls-1{fill:#e9f6f6;}.cls-2{fill:#fff;}.cls-3{fill:#b6e5f5;}.cls-4{fill:#add;}.cls-5{fill:#e1e3e7;}.cls-6{fill:#06ffd5;}.cls-7{fill:#1a2959;}</style></defs><g id="Layer_1-2"><circle class="cls-1" cx="100" cy="100" r="100"/><g><path class="cls-7" d="M122.45,148.32h-44.7c-.15,.36,.17,.59,.32,.85,2.29,3.93,3.27,8.17,3.21,12.71-.01,.9-.31,1.03-1.1,1.03-10.37-.02-20.74-.02-31.11-.02-4.12,0-8.24-.02-12.37,.02-.93,0-1.32-.12-1.31-1.22,.14-10.5,4.93-17.9,14.51-22.19,.14-.06,.29-.13,.56-.26-3.26-2.93-4.92-6.48-4.57-10.8,.26-3.19,1.6-5.91,3.96-8.11,4.72-4.41,12.03-4.49,16.79-.17,2.83,2.56,4.21,5.78,4.19,9.59-.02,3.05-.77,4.62-4.45,9.49,5.69,2.82,5.89,2.98,10.7,8.19-.11-5.09,1.06-9.72,3.83-13.88,2.75-4.14,6.48-7.04,11.07-8.86-.07-.48-.47-.65-.73-.92-2.46-2.5-3.77-5.49-3.72-9.01,.01-.74-.23-1.11-.83-1.55-6.71-4.85-13.45-9.68-20.07-14.66-4.79-3.61-8.37-8.27-11-13.67-.64-1.32-1.32-2.62-1.99-3.95q-1.65,1.31-3.15-.19c-5.03-5.04-10.05-10.1-15.11-15.11-.65-.64-.79-.96-.05-1.7,8.81-8.76,17.58-17.56,26.33-26.37,.59-.6,.91-.77,1.6-.07,5.3,5.38,10.64,10.73,16.01,16.05,.68,.67,.64,1.05-.05,1.6-.59,.48-1.11,1.04-1.83,1.73,3.29,.38,6.29,.75,9.29,1.06,3.87,.4,7.39,1.71,10.65,3.82,6.18,4.01,12.31,8.1,18.6,11.93,5.41,3.3,9.54,7.86,13.48,12.69,3.98,4.88,8.05,9.68,12.12,14.48,2.98,3.51,2.9,8.39-.26,11.56-3.2,3.2-8.19,3.31-11.6,.11-2.25-2.11-4.33-4.39-6.78-6.89,0,2.01,.03,3.63,0,5.24-.11,4.63-3.98,8.49-8.56,8.05-2.03-.2-2.85,.29-3.51,2.06-.53,1.42-1.73,2.46-2.89,3.57,9.89,4.37,14.89,11.92,15.04,22.92,2.84-3.84,6.37-6.54,10.7-8.2-5.78-7.21-5.97-13.8-.6-18.89,4.69-4.46,12-4.6,16.79-.32,2.88,2.58,4.32,5.82,4.27,9.68-.06,3.82-1.74,6.9-4.61,9.48,5.36,2.12,9.41,5.55,12.17,10.47,2.16,3.85,2.97,8.01,2.91,12.39-.02,.97-.55,.78-1.08,.78-7.16,0-14.32,0-21.48,0s-14.75-.02-22.13,.02c-.97,0-1.19-.22-1.21-1.2-.05-4.77,1.09-9.19,3.74-13.4Zm-3.71-52.08c0-4.22-.15-8.44,.06-12.65,.11-2.17-.65-3.41-2.38-4.51-7.46-4.74-14.86-9.59-22.31-14.36-1.84-1.18-3.86-2-6.03-2.28-4.47-.58-8.96-1.04-13.43-1.6-.73-.09-1.21,.11-1.71,.62-5.17,5.21-10.35,10.41-15.56,15.58-.59,.58-.57,1-.22,1.66,.86,1.61,1.64,3.25,2.46,4.88,2.46,4.9,5.86,9.01,10.26,12.27,2.58,1.91,5.18,3.8,7.77,5.69,3.72,2.71,7.4,5.46,11.16,8.11,3.43,2.42,7.99,.92,8.93-2.88,.52-2.12-.24-3.82-1.81-5.24-5.65-5.09-11.23-10.24-16.96-15.23-1.53-1.33-2.1-2.72-1.91-4.64,.16-1.64,1.25-2.54,2.84-2.1,7.06,1.92,14.13,3.8,21.16,5.81,5.75,1.65,9.32,6.53,9.34,12.5,.01,3.04,0,6.09,0,9.13,0,.47-.06,.94,.23,1.38,1.02,1.6,1.58,3.38,1.77,5.26,.07,.64,.36,.88,.91,1.06,2.68,.89,5.39-1.12,5.41-4.09,.03-4.78,0-9.57,0-14.35Zm-66.76-19.94c.42-.02,.57-.32,.78-.53,6.9-6.91,13.8-13.83,20.71-20.72,.5-.5,.59-.79,.03-1.34-3.46-3.42-6.89-6.86-10.31-10.32-.48-.48-.77-.63-1.33-.06-6.91,6.96-13.84,13.9-20.78,20.83-.46,.46-.54,.74-.03,1.24,3.49,3.45,6.94,6.93,10.41,10.4,.18,.18,.37,.35,.53,.49Zm6.34,82.42c5.77,0,11.54-.04,17.31,.03,1.17,.01,1.38-.33,1.15-1.38-1.05-4.98-3.6-8.97-7.72-11.96-.69-.5-1.09-.52-1.69,.16-2.73,3.09-5.54,6.11-8.29,9.19-.56,.63-.87,.71-1.48,.02-2.77-3.12-5.6-6.18-8.39-9.28-.42-.47-.73-.72-1.38-.27-4.31,3.06-6.99,7.15-7.99,12.35-.18,.92,.08,1.16,1.02,1.15,5.81-.04,11.63-.02,17.44-.02Zm83.38,0c5.76,0,11.53-.04,17.29,.03,1.25,.02,1.31-.44,1.1-1.42-1.04-4.98-3.61-8.95-7.72-11.94-.71-.51-1.1-.47-1.68,.19-2.7,3.05-5.49,6.03-8.19,9.09-.64,.72-.97,.81-1.66,.03-2.69-3.06-5.48-6.04-8.19-9.09-.56-.62-.93-.79-1.68-.24-4.15,3.02-6.75,7.02-7.77,12.05-.19,.92-.08,1.35,1.07,1.33,5.81-.07,11.62-.03,17.42-.03Zm-41.74-14.61c5.77,0,11.54-.03,17.31,.03,1.1,.01,1.43-.22,1.19-1.34-1.06-5.03-3.62-9.05-7.8-12.05-.64-.46-1.01-.49-1.58,.15-2.68,3.02-5.44,5.97-8.11,9-.72,.81-1.09,1.01-1.92,.05-2.67-3.09-5.47-6.06-8.2-9.1-.44-.5-.76-.66-1.37-.23-4.31,3.06-6.98,7.15-7.98,12.35-.18,.92,.08,1.15,1.01,1.14,5.81-.04,11.63-.02,17.44-.02Zm-41.67-22.95c-4.59,.02-8.32,3.8-8.29,8.42,.03,4.54,3.77,8.26,8.3,8.27,4.59,.01,8.36-3.75,8.35-8.36,0-4.6-3.77-8.35-8.37-8.34Zm83.38,0c-4.6,0-8.35,3.75-8.35,8.36,0,4.55,3.71,8.3,8.24,8.33,4.6,.04,8.39-3.7,8.41-8.29,.02-4.61-3.72-8.39-8.31-8.4Zm-18.76-36c0,.64,0,.9,0,1.16,0,4.3,0,8.6-.01,12.9,0,.53,.18,.88,.54,1.24,2.99,2.97,5.93,5.97,8.94,8.92,1.8,1.77,4.26,1.78,5.94,.14,1.64-1.6,1.68-3.97,.09-5.86-2.12-2.53-4.23-5.06-6.35-7.59-2.97-3.55-5.95-7.09-9.15-10.91Zm-14.59,29.71c0-3.45-2.3-6.71-5.48-7.79-.53-.18-.85-.35-1.06,.49-1.15,4.58-4.47,7.21-9.17,7.31-.84,.02-1.02,.23-.92,1.03,.55,4.34,4.4,7.57,8.81,7.33,4.34-.24,7.82-3.96,7.82-8.36Zm-2.08-10.84c0-2.17,.02-4.19,0-6.21-.05-4.14-2.52-7.38-6.52-8.51-3.7-1.05-7.41-2.06-11.12-3.08-1.42-.39-2.86-.75-4.29-1.12,.09,.39,.27,.56,.45,.73,4.54,4.09,9.07,8.19,13.63,12.27,1.18,1.06,2.18,2.23,2.81,3.69,.16,.38,.31,.72,.77,.78,1.47,.17,2.81,.76,4.27,1.45Zm-42.11,38.94c-3.96-1.22-7.69-1.26-11.57,.03,1.86,2.06,3.61,3.97,5.34,5.9,.27,.3,.46,.46,.81,.06,1.75-1.96,3.53-3.9,5.42-5.98Zm30.08-14.59c1.89,2.08,3.68,4.05,5.47,6.03,.23,.25,.41,.24,.63,0,1.78-1.97,3.57-3.94,5.46-6.02-3.94-1.25-7.63-1.26-11.56,0Zm53.23,14.6c-3.95-1.24-7.65-1.25-11.57,.01,1.9,2.09,3.69,4.07,5.48,6.04,.33,.37,.52,.08,.72-.14,1.74-1.92,3.48-3.83,5.37-5.92Z"/><path class="cls-7" d="M163.9,37.06c-.2,.23-.36,.43-.54,.61-5.64,5.65-11.28,11.3-16.91,16.96-.46,.46-.72,.56-1.22,.03-1.47-1.54-2.98-3.03-4.5-4.52-.44-.42-.54-.75,0-1.13,.04-.02,.06-.06,.09-.09,.75-.72,1.41-1.89,2.26-2.05,.82-.15,1.48,1.15,2.14,1.86,.61,.66,.9,.27,1.32-.15,4.53-4.55,9.09-9.07,13.58-13.66,.75-.76,1.17-.73,1.79,.04,.46,.57,1.03,1.05,1.55,1.58,.15,.15,.27,.32,.43,.51Z"/><path class="cls-7" d="M145.87,60.62c3.45,.02,6.25,2.9,6.19,6.38-.05,3.4-2.89,6.17-6.3,6.14-3.45-.02-6.25-2.9-6.19-6.38,.05-3.4,2.89-6.16,6.3-6.14Zm-.06,8.34c1.11,0,2.06-.92,2.08-2.04,.02-1.12-.88-2.08-2-2.12-1.17-.04-2.16,.93-2.15,2.1,.01,1.12,.95,2.05,2.07,2.06Z"/><path class="cls-7" d="M122.79,52.27c-3.77,0-7.55-.02-11.32,.02-.82,0-1.09-.17-1.08-1.05,.02-3.14-.02-3.14,3.14-3.14,6.9,0,13.8,.02,20.69-.02,.94,0,1.24,.18,1.22,1.18-.06,3.01-.01,3.01-3.01,3.01-3.21,0-6.42,0-9.63,0Z"/><path class="cls-7" d="M122.92,56.45c3.82,0,7.64,.03,11.45-.02,.87-.01,1.06,.25,1.05,1.08-.02,3.12,.01,3.12-3.03,3.12-6.94,0-13.88-.02-20.82,.03-.99,0-1.21-.26-1.19-1.21,.06-2.99,.01-2.99,3.03-2.99s6.33,0,9.5,0Z"/><path class="cls-7" d="M118.62,68.97c-2.43,0-4.86-.03-7.29,.02-.73,.01-.93-.18-.94-.93-.04-3.26-.06-3.26,3.14-3.26,4.16,0,8.33,.02,12.49-.02,.84,0,1.08,.2,1.07,1.06-.02,3.13,.02,3.13-3.15,3.13-1.78,0-3.56,0-5.34,0Z"/><path class="cls-7" d="M135.41,66.99q0,1.98-1.93,1.98-2.23,0-2.23-2.2,0-1.98,1.93-1.98,2.23,0,2.23,2.2Z"/><path class="cls-2" d="M118.74,96.23c0,4.78,.02,9.57,0,14.35-.02,2.97-2.73,4.98-5.41,4.09-.55-.18-.85-.42-.91-1.06-.19-1.88-.75-3.65-1.77-5.26-.29-.45-.23-.91-.23-1.38,0-3.04,0-6.09,0-9.13-.03-5.97-3.59-10.85-9.34-12.5-7.03-2.02-14.1-3.9-21.16-5.81-1.6-.43-2.68,.47-2.84,2.1-.19,1.92,.38,3.31,1.91,4.64,5.73,4.99,11.32,10.15,16.96,15.23,1.57,1.42,2.33,3.13,1.81,5.24-.94,3.8-5.5,5.3-8.93,2.88-3.76-2.65-7.45-5.4-11.16-8.11-2.59-1.89-5.2-3.77-7.77-5.69-4.4-3.27-7.8-7.38-10.26-12.27-.82-1.63-1.6-3.27-2.46-4.88-.35-.66-.37-1.08,.22-1.66,5.21-5.17,10.39-10.37,15.56-15.58,.5-.51,.98-.71,1.71-.62,4.47,.56,8.96,1.02,13.43,1.6,2.17,.28,4.2,1.1,6.03,2.28,7.45,4.77,14.85,9.62,22.31,14.36,1.73,1.1,2.49,2.35,2.38,4.51-.21,4.21-.06,8.43-.06,12.65Z"/><path class="cls-6" d="M51.98,76.29c-.16-.14-.35-.31-.53-.49-3.47-3.47-6.92-6.95-10.41-10.4-.51-.5-.43-.78,.03-1.24,6.94-6.93,13.88-13.87,20.78-20.83,.57-.57,.86-.42,1.33,.06,3.42,3.46,6.85,6.9,10.31,10.32,.55,.54,.47,.84-.03,1.34-6.91,6.9-13.81,13.81-20.71,20.72-.21,.21-.36,.5-.78,.53Z"/><path class="cls-4" d="M58.32,158.71c-5.81,0-11.63-.02-17.44,.02-.94,0-1.2-.23-1.02-1.15,1-5.2,3.68-9.3,7.99-12.35,.64-.46,.95-.2,1.38,.27,2.79,3.1,5.62,6.16,8.39,9.28,.61,.69,.92,.61,1.48-.02,2.75-3.08,5.56-6.1,8.29-9.19,.6-.68,1-.67,1.69-.16,4.12,3,6.67,6.98,7.72,11.96,.22,1.05,.02,1.4-1.15,1.38-5.77-.07-11.54-.03-17.31-.03Z"/><path class="cls-4" d="M141.7,158.71c-5.81,0-11.62-.04-17.42,.03-1.16,.01-1.26-.42-1.07-1.33,1.03-5.03,3.62-9.03,7.77-12.05,.75-.54,1.12-.38,1.68,.24,2.71,3.05,5.5,6.02,8.19,9.09,.69,.78,1.02,.69,1.66-.03,2.7-3.05,5.49-6.03,8.19-9.09,.58-.66,.98-.7,1.68-.19,4.11,2.99,6.68,6.96,7.72,11.94,.2,.97,.14,1.43-1.1,1.42-5.76-.07-11.53-.03-17.29-.03Z"/><path class="cls-3" d="M99.96,144.1c-5.81,0-11.63-.02-17.44,.02-.93,0-1.19-.22-1.01-1.14,1-5.2,3.67-9.3,7.98-12.35,.62-.44,.93-.27,1.37,.23,2.72,3.04,5.53,6.01,8.2,9.1,.83,.96,1.21,.76,1.92-.05,2.67-3.03,5.43-5.98,8.11-9,.57-.64,.94-.61,1.58-.15,4.18,3,6.74,7.02,7.8,12.05,.24,1.12-.09,1.35-1.19,1.34-5.77-.06-11.54-.03-17.31-.03Z"/><path class="cls-2" d="M58.29,121.15c4.6-.02,8.37,3.73,8.37,8.34,0,4.6-3.76,8.37-8.35,8.36-4.54-.01-8.27-3.74-8.3-8.27-.03-4.62,3.7-8.4,8.29-8.42Z"/><path class="cls-6" d="M141.68,121.15c4.59,0,8.33,3.79,8.31,8.4-.02,4.59-3.81,8.33-8.41,8.29-4.53-.04-8.24-3.79-8.24-8.33,0-4.61,3.75-8.37,8.35-8.36Z"/><path class="cls-2" d="M122.91,85.15c3.2,3.82,6.17,7.36,9.15,10.91,2.12,2.53,4.23,5.06,6.35,7.59,1.58,1.89,1.54,4.26-.09,5.86-1.67,1.64-4.13,1.63-5.94-.14-3.01-2.95-5.95-5.95-8.94-8.92-.36-.36-.54-.71-.54-1.24,.02-4.3,.01-8.6,.01-12.9,0-.26,0-.51,0-1.16Z"/><path class="cls-2" d="M108.32,114.86c0,4.4-3.48,8.12-7.82,8.36-4.4,.24-8.26-2.99-8.81-7.33-.1-.79,.08-1.01,.92-1.03,4.7-.09,8.02-2.73,9.17-7.31,.21-.84,.54-.67,1.06-.49,3.18,1.08,5.47,4.34,5.48,7.79Z"/><path class="cls-5" d="M64.13,142.96c-1.89,2.08-3.67,4.02-5.42,5.98-.35,.4-.54,.24-.81-.06-1.74-1.92-3.48-3.84-5.34-5.9,3.88-1.28,7.61-1.25,11.57-.03Z"/><path class="cls-1" d="M94.22,128.37c3.93-1.26,7.62-1.25,11.56,0-1.89,2.08-3.68,4.05-5.46,6.02-.22,.25-.41,.26-.63,0-1.79-1.97-3.58-3.94-5.47-6.03Z"/><path class="cls-6" d="M147.45,142.96c-1.89,2.08-3.63,4-5.37,5.92-.2,.22-.38,.51-.72,.14-1.79-1.98-3.58-3.95-5.48-6.04,3.92-1.26,7.61-1.25,11.57-.01Z"/><path class="cls-6" d="M145.81,68.96c-1.12,0-2.05-.94-2.07-2.06-.01-1.17,.98-2.15,2.15-2.1,1.12,.04,2.03,1,2,2.12-.02,1.12-.97,2.04-2.08,2.04Z"/></g></g></svg>