<?xml version="1.0" encoding="UTF-8"?><svg id="Layer_2" xmlns="http://www.w3.org/2000/svg" viewBox="0 0 111.6 111.43"><defs><style>.cls-1{fill:#e9f6f6;}.cls-2{fill:#b6e5f5;}.cls-3{fill:#add;}.cls-4{fill:#c8cdd4;}.cls-5{fill:#06ffd5;}.cls-6{fill:#1a2959;}.cls-7{fill:#449d84;}</style></defs><g id="circles"><path class="cls-4" d="M49.8,73.47c0-12.1,9.81-21.84,21.97-21.83,12.11,.01,21.91,9.83,21.9,21.93,0,12.12-9.9,21.95-22.07,21.92-12.08-.03-21.81-9.86-21.81-22.02Zm21.96-18.74c-10.51,.09-18.92,8.52-18.86,18.9,.06,10.44,8.55,18.8,19.01,18.73,10.38-.07,18.73-8.64,18.62-19.11-.1-10.16-8.67-18.61-18.77-18.52Z"/></g><g id="Layer_1-2"><g id="_4wMrpB"><g><path class="cls-6" d="M95.49,10.99c-4.38,0-8.76,.02-13.14-.02-.69,0-1.1,.21-1.48,.78-1.06,1.58-2.16,3.13-3.33,4.64-.53,.69-.46,1.06,.16,1.65,5.77,5.52,9.5,12.19,11.14,20.01,1.07,5.1,1.05,10.2,0,15.3-.13,.64-.12,1.07,.43,1.59,8.02,7.54,10.3,19.22,5.72,29.23-.28,.62-.24,.95,.27,1.43,4.77,4.43,9.51,8.9,14.27,13.35,2.26,2.11,2.69,4.59,1.21,7.31-1.04,1.91-2.51,3.44-4.46,4.45-2.37,1.22-4.67,.88-6.61-.94-4.75-4.45-9.51-8.9-14.25-13.37-.57-.54-.96-.69-1.74-.28-12.68,6.78-28.45,1.72-34.85-11.16-.37-.75-.79-1-1.61-1.09-8.02-.86-15.09-3.94-21.17-9.25-.67-.59-1.07-.76-1.82-.07-1.68,1.54-3.47,2.98-5.25,4.4-.51,.41-.66,.83-.65,1.45,.03,2.78-.01,5.56,.03,8.34,0,.67-.12,.9-.86,.9-2.82,0-2.82,.03-2.82-2.81,0-2.7,.02-5.41-.02-8.11,0-.67,.19-1.11,.71-1.54,2.19-1.77,4.32-3.61,6.52-5.38,.6-.48,.56-.76,.08-1.31-4.94-5.8-7.83-12.51-8.88-20.04-.11-.8-.04-1.09,.91-1.08,5.48,.05,10.97,.04,16.46,.01,.74,0,1.01,.2,1.21,.94,2.1,7.77,6.99,12.78,14.79,14.94,.81,.22,1.09,.04,1.38-.73,3.49-9.47,12.45-16.04,22.49-16.48,.77-.03,.94-.31,1.01-.98,.92-10.09-7.12-19.99-17.18-21.24-3.16-.39-6.23-.14-9.24,.82-.69,.22-.99,.07-1.32-.55-2.62-4.89-5.27-9.76-7.94-14.62-.32-.58-.28-.78,.36-1.04,13.1-5.19,25.52-3.99,37.22,3.92,.77,.52,1.07,.39,1.54-.3,1.37-2.01,2.83-3.96,4.21-5.97,.38-.55,.78-.79,1.48-.78,9.45,.03,18.89,.03,28.34,0,.84,0,.98,.25,.97,1.02-.03,2.66,0,2.66-2.62,2.66-3.89,0-7.77,0-11.66,0Zm-44.22,0c-1.95-.04-3.88,.15-5.8,.49-1.38,.24-2.74,.64-4.11,.92-.77,.16-.83,.46-.45,1.12,1.5,2.69,2.97,5.39,4.39,8.12,.39,.74,.82,.92,1.6,.75,2.67-.58,5.37-.59,8.06-.14,12.23,2.02,20.7,12.69,19.96,25.14-.04,.66,.13,.82,.75,.92,3.18,.49,6.2,1.52,8.96,3.18,.71,.43,.83,.23,.93-.5,1.58-11.65-1.84-21.62-10.04-29.99-.22-.22-.43-.7-.78-.52-.49,.25-.07,.67,.03,1,.59,1.99-.08,3.99-1.73,5.14-1.67,1.16-3.82,1.1-5.42-.15-1.57-1.23-2.17-3.37-1.45-5.24,.72-1.86,2.56-3.02,4.59-2.92,.34,.02,.83,.33,1.01-.16,.2-.55-.42-.65-.71-.86-5.94-4.15-12.55-6.22-19.78-6.3Zm-1.47,62.48c0,12.16,9.73,21.99,21.81,22.02,12.16,.03,22.06-9.79,22.07-21.92,0-12.1-9.8-21.92-21.9-21.93-12.17-.01-21.97,9.73-21.97,21.83ZM17.29,53.05c.1,.46,.17,.83,.26,1.2,1.3,5.18,3.71,9.78,7.16,13.85,.22,.26,.36,.81,.83,.61,.53-.22,.26-.69,.18-1.09-.41-2.04,.66-4.1,2.57-4.99,1.91-.89,4.15-.37,5.46,1.26,1.22,1.52,1.37,3.57,.36,5.23-1.03,1.7-2.92,2.51-4.9,2.09-.37-.08-.78-.29-1.03,.13-.22,.37,.21,.51,.42,.69,5.1,4.34,10.94,7.07,17.58,8.06,.65,.1,.84,0,.67-.65-.81-3.18-.92-6.39-.42-9.63,.1-.63-.11-.87-.72-1-1.98-.41-3.86-1.14-5.64-2.11-5.3-2.87-9.01-7.13-11.16-12.77-.15-.39-.12-.91-.81-.9-3.57,.02-7.15,.01-10.81,.01Zm90.62,50.07c.03-.6-.36-1.01-.79-1.41-4.61-4.31-9.22-8.62-13.81-12.96-.57-.54-.79-.4-1.17,.14-1.06,1.55-2.34,2.91-3.81,4.06-.63,.49-.49,.74,0,1.2,4.65,4.33,9.28,8.67,13.9,13.02,.42,.39,.87,.58,1.43,.54,1.69-.11,4.28-2.88,4.24-4.6ZM71.35,22.82c-.1-.49-.37-.85-.9-.84-.58,0-.93,.36-.91,.94,.03,.58,.42,.9,.99,.85,.52-.05,.78-.41,.81-.95ZM31.12,66.65c-.12-.39-.35-.79-.89-.79-.58,0-.94,.35-.93,.92,.02,.58,.4,.91,.98,.87,.52-.04,.79-.4,.84-1Z"/><path class="cls-6" d="M32.2,12.36c2.78,5.26,5.49,10.43,8.25,15.59,.38,.7-.11,.85-.49,1.11-4.57,3.21-7.44,7.53-8.5,13.02-.16,.82-.32,1.66-.3,2.49,.02,.93-.25,1.2-1.21,1.19-5.37-.05-10.74-.05-16.11,0-.86,0-1.06-.19-1.03-1.05,.28-6.82,2.1-13.18,5.71-18.99,.48-.77,.46-1.3,0-2.03-.9-1.45-1.76-2.93-2.54-4.45-.39-.76-.88-.95-1.69-.94-4.42,.04-8.83,0-13.25,.04-.89,.01-1.05-.25-1.03-1.07,.06-2.4,.04-4.8,0-7.2,0-.63,.05-.92,.83-.93,2.84,0,2.84-.04,2.84,2.78s0,2.73,2.76,2.75c.78,0,.92-.24,.91-.96-.03-4.23,.01-8.45-.04-12.68C7.31,.15,7.56-.01,8.39,0c2.61,.05,2.61,.01,2.61,2.66,0,3.69,.02,7.39-.02,11.08,0,.77,.22,.93,.95,.92,2.73-.02,2.73,.01,2.73-2.66,0-1.9,.03-3.81-.02-5.71-.02-.67,.21-.8,.83-.8,2.84-.03,2.84-.05,2.84,2.77,0,1.22,.11,2.45-.02,3.65-.3,2.81,.33,5.32,2.02,7.58,.42,.57,.72,1.23,1.15,1.99,3.05-3.7,6.59-6.71,10.73-9.13Zm-11.68,17.84c.14-.6,1.08-.92,.66-1.84-.45,.64-.79,1.21-1,1.85-1.79,3.49-2.85,7.19-3.43,11.06-.1,.69,.11,.83,.76,.83,3.16-.03,6.32-.03,9.48,0,.59,0,.79-.21,.9-.74,.99-5.31,3.52-9.76,7.55-13.35,.54-.48,.47-.81,.18-1.34-1.51-2.81-2.99-5.64-4.48-8.47-.1-.19-.15-.43-.44-.47-2.57,1.87-4.81,4.08-6.77,6.58-.18,.23-.43,.43-.39,.79,.09,.79,1.46,2.31,2.29,2.53,2.09,.57,3.46,2.32,3.45,4.42,0,2.05-1.36,3.81-3.37,4.37-1.74,.48-3.27,.03-4.49-1.24-1.36-1.43-1.63-3.13-.91-4.97Zm4.24,2.74c.52-.1,.86-.38,.85-.91-.01-.57-.36-.93-.95-.9-.52,.03-.85,.37-.85,.89,0,.59,.39,.86,.94,.92Z"/><path class="cls-6" d="M19.12,104.24c-6.02,0-12.04-.02-18.05,.02-.86,0-1.07-.2-1.05-1.05,.05-2.62,.01-2.63,2.66-2.63,11.54,0,23.08,.01,34.62-.02,.95,0,1.2,.22,1.17,1.17-.07,2.51-.02,2.51-2.54,2.51H19.12Z"/><path class="cls-6" d="M98.72,25.62c-3.35,0-6.7-.02-10.05,.02-.7,0-.88-.16-.88-.87,0-2.8-.03-2.8,2.82-2.8,6.06,0,12.11,.02,18.17-.02,.79,0,1.01,.18,1,.99-.04,2.69,0,2.69-2.71,2.69s-5.56,0-8.34,0Z"/><path class="cls-6" d="M28.49,93.27c3.01,0,6.02,.03,9.03-.02,.75-.01,.94,.19,.94,.93-.02,2.74,.01,2.74-2.77,2.74-5.45,0-10.89-.02-16.34,.02-.85,0-1.07-.2-1.05-1.05,.05-2.63,.01-2.63,2.66-2.63s5.03,0,7.54,0Z"/><path class="cls-6" d="M7.29,96.93c-2.17,0-4.34-.02-6.51,.01-.59,0-.75-.15-.76-.75-.06-2.92-.08-2.92,2.82-2.92,3.66,0,7.31,.02,10.97-.02,.7,0,.88,.16,.88,.87,0,2.8,.03,2.8-2.82,2.8-1.52,0-3.05,0-4.57,0Z"/><path class="cls-6" d="M92.38,14.65c1.29,0,2.59,.03,3.88-.01,.55-.02,.68,.16,.7,.7,.11,2.97,.13,2.97-2.88,2.97-1.83,0-3.66-.03-5.48,.02-.65,.02-.81-.18-.82-.82-.03-2.85-.05-2.85,2.76-2.85,.61,0,1.22,0,1.83,0Z"/><path class="cls-6" d="M105.07,18.31c-1.26,0-2.51-.02-3.77,.01-.54,.02-.69-.13-.71-.69-.12-2.98-.14-2.98,2.87-2.98,1.87,0,3.73,.02,5.6-.01,.54,0,.69,.13,.71,.69,.12,2.98,.14,2.98-2.87,2.98-.61,0-1.22,0-1.83,0Z"/><path class="cls-3" d="M51.27,10.99c7.24,.07,13.84,2.15,19.78,6.3,.3,.21,.92,.31,.71,.86-.18,.5-.67,.18-1.01,.16-2.03-.1-3.88,1.06-4.59,2.92-.72,1.87-.13,4.01,1.45,5.24,1.61,1.25,3.75,1.31,5.42,.15,1.66-1.15,2.33-3.15,1.73-5.14-.1-.33-.51-.74-.03-1,.35-.18,.56,.29,.78,.52,8.2,8.37,11.62,18.34,10.04,29.99-.1,.73-.21,.93-.93,.5-2.77-1.67-5.78-2.69-8.96-3.18-.62-.1-.79-.26-.75-.92,.74-12.45-7.73-23.11-19.96-25.14-2.69-.44-5.39-.44-8.06,.14-.79,.17-1.22,0-1.6-.75-1.42-2.73-2.89-5.43-4.39-8.12-.37-.67-.31-.96,.45-1.12,1.38-.29,2.73-.68,4.11-.92,1.91-.33,3.85-.52,5.8-.49Z"/><path class="cls-1" d="M49.8,73.47c0-12.1,9.81-21.84,21.97-21.83,12.11,.01,21.91,9.83,21.9,21.93,0,12.12-9.9,21.95-22.07,21.92-12.08-.03-21.81-9.86-21.81-22.02Zm21.96-18.74c-10.51,.09-18.92,8.52-18.86,18.9,.06,10.44,8.55,18.8,19.01,18.73,10.38-.07,18.73-8.64,18.62-19.11-.1-10.16-8.67-18.61-18.77-18.52Z"/><path class="cls-3" d="M17.29,53.05c3.66,0,7.24,.01,10.81-.01,.68,0,.66,.51,.81,.9,2.14,5.63,5.86,9.9,11.16,12.77,1.78,.96,3.65,1.69,5.64,2.11,.61,.13,.81,.36,.72,1-.49,3.23-.38,6.45,.42,9.63,.16,.65-.03,.75-.67,.65-6.64-.99-12.48-3.71-17.58-8.06-.2-.17-.63-.32-.42-.69,.25-.42,.66-.21,1.03-.13,1.98,.42,3.87-.4,4.9-2.09,1-1.66,.86-3.71-.36-5.23-1.32-1.63-3.55-2.15-5.46-1.26-1.91,.89-2.98,2.94-2.57,4.99,.08,.41,.35,.87-.18,1.09-.47,.2-.61-.35-.83-.61-3.44-4.07-5.86-8.67-7.16-13.85-.09-.36-.16-.73-.26-1.2Z"/><path class="cls-2" d="M107.91,103.12c.04,1.72-2.54,4.49-4.24,4.6-.57,.04-1.01-.15-1.43-.54-4.62-4.35-9.26-8.7-13.9-13.02-.49-.46-.63-.71,0-1.2,1.48-1.15,2.76-2.51,3.81-4.06,.37-.55,.6-.68,1.17-.14,4.58,4.34,9.2,8.65,13.81,12.96,.42,.4,.82,.8,.79,1.41Z"/><path class="cls-5" d="M20.52,30.19c-.72,1.84-.46,3.54,.91,4.97,1.22,1.28,2.74,1.73,4.49,1.24,2.01-.56,3.36-2.32,3.37-4.37,0-2.1-1.36-3.85-3.45-4.42-.83-.23-2.19-1.75-2.29-2.53-.04-.36,.21-.56,.39-.79,1.96-2.5,4.2-4.71,6.77-6.58,.29,.05,.34,.29,.44,.47,1.49,2.82,2.97,5.65,4.48,8.47,.29,.53,.35,.87-.18,1.34-4.03,3.59-6.56,8.04-7.55,13.35-.1,.54-.31,.75-.9,.74-3.16-.03-6.32-.03-9.48,0-.65,0-.86-.14-.76-.83,.57-3.86,1.64-7.57,3.43-11.06,.11,0,.23,0,.34-.01Z"/><path class="cls-7" d="M20.52,30.19c-.11,0-.23,0-.34,.01,.21-.64,.55-1.21,1-1.85,.42,.92-.53,1.24-.66,1.84Z"/><path class="cls-6" d="M71.76,54.73c10.1-.09,18.67,8.36,18.77,18.52,.11,10.48-8.24,19.04-18.62,19.11-10.46,.07-18.95-8.3-19.01-18.73-.06-10.38,8.35-18.81,18.86-18.9Zm-.19,3.67c-8.28,.05-15.09,6.94-15.01,15.21,.07,8.4,6.9,15.15,15.25,15.09,8.38-.06,15.1-6.87,15.07-15.26-.04-8.34-6.9-15.08-15.3-15.04Z"/><path class="cls-2" d="M71.57,58.4c8.4-.05,15.26,6.7,15.3,15.04,.04,8.39-6.69,15.2-15.07,15.26-8.35,.06-15.17-6.69-15.25-15.09-.07-8.27,6.74-15.17,15.01-15.21Z"/></g></g></g></svg>