<?xml version="1.0" encoding="UTF-8"?><svg id="Layer_2" xmlns="http://www.w3.org/2000/svg" viewBox="0 0 136.51 136.5"><defs><style>.cls-1{fill:#f9f9f9;}.cls-2{fill:#fdfdfd;}.cls-3{fill:#b6e5f5;}.cls-4{fill:#06ffd5;}.cls-5{fill:#1a2959;}</style></defs><g id="Layer_1-2"><g id="hwWwIH"><g><path class="cls-5" d="M96.88,68.25c0,2.38-.03,4.77,.02,7.15,.02,.76-.18,1.16-.94,1.36-.79,.21-1.54,.57-2.33,.81-1.07,.32-1.38,.95-.88,1.96,.02,.04,.03,.08,.05,.13,.43,1.04,1.49,2.07,1.22,3.09-.25,.93-1.4,1.62-2.18,2.4-2.75,2.76-5.54,5.49-8.25,8.29-.67,.7-1.2,.79-1.99,.3-.66-.4-1.4-.68-2.09-1.02-.94-.45-1.57-.18-1.91,.8-.04,.13-.09,.26-.14,.39q-1.08,2.96-4.29,2.96c-3.99,0-7.98-.03-11.97,.02-.87,0-1.33-.21-1.52-1.1-.17-.8-.52-1.56-.8-2.33-.33-.89-.91-1.22-1.81-.75-.04,.02-.09,.03-.13,.04-1.1,.42-2.15,1.6-3.21,1.25-1.02-.34-1.75-1.55-2.59-2.39-2.7-2.69-5.36-5.4-8.09-8.06-.63-.61-.8-1.1-.34-1.87,.42-.7,.71-1.48,1.08-2.21,.45-.89,.16-1.47-.71-1.84-.13-.05-.26-.09-.39-.14-.99-.36-2.39-.44-2.86-1.15-.51-.77-.2-2.12-.2-3.21-.01-3.99,.02-7.98-.02-11.97,0-.81,.19-1.24,1-1.45,.79-.2,1.55-.53,2.33-.8,.95-.33,1.27-.88,.85-1.89-.46-1.12-1.68-2.22-1.29-3.33,.37-1.06,1.62-1.81,2.5-2.68,2.66-2.66,5.34-5.3,7.96-7.99,.63-.64,1.13-.75,1.88-.31,.71,.41,1.48,.71,2.22,1.08,.9,.45,1.48,.14,1.82-.75,.02-.04,.02-.09,.04-.13,.4-1.07,.5-2.58,1.27-3.08,.85-.55,2.3-.19,3.49-.19,3.9,0,7.8,.03,11.69-.03,.85-.01,1.21,.28,1.42,1.04,.21,.79,.54,1.55,.81,2.33,.34,.97,.95,1.22,1.91,.81,1.11-.47,2.21-1.64,3.33-1.26,1.01,.34,1.74,1.56,2.58,2.41,2.69,2.69,5.36,5.4,8.09,8.06,.59,.58,.75,1.04,.31,1.76-.42,.7-.72,1.48-1.09,2.22-.46,.93-.23,1.56,.75,1.93,1.11,.41,2.68,.53,3.19,1.33,.57,.88,.18,2.39,.19,3.63,.01,1.47,0,2.93,0,4.4Zm-15.24,20.61c.4,0,.6-.35,.84-.6,1.53-1.52,3.05-3.04,4.57-4.57,1.81-1.81,1.84-1.82,.79-4.13-.57-1.25,.56-2,.76-3.02,.33-1.64,1.22-2.67,2.94-2.92,.67-.1,.95-.48,.94-1.23-.05-2.8-.03-5.59,0-8.39,0-.6-.15-.98-.77-1.06-1.95-.27-2.6-1.66-3.31-3.3-.63-1.48-.86-2.7,.11-4.02,.45-.62,.34-1.09-.25-1.63-1.54-1.44-3-2.97-4.49-4.46-1.87-1.87-1.88-1.89-4.23-.86-1.31,.57-2.07-.66-3.15-.85-1.55-.26-2.51-1.15-2.73-2.76-.11-.82-.6-1.06-1.44-1.04-2.66,.06-5.32,.06-7.98,0-.85-.02-1.23,.28-1.44,1.06-.19,.7-.24,1.78-.82,1.95-2.07,.63-3.96,2.81-6.41,.96-.46-.34-.9-.46-1.42,.09-2,2.08-4.06,4.11-6.12,6.14-.33,.33-.52,.63-.19,1.06,1.24,1.63,.81,3.17,.04,4.91-.62,1.41-1.26,2.45-2.86,2.68-.72,.1-1.04,.48-1.02,1.31,.07,2.75,.04,5.5,.01,8.25,0,.65,.18,.95,.83,1.17,.76,.25,1.97,.25,2.19,.95,.63,2.06,2.83,3.97,.93,6.41-.43,.56-.3,1.01,.23,1.52,1.63,1.55,3.19,3.16,4.78,4.75,1.69,1.7,1.73,1.77,3.8,.7,1.44-.74,2.26,.57,3.41,.78,1.47,.27,2.43,1.11,2.64,2.68,.11,.86,.62,1.14,1.52,1.11,2.61-.07,5.23-.07,7.84,0,.92,.03,1.28-.33,1.54-1.13,.23-.72,.21-1.76,.97-2.01,2.11-.68,4.14-2.7,6.55-.7,.1,.09,.24,.13,.39,.21Z"/><path class="cls-5" d="M113.93,98.19c-3.71,.93-7.29,1.8-10.86,2.74-.9,.23-1.43,.22-1.56-.9-.12-1.02-.99-2.23-.52-2.96,.4-.63,1.81-.62,2.78-.87,5.63-1.42,11.26-2.82,17-4.26,.57,4.53,1.14,9.02,1.7,13.51,.23,1.86,.41,3.74,.72,5.59,.14,.81-.11,.98-.84,1.12-3.34,.61-3.35,.63-3.81-2.69-.36-2.61-.68-5.22-1.05-8.07-1.04,1.39-1.9,2.61-2.84,3.77-10.76,13.24-24.59,20.79-41.62,22.3-9.86,.88-19.32-.78-28.43-4.65-1.08-.46-1.26-.89-.68-1.86,.49-.82,.65-2.08,1.34-2.46,.74-.4,1.71,.54,2.59,.89,23.7,9.5,50.95,1.27,65.47-19.81,.25-.36,.63-.68,.62-1.39Z"/><path class="cls-5" d="M48.44,17.6c0,3.58,.01,7.15,0,10.73-.02,4.09-2.82,6.89-6.93,6.9-7.11,.01-14.22,.01-21.32,0-4.18,0-6.96-2.8-6.96-7-.01-7.06-.01-14.12,0-21.19C13.23,2.76,15.99,.01,20.29,0c7.06,0,14.12-.01,21.19,0,4.19,0,6.95,2.79,6.96,7,.01,3.53,0,7.06,0,10.59Zm-17.62,13.23c3.48,0,6.96,0,10.44,0,1.99,0,2.77-.77,2.77-2.72,0-7.01,0-14.02,0-21.02,0-1.88-.8-2.66-2.68-2.67-7.01,0-14.02,0-21.02,0-1.9,0-2.7,.78-2.7,2.65-.01,7.01,0,14.02,0,21.02,0,1.97,.78,2.73,2.75,2.74,3.48,0,6.96,0,10.44,0Z"/><path class="cls-5" d="M118.89,50.64c3.58,0,7.15-.01,10.73,0,4.03,.02,6.86,2.8,6.88,6.81,.02,7.2,.02,14.4,0,21.6-.01,4-2.85,6.8-6.88,6.81-7.15,.02-14.31,.02-21.46,0-4.08,0-6.87-2.83-6.88-6.95-.01-7.11-.01-14.22,0-21.32,0-4.17,2.81-6.93,7.01-6.95,3.53-.01,7.06,0,10.59,0Zm13.21,17.62c0-3.44,0-6.87,0-10.31,0-2.17-.72-2.91-2.86-2.91-6.92,0-13.83,0-20.75,0-2.06,0-2.81,.75-2.81,2.82,0,6.92,0,13.83,0,20.75,0,2.08,.75,2.84,2.79,2.84,6.96,0,13.92,0,20.89,0,1.97,0,2.73-.78,2.74-2.75,.01-3.48,0-6.96,0-10.44Z"/><path class="cls-5" d="M17.76,101.27c3.53,0,7.06-.01,10.59,0,4.03,.02,6.86,2.8,6.87,6.81,.02,7.2,.02,14.4,0,21.6-.01,4-2.85,6.8-6.88,6.81-7.15,.02-14.31,.02-21.46,0-4.03,0-6.86-2.81-6.87-6.81-.02-7.2-.02-14.4,0-21.6,.01-4,2.85-6.79,6.88-6.81,3.62-.02,7.25,0,10.87,0Zm13.07,17.6c0-3.53,.01-7.05,0-10.58,0-1.8-.81-2.61-2.6-2.61-7.05-.01-14.11-.01-21.16,0-1.87,0-2.65,.8-2.65,2.7,0,7.01,0,14.02,0,21.02,0,1.89,.79,2.68,2.67,2.69,7.01,.01,14.02,0,21.02,0,1.95,0,2.72-.78,2.72-2.77,0-3.48,0-6.96,0-10.44Z"/><path class="cls-5" d="M64.58,13.24c2.31,1.54,4.31,2.89,6.33,4.22,.53,.35,.76,.57,.32,1.26-1.92,2.99-1.89,3.01-4.88,1.01-4.3-2.86-8.59-5.73-12.89-8.6,.15-.52,.59-.63,.91-.84,4.64-3.11,9.3-6.18,13.92-9.31,.74-.5,1.08-.46,1.58,.28,1.84,2.76,1.87,2.74-.91,4.59-1.36,.91-2.71,1.82-4.32,2.9,3.04,.14,5.8,.02,8.56,.27,15.7,1.44,28.84,8.01,39.43,19.66,3.06,3.37,5.6,7.11,7.83,11.08,.48,.85,.39,1.25-.52,1.61-.97,.38-1.94,1.49-2.78,1.2-.72-.24-1.06-1.6-1.59-2.45-9.29-14.98-22.6-23.86-40.08-26.4-1.67-.24-3.37-.39-5.06-.47-1.82-.08-3.65-.02-5.85-.02Z"/><path class="cls-5" d="M12.81,88.76c-1.69-4.61-3.04-9.31-3.6-14.2-1.22-10.67,.47-20.89,4.81-30.7,.27-.6,.5-.73,1.1-.41,.96,.52,2.35,.71,2.87,1.49,.57,.87-.53,1.96-.9,2.95-4.92,12.88-5.28,25.79-.3,38.75,.1,.25,.21,.49,.43,.98,.44-1.8,.83-3.35,1.2-4.9,.39-1.6,.84-3.19,1.11-4.81,.2-1.2,.67-1.39,1.79-1.09,2.84,.75,2.86,.7,2.15,3.63-1.3,5.43-2.62,10.85-3.87,16.29-.2,.88-.37,1.03-1.2,.57-5.43-3.03-10.88-6.02-16.34-9-.68-.37-.96-.68-.43-1.43,.62-.89,.93-2.36,1.73-2.67,.83-.33,1.88,.83,2.84,1.34,2.14,1.12,4.27,2.28,6.4,3.42,.06,.12,.15,.23,.27,.12,.04-.04-.03-.21-.05-.32Z"/><path class="cls-4" d="M81.64,88.86c-.15-.08-.29-.13-.39-.21-2.41-2-4.44,.02-6.55,.7-.77,.25-.75,1.29-.97,2.01-.25,.8-.62,1.15-1.54,1.13-2.61-.08-5.23-.07-7.84,0-.9,.02-1.41-.26-1.52-1.11-.21-1.57-1.17-2.41-2.64-2.68-1.14-.21-1.97-1.52-3.41-.78-2.07,1.07-2.1,1-3.8-.7-1.59-1.59-3.15-3.2-4.78-4.75-.53-.5-.66-.96-.23-1.52,1.91-2.44-.3-4.35-.93-6.41-.21-.7-1.42-.7-2.19-.95-.65-.22-.84-.52-.83-1.17,.03-2.75,.05-5.5-.01-8.25-.02-.83,.3-1.21,1.02-1.31,1.6-.23,2.24-1.27,2.86-2.68,.77-1.74,1.2-3.28-.04-4.91-.32-.43-.14-.73,.19-1.06,2.05-2.03,4.11-4.06,6.12-6.14,.53-.55,.97-.43,1.42-.09,2.45,1.85,4.34-.33,6.41-.96,.58-.18,.63-1.26,.82-1.95,.21-.78,.59-1.08,1.44-1.06,2.66,.06,5.32,.06,7.98,0,.83-.02,1.32,.22,1.44,1.04,.22,1.61,1.17,2.5,2.73,2.76,1.08,.18,1.84,1.42,3.15,.85,2.36-1.03,2.37-1.01,4.23,.86,1.49,1.49,2.95,3.02,4.49,4.46,.58,.55,.7,1.02,.25,1.63-.97,1.33-.74,2.54-.11,4.02,.7,1.64,1.36,3.04,3.31,3.3,.62,.08,.78,.47,.77,1.06-.03,2.8-.04,5.59,0,8.39,.01,.75-.27,1.14-.94,1.23-1.72,.25-2.61,1.28-2.94,2.92-.2,1.02-1.33,1.77-.76,3.02,1.04,2.31,1.02,2.32-.79,4.13-1.52,1.52-3.04,3.05-4.57,4.57-.25,.25-.44,.6-.84,.6Zm-31-20.72c-.04,9.68,7.81,17.66,17.44,17.72,9.75,.06,17.74-7.8,17.79-17.5,.04-9.68-7.81-17.66-17.44-17.72-9.75-.06-17.75,7.81-17.79,17.5Z"/><path class="cls-3" d="M30.82,30.83c-3.48,0-6.96,0-10.44,0-1.98,0-2.75-.77-2.75-2.74,0-7.01,0-14.02,0-21.02,0-1.87,.8-2.65,2.7-2.65,7.01,0,14.02,0,21.02,0,1.89,0,2.68,.79,2.68,2.67,.01,7.01,0,14.02,0,21.02,0,1.95-.79,2.72-2.77,2.72-3.48,0-6.96,0-10.44,0Zm-4.38-3.54c.31-.29,.58-.53,.83-.78,3.88-3.88,7.77-7.76,11.65-11.65,2.32-2.32,2.29-2.29,0-4.61-.7-.71-1.07-.63-1.71,.04-3.3,3.36-6.66,6.67-9.97,10.03-.61,.62-.95,.7-1.61,.03-2.06-2.1-2.1-2.07-4.28,.14-.1,.1-.18,.21-.29,.29-.52,.39-.51,.74-.03,1.2,1.64,1.59,3.25,3.23,4.87,4.84,.16,.15,.33,.29,.54,.47Z"/><path class="cls-4" d="M132.1,68.26c0,3.48,0,6.96,0,10.44,0,1.97-.77,2.75-2.74,2.75-6.96,0-13.92,0-20.89,0-2.04,0-2.78-.77-2.79-2.84,0-6.92,0-13.83,0-20.75,0-2.07,.75-2.82,2.81-2.82,6.92,0,13.83,0,20.75,0,2.13,0,2.85,.74,2.86,2.91,0,3.44,0,6.87,0,10.31Zm-2.92-5.08c-.18-.21-.32-.39-.48-.55-.55-.55-1.15-1.06-1.64-1.66-.63-.78-1.07-.8-1.81-.04-3.29,3.38-6.65,6.68-9.98,10.02-.43,.43-.73,.88-1.41,.2-.74-.74-1.35-2.17-2.39-1.92-.91,.22-1.57,1.45-2.38,2.18-.51,.46-.44,.77,.02,1.21,1.61,1.56,3.21,3.14,4.75,4.76,.54,.57,.83,.41,1.3-.06,4.45-4.48,8.92-8.94,13.38-13.41,.22-.22,.41-.48,.63-.73Z"/><path class="cls-3" d="M30.83,118.88c0,3.48,0,6.96,0,10.44,0,1.99-.77,2.77-2.72,2.77-7.01,0-14.02,0-21.02,0-1.88,0-2.66-.8-2.67-2.69,0-7.01,0-14.02,0-21.02,0-1.9,.78-2.7,2.65-2.7,7.05-.01,14.11-.01,21.16,0,1.79,0,2.59,.82,2.6,2.61,.02,3.53,0,7.05,0,10.58Zm-17.6,9.68c.33-.31,.59-.55,.85-.81,3.92-3.91,7.83-7.83,11.75-11.74,2.19-2.19,2.16-2.16-.03-4.42-.69-.72-1.07-.79-1.82-.03-3.29,3.38-6.65,6.68-9.98,10.02-.43,.43-.73,.88-1.41,.2-.74-.74-1.35-2.17-2.39-1.92-.91,.22-1.57,1.45-2.38,2.18-.51,.46-.43,.77,.02,1.21,1.61,1.56,3.18,3.16,4.77,4.74,.19,.18,.39,.35,.62,.55Z"/><path class="cls-2" d="M12.81,88.76c.02,.11,.1,.28,.05,.32-.12,.11-.21,0-.27-.12,.07-.07,.14-.14,.22-.2Z"/><path class="cls-5" d="M50.64,68.14c.04-9.69,8.03-17.56,17.79-17.5,9.63,.06,17.48,8.04,17.44,17.72-.04,9.7-8.04,17.57-17.79,17.5-9.63-.06-17.47-8.04-17.44-17.72Zm30.82,.13c.01-7.27-5.92-13.22-13.18-13.23-7.26-.01-13.22,5.92-13.23,13.18-.01,7.26,5.93,13.22,13.18,13.23,7.26,.01,13.22-5.92,13.23-13.18Z"/><path class="cls-5" d="M26.44,27.29c-.21-.18-.39-.32-.54-.47-1.62-1.62-3.22-3.25-4.87-4.84-.48-.47-.49-.81,.03-1.2,.11-.08,.2-.19,.29-.29,2.18-2.21,2.22-2.24,4.28-.14,.66,.67,1,.59,1.61-.03,3.3-3.36,6.67-6.66,9.97-10.03,.65-.66,1.01-.75,1.71-.04,2.28,2.32,2.31,2.29,0,4.61-3.88,3.88-7.77,7.77-11.65,11.65-.25,.25-.52,.49-.83,.78Z"/><path class="cls-5" d="M129.18,63.18c-.22,.26-.41,.51-.63,.73-4.46,4.47-8.93,8.93-13.38,13.41-.47,.47-.76,.63-1.3,.06-1.55-1.62-3.15-3.2-4.75-4.76-.46-.44-.53-.75-.02-1.21,.82-.73,1.47-1.97,2.38-2.18,1.03-.24,1.65,1.18,2.39,1.92,.68,.68,.98,.23,1.41-.2,3.33-3.34,6.69-6.64,9.98-10.02,.74-.76,1.18-.75,1.81,.04,.49,.6,1.09,1.11,1.64,1.66,.16,.16,.3,.34,.48,.55Z"/><path class="cls-5" d="M13.23,128.56c-.23-.2-.43-.37-.62-.55-1.59-1.58-3.16-3.18-4.77-4.74-.45-.44-.53-.75-.02-1.21,.82-.73,1.47-1.97,2.38-2.18,1.04-.25,1.65,1.18,2.39,1.92,.68,.68,.98,.23,1.41-.2,3.33-3.34,6.69-6.64,9.98-10.02,.74-.76,1.12-.69,1.82,.03,2.19,2.26,2.22,2.23,.03,4.42-3.92,3.92-7.83,7.83-11.75,11.74-.25,.25-.52,.5-.85,.81Z"/><path class="cls-3" d="M81.46,68.27c-.01,7.26-5.96,13.19-13.23,13.18-7.26-.01-13.19-5.97-13.18-13.23,.01-7.26,5.97-13.19,13.23-13.18,7.26,.01,13.19,5.96,13.18,13.23Zm-4.4-.04c0-4.86-3.99-8.81-8.86-8.78-4.79,.02-8.73,3.96-8.75,8.75-.02,4.86,3.94,8.85,8.79,8.86,4.86,0,8.83-3.97,8.82-8.82Z"/><path class="cls-5" d="M77.06,68.23c0,4.86-3.96,8.83-8.82,8.82-4.85,0-8.81-4-8.79-8.86,.02-4.79,3.96-8.73,8.75-8.75,4.87-.02,8.85,3.93,8.86,8.78Zm-13.2-.05c-.03,2.38,1.89,4.4,4.26,4.47,2.43,.07,4.5-1.91,4.54-4.33,.04-2.44-1.97-4.47-4.4-4.47-2.39,0-4.37,1.94-4.4,4.33Z"/><path class="cls-1" d="M63.85,68.18c.03-2.39,2.01-4.33,4.4-4.33,2.43,0,4.44,2.04,4.4,4.47-.04,2.43-2.11,4.4-4.54,4.33-2.37-.07-4.29-2.09-4.26-4.47Z"/></g></g></g></svg>