<?xml version="1.0" encoding="UTF-8"?><svg id="Layer_2" xmlns="http://www.w3.org/2000/svg" viewBox="0 0 117 117.13"><defs><style>.cls-1{fill:#e9f6f6;}.cls-2{fill:#fff;}.cls-3{fill:#1a2959;}.cls-4{fill:#636363;}</style></defs><g id="Layer_1-2"><g><path class="cls-3" d="M51.92,0c1.69,1.59,2.93,3.55,4.36,5.36,2.97,3.77,5.89,7.57,8.83,11.36,1.08,1.39,1.01,2.17-.28,3.32-5.2,4.63-10.4,9.27-15.61,13.9-1.41,1.25-2.41,1.12-3.46-.43-.58-.85-.97-2.05-1.77-2.45-.77-.38-1.71,.68-2.64,.95-1.13,.33-2.26,.69-3.44,.74-.72,.03-1.02,.17-.89,1.06,1.27,8.66,2.5,17.33,3.7,26,.13,.95,.54,.55,.97,.34,2.97-1.48,6.04-2.64,9.31-3.25,7.21-1.35,13.66,.29,19.26,5.01,1.01,.85,1.38,.66,2.14-.23,4.08-4.78,9.03-8.23,15.28-9.52,5.93-1.22,11.64-.28,17.19,1.92,3.76,1.49,7.25,3.48,10.46,5.95,.59,.45,1.1,.99,1.65,1.5,0,18.22,0,36.44,.02,54.66,0,.78-.15,.97-.94,.94-1.75-.08-3.5-.02-5.25-.02-.38-.29-.76-.39-1.14,0h-2.28c-.06-.25-.27-.22-.45-.23-1.9-.15-3.79-.26-5.68-.46-6.17-.64-12.29-1.59-18.15-3.69-1.76-.63-3.34-.93-5.06-.03-.56,.29-1.23,.37-1.86,.51-5.69,1.36-11.49,1.71-17.3,1.98-6.61,.31-13.13-.11-19.54-1.9-10.38-2.9-19.88-7.68-28.73-13.73-2.66-1.82-5.21-3.1-8.45-2.6-.18,.03-.39,.01-.57-.03-.77-.18-1.42-.66-1.44-1.43-.05-2.24-.41-4.52,.14-6.71C6.27,65.33,12.29,41.89,18.27,18.43c.25-.97,.73-1.58,1.61-2.04,8.49-4.47,16.98-8.96,25.45-13.48,1.76-.94,3.58-1.75,5.22-2.9h1.37Zm-3.44,18.95c-.63,.59-.48,1.11,.04,1.73,1.24,1.47,2.44,2.97,3.59,4.5,.54,.72,.92,.74,1.36-.02,.58-.49,1.14-1,1.75-1.45,.51-.38,.4-.68,.06-1.1-1.42-1.74-2.68-3.63-4.24-5.22-1.74-1.77-1.84-3.39-.54-5.44,1.08-1.71,.94-1.8,2.73-.9,1.48,.74,1.54,.78,.72,2.21-.5,.87-.43,1.47,.25,2.19,.85,.91,1.57,1.95,2.36,2.93,.62,.77,1.2,2.05,1.91,2.13,.85,.1,1.53-1.2,2.35-1.79,.65-.47,.6-.82,.12-1.43-3.2-4.06-6.37-8.15-9.51-12.26-.5-.65-.85-.8-1.63-.39-8.66,4.64-17.33,9.27-26.05,13.79-1.54,.8-2.47,1.74-2.55,3.47-.11,.4-.23,.8-.34,1.21-5.14,20.06-10.3,40.11-15.4,60.18-.71,2.82-1.81,5.56-1.74,8.57,.02,1.15,.24,1.55,1.46,1.48,1.28-.07,2.58-.26,3.82,.65,6.83,4.99,14.13,9.18,21.93,12.46,7.44,3.13,15.11,5.27,23.29,5.15,4.56-.06,9.12-.21,13.66-.73,4.03-.47,8.07-1,11.82-2.73,.56-.26,1.09-.2,1.65,.02,7.91,3.2,16.24,4.35,24.68,4.94,1.51,.09,3.02,.2,4.54,.26,2.84,.11,2.84,.1,2.78-2.76,0-.08,0-.15,0-.23,.07-.5-.16-.63-.64-.66-2.23-.17-4.45-.38-6.68-.58-5.04-.78-9.94-2.05-14.68-3.94-2.61-1.05-2.57-1.03-1.38-3.53,.35-.74,.65-.78,1.34-.48,4.72,2.03,9.62,3.46,14.71,4.18,2.13,.41,4.3,.49,6.45,.71,.73,.07,.88-.16,.88-.86-.02-13.79-.02-27.57,0-41.36,0-.55-.16-.9-.61-1.23-4.75-3.4-9.87-5.99-15.68-6.97-8.9-1.51-16.09,1.6-21.84,8.39q-1.31,1.29-.25,2.66c1.7,2.2,3.16,4.55,4.34,7.07,1.15,2.45,1.13,2.42-1.39,3.34-.76,.28-1.08,.2-1.42-.6-1.48-3.52-3.48-6.73-6.14-9.51-3.97-4.37-8.78-6.92-14.79-6.9-4.64,.02-8.84,1.56-12.91,3.63-.96,.49-1.43,.94-1.06,2.05,.22,.68,.23,1.42,.34,2.14q.28,2.68-2.16,3.89c-1.11,.56-2.22,1.14-3.34,1.67-.88,.41-1.83,1.39-2.6,1.09-.66-.26-.91-1.56-1.35-2.39-.07-.13-.16-.26-.24-.39,.03-.5,.49-.53,.8-.69,1.42-.72,2.82-1.48,4.28-2.12,.83-.36,.96-.83,.83-1.66-.48-2.96-.87-5.94-1.3-8.91-1.16-8.04-2.32-16.09-3.48-24.13-.09-.75-.17-1.51-.29-2.26-.31-1.92,.33-2.71,2.25-2.78,1.94-.06,3.86-.3,5.69-1,.48-.18,1.01-.34,1.1-1.01,.11-.89,.65-1.46,1.53-1.61,.9-.15,1.51,.32,1.98,1.05,.74,1.14,1.51,2.27,2.31,3.47,.44-.39,.81-.78,1.25-1.07,.76-.5,.69-.94,.14-1.6-1.63-1.95-3.18-3.98-4.79-5.95-.65-.8-.76-1.59-.27-2.52,.55-1.04,1.02-2.11,1.53-3.17,.68-.2,1.13,.32,1.65,.57,1.69,.82,1.68,.84,1.04,2.55Z"/><path class="cls-4" d="M109.67,117.1c.38-.39,.76-.29,1.14,0h-1.14Z"/><path class="cls-2" d="M106.01,113.11c-8.44-.59-16.76-1.74-24.68-4.94-.56-.22-1.08-.29-1.65-.02-3.75,1.73-7.78,2.26-11.82,2.73-4.53,.53-9.09,.67-13.66,.73-8.17,.11-15.84-2.03-23.29-5.15-7.8-3.28-15.1-7.46-21.93-12.46-1.24-.9-2.53-.72-3.82-.65-1.21,.06-1.43-.33-1.46-1.48-.06-3.01,1.03-5.75,1.74-8.57,5.09-20.07,10.26-40.13,15.4-60.18,.1-.4,.22-.8,.34-1.21,3.95-1.69,7.61-3.94,11.42-5.89,2.91-1.49,5.77-3.06,8.64-4.6,.55-.3,1.01-.27,1.4,.25,1.05,1.39,2.1,2.78,3.14,4.17-.51,1.06-.98,2.14-1.53,3.17-.49,.93-.38,1.72,.27,2.52,1.61,1.98,3.16,4,4.79,5.95,.55,.66,.62,1.1-.14,1.6-.44,.29-.8,.68-1.25,1.07-.8-1.2-1.57-2.33-2.31-3.47-.47-.73-1.08-1.2-1.98-1.05-.88,.15-1.42,.72-1.53,1.61-.09,.68-.62,.83-1.1,1.01-1.83,.71-3.75,.94-5.69,1-1.92,.06-2.56,.86-2.25,2.78,.12,.75,.19,1.5,.29,2.26-2.19,2.1-4.56,3.98-7.14,5.58-.33,.2-.58,.45-.51,.92,.51,3.39,1.01,6.79,1.5,10.19,.47,3.25,.95,6.5,1.41,9.75,.49,3.48,.94,6.96,1.44,10.43,.12,.84,.24,1.78,1.42,.75,.17-.14,.51-.09,.77-.12,.08,.13,.17,.25,.24,.39,.44,.84,.69,2.13,1.35,2.39,.77,.31,1.72-.67,2.6-1.09,1.13-.53,2.23-1.11,3.34-1.67q2.44-1.21,2.16-3.89c.57-.24,1.19-.2,1.79-.29,3.85-.57,7.56-.04,11.11,1.53,2.59,1.14,4.88,2.77,6.87,4.8,.55,.56,.86,.68,1.35-.09,.57-.89,1.28-1.7,2-2.47,1.58-1.69,3.18-3.37,5.3-4.4,2.65,2.78,4.65,5.98,6.14,9.51,.34,.8,.65,.88,1.42,.6,2.52-.92,2.54-.9,1.39-3.34-1.18-2.52-2.64-4.87-4.34-7.07q-1.06-1.37,.25-2.66c.22-.04,.45-.05,.66-.12,2.9-1.05,5.89-1.43,8.96-1.25-1.56,1.26-3.1,2.55-4.44,4.05-1.47,1.64-1.48,1.63,.22,2.91,.18,.14,.38,.25,.54,.41,.5,.5,.85,.49,1.34-.11,1.39-1.72,2.99-3.23,4.85-4.44,1.56-1.01,3.22-1.69,5.14-1.4,2.25,.34,4.31,1.14,6.13,2.53,.29,.22,.53,.59,.97,.28,.14,.13,.25,.29,.41,.37,1.7,.93,3.3,2.02,4.87,3.14,.67,.47,1.17,.95,1.17,1.92-.04,11.01-.03,22.01-.03,33.02-5.09-.72-9.99-2.15-14.71-4.18-.69-.29-.99-.26-1.34,.48-1.19,2.5-1.23,2.48,1.38,3.53,4.74,1.9,9.64,3.16,14.68,3.94,0,1.32,0,2.64,0,3.96Zm-51.97-5.15c6.45-.06,12.9-1.05,18.95-2.94,.86-.27,2.13-.27,2.45-.95,.32-.68-.55-1.64-.81-2.5-.2-.66-.46-.78-1.14-.55-4.48,1.5-9.07,2.5-13.77,2.94-3.6,.34-7.2,.59-10.8-.01-6.42-1.08-12.12-3.81-17.35-7.62-.83-.6-1.24-.71-1.93,.19-1.47,1.92-1.55,1.91,.44,3.29,7.21,4.99,15.02,8.23,23.95,8.14Z"/><path class="cls-1" d="M106.01,105.37c0-11.01,0-22.01,.03-33.02,0-.96-.5-1.44-1.17-1.92-1.58-1.12-3.17-2.21-4.87-3.14-.16-.09-.27-.25-.41-.38,.57-.6,1.11-1.24,1.72-1.8,.45-.41,.42-.66-.04-1.05-3.56-2.97-10.25-5.7-16.03-1.58-.12,.08-.27,.13-.4,.19-3.07-.18-6.06,.19-8.96,1.25-.21,.08-.44,.08-.66,.12,5.75-6.79,12.94-9.89,21.84-8.39,5.8,.98,10.93,3.57,15.68,6.97,.45,.32,.61,.67,.61,1.23-.01,13.79-.02,27.57,0,41.36,0,.69-.15,.93-.88,.86-2.15-.22-4.32-.3-6.45-.71Z"/><path class="cls-1" d="M32.25,71.8c-.26,.04-.6-.02-.77,.12-1.17,1.03-1.3,.09-1.42-.75-.49-3.48-.95-6.96-1.44-10.43-.46-3.25-.93-6.5-1.41-9.75-.49-3.4-.99-6.79-1.5-10.19-.07-.47,.18-.72,.51-.92,2.58-1.6,4.95-3.48,7.14-5.58,1.16,8.04,2.32,16.09,3.48,24.13,.43,2.97,.82,5.94,1.3,8.91,.14,.84,0,1.3-.83,1.66-1.46,.63-2.86,1.39-4.28,2.12-.32,.16-.77,.19-.8,.69Z"/><path class="cls-1" d="M70.35,67.01c-2.12,1.04-3.72,2.71-5.3,4.4-.72,.77-1.43,1.58-2,2.47-.5,.77-.81,.65-1.35,.09-1.99-2.03-4.28-3.65-6.87-4.8-3.55-1.56-7.26-2.09-11.11-1.53-.6,.09-1.21,.05-1.79,.29-.11-.71-.12-1.46-.34-2.14-.36-1.12,.11-1.57,1.06-2.05,4.07-2.07,8.27-3.61,12.91-3.63,6.01-.03,10.82,2.52,14.79,6.9Z"/><path class="cls-1" d="M45.79,15.84c-1.05-1.39-2.1-2.78-3.14-4.17-.39-.52-.85-.55-1.4-.25-2.88,1.54-5.74,3.12-8.64,4.6-3.81,1.95-7.47,4.2-11.42,5.89,.08-1.73,1.01-2.67,2.55-3.47,8.72-4.52,17.39-9.16,26.05-13.79,.78-.42,1.13-.27,1.63,.39,3.14,4.11,6.31,8.2,9.51,12.26,.48,.61,.53,.96-.12,1.43-.83,.59-1.5,1.89-2.35,1.79-.71-.08-1.29-1.37-1.91-2.13-.79-.97-1.51-2.01-2.36-2.93-.68-.72-.75-1.32-.25-2.19,.83-1.43,.76-1.47-.72-2.21-1.78-.89-1.65-.81-2.73,.9-1.3,2.05-1.2,3.67,.54,5.44,1.56,1.59,2.82,3.48,4.24,5.22,.34,.42,.45,.72-.06,1.1-.61,.45-1.17,.96-1.75,1.45-.77-.08-.95-.82-1.32-1.29-1.24-1.63-2.67-3.12-3.68-4.92,.65-1.71,.66-1.73-1.04-2.55-.52-.25-.97-.76-1.65-.57Z"/><path class="cls-1" d="M106.01,113.11c0-1.32,0-2.64,0-3.96,2.22,.2,4.45,.41,6.68,.58,.48,.04,.71,.17,.64,.66-.01,.07,0,.15,0,.23,.06,2.85,.06,2.87-2.78,2.76-1.51-.06-3.02-.17-4.54-.26Z"/><path class="cls-1" d="M48.48,18.95c1.02,1.8,2.44,3.29,3.68,4.92,.36,.47,.54,1.21,1.32,1.29-.44,.76-.83,.74-1.36,.02-1.15-1.53-2.36-3.03-3.59-4.5-.52-.62-.67-1.14-.04-1.73Z"/><path class="cls-3" d="M54.03,107.96c-8.93,.08-16.74-3.16-23.95-8.14-1.99-1.38-1.91-1.37-.44-3.29,.69-.9,1.1-.79,1.93-.19,5.22,3.8,10.93,6.54,17.35,7.62,3.59,.6,7.2,.35,10.8,.01,4.7-.44,9.29-1.44,13.77-2.94,.69-.23,.95-.11,1.14,.55,.26,.87,1.13,1.83,.81,2.5-.32,.68-1.59,.68-2.45,.95-6.05,1.89-12.51,2.88-18.95,2.94Z"/><path class="cls-3" d="M84.83,62.68c.14-.06,.28-.1,.4-.19,5.78-4.12,12.47-1.38,16.03,1.58,.47,.39,.49,.63,.04,1.05-.61,.56-1.15,1.2-1.72,1.8-.44,.31-.69-.06-.97-.28-1.82-1.39-3.88-2.19-6.13-2.53-1.92-.29-3.58,.39-5.14,1.4-1.86,1.21-3.46,2.73-4.85,4.44-.49,.6-.84,.61-1.34,.11-.16-.16-.36-.28-.54-.41-1.71-1.29-1.69-1.27-.22-2.91,1.35-1.5,2.88-2.79,4.44-4.05Z"/></g></g></svg>