<?xml version="1.0" encoding="UTF-8"?><svg id="Layer_2" xmlns="http://www.w3.org/2000/svg" viewBox="0 0 200 200"><defs><style>.cls-1{fill:#f6f5f6;}.cls-2{fill:#fa4654;}.cls-3{fill:#ebe9eb;}.cls-4{fill:#e9f6f6;}.cls-5{fill:#b6e5f5;}.cls-6{fill:#d3eff9;}.cls-7{fill:#06ffd5;}.cls-8{fill:#05bfa0;}.cls-9{fill:#1a2959;}.cls-10{fill:#89acb8;}</style></defs><g id="circles"><circle class="cls-4" cx="100" cy="100" r="100"/></g><g id="Layer_1-2"><g><path class="cls-9" d="M142.13,40.73h1.3c1.17,.53,1.8,1.39,1.94,2.71,.25,2.48,.62,4.96,.88,7.44,.07,.63,.31,.86,.92,.93,2.51,.28,5.02,.61,7.53,.91,1.16,.14,2.07,.6,2.47,1.79,.38,1.16-.09,2.03-.89,2.82-1.77,1.76-3.53,3.53-5.3,5.3-3.2,3.2-6.35,6.45-9.62,9.58-.73,.7-.74,1.06-.26,1.88,5.61,9.64,7.58,20.04,5.93,31.04-1.8,12.02-7.54,21.9-16.87,29.66-.87,.73-1.23,1.31-.75,2.4,.42,.96,.23,1.86-.84,2.37-.42,.15-.82,.14-1.24-.04-.73-.31-.87-1.05-1.18-1.74-.8,.53-1.54,1.01-2.28,1.5-.93,.47-1.85,.96-2.79,1.41-.41,.19-.49,.41-.35,.85,.53,1.69,.98,3.4,1.52,5.08,.35,1.09,1.05,1.88,2.26,2.07,1.98,.55,3.83-.79,3.89-2.92,.03-1.03,.37-1.71,1.33-2.08,1.51,.18,2.04,.75,1.94,2.25-.18,2.62-1.47,4.53-3.86,5.65-.49,.23-1.03,.37-1.54,.54h-2.39c-.04-.17-.18-.19-.32-.24-2.46-.76-3.93-2.44-4.6-4.89-.35-1.29-.82-2.55-1.11-3.85-.18-.81-.48-.84-1.16-.58-4.87,1.87-9.93,2.81-15.13,2.97-6.17,.19-12.17-.76-17.95-2.97-.75-.29-1.03-.18-1.23,.62-.36,1.47-.84,2.92-1.28,4.37-.47,1.55-1.4,2.79-2.79,3.6-.69,.4-1.47,.65-2.2,.96h-2.61c-.04-.23-.25-.22-.41-.28-3.71-1.47-5.24-4.54-4.14-8.36,.64-2.22,1.26-4.45,1.98-6.65,.27-.83,.11-1.28-.56-1.81-15.16-12.06-21.68-32.89-15.49-51.22,6.33-18.75,19.5-29.86,39.09-32.86,10.52-1.61,20.5,.53,29.74,5.85,1.04,.6,1.53,.57,2.4-.33,4.72-4.86,9.54-9.62,14.32-14.42,.51-.51,1.04-.99,1.68-1.32Zm-64.93,99c-.85-.53-1.72-1.05-2.55-1.6-.44-.3-.65-.27-.8,.29-.62,2.22-1.33,4.41-1.91,6.64-.43,1.64,.55,3.14,2.22,3.63,1.71,.48,3.3-.37,3.88-2.12,.35-1.06,.63-2.14,.94-3.21q.73-2.5-1.66-3.61s-.07-.01-.11-.02Zm58.71-70.62c.67,.14,1.35,.23,2,.44,.99,.33,1.64,.01,2.35-.72,3.97-4.05,8-8.05,12-12.07,.26-.26,.66-.44,.69-.97-1.16-.14-2.29-.27-3.42-.4-1.03-.14-2.08-.25-3.1-.44-.63-.12-1.06,.03-1.52,.49-4.06,4.11-8.15,8.19-12.22,12.28-.18,.19-.5,.31-.45,.77,1.22,.2,2.45,.41,3.68,.62Zm-6.8-6.38c.08,1.09,.31,2.15,.64,3.38,4.49-4.51,8.84-8.89,13.2-13.26,.23-.23,.29-.47,.24-.78-.14-.89-.28-1.78-.42-2.67-.07-1.46-.29-2.89-.54-4.36-.17,.09-.25,.11-.3,.15-4.4,4.4-8.79,8.8-13.19,13.19-.27,.27-.42,.53-.33,.95,.26,1.12,.47,2.26,.7,3.39Zm-25.2,33.89c-.83,.8-1.66,1.6-2.49,2.41-.64,.63-1.35,.83-2.15,.34-.94-.58-1.03-1.72-.16-2.6,1.36-1.39,2.76-2.73,4.21-4.16-1.54-.89-3-1.07-4.55-.76-2.84,.58-4.94,3.22-4.91,6.21,.03,2.96,2.07,5.51,4.82,6.01,2.31,.68,4.85-.19,6.42-2.2,1.56-1.99,1.75-4.76,.42-6.98-.55,.59-1.09,1.15-1.62,1.72Zm-17.59,43.36s-.02-.01-.02-.01c.29,.13,.57,.3,.88,.39,6.07,1.8,12.24,2.42,18.54,1.58,11.76-1.59,21.42-6.99,28.84-16.22,7.48-9.31,10.62-20.02,9.56-31.93-.67-7.51-3.2-14.36-7.4-20.61-.27-.4-.5-.82-1.09-.69-1.95-.39-3.9-.73-5.83-1.19-.79-.19-1.06,.35-1.4,.75-.38,.45,.2,.68,.42,.94,7.68,9.16,10.71,19.65,8.78,31.48-3.71,22.65-27.2,36.94-48.98,29.84-18.13-5.91-29.02-23.78-25.97-42.61,2.88-17.74,18.33-31.32,36.25-31.78,9.93-.26,18.68,2.9,26.24,9.37,.25,.22,.48,.8,.94,.4,.41-.35,.9-.64,.72-1.42-.44-1.94-.78-3.9-1.11-5.87-.08-.49-.32-.76-.7-1.01-6.64-4.52-13.97-7.08-21.97-7.58-9.05-.57-17.5,1.48-25.35,6.06-15.37,8.97-24.12,27.34-21.23,44.78,2.08,12.57,8.34,22.55,18.76,29.86,3.21,2.25,6.64,4.09,10.42,5.22,.19,.21,.45,.23,.71,.23Zm10.86-26.35c1.59,.46,3.2,.41,4.83,.24,11.87-1.25,18.14-15.3,11.17-25.05-.57-.8-.96-.97-1.46-.02-.98,.96-1.94,1.94-2.96,2.86-.62,.55-.77,.96-.29,1.78,2.14,3.73,1.38,8.5-1.72,11.46-3.16,3.02-7.91,3.54-11.61,1.25-3.67-2.26-5.38-6.74-4.16-10.85,1.76-5.91,8.53-8.62,13.92-5.58,.3,.17,.56,.66,1.02,.21,1.41-1.41,2.84-2.82,4.27-4.24-5.73-4.86-14.43-4.81-20.2,.02-5.97,5-7.57,13.45-3.71,20.14,2.44,4.23,6.02,6.95,10.91,7.78Zm21.71-32.02c-1.14,1.11-2.24,2.26-3.42,3.32-.61,.55-.52,.89-.06,1.48,2.37,3.06,3.66,6.56,3.89,10.41,.71,11.82-9.21,21.39-21,20.31-7.82-.72-14.43-6.23-16.61-13.86-2.17-7.6,.55-15.78,6.83-20.56,6.9-5.25,16.2-5.27,23.18,0,.68,.51,1.03,.47,1.57-.13,.95-1.04,1.93-2.08,2.99-2.99,.85-.73,.59-1.1-.14-1.68-8.65-6.9-20.72-7.5-29.98-1.42-.98,.65-1.87,.92-2.84,.08-.51-1.39-.35-1.88,.9-2.72,4.67-3.09,9.82-4.72,15.41-4.79,7.17-.1,13.56,2.16,19.07,6.8,.57,.48,.86,.5,1.37-.06,.89-1,1.83-1.96,2.84-2.84,.69-.6,.48-.89-.1-1.38-7.98-6.66-17.12-9.47-27.43-8.05-15.95,2.2-28.43,15.09-29.81,31.01-1.11,12.83,3.53,23.38,13.71,31.27,6.57,5.1,14.14,7.4,22.49,6.94,1.42,.08,2.81-.13,4.19-.4,13.03-2.54,22.22-9.96,26.78-22.4,4.6-12.55,2.24-24.2-6.17-34.59-.47-.58-.88-1.02-1.37-.05-.93,.91-1.82,1.86-2.81,2.7-.67,.57-.52,.93-.03,1.53,5.21,6.37,7.45,13.69,6.48,21.85-2,16.88-17.87,28.35-34.43,25.02-21.01-4.23-30.25-29.53-16.92-46.35,.88-1.11,1.35-1.21,2.71-.58,.74,.98,.46,1.82-.24,2.73-8.27,10.74-7.02,25.64,2.95,34.79,3.56,3.27,7.71,5.44,12.53,6.2,3.48,.79,6.97,.67,10.42-.14,13.85-3.24,22.35-16.73,19.33-30.69-.86-3.96-2.63-7.5-5.19-10.63-.3-.37-.62-.97-1.08-.13Z"/><path class="cls-7" d="M85.59,139.76c-3.78-1.13-7.21-2.97-10.42-5.22-10.42-7.32-16.68-17.29-18.76-29.86-2.89-17.44,5.87-35.81,21.23-44.78,7.85-4.58,16.3-6.63,25.35-6.06,8,.5,15.33,3.06,21.97,7.58,.38,.26,.62,.52,.7,1.01,.33,1.96,.67,3.93,1.11,5.87,.18,.78-.32,1.07-.72,1.42-.47,.4-.69-.18-.94-.4-7.56-6.47-16.31-9.63-26.24-9.37-17.92,.46-33.37,14.04-36.25,31.78-3.06,18.83,7.84,36.7,25.97,42.61,21.77,7.09,45.27-7.19,48.98-29.84,1.94-11.83-1.1-22.31-8.78-31.48-.22-.26-.8-.49-.42-.94,.34-.4,.61-.94,1.4-.75,1.93,.46,3.89,.8,5.83,1.19,.15,.37,.27,.75,.45,1.1,3.12,5.9,4.73,12.22,5.18,18.85,.2,3.03,0,6.08-.46,9.08-1.01,6.66-3.36,12.84-7.05,18.48-2.51,3.84-5.58,7.18-9.07,10.13-3.3,2.8-6.94,5.06-10.91,6.76-4.26,1.83-8.68,3.06-13.31,3.53-3.34,.34-6.66,.4-10,.03-1.39-.15-2.75-.59-4.17-.48,0,0,.02,.01,.02,.01-.16-.32-.44-.25-.71-.23Z"/><path class="cls-1" d="M101.74,132.76c-8.35,.46-15.91-1.84-22.49-6.94-10.18-7.89-14.82-18.43-13.71-31.27,1.38-15.92,13.86-28.82,29.81-31.01,10.3-1.42,19.44,1.39,27.43,8.05,.58,.49,.79,.77,.1,1.38-1.01,.88-1.95,1.84-2.84,2.84-.5,.56-.8,.54-1.37,.06-5.51-4.63-11.89-6.89-19.07-6.8-5.58,.07-10.74,1.7-15.41,4.79-1.26,.83-1.41,1.32-.9,2.72-1.18,.82-2.2,1.81-3.13,2.9-1.35-.63-1.83-.52-2.71,.58-13.33,16.82-4.09,42.13,16.92,46.35,16.56,3.33,32.43-8.14,34.43-25.02,.97-8.16-1.27-15.48-6.48-21.85-.49-.6-.65-.95,.03-1.53,.99-.84,1.87-1.8,2.81-2.7,.32,.01,.51,.19,.69,.45,1.89,2.8,3.47,5.75,4.52,8.97,1.71,5.27,2.24,10.66,1.58,16.19-.5,4.18-1.7,8.12-3.54,11.86-2.33,4.73-5.65,8.71-9.73,12.04-4.52,3.69-9.64,6.13-15.36,7.32-.54,.11-1.26-.1-1.58,.62Z"/><path class="cls-7" d="M80.17,79.49c.93-1.09,1.95-2.08,3.13-2.9,.97,.84,1.86,.56,2.84-.08,9.26-6.08,21.33-5.48,29.98,1.42,.73,.58,.99,.95,.14,1.68-1.07,.92-2.04,1.95-2.99,2.99-.54,.59-.89,.64-1.57,.13-6.98-5.26-16.28-5.24-23.18,0-6.28,4.77-9,12.96-6.83,20.56,2.18,7.62,8.79,13.14,16.61,13.86,11.78,1.09,21.7-8.49,21-20.31-.23-3.85-1.53-7.35-3.89-10.41-.46-.6-.55-.94,.06-1.48,1.18-1.06,2.29-2.2,3.42-3.32,.36,.71,.71,1.42,1.07,2.13,2.8,5.55,3.56,11.43,2.33,17.46-1.51,7.4-5.49,13.26-11.78,17.48-4.56,3.05-9.64,4.45-15.1,4.52-4.82-.76-8.97-2.93-12.53-6.2-9.97-9.15-11.22-24.06-2.95-34.79,.7-.91,.98-1.75,.24-2.73Z"/><path class="cls-1" d="M97.17,113.64c-4.88-.84-8.47-3.55-10.91-7.78-3.86-6.69-2.26-15.14,3.71-20.14,5.77-4.83,14.48-4.88,20.2-.02-1.43,1.42-2.85,2.82-4.27,4.24-.45,.45-.72-.04-1.02-.21-5.39-3.04-12.16-.33-13.92,5.58-1.22,4.11,.49,8.59,4.16,10.85,3.7,2.28,8.45,1.77,11.61-1.25,3.1-2.96,3.86-7.72,1.72-11.46-.47-.83-.32-1.23,.29-1.78,1.02-.92,1.97-1.9,2.96-2.86,1.73,3.35,2.03,6.95,1.22,10.5-1.62,7.15-6.07,11.75-13.19,13.68-.85,.23-1.8,.1-2.57,.65Z"/><path class="cls-8" d="M86.28,139.98c1.42-.11,2.78,.33,4.17,.48,3.34,.37,6.66,.31,10-.03,4.63-.47,9.05-1.7,13.31-3.53,3.97-1.7,7.61-3.97,10.91-6.76,3.49-2.96,6.56-6.29,9.07-10.13,3.69-5.65,6.04-11.82,7.05-18.48,.45-3,.66-6.04,.46-9.08-.45-6.63-2.06-12.95-5.18-18.85-.18-.35-.3-.73-.45-1.1,.59-.13,.83,.29,1.09,.69,4.2,6.25,6.74,13.1,7.4,20.61,1.06,11.91-2.08,22.62-9.56,31.93-7.42,9.23-17.09,14.63-28.84,16.22-6.3,.85-12.47,.23-18.54-1.58-.3-.09-.58-.26-.88-.39Z"/><path class="cls-3" d="M101.74,132.76c.32-.72,1.04-.51,1.58-.62,5.72-1.19,10.84-3.63,15.36-7.32,4.08-3.33,7.4-7.31,9.73-12.04,1.84-3.74,3.05-7.68,3.54-11.86,.66-5.53,.13-10.91-1.58-16.19-1.04-3.21-2.63-6.17-4.52-8.97-.18-.26-.37-.44-.69-.45,.5-.96,.9-.53,1.37,.05,8.41,10.4,10.77,22.04,6.17,34.59-4.56,12.44-13.75,19.86-26.78,22.4-1.38,.27-2.78,.48-4.19,.4Z"/><path class="cls-8" d="M95.41,123.21c5.46-.07,10.54-1.46,15.1-4.52,6.29-4.21,10.27-10.08,11.78-17.48,1.23-6.03,.46-11.91-2.33-17.46-.36-.71-.72-1.42-1.07-2.13,.46-.85,.78-.24,1.08,.13,2.57,3.13,4.34,6.67,5.19,10.63,3.02,13.96-5.47,27.45-19.33,30.69-3.45,.81-6.93,.92-10.42,.14Z"/><path class="cls-3" d="M97.17,113.64c.77-.56,1.71-.42,2.57-.65,7.12-1.93,11.57-6.54,13.19-13.68,.81-3.55,.51-7.15-1.22-10.5,.5-.94,.89-.78,1.46,.02,6.96,9.75,.7,23.8-11.17,25.05-1.63,.17-3.24,.22-4.83-.24Z"/><path class="cls-7" d="M98.67,104.08c-2.75-.5-4.79-3.05-4.82-6.01-.03-2.99,2.07-5.64,4.91-6.21,1.55-.31,3.01-.13,4.55,.76-1.45,1.43-2.85,2.77-4.21,4.16-.87,.88-.78,2.02,.16,2.6,.8,.49,1.51,.29,2.15-.34,.83-.81,1.66-1.61,2.49-2.41,.12,2.12-.83,3.8-2.14,5.34-.84,.99-2.11,1.33-3.08,2.11Z"/><path class="cls-6" d="M129.1,62.74c-.23-1.13-.44-2.27-.7-3.39-.1-.42,.05-.68,.33-.95,4.4-4.4,8.79-8.8,13.19-13.19,.05-.05,.12-.07,.3-.15,.24,1.47,.47,2.9,.54,4.36-.47,.09-.72,.47-1.02,.78-2.79,2.79-5.58,5.59-8.37,8.38-1.41,1.4-2.84,2.79-4.27,4.18Z"/><path class="cls-5" d="M135.9,69.11c-1.23-.21-2.46-.41-3.68-.62-.04-.45,.27-.58,.45-.77,4.07-4.09,8.16-8.17,12.22-12.28,.46-.47,.89-.61,1.52-.49,1.02,.19,2.07,.3,3.1,.44-.06,.4-.38,.6-.63,.86-4.05,4.06-8.1,8.13-12.16,12.18-.25,.25-.55,.46-.83,.68Z"/><path class="cls-10" d="M135.9,69.11c.28-.23,.58-.43,.83-.68,4.06-4.06,8.11-8.12,12.16-12.18,.25-.25,.57-.46,.63-.86,1.13,.13,2.27,.27,3.43,.4-.03,.53-.43,.71-.69,.97-4,4.02-8.03,8.02-12,12.07-.72,.73-1.37,1.05-2.35,.72-.64-.21-1.33-.3-2-.44Z"/><path class="cls-5" d="M129.1,62.74c1.42-1.39,2.86-2.77,4.27-4.18,2.8-2.79,5.58-5.59,8.37-8.38,.3-.3,.55-.69,1.02-.78,.14,.89,.27,1.78,.42,2.67,.05,.31,0,.55-.24,.78-4.36,4.37-8.71,8.75-13.2,13.26-.32-1.23-.55-2.29-.64-3.38Z"/><path class="cls-10" d="M128.58,139.56c.23,1.42,.72,2.77,1.16,4.13-.96,.36-1.3,1.04-1.33,2.08-.05,2.13-1.9,3.47-3.89,2.92,.96-1.6,1.11-3.24,.52-5.06-.46-1.42-1.11-2.81-1.17-4.35,.74-.49,1.48-.97,2.28-1.5,.31,.69,.45,1.42,1.18,1.74,.42,.18,.82,.19,1.24,.04Z"/><path class="cls-5" d="M74.15,148.69c-1.67-.48-2.65-1.98-2.22-3.63,.58-2.23,1.29-4.42,1.91-6.64,.16-.56,.36-.58,.8-.29,.84,.56,1.7,1.07,2.55,1.6-.3,1-.54,2.02-.91,2.99-.75,1.97-.96,4.15-2.15,5.96Z"/><path class="cls-5" d="M123.88,139.28c.06,1.54,.71,2.93,1.17,4.35,.58,1.82,.44,3.45-.52,5.06-1.21-.19-1.91-.98-2.26-2.07-.54-1.68-1-3.39-1.52-5.08-.14-.44-.06-.65,.35-.85,.94-.45,1.86-.94,2.79-1.41Z"/><path class="cls-8" d="M98.67,104.08c.98-.78,2.24-1.12,3.08-2.11,1.32-1.55,2.26-3.23,2.14-5.34,.53-.57,1.07-1.13,1.62-1.72,1.33,2.21,1.13,4.99-.42,6.98-1.57,2.01-4.11,2.88-6.42,2.2Z"/><path class="cls-10" d="M74.15,148.69c1.18-1.82,1.39-3.99,2.15-5.96,.37-.97,.61-1.99,.91-2.99,.04,0,.08,0,.11,.02q2.38,1.11,1.66,3.61c-.31,1.07-.59,2.15-.94,3.21-.58,1.75-2.16,2.6-3.88,2.12Z"/><path class="cls-2" d="M85.59,139.76c.27-.02,.55-.09,.71,.23-.26,0-.52-.02-.71-.23Z"/></g></g></svg>