<?xml version="1.0" encoding="UTF-8"?><svg id="Layer_2" xmlns="http://www.w3.org/2000/svg" viewBox="0 0 109.51 109.7"><defs><style>.cls-1{fill:#00dabd;}.cls-2{fill:#e9f6f6;}.cls-3{fill:#fff;}.cls-4{fill:#add;}.cls-5{fill:#1a2959;}</style></defs><g id="Layer_1-2"><g><path class="cls-5" d="M106.73,109.7H2.58c-2.15-1.1-2.76-2.87-2.54-5.21,.4-4.27,1.04-8.47,2.27-12.59,1.22-4.11,3.01-7.97,5.03-11.74,2.36-3.79,4.96-7.39,8.09-10.59,4.1-4.18,8.71-7.67,13.93-10.33,.76-.39,.81-.69,.32-1.32-.97-1.24-2.14-2.17-3.64-2.69-.54-.19-.85-.18-1.19,.4-2.28,3.82-7.26,3.84-9.51,.03-.38-.64-.7-.62-1.28-.42-2.83,.98-4.81,3.6-4.87,6.64-.06,3,0,5.99-.03,8.99,0,1.43-.49,1.98-1.88,2.26-1.31-.31-1.75-.78-1.76-2.02-.02-3.14-.07-6.28,.03-9.42,.16-4.85,3.4-8.82,8.08-10.13,.37-.1,.97,.06,.98-.7,0-.63-.14-1.01-.74-1.34-3.45-1.95-5.56-4.93-6.33-8.81-.11-.57-.33-.84-.82-1.09-1.98-1.01-2.99-2.68-3.05-4.9-.04-1.28-.06-2.57,0-3.85,.28-5.92,3.05-10.27,8.33-12.97,.62-.32,.86-.58,.84-1.33-.12-4.14,3.15-7.43,7.3-7.42,4.11,.02,7.36,3.37,7.22,7.51-.02,.64,.15,.91,.72,1.18,3.87,1.84,6.47,4.84,7.77,8.92,.9,2.84,.82,5.78,.57,8.7-.16,1.91-1.27,3.28-2.96,4.17-.33,.17-.67,.24-.76,.76-.75,4.14-2.94,7.28-6.67,9.29-.56,.3-.44,.73-.47,1.18-.04,.52,.33,.52,.68,.62,3.04,.79,5.4,2.51,6.97,5.24,.26,.45,.47,.48,.92,.3,1.74-.72,3.52-1.36,5.34-1.82,.61-.16,.74-.48,.73-1.06-.03-1.64-.04-3.28,0-4.93,.11-5.05,3.36-9.17,8.22-10.46,.37-.1,.88-.03,.87-.7,0-.57-.08-.95-.67-1.28-3.5-1.96-5.62-4.95-6.42-8.88-.1-.5-.24-.79-.73-1.03-2.08-1.03-3.11-2.76-3.14-5.07-.03-3.03-.1-6.07,.01-9.1,.19-5.22,2.64-9.05,7.3-11.45,1.14-.59,2.41-.73,3.56-1.25h11.12c.09,.28,.34,.19,.53,.23,5.59,1.22,9.55,5.41,10.19,11.09,.42,3.69,.21,7.42,.08,11.12-.07,1.97-1.19,3.48-2.99,4.38-.48,.24-.72,.51-.83,1.08-.77,3.88-2.87,6.87-6.32,8.82-.59,.34-.78,.7-.75,1.34,.03,.73,.6,.59,.99,.71,4.24,1.3,6.93,4.08,7.88,8.44,.5,2.29,.17,4.63,.21,6.94,.01,.59,.15,.89,.75,1.05,1.83,.47,3.6,1.1,5.34,1.83,.47,.19,.66,.11,.91-.32,1.55-2.7,3.88-4.4,6.87-5.21,.36-.1,.8-.05,.77-.65-.03-.5,0-.89-.58-1.22-3.55-1.95-5.72-4.95-6.51-8.92-.11-.55-.32-.84-.82-1.08-1.72-.84-2.74-2.25-2.98-4.16-.21-1.7-.17-3.43-.04-5.13,.45-5.78,3.3-9.98,8.5-12.52,.59-.29,.62-.61,.6-1.15-.12-4.14,3.13-7.49,7.24-7.5,4.14-.01,7.41,3.28,7.28,7.43-.02,.76,.24,1.02,.86,1.32,3.66,1.78,6.16,4.62,7.53,8.47,.94,2.62,.8,5.34,.8,8.04,0,2.39-1.01,4.19-3.18,5.26-.43,.21-.6,.47-.69,.95-.55,3.02-2.01,5.53-4.33,7.54-.7,.61-1.47,1.14-2.31,1.54-.59,.28-.38,.76-.43,1.2-.05,.44,.24,.48,.57,.58,5.72,1.73,8.52,5.52,8.52,11.53,0,6.57,0,13.14,0,19.7,0,.7,.13,1.32,.43,1.95,2.21,4.74,3.69,9.7,4.48,14.88,.18,1.17,.11,2.39,.59,3.5v4.07c-.64,1.17-1.52,2.08-2.78,2.57Zm-89.33-3.65c4.24,0,8.48,0,12.72,0,.63,0,1.05-.04,1.13-.86,.44-4.41,2.07-8.36,4.79-11.83,.61-.78,.53-1.17-.13-1.82-5.79-5.75-11.55-11.54-17.32-17.32-1.33-1.33-1.33-1.33-2.56,.11-7.52,8.86-11.59,19.11-12.35,30.71-.05,.83,.21,1.03,1,1.02,4.24-.03,8.48-.02,12.72-.02Zm74.79,0h11.33c2.35,0,2.37,0,2.18-2.33-.92-11.41-5.21-21.39-12.73-29.99-.53-.61-.84-.72-1.47-.08-5.97,6.03-11.97,12.04-17.99,18.02-.57,.56-.63,.91-.1,1.57,2.66,3.33,4.31,7.15,4.81,11.38,.15,1.25,.56,1.48,1.69,1.46,4.1-.06,8.2-.03,12.29-.03Zm-39.28-35.56c0-4.14-.05-8.28,.03-12.42,.02-1.14-.35-1.38-1.39-1.29-2.91,.24-5.8,.62-8.65,1.3-8.41,2.01-15.84,5.9-22.32,11.64-.53,.47-.65,.73-.07,1.3,6.1,6.06,12.16,12.15,18.22,18.24,.41,.42,.68,.56,1.22,.12,3.46-2.81,7.41-4.5,11.83-5.03,.89-.11,1.16-.4,1.15-1.32-.05-4.18-.02-8.35-.02-12.53Zm3.69,0c0,4.25,.02,8.5-.02,12.75,0,.71,.17,1,.91,1.07,1.53,.14,3.03,.46,4.48,.97,.57,.2,.82,.03,1.04-.49,.64-1.51,1.32-3,1.98-4.5,.88-1.99,1.74-3.99,2.65-5.96,.45-.97,1.28-1.36,2.17-1.1,.91,.26,1.37,.91,1.34,1.82-.02,.44-.24,.89-.42,1.31-1.42,3.23-2.83,6.47-4.31,9.67-.35,.76-.22,1.08,.48,1.47,.93,.52,1.79,1.17,2.62,1.84,.48,.39,.75,.43,1.22-.04,6.11-6.15,12.23-12.28,18.37-18.4,.45-.45,.4-.67-.04-1.06-1.34-1.18-2.71-2.32-4.16-3.36-8.13-5.87-17.19-9.08-27.19-9.7-.87-.05-1.16,.15-1.15,1.08,.05,4.21,.02,8.43,.02,12.64Zm10.93-49.84s.02,0,.03,0c0-.32,0-.64,0-.96,0-.6-.05-1.2-.8-1.29-.81-.1-.99,.44-1.11,1.12-.17,.97-.81,1.48-1.8,1.49-.93,0-1.61-.64-1.79-1.66-.41-2.32-1.05-2.79-3.29-3.44-2.61-.75-5.07-.91-7.75-.08-2.03,.63-3.43,1.35-3.61,3.66-.07,.93-.77,1.52-1.78,1.51-.99-.01-1.58-.56-1.77-1.53-.04-.17-.05-.36-.11-.52-.16-.42-.49-.59-.92-.57-.4,.02-.74,.23-.78,.61-.12,1.24-.29,2.5,.15,3.71,.27,.74,.93,1.02,1.7,1.09,1.03,.09,1.6,.69,1.71,1.72,.04,.35,.09,.71,.13,1.06,.45,3.67,2.4,6.23,5.82,7.53,3.52,1.34,6.74,.61,9.5-1.93,1.82-1.67,2.64-3.83,2.83-6.28,.13-1.57,.45-1.84,2-2.13,.97-.18,1.51-.77,1.64-1.72,.06-.46,.01-.93,.01-1.39ZM7.31,33.36c0,.46-.03,.93,0,1.39,.08,.96,.59,1.56,1.55,1.78,1.82,.42,1.93,.56,2.11,2.48,.43,4.67,3.93,8.17,8.53,8.51,4.41,.33,8.45-2.71,9.47-7.15,.17-.72,.18-1.48,.29-2.22,.12-.83,.61-1.34,1.43-1.53,1.91-.43,2.19-.78,2.19-2.75,0-.5,0-1,0-1.5,0-.61-.1-1.2-.84-1.27-.72-.06-.95,.43-1.03,1.08-.13,.97-.74,1.53-1.71,1.62-.88,.09-1.64-.54-1.89-1.55-.45-1.85-1.58-3.14-3.15-4.12-.87-.54-1.54-.65-2.13,.43-.44,.81-1.21,1.4-1.95,1.96-2.41,1.85-5.19,2.76-8.16,3.15-1.97,.26-2.3,.07-2.9-1.84-.16-.51-.47-.81-1.01-.74-.49,.06-.76,.38-.79,.86-.03,.46,0,.93,0,1.39Zm94.89,.15s0,0,.01,0c0-.32,0-.64,0-.96,.01-.67,0-1.38-.87-1.44-.81-.06-.91,.59-1.03,1.22-.18,.98-.93,1.59-1.91,1.48-4.48-.5-8.56-1.86-11.41-5.67-.32-.43-.59-.5-1.06-.29-1.9,.84-3.25,2.2-3.78,4.23-.27,1.03-.79,1.68-1.86,1.73-.91,.05-1.58-.62-1.79-1.76-.1-.57-.35-.96-.94-.95-.67,.01-.9,.49-.91,1.09-.01,.79-.03,1.57,0,2.36,.05,1.23,.57,1.79,1.79,2.02,1.37,.26,1.75,.65,1.88,2.03,.08,.89,.17,1.77,.45,2.63,1.32,4,5.32,6.68,9.4,6.28,4.55-.45,7.9-3.83,8.37-8.45,.21-2.02,.23-2.07,2.17-2.54,.91-.23,1.4-.81,1.49-1.72,.04-.42,0-.86,0-1.28Zm-47.38,54.27c-1.54-.02-3.05,.15-4.55,.49-7.93,1.74-14.32,8.7-15.39,16.71-.1,.77-.01,1.14,.92,1.09,1.85-.08,3.7-.05,5.55,0,.57,.01,.77-.16,.91-.71,1.84-7.41,7.88-11.33,15.31-9.94,.56,.1,.75-.02,.95-.48,.77-1.8,1.55-3.59,2.39-5.36,.32-.67,.07-.83-.51-.99-1.83-.5-3.68-.82-5.58-.79ZM41.94,13.3c-.18,.84,.1,1.43,1.26,1.3,.23-.03,.5,.07,.72,.16,.87,.36,1.53,.17,2.15-.58,.86-1.03,2.06-1.53,3.35-1.73,1.46-.22,2.86-.58,4.2-1.18,.77-.34,1.49-.38,2.25,0,1.1,.53,2.27,.88,3.47,1.05,1.8,.26,3.36,.89,4.56,2.29,.25,.29,.55,.45,.95,.34,.72-.21,1.44-.39,2.2-.39,.49,0,.52-.38,.54-.76,.06-1.04-.1-2.07-.32-3.07-.89-4.07-4.58-7.02-8.8-7.08-2.35-.03-4.7-.01-7.05,0-5.39,.01-9.43,4.06-9.47,9.65Zm1.89,37.57c0,.83,.05,1.51-.01,2.19-.08,.84,.2,1.05,1.02,.88,2.16-.45,4.36-.68,6.56-.81,4.5-.27,8.96-.02,13.39,.82,.59,.11,.94,.08,.91-.69-.06-1.46,.02-2.93-.04-4.39-.11-2.92-2.32-5.68-5.09-6.49-.49-.14-.72-.09-1.01,.38-2.43,3.95-7.26,3.95-9.63,0-.29-.48-.53-.54-1.01-.38-2.51,.87-4.13,2.57-4.87,5.12-.34,1.16-.19,2.34-.23,3.36Zm56.48,26.38c0-5.57,.09-10.81-.04-16.05-.07-2.7-2.34-5.18-4.95-6-.53-.17-.79-.11-1.11,.41-2.38,3.88-7.2,3.87-9.56-.01-.28-.45-.5-.57-1.01-.4-1.54,.51-2.76,1.43-3.76,2.7-.54,.68-.41,.99,.35,1.38,5.43,2.8,10.23,6.46,14.42,10.9,2,2.12,3.81,4.41,5.66,7.08Zm-3.54-47.34c.35,.12,.56-.13,.73-.42,.69-1.23,1.86-1.75,3.13-2.02,.71-.15,.82-.37,.52-.99-1.57-3.26-4.1-5.33-7.63-6.11-2.28-.5-4.64-.4-6.92-.18-4.08,.39-7.09,2.57-8.91,6.29-.12,.24-.38,.64-.09,.76,.67,.3,1.41,.46,2.13,.65,.44,.11,.62-.29,.85-.54,1.28-1.38,2.72-2.49,4.52-3.14,1.74-.63,3.34-.23,4.45,1.27,1.82,2.43,4.21,3.88,7.23,4.42ZM20.14,20.14c-.75,0-1.5-.04-2.24,0-4.4,.27-7.57,2.4-9.52,6.35-.25,.5-.32,.82,.42,.96,1.32,.26,2.52,.78,3.23,2.05,.21,.38,.5,.39,.9,.33,3.02-.45,5.35-2.02,7.12-4.45,.68-.94,1.59-1.39,2.74-1.39,2.19,0,3.92,1.09,5.31,2.6,1,1.09,1.88,1.42,3.27,.9,.7-.26,.74-.45,.47-1.02-.95-1.98-2.34-3.57-4.21-4.72-2.31-1.42-4.83-1.83-7.49-1.62Zm50.81,85.91c.93,0,1.86-.06,2.77,.02,.82,.07,1.05-.18,.91-1-1.03-6.18-4.13-10.98-9.43-14.35-.52-.33-.75-.28-1,.3-.76,1.8-1.55,3.59-2.38,5.36-.25,.54-.12,.79,.33,1.11,2.68,1.93,4.4,4.52,5.05,7.78,.14,.69,.45,.83,1.07,.79,.89-.04,1.78-.01,2.67-.01Zm-16.22,0c2.67,0,5.34-.03,8.01,.02,.86,.02,.93-.27,.71-.99-1.15-3.75-4.79-6.37-8.83-6.33-3.92,.04-7.52,2.74-8.58,6.39-.19,.66-.12,.94,.68,.93,2.67-.05,5.34-.02,8.01-.02ZM20.06,16.49c.99,0,1.99,0,2.98,0,.56,0,.75-.22,.64-.79-.32-1.58-1.77-2.82-3.4-2.85-1.82-.04-3.33,1.08-3.72,2.73-.15,.64,.06,.94,.74,.92,.92-.02,1.84,0,2.77,0Zm69.28,0c.99,0,1.99-.01,2.98,0,.65,0,.79-.32,.67-.89-.34-1.6-1.85-2.76-3.59-2.76-1.72,0-3.16,1.18-3.53,2.82-.15,.65,.12,.83,.71,.83,.92-.01,1.84,0,2.77,0Zm-34.4,21.87q-2.06,0-2.06,1.02c0,1.66,.66,2.6,1.86,2.62,1.21,.02,1.85-.91,1.93-2.56,.09-1.66-1.11-.91-1.74-1.08Zm-34.87,12.83q-1.93-.04-1.81,1.66c.09,1.21,.88,2.03,1.93,1.99,1.23-.05,1.74-.96,1.74-2.89,0-1.59-1.12-.48-1.66-.75-.11-.06-.28,0-.19,0Zm69.16,0q-1.67-.03-1.59,1.66c.06,1.24,.81,2.04,1.88,1.99,1.23-.07,1.77-1.01,1.79-2.89,.01-1.61-1.11-.48-1.65-.75-.11-.06-.28,0-.42,0Z"/><path class="cls-3" d="M17.4,106.05c-4.24,0-8.48-.02-12.72,.02-.79,0-1.05-.19-1-1.02,.76-11.6,4.82-21.85,12.35-30.71,1.23-1.44,1.23-1.44,2.56-.11,5.77,5.78,11.53,11.56,17.32,17.32,.66,.65,.74,1.04,.13,1.82-2.73,3.47-4.35,7.42-4.79,11.83-.08,.82-.5,.86-1.13,.86-4.24-.01-8.48,0-12.72,0Z"/><path class="cls-1" d="M92.19,106.05c-4.1,0-8.2-.04-12.29,.03-1.13,.02-1.54-.21-1.69-1.46-.5-4.23-2.15-8.05-4.81-11.38-.52-.66-.46-1,.1-1.57,6.02-5.99,12.02-11.99,17.99-18.02,.63-.64,.94-.53,1.47,.08,7.52,8.6,11.81,18.58,12.73,29.99,.19,2.33,.17,2.33-2.18,2.33h-11.33Z"/><path class="cls-2" d="M52.91,70.49c0,4.18-.03,8.35,.02,12.53,.01,.91-.26,1.21-1.15,1.32-4.42,.52-8.37,2.22-11.83,5.03-.54,.44-.8,.3-1.22-.12-6.06-6.09-12.13-12.18-18.22-18.24-.57-.57-.45-.83,.07-1.3,6.48-5.74,13.9-9.63,22.32-11.64,2.85-.68,5.74-1.05,8.65-1.3,1.05-.09,1.41,.15,1.39,1.29-.07,4.14-.03,8.28-.03,12.42Z"/><path class="cls-4" d="M56.6,70.49c0-4.21,.03-8.43-.02-12.64-.01-.93,.28-1.13,1.15-1.08,10,.62,19.06,3.83,27.19,9.7,1.45,1.04,2.81,2.19,4.16,3.36,.45,.39,.5,.61,.04,1.06-6.14,6.12-12.27,12.25-18.37,18.4-.47,.47-.74,.43-1.22,.04-.83-.67-1.7-1.31-2.62-1.84-.7-.4-.83-.72-.48-1.47,1.48-3.2,2.89-6.44,4.31-9.67,.19-.42,.41-.87,.42-1.31,.03-.91-.43-1.56-1.34-1.82-.89-.26-1.73,.13-2.17,1.1-.91,1.98-1.77,3.97-2.65,5.96-.66,1.5-1.35,2.99-1.98,4.5-.22,.52-.48,.7-1.04,.49-1.45-.52-2.95-.83-4.48-.97-.74-.07-.92-.36-.91-1.07,.03-4.25,.02-8.5,.02-12.75Z"/><path class="cls-3" d="M67.54,20.65c0,.46,.05,.93-.01,1.39-.13,.95-.67,1.54-1.64,1.72-1.55,.29-1.88,.55-2,2.13-.2,2.45-1.01,4.61-2.83,6.28-2.76,2.54-5.98,3.27-9.5,1.93-3.43-1.3-5.37-3.86-5.82-7.53-.04-.35-.09-.71-.13-1.06-.11-1.04-.68-1.63-1.71-1.72-.77-.07-1.43-.36-1.7-1.09-.44-1.2-.26-2.47-.15-3.71,.04-.38,.38-.59,.78-.61,.44-.02,.77,.14,.92,.57,.06,.16,.07,.35,.11,.52,.2,.97,.78,1.51,1.77,1.53,1.01,.01,1.71-.58,1.78-1.51,.18-2.31,1.58-3.03,3.61-3.66,2.68-.83,5.14-.67,7.75,.08,2.24,.65,2.88,1.11,3.29,3.44,.18,1.02,.86,1.67,1.79,1.66,.99,0,1.63-.52,1.8-1.49,.12-.68,.3-1.22,1.11-1.12,.76,.09,.8,.69,.8,1.29,0,.32,0,.64,0,.96,0,0-.02,0-.03,0Z"/><path class="cls-3" d="M7.31,33.36c0-.46-.02-.93,0-1.39,.03-.48,.3-.81,.79-.86,.54-.06,.85,.23,1.01,.74,.6,1.91,.93,2.1,2.9,1.84,2.98-.39,5.75-1.3,8.16-3.15,.74-.57,1.5-1.15,1.95-1.96,.59-1.08,1.26-.98,2.13-.43,1.58,.98,2.71,2.28,3.15,4.12,.24,1.01,1,1.64,1.89,1.55,.96-.1,1.58-.65,1.71-1.62,.09-.65,.31-1.14,1.03-1.08,.74,.06,.84,.66,.84,1.27,0,.5,0,1,0,1.5,0,1.97-.28,2.31-2.19,2.75-.82,.19-1.31,.69-1.43,1.53-.11,.74-.12,1.5-.29,2.22-1.02,4.44-5.06,7.48-9.47,7.15-4.59-.34-8.1-3.84-8.53-8.51-.18-1.92-.29-2.06-2.11-2.48-.96-.22-1.47-.82-1.55-1.78-.04-.46,0-.93,0-1.39Z"/><path class="cls-3" d="M102.21,33.52c0,.43,.04,.86,0,1.28-.09,.91-.58,1.5-1.49,1.72-1.94,.48-1.96,.52-2.17,2.54-.47,4.62-3.82,8-8.37,8.45-4.08,.4-8.08-2.27-9.4-6.28-.28-.86-.37-1.74-.45-2.63-.13-1.38-.51-1.77-1.88-2.03-1.22-.23-1.74-.79-1.79-2.02-.03-.78-.01-1.57,0-2.36,0-.6,.23-1.08,.91-1.09,.6-.01,.84,.38,.94,.95,.21,1.14,.88,1.81,1.79,1.76,1.07-.06,1.59-.7,1.86-1.73,.53-2.03,1.88-3.38,3.78-4.23,.47-.21,.74-.13,1.06,.29,2.85,3.81,6.93,5.16,11.41,5.67,.99,.11,1.73-.51,1.91-1.48,.12-.63,.22-1.28,1.03-1.22,.88,.06,.89,.77,.87,1.44,0,.32,0,.64,0,.96,0,0,0,0-.01,0Z"/><path class="cls-1" d="M7.33,80.17c-.02-2.34-.04-4.69-.06-7.03,1.4-.28,1.88-.83,1.88-2.26,.02-3-.03-5.99,.03-8.99,.06-3.04,2.04-5.66,4.87-6.64,.57-.2,.9-.21,1.28,.42,2.25,3.81,7.23,3.79,9.51-.03,.34-.58,.65-.59,1.19-.4,1.5,.52,2.67,1.44,3.64,2.69,.49,.63,.44,.93-.32,1.32-5.21,2.66-9.83,6.15-13.93,10.33-3.13,3.2-5.73,6.8-8.09,10.59Z"/><path class="cls-4" d="M41.94,13.3c.04-5.59,4.08-9.64,9.47-9.65,2.35,0,4.7-.02,7.05,0,4.22,.05,7.91,3.01,8.8,7.08,.22,1,.38,2.03,.32,3.07-.02,.38-.05,.76-.54,.76-.76,0-1.48,.19-2.2,.39-.4,.11-.7-.06-.95-.34-1.21-1.4-2.76-2.03-4.56-2.29-1.19-.17-2.37-.51-3.47-1.05-.77-.37-1.48-.34-2.25,0-1.34,.6-2.74,.96-4.2,1.18-1.29,.19-2.49,.7-3.35,1.73-.62,.74-1.28,.93-2.15,.58-.23-.09-.49-.19-.72-.16-1.17,.13-1.44-.47-1.26-1.3Z"/><path class="cls-1" d="M43.83,50.87c.04-1.02-.11-2.2,.23-3.36,.74-2.55,2.36-4.25,4.87-5.12,.48-.17,.72-.11,1.01,.38,2.37,3.95,7.2,3.95,9.63,0,.29-.47,.53-.53,1.01-.38,2.77,.8,4.98,3.57,5.09,6.49,.06,1.46-.02,2.93,.04,4.39,.03,.77-.32,.8-.91,.69-4.43-.84-8.9-1.09-13.39-.82-2.21,.13-4.4,.36-6.56,.81-.82,.17-1.1-.04-1.02-.88,.06-.67,.01-1.35,.01-2.19Z"/><path class="cls-1" d="M100.31,77.26c-1.85-2.67-3.65-4.95-5.66-7.08-4.2-4.45-8.99-8.11-14.42-10.9-.76-.39-.89-.7-.35-1.38,1-1.27,2.22-2.19,3.76-2.7,.51-.17,.73-.05,1.01,.4,2.36,3.88,7.18,3.89,9.56,.01,.31-.51,.57-.57,1.11-.41,2.61,.82,4.88,3.3,4.95,6,.13,5.24,.04,10.48,.04,16.05Z"/><path class="cls-4" d="M96.77,29.91c-3.02-.53-5.41-1.99-7.23-4.42-1.12-1.5-2.71-1.9-4.45-1.27-1.79,.65-3.24,1.76-4.52,3.14-.23,.25-.41,.65-.85,.54-.72-.19-1.45-.35-2.13-.65-.29-.13-.03-.52,.09-.76,1.82-3.73,4.83-5.9,8.91-6.29,2.28-.22,4.63-.32,6.92,.18,3.53,.78,6.06,2.85,7.63,6.11,.3,.62,.19,.84-.52,.99-1.28,.26-2.44,.79-3.13,2.02-.16,.29-.37,.54-.73,.42Z"/><path class="cls-4" d="M20.14,20.14c2.66-.21,5.18,.2,7.49,1.62,1.87,1.15,3.25,2.74,4.21,4.72,.28,.57,.23,.76-.47,1.02-1.39,.52-2.28,.18-3.27-.9-1.38-1.51-3.12-2.59-5.31-2.6-1.14,0-2.05,.45-2.74,1.39-1.78,2.44-4.1,4-7.12,4.45-.4,.06-.69,.05-.9-.33-.71-1.26-1.91-1.79-3.23-2.05-.74-.14-.66-.46-.42-.96,1.95-3.95,5.12-6.09,9.52-6.35,.75-.05,1.5,0,2.24,0Z"/><path class="cls-4" d="M20.06,16.49c-.92,0-1.84-.02-2.77,0-.68,.02-.89-.28-.74-.92,.39-1.65,1.9-2.77,3.72-2.73,1.62,.03,3.08,1.27,3.4,2.85,.12,.57-.07,.8-.64,.79-.99,0-1.99,0-2.98,0Z"/><path class="cls-4" d="M89.33,16.49c-.92,0-1.84,0-2.77,0-.59,0-.85-.17-.71-.83,.36-1.64,1.81-2.82,3.53-2.82,1.74,0,3.25,1.16,3.59,2.76,.12,.56-.02,.9-.67,.89-.99-.01-1.99,0-2.98,0Z"/><path class="cls-3" d="M54.93,38.36c.63,.17,1.83-.58,1.74,1.08-.09,1.65-.72,2.58-1.93,2.56-1.2-.02-1.87-.96-1.86-2.62q0-1.01,2.06-1.02Z"/><path class="cls-3" d="M20.06,51.19c-.09,0,.08-.05,.19,0,.54,.27,1.66-.84,1.66,.75,0,1.93-.5,2.85-1.74,2.89-1.05,.04-1.84-.78-1.93-1.99q-.12-1.7,1.81-1.66Z"/><path class="cls-3" d="M89.22,51.19c.14,0,.31-.05,.42,0,.54,.27,1.67-.86,1.65,.75-.02,1.88-.55,2.83-1.79,2.89-1.07,.06-1.83-.74-1.88-1.99q-.08-1.69,1.59-1.66Z"/></g></g></svg>