<?xml version="1.0" encoding="UTF-8"?><svg id="Layer_2" xmlns="http://www.w3.org/2000/svg" viewBox="0 0 119.42 103.58"><defs><style>.cls-1{fill:#06ffd5;}.cls-2{fill:#1a2959;}</style></defs><g id="Layer_1-2"><g id="HFQKiI"><g><path class="cls-2" d="M87.47,53.99c.39,2.06,.04,2.74-1.86,3.59-2.46,1.1-4.91,2.23-7.4,3.27-.75,.31-.93,.6-.73,1.4,3.82,15.63-3.82,31.51-18.38,38.27-13.77,6.4-30.26,2.52-39.9-9.39-.38-.47-.63-.87-1.44-.72-7.05,1.29-13.19-1.89-16.32-8.35-.12-.26-.08-.68-.51-.73-.31-1.59-.61-3.17-.92-4.76,.37-.86,.21-1.79,.36-2.68,1.01-6.12,5.57-10.93,11.63-12.12,.72-.14,1.04-.4,1.29-1.13,4.24-12.65,12.88-20.45,25.96-23.19,6.79-1.43,13.63-2.66,20.44-3.98,2.35-.46,3.32,.19,3.77,2.5,.22,1.15,.47,2.29,.66,3.45,.09,.59,.26,.82,.92,.67,1.49-.34,3-.63,4.52-.88,.62-.1,.79-.32,.65-.95-.3-1.3-.55-2.61-.77-3.92-.29-1.74,.43-2.83,2.15-3.17,13.87-2.7,27.74-5.39,41.61-8.06,1.79-.34,2.89,.42,3.24,2.2,.98,4.99,1.94,9.98,2.9,14.98,.31,1.63-.12,2.48-1.67,3.17-3.78,1.7-7.58,3.37-11.37,5.04-1.54,.68-2.41,.42-3.58-.98-.41-2-.02-2.74,1.88-3.58,2.95-1.3,5.89-2.62,8.85-3.9,.54-.24,.85-.43,.7-1.13-.68-3.28-1.31-6.57-1.92-9.87-.11-.62-.33-.78-.96-.65-11.93,2.33-23.86,4.64-35.79,6.93-.68,.13-.86,.38-.71,1.05,.29,1.3,.55,2.61,.76,3.92,.27,1.71-.44,2.74-2.11,3.07-3.48,.69-6.97,1.37-10.46,2.02-1.6,.3-2.66-.44-3-2.03-.27-1.26-.55-2.53-.72-3.81-.12-.86-.43-1.01-1.26-.84-5.42,1.09-10.85,2.13-16.29,3.17-2.18,.42-4.34,.92-6.44,1.67-14.79,5.29-22.54,22.71-16.53,37.2,5.92,14.26,20.91,21.16,35.64,16.41,14.65-4.73,22.88-21.42,17.78-36.03-.59-1.69-.15-2.82,1.48-3.54,3.35-1.49,6.71-2.96,10.06-4.43,1.84-.81,2.5-.66,3.8,.82ZM15.6,85.83c-.03-.17-.03-.25-.06-.32-2.88-5.63-4.08-11.61-3.59-17.91,.1-1.3-.62-.61-.98-.45-4.39,1.87-6.76,6.68-5.64,11.35,1.1,4.57,5.37,7.65,10.27,7.34Z"/><path class="cls-1" d="M87.47,53.99c-1.3-1.48-1.96-1.63-3.8-.82-3.36,1.47-6.72,2.94-10.06,4.43-1.62,.73-2.07,1.85-1.48,3.54,5.1,14.61-3.13,31.3-17.78,36.03-14.72,4.76-29.72-2.15-35.64-16.41-6.01-14.49,1.73-31.91,16.53-37.2,2.1-.75,4.25-1.25,6.44-1.67,5.43-1.04,10.86-2.08,16.29-3.17,.83-.17,1.14-.02,1.26,.84,.17,1.28,.45,2.54,.72,3.81,.34,1.59,1.4,2.33,3,2.03,3.49-.65,6.98-1.33,10.46-2.02,1.67-.33,2.38-1.36,2.11-3.07-.21-1.32-.47-2.62-.76-3.92-.15-.67,.03-.92,.71-1.05,11.93-2.29,23.86-4.61,35.79-6.93,.63-.12,.84,.04,.96,.65,.61,3.29,1.24,6.59,1.92,9.87,.14,.7-.16,.9-.7,1.13-2.96,1.28-5.9,2.6-8.85,3.9-1.9,.84-2.29,1.58-1.88,3.58-1.84,.71-3.74,1.31-5.35,2.51-.82-1.41-1.87-1.88-3.16-1.39-1.24,.47-1.7,1.54-1.37,3.18-1.83,.6-3.46,1.7-5.35,2.16ZM23.14,74.49c2.3,12.01,14.02,19.95,26.07,17.66,11.95-2.27,19.92-13.99,17.65-25.95-2.3-12.1-13.92-20.07-25.95-17.78-12.13,2.31-20.08,13.97-17.77,26.07Z"/><path class="cls-2" d="M59.32,10.8c-.49-2.53-.99-5.07-1.47-7.6-.31-1.66,.4-2.85,1.84-3.14,1.45-.29,2.59,.52,2.91,2.17,1,5.11,1.99,10.21,2.97,15.32,.31,1.63-.45,2.83-1.9,3.09-1.43,.26-2.54-.59-2.87-2.24-.5-2.53-.99-5.07-1.48-7.6Z"/><path class="cls-2" d="M47.78,29.34c-.79,.12-1.66-.21-2.23-1.12-2.61-4.25-5.22-8.5-7.78-12.78-.72-1.21-.34-2.62,.75-3.3,1.15-.72,2.62-.44,3.38,.8,2.62,4.24,5.22,8.5,7.76,12.79,.88,1.48,.02,3.24-1.88,3.6Z"/><path class="cls-2" d="M81.74,22.77c-2.06,.41-3.41-1.03-3.09-2.99,.59-3.69,1.22-7.38,1.84-11.07,.18-1.07,.33-2.15,.54-3.21,.3-1.52,1.48-2.38,2.86-2.13,1.3,.23,2.16,1.43,1.92,2.9-.77,4.85-1.58,9.69-2.41,14.53-.18,1.09-.84,1.81-1.67,1.99Z"/><path class="cls-2" d="M92.82,51.83c-.33-1.64,.14-2.71,1.37-3.18,1.29-.49,2.34-.03,3.16,1.39,.24,1.63-.21,2.61-1.4,3.06-1.25,.47-2.21,.08-3.13-1.28Z"/><path class="cls-2" d="M23.14,74.49c-2.31-12.1,5.63-23.77,17.77-26.07,12.03-2.29,23.65,5.67,25.95,17.78,2.27,11.96-5.69,23.68-17.65,25.95-12.05,2.29-23.77-5.65-26.07-17.66Zm4.78-.99c1.76,9.41,10.83,15.62,20.31,13.89,9.31-1.7,15.63-10.91,13.88-20.21-1.78-9.48-10.84-15.76-20.21-14.01-9.53,1.78-15.75,10.83-13.97,20.33Z"/></g></g></g></svg>