<?xml version="1.0" encoding="UTF-8"?><svg id="Layer_2" xmlns="http://www.w3.org/2000/svg" viewBox="0 0 129.22 129.72"><defs><style>.cls-1{fill:#e9f6f6;}.cls-2{fill:#fff;}.cls-3{fill:#add;}.cls-4{fill:#06ffd5;}.cls-5{fill:#1a2959;}</style></defs><g id="Layer_1-2"><g><path class="cls-5" d="M84.57,78.58c.99-4.61,2-9,2.86-13.43,.25-1.3,.09-2.69,.1-4.03,.03-3.9,2.66-6.54,6.54-6.56,4.64-.01,9.29-.01,13.93,0,3.09,0,4.95,2.26,4.45,5.34-.62,3.81-3.42,6.61-7.27,7.1-.87,.11-1.01,.38-1.01,1.16,.02,8.52,.03,17.04,.01,25.57-.02,8.7-6.99,15.44-15.64,15.07-4.13-.18-7.62-1.88-10.39-4.96-1.42-1.58-2.78-3.21-4.18-4.84-2.81,4.58-3.74,10.14-2.76,16.02,.55,3.27,1.47,6.41,2.7,9.48,.34,.84,.74,1.05,1.59,1.05,17.44-.03,34.89,0,52.33-.05,1.2,0,1.4,.35,1.37,1.43-.08,2.78-.02,2.78-2.86,2.78-41.57,0-83.15,0-124.72,.03-1.22,0-1.72-.16-1.64-1.56,.14-2.64,.04-2.64,2.74-2.64,8.64,0,17.27-.01,25.91,.02,.89,0,1.42-.18,1.67-1.11,.27-.99,1.29-2.17,.85-2.86-.45-.7-1.91-.21-2.93-.21-5.03-.03-10.07,0-15.1-.01-3.17,0-4.77-1.63-4.77-4.84,0-1.13-.06-2.26,.3-3.36,.85-2.65,3.26-4.31,6.29-4.33q1.74-.01,1.74-1.78c0-.13,0-.26,0-.39,.12-1.41,0-2.52-1.58-3.33-1.69-.87-2.47-2.65-2.57-4.57-.08-1.65-.06-3.31,0-4.96,.05-1.39,.59-2.62,1.53-3.65,.37-.4,.59-.64,0-1.08-2.05-1.54-3.58-3.53-4.55-5.91-.21-.52-.63-.67-1.06-.86C2.71,79.86,.05,75.86,.05,69.59c0-.83-.02-1.65,0-2.48,.06-2.42,1.8-4.14,4.23-4.2,.43-.01,.87-.03,1.3,0,1.53,.1,2.85,.23,3.38-1.9,.4-1.63,2.03-2.27,3.73-2.28,3.78-.01,7.56,.12,11.32-.05,2.67-.12,6.51-3.6,4.7-7.08-2.09-4.03-3.81-8.26-5.57-12.45C16.06,22.32,26.38,3.38,44.44,.71c7.27-1.07,14.73-1.25,21.79,1.73,14.52,6.11,21.01,22.63,14.66,37.26-1.71,3.93-3.48,7.84-5.21,11.76-1.15,2.61-.82,4.09,1.5,5.72,3.23,2.27,5.46,5.16,6.06,9.16,.33,2.21,.06,4.34-.81,6.37-.29,.67-.23,1.16,.12,1.79,.7,1.24,1.28,2.55,2.02,4.07Zm-20.15-12.52c-.04,.36-.06,.62-.09,.87-.41,5.11-.75,10.23-1.26,15.33-.53,5.33-4.91,9.48-10.16,9.84-5.36,.36-10.2-3.15-11.51-8.4-.25-1-.35-2.03-.52-3.04-.49-.02-.74,.33-1.06,.52-1.15,.67-4.07,3.54-4.87,4.56-.55,.71-.44,1.04,.24,1.59,3.11,2.53,3.16,6.99,.08,9.51-.84,.69-.81,1.17-.39,2.01,2.24,4.46,3.05,9.19,2.49,14.16-.04,.38,.08,.77,.08,1.16,.04,1.76,.53,3.64-.61,5.19-1.35,1.84-1.41,4.12-2.48,6.07h35.44c-.25-.67-.47-1.23-.66-1.8-2.2-6.47-3.31-13.04-1.67-19.84,.31-1.27,.68-2.52,1.29-3.68,2.97-5.68,2.69-11.22-.42-16.77-1.58-2.82-1.47-2.88,1.46-4.26,.08-.04,.16-.07,.23-.12,.42-.28,.67-.18,.91,.28,2.28,4.32,4.43,8.68,4.06,13.79-.03,.4,.02,.75,.31,1.08,2.14,2.46,4.13,5.06,6.43,7.36,3.25,3.24,7.24,4.07,11.51,2.35,4.2-1.69,6.63-4.99,6.72-9.52,.17-8.78,.05-17.56,.08-26.35,0-.81-.31-.9-.99-.89-2.21,.03-4.43,.05-6.64,0-.83-.02-1.17,.18-1.36,1.07-1.64,7.86-3.35,15.7-5.04,23.55-.65,3.02-.64,2.98-3.7,2.33-.82-.17-.97-.46-.8-1.21,.45-1.94,.82-3.91,1.29-5.85,.21-.89,.14-1.66-.25-2.49-.91-1.92-1.75-3.87-2.6-5.82-3-6.81-8.17-10.94-15.55-12.58Zm-32.5-7.4c.13,.03,.21,.06,.3,.06,2.39-.14,4.28,.55,5.13,3.03,.2,.59,.68,.42,1.1,.35,2.56-.44,3.72-1.66,4.27-4.38,.19-.95,.01-1.54-.88-2.13-4.65-3.09-7.47-7.42-8.24-12.99-.51-3.63-.25-7.29-.19-10.93,.1-6.22,3.05-10.72,8.67-13.41,1.01-.49,2.07-.91,3.15-1.22,.93-.27,1.11-.76,.9-1.63-.48-1.97-.17-3.98-.24-5.97-.05-1.27,1.02-.87,1.48-.73,.89,.26,2.34-1,2.64,.73,.22,1.27,.02,2.6,.05,3.9,.06,3,2.04,5.47,4.98,6,2.08,.38,4.21,.52,6.32,.75,5.61,.6,9.49,4.86,9.53,10.5,.02,2.87-.02,5.74,0,8.61,.06,7.12-2.85,12.66-8.75,16.62-.32,.21-.67,.36-.73,.83-.32,2.55,1.08,4.65,3.59,5.23,4.15,.94,8.02,2.5,11.35,5.22,.89,.72,1.72,1.52,2.74,2.42,.16-1.02,.16-1.82,.03-2.63-.46-2.75-2.09-4.65-4.29-6.25-4.07-2.96-4.92-6.45-2.87-11.06,1.57-3.53,3.11-7.07,4.72-10.58,2.01-4.39,2.93-8.93,2.33-13.79-1.16-9.46-8.34-17.73-17.57-19.96-5.17-1.25-10.44-1.07-15.65-.5-15.52,1.69-25.05,18.41-18.82,32.8,1.88,4.34,3.82,8.65,5.73,12.98,1.11,2.54,.86,4.99-.5,7.36-.12,.21-.37,.39-.27,.78Zm34.78-22.57c0-2.24,.04-4.02,0-5.8-.08-3.13-2.35-5.63-5.43-6.01-1.68-.21-3.36-.38-5.04-.51-2.71-.22-5.17-1.04-7.15-2.99-.39-.38-.72-.52-1.25-.3-1.36,.56-2.78,.99-4.11,1.6-3.24,1.5-5.43,4.01-5.91,7.56-.56,4.17-.57,8.42,0,12.59,.92,6.78,6.74,11.97,13.47,12.3,7.06,.35,13.21-4.2,14.97-11,.68-2.62,.37-5.27,.46-7.44ZM23.06,71.25c-3.16,0-6.33,.02-9.49-.01-.73,0-1.09,.08-1.05,.96,.08,1.91-.01,3.82,.04,5.73,.16,5.2,4.32,9.55,9.51,9.99,5.26,.44,10.08-3.2,11.07-8.38,.46-2.41,.09-4.85,.25-7.27,.06-.93-.32-1.04-1.11-1.03-3.08,.04-6.15,.02-9.23,.02Zm21.75,4.17c4.76,0,9.35-.02,13.94,.02,.83,0,.78-.49,.82-.99,.23-3.07,.46-6.15,.68-9.22,.02-.34,.11-.7-.22-.96-1.68-1.36-2.19-3.27-2.45-5.28-.11-.85-.48-.99-1.28-.78-2.78,.72-5.58,.71-8.35,0-.83-.22-1.16-.04-1.27,.81-.21,1.59-.86,3.01-1.94,4.18-.45,.49-.33,.73,.07,1.14,.78,.82,1.09,1.84,1.09,2.97,0,2.72,.16,5.46-1.07,8.12Zm-21.93-8.35c2.51,0,5.03,0,7.54,0,2.98,0,2.94,0,2.98-3.04,.01-.89-.19-1.16-1.12-1.15-5.55,.05-11.1,.02-16.65,.02-3.14,0-3.11,0-3.1,3.18,0,.78,.16,1.03,.99,1.02,3.12-.06,6.24-.02,9.36-.02Zm.07,50.09c3.17,0,6.33,0,9.5-.01,.33,0,.76,.23,.93-.38,.63-2.21-.54-3.78-2.86-3.78-4.99,0-9.97,0-14.96,0-2.44,0-3.01,.63-3.03,3.1,0,.83,.18,1.11,1.06,1.09,3.12-.06,6.24-.02,9.37-.02ZM100.73,58.73c-1.95,0-3.89,0-5.84,0-2.69,0-3.34,.73-3.2,3.44,.03,.54,.14,.75,.72,.74,4.02-.03,8.05,.02,12.07-.04,1.74-.03,3.15-1.3,3.7-2.97,.28-.85,.22-1.23-.84-1.2-2.2,.07-4.41,.02-6.62,.02ZM16.71,96.24c-.29,4.75,1.23,4.24,4.48,4.22,.04,0,.09,0,.13,0,2.15-.24,3.79-2.14,3.72-4.3-.07-2.1-1.75-3.94-3.87-4.01-3.18-.09-4.74-.55-4.46,4.09Zm-8.33-18.56c0-3.26-.06-6.28,.03-9.3,.03-1.1-.27-1.36-1.34-1.33-2.87,.08-2.84,.02-2.86,2.89-.02,3.24,1.22,5.78,4.17,7.73Zm29.16-.15c2.61-1.39,4.11-4.04,4.16-7.17,.06-3.49,.06-3.47-3.38-3.3-.63,.03-.8,.22-.79,.83,.03,3.17,.01,6.34,.01,9.64Zm-8.33,25.83c0,1.13,0,2.26,0,3.39,0,2.04,0,2.03,1.97,2.08,.47,.01,.95,.06,1.41,.18,.56,.15,.77,.06,.74-.59-.19-3.55-1.69-6.69-3.04-9.88-.17-.39-.54-.48-.87-.38-.4,.11-.2,.51-.2,.78-.02,1.48,0,2.96,0,4.43Zm20.83-19.79c0-1.09-.03-2.17,.01-3.26,.02-.59-.18-.74-.74-.73-1.17,.04-2.34,0-3.51,.01-.32,0-.64-.1-.71,.46-.36,2.69,1.67,6.2,4.19,7.23,.75,.31,.78,0,.77-.6-.02-1.04,0-2.09,0-3.13Zm4.17,3.89c3.12-.91,5.42-4.47,4.95-7.42-.07-.45-.29-.45-.6-.45-1.21,0-2.43,.03-3.64-.01-.59-.02-.72,.2-.72,.75,.03,2.34,.01,4.69,.01,7.13Zm-29.16,16.06c-1.1,.53-2.1,.98-3.16,1.04-.86,.05-1.03,.35-1.03,1.14,0,3.45-.02,3.44,3.52,3.13,.48-.04,.68-.15,.67-.66-.03-1.5,0-2.99,0-4.65Zm6.24-9.32c1.12,0,2.06-.92,2.08-2.04,.02-1.12-.88-2.08-2-2.12-1.17-.04-2.16,.93-2.15,2.1,.01,1.12,.95,2.05,2.07,2.06Z"/><path class="cls-5" d="M106.16,50.38c-7.2,0-14.4-.02-21.61,.02-.96,0-1.23-.2-1.21-1.19,.07-3.48,.05-6.96,.01-10.43,0-.73,.18-.95,.92-.94,3.56,.04,7.12,.04,10.67,0,.73,0,.95,.18,.94,.93-.05,2.17,.01,4.35-.03,6.52-.02,.73,.19,.93,.93,.94,3.26,.04,3.26,.06,3.26-3.15,0-4.17,.02-8.35-.02-12.52,0-.85,.21-1.08,1.06-1.07,3.47,.05,6.94,.05,10.41,0,.85-.01,1.07,.21,1.06,1.07-.04,4.87,0,9.74-.04,14.61,0,.85,.21,1.07,1.06,1.07,3.12-.02,3.12,.01,3.12-3.16,0-6.91,.02-13.82-.03-20.74,0-.97,.22-1.22,1.2-1.2,3.43,.07,6.86,.06,10.28,0,.85-.01,1.07,.22,1.06,1.07-.03,9.04-.03,18.08,0,27.13,0,.85-.21,1.07-1.06,1.07-7.33-.04-14.66-.02-22-.02Zm18.87-14.61v-7.3c0-3.18,0-3.14-3.13-3.16-.86,0-1.06,.24-1.06,1.08,.04,5.56,.02,11.12,.02,16.68,0,3.23,0,3.2,3.26,3.15,.74-.01,.93-.22,.93-.94-.04-3.17-.02-6.34-.02-9.51Zm-16.66,4.25v-3.26c0-3.13,0-3.1-3.18-3.1-.79,0-1.03,.18-1.01,1,.06,2.78,.02,5.56,.02,8.34,0,3.32,0,3.3,3.31,3.23,.66-.02,.89-.17,.87-.86-.05-1.78-.02-3.56-.02-5.34Zm-16.66,4.13q0-2.12-2.18-2.12-1.99,0-1.99,2.05t2.18,2.12q1.99,0,1.99-2.05Z"/><path class="cls-5" d="M128.53,3.88c-.26,.27-.46,.5-.67,.71-5.55,5.56-11.11,11.11-16.63,16.7-.68,.69-1.01,.57-1.6-.05-1.49-1.58-3.09-3.05-4.57-4.64-.65-.7-1.01-.73-1.71-.02-4.47,4.55-9.01,9.04-13.48,13.59-.69,.7-1.02,.71-1.7,0-2.08-2.17-2.12-2.14,0-4.26,5-5.01,10.01-10,14.98-15.04,.78-.8,1.24-.99,2.07-.05,1.38,1.56,2.96,2.93,4.37,4.46,.66,.71,1.01,.72,1.71,.01,4.47-4.55,9.01-9.04,13.49-13.59,.68-.69,1.08-.8,1.7,0,.48,.61,1.09,1.11,1.64,1.67,.14,.14,.26,.31,.41,.5Z"/><path class="cls-3" d="M64.42,66.06c7.38,1.64,12.54,5.77,15.55,12.58,.86,1.94,1.69,3.9,2.6,5.82,.39,.83,.46,1.61,.25,2.49-.47,1.94-.84,3.9-1.29,5.85-.17,.75-.02,1.04,.8,1.21,3.06,.65,3.05,.69,3.7-2.33,1.69-7.85,3.4-15.69,5.04-23.55,.19-.89,.52-1.09,1.36-1.07,2.21,.06,4.43,.04,6.64,0,.68-.01,.99,.09,.99,.89-.03,8.78,.09,17.57-.08,26.35-.09,4.53-2.52,7.83-6.72,9.52-4.27,1.72-8.26,.89-11.51-2.35-2.3-2.29-4.29-4.9-6.43-7.36-.29-.33-.34-.68-.31-1.08,.37-5.11-1.77-9.47-4.06-13.79-.24-.46-.49-.56-.91-.28-.07,.05-.15,.08-.23,.12-2.93,1.37-3.04,1.44-1.46,4.26,3.11,5.55,3.39,11.09,.42,16.77-.6,1.15-.98,2.41-1.29,3.68-1.64,6.8-.54,13.36,1.67,19.84,.19,.57,.42,1.13,.66,1.8H34.37c1.08-1.95,1.13-4.23,2.48-6.07,1.14-1.55,.65-3.43,.61-5.19,0-.39-.13-.78-.08-1.16,.57-4.97-.25-9.7-2.49-14.16-.42-.85-.46-1.33,.39-2.01,3.08-2.52,3.03-6.98-.08-9.51-.68-.56-.79-.88-.24-1.59,.79-1.02,3.71-3.89,4.87-4.56,.33-.19,.58-.54,1.06-.52,.17,1.01,.27,2.05,.52,3.04,1.31,5.25,6.15,8.77,11.51,8.4,5.25-.36,9.63-4.51,10.16-9.84,.51-5.1,.84-10.22,1.26-15.33,.02-.26,.05-.51,.09-.87Zm-14.38,32.22q0,2.2,2.23,2.2,1.93,0,1.93-1.98,0-2.2-2.23-2.2-1.93,0-1.93,1.98Zm2.17,6.37q-2.17,0-2.17,2.13t2,2.04q2.17,0,2.17-2.13,0-2.04-2-2.04Z"/><path class="cls-1" d="M31.92,58.66c-.1-.4,.14-.57,.27-.78,1.36-2.37,1.61-4.83,.5-7.36-1.9-4.33-3.85-8.64-5.73-12.98-6.23-14.38,3.29-31.11,18.82-32.8,5.2-.57,10.48-.74,15.65,.5,9.23,2.23,16.41,10.5,17.57,19.96,.59,4.86-.32,9.4-2.33,13.79-1.61,3.51-3.15,7.05-4.72,10.58-2.05,4.6-1.2,8.09,2.87,11.06,2.2,1.6,3.83,3.5,4.29,6.25,.13,.81,.13,1.61-.03,2.63-1.02-.9-1.85-1.7-2.74-2.42-3.33-2.72-7.2-4.28-11.35-5.22-2.52-.57-3.92-2.68-3.59-5.23,.06-.48,.41-.62,.73-.83,5.9-3.96,8.81-9.5,8.75-16.62-.02-2.87,.01-5.74,0-8.61-.04-5.64-3.92-9.9-9.53-10.5-2.11-.23-4.23-.37-6.32-.75-2.94-.53-4.92-3.01-4.98-6-.03-1.3,.17-2.64-.05-3.9-.3-1.74-1.75-.48-2.64-.73-.46-.13-1.52-.54-1.48,.73,.07,1.99-.24,4,.24,5.97,.21,.87,.02,1.35-.9,1.63-1.08,.32-2.13,.74-3.15,1.22-5.62,2.69-8.57,7.19-8.67,13.41-.06,3.64-.32,7.3,.19,10.93,.78,5.57,3.6,9.89,8.24,12.99,.89,.6,1.07,1.18,.88,2.13-.56,2.72-1.72,3.94-4.27,4.38-.41,.07-.9,.24-1.1-.35-.85-2.48-2.74-3.17-5.13-3.03-.08,0-.17-.03-.3-.06Z"/><path class="cls-2" d="M66.7,36.09c-.09,2.17,.22,4.82-.46,7.44-1.77,6.8-7.91,11.34-14.97,11-6.72-.33-12.55-5.52-13.47-12.3-.56-4.17-.55-8.42,0-12.59,.48-3.55,2.67-6.05,5.91-7.56,1.33-.62,2.75-1.05,4.11-1.6,.53-.22,.86-.08,1.25,.3,1.98,1.94,4.44,2.77,7.15,2.99,1.68,.14,3.37,.31,5.04,.51,3.08,.38,5.35,2.89,5.43,6.01,.05,1.78,0,3.56,0,5.8Zm-14.58,1.77c-3.16,0-6.33,0-9.49,0-.37,0-.87-.24-.93,.51-.59,7.2,4.49,11.72,9.91,11.98,6.51,.31,11.58-5.24,10.96-11.85-.07-.79-.51-.64-.95-.64-3.16,0-6.33,0-9.49,0Zm-6.25-6.27c0-1.13-.93-2.06-2.06-2.07-1.18-.01-2.14,.98-2.1,2.16,.04,1.13,1,2.03,2.12,2.01,1.12-.02,2.04-.97,2.04-2.1Zm16.66-.01c-.01-1.13-.94-2.06-2.07-2.06-1.18,0-2.14,.99-2.09,2.17,.05,1.13,1.01,2.03,2.13,2,1.12-.03,2.04-.98,2.03-2.11Z"/><path class="cls-4" d="M23.06,71.25c3.08,0,6.15,.02,9.23-.02,.78,0,1.17,.1,1.11,1.03-.15,2.42,.22,4.86-.25,7.27-.99,5.18-5.81,8.82-11.07,8.38-5.19-.44-9.36-4.8-9.51-9.99-.06-1.91,.04-3.82-.04-5.73-.04-.88,.32-.97,1.05-.96,3.16,.03,6.33,.01,9.49,.01Z"/><path class="cls-2" d="M44.81,75.43c1.22-2.66,1.06-5.4,1.07-8.12,0-1.14-.3-2.16-1.09-2.97-.4-.41-.52-.65-.07-1.14,1.08-1.17,1.73-2.59,1.94-4.18,.11-.84,.44-1.02,1.27-.81,2.77,.72,5.58,.72,8.35,0,.8-.21,1.17-.07,1.28,.78,.26,2.01,.77,3.92,2.45,5.28,.33,.26,.25,.62,.22,.96-.22,3.07-.44,6.15-.68,9.22-.04,.5,.01,1-.82,.99-4.59-.04-9.18-.02-13.94-.02Z"/><path class="cls-4" d="M22.88,67.08c-3.12,0-6.24-.03-9.36,.02-.83,.01-.99-.24-.99-1.02,0-3.18-.03-3.18,3.1-3.18,5.55,0,11.1,.02,16.65-.02,.93,0,1.13,.26,1.12,1.15-.04,3.04,0,3.04-2.98,3.04-2.51,0-5.03,0-7.54,0Z"/><path class="cls-4" d="M22.95,117.17c-3.12,0-6.24-.03-9.37,.02-.88,.02-1.07-.26-1.06-1.09,.03-2.48,.59-3.1,3.03-3.1,4.99,0,9.97,0,14.96,0,2.32,0,3.49,1.57,2.86,3.78-.17,.61-.61,.37-.93,.38-3.17,.02-6.33,.01-9.5,.01Z"/><path class="cls-2" d="M100.73,58.73c2.21,0,4.42,.05,6.62-.02,1.06-.03,1.12,.34,.84,1.2-.55,1.68-1.96,2.95-3.7,2.97-4.02,.06-8.05,.01-12.07,.04-.58,0-.7-.2-.72-.74-.14-2.71,.51-3.44,3.2-3.44,1.95,0,3.89,0,5.84,0Z"/><path class="cls-2" d="M16.71,96.24c-.28-4.64,1.28-4.18,4.46-4.09,2.11,.06,3.8,1.91,3.87,4.01,.07,2.16-1.57,4.05-3.72,4.3-.04,0-.09,0-.13,0-3.25,.02-4.77,.53-4.48-4.22Z"/><path class="cls-4" d="M50.04,83.57c0,1.04-.02,2.09,0,3.13,.01,.59-.02,.9-.77,.6-2.52-1.03-4.55-4.54-4.19-7.23,.08-.56,.39-.46,.71-.46,1.17,0,2.34,.02,3.51-.01,.56-.02,.76,.14,.74,.73-.04,1.08-.01,2.17-.01,3.26Z"/><path class="cls-4" d="M54.21,87.46c0-2.44,.01-4.79-.01-7.13,0-.55,.13-.77,.72-.75,1.21,.04,2.43,.01,3.64,.01,.31,0,.53,0,.6,.45,.46,2.95-1.83,6.51-4.95,7.42Z"/><path class="cls-4" d="M25.04,103.52c0,1.65-.02,3.15,0,4.65,0,.51-.18,.62-.67,.66-3.54,.31-3.52,.32-3.52-3.13,0-.8,.17-1.1,1.03-1.14,1.06-.06,2.06-.5,3.16-1.04Z"/><path class="cls-2" d="M31.28,94.2c-1.12,0-2.05-.94-2.07-2.06-.01-1.17,.98-2.15,2.15-2.1,1.12,.04,2.03,1,2,2.12-.02,1.12-.97,2.04-2.08,2.04Z"/><path class="cls-4" d="M125.03,35.77c0,3.17-.02,6.34,.02,9.51,0,.73-.18,.93-.93,.94-3.26,.04-3.26,.07-3.26-3.15,0-5.56,.02-11.12-.02-16.68,0-.84,.2-1.08,1.06-1.08,3.13,.02,3.13-.02,3.13,3.16,0,2.43,0,4.87,0,7.3Z"/><path class="cls-4" d="M108.37,40.02c0,1.78-.03,3.56,.02,5.34,.02,.7-.21,.85-.87,.86-3.31,.08-3.31,.1-3.31-3.23,0-2.78,.03-5.56-.02-8.34-.02-.82,.22-1,1.01-1,3.18,0,3.18-.03,3.18,3.1,0,1.09,0,2.17,0,3.26Z"/><path class="cls-4" d="M91.7,44.16q0,2.05-1.99,2.05-2.18,0-2.18-2.12t1.99-2.05q2.18,0,2.18,2.12Z"/><path class="cls-5" d="M50.04,98.27q0-1.98,1.93-1.98,2.23,0,2.23,2.2,0,1.98-1.93,1.98-2.23,0-2.23-2.2Z"/><path class="cls-5" d="M52.21,104.65q2,0,2,2.04t-2.17,2.13q-2,0-2-2.04,0-2.13,2.17-2.13Z"/><path class="cls-5" d="M52.12,37.86c3.16,0,6.33,0,9.49,0,.45,0,.88-.15,.95,.64,.62,6.61-4.45,12.16-10.96,11.85-5.42-.26-10.5-4.78-9.91-11.98,.06-.75,.57-.51,.93-.51,3.16-.02,6.33,0,9.49,0Zm5.77,4.17c-3.71,0-7.3,0-10.89,0-.72,0-.66,.27-.43,.78,.92,2.03,3.43,3.5,5.86,3.4,2.45-.11,4.59-1.69,5.46-4.17Z"/><path class="cls-5" d="M45.87,31.59c0,1.12-.91,2.07-2.04,2.1-1.12,.02-2.08-.88-2.12-2.01-.04-1.18,.92-2.17,2.1-2.16,1.13,.01,2.05,.94,2.06,2.07Z"/><path class="cls-5" d="M62.54,31.57c.01,1.12-.9,2.08-2.03,2.11-1.12,.03-2.09-.87-2.13-2-.05-1.18,.91-2.18,2.09-2.17,1.13,0,2.06,.93,2.07,2.06Z"/><path class="cls-1" d="M57.89,42.03c-.87,2.48-3.01,4.06-5.46,4.17-2.43,.11-4.94-1.36-5.86-3.4-.23-.51-.29-.78,.43-.78,3.59,.02,7.19,0,10.89,0Z"/></g></g></svg>