<?xml version="1.0" encoding="UTF-8"?><svg id="Layer_2" xmlns="http://www.w3.org/2000/svg" viewBox="0 0 117 123.92"><defs><style>.cls-1{fill:#fcfcfc;}.cls-2{fill:#fff;}.cls-3{fill:#fbfbfb;}.cls-4{fill:#d8efef;}.cls-5{fill:#06ffd5;}.cls-6{fill:#05bfa0;}.cls-7{fill:#1a2959;}</style></defs><g id="Layer_1-2"><g><path class="cls-7" d="M12.82,123.92c-1.69-1.28-1.67-2.35,.08-3.7,12.13-9.33,24.25-18.67,36.39-27.98,.6-.46,.99-.98,1.28-1.68,2.3-5.7,4.64-11.38,6.95-17.07,.36-.88,.89-1.67,1.56-2.67-3.47,.34-6.68,.44-9.88,.11-.93-.1-.58,.55-.54,.94,.25,2.28-.43,4.21-2.11,5.77-3.15,2.94-7.86,2.15-9.81-1.62-.56-1.08-.34-2.09,.58-2.62,.89-.51,1.8-.23,2.48,.76,1.1,1.6,1.76,1.91,3.14,1.46,1.38-.44,2.23-1.6,2.21-2.98-.03-1.45-.88-2.42-2.47-2.87-2.85-.8-5.5,.13-8.12,1.03-3.34,1.15-6.62,2.48-10.13,3.06-5.06,.84-9.57-.42-13.63-3.44-3.93-2.92-6.86-6.8-9.83-10.6-1.67-2.13-1.07-5.06,1.13-6.76,3.16-2.44,6.68-2.98,10.49-1.85,1.23,.37,2.46,.79,3.76,.21,.55-.25,.79-.46,.27-1.02-.76-.83-1.47-1.71-2.18-2.59-.31-.38-.55-.41-1.01-.19-1.73,.84-3,.53-4.27-.94-.68-.79-1.36-1.6-2.03-2.4-1.68-2.01-1.55-3.74,.45-5.43,5.14-4.34,10.3-8.66,15.44-12.99,8.39-7.05,16.77-14.11,25.15-21.16,2.31-1.94,3.89-1.8,5.84,.53,.67,.8,1.37,1.58,2.02,2.41,1.05,1.34,1.09,2.76,.07,4.11-.32,.42-.41,.65-.03,1.07,.76,.83,1.48,1.7,2.18,2.59,.37,.47,.59,.38,.89-.04,.58-.8,.7-1.69,.64-2.64-.1-1.64-.38-3.28-.06-4.94,.51-2.63,1.73-4.84,3.77-6.56,1.86-1.57,4.68-1.75,6.3-.03,3.64,3.86,7.27,7.77,9.54,12.68,2.45,5.31,2.02,10.53-.39,15.73-1.57,3.39-3.74,6.47-5.21,9.92-.76,1.78-1.22,3.58-.73,5.51,.37,1.45,1.52,2.26,3.05,2.18,1.34-.07,2.55-1.12,2.79-2.42,.19-1.01-.16-1.78-.95-2.44-1.12-.94-1.28-1.93-.52-2.79,.74-.84,1.76-.8,2.87,.1,2.36,1.93,2.92,4.63,1.53,7.47-1.33,2.73-4.42,4.22-7.35,3.54-.31-.07-.61-.19-.92-.28-.4-.12-.65-.13-.71,.43-.46,3.99-1.11,7.95-2.35,11.84,1.67,.18,3.21,.44,4.55,1.34,.57,.38,.77-.25,1.06-.5,2.81-2.36,6.34-2.41,8.88-.08,1.28,1.17,1.97,2.65,2.05,4.36,.03,.67,.16,.93,.88,1.08,3.08,.63,4.94,2.76,5.23,5.94,.05,.6,.29,.67,.79,.76,3.84,.65,6.03,3.7,5.48,7.59-.06,.38-.24,.7,.3,.98,2.82,1.45,2.92,1.58,4.19,4.19,2.97-1.58,4.11-1.44,6.67,.84,1.54,1.36,3.08,2.72,4.62,4.08,2.48,2.2,2.49,4.9-.01,7.01-8.22,6.94-16.45,13.86-24.69,20.77-2.47,2.07-5.14,1.64-6.84-1.08-1.36-2.18-2.93-4.28-3.94-6.62-.66-1.52-1.36-1.72-2.78-1.56-2.6,.29-5.22,.4-7.83,.56-.56,.03-.99,.23-1.36,.65-.42,.48-.89,.93-1.34,1.39-1.23,1.24-1.66,1.32-3.16,.54-.65-1.14-.45-2.12,.51-3.02,.74-.69,1.43-1.42,2.11-2.16,.52-.56,1.13-.85,1.9-.89,2.01-.12,4.01-.3,6.02-.43,3.46-.22,6.96-.21,9.73-2.83,.43-.4,.65-.58,.24-1.12-1.7-2.24-3.36-4.51-5.04-6.78-3.26-4.5-6.52-9.01-9.83-13.58-.49,.79-.84,1.41-1.25,2.01-.83,1.21-1.78,1.51-2.73,.9-.94-.6-1.09-1.68-.28-2.85,1.2-1.76,1.78-3.68,1.68-5.8-.04-.85,.31-1.44,.97-1.95,2.05-1.58,4.81-1.51,6.75,.27,.89,.82,1.67,1.75,2.5,2.62,1.42,1.49,2.47,1.5,4.03,.04,1.64-1.54,1.73-2.59,.32-4.11-2.19-2.37-4.38-4.73-6.59-7.08-2.15-2.29-4.55-2.38-6.87-.25-1.37,1.25-2.68,2.56-4.06,3.8-1.28,1.15-2.21,2.51-2.85,4.12-2.21,5.52-4.5,11.01-6.7,16.53-.41,1.01-.98,1.78-1.85,2.44-9.94,7.62-19.87,15.26-29.79,22.89-1.04,.8-2.07,1.6-3.13,2.43,.15,.09,.21,.16,.27,.16,8.1,0,16.19-.02,24.29-.04,3.25,.02,6.51-.04,9.76,.08,1.55,.06,2.74-.26,3.76-1.52,.96-1.19,1.59-1.18,2.94-.45,.75,1.06,.6,2-.32,2.89-.93,.9-1.76,1.92-2.83,2.68H12.82Zm70.44-56.13c-.34-1.88-2.07-2.9-3.74-2.21-1.61,.67-1.73,1.14-.56,2.38,.19,.2,.41,.38,.61,.57,.61,.68,1.22,1.36,1.82,2.04,.2,.22,.39,.41,.68,.11,.78-.81,1.56-1.61,1.19-2.89Zm5.01,5.16c-.28-.34-.68-.42-1.07-.5-1.04-.22-1.92,.16-2.63,.87-.68,.69,.4,1.07,.4,1.67,0,.19,.14,.37,.22,.55,.79,3.35-.85,5.59-3.41,7.4,.39,.25,.68,0,.89-.2,2.07-1.89,4.17-3.76,6.15-5.74,1.17-1.17,.82-3.31-.56-4.06Zm12.09,16.87c-.4-2.13-2.68-3.16-4.27-1.82-2.09,1.77-4.09,3.65-6.04,5.57-1.14,1.13-1.11,2.38-.15,3.68,1.11,1.27,1.91,1.36,3.12,.34,2.13-1.78,4.24-3.59,6.39-5.35,.8-.65,1.14-1.42,.94-2.42Zm-4.61-8.23c-.04-1.15-.73-1.82-1.71-2.23-1.07-.44-2.07-.22-2.91,.54-1.9,1.73-3.78,3.48-5.64,5.26-1.05,1-1.15,2.2-.42,3.47,1.03,1.59,2.81,1.91,4.19,.68,1.86-1.66,3.69-3.35,5.5-5.06,.75-.71,1.3-1.54,.99-2.67ZM43.98,13.04c-.29,.21-.59,.41-.87,.64-10.51,8.84-21.02,17.68-31.53,26.52-1.95,1.64-1.93,1.62-.23,3.53,.47,.53,.74,.48,1.23,.05,1.51-1.33,3.06-2.61,4.61-3.9,1.24-1.03,1.81-1.04,3.1-.11,.57,1.16,.28,2.08-.73,2.85-.67,.51-1.26,1.13-1.95,1.62-.7,.5-.8,.87-.18,1.59,2.59,2.98,5.09,6.04,7.65,9.04,4.71,5.53,10.63,9.15,17.57,11.15,6.36,1.83,12.79,1.82,19.26,.75,1.51-.1,4.12-1.96,4.51-3.28,.79-2.66,1.66-5.29,2.17-8.02,1.72-9.31,.58-18.19-4.26-26.43-3.04-5.17-7.39-9.32-11.08-13.97-.3-.38-.52-.36-.87-.06-2.16,1.86-4.34,3.71-6.51,5.56-.32,.24-.65,.47-.95,.72-6,5.04-11.99,10.08-17.99,15.12-1.18,.99-1.73,1.01-3,.18-.63-1.44-.54-1.9,.68-2.93,3.23-2.73,6.48-5.44,9.71-8.18,3.9-3.3,7.8-6.62,11.69-9.93,2.19-1.82,4.38-3.64,6.59-5.44,.36-.29,.41-.52,.08-.87-.49-.53-.96-1.09-1.4-1.66-.31-.4-.55-.32-.88-.03-2.13,1.83-4.27,3.65-6.4,5.47Zm55.66,83.78c-5.49,4.6-10.98,9.2-16.49,13.78-.56,.46-.55,.89-.2,1.46,1.24,1.98,2.46,3.96,3.66,5.97,.45,.75,.88,.78,1.53,.23,6.08-5.15,12.17-10.29,18.26-15.44,2.17-1.8,4.33-3.61,6.5-5.39,.6-.5,.51-.89-.03-1.36-1.79-1.56-3.57-3.14-5.34-4.73-.52-.47-.96-.46-1.48,0-2.13,1.84-4.28,3.66-6.42,5.49Zm-28.33-60.69c1.58-2.94,3.17-5.5,4.45-8.23,1.98-4.24,2.23-8.5,.16-12.8-2.03-4.2-5.29-7.47-8.26-10.96-.64-.75-1.43-.54-2.11,.13-1.9,1.85-2.63,4.11-2.3,6.7,.34,2.7,.19,5.24-1.87,7.3-.57,.57-.01,.86,.26,1.19,1.91,2.29,3.82,4.57,5.4,7.11,1.81,2.91,3.14,6.03,4.27,9.57Zm-36.61,30.8c-.36-.25-.5-.39-.67-.47-5.34-2.7-9.7-6.58-13.37-11.25-.81-1.03-1.5-1.74-2.69-.55-.1,.1-.3,.1-.45,.16-2.07,.87-4.1,.42-6.13-.17-2.47-.72-4.77-.38-6.87,1.11-.99,.7-1.15,1.42-.38,2.34,2.33,2.77,4.51,5.68,7.2,8.13,3.95,3.58,8.45,5.1,13.78,3.83,3.21-.76,6.24-2.04,9.57-3.13Zm54.03,34.15c-2.44-1.74-3.57-3.96-2.93-6.91,.16-.71-.28-.78-.73-.97-2.43-1.04-3.82-2.87-4.04-5.51-.05-.61-.24-.8-.82-.88-1.98-.27-3.53-1.27-4.62-2.96-1.12-1.74-2.74-3.02-4.11-4.54-.36-.4-1.01-.65-1.42-.3-.54,.45,.13,.85,.37,1.18,5.04,6.93,10.1,13.84,15.15,20.75q1.4,1.91,3.15,.12Z"/><path class="cls-4" d="M78.66,97.69c1.68,2.26,3.34,4.53,5.04,6.78,.41,.55,.19,.72-.24,1.12-2.77,2.62-6.28,2.61-9.73,2.83-2.01,.13-4.01,.31-6.02,.43-.78,.04-1.38,.33-1.9,.89-.69,.74-1.38,1.47-2.11,2.16-.96,.89-1.16,1.87-.51,3.02-1.06,1.14-2.13,2.29-3.19,3.43-1.36-.73-1.98-.74-2.94,.45-1.02,1.26-2.2,1.58-3.76,1.52-3.25-.12-6.5-.06-9.76-.08,.01-.31,.2-.51,.4-.72,5.2-5.28,10.39-10.56,15.58-15.84,.32-.32,.63-.56,1.13-.59,3.15-.22,6.3-.55,9.46-.69,3.66-.17,6.34-1.99,8.55-4.72Z"/><path class="cls-2" d="M78.66,97.69c-2.21,2.73-4.89,4.55-8.55,4.72-3.16,.14-6.3,.47-9.46,.69-.5,.03-.82,.27-1.13,.59-5.19,5.28-10.39,10.56-15.58,15.84-.2,.2-.39,.41-.4,.72-8.1,.01-16.19,.03-24.29,.04-.06,0-.12-.07-.27-.16,1.06-.82,2.1-1.63,3.13-2.43,9.93-7.63,19.85-15.28,29.79-22.89,.86-.66,1.44-1.43,1.85-2.44,2.21-5.52,4.49-11.01,6.7-16.53,.64-1.61,1.57-2.97,2.85-4.12,1.38-1.24,2.69-2.55,4.06-3.8,2.32-2.12,4.72-2.03,6.87,.25,2.21,2.35,4.4,4.71,6.59,7.08,1.41,1.52,1.32,2.57-.32,4.11-1.55,1.46-2.61,1.45-4.03-.04-.83-.88-1.61-1.81-2.5-2.62-1.94-1.78-4.7-1.85-6.75-.27-.66,.51-1.01,1.1-.97,1.95,.11,2.12-.47,4.04-1.68,5.8-.8,1.18-.66,2.25,.28,2.85,.95,.61,1.9,.31,2.73-.9,.41-.59,.77-1.22,1.25-2.01,3.31,4.57,6.57,9.08,9.83,13.58Z"/><path class="cls-5" d="M61.91,66.78c-6.47,1.06-12.91,1.08-19.26-.75-6.94-2-12.86-5.62-17.57-11.15-2.56-3.01-5.06-6.06-7.65-9.04-.62-.72-.52-1.09,.18-1.59,.69-.49,1.28-1.11,1.95-1.62,1.01-.77,1.3-1.69,.73-2.85,1.07-1.23,2.45-2.09,3.63-3.18,1.27,.83,1.82,.81,3-.18,6-5.04,11.99-10.08,17.99-15.12,.3-.26,.63-.48,.95-.72,.19,.14,.42,.26,.57,.43,2.64,3.11,5.32,6.18,7.87,9.36,1.09,1.35,2.36,2.61,3.01,4.29-.92-.28-1.72-.04-2.51,.47-1.66,1.06-3.36,2.07-5.01,3.13-.52,.34-.96,.39-1.55,.11-1.78-.83-3.61-1.58-5.4-2.38-.93-.42-1.84-.63-2.72,.07-.94,.75-.85,1.74-.6,2.76,.47,1.91,.89,3.84,1.43,5.73,.18,.65,.02,1.04-.4,1.49-1.31,1.42-2.56,2.89-3.88,4.31-.73,.79-1.22,1.64-.8,2.72,.43,1.1,1.4,1.33,2.46,1.4,1.97,.13,3.93,.31,5.9,.42,.6,.03,.93,.28,1.22,.78,1.01,1.78,2.08,3.54,3.1,5.32,.48,.84,1.12,1.38,2.12,1.33,1.06-.05,1.65-.72,2.02-1.64,.73-1.83,1.51-3.64,2.21-5.48,.27-.71,.66-1.05,1.43-1.23,2.35-.53,4.75-.86,7.03-1.66,.17,4.89-.08,9.73-1.45,14.47Z"/><path class="cls-6" d="M57.32,34.66c-.65-1.68-1.92-2.94-3.01-4.29-2.56-3.17-5.24-6.25-7.87-9.36-.15-.18-.38-.29-.57-.43,2.17-1.85,4.35-3.69,6.51-5.56,.35-.3,.57-.32,.87,.06,3.7,4.66,8.05,8.81,11.08,13.97,4.84,8.24,5.98,17.11,4.26,26.43-.5,2.73-1.38,5.37-2.17,8.02-.39,1.32-3,3.18-4.51,3.28,1.37-4.73,1.62-9.58,1.45-14.47,.81-.88,1.13-1.86,.44-2.93-.3-.46-.76-.8-1.15-1.2-.4-4.2-1.98-7.98-4.08-11.59-.07-.87-.56-1.47-1.25-1.95Z"/><path class="cls-1" d="M71.31,36.13c-1.13-3.54-2.46-6.66-4.27-9.57-1.58-2.55-3.49-4.82-5.4-7.11-.28-.33-.83-.62-.26-1.19,2.06-2.06,2.21-4.61,1.87-7.3-.33-2.59,.4-4.85,2.3-6.7,.68-.66,1.47-.88,2.11-.13,2.96,3.49,6.23,6.76,8.26,10.96,2.07,4.3,1.82,8.56-.16,12.8-1.28,2.73-2.87,5.3-4.45,8.23Z"/><path class="cls-1" d="M34.7,66.94c-3.34,1.08-6.36,2.36-9.57,3.13-5.33,1.27-9.84-.25-13.78-3.83-2.69-2.44-4.87-5.36-7.2-8.13-.78-.92-.61-1.64,.38-2.34,2.11-1.5,4.41-1.83,6.87-1.11,2.03,.59,4.06,1.03,6.13,.17,.15-.06,.35-.06,.45-.16,1.19-1.19,1.88-.48,2.69,.55,3.67,4.67,8.03,8.55,13.37,11.25,.17,.08,.31,.22,.67,.47Z"/><path class="cls-5" d="M106.41,102.82c-6.09,5.14-12.18,10.28-18.26,15.44-.65,.55-1.08,.52-1.53-.23-1.2-2-2.42-3.99-3.66-5.97-.35-.57-.36-.99,.2-1.46,5.5-4.59,10.99-9.19,16.49-13.78,.18,.07,.4,.1,.54,.22,1.24,1.05,2.55,2.04,3.66,3.21,.83,.88,2.09,1.34,2.56,2.57Z"/><path class="cls-5" d="M23.92,36.6c-1.18,1.09-2.57,1.96-3.63,3.18-1.29-.93-1.86-.92-3.1,.11-1.55,1.29-3.1,2.57-4.61,3.9-.49,.43-.76,.48-1.23-.05-1.7-1.92-1.72-1.89,.23-3.53,10.51-8.84,21.02-17.68,31.53-26.52,.28-.23,.58-.43,.87-.64,.36,1.09,1.34,1.69,2.02,2.52-3.9,3.31-7.79,6.63-11.69,9.93-3.23,2.73-6.48,5.44-9.71,8.18-1.22,1.03-1.31,1.49-.68,2.93Z"/><path class="cls-6" d="M106.41,102.82c-.47-1.23-1.73-1.69-2.56-2.57-1.11-1.18-2.42-2.16-3.66-3.21-.14-.12-.36-.15-.54-.22,2.14-1.83,4.29-3.65,6.42-5.49,.52-.45,.96-.46,1.48,0,1.77,1.59,3.55,3.17,5.34,4.73,.54,.47,.64,.86,.03,1.36-2.18,1.79-4.34,3.59-6.5,5.39Z"/><path class="cls-5" d="M88.73,101.09q-1.75,1.79-3.15-.12c-5.06-6.91-10.11-13.83-15.15-20.75-.24-.33-.91-.73-.37-1.18,.42-.35,1.06-.1,1.42,.3,1.37,1.51,2.99,2.8,4.11,4.54,1.08,1.68,2.63,2.69,4.62,2.96,.59,.08,.77,.26,.82,.88,.22,2.64,1.61,4.47,4.04,5.51,.45,.19,.88,.26,.73,.97-.64,2.94,.49,5.17,2.93,6.91Z"/><path class="cls-4" d="M95.75,81.58c.31,1.13-.24,1.96-.99,2.67-1.81,1.71-3.64,3.41-5.5,5.06-1.38,1.22-3.16,.9-4.19-.68,1.7-1.57,3.43-3.1,5.08-4.72,1.57-1.54,3.25-2.71,5.6-2.33Z"/><path class="cls-4" d="M100.36,89.81c.2,1.01-.14,1.77-.94,2.42-2.15,1.76-4.26,3.56-6.39,5.35-1.21,1.02-2.01,.93-3.12-.34,.12-.45,.48-.73,.8-1.03,1.5-1.44,3.07-2.81,4.51-4.3,1.43-1.49,3.11-2.18,5.15-2.09Z"/><path class="cls-2" d="M100.36,89.81c-2.03-.09-3.71,.6-5.15,2.09-1.44,1.5-3.01,2.87-4.51,4.3-.32,.3-.68,.58-.8,1.03-.95-1.3-.99-2.55,.15-3.68,1.95-1.92,3.95-3.8,6.04-5.57,1.59-1.34,3.86-.31,4.27,1.82Z"/><path class="cls-6" d="M46,15.57c-.68-.84-1.66-1.43-2.02-2.52,2.13-1.82,4.27-3.64,6.4-5.47,.33-.29,.58-.36,.88,.03,.44,.57,.91,1.13,1.4,1.66,.33,.35,.28,.58-.08,.87-2.2,1.8-4.39,3.62-6.59,5.44Z"/><path class="cls-2" d="M95.75,81.58c-2.35-.38-4.02,.79-5.6,2.33-1.65,1.62-3.38,3.15-5.08,4.72-.73-1.27-.62-2.47,.42-3.47,1.86-1.78,3.74-3.53,5.64-5.26,.84-.76,1.84-.98,2.91-.54,.98,.41,1.67,1.08,1.71,2.23Z"/><path class="cls-4" d="M88.26,72.94c1.39,.75,1.73,2.89,.56,4.06-1.98,1.98-4.08,3.85-6.15,5.74-.21,.2-.5,.44-.89,.2,2.56-1.82,4.21-4.06,3.41-7.4,1.43-.38,2.1-1.67,3.07-2.6Z"/><path class="cls-2" d="M79.57,68.52c-.21-.19-.42-.36-.61-.57-1.17-1.24-1.05-1.72,.56-2.38,1.67-.69,3.4,.33,3.74,2.21-1.29-.04-2.55,.02-3.69,.74Z"/><path class="cls-4" d="M79.57,68.52c1.14-.72,2.4-.78,3.69-.74,.37,1.28-.41,2.09-1.19,2.89-.29,.3-.48,.11-.68-.11-.61-.68-1.21-1.36-1.82-2.04Z"/><path class="cls-2" d="M88.26,72.94c-.98,.92-1.64,2.22-3.07,2.6-.08-.18-.22-.37-.22-.55,0-.6-1.08-.97-.4-1.67,.71-.72,1.59-1.09,2.63-.87,.39,.08,.79,.16,1.07,.5Z"/><path class="cls-7" d="M57.32,34.66c.69,.47,1.18,1.07,1.25,1.95-.23,2.24-.45,4.48-.69,6.72-.05,.5-.07,.9,.4,1.27,1.48,1.17,2.92,2.39,4.37,3.6,.39,.4,.86,.74,1.15,1.2,.69,1.07,.37,2.05-.44,2.93-2.28,.81-4.68,1.13-7.03,1.66-.77,.17-1.16,.52-1.43,1.23-.7,1.84-1.47,3.65-2.21,5.48-.37,.93-.96,1.59-2.02,1.64-1,.05-1.64-.49-2.12-1.33-1.02-1.78-2.09-3.53-3.1-5.32-.29-.51-.62-.75-1.22-.78-1.97-.11-3.93-.29-5.9-.42-1.06-.07-2.03-.3-2.46-1.4-.42-1.08,.07-1.93,.8-2.72,1.31-1.42,2.57-2.89,3.88-4.31,.42-.45,.58-.84,.4-1.49-.53-1.89-.96-3.82-1.43-5.73-.25-1.02-.34-2.01,.6-2.76,.88-.7,1.79-.49,2.72-.07,1.8,.8,3.62,1.55,5.4,2.38,.59,.28,1.02,.22,1.55-.11,1.66-1.06,3.36-2.07,5.01-3.13,.79-.51,1.59-.74,2.51-.47Zm-16.38,16.36c1.54,.12,2.78,.32,4.02,.29,1.62-.04,2.64,.63,3.34,2.06,.56,1.16,1.29,2.23,2.03,3.5,.67-1.63,1.25-3,1.78-4.39,.37-.94,.98-1.51,2-1.7,1.48-.29,2.95-.65,4.67-1.04-1.25-1.06-2.31-2.02-3.44-2.9-.96-.74-1.32-1.65-1.17-2.84,.19-1.43,.31-2.88,.47-4.5-1.28,.79-2.47,1.44-3.57,2.22-1.18,.84-2.3,.94-3.6,.26-1.17-.61-2.43-1.06-3.87-1.67,.39,1.59,.68,2.92,1.05,4.23,.35,1.24,.14,2.26-.79,3.19-.98,.99-1.86,2.07-2.94,3.27Z"/><path class="cls-5" d="M62.64,48.19c-1.45-1.2-2.89-2.43-4.37-3.6-.47-.37-.45-.78-.4-1.27,.24-2.24,.46-4.48,.69-6.72,2.09,3.6,3.68,7.39,4.08,11.59Z"/><path class="cls-3" d="M40.94,51.01c1.08-1.21,1.96-2.29,2.94-3.27,.93-.94,1.14-1.95,.79-3.19-.37-1.31-.66-2.64-1.05-4.23,1.43,.61,2.69,1.06,3.87,1.67,1.3,.67,2.42,.57,3.6-.26,1.1-.78,2.3-1.43,3.57-2.22-.17,1.63-.29,3.07-.47,4.5-.15,1.19,.21,2.1,1.17,2.84,1.13,.87,2.19,1.83,3.44,2.9-1.72,.39-3.19,.75-4.67,1.04-1.02,.2-1.63,.76-2,1.7-.54,1.38-1.12,2.75-1.78,4.39-.74-1.27-1.47-2.34-2.03-3.5-.7-1.43-1.72-2.1-3.34-2.06-1.24,.03-2.48-.17-4.02-.29Z"/></g></g></svg>