<?xml version="1.0" encoding="UTF-8"?><svg id="Layer_2" xmlns="http://www.w3.org/2000/svg" viewBox="0 0 118.98 116.79"><defs><style>.cls-1{fill:#00ffc6;}.cls-2{fill:#e9f6f6;}.cls-3{fill:#fff;}.cls-4{fill:#b6e5f5;}.cls-5{fill:#06ffd5;}.cls-6{fill:#3e50b2;}.cls-7{fill:#1a2959;}</style></defs><g id="Layer_1-2"><g><path class="cls-7" d="M118.98,99.12c-.76,1.77-2.23,2.62-3.96,3.23-2.11,.75-4.17,1.62-6.26,2.42-.55,.21-.84,.5-1,1.12-.63,2.47-1.34,4.91-2.02,7.37-1.01,3.68-4.26,4.65-7.08,2.12-3.77-3.39-7.55-6.77-11.3-10.18-.56-.51-.91-.55-1.54-.1-3.2,2.29-6.94,3.53-10.5,5.09-4.77,2.09-9.58,4.08-14.35,6.16-1,.44-1.86,.45-2.87,.02-6.72-2.92-13.47-5.78-20.2-8.66-1.67-.72-3.29-1.55-4.75-2.63-.58-.43-.91-.4-1.45,.09-3.69,3.36-7.52,6.58-11.1,10.05-3.08,2.99-6.83,1.21-7.41-2.1-.42-2.38-1.3-4.68-1.89-7.04-.18-.73-.52-1.1-1.21-1.36-2.38-.9-4.75-1.84-7.11-2.78-3.36-1.34-3.98-4.65-1.31-7.07,5.86-5.29,11.73-10.57,17.63-15.82,.88-.78,1.33-1.59,1.53-2.8,.83-5.19,1.84-10.35,2.78-15.52,.67-3.65,1.35-7.3,2.01-10.95,.35-1.94,.87-2.38,2.86-2.44,8.67-.26,17.05-1.75,24.75-6.02,1.69-.94,3.29-2.03,4.83-3.2,1.08-.82,1.86-.84,2.94,0,7.51,5.82,16.23,8.22,25.52,8.99,1.43,.12,2.86,.17,4.29,.23,1.67,.06,2.28,.54,2.58,2.21,1.19,6.5,2.38,13,3.56,19.5,.5,2.74,1.14,5.45,1.39,8.23,.06,.59,.45,.87,.81,1.2,5.84,5.25,11.68,10.52,17.54,15.75,.98,.88,1.86,1.8,2.31,3.06v1.86ZM24.35,80.73c.5,10.63,5.26,18.62,14.98,23.22,6.32,2.99,12.84,5.54,19.27,8.31,.65,.28,1.2,.26,1.86-.03,6.24-2.7,12.57-5.22,18.74-8.07,9.73-4.49,14.85-12.22,15.38-22.95,.15-3.16-.62-6.21-1.18-9.29-1.2-6.61-2.45-13.2-3.65-19.81-.1-.53-.2-.81-.82-.83-2.32-.07-4.62-.35-6.92-.68-7.87-1.13-15.28-3.48-21.83-8.14-.49-.35-.81-.35-1.31,0-8.43,5.87-17.99,8.18-28.06,8.75-1.17,.07-1.53,.45-1.72,1.52-1.01,5.78-2.12,11.55-3.14,17.33-.62,3.53-1.57,7.02-1.59,10.68Zm74.11,2.52c-.11,.85-.16,1.43-.26,2-1.05,6.19-3.64,11.62-7.98,16.18-.42,.44-.4,.7,.05,1.09,1.37,1.19,2.71,2.43,4.07,3.64,2.42,2.16,4.84,4.31,7.39,6.57,.73-2.63,1.52-5.09,2.09-7.6,.49-2.19,1.69-3.5,3.81-4.22,2.42-.82,4.78-1.85,7.31-2.86-5.54-4.98-10.94-9.82-16.48-14.8ZM17.25,112.73c.36-.29,.6-.46,.83-.66,3.48-3.13,6.94-6.28,10.46-9.37,.68-.59,.64-.88,.05-1.51-3.43-3.64-5.77-7.91-7.08-12.74-.45-1.66-.69-3.36-.95-5.25-5.57,5.01-10.99,9.88-16.54,14.87,2.57,1.01,4.93,2.05,7.37,2.87,2.13,.72,3.3,2.05,3.79,4.24,.56,2.51,1.35,4.97,2.07,7.56Z"/><path class="cls-7" d="M47.01,30.39c.13-1.2,.34-3.43,.61-5.66,.1-.82-.04-1.45-.63-2.09-1.54-1.68-3.01-3.43-4.48-5.18-2.2-2.61-1.13-5.88,2.2-6.69,2.21-.54,4.44-1.03,6.67-1.49,.6-.12,.93-.39,1.21-.92,1.06-2.01,2.18-4,3.26-6C56.64,.89,57.85,0,59.55,0c1.65,0,2.82,.89,3.6,2.34,1.06,1.97,2.16,3.92,3.21,5.9,.31,.58,.65,.92,1.36,1.05,2.27,.44,4.53,.96,6.78,1.52,3.1,.78,4.15,4.07,2.11,6.53-1.46,1.76-2.94,3.49-4.47,5.18-.63,.69-.84,1.37-.72,2.29,.29,2.26,.51,4.53,.71,6.81,.3,3.42-2.68,5.5-5.81,4.07-1.96-.9-3.92-1.82-5.86-2.77-.64-.31-1.16-.35-1.82-.02-1.86,.94-3.75,1.81-5.64,2.69-3.42,1.6-6.35-.42-5.97-5.2Zm-1.66-15.72c.45,.53,.76,.91,1.08,1.28,1.36,1.58,2.71,3.18,4.1,4.75,.84,.95,1.24,2.03,1.12,3.3-.13,1.31-.3,2.61-.38,3.93-.08,1.36-.43,2.7-.3,4.22,1.94-.91,3.81-1.64,5.54-2.63,2.11-1.2,4.03-1.14,6.12,.03,1.73,.97,3.6,1.71,5.59,2.64-.25-2.41-.4-4.61-.72-6.78-.31-2.09,0-3.87,1.58-5.42,1.1-1.08,2.05-2.32,3.05-3.5,.48-.58,1.09-1.07,1.42-1.85-2.52-.56-4.96-1.13-7.41-1.65-1.3-.28-2.23-1.01-2.86-2.16-1.1-2-2.18-4-3.29-6-.13-.24-.15-.62-.6-.64-1.14,2.09-2.33,4.18-3.43,6.3-.75,1.45-1.87,2.29-3.46,2.62-2.31,.47-4.6,1-7.14,1.56Z"/><path class="cls-7" d="M37.55,21.93c0,.79-.24,1.52-.61,2.21-.88,1.67-1.74,3.36-2.65,5.01-.29,.52-.33,.96-.12,1.52,.66,1.81,1.28,3.64,1.87,5.47,1.1,3.36-1.25,6.04-4.73,5.39-1.63-.31-3.26-.64-4.87-1.06-.84-.22-1.45-.04-2.1,.51-1.27,1.07-2.58,2.09-3.91,3.09-2.71,2.04-5.98,.74-6.54-2.62-.32-1.94-.55-3.9-.76-5.86-.07-.69-.37-1.1-.91-1.48-1.52-1.07-3.01-2.17-4.5-3.28-2.78-2.07-2.46-5.56,.67-7.09,1.56-.76,3.12-1.52,4.71-2.21,.71-.31,1.06-.76,1.24-1.5,.43-1.76,.93-3.5,1.46-5.24,.97-3.2,4.56-4.04,6.86-1.59,1.27,1.35,2.5,2.75,3.7,4.16,.44,.52,.89,.74,1.57,.72,1.93-.06,3.87-.07,5.8-.03,2.14,.04,3.78,1.77,3.8,3.89Zm-27.71,5.53c1.9,1.4,3.64,2.68,5.39,3.95,1.07,.78,1.62,1.82,1.77,3.12,.21,1.88,.5,3.76,.68,5.64,.09,.86,.37,.76,.89,.34,1.2-.97,2.46-1.88,3.62-2.9,1.4-1.22,2.92-1.57,4.73-1.09,1.74,.46,3.52,.76,5.44,1.17-.71-2.08-1.29-3.99-2-5.86-.6-1.57-.47-2.99,.35-4.44,.98-1.73,1.86-3.52,2.84-5.39-1.82,0-3.48-.11-5.12,.03-2.25,.19-3.96-.53-5.33-2.34-1.02-1.34-2.23-2.54-3.47-3.92-.6,2.09-1.18,4-1.67,5.93-.38,1.5-1.25,2.51-2.65,3.14-1.79,.81-3.55,1.69-5.48,2.61Z"/><path class="cls-7" d="M88.72,18.02c2.36,.78,4.22-.48,5.72-2.68,.56-.82,1.29-1.54,1.99-2.26,2.24-2.3,5.78-1.46,6.74,1.61,.57,1.84,1.1,3.7,1.57,5.57,.15,.6,.45,.91,.98,1.16,1.65,.76,3.28,1.54,4.91,2.34,3.11,1.54,3.41,5.01,.62,7.1-1.55,1.16-3.11,2.3-4.68,3.43-.4,.29-.61,.6-.67,1.12-.24,2.07-.47,4.15-.82,6.21-.54,3.2-3.83,4.47-6.44,2.51-1.42-1.07-2.82-2.17-4.19-3.31-.53-.44-1.03-.54-1.7-.39-1.77,.42-3.54,.81-5.32,1.14-3.1,.59-5.49-2.1-4.55-5.12,.57-1.84,1.2-3.66,1.86-5.48,.27-.74,.27-1.34-.14-2.06-.92-1.61-1.76-3.26-2.6-4.91-1.51-2.98,.28-5.95,3.62-5.99,.89-.01,1.78,0,3.08,0Zm-2.09,19.68c1.96-.42,3.74-.74,5.49-1.19,1.76-.45,3.25-.14,4.63,1.06,1.17,1.01,2.41,1.93,3.63,2.88,.21,.16,.49,.42,.67,.37,.37-.1,.22-.52,.26-.8,.19-1.49,.46-2.99,.53-4.49,.11-2.21,1.1-3.76,2.96-4.92,1.48-.92,2.83-2.05,4.34-3.16-1.92-.92-3.64-1.81-5.41-2.58-1.51-.66-2.38-1.74-2.78-3.31-.47-1.88-1.04-3.74-1.62-5.79-1.49,1.68-2.86,3.19-4.2,4.73-.92,1.06-2.04,1.57-3.46,1.54-2.03-.05-4.07-.01-6.26-.01,.98,1.86,1.85,3.62,2.81,5.32,.84,1.48,.99,2.93,.37,4.54-.71,1.83-1.27,3.72-1.98,5.83Z"/><path class="cls-4" d="M24.35,80.73c.02-3.66,.96-7.15,1.59-10.68,1.02-5.78,2.13-11.54,3.14-17.33,.19-1.08,.55-1.46,1.72-1.52,10.08-.56,19.64-2.87,28.06-8.75,.5-.35,.82-.35,1.31,0,6.55,4.66,13.96,7.01,21.83,8.14,2.3,.33,4.6,.62,6.92,.68,.63,.02,.73,.3,.82,.83,1.2,6.61,2.45,13.2,3.65,19.81,.56,3.07,1.33,6.12,1.18,9.29-.52,10.73-5.64,18.46-15.38,22.95-6.17,2.85-12.5,5.37-18.74,8.07-.66,.29-1.21,.31-1.86,.03-6.42-2.76-12.95-5.31-19.27-8.31-9.72-4.61-14.48-12.59-14.98-23.22Zm3.97,.96c.44,8.1,4.5,14.86,12.79,18.74,5.57,2.6,11.3,4.85,16.93,7.29,.99,.43,1.87,.47,2.88,.03,5.67-2.47,11.4-4.81,17.05-7.33,8.76-3.91,13.7-12.9,12.57-21.81-.93-7.3-2.54-14.51-3.87-21.76-.21-1.14-.87-1.83-2.13-1.92-1.46-.11-2.92-.31-4.37-.54-6.83-1.07-13.25-3.34-19.26-6.76-.98-.56-1.85-.61-2.82,0-.81,.52-1.69,.93-2.55,1.37-6.59,3.36-13.61,5.23-20.96,5.93-1.53,.15-1.98,.67-2.25,2.16-.8,4.41-1.64,8.81-2.41,13.23-.6,3.46-1.53,6.87-1.6,11.37Z"/><path class="cls-5" d="M98.46,83.25c5.54,4.98,10.94,9.82,16.48,14.8-2.54,1-4.89,2.04-7.31,2.86-2.12,.72-3.32,2.03-3.81,4.22-.57,2.51-1.35,4.97-2.09,7.6-2.54-2.26-4.97-4.41-7.39-6.57-1.36-1.21-2.69-2.45-4.07-3.64-.45-.39-.47-.65-.05-1.09,4.34-4.56,6.93-9.99,7.98-16.18,.1-.57,.15-1.15,.26-2Z"/><path class="cls-5" d="M17.25,112.73c-.72-2.59-1.51-5.05-2.07-7.56-.49-2.18-1.66-3.52-3.79-4.24-2.43-.82-4.8-1.86-7.37-2.87,5.55-4.99,10.97-9.86,16.54-14.87,.26,1.89,.5,3.59,.95,5.25,1.31,4.83,3.65,9.09,7.08,12.74,.59,.63,.62,.92-.05,1.51-3.52,3.09-6.98,6.24-10.46,9.37-.22,.2-.47,.38-.83,.66Z"/><path class="cls-1" d="M45.34,14.67c2.54-.56,4.84-1.09,7.14-1.56,1.59-.32,2.71-1.17,3.46-2.62,1.1-2.12,2.28-4.21,3.43-6.3,.45,.02,.47,.4,.6,.64,1.1,1.99,2.19,4,3.29,6,.63,1.15,1.56,1.88,2.86,2.16,2.45,.52,4.89,1.09,7.41,1.65-.33,.77-.93,1.27-1.42,1.85-1,1.19-1.94,2.43-3.05,3.5-1.58,1.54-1.89,3.33-1.58,5.42,.32,2.17,.47,4.37,.72,6.78-1.99-.93-3.86-1.66-5.59-2.64-2.09-1.17-4.01-1.24-6.12-.03-1.73,.99-3.61,1.72-5.54,2.63-.13-1.52,.21-2.86,.3-4.22,.08-1.31,.25-2.62,.38-3.93,.13-1.27-.28-2.35-1.12-3.3-1.38-1.57-2.73-3.16-4.1-4.75-.32-.37-.63-.75-1.08-1.28Z"/><path class="cls-1" d="M9.85,27.45c1.93-.92,3.69-1.8,5.48-2.61,1.41-.63,2.27-1.64,2.65-3.14,.49-1.93,1.08-3.83,1.67-5.93,1.24,1.39,2.45,2.58,3.47,3.92,1.37,1.81,3.07,2.54,5.33,2.34,1.64-.14,3.31-.03,5.12-.03-.98,1.86-1.86,3.65-2.84,5.39-.82,1.45-.94,2.87-.35,4.44,.71,1.86,1.29,3.77,2,5.86-1.93-.41-3.7-.71-5.44-1.17-1.81-.48-3.33-.13-4.73,1.09-1.16,1.01-2.42,1.92-3.62,2.9-.53,.43-.81,.53-.89-.34-.19-1.88-.47-3.76-.68-5.64-.15-1.3-.7-2.34-1.77-3.12-1.75-1.27-3.49-2.56-5.39-3.95Z"/><path class="cls-1" d="M86.64,37.7c.71-2.11,1.27-3.99,1.98-5.83,.62-1.61,.47-3.06-.37-4.54-.96-1.7-1.83-3.46-2.81-5.32,2.19,0,4.23-.04,6.26,.01,1.43,.04,2.54-.47,3.46-1.54,1.34-1.54,2.71-3.05,4.2-4.73,.58,2.05,1.15,3.91,1.62,5.79,.4,1.58,1.27,2.66,2.78,3.31,1.77,.77,3.48,1.65,5.41,2.58-1.51,1.11-2.87,2.24-4.34,3.16-1.86,1.16-2.85,2.71-2.96,4.92-.07,1.5-.34,2.99-.53,4.49-.04,.29,.11,.71-.26,.8-.18,.05-.47-.21-.67-.37-1.22-.95-2.46-1.87-3.63-2.88-1.38-1.19-2.87-1.51-4.63-1.06-1.74,.45-3.52,.77-5.49,1.19Z"/><path class="cls-7" d="M28.32,81.69c.07-4.5,1-7.91,1.6-11.37,.76-4.42,1.61-8.82,2.41-13.23,.27-1.49,.72-2.01,2.25-2.16,7.35-.7,14.36-2.57,20.96-5.93,.86-.44,1.74-.85,2.55-1.37,.97-.62,1.84-.57,2.82,0,6.01,3.42,12.43,5.69,19.26,6.76,1.45,.23,2.91,.43,4.37,.54,1.26,.09,1.92,.78,2.13,1.92,1.33,7.25,2.94,14.46,3.87,21.76,1.14,8.91-3.81,17.91-12.57,21.81-5.65,2.52-11.37,4.86-17.05,7.33-1.01,.44-1.88,.4-2.88-.03-5.64-2.45-11.37-4.69-16.93-7.29-8.29-3.87-12.35-10.63-12.79-18.74Zm41.44,17.85c.18,.04,.32,0,.38-.19,.41-.17,.83-.34,1.24-.51,1.49-.61,3-1.2,4.48-1.84,6.83-2.95,10.88-9.19,10.82-16.62-.02-2.14-.56-4.2-.93-6.29-.86-4.82-1.74-9.64-2.63-14.46-.07-.4-.03-.93-.74-.98-1.11-.07-2.22-.25-3.33-.39-.34-.08-.67-.18-1.01-.25-6.13-1.12-11.96-3.09-17.47-6-.82-.43-1.45-.42-2.22,0-6.66,3.53-13.75,5.71-21.24,6.58-.87,.1-1.15,.44-1.29,1.21-1.05,5.82-2.1,11.64-3.19,17.45-1.52,8.08,2.43,16.08,9.78,19.41,5.38,2.44,10.85,4.68,16.29,7,.42,.18,.85,.41,1.3,.05,.34,0,.63-.11,.85-.38,.26-.1,.51-.21,.77-.31,.18,.04,.32,0,.39-.19,.41-.17,.83-.34,1.24-.51,.18,.04,.32,0,.39-.19,.41-.17,.83-.34,1.24-.51,.18,.04,.32,0,.39-.19,.41-.17,.83-.34,1.24-.51,.18,.04,.32,0,.38-.19,.41-.17,.83-.34,1.24-.51,.18,.04,.32,0,.39-.19,.41-.17,.83-.34,1.24-.51Z"/><path class="cls-3" d="M68.14,100.23c-.41,.17-.83,.34-1.24,.51-.31-.3-.35-.07-.39,.19-.41,.17-.83,.34-1.24,.51-.31-.3-.35-.07-.39,.19-.41,.17-.83,.34-1.24,.51-.31-.3-.35-.07-.39,.19-.41,.17-.83,.34-1.24,.51-.31-.3-.35-.07-.39,.19-.26,.1-.51,.21-.77,.31-.47-.29-.69-.01-.85,.38-.45,.36-.88,.13-1.3-.05-5.43-2.32-10.91-4.56-16.29-7-7.35-3.34-11.3-11.34-9.78-19.41,1.09-5.81,2.15-11.63,3.19-17.45,.14-.78,.42-1.11,1.29-1.21,7.49-.86,14.58-3.04,21.24-6.58,.78-.41,1.41-.43,2.22,0,5.5,2.91,11.34,4.88,17.47,6,.34,.06,.68,.16,1.01,.25,0,.23-.03,.47,.01,.69,.97,5.22,1.93,10.45,2.94,15.66,.63,3.27,1.13,6.54,.41,9.86-1.34,6.25-4.84,10.85-10.5,13.82-.23,.12-.54,.17-.54,.53-.41,.17-.83,.34-1.24,.51-.31-.3-.35-.06-.38,.19-.41,.17-.83,.34-1.24,.51-.3-.3-.35-.07-.39,.19Zm-6.66-23.12c0,2.94,0,5.88,0,8.81,0,.31,0,.62,.01,.93,.08,1.31,.84,2.14,1.95,2.16,1.17,.02,1.99-.84,2.02-2.21,.04-1.62,.03-3.25,0-4.87-.01-.65,.19-.89,.86-.87,1.16,.04,2.32,.04,3.48-.02,4.07-.18,7.23-3.3,7.55-7.4,.3-3.9-2.52-7.52-6.47-8.25-2.07-.38-4.16-.14-6.25-.17-2.68-.04-3.14,.46-3.14,3.18,0,2.9,0,5.8,0,8.7Zm-11.89-3.85c-1.4-2.34-2.72-4.56-4.06-6.77-.77-1.27-1.87-1.63-2.91-1-1.04,.63-1.24,1.77-.5,3.03,1.1,1.87,2.06,3.85,3.38,5.54,1.68,2.14,1.69,3.93,.03,6.09-1.38,1.79-2.41,3.87-3.55,5.84-.61,1.05-.3,2.16,.65,2.72,.94,.56,2.04,.29,2.73-.7,.22-.32,.41-.66,.61-.99,1.19-1.98,2.38-3.97,3.63-6.04,1.38,2.3,2.69,4.49,4.01,6.67,.82,1.35,1.89,1.74,2.97,1.09,1.05-.63,1.22-1.8,.42-3.14-1.5-2.53-2.99-5.06-4.54-7.55-.43-.69-.43-1.17,0-1.87,1.6-2.56,3.14-5.15,4.66-7.75,.88-1.51,.16-3.12-1.41-3.22-.97-.07-1.57,.48-2.04,1.27-1.32,2.22-2.66,4.43-4.07,6.78Z"/><path class="cls-2" d="M71.39,98.84c0-.36,.31-.41,.54-.53,5.65-2.97,9.15-7.57,10.5-13.82,.72-3.33,.22-6.59-.41-9.86-1-5.22-1.97-10.44-2.94-15.66-.04-.22,0-.46-.01-.69,1.11,.14,2.21,.32,3.33,.39,.71,.05,.66,.57,.74,.98,.89,4.82,1.77,9.63,2.63,14.46,.37,2.09,.92,4.15,.93,6.29,.06,7.43-3.99,13.67-10.82,16.62-1.48,.64-2.99,1.23-4.48,1.84Z"/><path class="cls-6" d="M60.01,103.72c.17-.39,.38-.67,.85-.38-.22,.27-.51,.38-.85,.38Z"/><path class="cls-6" d="M69.77,99.54c.03-.25,.08-.49,.38-.19-.07,.18-.2,.23-.38,.19Z"/><path class="cls-6" d="M68.14,100.23c.04-.25,.08-.49,.39-.19-.07,.19-.21,.23-.39,.19Z"/><path class="cls-6" d="M66.51,100.93c.03-.26,.08-.49,.39-.19-.07,.19-.21,.23-.39,.19Z"/><path class="cls-6" d="M64.89,101.63c.04-.25,.08-.49,.39-.19-.07,.19-.21,.23-.39,.19Z"/><path class="cls-6" d="M63.26,102.33c.03-.26,.08-.49,.39-.19-.07,.19-.21,.23-.39,.19Z"/><path class="cls-6" d="M61.64,103.02c.03-.26,.08-.49,.39-.19-.07,.19-.21,.23-.39,.19Z"/><path class="cls-7" d="M61.48,77.12c0-2.9,0-5.8,0-8.7,0-2.72,.47-3.22,3.14-3.18,2.08,.03,4.18-.22,6.25,.17,3.96,.73,6.78,4.35,6.47,8.25-.32,4.1-3.48,7.21-7.55,7.4-1.16,.05-2.32,.06-3.48,.02-.67-.02-.87,.22-.86,.87,.04,1.62,.04,3.25,0,4.87-.03,1.37-.86,2.22-2.02,2.21-1.11-.01-1.87-.85-1.95-2.16-.02-.31-.01-.62-.01-.93,0-2.94,0-5.88,0-8.81Zm3.99-3.97c0,1.08,.02,2.16,0,3.24-.02,.55,.18,.75,.73,.73,1.08-.03,2.16,.01,3.24-.02,2.22-.06,3.91-1.73,3.96-3.87,.04-2.11-1.62-3.9-3.82-4.03-1.12-.06-2.24,.02-3.36-.03-.67-.03-.76,.29-.75,.84,.03,1.04,0,2.08,0,3.13Z"/><path class="cls-7" d="M49.6,73.27c1.41-2.35,2.75-4.56,4.07-6.78,.47-.79,1.07-1.33,2.04-1.27,1.57,.11,2.29,1.72,1.41,3.22-1.53,2.6-3.06,5.2-4.66,7.75-.43,.69-.43,1.18,0,1.87,1.55,2.49,3.04,5.03,4.54,7.55,.8,1.34,.63,2.51-.42,3.14-1.07,.64-2.15,.26-2.97-1.09-1.32-2.18-2.63-4.37-4.01-6.67-1.25,2.07-2.44,4.06-3.63,6.04-.2,.33-.39,.67-.61,.99-.69,.98-1.79,1.26-2.73,.7-.94-.56-1.25-1.67-.65-2.72,1.14-1.98,2.17-4.05,3.55-5.84,1.67-2.16,1.65-3.95-.03-6.09-1.33-1.69-2.28-3.67-3.38-5.54-.75-1.26-.54-2.4,.5-3.03,1.04-.63,2.14-.27,2.91,1,1.34,2.21,2.66,4.43,4.06,6.77Z"/><path class="cls-3" d="M65.48,73.14c0-1.04,.02-2.08,0-3.13-.01-.55,.08-.87,.75-.84,1.12,.05,2.24-.03,3.36,.03,2.2,.13,3.87,1.91,3.82,4.03-.04,2.14-1.73,3.8-3.96,3.87-1.08,.03-2.16-.01-3.24,.02-.55,.02-.75-.18-.73-.73,.03-1.08,0-2.16,0-3.24Z"/></g></g></svg>