<?xml version="1.0" encoding="UTF-8"?><svg id="Layer_2" xmlns="http://www.w3.org/2000/svg" viewBox="0 0 421.69 131.89"><g id="Layer_1-2"><g><polygon points="354.07 0 320.38 70.71 328.92 70.71 354.55 15.18 373.06 51.72 352.89 51.72 352.89 59.79 377.09 59.79 408.4 119.82 380.65 119.82 380.65 127.65 421.69 127.65 386.58 60.03 407.88 60.01 407.93 51.72 382.31 51.72 354.07 0"/><path d="M20.43,93.66l4.48,18.66H15.65l4.77-18.66Zm-5.85-9.89L.08,130.66l-.08,.27H10.58l2.38-9.13h14.53l2.43,9.13h11.9l-14.58-47.15H14.58Z"/><g><path d="M81.63,112.91c-.16,6.13-2.69,9.51-7.14,9.51s-6.98-3.38-7.14-9.5v-29.14h-10.55v29.79c.09,11.48,6.71,18.33,17.69,18.33s17.6-6.85,17.69-18.33v-29.79h-10.55v29.14Z"/><path d="M128.73,102.29c-.83-.24-1.62-.46-2.37-.71-2.71-.91-5.79-1.95-5.79-5.24,0-2.2,1.9-4.07,4.15-4.07,1.65,0,2.91,.48,3.75,1.42,.9,.96,1.31,2.26,1.26,4v.21s10.54,0,10.54,0v-.19c.26-4.57-.84-8.18-3.26-10.74-3.27-3.45-8.13-4.18-11.63-4.18-7,0-15.44,2.48-15.87,14.32,0,5.35,2.05,9.57,5.63,11.58,2.91,1.63,5.72,2.48,8.2,3.23,4.31,1.3,7.16,2.16,7.16,6.04,0,3.07-2.99,4.45-5.11,4.45-1.73,0-3.19-.55-4.22-1.6-1.14-1.15-1.73-2.88-1.71-4.99v-.21s-10.55,0-10.55,0v.21c.13,10.81,5.49,16.06,16.38,16.06,7.51,0,16.27-3.85,16.27-14.71s-7.11-13.26-12.82-14.89"/><path d="M181.31,106.49c3.58-1.07,7.48-4.31,7.48-10.27,0-9.08-6.65-12.38-12.88-12.44h-17.74v47.15h17.44c.1,0,.3,.01,.57,.01,1.66,0,4.87-.24,7.78-1.88,3.81-2.14,5.74-5.85,5.74-11.03,0-7.11-4.23-10.59-8.4-11.54m-12.59-13.24h5.32c2.29,0,3.95,1.82,3.95,4.32,0,3.17-1.41,4.71-4.31,4.71l-4.96,.06v-9.1Zm5.72,28.2h-5.72v-9.69h6.42c2.28,.19,3.51,2.74,3.51,5.04,0,2.74-1.73,4.65-4.2,4.65"/><path d="M231.11,112.91c-.16,6.13-2.69,9.51-7.14,9.51s-6.98-3.38-7.14-9.5v-29.14h-10.55v29.79c.09,11.48,6.7,18.33,17.69,18.33s17.61-6.85,17.7-18.33v-29.79h-10.55v29.14Z"/><rect x="259.6" y="83.77" width="10.55" height="47.15"/><polygon points="298.38 83.77 287.83 83.77 287.83 130.92 314.96 130.92 314.96 121.45 298.38 121.45 298.38 83.77"/><path d="M345.82,83.77h-15.66v47.15h15.66c14.16,0,21.04-7.71,21.04-23.58s-6.88-23.57-21.04-23.57m-.56,37.67h-4.56v-28.2h4.56c5.25,0,10.54,4.36,10.54,14.1s-5.29,14.1-10.54,14.1"/><path d="M387.33,28.07c.19,.69,.46,1.34,.82,1.94,.35,.6,.77,1.15,1.27,1.65,.5,.49,1.04,.92,1.65,1.28,.6,.35,1.25,.62,1.94,.82,.7,.2,1.42,.29,2.16,.29s1.48-.1,2.17-.29c.69-.2,1.34-.47,1.94-.82,.61-.35,1.16-.78,1.65-1.28,.49-.49,.92-1.04,1.27-1.65,.35-.6,.62-1.25,.82-1.94,.19-.69,.29-1.41,.29-2.16s-.1-1.46-.29-2.16c-.2-.7-.47-1.35-.82-1.95-.35-.6-.77-1.15-1.27-1.64-.5-.5-1.05-.92-1.65-1.28-.61-.35-1.25-.63-1.94-.82-.69-.2-1.42-.29-2.17-.29s-1.47,.1-2.16,.29c-.69,.19-1.34,.47-1.94,.82-.6,.35-1.15,.78-1.65,1.28-.5,.49-.92,1.04-1.27,1.64-.35,.6-.62,1.25-.82,1.95-.2,.69-.29,1.41-.29,2.16s.1,1.47,.29,2.16m.95-5.1c.39-.91,.92-1.71,1.59-2.39,.68-.68,1.47-1.22,2.38-1.62,.91-.39,1.88-.59,2.91-.59s2.01,.2,2.93,.59c.91,.39,1.71,.93,2.38,1.62,.68,.68,1.21,1.48,1.6,2.39,.39,.91,.59,1.89,.59,2.94s-.2,2.02-.59,2.94c-.39,.91-.93,1.71-1.6,2.39-.68,.68-1.47,1.22-2.38,1.61-.91,.39-1.89,.59-2.93,.59s-2.01-.19-2.91-.59c-.91-.39-1.7-.92-2.38-1.61-.68-.68-1.21-1.48-1.59-2.39-.39-.91-.58-1.89-.58-2.94s.19-2.02,.58-2.94m6.07,3.51c.2,0,.35,.03,.45,.07,.09,.05,.17,.12,.23,.2l3.04,3.96c.04,.08,.1,.13,.15,.15,.06,.02,.12,.03,.2,.03h.9l-3.22-4.15c-.07-.1-.14-.19-.21-.26-.07-.07-.15-.13-.24-.19,.88-.12,1.56-.42,2.04-.9,.49-.48,.73-1.1,.73-1.85,0-.88-.29-1.55-.88-1.98-.59-.43-1.46-.65-2.61-.65h-2.79v9.97h.96v-4.41h1.24Zm-1.24-4.82h1.83c.88,0,1.53,.16,1.94,.47,.41,.32,.61,.82,.61,1.51s-.22,1.2-.67,1.57c-.45,.36-1.13,.55-2.04,.55h-1.67v-4.1Z"/></g></g></g></svg>