<?xml version="1.0" encoding="UTF-8"?><svg id="Layer_2" xmlns="http://www.w3.org/2000/svg" viewBox="0 0 379.67 102.49"><g id="Layer_1-2"><g><path d="M64.09,86.69c-.52,.46-.97,.87-1.42,1.28-7.8,7.07-16.89,11.34-27.38,12.55-5.94,.69-11.83,.59-17.56-1.35-9.72-3.29-15.76-9.92-17.36-20.12-1.06-6.71,.11-13.09,4.42-18.6,2.96-3.78,6.91-6.23,11.28-8.06,4.33-1.81,8.89-2.81,13.47-3.72,8.07-1.61,16.19-2.91,24.24-4.62,2.82-.6,5.55-1.51,8.28-2.44,.29-.1,.53-.19,.51-.6-.16-3.75-.23-7.51-1.23-11.16-1.53-5.58-5.31-8.74-10.83-9.99-4.27-.97-8.58-.96-12.91-.51-3.65,.38-7.2,1.2-10.54,2.77-4.39,2.06-7.66,5.17-9.37,9.81-.63,1.72-1.31,3.44-2.63,4.8-1.9,1.95-5.15,2.43-7.82,1.17-2.62-1.23-4.18-3.87-3.91-6.62,.44-4.46,2.38-8.27,5.21-11.65,3.86-4.62,8.85-7.54,14.48-9.45,5.44-1.85,11.07-2.59,16.79-2.71,4.51-.1,9,.07,13.47,.75,4.9,.75,9.62,2.03,13.85,4.75,5.01,3.23,7.89,7.93,9.37,13.59,1.05,4.02,1.42,8.12,1.56,12.25,.22,6.59-.07,13.18-.18,19.76-.1,5.67-.37,11.34-.16,17.01,.15,3.77,.84,7.43,2.15,10.99,.78,2.14,1.38,4.35,1.76,6.61,.47,2.76-.55,4.82-2.83,6.3-2.87,1.87-7.2,2.51-10.33-1.94-1.68-2.39-2.64-5.1-3.49-7.85-.3-.97-.57-1.94-.88-3.01Zm-1.35-33.79c-.21-.08-.34,0-.48,.05-2.18,.83-4.39,1.59-6.65,2.15-5.26,1.29-10.58,2.29-15.9,3.33-4.42,.86-8.87,1.66-13.2,2.93-2.49,.73-4.77,1.87-6.62,3.67-3.17,3.1-4.39,6.91-3.78,11.32,.49,3.54,2.17,6.4,4.98,8.54,2.83,2.17,6.12,3.31,9.65,3.62,3.06,.27,6.13,0,9.15-.6,3.97-.8,7.73-2.18,11.2-4.3,2.8-1.71,5.22-3.84,7.14-6.5,1.66-2.31,2.59-4.94,3.21-7.71,.56-2.5,.87-5.01,1.05-7.55,.08-1.19,0-2.38,.13-3.56,.2-1.81,.08-3.61,.13-5.39Z"/><path d="M240,57.42c-9.29,0-18.57,0-27.86-.02-.72,0-.83,.2-.8,.89,.2,4.49,.82,8.9,2.3,13.17,2.19,6.3,5.88,11.42,11.85,14.66,4.79,2.6,9.96,3.4,15.36,3.09,4.79-.28,9.25-1.54,13.15-4.43,3.05-2.25,5.36-5.17,7.46-8.27,.92-1.36,1.79-2.75,2.73-4.1,1.18-1.7,2.62-3.08,4.78-3.41,4.48-.69,7.87,3.03,6.92,7.6-.58,2.8-2.03,5.21-3.56,7.57-5.75,8.86-13.94,14.06-24.28,15.86-8.19,1.43-16.36,1.28-24.38-1.12-12.59-3.77-20.74-12.17-25.09-24.42-2.1-5.91-2.97-12.04-3.15-18.28-.18-6.57,.41-13.06,2.22-19.41,1.93-6.74,5.06-12.83,9.99-17.9,5.25-5.4,11.66-8.72,18.98-10.29,8.47-1.81,16.91-1.73,25.22,.86,9.93,3.1,16.83,9.7,21.29,18.97,2.65,5.52,4.16,11.36,4.59,17.47,.1,1.47,.11,2.94-.18,4.39-.77,3.9-3.14,6.09-7.15,6.74-1.9,.31-3.82,.35-5.73,.36-8.22,.03-16.43,.01-24.65,.01Zm-3.28-10.95c7.2,0,14.39,0,21.59,0,1,0,1.99,0,2.99,0,.33,0,.51,0,.47-.47-.09-1.08-.19-2.16-.29-3.23-.27-2.99-.97-5.87-2.11-8.65-1.93-4.71-4.76-8.71-9.15-11.45-4.24-2.65-8.87-3.71-13.85-3.57-2.56,.07-5.05,.45-7.45,1.32-7.01,2.53-11.57,7.58-14.54,14.23-1.59,3.55-2.22,7.34-2.82,11.15-.09,.56,.09,.69,.66,.69,8.17-.02,16.33-.01,24.5-.01Z"/><path d="M379.67,54.13c.02,7.46-.84,14.79-3.59,21.78-5.18,13.14-14.74,21.18-28.58,23.99-9.08,1.84-18.09,1.38-26.79-1.99-10.76-4.17-17.82-12.02-21.89-22.67-2.18-5.69-3.2-11.62-3.34-17.7-.17-7.63,.57-15.14,2.85-22.45,1.93-6.18,4.92-11.76,9.48-16.44,5.13-5.27,11.39-8.5,18.54-10.03,8.54-1.82,17.07-1.73,25.44,.87,13,4.04,21.19,12.91,25.28,25.74,1.76,5.51,2.47,11.2,2.58,16.97,.01,.65,0,1.29,0,1.94Zm-68.32-.68c0,5.34,.46,9.92,1.67,14.42,1.38,5.11,3.58,9.79,7.31,13.64,4.65,4.79,10.4,6.98,17.01,7.07,5.75,.08,11.01-1.41,15.54-5.07,3.88-3.14,6.4-7.22,8.1-11.85,2.46-6.72,3.07-13.68,2.73-20.77-.26-5.4-1.17-10.67-3.34-15.65-3.97-9.09-10.6-14.67-20.76-15.43-4.86-.36-9.51,.47-13.82,2.84-5.36,2.94-8.84,7.51-11.15,13.06-2.46,5.9-3.24,12.1-3.28,17.74Z"/><path d="M150.31,47.95c-1.52-.02-2.79-.27-3.82-1.24-.33-.31-.61-.66-.8-1.07-.12-.26-.35-.58-.11-.83,.32-.33,.51,.12,.73,.25,1.41,.82,2.87,.62,4.34,.24,1.52-.39,2.61-1.36,3.55-2.57,3.24-4.16,6.34-8.42,9.48-12.66,4.31-5.83,9.12-11.24,13.91-16.66,.08-.09,.16-.19,.25-.28,.26-.25,.39-.53,.11-.84-.29-.34-.57-.19-.84,.05-.87,.78-1.78,1.52-2.61,2.34-3.11,3.1-5.83,6.53-8.64,9.88-3.46,4.14-6.65,8.5-9.66,12.97-1.43,2.13-3.33,3.75-5.71,4.76-1.67,.71-3.06,.49-4.07-.56-.94-.97-1.13-2.48-.46-3.58,.7-1.14,1.92-1.57,3.32-1.12,.68,.22,1.34,.51,2.02,.76,2.19,.8,4.06-.44,4.23-2.79,.09-1.2-.3-2.24-.97-3.21-1.51-2.2-2.89-4.46-3.47-7.11-.46-2.12,.4-4.14,2.14-5.14,2.09-1.2,4.28-1.08,5.82,.32,.63,.58,1.09,1.28,1.44,2.07,.24,.55,.52,1.14,1.28,.99,.62-.12,.98-.79,.76-1.64-.31-1.15-.74-2.26-1.14-3.38-.71-1.97-1.43-3.92-1.25-6.08,.26-2.97,3.14-5.16,6.02-4.54,1.19,.25,1.95,1.02,2.55,2.02,.3,.51,.58,1.04,1.02,1.46,.63,.61,1.33,.76,2.04,.43,.75-.35,1.07-.99,.98-1.9-.09-.88-.53-1.65-.83-2.46-.57-1.57-.64-3.08,.63-4.37,2.03-2.04,5.02-1.53,6.23,1.06,.26,.56,.44,1.16,.55,1.77,.05,.25,.08,.58,.42,.64,.3,.06,.43-.21,.58-.39,.91-1.08,1.76-2.23,2.79-3.2,1.32-1.24,2.81-2.1,4.66-2.25,2.92-.24,4.68,1.94,3.78,4.74-.69,2.13-2.19,3.64-3.94,4.92-.82,.6-1.72,1.09-2.59,1.63-1.15,.71-1.19,1.49-.12,2.31,.12,.09,.23,.19,.36,.26,1.83,.96,1.5,3.24,0,4.23-1.56,1.03-3.27,1.24-5.07,.81-.34-.08-.67-.18-1.02-.22-.45-.05-.92-.06-1.16,.45-.24,.5-.16,.97,.18,1.39,.44,.56,1.03,.93,1.65,1.24,.61,.3,1.16,.68,1.56,1.24,.66,.94,.7,2.15,.09,3.09-.61,.93-1.67,1.32-2.96,1.06-1.07-.22-2.12-.52-3.21-.65-.51-.06-.99,0-1.45,.21-.37,.17-.57,.47-.6,.88-.03,.44,.21,.69,.57,.87,.49,.25,1.02,.43,1.56,.49,1.54,.18,2.63,.87,2.97,2.47,.36,1.73-.1,3.21-1.52,4.31-1.07,.83-2.35,1.15-3.67,1.32-2.34,.3-4.71,.29-7.04,.75-3.02,.6-5.79,1.67-7.85,4.07-.86,1-1.58,2.1-2.39,3.14-1.46,1.87-3.42,2.73-5.59,2.81Z"/><path d="M125.85,47.75c.1,3.18,.21,6.36,.31,9.54,.01,.47-.02,.95-.07,1.41-.11,.91-.75,1.49-1.57,1.48-.81,0-1.32-.55-1.39-1.53-.27-4.04-.52-8.08-.78-12.13-.03-.4-.06-.79-.11-1.19-.04-.31-.18-.62-.52-.63-.38-.01-.46,.33-.48,.64-.07,1.02-.14,2.03-.2,3.05-.2,3.42-.41,6.85-.61,10.27-.06,1.09-.55,1.69-1.38,1.7-.89,0-1.54-.65-1.6-1.71-.08-1.42,0-2.83,.07-4.25,.23-4.14-.05-8.2-1.86-12.02-.6-1.26-1.34-2.45-2.3-3.46-1.01-1.07-2.21-1.76-3.74-1.73-1.31,.02-2.07,.81-2.05,2.12,.01,.7,.18,1.38,.39,2.04,.97,3.07,.27,5.88-1.31,8.56-.15,.25-.33,.46-.65,.38-.31-.08-.4-.32-.4-.63-.05-2.41-.21-4.82-.73-7.18-.48-2.18-1.06-4.34-1.54-6.52-.36-1.65-.39-3.31,.07-4.95,.52-1.84,1.72-3.11,3.46-3.85,1.65-.71,3.13-1.64,4.27-3.04,1.84-2.27,2-5.15,.45-7.87-1.11-1.94-2.67-3.52-4.15-5.16-4.12-4.56-9.36-7.19-15.18-8.83-.79-.22-1.58-.44-2.36-.69-.3-.1-.59-.25-.87-.41-.2-.12-.33-.31-.3-.56,.04-.27,.27-.36,.48-.41C89.78,.03,90.4,0,91.03,0c13.03-.03,27.63,9.66,32.11,23.55,1.27,3.95,1.88,8.02,2.18,12.14,.29,4.02,.34,8.04,.53,12.07Z"/><path d="M148.03,80.87c-1.43,0-2.83-.15-4.17-.66-.28-.11-.6-.19-.58-.58,.02-.44,.36-.45,.69-.51,5.34-.96,10.28-2.86,14.49-6.37,2.6-2.16,4.48-4.83,5.52-8.07,.15-.47,.33-.94,.5-1.4,.1-.27,.2-.54-.15-.69-.3-.12-.45,.1-.57,.33-.56,1.02-1.19,2.01-1.87,2.96-4.02,5.55-9.44,8.52-16.29,8.84-.29,.01-.57,.04-.68-.3-.08-.25,.04-.43,.28-.53,2.53-1.11,4.1-3.19,5.38-5.5,2.87-5.18,5.2-10.59,6.74-16.33,.45-1.7,.93-3.4,1.65-5.01,1.72-3.88,4.57-6.37,8.83-7.1,1.88-.32,3.65,.17,5.39,.82,.2,.08,.36,.2,.36,.42,0,.26-.2,.37-.41,.47-.89,.44-1.77,.9-2.59,1.47-2.84,2-3.69,4.48-2.68,7.79,.55,1.8,1.42,3.51,1.72,5.38,1.26,7.66-.9,14.09-6.99,19.07-3.62,2.97-7.72,4.84-12.41,5.35-.72,.08-1.44,.09-2.16,.14Z"/><path d="M135.26,96.34c2.33-1.06,4.53-.35,6.72-.1,1.63,.19,3.26,.48,4.9,.13,2.04-.44,3.63-1.69,5.12-3.06,2.21-2.04,3.99-4.43,5.75-6.85,.5-.68,1-1.37,1.52-2.03,.23-.29,.52-.6,.94-.39,.43,.22,.43,.64,.34,1.04-.22,.95-.59,1.84-1.02,2.71-2.05,4.11-4.72,7.76-8.23,10.77-4.18,3.58-8.89,4.78-14.24,3.3-4.45-1.23-8.38-3.36-11.6-6.69-1.78-1.84-1.63-2.96,.52-4.34,3.09-1.99,6.39-2.56,9.77-.91,3.66,1.79,7.51,2.83,11.52,3.42,.37,.05,.9,0,.98,.48,.09,.51-.28,.87-.69,1.14-.72,.48-1.53,.56-2.36,.52-2.34-.09-4.64-.56-6.97-.75-1.09-.09-2.52,.61-2.96,1.6Z"/><path d="M125.14,83.99c.2,2.07-.16,4.15-1.32,6.04-.68,1.1-1.52,2.03-2.97,1.88-1.46-.16-2.44-1.02-3.02-2.35-.4-.94-.46-1.92-.44-2.92,0-.26,.02-.46-.36-.47-1.74-.06-2.84-1.07-3.53-2.56-.53-1.14-.81-2.35-.6-3.62,.27-1.64,1.35-2.59,3.03-2.78,1.76-.19,3.52-.18,5.28-.27,.75-.04,1.47-.2,2.17-.48,.7-.29,.94-.16,1.04,.61,.3,2.26,.67,4.52,.72,6.92Z"/><path d="M120.17,75.5c-2.24-.05-4.38-.27-6.41-1.13-.67-.28-1.29-.65-1.83-1.13-1.25-1.12-1.73-2.63-1.26-3.93,.5-1.39,1.98-2.47,3.57-2.5,.56-.01,.66-.14,.68-.69,.07-1.91,1.34-3.34,3.02-3.51,1.65-.18,3.26,.99,3.79,2.73,.49,1.61,.54,3.28,.73,4.93,.17,1.49,.44,2.94,1.16,4.28,.26,.48-.03,.63-.42,.71-1.03,.23-2.07,.24-3.04,.27Z"/><path d="M149.09,58.82c-.3,.11-.34,.41-.47,.64-.98,1.77-2.14,3.4-3.45,4.93-.15,.18-.29,.36-.55,.26-.2-.07-.2-.26-.2-.43,.09-2.61,.27-5.21,1.41-7.63,1.21-2.55,3.01-4.47,5.72-5.44,.84-.3,1.65-.7,2.3-1.34,.19-.19,.38-.49,.67-.33,.26,.14,.22,.47,.22,.75,0,1.62-.19,3.22-.58,4.79-.95,3.87-2.29,7.56-5.13,10.5-1.18,1.22-2.47,2.31-4.05,2.99-.31,.13-.68,.35-.95-.02-.29-.4,.1-.65,.32-.88,2.16-2.33,3.73-5,4.63-8.06,.07-.23,.19-.46,.1-.73Zm.05-.24s-.03,.04-.02,.05c.03,.07,.07,.07,.1,0,0-.01,0-.04-.02-.05,0,0-.03,0-.05,0Z"/><path d="M105.31,13.72c1.95,.09,3.71,1.35,4.76,3.57,1.02,2.17,.83,4.25-.79,6.11-1.51,1.74-3.53,2.14-5.57,1.08-.45-.23-.76-.26-1.18,.06-.77,.59-1.18,.44-1.46-.48-.44-1.45-1.1-2.83-1.35-4.32-.54-3.18,1.85-6.01,5.6-6.01Z"/><path d="M112.03,54.8c-.93,1.81-1.04,3.74-.83,5.71,.14,1.29,.54,2.52,1.09,3.7,.1,.22,.31,.5,.07,.68-.3,.22-.49-.11-.67-.29-2.44-2.46-3.2-5.47-2.87-8.82,.13-1.34,.54-2.63,1.01-3.88,1.12-2.97,.99-5.99,.5-9.04-.03-.17-.08-.34-.1-.51-.02-.27-.09-.56,.22-.73,.28-.15,.48,.03,.68,.16,1.9,1.2,2.97,3.03,3.72,5.07,1.3,3.54,1.34,7.08-.12,10.61-.57,1.37-1.26,2.71-1.41,4.22-.01,.13-.05,.32-.25,.31-.28,0-.27-.24-.33-.42-.78-2.17-.99-4.39-.63-6.67,0-.06,.03-.15,0-.16-.07-.05-.1,0-.1,.08Z"/><path d="M132.5,74.15c1.6-.02,2.94,.96,3.28,2.29,.37,1.45-.24,2.93-1.57,3.6-.46,.23-.45,.39-.26,.81,1.26,2.73-.12,5.4-2.99,5.85-1.36,.21-2.46-.33-3.07-1.57-.97-1.96-1.36-4.09-1.78-6.21-.14-.68-.26-1.37-.43-2.04-.12-.49,0-.78,.46-1.03,2.04-1.09,4.27-1.43,6.37-1.71Z"/><path d="M123.97,68.59c-.05-1.68,.18-3.23,1.13-4.6,.8-1.15,1.86-1.82,3.3-1.54,1.43,.28,2.29,1.25,2.62,2.64,.14,.59,.34,.91,.95,1.16,2.17,.91,2.58,3.84,.82,5.45-.67,.61-1.44,1.06-2.32,1.3-1.58,.44-3.17,.83-4.74,1.29-.54,.16-.81,.02-.93-.49-.17-.67-.36-1.34-.5-2.02-.23-1.07-.36-2.15-.33-3.19Z"/><path d="M101.01,11.28c0,1.62-.91,2.91-2.4,3.48-1.48,.56-3.08,.2-4.09-.95-.59-.68-1.04-1.45-1.44-2.25-1.58-3.14-3.54-5.98-6.29-8.23-.2-.17-.39-.33-.25-.62,.11-.23,.33-.2,.53-.15,4.14,1.1,8.23,2.31,11.67,5.03,.55,.43,1.04,.93,1.48,1.47,.53,.66,.84,1.41,.8,2.21Z"/><path d="M158.38,82.69c-.01,.44-.21,.82-.42,1.18-2.07,3.55-4.7,6.64-7.82,9.31-.34,.29-.57,.45-.76-.16-.24-.74-.97-.74-1.58-.92-.36-.11-.97,.05-1.04-.35-.06-.37,.54-.5,.85-.71,3.15-2.13,5.89-4.72,8.38-7.57,.39-.45,.81-.87,1.23-1.29,.21-.21,.48-.26,.76-.14,.27,.12,.42,.34,.4,.65Z"/><path d="M160.6,79.74c.01-.46,.35-1.13,1.09-1.53,2.26-1.2,4.21-2.73,5.51-4.98,.09-.15,.2-.31,.41-.24,.24,.08,.15,.28,.13,.44-.38,2.76-1.08,5.41-2.8,7.68-.66,.88-1.45,1.52-2.66,1.19-1.02-.27-1.68-1.13-1.68-2.56Z"/><path d="M141.5,90.72c.04-.27,.22-.32,.37-.4,3.56-1.9,6.82-4.24,10.05-6.63,.44-.32,.89-.63,1.34-.94,.32-.21,.65-.28,.94,.04,.27,.29,.15,.6-.04,.89-.56,.86-1.32,1.55-2.06,2.24-2.11,1.96-4.4,3.71-6.8,5.31-.33,.22-.64,.3-1.04,.2-.92-.23-1.87-.35-2.76-.71Z"/><path d="M139.71,90.07c-.87-.16-1.61-.6-2.36-.96-.34-.16-.21-.41,.09-.52,2.91-1.03,5.61-2.52,8.41-3.79,.23-.11,.48-.16,.72-.13,.52,.06,.7,.34,.46,.83-.18,.37-.48,.64-.78,.9-1.77,1.52-3.77,2.65-5.93,3.53-.2,.08-.43,.11-.63,.16Z"/></g></g></svg>