<?xml version="1.0" encoding="UTF-8"?><svg id="Layer_2" xmlns="http://www.w3.org/2000/svg" viewBox="0 0 368.42 142.59"><g id="Layer_1-2"><g><path d="M248.24,6.76c0,5.88,0,11.76,0,17.64s0,11.76,0,17.86c.76-.92,1.37-1.69,2.02-2.43,3.43-3.92,7.73-6.49,12.66-8.06,6.75-2.15,13.57-2.6,20.42-.57,8.46,2.52,14.74,7.77,18.68,15.64,2.63,5.24,3.96,10.86,3.95,16.77-.01,10.06-.01,20.12,.01,30.18,0,.68-.11,.93-.87,.91-1.85-.07-3.71-.05-5.56,0-.65,.02-.8-.17-.8-.81,.02-10.58-.09-21.16,.04-31.73,.15-12.64-9.38-22.64-20.67-24.62-11.42-2-22.27,3.69-27.4,14.41-1.65,3.44-2.47,7.08-2.47,10.89,0,10.3,0,20.61,.02,30.91,0,.75-.18,.96-.94,.94-1.82-.06-3.65-.03-5.48,0-.5,0-.71-.15-.64-.65,.02-.13,0-.27,0-.41,0-26.44,0-52.89-.02-79.33,0-.62,.2-1.04,.64-1.48,2.05-2.07,4.05-4.19,6.07-6.28,.11,.08,.23,.15,.34,.23Z"/><path d="M179.01,5.72c0,.24,0,.47,0,.71,0,18.48,0,36.96,0,55.45,0,12.53,9.32,23.45,21.71,25.44,12.62,2.03,24.87-5.8,28.26-18.05,3.83-13.87-4.5-28.25-18.42-31.79-3.47-.88-7.01-.88-10.55-.6-.08,0-.16,.03-.24,.04-.5,.02-1.03,.62-1.4,.26-.32-.3-.3-.96-.42-1.46-.39-1.64-.74-3.29-1.18-4.92-.15-.54,.04-.67,.49-.74,.97-.16,1.93-.34,2.91-.36,5.31-.14,10.58,0,15.61,1.99,9.66,3.81,16.45,10.47,19.91,20.32,1.25,3.56,1.34,7.33,1.24,11.07-.22,8.3-3.61,15.28-9.24,21.21-4.97,5.24-11.01,8.68-18.17,9.95-6.31,1.12-12.37,.2-18.14-2.55-7.9-3.77-13.77-9.55-17.29-17.63-1.5-3.44-2.17-7.05-2.15-10.81,.03-8.91,.03-17.83,.03-26.74,0-7.66,0-15.32-.01-22.98,0-.7,.17-1.21,.69-1.71,2.08-2.04,4.11-4.12,6.16-6.19,.07,.04,.13,.07,.2,.11Z"/><path d="M82.06,25.84c1.82,1.73,3.64,3.45,5.45,5.18,4.23,4.03,8.45,8.07,12.69,12.08,.42,.39,.58,.77,.58,1.33-.01,20.17,0,40.33-.02,60.5,0,.43,.27,1.08-.17,1.25-.39,.15-.71-.47-1.03-.78-4.27-4.06-8.53-8.14-12.8-12.2-1.51-1.44-3.02-2.87-4.52-4.3-.36-.35-.39-.79-.39-1.26,.01-10.49,.01-20.98,.01-31.47,0-9.78,0-19.57,0-29.35,0-.29,0-.59,0-.88,.07-.03,.13-.06,.2-.09Z"/><path d="M134.35,25.78c2.82,2.69,5.58,5.34,8.35,7.97,3.32,3.15,6.65,6.3,9.98,9.44,.36,.34,.47,.73,.47,1.23-.01,20.17,0,40.34-.02,60.52,0,.43,.27,1.08-.17,1.25-.41,.17-.72-.46-1.03-.76-5.2-4.95-10.39-9.92-15.59-14.88-.59-.56-1.17-1.13-1.78-1.68-.37-.33-.35-.75-.35-1.19,0-8.97,0-17.94,0-26.91,0-11.34,0-22.68,0-34.02,0-.29-.07-.59,.15-.99Z"/><path d="M77.11,0c.2,.34,.14,.64,.14,.93,0,20.31,0,40.62,.02,60.92,0,.59-.19,.98-.61,1.39-1.96,1.87-3.83,3.82-5.83,5.64-2.29,2.09-4.44,4.33-6.73,6.41-1.71,1.55-3.33,3.17-4.99,4.76-.15,.15-.29,.44-.59,.32-.32-.13-.18-.42-.18-.64,0-20.42,0-40.83-.02-61.25,0-.55,.28-.8,.61-1.12,2.33-2.25,4.59-4.57,6.99-6.75,2.26-2.06,4.36-4.28,6.64-6.32,1.54-1.38,2.97-2.88,4.57-4.3Z"/><path d="M5.33,80.46c-.16-.24-.08-.52-.08-.78,0-20.33,0-40.66-.02-61,0-.59,.16-1,.6-1.42,5.18-4.91,10.33-9.85,15.49-14.77,.86-.82,1.74-1.63,2.63-2.47,.24,.25,.12,.54,.12,.79,0,20.39,0,40.77,.01,61.16,0,.46-.07,.82-.43,1.16-5.96,5.67-11.91,11.35-17.86,17.02-.13,.12-.22,.32-.47,.3Z"/><path d="M28.94,25.83c3.32,3.17,6.57,6.29,9.83,9.41,2.74,2.62,5.47,5.25,8.23,7.85,.39,.37,.53,.73,.53,1.24,0,20.38,0,40.77,0,61.15,0,.24,.04,.48-.16,.78-1.26-1.2-2.51-2.4-3.76-3.59-4.84-4.6-9.67-9.21-14.52-13.8-.27-.25-.26-.52-.27-.81-.02-.9,0-1.8,0-2.7,0-19.51,0-39.02,0-58.54,0-.32-.05-.64,.14-1Z"/><path d="M129.5,.17c0,.6,0,1.17,0,1.74,0,19.95,0,39.9,.01,59.85,0,.71-.19,1.21-.71,1.7-5.76,5.45-11.49,10.92-17.23,16.38-.22,.21-.39,.66-.74,.5-.24-.11-.1-.55-.1-.84,0-15.02,0-30.03,0-45.05,0-5.29,0-10.57-.01-15.86,0-.53,.14-.91,.53-1.28,4.29-4.07,8.56-8.15,12.83-12.23,1.64-1.56,3.28-3.12,4.92-4.67,.11-.11,.19-.27,.5-.24Z"/><path d="M342.95,29.67c8.34,.13,15.63,2.99,21.92,8.44,1.03,.89,1.01,.92,0,1.82-1.29,1.14-2.59,2.25-3.87,3.4-.36,.33-.6,.39-1.01,.05-3.72-3.11-7.98-5.05-12.79-5.74-13.22-1.89-25.52,6.44-28.29,19.24-1.84,8.52,.21,16.16,6.09,22.57,5.13,5.59,11.58,8.53,19.26,8.28,5.85-.19,10.96-2.37,15.36-6.21,.14-.13,.31-.23,.43-.38,.33-.43,.57-.31,.9,.03,1.17,1.22,2.33,2.45,3.59,3.57,.68,.61,.5,.94-.03,1.46-1.81,1.77-3.84,3.21-6.08,4.38-4.34,2.26-8.92,3.79-13.82,4.16-4.47,.33-8.8-.42-12.92-2.2-9.58-4.14-16.37-11-19.65-20.97-3.08-9.38-1.42-18.26,3.83-26.47,4.79-7.49,11.53-12.44,20.2-14.65,2.25-.58,4.56-.79,6.89-.79Z"/><path d="M96.17,124.3c.24-1.76,.24-1.76,2.02-1.62,.33,.03,.49,.1,.49,.47-.02,4.41,.12,8.83-.08,13.24-.19,4.17-2.56,6.15-6.74,6.2-1.83,.02-3.44-.45-4.8-1.68-1.06-.95-1.57-2.2-1.76-3.59-.06-.44,.04-.69,.54-.62,.08,.01,.16,0,.25,0,.46,0,.98-.1,1.37,.06,.43,.18,.22,.77,.37,1.17,.53,1.45,1.57,2.23,3.04,2.53,2.98,.6,4.97-.76,5.33-3.72,.11-.9,.02-1.83,.02-2.87-1.64,1.65-3.58,2.24-5.77,1.92-1.6-.23-2.94-.99-3.94-2.27-2.21-2.82-1.88-7.11,.68-9.53,2-1.89,6.09-2.66,8.98,.31Zm.23,4.71c0-2.73-1.85-4.62-4.51-4.62-2.48,0-4.46,2.02-4.46,4.56,0,2.77,1.9,4.86,4.44,4.87,2.67,.01,4.54-1.96,4.53-4.81Z"/><path d="M173.48,124.36c3.75-2.66,7.28-2.61,9.62,.08,2.29,2.63,2.2,6.97-.2,9.51-2.41,2.55-5.95,2.56-9.32,.01-.03,.04-.09,.07-.09,.11-.1,.47,.25,1.18-.18,1.36-.53,.23-1.23,.07-1.85,.08-.21,0-.29-.11-.29-.3,0-.16,0-.33,0-.49,0-6.98,0-13.96-.01-20.94,0-.63,.15-.83,.8-.81,1.53,.05,1.53,.01,1.53,1.55,0,3.24,0,6.49,0,9.83Zm8.83,4.68c0-2.76-1.79-4.63-4.46-4.65-2.55-.01-4.43,1.95-4.42,4.63,0,2.83,1.83,4.8,4.44,4.8,2.64,0,4.45-1.95,4.45-4.78Z"/><path d="M250.86,123.98c1.45-1.66,3.11-2.03,5.02-1.32,.68,.25,1.25,.68,1.68,1.26,.25,.34,.36,.44,.69,.04,1.17-1.41,2.75-1.78,4.49-1.58,1.78,.2,2.85,1.25,3.3,2.94,.17,.63,.29,1.28,.3,1.93,.03,2.56,0,5.12,.03,7.68,0,.47-.16,.59-.61,.6-1.81,.04-1.81,.06-1.81-1.77,0-2.23,.02-4.47-.01-6.7-.02-1.53-.74-2.45-1.94-2.63-1.83-.26-3.09,.76-3.31,2.75-.27,2.47-.13,4.96-.12,7.43,0,.77-.22,.96-.95,.93-1.39-.06-1.39-.02-1.39-1.43,0-1.99,0-3.98,0-5.97,0-.68-.07-1.36-.26-2.02-.27-.94-.82-1.61-1.85-1.7-1.11-.1-2.06,.21-2.65,1.23-.51,.87-.63,1.85-.63,2.84-.01,2.1-.02,4.2,0,6.29,0,.53-.08,.77-.69,.76-1.7-.02-1.7,0-1.7-1.72,0-3.32,0-6.65,0-9.97,0-1.32-.18-1.14,1.19-1.15,1.17,0,1.17,0,1.21,1.28Z"/><path d="M273.09,123.87c2.09-1.89,4.32-2.05,6.15-.53,.33,.27,.49,.88,.9,.84,.31-.03,.55-.56,.87-.8,1.57-1.17,3.31-1.4,5.1-.68,1.63,.66,2.22,2.11,2.34,3.74,.21,2.86,.04,5.72,.09,8.58,0,.39-.15,.49-.53,.51-1.83,.09-1.83,.1-1.83-1.75,0-2.23,.02-4.47-.04-6.7-.05-2.01-1.22-2.97-3.06-2.64-1.17,.21-1.93,1.13-2.16,2.55-.19,1.17-.12,2.34-.13,3.51-.01,1.47-.02,2.94,0,4.42,0,.45-.12,.61-.59,.62-1.76,.04-1.74,.06-1.77-1.72-.04-2.31,.15-4.63-.11-6.94-.17-1.54-.88-2.35-2.05-2.46-1.49-.13-2.54,.61-2.97,2.11-.21,.74-.26,1.5-.26,2.26,0,2.02-.01,4.03,.01,6.05,0,.52-.13,.7-.68,.7-1.68,0-1.68,.03-1.68-1.65,0-3.46,.02-6.92-.01-10.38,0-.64,.16-.91,.82-.81,.13,.02,.27,0,.41,0q1.11,0,1.19,1.18Z"/><path d="M49.91,133.92c-3.57,2.64-7.13,2.56-9.53-.15-2.31-2.61-2.26-6.92,.12-9.5,2.39-2.59,5.93-2.58,9.35,.02,.03-.04,.07-.08,.07-.12,.07-.47-.22-1.21,.14-1.37,.56-.24,1.28-.12,1.93-.09,.48,.02,.31,.44,.31,.7,.01,2.81,0,5.61,0,8.42,0,1.04-.02,2.07,0,3.11,.01,.46-.14,.66-.6,.59-.08-.01-.16,0-.24,0q-1.52,0-1.56-1.6Zm-8.81-4.91c.02,2.78,1.91,4.82,4.47,4.81,2.65-.01,4.5-2.02,4.49-4.86,0-2.66-1.95-4.6-4.59-4.57-2.48,.02-4.4,2.05-4.38,4.63Z"/><path d="M164.64,133.87c-3.18,3.14-7.48,2.1-9.35,.11-2.48-2.64-2.51-7.09-.04-9.75,1.92-2.06,6.15-3.02,9.26,.03,.04-.06,.1-.12,.12-.19,.09-.44-.21-1.15,.17-1.28,.61-.21,1.34-.12,2.01-.06,.39,.03,.22,.44,.22,.68,.01,3.51,0,7.03,0,10.54,0,1.58,0,1.55-1.59,1.58-.61,.01-.93-.11-.82-.79,.04-.24,0-.48,0-.86Zm.14-4.87c0-2.73-1.87-4.62-4.53-4.61-2.48,0-4.42,2.01-4.44,4.58-.02,2.77,1.96,4.9,4.53,4.85,2.63-.04,4.44-2.02,4.44-4.82Z"/><path d="M146.1,129.58c-1.58,0-3.16,.02-4.74,0-.53,0-.64,.16-.54,.67,.37,1.77,1.38,2.94,3.13,3.4,1.89,.49,3.49-.04,4.75-1.56,.23-.28,.38-.87,.72-.78,.61,.16,1.19,.52,1.73,.87,.28,.18-.03,.44-.15,.63-1.55,2.38-4.4,3.5-7.44,2.93-3.05-.57-5.08-2.96-5.21-6.14-.14-3.5,1.64-6.18,4.66-7.01,4.43-1.22,8.27,1.58,8.46,6.15,.03,.69-.18,.88-.86,.86-1.5-.05-3-.02-4.5-.02Zm-1.12-1.89c1.14,0,2.29-.01,3.43,0,.46,0,.55-.1,.4-.56-.54-1.59-2.09-2.73-3.79-2.74-1.75-.01-3.44,1.17-3.99,2.73-.18,.51-.04,.59,.43,.58,1.17-.03,2.34,0,3.52,0Z"/><path d="M201.1,129.58c-1.58,0-3.16,.02-4.74-.01-.58-.01-.69,.18-.58,.72,.39,1.8,1.47,2.98,3.24,3.39,1.85,.43,3.43-.13,4.66-1.63,.23-.28,.35-.87,.72-.77,.61,.17,1.17,.55,1.73,.89,.21,.13,0,.33-.09,.49-1.54,2.61-4.97,3.83-8.16,2.91-2.88-.83-4.63-3.31-4.56-6.47,.08-3.38,1.79-5.76,4.73-6.55,4.45-1.2,8.38,1.81,8.39,6.41,0,.54-.21,.63-.68,.63-1.55-.02-3.1,0-4.66,0h0Zm2.74-1.89c-.19-1.72-1.77-3.16-3.55-3.28-1.94-.13-3.94,1.2-4.36,2.86-.09,.36,.02,.42,.34,.42,2.52,0,5.05,0,7.57,0Z"/><path d="M351.57,129.58c-1.47,0-2.94,0-4.41,0-.91,0-1,.12-.73,1.07,.46,1.6,1.51,2.65,3.12,3.03,1.65,.39,3.13,.02,4.34-1.23,.02-.02,.04-.04,.06-.06,.31-.37,.56-.99,.93-1.06,.53-.11,.99,.47,1.52,.67,.46,.17,.38,.39,.17,.74-1.55,2.52-4.96,3.75-8.05,2.88-2.91-.82-4.67-3.25-4.64-6.42,.03-3.39,1.8-5.88,4.72-6.64,4.4-1.14,8.31,1.74,8.39,6.17,.01,.66-.13,.91-.84,.88-1.52-.06-3.05-.02-4.58-.02h0Zm-1.11-1.89c1.14,0,2.29-.02,3.43,0,.55,.02,.57-.19,.42-.63-.5-1.51-2.09-2.67-3.74-2.68-1.74-.01-3.52,1.2-4.02,2.71-.16,.49,0,.61,.47,.6,1.14-.03,2.29,0,3.43,0Z"/><path d="M31.39,129.58c-1.53,0-3.05,.03-4.58-.01-.68-.02-.86,.17-.7,.83,.43,1.76,1.51,2.9,3.25,3.29,1.9,.43,3.48-.18,4.7-1.72,.2-.25,.28-.81,.69-.67,.61,.21,1.17,.57,1.71,.93,.18,.12-.06,.34-.15,.5-1.58,2.64-5.31,3.86-8.43,2.78-2.92-1.01-4.62-3.91-4.24-7.12,.63-5.36,5.17-6.84,8.81-5.72,2.97,.91,4.33,3.79,4.26,6.47-.01,.46-.27,.45-.59,.45-1.58,0-3.16,0-4.74,0Zm2.83-1.89c-.07-.28-.11-.49-.18-.69-.58-1.57-2.17-2.64-3.88-2.61-1.68,.04-3.35,1.22-3.83,2.7-.09,.27-.32,.59,.25,.59,2.53,0,5.06,0,7.64,0Z"/><path d="M245.32,129.2c-.07,3.9-3.24,6.73-7.46,6.66-3.89-.06-6.94-3.15-6.86-6.94,.09-3.77,3.36-6.71,7.38-6.62,3.91,.09,7.01,3.17,6.94,6.89Zm-7.11-4.81c-2.74-.02-4.82,1.99-4.86,4.67-.03,2.7,2.07,4.76,4.85,4.76,2.67,0,4.76-2.04,4.78-4.67,.02-2.67-2.05-4.74-4.77-4.76Z"/><path d="M73.53,124.09c1.27-1.47,2.85-1.99,4.7-1.71,2.12,.32,3.29,1.49,3.6,3.62,.08,.56,.14,1.14,.15,1.71,.02,2.4,0,4.8,.03,7.2,0,.43-.08,.62-.58,.63-1.81,.04-1.81,.06-1.82-1.76-.01-2.23,0-4.47-.06-6.7-.04-1.57-.76-2.41-2.06-2.63-1.68-.28-3.01,.35-3.6,1.71-.44,1-.46,2.07-.47,3.13-.02,1.85-.02,3.71,0,5.56,0,.52-.12,.7-.68,.7-1.68,0-1.68,.02-1.68-1.65,0-3.49,.01-6.98-.01-10.47,0-.57,.14-.74,.72-.73,1.5,.02,1.5-.01,1.75,1.41Z"/><path d="M310.11,124.16c1.55-1.78,3.42-2.15,5.49-1.65,1.75,.43,2.82,1.91,2.96,4.05,.19,2.8,.04,5.61,.09,8.41,0,.44-.17,.53-.58,.55-1.81,.06-1.81,.07-1.81-1.75,0-1.93,0-3.87,0-5.8,0-.22,0-.44,0-.65-.08-1.81-.79-2.72-2.25-2.89-1.94-.23-3.18,.54-3.67,2.31-.27,.98-.28,1.99-.29,3,0,1.72-.02,3.43,.01,5.15,0,.49-.12,.65-.63,.65-1.7,0-1.7,.03-1.7-1.63,0-3.49,.02-6.97-.02-10.46,0-.63,.18-.85,.78-.75,.05,0,.11,0,.16,0q1.33,0,1.45,1.47Z"/><path d="M303.54,127.47c-.06,1.27,.13,2.8-.14,4.31-.46,2.52-1.83,3.81-4.39,4.06-.9,.09-1.8,.06-2.68-.15-2.17-.49-3.51-2.23-3.58-4.85-.07-2.53,0-5.07-.02-7.6,0-.43,.14-.54,.56-.56,1.8-.08,1.8-.09,1.8,1.69,0,2.18-.03,4.36,.06,6.54,.1,2.51,2.48,3.76,4.7,2.53,.79-.43,1.12-1.17,1.21-2.01,.27-2.55,.05-5.12,.13-7.67,.01-.35-.24-.92,.2-1.01,.65-.13,1.36-.15,2.02,.03,.22,.06,.11,.39,.11,.6,0,1.28,0,2.56,0,4.1Z"/><path d="M228.58,126.51c-3.18-2.57-5.82-2.76-7.8-.65-1.68,1.79-1.7,4.72-.05,6.47,2.04,2.16,4.72,1.96,7.93-.67,0,.93,0,1.79,0,2.64,0,.25-.16,.37-.36,.49-3.88,2.38-10,.82-11.09-4.33-.78-3.68,1.84-7.37,5.67-8.01,1.82-.3,3.51-.04,5.14,.8,.4,.21,.61,.45,.58,.95-.05,.73-.01,1.47-.01,2.32Z"/><path d="M11.52,126.58c-2.64-2.55-5.49-2.87-7.56-.96-1.87,1.73-2.04,4.71-.36,6.64,1.09,1.24,2.5,1.65,4.12,1.51,1.59-.13,2.76-.99,3.91-2.26,0,1.02,0,1.86,0,2.69,0,.29-.15,.44-.37,.57-4.02,2.45-10.13,.75-11.14-4.45-.71-3.64,1.91-7.24,5.74-7.89,1.82-.31,3.51-.03,5.13,.84,.37,.2,.57,.42,.54,.88-.04,.75-.01,1.51-.01,2.41Z"/><path d="M364.08,122.31c1.28,.04,2.43,.71,3.27,1.94,.2,.3,.25,.54-.17,.69-.23,.08-.45,.19-.66,.33-.53,.34-.94,.5-1.38-.21-.34-.54-.98-.76-1.66-.63-.67,.13-1.18,.48-1.33,1.17-.13,.65,.28,1.08,.79,1.39,.84,.52,1.8,.76,2.69,1.16,1.23,.54,2.33,1.21,2.68,2.64,.58,2.4-1.03,4.59-3.73,5.05-2.21,.38-4.48-.76-5.4-2.68-.18-.38-.24-.67,.29-.75,.08-.01,.15-.06,.22-.09,1.21-.49,1.22-.5,1.99,.49,.56,.73,1.31,1.03,2.21,1.01,1.07-.03,1.86-.62,2.07-1.52,.19-.84-.2-1.6-1.18-2.09-.8-.4-1.65-.7-2.46-1.07-2.01-.92-2.73-2.14-2.36-3.94,.33-1.63,2-2.85,4.13-2.87Z"/><path d="M130.63,136.28c-2.2-4.49-4.39-8.97-6.65-13.58,.88,0,1.65,0,2.43,0,.41,0,.44,.37,.56,.62,1.06,2.23,2.11,4.47,3.16,6.71,.16,.34,.33,.68,.57,1.16,.59-1.23,1.12-2.32,1.64-3.41,.71-1.5,1.43-2.99,2.11-4.51,.19-.43,.42-.64,.91-.59,.38,.04,.76,.01,1.14,0,.91,0,.9,0,.52,.77-1.97,4.03-3.93,8.06-5.9,12.09-.12,.24-.16,.52-.48,.72Z"/><path d="M187.87,124.17c0-3.49,.01-6.97-.01-10.46,0-.57,.15-.74,.72-.73,1.7,.01,1.7-.01,1.7,1.72,0,6.65-.01,13.29,.02,19.94,0,.72-.18,.93-.9,.9-1.52-.05-1.53-.01-1.53-1.56,0-3.27,0-6.54,0-9.81Z"/><path d="M111.96,124.17c0-3.49,.01-6.97-.01-10.46,0-.57,.15-.74,.72-.74,1.65,.01,1.65-.01,1.65,1.68,0,6.68-.01,13.35,.01,20.03,0,.67-.17,.88-.85,.86-1.53-.05-1.53-.01-1.53-1.55,0-3.27,0-6.54,0-9.81Z"/><path d="M56.64,130.1c0-1.58-.02-3.16,.01-4.74,.01-.51-.14-.7-.64-.61-.69,.13-.8-.21-.79-.82,.01-.74-.1-1.47,1.04-1.24,.43,.08,.37-.28,.37-.54,0-1.14,.02-2.29,0-3.43-.01-.47,.09-.66,.62-.66,1.77-.01,1.77-.04,1.77,1.73,0,.74,.04,1.47-.01,2.21-.04,.59,.19,.78,.75,.72,.19-.02,.38,0,.57,0,1.09,0,1.03,0,1.11,1.07,.07,.85-.22,1.04-1.02,1-1.39-.07-1.39-.02-1.39,1.38,0,2.86-.02,5.72,.02,8.58,0,.66-.2,.82-.83,.81-1.57-.04-1.57,0-1.57-1.59,0-1.28,0-2.56,0-3.84Z"/><path d="M330.66,130.08c0-1.55-.02-3.1,.01-4.66,0-.5-.09-.79-.66-.68-.62,.11-.85-.14-.75-.75,.04-.24,.02-.49,0-.73-.04-.42,.12-.64,.55-.56,.78,.15,.89-.25,.86-.91-.05-1.06,0-2.12-.02-3.18-.01-.43,.14-.54,.56-.55,1.83-.05,1.83-.07,1.83,1.74,0,.63,.05,1.26-.01,1.88-.08,.79,.13,1.21,1,1.03,.1-.02,.22,0,.33,0,1.31,.02,.98-.1,1.1,1.08,.09,.89-.27,1.02-1.04,.98-1.38-.06-1.38-.02-1.38,1.33,0,2.89-.02,5.77,.01,8.66,0,.6-.14,.79-.77,.78-1.62-.03-1.62,0-1.62-1.61,0-1.28,0-2.56,0-3.84Z"/><path d="M17.41,123.94c.46-.41,.8-.81,1.21-1.09,1.16-.77,2.36-.66,3.57-.1,.02,.01,.06,.02,.07,.04,.36,.77-.45,1.15-.61,1.74-.08,.32-.26,.38-.6,.21-1.4-.73-2.62-.26-3.22,1.21-.37,.92-.45,1.9-.46,2.88,0,2.01-.02,4.03,0,6.04,0,.48-.1,.65-.63,.65-1.7,0-1.7,.03-1.7-1.7,0-3.43,.02-6.86-.02-10.29,0-.66,.14-.97,.83-.86,.11,.02,.22,0,.33,0q1.15,0,1.2,1.25Z"/><path d="M118.99,129c0-1.88,.02-3.76-.01-5.63-.01-.55,.17-.69,.69-.69,1.73,0,1.73-.03,1.73,1.67,0,3.48-.01,6.97,.01,10.45,0,.57-.15,.74-.73,.74-1.69-.02-1.69,0-1.69-1.72,0-1.61,0-3.21,0-4.82Z"/><path d="M66.27,129.13c0,1.9-.02,3.81,.01,5.71,0,.54-.17,.69-.7,.69-1.68,0-1.68,.02-1.68-1.65,0-3.48,.02-6.96-.01-10.44,0-.62,.18-.78,.78-.77,1.59,.03,1.6,0,1.6,1.57,0,1.63,0,3.26,0,4.9Z"/><path d="M337.94,129.08c0-1.88,.03-3.76-.02-5.64-.01-.63,.19-.77,.79-.76,1.6,.03,1.61,0,1.61,1.63,0,3.49-.02,6.97,.02,10.46,0,.62-.16,.78-.77,.76-1.63-.03-1.63,0-1.63-1.63,0-1.61,0-3.21,0-4.82Z"/><path d="M323.44,129c0-1.85,.02-3.71-.01-5.56,0-.53,.08-.76,.7-.76,1.66,.02,1.66-.01,1.66,1.67,0,3.43-.01,6.87,.01,10.3,0,.63-.09,.91-.82,.88-1.53-.06-1.53-.01-1.53-1.55,0-1.66,0-3.33,0-4.99Z"/><path d="M66.76,117.89c0,.86-.72,1.56-1.63,1.59-.92,.03-1.71-.71-1.71-1.6,0-.84,.76-1.57,1.64-1.58,.94-.01,1.7,.7,1.71,1.59Z"/><path d="M120.16,119.47c-.93-.03-1.7-.81-1.65-1.66,.05-.82,.84-1.52,1.73-1.5,.91,.02,1.7,.8,1.65,1.66-.05,.83-.85,1.53-1.73,1.51Z"/><path d="M339.1,116.31c.9-.01,1.68,.69,1.71,1.54,.03,.86-.78,1.64-1.7,1.64-.87,0-1.65-.74-1.66-1.59,0-.85,.74-1.57,1.65-1.59Z"/><path d="M322.95,117.89c0-.89,.7-1.57,1.63-1.58,.92-.01,1.66,.66,1.68,1.54,.02,.91-.73,1.64-1.67,1.63-.91,0-1.63-.71-1.64-1.59Z"/></g></g></svg>