<?xml version="1.0" encoding="UTF-8"?><svg id="Layer_2" xmlns="http://www.w3.org/2000/svg" viewBox="0 0 411.59 74.07"><g id="Layer_1-2"><g><path d="M327.93,14.64c0-1.22-.06-2.09,.01-2.96,.11-1.29-.39-1.74-1.7-1.71-3.56,.07-7.13,.06-10.7,0-1.05-.02-1.43,.29-1.43,1.39,.03,19.34,.03,38.67,0,58.01,0,1.21,.46,1.45,1.54,1.44,3.51-.05,7.02-.08,10.53,0,1.35,.03,1.77-.34,1.77-1.73-.06-9.37,.09-18.74-.06-28.1-.15-9.36,8.09-18.26,17.67-18.53,1.18-.03,1.49-.52,1.48-1.61-.04-3.61-.05-7.23,0-10.85,.02-1.13-.42-1.44-1.45-1.35-3.27,.31-6.5,.79-9.61,1.91-2.74,.98-5.27,2.35-8.06,4.08Zm-32.22,25.64c0,9.63,.02,19.27-.02,28.9,0,1.15,.21,1.66,1.52,1.63,3.62-.09,7.24-.07,10.85,0,1.2,.02,1.48-.42,1.46-1.53-.06-2.95-.02-5.91-.02-8.87,0-16.09,0-32.18,0-48.28q0-2.14-2.2-2.15c-3.29,0-6.58,.06-9.87-.03-1.38-.04-1.75,.39-1.74,1.75,.06,9.52,.03,19.05,.03,28.57Z"/><path d="M238.41,.1c0,4.38-.03,8.76-.02,13.13,0,.4-.24,.95,.3,1.16,.4,.16,.68-.28,.99-.47,5.6-3.53,11.7-5.46,18.32-5.23,9.84,.34,18.05,4.2,24.45,11.8,5.63,6.69,8.18,14.43,7.58,23.05-.64,9.31-4.67,17.04-11.91,23.05-4.71,3.91-10.11,6.22-16.12,7.17-.19,.03-.36,.2-.54,.31h-8.23c-1-.61-2.17-.64-3.26-.89-3.73-.84-7.17-2.33-10.38-4.37-.23-.15-.47-.28-.71-.4-.09-.04-.21,0-.31,0q-.41,2.38-2.97,2.38c-3.13,0-6.26-.07-9.38,.03-1.35,.04-1.64-.43-1.63-1.69,.04-14.57,.03-29.15,.02-43.72,0-8.44,0-16.87-.01-25.31h13.83Zm44.68,41.78c-2.15-1.16-3.97-2.15-5.8-3.12-.64-.34-1.16-.69-1.36-1.51-2.48-10.61-12.73-16.91-23.28-14.34-10.15,2.48-16.4,12.94-13.75,23.21,2.44,9.46,11.71,16.24,22.79,13.78,6.79-1.51,11.37-5.84,13.7-12.41,.47-1.34,1.16-2.23,2.46-2.83,1.68-.76,3.27-1.73,5.22-2.78Z"/><path d="M13.54,.1c0,4.33,0,8.65,.01,12.98,0,.45-.28,1.08,.29,1.32,.41,.18,.79-.25,1.15-.49,5.77-3.77,12.17-5.6,18.99-5.19,11.6,.69,20.75,5.99,26.72,16.01,7.17,12.02,6.11,26.12-2.62,37.12-5.24,6.6-12.23,10.44-20.55,11.86-.32,.05-.66,.02-.99,.02-2.41,0-4.81,0-7.22,.01-.65-.05-1.31-.05-1.96-.16-4.53-.78-8.75-2.35-12.59-4.92-.71-.47-1.41-.73-1.24,.57,.19,1.45-.56,1.59-1.73,1.57-3.4-.05-6.8-.09-10.2,.01C.26,70.86,0,70.36,0,69.12,.04,46.11,.03,23.11,.04,.1H13.54Zm19.1,60.25c1.15-.06,2.33,.02,3.44-.22,7.41-1.6,12.39-5.97,14.75-13.2,.3-.92,.8-1.45,1.65-1.87,1.63-.79,3.19-1.7,4.79-2.54,.76-.4,.88-.77,.02-1.21-1.51-.78-2.96-1.67-4.5-2.38-.95-.43-1.45-1.05-1.66-2.04-1.85-8.59-10.35-14.75-18.85-14.55-8.55,.2-17.49,6.39-18.65,17-1.27,11.69,8.3,21.45,19.02,20.99Z"/><path d="M375.07,73.74c-5.7-.53-10.8-2.64-15.39-5.99-7.49-5.48-11.97-12.88-13.16-22.03-1.28-9.75,1.39-18.45,7.94-25.93,4.47-5.11,10.01-8.47,16.54-10.11,9.05-2.26,17.56-.76,25.49,4.13,.41,.25,.83,.78,1.28,.58,.62-.27,.3-.97,.3-1.48,.04-4.16,.04-8.33,.05-12.49,4.49,0,8.98,0,13.47,0V44.81c-.62,.69-.32,1.58-.47,2.36-1.38,7.56-5.04,13.83-10.78,18.86-4.98,4.36-10.8,6.99-17.43,7.7-2.62,0-5.23,0-7.85,0Zm3.87-13.44c10.11,.39,19.15-8.09,19.09-18.97-.06-10.56-8.62-18.84-19.04-18.99-10.16-.14-19.17,8.83-19.19,19.01-.02,10.31,9.18,19.62,19.13,18.95Z"/><path d="M115.6,74.07c-3.01-.73-6.07-1.26-8.9-2.59-9.14-4.29-15.02-11.27-17.42-21.11-.6-2.45-.71-4.96-.7-7.48,.04-10.24,.02-20.49,.02-30.73q0-2.17,2.25-2.17c3.18,0,6.37,.06,9.54-.03,1.38-.04,1.76,.39,1.75,1.75-.05,10.46-.03,20.93-.03,31.39,0,8.44,5.16,15.12,13.4,16.94,9.13,2.02,18-3.96,19.85-12.97,.27-1.3,.34-2.59,.34-3.91,0-10.41,.02-20.82-.03-31.23,0-1.49,.39-2.03,1.94-1.98,3.4,.1,6.8,.08,10.2,0,1.31-.03,1.69,.45,1.69,1.72-.03,19.17-.04,38.35,0,57.52,0,1.38-.5,1.63-1.72,1.61-3.45-.07-6.91-.05-10.37,0-1.09,.01-1.98-.03-1.79-1.65-3.02,1.8-5.97,3.21-9.19,3.96-1.42,.33-2.84,.63-4.26,.95h-6.58Z"/><path d="M83.34,.1c0,23.05,0,46.11,.04,69.16,0,1.26-.41,1.57-1.6,1.55-3.34-.07-6.69-.12-10.03,.02-1.68,.07-1.94-.56-1.93-2.06,.05-19.6,.03-39.21,.03-58.81V.1h13.5Z"/><path d="M411.59,.43c-4.49,0-8.98,0-13.47,0,0-.11-.02-.22-.02-.33,4.23,0,8.45,0,12.68,.02,.25,0,.8-.42,.82,.31Z"/><path d="M182.77,74.07c.01-.11,.02-.23,.03-.34,2.61,0,5.22,0,7.84,0,.01,.11,.02,.23,.03,.34h-7.9Z"/><path d="M382.91,73.73c.01,.11,.02,.23,.03,.34h-7.9c0-.11,.01-.22,.02-.34,2.62,0,5.23,0,7.85,0Z"/><path d="M29.34,74.07c.01-.11,0-.22,0-.33,2.41,0,4.81,0,7.22-.01,0,.11,.02,.23,.03,.34h-7.24Z"/><path d="M190.64,73.74c-2.61,0-5.22,0-7.84,0-5.77-.54-10.92-2.7-15.51-6.14-7.61-5.71-12.13-13.37-13.08-22.79-1.77-17.49,10.26-32.57,26.55-35.5,11.14-2,20.87,1.06,28.93,8.82,5.86,5.64,9.1,12.7,9.68,20.94,.23,3.2-.15,6.28-.66,9.4-.22,1.35-.81,1.64-2.06,1.64-14.86-.04-29.73-.02-44.59-.02-.38,0-.77,0-1.15,0-.7-.01-1.09,.1-.58,.92,3.46,5.56,8.36,8.81,14.97,9.3,4.65,.34,8.92-.69,12.66-3.54,.58-.44,.98-.27,1.48,0,3.52,1.88,7.06,3.75,10.57,5.66,.51,.28,1.52,.53,.54,1.5-5.56,5.45-12.05,9-19.9,9.82Zm-3.75-37.16c5.64,0,11.29-.02,16.93,.02,1.14,0,1.45-.26,1.04-1.41-2.74-7.56-10.28-13.73-19.78-12.75-8.03,.82-13.32,5.21-16.33,12.57-.45,1.11-.46,1.62,1.04,1.6,5.7-.08,11.4-.03,17.09-.03Z"/><path d="M327.93,14.64c2.78-1.73,5.32-3.09,8.06-4.08,3.11-1.12,6.34-1.6,9.61-1.91,1.03-.1,1.47,.22,1.45,1.35-.06,3.61-.05,7.23,0,10.85,.01,1.08-.3,1.57-1.48,1.61-9.58,.27-17.82,9.17-17.67,18.53,.15,9.36,0,18.73,.06,28.1,0,1.39-.42,1.76-1.77,1.73-3.51-.09-7.02-.06-10.53,0-1.08,.02-1.54-.22-1.54-1.44,.03-19.34,.03-38.67,0-58.01,0-1.1,.37-1.4,1.43-1.39,3.56,.05,7.13,.06,10.7,0,1.3-.02,1.81,.42,1.7,1.71-.07,.86-.01,1.74-.01,2.96Z"/><path d="M295.71,40.28c0-9.52,.03-19.05-.03-28.57,0-1.36,.37-1.79,1.74-1.75,3.29,.09,6.58,.03,9.87,.03q2.2,0,2.2,2.15c0,16.09,0,32.18,0,48.28,0,2.96-.04,5.91,.02,8.87,.02,1.1-.26,1.55-1.46,1.53-3.62-.07-7.24-.08-10.85,0-1.31,.03-1.52-.48-1.52-1.63,.04-9.63,.02-19.27,.02-28.9Z"/></g></g></svg>