<?xml version="1.0" encoding="UTF-8"?><svg id="Layer_2" xmlns="http://www.w3.org/2000/svg" viewBox="0 0 214.94 214.94"><g id="Layer_1-2"><g><path d="M138.68,103.57c2.31-.04,4.08-2.14,4.08-4.82,0-2.51-1.72-4.51-3.96-4.58-2.32-.08-4.12,1.93-4.18,4.65-.06,2.71,1.72,4.79,4.06,4.75Z"/><path d="M157.95,97.15c1.48,.02,1.34-.69,.76-1.59-.69-1.09-1.73-1.42-2.98-1.4-1.76,.03-2.9,.8-3.47,2.99,2.05,0,3.87-.02,5.69,0Z"/><path d="M112.66,127.73c-1.55,.65-4.07-.52-4.55,2.06-.27,1.43,.93,1.96,2.63,1.93,1.4-.22,2.79-.9,3.02-2.9,.1-.81-.2-1.47-1.1-1.09Z"/><path d="M0,0V214.94H214.94V0H0ZM133.34,92.65c2.13-2.02,5.07-2.26,8.09-.66,.57,.3,1.06,1.38,1.69-.08,.5-1.15,1.77-.68,2.61-.51,1.05,.22,.54,1.3,.55,1.98,.05,4.19,.11,8.38-.02,12.57-.09,3.08-1.55,5.39-4.59,6.44-3.34,1.15-7.09,.43-8.91-1.8-.69-.84-1.89-2.02-.73-2.95,.81-.64,2.31-.7,3.28,.71,1.21,1.77,3.06,1.9,4.96,1.22,1.97-.71,2.52-1.82,2.47-4.68-1.35,.51-2.41,1.59-3.94,1.73-3.25,.31-5.71-.89-7.01-3.61-1.56-3.26-.83-8.09,1.56-10.36Zm-10.71-1.09c.81-.8,2.27-.21,3.47,.3,.53,.23,1.41-.49,2.16-.63,.83-.15,2.08-.93,2.21,.75,.09,1.12,.59,2.54-1.53,2.68-2.52,.16-3.37,1.95-3.38,4.25,0,1.94-.07,3.88,.02,5.82,.06,1.38-.41,1.83-1.81,1.85-1.47,.02-1.51-.72-1.49-1.79,.04-2.03,.01-4.07,.01-6.11,0-1.07-.05-2.14,.01-3.2,.07-1.34-.59-3.01,.32-3.92Zm-15.43-.28c1.09-.06,1.86,.05,1.8,1.49-.09,2.33-.05,4.67-.01,7,.04,1.93,.29,3.92,2.78,4,2.39,.08,3.47-1.62,3.66-3.74,.2-2.32,.17-4.66,.1-6.99-.05-1.45,.53-1.77,1.87-1.79,1.41-.02,1.57,.63,1.54,1.76-.05,2.04-.02,4.08-.01,6.13,0,1.75-.17,3.52,.04,5.25,.28,2.29-1.24,2.72-2.54,2.02-1.35-.73-2.1-.3-3.21,.15-3.7,1.5-7.46-.78-7.79-4.86-.24-3,0-6.03-.11-9.04-.05-1.59,.94-1.32,1.89-1.37Zm-60.86,43.23c-3.61-.05-7.23,.17-10.82-.12-4.89-.39-8.47-3.02-10.09-7.68-1.55-4.45-.94-8.64,2.71-12.03,2.36-2.88,5.57-3.65,9.09-3.59,1.65,.03,3.29,.09,4.93,.13,7.1-.15,5.77-1.15,5.75,5.8,0,5.26,0,10.52,0,15.78,.31,1.34-.35,1.72-1.57,1.7Zm1.65-41.66c.07,3.19-.04,6.38-.07,9.57q.32,5.86-5.49,5.84c-1.84,0-3.67-.06-5.51-.09-7.03,.18-12.27-4.87-12.07-11.64-.07-4.52,1.84-7.89,5.85-10.05,2.8-2.07,6.07-1.62,9.22-1.59,2.59,.02,5.93-1.09,7.56,.44,1.65,1.56,.45,4.93,.51,7.51Zm20.78,41.63c-1.26,0-2.51-.08-3.77-.12-4.05,.04-8.1,.03-12.15,.14-1.59,.04-1.95-.68-1.92-2.09,.08-4.15,.07-8.3,.1-12.45-.03-1.36-.08-2.72-.09-4.08q-.02-5.04,5.26-4.66c2.32-.04,4.64-.19,6.96-.1,6.14,.23,10.91,5.08,11.06,11.24,.05,2.12-.07,4.25-.11,6.38q.42,5.76-5.35,5.74Zm5.46-36.6c-.6,5.58-5.25,10.08-10.92,10.35-3.5,.17-7.01-.01-10.51,.06-1.35,.03-1.89-.36-1.87-1.8,.06-6.62,.06-13.24,0-19.86-.01-1.46,.56-1.84,1.89-1.78,1.85,.08,3.7,.02,5.93,.02,2.03,.18,4.47-.29,6.88,.4,5.64,1.61,9.24,6.82,8.62,12.61Zm26.92,36.61c-1,.02-2.25,.37-2.37-1.32-.11-1.55-.29-3.09-.46-4.63-.13-1.23-.59-2.34-1.87-2.69-1.79-.49-3.65-.48-5.45-.04-.23,.06-.32,1.04-.33,1.6-.04,1.75-.08,3.5,0,5.25,.06,1.34-.35,1.89-1.8,1.9-1.45,.02-1.82-.53-1.79-1.86,.07-3.01,.02-6.03,.02-9.04,0-2.92,.02-5.83,0-8.75-.01-1.21,.13-2.01,1.72-1.93,2.62,.13,5.25-.04,7.87,.06,2.39,.09,4.33,1.15,5.32,3.43,1.01,2.32,.83,4.66-.91,6.52-.96,1.02-.85,1.34-.03,2.43,1.86,2.46,1.03,5.63,1.65,8.45,.21,.95-.98,.61-1.55,.62Zm1.44-31.55c-.97,2.64-3.08,3.63-5.73,3.66-2.63,.03-5.27-.08-7.89,.07-1.63,.09-1.94-.59-1.89-2.02,.09-2.92,.03-5.85,.03-8.77,0-3.02,.01-6.04,0-9.06,0-.96,.05-1.74,1.35-1.69,3.01,.12,6.05-.29,9.04,.27,4.26,.8,5.97,4.9,3.43,8.42-.73,1-.82,1.38,.13,2.21,2.16,1.88,2.5,4.31,1.55,6.92Zm12.03,31.39c-1.3-.8-2-.34-3.01,.01-2.8,.98-5.8,0-6.89-2.18-1.29-2.6-.13-5.48,2.69-6.29,1.39-.4,2.88-.43,4.31-.72,.93-.19,2.13-.36,1.94-1.69-.22-1.49-1.5-1.68-2.7-1.54-.98,.11-1.76,.69-2.31,1.6-.85,1.41-2.48,1.2-3.35,.62-1.09-.73-.02-1.91,.53-2.72,1.61-2.36,4.92-3.31,7.84-2.35,2.86,.93,3.84,3.05,3.71,5.88-.05,1.07,0,2.14,0,3.21,0,1.36-.13,2.74,.03,4.09,.28,2.46-1.47,2.9-2.79,2.08Zm21.3-1.17c-.39,1.25-1.12,1.34-2.17,1.38-1.16,.05-1.78-.35-2.09-1.51-.59-2.22-1.3-4.41-2.06-6.95-1.38,2.18-1.65,4.42-2.32,6.49-.39,1.21-.73,2.02-2.3,2.01-1.58-.01-1.92-.87-2.3-2.06-1.18-3.7-2.49-7.36-3.62-11.07-.21-.7-1.43-1.94,.27-2.3,1.22-.26,2.67-.54,3.12,1.54,.57,2.64,1.53,5.2,2.56,8.57,.96-3.2,1.77-5.72,2.46-8.26,.31-1.12,.58-1.99,2.03-1.96,1.37,.03,1.47,.94,1.75,1.89,.73,2.51,1.51,5.01,2.54,8.4,.89-3.01,1.7-5.2,2.15-7.46,.51-2.59,1.77-3.47,4.48-2.46-1.52,4.58-3.09,9.15-4.53,13.75Zm17.4-2.78c-.29,2.6-2.69,4.32-6.01,4.32-2.26,.07-4.24-.57-5.65-2.43-.58-.77-1.29-1.96-.47-2.58,.79-.6,2.26-.84,3.05,.46,.83,1.36,2.03,1.71,3.49,1.56,1.07-.11,1.89-.63,2-1.75,.11-1.08-.75-1.51-1.62-1.76-1.3-.37-2.64-.63-3.95-.99-1.8-.5-2.83-1.81-2.98-3.57-.15-1.8,.87-3.13,2.42-4.02,2.83-1.61,7.08-.71,8.6,1.85,.47,.79,1.26,1.9,.22,2.53-.72,.43-2.08,.69-2.81-.54-.72-1.22-1.78-1.8-3.18-1.54-.76,.14-1.58,.45-1.67,1.38-.09,.96,.64,1.33,1.44,1.53,.66,.16,1.33,.28,1.99,.41,3.75,.71,5.41,2.39,5.1,5.16Zm-4.64-32.82c.5-3.88,3.22-6.34,7.05-6.38,3.91-.04,6.42,2.15,7.01,5.95,.32,2.09,.06,3.43-2.56,2.98-.95-.16-1.94-.03-2.92-.03-.88,0-1.76-.08-2.63,.02-.79,.09-1.98-.54-2.3,.47-.35,1.11,.52,2.07,1.46,2.62,1.65,.97,3.32,.99,4.83-.38,.48-.44,.66-1.25,1.49-1.27,.76-.02,1.66-.35,2.2,.32,.51,.62-.13,1.3-.42,1.86-1.34,2.6-4.64,3.72-8.17,2.86-3.6-.88-5.62-4.5-5.04-9.03Zm13.62,37.04c-4.32,.13-7.67-3.21-7.72-7.73-.06-4.48,3.24-8,7.5-8,4.13,0,7.31,3.35,7.37,7.78,.06,4.47-2.94,7.82-7.15,7.95Zm2.7-30.3c-.54-.78-1.28-1.89-.29-2.57,.76-.52,2.13-.67,2.87,.43,.71,1.05,1.61,1.72,2.83,1.8,1.25,.09,2.4-.39,2.7-1.71,.33-1.43-.92-1.77-1.93-2.06-1.21-.35-2.48-.48-3.68-.87-1.73-.56-2.82-1.86-2.9-3.65-.08-1.77,.89-3.11,2.51-3.95,2.95-1.54,7.14-.64,8.57,1.9,.46,.83,1.16,1.93,.07,2.54-.67,.37-1.89,.57-2.62-.47-.33-.47-.69-.98-1.16-1.28-.97-.6-2.06-.56-3.06-.04-.51,.26-.96,.73-.66,1.42,.45,1.04,1.39,1.26,2.39,1.37,.39,.04,.77,.12,1.15,.2,3.82,.85,5.34,2.46,4.95,5.25-.35,2.56-2.8,4.25-6.98,4.21-1.38-.03-3.39-.61-4.74-2.53Zm19.86,28.63c.03,1.33-.59,1.62-1.77,1.62-1.21,0-2.07-.11-2.02-1.67,.08-2.43,.01-4.86,.02-7.29,0-1.78-.34-3.46-2.42-3.72-2.06-.25-3.18,1.1-3.76,2.94-.78,2.47-.27,5.02-.38,7.53-.05,1.18,.16,2.26-1.71,2.24-1.88-.03-1.67-1.15-1.67-2.31,0-1.85,0-3.69,0-5.54,0-1.94,.09-3.89-.03-5.83-.1-1.71,1.25-2.46,2.07-1.73,1.85,1.64,3.05-.01,4.51-.31,3.74-.77,6.84,1.45,7.1,5.33,.2,2.9,0,5.83,.07,8.74Zm2.91-26.73c-2.85,1.39-7.14,.55-8.78-1.78-.54-.76-1.39-1.88-.57-2.56,.8-.67,2.24-.82,3.08,.36,.67,.93,1.48,1.57,2.59,1.72,1.43,.2,2.65-.39,2.92-1.79,.27-1.35-1.04-1.68-2.06-1.99-.65-.19-1.34-.21-2-.38-3.23-.82-4.77-2.5-4.44-4.82,.34-2.33,2.68-3.96,5.98-3.98,1.73,.1,3.65,.5,4.84,2.29,.54,.81,1.57,1.99,.46,2.79-.85,.62-2.25,.62-3.02-.72-.67-1.16-1.74-1.49-3-1.28-.77,.13-1.6,.31-1.71,1.29-.11,.99,.66,1.39,1.41,1.59,1.21,.34,2.48,.48,3.7,.81,1.94,.52,3.34,1.68,3.49,3.81,.16,2.19-.96,3.69-2.89,4.63Z"/><path d="M162.28,122.24c-2.49-.1-4.2,1.71-4.25,4.48-.04,2.56,1.59,4.51,3.85,4.61,2.49,.11,4.19-1.71,4.19-4.5,0-2.76-1.43-4.49-3.79-4.59Z"/><path d="M93.43,93.95c2.14-.24,4.91,.48,4.87-2.9-.03-2.93-2.44-2.68-4.8-2.62-1.49-.07-3.29-.58-3.14,2.52,.11,2.37,.63,3.28,3.07,3.01Z"/><path d="M97.6,97.59c-2.17-.92-4.51-.62-6.79-.24-.11,.02-.2,.29-.28,.45-.4,.91-.53,1.79-.42,2.57,.04,.31,.13,.6,.24,.88,.23,.55,.61,1.01,1.11,1.35,.62,.43,1.43,.68,2.38,.68,.19,0,.39,0,.58,0,1.83-.06,3.84,.16,4.5-2.2,.4-1.43,.08-2.88-1.32-3.48Z"/><path d="M97.55,116.66c-2.09-.88-4.69-1.42-6.43-.26-1.33,.89-.66,3.51-.33,5.24,.28,1.47,1.99,.42,2.84,.74,.46,0,.75,0,1.04,0,1.81,.02,3.64-.03,4.21-2.23,.36-1.4,.16-2.87-1.33-3.5Z"/></g></g></svg>