<?xml version="1.0" encoding="UTF-8"?><svg id="Layer_2" xmlns="http://www.w3.org/2000/svg" viewBox="0 0 448.61 176.77"><g id="Layer_1-2"><g><path d="M293.35,148.11c6.91,0,13.12-1.49,18.63-4.47,5.51-2.98,9.85-7.08,13.02-12.31,3.17-5.23,4.75-11.1,4.75-17.63s-1.58-12.4-4.75-17.63c-3.17-5.23-7.51-9.33-13.02-12.31-5.51-2.98-11.72-4.47-18.63-4.47s-13.13,1.49-18.68,4.47c-5.55,2.98-9.88,7.08-13.02,12.31-3.14,5.23-4.7,11.11-4.7,17.63s1.57,12.4,4.7,17.63c3.14,5.23,7.48,9.33,13.02,12.31,5.54,2.98,11.77,4.47,18.68,4.47h0Zm0-13.12c-3.93,0-7.48-.9-10.65-2.71-3.17-1.81-5.66-4.32-7.46-7.56-1.81-3.23-2.71-6.91-2.71-11.03s.9-7.79,2.71-11.03c1.81-3.23,4.29-5.75,7.46-7.56,3.17-1.81,6.72-2.71,10.65-2.71s7.48,.9,10.64,2.71c3.17,1.81,5.66,4.32,7.46,7.56,1.81,3.23,2.71,6.91,2.71,11.03s-.9,7.79-2.71,11.03c-1.81,3.23-4.29,5.75-7.46,7.56-3.17,1.81-6.72,2.71-10.64,2.71h0Z"/><path d="M244.17,100.21l9.88-9.12c-3.17-3.8-7.08-6.72-11.74-8.75-4.66-2.03-9.87-3.04-15.64-3.04-6.84,0-13.01,1.47-18.49,4.42-5.48,2.94-9.79,7.03-12.93,12.26-3.14,5.23-4.7,11.14-4.7,17.72s1.57,12.5,4.7,17.73c1.83,3.04,4.1,5.65,6.72,7.92l10.65-9.85c-1.48-1.37-2.76-2.95-3.78-4.78-1.81-3.23-2.71-6.91-2.71-11.03s.9-7.79,2.71-11.02c1.81-3.23,4.32-5.75,7.55-7.56,3.23-1.81,6.91-2.71,11.03-2.71,6.65,0,12.23,2.6,16.73,7.79h0Zm-35.21,43.83c5.29,2.69,11.15,4.07,17.62,4.07,5.77,0,10.99-1.02,15.68-3.04,4.69-2.03,8.62-4.97,11.79-8.84l-9.88-9.13c-4.5,5.26-10.08,7.89-16.73,7.89-2.67,0-5.13-.42-7.42-1.18l-11.06,10.22h0Z"/><path d="M89.48,134.61v-15.4h30.89v-11.98h-30.89v-14.45h34.98v-12.36h-50.28v66.53h51.51v-12.36h-36.21Zm68.43,13.5c6.08,0,11.25-.92,15.49-2.76,4.24-1.84,7.43-4.32,9.55-7.46,2.12-3.14,3.18-6.61,3.18-10.41,0-4.43-1.16-7.95-3.47-10.55-2.31-2.6-5.08-4.5-8.32-5.7-3.23-1.2-7.38-2.41-12.45-3.61-4.88-1.08-8.51-2.17-10.88-3.28-2.38-1.11-3.56-2.8-3.56-5.08s1.03-4.12,3.09-5.51c2.06-1.39,5.24-2.09,9.55-2.09,6.15,0,12.29,1.74,18.44,5.23l4.75-11.69c-3.04-1.9-6.59-3.36-10.65-4.37-4.06-1.01-8.21-1.52-12.45-1.52-6.08,0-11.23,.92-15.44,2.76-4.21,1.84-7.37,4.32-9.46,7.46s-3.14,6.64-3.14,10.5c0,4.44,1.16,7.98,3.47,10.65,2.31,2.66,5.08,4.59,8.32,5.8,3.23,1.2,7.38,2.41,12.45,3.61,3.29,.76,5.91,1.46,7.84,2.09,1.93,.63,3.52,1.47,4.75,2.52,1.24,1.05,1.85,2.36,1.85,3.94,0,2.15-1.05,3.88-3.14,5.18-2.09,1.3-5.32,1.95-9.69,1.95-3.93,0-7.86-.63-11.79-1.9-3.93-1.27-7.32-2.95-10.17-5.04l-5.23,11.6c2.98,2.28,6.92,4.13,11.83,5.56,4.91,1.43,9.99,2.14,15.25,2.14h0Z"/><path d="M66.91,114.84c0-6.65-1.54-12.48-4.61-17.49-3.07-5-7.38-8.89-12.93-11.64-5.55-2.76-11.93-4.13-19.15-4.13H14.23L0,94.2v.02H29.46c6.65,0,11.96,1.85,15.92,5.56,3.96,3.71,5.94,8.73,5.94,15.06s-1.98,11.36-5.94,15.06c-3.96,3.71-9.27,5.56-15.92,5.56H15.4v-33.07H0v45.71H30.22c7.22,0,13.61-1.38,19.15-4.13,5.54-2.76,9.85-6.64,12.93-11.64,3.07-5,4.61-10.84,4.61-17.49h0Z"/><polygon points="382.83 80.44 382.83 120.83 349.76 80.44 337.02 80.44 337.02 146.97 352.23 146.97 352.23 106.57 385.4 146.97 398.04 146.97 398.04 80.44 382.83 80.44 382.83 80.44"/><path d="M11.08,174.03c-.95,.61-2.07,.92-3.35,.92-1.08,0-2.05-.24-2.91-.72-.87-.48-1.54-1.13-2.03-1.97-.49-.84-.74-1.78-.74-2.81s.25-1.99,.74-2.83c.49-.84,1.17-1.49,2.03-1.96,.87-.47,1.84-.71,2.93-.71,1.62,0,3.01,.55,4.15,1.66l1.27-1.27c-.65-.72-1.45-1.27-2.38-1.65-.93-.37-1.97-.56-3.12-.56-1.46,0-2.77,.31-3.94,.94-1.17,.63-2.08,1.5-2.74,2.62-.66,1.12-.99,2.37-.99,3.76s.33,2.64,.99,3.75c.66,1.11,1.57,1.98,2.73,2.62,1.16,.63,2.46,.95,3.91,.95,1.02,0,2-.16,2.94-.47,.94-.31,1.77-.76,2.47-1.35v-5.58h-1.96v4.66h0Zm20.73,2.58l-3.39-4.81c1.01-.35,1.79-.92,2.33-1.7,.55-.78,.82-1.72,.82-2.82,0-1.55-.53-2.77-1.59-3.66-1.06-.89-2.52-1.33-4.38-1.33h-5.58v14.31h2.04v-4.36h3.54c.22,0,.52-.01,.9-.04l3.09,4.4h2.23Zm-6.28-6.09h-3.48v-6.44h3.48c1.29,0,2.28,.28,2.96,.83,.68,.55,1.02,1.35,1.02,2.38s-.34,1.83-1.02,2.39c-.68,.56-1.67,.84-2.96,.84h0Zm18.87,6.26c1.43,0,2.73-.32,3.89-.95,1.16-.63,2.07-1.51,2.72-2.62,.65-1.11,.98-2.36,.98-3.75s-.33-2.64-.98-3.75c-.65-1.11-1.56-1.98-2.72-2.62-1.16-.63-2.45-.95-3.89-.95s-2.75,.32-3.91,.95c-1.16,.63-2.07,1.51-2.73,2.63-.66,1.12-.99,2.37-.99,3.74s.33,2.62,.99,3.74c.66,1.12,1.57,1.99,2.73,2.63,1.16,.63,2.46,.95,3.91,.95h0Zm0-1.82c-1.05,0-2-.24-2.85-.72-.85-.48-1.52-1.13-2-1.97-.48-.84-.73-1.78-.73-2.81s.24-1.97,.73-2.81c.48-.84,1.15-1.5,2-1.97,.85-.48,1.8-.72,2.85-.72s1.99,.24,2.83,.72c.84,.48,1.5,1.13,1.98,1.97,.48,.84,.73,1.78,.73,2.81s-.24,1.97-.73,2.81c-.48,.84-1.15,1.5-1.98,1.97-.84,.48-1.78,.72-2.83,.72h0Zm19.71,1.82c1.91,0,3.39-.54,4.46-1.63,1.06-1.08,1.59-2.65,1.59-4.71v-8.14h-1.98v8.06c0,1.55-.35,2.71-1.04,3.47-.7,.76-1.7,1.13-3.01,1.13-2.69,0-4.03-1.53-4.03-4.6v-8.06h-2.04v8.14c0,2.04,.53,3.61,1.59,4.7,1.06,1.09,2.55,1.64,4.46,1.64h0Zm18.89-14.48h-5.58v14.31h2.04v-4.33h3.54c1.85,0,3.31-.44,4.38-1.33,1.06-.89,1.59-2.11,1.59-3.66s-.53-2.77-1.59-3.66c-1.06-.89-2.52-1.33-4.38-1.33h0Zm-.06,8.2h-3.48v-6.42h3.48c1.29,0,2.28,.28,2.96,.83,.68,.55,1.02,1.35,1.02,2.38s-.34,1.83-1.02,2.38c-.68,.55-1.67,.83-2.96,.83h0Zm31.57,6.11h2.15l-6.5-14.31h-2.02l-6.48,14.31h2.11l1.57-3.58h7.61l1.57,3.58h0Zm-8.47-5.21l3.09-7.01,3.09,7.01h-6.18Zm21.43,5.38c1.91,0,3.39-.54,4.46-1.63,1.06-1.08,1.59-2.65,1.59-4.71v-8.14h-1.98v8.06c0,1.55-.35,2.71-1.04,3.47-.7,.76-1.7,1.13-3.01,1.13-2.69,0-4.03-1.53-4.03-4.6v-8.06h-2.04v8.14c0,2.04,.53,3.61,1.59,4.7,1.06,1.09,2.55,1.64,4.46,1.64h0Zm17.48,0c1.21,0,2.24-.18,3.07-.54,.83-.36,1.45-.85,1.86-1.47,.41-.62,.61-1.31,.61-2.06,0-.9-.24-1.62-.71-2.15s-1.03-.93-1.69-1.19c-.65-.26-1.52-.52-2.6-.78-.83-.19-1.49-.37-1.97-.54-.48-.17-.89-.41-1.22-.72-.33-.31-.49-.71-.49-1.2,0-.67,.29-1.21,.87-1.64,.58-.42,1.45-.63,2.61-.63,.65,0,1.32,.1,2,.3,.68,.2,1.32,.49,1.92,.87l.67-1.64c-.59-.41-1.29-.72-2.11-.94-.82-.22-1.65-.33-2.49-.33-1.21,0-2.23,.18-3.05,.55-.82,.37-1.43,.86-1.83,1.47-.4,.61-.6,1.3-.6,2.07,0,.91,.24,1.64,.71,2.18,.47,.54,1.04,.94,1.7,1.2,.66,.26,1.53,.52,2.61,.78,.86,.2,1.52,.39,1.99,.55,.47,.16,.87,.4,1.19,.71,.32,.31,.48,.71,.48,1.2,0,.67-.29,1.2-.88,1.61-.59,.4-1.47,.6-2.66,.6-.9,0-1.78-.15-2.63-.46-.85-.31-1.55-.71-2.1-1.2l-.76,1.59c.57,.53,1.36,.96,2.36,1.3,1,.33,2.04,.5,3.12,.5h0Zm14.23-.16h2.02v-12.53h4.91v-1.78h-11.84v1.78h4.91v12.53h0Zm24.03,0l-3.39-4.81c1.01-.35,1.79-.92,2.33-1.7,.55-.78,.82-1.72,.82-2.82,0-1.55-.53-2.77-1.59-3.66-1.06-.89-2.52-1.33-4.38-1.33h-5.58v14.31h2.04v-4.36h3.54c.22,0,.52-.01,.9-.04l3.09,4.4h2.23Zm-6.28-6.09h-3.48v-6.44h3.48c1.29,0,2.28,.28,2.96,.83,.68,.55,1.02,1.35,1.02,2.38s-.34,1.83-1.02,2.39c-.68,.56-1.67,.84-2.96,.84h0Zm23.11,6.09h2.15l-6.5-14.31h-2.02l-6.48,14.31h2.11l1.57-3.58h7.61l1.57,3.58h0Zm-8.47-5.21l3.09-7.01,3.09,7.01h-6.18Zm15.81,5.21h9.79v-1.78h-7.75v-12.53h-2.04v14.31h0Zm15.21,0h2.04v-14.31h-2.04v14.31h0Zm20.1,0h2.15l-6.5-14.31h-2.02l-6.48,14.31h2.11l1.57-3.58h7.61l1.57,3.58h0Zm-8.47-5.21l3.09-7.01,3.09,7.01h-6.18Z"/><polygon points="448.61 30.29 418.64 13.1 388.68 30.37 401.78 35.91 418.65 26.21 435.5 35.83 448.61 30.29 448.61 30.29"/><polygon points="448.61 17.19 418.64 0 388.68 17.27 388.68 30.37 418.65 13.1 448.61 30.29 448.61 17.19 448.61 17.19"/><polygon points="448.61 43.39 418.64 26.21 388.68 43.48 388.68 56.58 418.65 39.31 448.61 56.5 448.61 43.39 448.61 43.39"/><polygon points="418.64 70.59 448.61 56.5 418.64 39.31 388.68 56.58 418.64 70.59 418.64 70.59"/></g></g></svg>