<?xml version="1.0" encoding="UTF-8"?><svg id="Layer_2" xmlns="http://www.w3.org/2000/svg" viewBox="0 0 324.26 90.3"><g id="Layer_1-2"><g><path d="M121.2,90.3c-1.72-.35-3.47-.58-5.14-1.08-9.74-2.9-16.35-9.29-19.61-18.77-4.12-11.98-2.79-23.41,5.16-33.57,7.53-9.63,21.03-13.23,31.85-8.86,2.93,1.19,5.46,2.96,7.85,5.39v-5.44h19v60.59h-18.94v-5.36c-.3,.21-.43,.27-.53,.37-3.84,3.78-8.45,5.94-13.8,6.54-.19,.02-.37,.13-.56,.19h-5.28Zm6.06-16.94c6.59,.01,11.92-3.82,13.8-9.98,.94-3.08,1.02-6.19,.29-9.33-1.45-6.22-6.63-10.52-13.12-10.87-6.59-.36-12.01,3.11-14.13,9.08-.96,2.72-1.12,5.52-.82,8.37,.77,7.49,6.49,12.71,13.98,12.73Z"/><path d="M237.31,1.79h18.98V50.1c.85-1.02,1.51-1.79,2.15-2.58,5.11-6.24,10.22-12.47,15.31-18.73,.53-.65,1.07-.92,1.91-.92,6.48,.03,12.96,.02,19.44,.02,.34,0,.69,.03,1.26,.05-.4,.49-.66,.82-.94,1.14-6.88,7.93-13.75,15.88-20.66,23.78-.69,.79-.67,1.28-.08,2.1,7.6,10.7,15.16,21.44,22.72,32.16,.3,.42,.59,.85,.97,1.39-.4,.04-.69,.1-.97,.1-6.48,0-12.96,0-19.44,.02-.73,0-1.14-.24-1.55-.83-4.47-6.37-8.97-12.72-13.46-19.07-.25-.35-.51-.68-.85-1.14-1.91,2.18-3.76,4.26-5.55,6.39-.24,.28-.23,.82-.23,1.24-.02,3.99,0,7.98,0,11.97,0,.43,0,.86,0,1.35h-18.99V1.79Z"/><path d="M187.8,88.57h-19.01V27.97h18.98v6.09c.44-.38,.67-.56,.88-.77,5.02-5.06,11.16-7.32,18.22-6.98,2.49,.12,5.04,.48,7.42,1.2,7.62,2.31,11.87,7.85,13.92,15.27,.94,3.4,1.27,6.89,1.27,10.41,0,11.49,0,22.97,0,34.46,0,.27-.03,.55-.04,.9h-18.99c0-.44,0-.9,0-1.36,0-9.85,.04-19.7-.03-29.55-.01-1.98-.22-3.99-.66-5.92-.92-4.02-3.32-6.8-7.53-7.58-4.59-.85-8.6,.21-11.49,4.12-1.86,2.52-2.73,5.44-2.79,8.51-.14,7.49-.11,14.99-.14,22.49-.01,3.07,0,6.13,0,9.32Z"/><path d="M30.02,88.57H10.91V44.62H0V27.94H10.88c0-.97,0-1.82,0-2.68-.03-3.48,.15-6.94,1.14-10.3C14.41,6.83,19.79,1.92,28.17,.53c6.21-1.03,12.35-.58,18.29,1.64,.37,.14,.73,.3,1.25,.51-1.5,5.01-2.98,9.99-4.43,14.82-2.11-.33-4.12-.83-6.15-.93-4.5-.23-7.04,2.25-7.14,6.74-.03,1.47,0,2.94,0,4.55h16.53v16.68H30.02v44.03Z"/><path d="M93.07,27.09v17.75c-1.44-.1-2.82-.33-4.2-.27-1.86,.08-3.79,.13-5.57,.62-4.96,1.37-7.38,5.13-8.35,9.85-.56,2.75-.79,5.61-.83,8.42-.11,7.85-.04,15.71-.04,23.57v1.52h-19.03V27.97c.34-.03,.68-.07,1.03-.08,5.6,0,11.19,.02,16.79-.02,.92,0,1.26,.22,1.23,1.2-.07,2.14-.02,4.28,.1,6.48,2.05-3.17,4.63-5.7,8.09-7.2,3.43-1.48,7.01-1.8,10.77-1.27Z"/><path d="M303.71,88.56v-21.93c.12-.08,.18-.17,.24-.16,3.87,.03,7.76-.16,11.6,.14,4.86,.38,8.53,4.41,8.68,9.26,.06,1.96,0,4.03-.55,5.89-1.21,3.99-4.14,6.4-8.28,6.73-3.84,.3-7.72,.06-11.69,.06Z"/></g></g></svg>