<?xml version="1.0" encoding="UTF-8"?><svg id="Layer_2" xmlns="http://www.w3.org/2000/svg" viewBox="0 0 524.28 195.86"><g id="Layer_1-2"><g><path d="M202.03,101.62c-7.17,2.41-61.35,29.62-101.36,94.24-4.84-8.43-10.8-16.87-17.37-25.09,25.74-41.71,70.68-63.13,118.73-69.14m-126.82,59.46c-7.14-8.19-14.72-16.06-22.22-23.36,22.75-17.72,55.73-27.15,88.23-31.93,4.58-.68,14.88-1.64,15.48-1.6-43.94,14.21-68.71,39.16-81.49,56.88m-30.31-31.05c-6.99-6.5-13.72-12.41-19.76-17.51,21.52-9.33,60.83-15.86,81.58-15.42,10.2,.21,19.88,1.05,23.93,2.18-43.26,6.94-69.83,19.52-85.75,30.76m-28.98-25.16c-9.63-7.81-15.92-12.4-15.92-12.4,19.9-4.83,61.49-10.95,90.02-4.47,2.08,.47,4.1,.96,6.04,1.44-41.02,3.25-65.66,9.67-80.14,15.43"/><path d="M30.47,75.02C79.32,54.46,100.67,0,100.67,0c3.9,8.42,9.64,16.96,16.22,25.2-18.69,30.3-51.47,45.69-86.42,49.81M122.7,32.16c5.13,5.88,10.58,11.54,15.96,16.78-16.34,12.72-40.04,19.5-63.38,22.93-3.29,.48-10.68,1.18-11.13,1.15,31.57-10.22,49.36-28.14,58.54-40.86m21.77,22.31c5.02,4.67,9.86,8.91,14.19,12.57-15.46,6.7-43.69,11.4-58.6,11.08-7.33-.15-14.29-.76-17.19-1.57,31.08-4.98,50.16-14.02,61.6-22.09m20.82,18.06c6.91,5.61,11.43,8.91,11.43,8.91-14.3,3.47-44.17,7.87-64.66,3.21-1.5-.34-2.94-.69-4.34-1.03,29.47-2.33,47.17-6.94,57.57-11.08"/><path d="M288.37,101.73l-14.26-25.25h-.76v25.25h-12V47.14h19.96c11.34,0,17.04,4.72,17.04,12.76s-5.48,13.44-12.54,14.73l17.04,27.1h-14.49Zm-11.49-49.87h-3.53v21.26c6.62,0,12.7-1.58,12.7-11.56,0-4.97-1.13-9.69-9.17-9.69"/><polygon points="231.45 52.92 231.45 70.64 250.58 70.64 250.58 76.49 231.45 76.49 231.45 101.73 219.44 101.73 219.44 47.14 250.96 47.14 250.96 52.92 231.45 52.92"/><path d="M343.6,101.73l-5.65-16.16h-18.02l-6.14,16.16h-7.3l22.52-54.6h6.09l21.92,54.6h-13.42Zm-14.58-39.5l-7.29,18.53h14.5l-7.22-18.53Z"/><path d="M374.3,102.77c-4.75,0-8.78-.74-13.14-3.53l2.48-10.13h1.43c.82,5.34,5.64,8.87,11.04,8.87,6.17,0,9.38-3.39,9.38-7.9,0-5.42-4.13-7.72-8.93-9.89-6.75-3.19-15.02-6.18-15.02-17.67,0-9.61,7.07-16.42,18.26-16.42,5.24,0,9.3,1.03,12.91,3.74l-2.55,7.95h-1.2c-1.13-4.35-5.04-6.92-9.16-6.92-5.12,0-8.79,2.04-8.79,7.29s5.55,7.6,11.32,10.5c6.32,3.31,13,7.29,13,16.97,0,10.31-9.01,17.13-21.02,17.13"/><polygon points="403.73 101.73 403.73 47.14 434.02 47.14 434.02 52.92 415.72 52.92 415.72 70.64 433.63 70.64 433.63 76.49 415.72 76.49 415.72 95.94 434.02 95.94 434.02 101.73 403.73 101.73"/><path d="M471.11,101.73l-14.26-25.25h-.77v25.25h-12V47.14h19.98c11.33,0,17.04,4.72,17.04,12.76s-5.49,13.44-12.54,14.73l17.04,27.1h-14.49Zm-11.49-49.87h-3.54v21.26c6.6,0,12.68-1.58,12.68-11.56,0-4.97-1.11-9.69-9.15-9.69"/><path d="M503.25,102.77c-4.72,0-8.78-.74-13.13-3.53l2.49-10.13h1.41c.83,5.34,5.63,8.87,11.05,8.87,6.15,0,9.38-3.39,9.38-7.9,0-5.42-4.13-7.72-8.94-9.89-6.75-3.19-15-6.18-15-17.67,0-9.61,7.05-16.42,18.24-16.42,5.26,0,9.31,1.03,12.9,3.74l-2.54,7.95h-1.2c-1.14-4.35-5.03-6.92-9.17-6.92-5.1,0-8.8,2.04-8.8,7.29s5.56,7.6,11.34,10.5c6.33,3.31,13,7.29,13,16.97,0,10.31-9.01,17.13-21.03,17.13"/><path d="M226.22,134.49v13.26h-6.78v-30.98h10.47c5.57,0,10.32,1.37,10.32,7.73,0,7.91-5.62,10-14,10m2.17-15.06h-2.17v12.34c3.58,0,7.01-1.28,7.01-6.4,0-4.67-2.53-5.94-4.84-5.94"/><path d="M261.22,147.75l-8.04-14.33h-.44v14.33h-6.76v-30.98h11.26c6.37,0,9.59,2.67,9.59,7.23s-3.09,7.64-7.04,8.36l9.6,15.39h-8.17Zm-6.48-28.32h-2v12.08c3.75,0,7.16-.9,7.16-6.57,0-2.82-.62-5.51-5.16-5.51"/><path d="M288.75,148.34c-8.9,0-16.86-4.44-16.86-15.73,0-9.15,6.35-16.44,17.48-16.44s17.11,5.88,17.11,16.44c0,9.16-8,15.73-17.73,15.73m.62-29.49c-8,0-9.93,7.95-9.93,14.57,0,8.48,4.29,12.18,9.31,12.18,5.99,0,10.23-5.21,10.23-14.22,0-6.43-3.2-12.53-9.6-12.53"/><path d="M319.47,134.49v13.26h-6.79v-30.98h10.48c5.57,0,10.33,1.37,10.33,7.73,0,7.91-5.63,10-14.01,10m2.14-15.06h-2.14v12.34c3.59,0,7.02-1.28,7.02-6.4,0-4.67-2.54-5.94-4.87-5.94"/><polygon points="339.23 147.75 339.23 116.77 356.11 116.77 356.11 120.04 346.01 120.04 346.01 130.1 355.9 130.1 355.9 133.42 346.01 133.42 346.01 144.46 356.11 144.46 356.11 147.75 339.23 147.75"/><path d="M378.92,147.75l-8.03-14.33h-.44v14.33h-6.77v-30.98h11.26c6.38,0,9.61,2.67,9.61,7.23s-3.1,7.64-7.07,8.36l9.6,15.39h-8.17Zm-6.46-28.32h-2.01v12.08c3.75,0,7.16-.9,7.16-6.57,0-2.82-.64-5.51-5.15-5.51"/><polygon points="403.34 120.04 403.34 147.75 396.51 147.75 396.51 120.04 388.38 120.04 388.38 116.77 411.45 116.77 411.45 120.04 403.34 120.04"/><polygon points="432.22 133.56 432.22 147.75 425.4 147.75 425.4 134.67 415.86 116.77 423.14 116.77 430.63 130.57 437.58 116.77 441.72 116.77 432.22 133.56"/></g></g></svg>