<?xml version="1.0" encoding="UTF-8"?><svg id="Layer_2" xmlns="http://www.w3.org/2000/svg" viewBox="0 0 420.5 122.87"><g id="Layer_1-2"><g><path d="M0,2.97c.48-.69,1.01-1.24,1.97-.95,.6,.18,.94,.57,1.01,1.18,.04,.37,.03,.74,.03,1.11,0,38.75,0,77.49,0,116.24,0,.09,0,.19,0,.28,.07,.82-.06,1.61-.91,1.92-.9,.34-1.59-.12-2.09-.87V2.97Z"/><path d="M333.47,0c1.1,.43,1.61,1.26,1.92,2.39,2.64,9.7,5.34,19.38,8.02,29.07,.58,2.09-.45,3.67-2.37,3.62-1.13-.03-1.99-.7-2.34-1.89-.45-1.54-.88-3.08-1.27-4.64-.14-.55-.36-.74-.94-.73-2.44,.03-4.89,.04-7.33,0-.63-.01-.86,.23-1,.79-.35,1.4-.85,2.78-1.11,4.2-.34,1.8-1.87,2.56-3.25,2.19-1.46-.39-2.05-1.77-1.55-3.6,2.1-7.61,4.21-15.21,6.3-22.82,.55-1.99,1.11-3.98,1.61-5.98,.28-1.12,.75-2.05,1.82-2.6h1.48Zm-.57,12.14c-.06,0-.12,.01-.17,.02-.93,3.38-1.85,6.76-2.79,10.14-.11,.39,0,.54,.43,.54,1.63-.02,3.27-.02,4.9,0,.46,0,.51-.18,.4-.55-.93-3.38-1.85-6.76-2.78-10.14Z"/><path d="M420.5,76.43c-.26,.06-.26,.31-.36,.49-.5,.87-1.22,1.37-2.25,1.37-3.46,0-6.92,.01-10.38,0-1.41,0-2.45-.96-2.46-2.36-.03-10.04-.03-20.08,0-30.12,0-1.45,1.07-2.38,2.53-2.38,3.09-.01,6.18,.08,9.27-.03,1.73-.06,3,.39,3.65,2.07v1.11c-.84,1.68-2.28,1.98-4.01,1.89-1.91-.11-3.83,0-5.75-.04-.58-.01-.73,.17-.72,.73,.03,2.69,.03,5.38,0,8.07,0,.52,.14,.69,.67,.68,1.98-.03,3.96-.02,5.94-.01,1.62,0,2.74,1.03,2.75,2.49,0,1.46-1.11,2.51-2.73,2.52-1.95,.01-3.9,.02-5.84,0-.59,0-.8,.13-.79,.76,.03,2.97,.04,5.94,0,8.9,0,.65,.24,.75,.8,.74,2.01-.03,4.03,.08,6.03-.04,1.74-.1,3,.38,3.66,2.07v1.11Z"/><path d="M295.98,0c1.35,.66,1.8,1.76,1.79,3.23-.03,9.64-.02,19.28-.02,28.92,0,2-.98,3.15-2.61,3.1-1.2-.03-2.19-.89-2.35-2.08-.05-.36-.05-.74-.05-1.11,0-9.61,.02-19.22-.03-28.83,0-1.49,.43-2.57,1.77-3.23h1.48Z"/><path d="M66.98,41.23c1.79-1.76,3.51-3.3,5.35-4.69,6.1-4.61,12.95-7.36,20.55-8.19,7.54-.83,14.94-.2,22.11,2.35,7.31,2.6,13.26,7.18,18.32,12.97,6.45,7.39,10.16,16.03,11.18,25.74,1.06,10.16-.23,20.02-5.29,29.06-7.02,12.55-17.53,20.53-31.79,23.24-7.89,1.5-15.73,1.36-23.42-1.27-6.1-2.08-11.38-5.48-15.95-10-.24-.24-.43-.52-.64-.79-.37,.33-.24,.62-.24,.87-.01,3.09-.03,6.18,0,9.28,0,.66-.2,.82-.83,.81-4.92-.03-9.83-.03-14.75,0-.8,0-.94-.23-.94-.97,.02-14.72,.02-29.43,.02-44.15,0-24.43,0-48.85-.02-73.28,0-.85,.14-1.14,1.08-1.13,4.79,.06,9.59,.04,14.38,0,.75,0,.9,.21,.9,.92-.02,12.68-.02,25.35-.02,38.03,0,.33,0,.65,0,1.17Zm29.93,65.93c3.88,0,8.06-.75,11.23-2.05,13.61-5.6,21.78-19.5,19.24-35.64-1.22-7.75-5.11-14-11.18-18.82-9.27-7.35-19.72-9.12-30.54-4.48-10.96,4.69-17.24,13.5-18.86,25.38-1.34,9.84,1.43,18.44,8.26,25.69,5.92,6.29,13.06,9.94,21.85,9.92Z"/><path d="M175.77,40.59c1.52-1.7,2.91-3.17,4.45-4.5,4.78-4.13,10.34-6.45,16.61-7,7.5-.66,14.82,.03,21.74,3.21,8.19,3.76,13.4,10.2,16.33,18.59,1.96,5.6,2.7,11.41,2.71,17.31,.04,17.13,0,34.26,.03,51.39,0,.77-.12,1.05-.99,1.04-4.79-.05-9.59-.04-14.38,0-.79,0-.95-.22-.95-.97,.02-15.37,.03-30.73,.01-46.1,0-5.23-.37-10.42-1.97-15.46-2.54-8.03-8.18-12.61-16.59-13.41-4.33-.41-8.58-.17-12.68,1.4-5.07,1.95-8.34,5.68-10.32,10.64-1.74,4.34-2.49,8.9-2.94,13.52-.4,4.13-.39,8.27-.39,12.41,.01,12.31,0,24.61,.02,36.92,0,.86-.22,1.06-1.06,1.05-4.79-.04-9.59-.03-14.38,0-.7,0-.92-.14-.92-.9,.02-29.5,.02-58.99,0-88.49,0-.7,.18-.87,.87-.86,4.64,.03,9.28,.03,13.92,0,.68,0,.89,.15,.88,.86-.04,3.03-.02,6.05-.02,9.36Z"/><path d="M31.18,75.41c0,14.68-.01,29.36,.03,44.05,0,1-.3,1.18-1.22,1.17-4.7-.05-9.4-.04-14.1,0-.67,0-.88-.13-.88-.85,.02-29.52,.02-59.04,0-88.55,0-.73,.22-.85,.88-.84,4.76,.03,9.52,.03,14.28,0,.79,0,1.02,.15,1.02,.99-.03,14.68-.02,29.36-.02,44.05Z"/><path d="M266.88,57.46c-1.05,2.19-2.09,4.39-3.15,6.58-.17,.36-.35,.73-.6,1.04-1.13,1.45-3.29,1.23-4.13-.45-1.02-2.04-1.97-4.12-2.94-6.18-.14-.29-.28-.59-.64-.87v.94c0,5.72,0,11.44,0,17.15,0,1.72-.99,2.81-2.51,2.81-1.24,0-2.25-.86-2.44-2.1-.05-.3-.05-.62-.05-.92,0-9.67,0-19.35,0-29.02,0-1.73,.63-2.72,1.88-3.01,1.29-.3,2.3,.21,2.93,1.52,1.91,4.01,3.81,8.02,5.71,12.03,.08,.16,.17,.32,.32,.6,.62-1.29,1.21-2.5,1.78-3.72,1.38-2.93,2.74-5.86,4.14-8.78,.67-1.41,1.66-1.93,2.95-1.65,1.21,.27,1.93,1.3,1.93,2.78,0,9.86,0,19.72,0,29.58,0,1.36-.71,2.35-1.88,2.65-1.09,.28-2.27-.25-2.83-1.28-.27-.51-.31-1.05-.31-1.62,0-5.72,0-11.44,0-17.15v-.9c-.05,0-.11-.01-.16-.02Z"/><path d="M363.15,107.8c0-6.21,0-12.43,0-18.64,0-1.86,1.5-3.04,3.2-2.56,1.05,.3,1.76,1.23,1.8,2.42,.03,.77,0,1.55,0,2.32,0,9.12,0,18.24,0,27.36,0,1.42-.55,2.36-1.6,2.77-1.3,.51-2.53,0-3.21-1.38-1.44-2.93-2.85-5.88-4.27-8.83-1.69-3.5-3.39-7-5.08-10.49-.06-.13-.13-.25-.22-.42-.29,.38-.17,.73-.18,1.04,0,5.84,0,11.68-.01,17.53,0,1.94-1.5,3.13-3.23,2.6-.89-.27-1.49-.87-1.67-1.8-.07-.36-.1-.74-.1-1.1,0-9.64,0-19.29,0-28.93,0-1.82,.53-2.7,1.8-3.06,1.3-.37,2.44,.19,3.09,1.54,2.37,4.92,4.74,9.83,7.1,14.75,.8,1.66,1.61,3.31,2.41,4.96l.17-.06Z"/><path d="M296.23,100.32c-.26,.43-.17,.77-.17,1.09,0,5.84,0,11.68,0,17.53,0,1.28-.6,2.19-1.62,2.55-1.02,.36-2.17,.04-2.84-.8-.52-.65-.54-1.42-.54-2.2,0-9.21,0-18.42,0-27.63,0-.74,0-1.49,.07-2.22,.11-1.06,.73-1.72,1.75-2.03,1.04-.31,1.88,.02,2.58,.79,.44,.49,.64,1.12,.92,1.7,2.97,6.13,5.94,12.27,8.91,18.4,.06,.13,.08,.3,.35,.34v-.9c0-5.93,0-11.87,0-17.8,0-1.85,1.53-3.03,3.22-2.53,1.08,.32,1.77,1.26,1.78,2.53,.02,1.82,0,3.65,0,5.47,0,8.04,0,16.07,0,24.11,0,1.45-.6,2.41-1.71,2.78-1.29,.44-2.44-.07-3.11-1.44-1.44-2.94-2.85-5.88-4.27-8.83-1.75-3.6-3.5-7.2-5.3-10.92Z"/><path d="M271.19,17.61c0-4.76,0-9.52,0-14.28,0-2.29,.85-3.14,3.12-3.14,1.86,0,3.71,0,5.57,0,4.83,.01,8.6,3.61,8.8,8.44,.06,1.42,.09,2.84-.08,4.26-.32,2.72-1.65,4.82-3.94,6.28-.55,.35-.59,.61-.38,1.16,1.41,3.72,2.78,7.46,4.17,11.18,.58,1.56,.07,2.86-1.36,3.41-1.39,.53-2.76-.13-3.33-1.64-1.49-3.95-2.98-7.9-4.42-11.87-.24-.68-.54-.88-1.24-.86-1.87,.05-1.87,.01-1.87,1.89,0,3.28,.01,6.55,0,9.83-.01,1.84-1.13,2.93-2.8,2.79-1.02-.08-1.94-.88-2.13-1.89-.08-.42-.1-.86-.1-1.29,0-4.76,0-9.52,0-14.28Zm5.04-7.26c0,1.51,.03,3.02-.01,4.54-.02,.58,.17,.74,.73,.71,.95-.04,1.91,0,2.87-.02,2.25-.04,3.77-1.5,3.87-3.75,.04-.92,.03-1.85,0-2.78-.07-2.35-1.6-3.83-3.96-3.85-.9,0-1.79,.04-2.68-.01-.63-.04-.86,.14-.83,.81,.05,1.45,.02,2.9,.02,4.35Z"/><path d="M299.03,60.85c0-4.7,.06-9.4-.03-14.1-.04-2.24,1.02-3.51,3.32-3.36,1.79,.11,3.59,.02,5.38,.02,4.83,.01,8.62,3.58,8.81,8.43,.08,2.09,.24,4.21-.51,6.24-.69,1.86-1.86,3.34-3.56,4.36-.48,.29-.54,.51-.35,1.01,1.42,3.75,2.8,7.51,4.19,11.27,.59,1.58,.09,2.86-1.34,3.42-1.41,.56-2.78-.13-3.37-1.7-1.46-3.9-2.93-7.79-4.35-11.7-.26-.71-.57-1-1.37-.96-1.79,.07-1.79,.02-1.79,1.79,0,3.31,.01,6.62,0,9.92-.01,1.77-1.03,2.85-2.6,2.82-1.21-.03-2.18-.87-2.36-2.07-.06-.39-.07-.8-.07-1.2,0-4.73,0-9.46,0-14.19Zm7.38-12.42c-.59,0-1.17,.02-1.76,0-.43-.02-.6,.11-.59,.57,.02,3.09,.02,6.17,0,9.26,0,.45,.16,.58,.59,.57,1.11-.03,2.22,.01,3.33-.03,.96-.03,1.78-.42,2.46-1.12,1.55-1.59,1.58-6.42,.07-8.06-1.15-1.24-2.61-1.25-4.1-1.19Z"/><path d="M316.1,104.06c0-4.73,0-9.46,0-14.19,0-2.42,.82-3.24,3.21-3.24,1.79,0,3.59,0,5.38,0,5.01,0,8.85,3.71,8.9,8.73,.06,5.81,.06,11.62,0,17.43-.06,4.98-3.85,8.67-8.83,8.71-1.92,.02-3.83,0-5.75,0-1.96,0-2.9-.92-2.91-2.9-.02-4.11,0-8.22,0-12.33v-2.23Zm5,0c0,3.83,.02,7.67-.02,11.5,0,.8,.23,1,.99,.94,.89-.07,1.79,0,2.69-.02,2.19-.04,3.81-1.52,3.83-3.69,.05-5.81,.05-11.63,0-17.44-.02-2.19-1.64-3.68-3.81-3.71-.96-.01-1.92,.04-2.88-.02-.67-.04-.82,.21-.82,.84,.03,3.86,.01,7.73,.01,11.59Z"/><path d="M294.35,60.88c0,2.94,.02,5.87,0,8.81-.03,5.01-3.84,8.8-8.81,8.79-4.84-.01-8.64-3.92-8.64-8.89,0-5.84,0-11.68,0-17.53,0-4.48,3.05-8.03,7.49-8.75,4.15-.68,8.2,1.87,9.58,6.02,.28,.86,.38,1.74,.38,2.65,0,2.97,0,5.93,0,8.9Zm-5-.03c0-2.87,0-5.74,0-8.62,0-2.33-1.54-3.99-3.69-3.99-2.18,0-3.75,1.65-3.75,3.95,0,5.77,0,11.55,0,17.32,0,2.29,1.59,3.94,3.76,3.94,2.11,0,3.67-1.65,3.68-3.9,0-2.9,0-5.81,0-8.71Z"/><path d="M286.17,101.43c0,4.11,.12,8.22-.03,12.33-.15,4.2-3.95,7.78-8.13,7.94-4.58,.17-8.46-2.91-9.13-7.26-.07-.43-.13-.86-.13-1.29,0-8-.01-16.01,0-24.01,0-2.02,1.79-3.26,3.53-2.47,1.03,.47,1.46,1.33,1.46,2.46-.02,5.04,0,10.08,0,15.11,0,2.81-.01,5.62,0,8.44,.01,2.07,1.14,3.51,2.99,3.92,2.12,.46,4.24-1.07,4.46-3.23,.03-.34,.03-.68,.03-1.02,0-7.6,0-15.21,0-22.81,0-.68,0-1.36,.41-1.96,.59-.89,1.66-1.31,2.66-1.08,1.07,.25,1.81,1.1,1.92,2.23,.03,.31,.02,.62,.02,.93,0,3.92,0,7.85,0,11.77-.02,0-.04,0-.05,0Z"/><path d="M344.25,60.95c0,2.84,0,5.69,0,8.53,0,2.28,1.58,3.95,3.74,3.98,2.12,.02,3.7-1.67,3.7-3.99,0-1.58-.03-3.15,.02-4.73,.02-.69-.12-1.02-.89-.93-.64,.07-1.3,.04-1.95,0-1.32-.07-2.37-1.2-2.36-2.51,0-1.32,1.07-2.46,2.39-2.48,1.82-.03,3.65-.04,5.47,0,1.29,.03,2.3,1.03,2.31,2.31,.03,3.09,.08,6.18-.02,9.27-.12,3.78-3.08,7.1-6.83,7.88-3.95,.82-7.85-1.04-9.63-4.6-.65-1.29-.97-2.65-.97-4.1,.01-5.84,0-11.68,0-17.53,0-3.59,2.19-6.82,5.38-8.06,3.57-1.38,7.35-.55,9.86,2.18,.35,.38,.66,.82,.93,1.27,.85,1.38,.55,2.79-.73,3.63-1.15,.75-2.54,.41-3.44-.89-.88-1.27-2.04-1.97-3.61-1.8-2,.22-3.37,1.74-3.38,3.75-.01,2.94,0,5.87,0,8.81Z"/><path d="M383.04,60.89c0-3-.03-6,0-9,.05-3.94,2.7-7.26,6.5-8.26,3.77-.99,7.7,.56,9.66,3.79,.81,1.34,.61,2.66-.55,3.54-1.18,.89-2.64,.59-3.61-.76-1.2-1.67-2.76-2.23-4.5-1.62-1.51,.53-2.49,1.83-2.5,3.44-.02,5.9-.02,11.81,0,17.71,0,2.1,1.72,3.73,3.81,3.72,1.99-.01,3.6-1.63,3.63-3.69,.02-1.76-.01-3.52,.02-5.29,0-.53-.16-.7-.68-.67-.68,.04-1.36,.02-2.04,0-1.39-.05-2.47-1.15-2.48-2.49,0-1.35,1.08-2.49,2.46-2.51,1.76-.03,3.53-.03,5.29,0,1.44,.02,2.43,1.03,2.44,2.48,.02,2.91,.04,5.81,0,8.72-.07,4.72-3.97,8.46-8.77,8.46-4.66,0-8.61-3.84-8.67-8.5-.04-3.03,0-6.06,0-9.09Z"/><path d="M373.01,104.15c0-3-.03-6,0-9,.04-3.95,2.66-7.27,6.47-8.28,3.79-1.01,7.78,.58,9.73,3.82,.61,1.02,.62,1.99-.06,2.94-.61,.86-1.47,1.19-2.52,.98-.78-.16-1.28-.67-1.72-1.31-.9-1.31-2.14-1.93-3.75-1.67-1.86,.3-3.15,1.78-3.16,3.67-.01,5.87-.02,11.75,0,17.62,0,2.11,1.69,3.75,3.78,3.75,2.03,0,3.64-1.64,3.66-3.75,.02-1.7-.03-3.4,.02-5.1,.02-.68-.21-.85-.84-.8-.65,.05-1.3,.03-1.95,0-1.38-.06-2.45-1.21-2.41-2.55,.03-1.33,1.09-2.42,2.42-2.45,1.79-.03,3.59-.03,5.38,0,1.34,.03,2.36,1.03,2.37,2.35,.03,3.06,.08,6.12-.02,9.18-.14,4.23-3.78,7.86-7.97,8.11-4.57,.26-8.53-2.75-9.3-7.07-.11-.64-.17-1.28-.16-1.94,0-2.84,0-5.69,0-8.53Z"/><path d="M378.05,78.3c-1.19,0-2.07-.66-2.43-1.89-.45-1.54-.88-3.08-1.27-4.64-.14-.55-.35-.74-.93-.73-2.44,.04-4.89,.04-7.33,0-.62-.01-.86,.21-1,.78-.38,1.53-.78,3.05-1.23,4.55-.45,1.51-1.72,2.24-3.13,1.85-1.33-.37-2.06-1.66-1.66-3.14,1.6-5.92,3.24-11.83,4.87-17.74,1.13-4.1,2.25-8.2,3.42-12.29,.5-1.77,2.47-2.39,3.92-1.34,.54,.39,.77,.95,.94,1.55,2.72,9.83,5.43,19.67,8.15,29.5,.54,1.98-.48,3.53-2.31,3.54Zm-8.23-22.97c-.05,0-.1,0-.15,0-.93,3.41-1.86,6.82-2.8,10.22-.13,.46,.12,.5,.48,.49,1.14-.01,2.28,0,3.42,0,1.94,0,1.97,0,1.48-1.83-.79-2.96-1.61-5.92-2.42-8.88Z"/><path d="M250.41,17.64c0-4.76,.04-9.52-.02-14.28-.03-2.08,1.06-3.32,3.21-3.19,1.85,.11,3.71,.02,5.57,.02,4.75,.02,8.57,3.66,8.73,8.42,.06,1.84,.2,3.71-.29,5.53-1.04,3.8-4.37,6.39-8.31,6.45-.96,.02-1.92,.08-2.87-.01-.87-.08-1,.26-.99,1.03,.04,3.4,.02,6.8,.01,10.2,0,.46-.01,.93-.08,1.39-.18,1.18-1.19,2.03-2.39,2.05-1.22,.02-2.25-.77-2.47-1.94-.08-.42-.09-.86-.1-1.29,0-4.79,0-9.58,0-14.38Zm5.04-7.22c0,1.48,.02,2.96-.01,4.44-.01,.55,.11,.77,.71,.74,.99-.05,1.97,0,2.96-.02,2.09-.05,3.58-1.37,3.76-3.45,.1-1.16,.1-2.35,0-3.51-.19-2.08-1.7-3.38-3.79-3.41-.99-.01-1.98,.03-2.96-.01-.54-.02-.68,.18-.67,.69,.03,1.51,.01,3.02,.01,4.54Z"/><path d="M312.21,22.99c.53-1.91,1.05-3.83,1.58-5.74,1.37-4.99,2.73-9.99,4.11-14.98,.45-1.63,1.68-2.42,3.18-2.05,1.4,.34,2.12,1.71,1.69,3.29-1.75,6.39-3.51,12.78-5.28,19.16-.98,3.53-1.94,7.07-2.95,10.6-.48,1.69-2.06,2.43-3.53,1.74-.82-.39-1.21-1.1-1.44-1.93-1.37-4.96-2.74-9.92-4.11-14.88-1.34-4.87-2.69-9.74-4.02-14.62-.55-2.03,.64-3.56,2.62-3.42,1.09,.08,1.88,.78,2.23,2.03,1.39,5.05,2.77,10.1,4.17,15.15,.52,1.88,1.05,3.76,1.58,5.64,.06,0,.13,0,.19,0Z"/><path d="M364.01,17.57c0-4.79,0-9.58,0-14.37,0-2.16,.87-3.01,3.05-3.01,3.18,0,6.37,0,9.55,0,1.66,0,2.74,.96,2.76,2.45,.03,1.52-1.07,2.55-2.75,2.56-2.26,0-4.51,.02-6.77-.01-.61,0-.86,.11-.85,.79,.04,2.63,.04,5.26,0,7.88-.01,.67,.21,.82,.84,.8,1.95-.04,3.9-.02,5.84-.01,1.55,0,2.66,1.03,2.68,2.46,.03,1.47-1.09,2.53-2.7,2.55-1.98,.01-3.96,.03-5.94,0-.58-.01-.73,.16-.72,.73,.03,2.97,.03,5.94,0,8.9,0,.6,.15,.79,.77,.78,2.29-.04,4.58-.02,6.86-.01,1.64,0,2.73,.99,2.74,2.48,.01,1.49-1.07,2.53-2.69,2.54-3.31,.01-6.62,0-9.93,0-1.78,0-2.75-.95-2.75-2.75-.01-4.92,0-9.83,0-14.75Z"/><path d="M31.18,10.39c0,2.87-.02,5.75,.02,8.62,0,.67-.2,.81-.83,.81-4.85-.03-9.71-.02-14.56,0-.58,0-.79-.13-.79-.76,.03-5.75,.02-11.5,0-17.24,0-.6,.19-.7,.74-.7,4.88,.02,9.77,.03,14.65,0,.69,0,.79,.24,.79,.84-.03,2.81-.01,5.62-.01,8.44Z"/><path d="M250.44,103.95c0-4.76,0-9.52,0-14.28,0-2.19,.84-3.03,3.02-3.03,3.19,0,6.37,0,9.56,0,1.7,0,2.8,1,2.79,2.52,0,1.51-1.1,2.49-2.82,2.49-2.26,0-4.52,.02-6.77-.01-.6,0-.79,.15-.78,.77,.03,2.63,.03,5.26,0,7.88,0,.64,.15,.84,.81,.83,1.95-.04,3.9-.02,5.84-.01,1.6,0,2.72,1.07,2.7,2.53-.02,1.43-1.11,2.46-2.67,2.48-1.89,.02-3.77,.04-5.66-.01-.78-.02-1.05,.13-1.04,.99,.06,3.71,.02,7.42,.02,11.13,0,.56,0,1.11-.23,1.64-.45,1.01-1.52,1.6-2.65,1.45-1.08-.14-1.96-1.03-2.09-2.15-.04-.34-.04-.68-.04-1.02,0-4.73,0-9.46,0-14.19Z"/><path d="M348.83,19.31c0-4.42-.02-8.84,.02-13.26,0-.71-.19-.89-.88-.86-1.14,.06-2.29,.03-3.43,0-1.44-.04-2.53-1.17-2.49-2.56,.04-1.36,1.12-2.44,2.52-2.44,4.51-.02,9.03-.02,13.54,0,1.4,0,2.45,1.1,2.46,2.48,0,1.39-1.02,2.48-2.43,2.52-1.05,.03-2.11,.07-3.15,0-.9-.07-1.18,.15-1.18,1.13,.05,8.66,.03,17.31,.03,25.97,0,.69-.06,1.36-.49,1.93-.66,.9-1.76,1.26-2.8,.92-1.05-.34-1.71-1.21-1.71-2.38-.01-4.48,0-8.97,0-13.45Z"/><path d="M324.71,62.53c0-4.42-.02-8.84,.02-13.26,0-.71-.19-.89-.88-.86-1.14,.06-2.29,.03-3.43,0-1.44-.04-2.53-1.18-2.49-2.56,.04-1.36,1.12-2.44,2.52-2.44,4.51-.02,9.03-.02,13.54,0,1.4,0,2.45,1.1,2.45,2.48,0,1.39-1.02,2.48-2.43,2.52-1.05,.03-2.11,.07-3.15,0-.9-.07-1.18,.15-1.18,1.13,.05,8.62,.03,17.25,.03,25.88,0,.69-.04,1.36-.43,1.95-.62,.92-1.72,1.32-2.76,1.03-1.08-.31-1.8-1.22-1.8-2.41-.01-4.48,0-8.97,0-13.45Z"/><path d="M338.21,104.02c0-4.94,0-9.88,0-14.83,0-1.73,1.09-2.83,2.66-2.74,1.07,.06,2.03,.84,2.24,1.89,.09,.42,.1,.86,.1,1.29,0,9.64,0,19.28,0,28.91,0,.91-.06,1.79-.79,2.47-.72,.67-1.56,.87-2.48,.58-.96-.31-1.55-.98-1.69-2-.05-.33-.04-.68-.04-1.02,0-4.85,0-9.7,0-14.55Z"/></g></g></svg>