<?xml version="1.0" encoding="UTF-8"?><svg id="Layer_2" xmlns="http://www.w3.org/2000/svg" viewBox="0 0 212.52 99.71"><g id="Layer_1-2"><g><path d="M145.53,97.44c-8.07,0-26.92-.19-26.92-.19l-2.19-8.8h-13.68c-2.36,10.21-1.26,8.59-1.26,8.59,0,0-21.13,.07-25.64,.07,2.66-12.76,3.95-22.11,6.36-32.93,4.06-18.24,14.53-62.37,14.53-62.37h26.71s1.6,5.54,4.47,17.68c3.06,12.96,5.66,26.02,8.59,39.01,2.86,12.71,5.88,25.38,9.04,38.94Zm-34.74-52.28c-.57-.09-1.14-.17-1.7-.26-1.28,7.07-2.56,14.15-3.99,22.05,3.17-.16,5.52-.28,8.24-.41-.92-7.73-1.73-14.56-2.54-21.38Z"/><path d="M171.23,62c.74,3.9,.62,7.27,2.05,9.78,1.58,2.77,4.26,5.35,7.09,6.79,1.09,.56,5.5-2.08,5.63-3.53,.3-3.19-.03-7.78-2.08-9.6-5.34-4.74-11.75-8.31-17.74-12.33-14.13-9.48-18.3-20.94-12.98-35.74,4.65-12.96,20.16-20.03,36.03-16.43,13.77,3.13,22.87,15.3,21.61,28.94-.07,.76-.06,2.16-.26,2.19-5.62,.89-11.24,2-16.9,2.19-1.74,.06-4.1-2.16-5.21-3.94-1.3-2.07-.81-5.88-2.43-6.98-2.25-1.52-5.75-1.21-8.71-1.69-.12,2.87-1.51,7.16-.13,8.37,5.36,4.75,11.42,8.79,17.53,12.6,11.34,7.06,18.34,16.36,17.77,30.28-.39,9.44-4.32,16.63-12.46,21.71-21,13.09-48.98-.43-51.05-24.64-.5-5.79,.95-8.78,7.55-8.08,4.81,.51,9.71,.1,14.7,.1Z"/><polygon points="39.62 27.47 63.93 1.8 72.49 1.8 72.49 97.24 41.87 97.24 41.87 41.42 39.62 41.42 39.62 27.47"/><polygon points="32.86 27.47 8.55 1.8 0 1.8 0 97.24 30.61 97.24 30.61 41.42 32.86 41.42 32.86 27.47"/></g></g></svg>