<?xml version="1.0" encoding="UTF-8"?><svg id="Layer_2" xmlns="http://www.w3.org/2000/svg" viewBox="0 0 439.14 197.94"><g id="Layer_1-2"><g><path d="M176.74,1.49c24.03,.09,42.9,10.27,57.72,28.93,4.28,5.39,3.66,8.83-1.51,13.14-30.7,25.64-61.36,51.34-91.63,77.48-6.65,5.74-10.67,4.62-16.09-1.13-19.74-20.96-25.34-50.02-14.17-75.96C122.24,18.01,147.96,1.37,176.74,1.49Z"/><path d="M286.95,123.7c-15.03,0-30.06,.04-45.09-.05-2.18-.01-4.98,1.03-6.29-1.75-1.2-2.55,.65-4.44,2-6.35,15.64-22.18,18.66-45.9,8.22-71.01-1.97-4.75-.82-7.78,2.72-10.77,12.38-10.45,24.78-20.88,37.01-31.5,3.62-3.14,6.6-2.9,10.11-.02,13.2,10.84,26.47,21.6,39.76,32.33,2.95,2.38,4.47,5.17,4.45,9.08-.09,24.15-.15,48.3,.03,72.44,.04,5.73-2.12,7.79-7.83,7.69-15.03-.26-30.06-.09-45.09-.09Z"/><path d="M285.44,175.34c0,5.3-.02,10.6,.01,15.9,.02,2.56-.2,4.6-3.67,4.6-3.15,0-5.16-.68-5-4.32,.11-2.35-.19-4.73,.04-7.06,.48-4.68-1.52-6.02-6.08-6-4.54,.02-5.84,1.47-6.33,6.01-.43,3.9,4.34,11.75-4.72,11.04-7.9-.62-3.55-7.82-3.95-11.96-.7-7.29-.33-14.7-.13-22.06,.09-3.36-1.87-8.12,4.84-7.92,6.27,.19,3.59,4.72,4.18,7.67,.76,3.75-2.32,9.38,5.44,9.46,4.73,.05,7.34-.97,6.75-6.28-.26-2.32,.03-4.71-.03-7.06-.08-3.27,1.89-3.69,4.58-3.78,3.05-.09,4.17,1.09,4.1,4.1-.13,5.88-.04,11.77-.04,17.66Z"/><path d="M330.83,174.75c-.17,13.19-7.33,22.11-17.83,22.21-10.76,.1-18.36-9.28-18.39-22.7-.03-13.72,7.24-22.64,18.33-22.48,10.93,.16,18.07,9.33,17.9,22.98Zm-8.58-1.28c-.85-6.01-1.29-13.96-9.67-13.85-8.29,.11-8.71,8.1-9.42,14.57-.15,1.42,.08,2.95,.45,4.35,1.27,4.84,2.3,10.33,8.74,10.5,6.95,.18,8.12-5.61,9.55-10.71,.39-1.38,.23-2.91,.35-4.85Z"/><path d="M198.47,171.35c0,4.12,.18,8.25-.04,12.36-.43,8.18-5.2,13.15-13.08,13.94-8.05,.81-15.46-3.69-16.28-11.49-1.01-9.61-.47-19.38-.63-29.09-.06-3.53,2.36-3.27,4.78-3.46,3.54-.27,4.6,1.33,4.54,4.63-.13,7.36-.06,14.72-.01,22.07,.03,4.26,.17,8.87,5.94,8.96,5.89,.09,5.93-4.46,5.91-8.79-.04-7.36,.08-14.72-.05-22.07-.05-3.17,.74-4.83,4.39-4.85,3.43-.01,4.76,1.11,4.62,4.54-.19,4.41-.05,8.83-.05,13.24-.01,0-.02,0-.04,0Z"/><path d="M105.22,195.09c-14.67,3.85-14.66-10.93-23.4-16.04,0,4.34-.12,8.23,.04,12.11,.13,3.29-.99,4.74-4.53,4.69-3.62-.05-4.44-1.78-4.42-4.93,.08-10.58,.07-21.17,0-31.75-.02-3.23,.14-5.6,4.54-5.66,4.58-.06,4.48,2.54,4.39,5.65-.07,2.58-.01,5.17-.01,8.81,8.28-4.16,9.55-18.37,22.11-13.57-.32,.79-.51,1.66-.98,2.34-3.99,5.76-11.2,11.5-11.17,17.22,.03,5.8,7.19,11.56,11.21,17.35,.64,.92,1.14,1.93,2.22,3.77Z"/><path d="M339.59,171.28c0-4.41,.13-8.82-.04-13.22-.14-3.49,1.37-4.48,4.7-4.49,3.49-.02,4.6,1.32,4.53,4.66-.14,7.93,0,15.87-.05,23.8-.02,4,1.16,7.15,5.71,7.27,4.52,.12,6.12-2.99,6.18-6.94,.13-7.64,.05-15.28,.08-22.92,.01-2.9-.59-5.91,4.17-5.89,4.13,.02,4.88,1.89,4.81,5.4-.16,7.93,.21,15.88-.16,23.79-.45,9.61-6.12,14.98-14.99,14.95-9.18-.03-14.61-5.75-14.94-15.85-.11-3.52-.02-7.05-.02-10.58Z"/><path d="M415.36,174.37c0-1.18,0-2.35,0-3.53q0-19.15,19.28-17.26c2.57,.25,4.55,.23,4.49,3.71-.05,3.15-.81,4.45-4.34,5-3.69,.58-10.43-3.5-10.65,3.29-.25,7.75,6.97,3.21,10.78,4.06,2.74,.61,4.1,1.14,4.22,4.19,.13,3.63-1.51,4.65-4.75,4.37-1.46-.13-2.94-.04-4.41-.01-3.13,.06-6.5-.83-6.53,4.48-.03,5.2,3.14,4.65,6.39,4.63,2.06,0,4.12,.04,6.17,.02,3-.03,3.05,2.02,3.06,4.18,.01,2.23-.26,4.17-3.16,4.14-.59,0-1.18-.01-1.76,.04q-18.78,1.59-18.78-21.32Z"/><path d="M396.45,160.4c-3.41,.08-7.41-1-8.7,2.88-1.54,4.62,2.72,5.73,5.82,7.28,2.09,1.04,4.32,1.92,6.18,3.28,6.26,4.59,7.79,13,3.59,18.64-4.15,5.58-16.64,7.32-21.79,3.14-2.18-1.77-2.38-4.13-1.74-6.36,1.03-3.61,3.24-.64,4.91-.49,1.75,.15,3.47,.72,5.22,.77,2.67,.07,5.58-.05,6.39-3.31,.73-2.9-.63-5.03-3.33-6.43-3.38-1.74-6.93-3.31-9.93-5.58-5.87-4.45-6.53-12.72-1.82-17.82,4.42-4.78,16.45-6.29,20.46-2.58,1.78,1.64,1.76,3.9,1.13,5.71-1.46,4.15-4.5-.16-6.39,.86Z"/><path d="M150.91,160.26c-3.84,.08-8.21-1.33-9.4,3.29-1.21,4.68,3.28,5.62,6.37,7,3.55,1.59,6.93,3.33,9.22,6.57,4,5.66,2.95,13.42-2.26,17.47-5.08,3.94-16.3,4.19-20.03,.47-1.66-1.66-1.85-3.75-1.33-5.76,.93-3.58,3.09-1.09,4.83-.78,2.02,.37,4.07,.73,6.11,.83,2.46,.12,4.95-.42,5.73-3.11,.85-2.92-.54-5.12-3.21-6.52-2.86-1.5-5.86-2.8-8.54-4.58-6.68-4.41-8.42-11.56-4.47-17.45,3.82-5.7,15.44-8.07,20.84-4.47,2.6,1.73,2.32,4.21,1.68,6.25-1.17,3.69-4,.18-5.55,.78Z"/><path d="M46.76,195.78c-8.87,2.81-10.57-2.48-9.93-11.2,.6-8.17,.41-16.43,.03-24.63-.24-5.12,1.62-6.74,6.54-6.32,4.37,.37,8.8,.19,13.2,.05,3.17-.1,3.95,1.47,3.94,4.3,0,2.88-1.12,3.77-4.02,4.37-3.82,.79-10.93-3.63-10.86,3.93,.06,7.04,6.86,2.8,10.51,3.44,3.44,.6,4.36,1.8,4.38,4.99,.02,3.53-2.1,3.6-4.61,3.56-2.35-.04-4.7,.1-7.04,0-3.41-.16-3.66,1.97-3.67,4.56,0,2.62,.38,4.69,3.72,4.55,2.05-.08,4.12,.11,6.16-.01,3.36-.21,5.63,.3,5.47,4.61-.15,4.07-2.65,3.84-5.36,3.81-2.35-.03-4.7,0-8.46,0Z"/><path d="M1.71,187c6.28,.81,12.99,5.9,15.99-.78,3.15-7.03-5.24-7.54-9.32-10.05-7.7-4.72-10.33-11.09-6.88-17.52,3.46-6.45,14.39-9.37,21.03-5.95,2.84,1.46,2.51,3.62,2.37,5.9-.22,3.64-2.7,1.91-4.49,1.78-2.04-.14-4.08-.52-6.1-.4-2.09,.13-4.19,.94-4.88,3.14-.89,2.81,1.16,4.39,3.21,5.59,3.27,1.91,7.01,3.17,9.97,5.45,6.02,4.64,6.78,13.49,2.07,18.74-4.57,5.09-16.51,6.21-21.23,2.16-2.57-2.21-1.16-4.78-1.74-8.07Z"/><path d="M219.26,174.12c0,5.58-.12,11.16,.04,16.74,.12,3.92-1.7,5.03-5.35,4.99-3.55-.03-4.57-1.66-4.55-4.86,.07-10.87,.13-21.74-.03-32.6-.06-3.99,1.74-4.94,5.36-4.91,3.52,.03,4.64,1.51,4.56,4.79-.13,5.28-.03,10.57-.03,15.86Z"/><path d="M122.29,174.93c0,5.3-.06,10.61,.03,15.91,.05,2.98-.3,4.98-4.18,5.02-3.89,.04-5.16-1.32-5.11-5.11,.16-10.9,.14-21.8,.01-32.7-.04-3.5,1.39-4.47,4.73-4.5,3.46-.03,4.68,1.18,4.57,4.58-.18,5.59-.05,11.19-.05,16.79Z"/></g></g></svg>