<?xml version="1.0" encoding="UTF-8"?><svg id="Layer_2" xmlns="http://www.w3.org/2000/svg" viewBox="0 0 214.94 214.94"><g id="Layer_1-2"><g><path d="M140.37,110.26h7.87c-1.32-3.95-2.61-7.83-3.93-11.79-1.33,3.99-2.63,7.88-3.93,11.79Z"/><path d="M0,0V214.94H214.94V0H0ZM76.17,115.08c-.71,1-1.64,1.74-2.76,2.21-2.71,1.13-5.48,1.23-8.24,.22-2.88-1.05-4.78-4.02-4.51-6.91h2.87c.06,.33,.11,.68,.18,1.02,.44,2.09,1.7,3.39,3.8,3.78,1.43,.26,2.85,.19,4.23-.32,.83-.31,1.51-.81,1.96-1.59,.97-1.68,.43-3.53-1.41-4.15-1.48-.5-3.07-.64-4.59-1.01-1.13-.27-2.28-.55-3.34-1.01-4.01-1.71-3.84-6.8-.88-8.98,2.61-1.93,7.34-2.15,10.05-.38,1.93,1.26,2.8,3.11,2.92,5.46h-2.81c-.03-.08-.08-.17-.1-.25-.28-2.07-1.39-3.36-3.44-3.62-1.15-.14-2.37,.04-3.53,.23-.81,.14-1.46,.69-1.86,1.45-.69,1.32-.34,2.84,1.04,3.38,1.4,.54,2.93,.77,4.41,1.13,1.16,.28,2.35,.46,3.46,.87,3.6,1.31,4.79,5.35,2.56,8.49Zm10.54,2.83h-3.01v-20.86h3.01v20.86Zm21.14-.01h-13.71v-20.86h13.7v2.56h-10.58v6.56h8.69v2.59h-8.68v6.56h10.58v2.6Zm22.67,.01h-3.67c-.4-1.56-.85-3.09-1.19-4.64-.41-1.83-1.53-2.88-3.34-3.02-1.7-.13-3.42-.03-5.21-.03v7.67h-3.1v-20.79c.05-.03,.09-.07,.13-.07,3.53,.06,7.08-.36,10.58,.28,3.63,.67,5.62,3.69,4.83,7.18-.55,2.4-2.3,3.57-4.55,4.14-.35,.09-.69,.17-1.04,.25,0,.08,0,.16,0,.24,.23,.06,.45,.13,.68,.18,.65,.15,1.32,.23,1.94,.44,.84,.27,1.43,.88,1.73,1.7,.75,2.06,1.48,4.13,2.21,6.2,.02,.06,0,.14,0,.27Zm20.68,0c-.19,0-.46-.29-.54-.5-.47-1.3-.93-2.61-1.33-3.93-.14-.46-.36-.57-.81-.56-2.82,.02-5.63,.02-8.45,0-.47,0-.66,.16-.8,.59-.42,1.32-.89,2.62-1.31,3.93-.12,.38-.31,.52-.71,.51-.93-.03-1.86,0-2.94,0,.63-1.72,1.21-3.33,1.79-4.94,1.87-5.13,3.74-10.25,5.58-15.39,.18-.5,.42-.64,.92-.63,1.19,.04,2.39,0,3.58,.03,.22,0,.56,.19,.63,.37,2.48,6.76,4.93,13.52,7.38,20.29,.02,.06,0,.14,0,.26-1,0-2,.03-3-.02Z"/><path d="M126.38,102.18c-.4-1.46-1.46-2.31-2.89-2.4-2.1-.14-4.22-.04-6.37-.04v7.69c1.72,0,3.38,.05,5.04-.02,1.16-.05,2.23-.48,3.12-1.27,1.22-1.08,1.51-2.43,1.09-3.96Z"/></g></g></svg>