<?xml version="1.0" encoding="UTF-8"?><svg id="Layer_2" xmlns="http://www.w3.org/2000/svg" viewBox="0 0 528.88 93.81"><defs><style>.cls-1{fill:#272525;}</style></defs><g id="Layer_1-2"><g><path class="cls-1" d="M42.96,0c10.81,7.45,22.51,13.4,33.93,19.78,4.41,2.46,6.03,5.21,5.88,10.19-.36,11.79-.24,23.6-.04,35.4,.06,3.61-1.07,5.77-4.3,7.54-10.64,5.84-21.13,11.94-31.62,18.02-1.37,.79-3.25,1.02-3.86,2.88h-3c-1.15-1.77-3.14-2.36-4.82-3.33-10.2-5.89-20.39-11.8-30.72-17.46C1.25,71.28-.02,69.19,.04,65.54,.24,53.6,.33,41.64,0,29.71c-.13-4.73,1.31-7.48,5.57-9.81C17.2,13.54,28.52,6.67,39.97,0c1,0,2,0,3,0Zm-2.88,73.51c-.54,3.24,.61,6.18,1.86,9.16v-8.87c.37-15.9,6.54-28.86,19.98-38.82-14.88,6.37-29.18,5.35-43.49-1.2,14.25,9.87,21.93,22.61,21.65,39.74Z"/><path class="cls-1" d="M470.74,24.94c0,14.65,0,29.29,0,43.94-.12,.08-.36,.17-.35,.24,.03,.24,.14,.47,.22,.71-3.22,1.78-5.83,1.09-8.2-1.71-6.98-8.25-14.06-16.41-21.1-24.61-.74-.86-1.24-1.97-3.44-2.49,0,9.45,0,18.64,0,27.84-.31,.47-.62,.95-.93,1.42-1.65,.13-3.29,.23-4.94,.4-2.45,.25-3.13-.94-3.11-3.23,.07-13.63,.02-27.26,.05-40.89,0-1.23-.49-2.99,1.39-3.24,2.43-.33,4.74-.55,6.75,1.87,6.9,8.31,14.06,16.41,21.1,24.6,.85,.99,1.57,2.1,2.34,3.15,.44-.18,.87-.36,1.31-.54,0-7.52,0-15.04,0-22.57,0-7.4,1.14-8.16,8.78-5.83-.1,.1-.31,.26-.29,.3,.1,.23,.27,.43,.42,.64Z"/><path class="cls-1" d="M180.93,70.98c-14.34,.03-25.02-10.35-24.92-24.2,.1-13.72,10.62-23.95,24.66-23.98,14.21-.03,25.12,10.54,24.99,24.21-.12,13.61-10.78,23.94-24.73,23.97Zm15.25-23.88c.07-9.18-6.44-16.1-15.2-16.16-8.67-.06-15.73,6.95-15.86,15.75-.13,8.68,6.93,16.08,15.45,16.18,8.81,.11,15.54-6.69,15.6-15.77Z"/><path class="cls-1" d="M528.79,53c-.98,3.21,1.83,7.67-1.99,11.14-5.19,4.71-11.2,7.03-18.2,6.77-9.69-.35-17.51-4.01-21.98-12.98-4.37-8.77-3.77-17.41,1.91-25.45,7.24-10.23,24.33-12.91,34.5-5.45,1.16,.85,4.18,1.72,1.61,3.94-1.78,1.53-2.64,5.78-6.54,2.91-2.45-1.8-5.21-2.88-8.31-3.04-6.91-.36-13.09,3.26-15.7,9.29-2.77,6.38-1.35,13.59,3.61,18.37,4.89,4.71,12.28,5.61,18.55,2.76,4.97-2.26,3.33-6.43,3.16-9.93-.19-3.71-3.6-1.63-5.54-2.25-2.36-.75-6.4,2.25-6.71-3.17-.2-3.53,.68-5.23,4.65-4.93,4.3,.33,8.66,.23,12.98,.02,2.96-.14,4.35,.69,4.06,3.88-.22,2.47-.04,4.98-.04,8.14Z"/><path class="cls-1" d="M392.88,69.51c-7.16,1.73-12.23,.47-15.95-5.65-2.57-4.22-6.16-7.81-9.3-11.68-1.17-1.44-2.38-3.07-4.52-2.2-1.85,.75-1.02,2.61-1.05,3.97-.1,4.48-.21,8.97,0,13.45,.18,3.82-2.32,3.27-4.62,3.26-2.29,0-4.65,.55-4.61-3.27,.16-13.61,.11-27.23,.02-40.85-.02-2.61,.88-3.52,3.47-3.44,4.82,.15,9.65-.08,14.47,.08,6.57,.22,11.54,3.82,13.33,9.38,1.79,5.53,.17,10.77-5.36,14.76-2.42,1.75-2.09,2.67-.52,4.52,4.81,5.68,9.5,11.46,14.62,17.67Zm-26.25-38.31c-2.66-.42-5.21-.03-4.7,4.81,.34,3.22-.44,6.18,4.69,5.81,6.4-.46,9.24-1.65,9.01-5.39-.31-5.21-4.3-5.08-9-5.23Z"/><path class="cls-1" d="M218.11,47.04c0-6.81,.08-13.62-.04-20.43-.05-2.54,.77-3.58,3.42-3.51,5.32,.15,10.65-.12,15.97,.1,8.91,.37,14.95,6.24,14.92,14.18-.03,8.19-5.82,13.42-15.1,13.67q-9.63,.26-9.63,9.7c0,1.49-.19,3.02,.04,4.48,.69,4.39-.97,5.83-5.44,5.56-3.28-.19-4.3-1.1-4.19-4.34,.22-6.47,.07-12.95,.07-19.43Zm14.53-15.44c-2-.09-5.81-.85-5.06,4.92,.42,3.23-1.18,7.03,4.81,6.7,7.73-.42,10.61-1.65,10.48-6.06-.12-4.05-2.42-5.51-10.24-5.57Z"/><path class="cls-1" d="M306.94,46.39c0-6.63,.01-13.26,0-19.9,0-1.76,.01-3.43,2.49-3.33,6.78,.28,13.62-.78,20.36,.65,7.43,1.57,11.66,7.28,11.1,14.76-.52,7.06-5.68,11.8-13.15,12.49-3.85,.36-9.12-1.91-11.19,1.26-1.84,2.82-.26,7.73-.67,11.67-.27,2.52,2.32,6.59-3.51,6.81-4.4,.17-5.81-1.06-5.53-5.51,.4-6.27,.1-12.59,.1-18.89Zm14.58-3.39c1.96,0,3.29,.08,4.6-.02,3.22-.23,5.35-1.9,5.61-5.16,.28-3.48-1.57-5.73-5.04-6.16-2.77-.35-5.59-.27-8.39-.32-.84-.01-1.88,.29-1.93,1.19-.16,3.12-.73,6.41,.04,9.32,.69,2.57,3.8,.7,5.09,1.15Z"/><path class="cls-1" d="M278.9,22.69c3.53,.05,6.74,.23,9.47,2.01,1.37,.89,4.76,.92,2.87,3.9-1.38,2.17-2.28,6.19-6.53,3.36-.92-.61-2.17-.9-3.29-1-3.58-.33-7.65-.39-8.94,3.57-1.41,4.31,2.81,5.3,5.69,6.74,3.41,1.69,7.22,2.51,10.32,4.9,8.62,6.66,7.43,18.23-2.4,23.04-6.66,3.26-17.61,1.5-22.98-3.59-1.31-1.24-2.02-2.59-.28-3.61,1.81-1.05,2.17-5.44,5.59-2.88,2.61,1.95,5.39,3.32,8.59,3.59,3.48,.3,6.32-1.07,7.54-4.46,1.3-3.6-1.01-5.62-3.91-7-2.85-1.35-5.82-2.42-8.68-3.75-6.57-3.07-9.81-8.16-8.73-13.53,1.26-6.26,6.58-10.66,13.53-11.16,.83-.06,1.66-.1,2.14-.13Z"/><path class="cls-1" d="M126.32,50.86c0-4.99-.15-9.98,.05-14.96,.13-3.2-.91-4.68-4.24-4.3-1.32,.15-2.67-.09-3.99,.05-3.11,.32-4.39-.63-4.37-4.1,.03-3.49,1.05-4.56,4.54-4.47,8.49,.23,16.99,.19,25.48,.01,3.18-.07,4.46,.76,4.31,4.17-.13,2.93-.44,4.48-4.04,4.46-8.33-.05-8.33,.16-8.33,8.46,0,8.31-.12,16.63,.06,24.94,.08,3.58-.06,5.71-4.84,5.75-5.16,.04-4.69-2.79-4.65-6.04,.05-4.66,.01-9.31,.01-13.97Z"/><path class="cls-1" d="M412.84,52.41c0,4.8-.19,9.61,.06,14.39,.2,3.8-2.22,3.32-4.52,3.27-2.19-.05-4.79,.74-4.69-3.13,.2-7.44,.03-14.89,.23-22.33,.05-1.92,.65-3.95,1.47-5.7,1.24-2.65,3.6-5.17,6.4-4.59,2.2,.46,.9,3.71,.99,5.69,.18,4.13,.06,8.27,.05,12.41Z"/><path class="cls-1" d="M412.72,28.11c1.12,4.58-1.64,4.36-4.76,4.6-4.37,.34-4.08-2.12-4.33-5.16-.34-4.2,1.82-4.3,5.05-4.45,4.24-.2,4.76,1.87,4.04,5Z"/><path class="cls-1" d="M470.74,24.94c-.14-.21-.31-.41-.42-.64-.02-.05,.18-.2,.29-.3,.21,.29,.25,.6,.13,.94Z"/><path class="cls-1" d="M436.93,70.27c.31-.47,.62-.95,.93-1.42,.03,.7-.25,1.19-.93,1.42Z"/><path class="cls-1" d="M470.61,69.82c-.08-.23-.19-.47-.22-.71,0-.06,.23-.16,.35-.24,.12,.34,.08,.65-.13,.94Z"/><path class="cls-1" d="M40.09,73.51c.62,.1,1.24,.19,1.86,.29,0,2.96,0,5.91,0,8.87-1.25-2.98-2.4-5.92-1.86-9.16Z"/></g></g></svg>