<?xml version="1.0" standalone="no"?>
<!DOCTYPE svg PUBLIC "-//W3C//DTD SVG 20010904//EN"
 "http://www.w3.org/TR/2001/REC-SVG-20010904/DTD/svg10.dtd">
<svg version="1.0" xmlns="http://www.w3.org/2000/svg"
 width="512.000000pt" height="512.000000pt" viewBox="0 0 512.000000 512.000000"
 preserveAspectRatio="xMidYMid meet">
<metadata>
Created by potrace 1.14, written by Peter Selinger 2001-2017
</metadata>
<g transform="translate(0.000000,512.000000) scale(0.100000,-0.100000)"
fill="#000000" stroke="none">
<path d="M0 2560 l0 -2560 2560 0 2560 0 0 2560 0 2560 -2560 0 -2560 0 0
-2560z m2867 935 c186 -291 347 -542 356 -556 l18 -26 -245 -162 c-135 -88
-247 -161 -250 -161 -2 0 -53 75 -112 168 -58 92 -108 168 -109 170 -1 1 -124
-189 -274 -422 l-272 -424 -577 -379 c-317 -209 -590 -388 -607 -399 l-30 -19
16 25 c99 158 1743 2719 1744 2718 1 -2 155 -241 342 -533z m1313 -281 c0 -11
-375 -734 -380 -734 -3 0 -40 54 -82 120 l-77 120 -81 -52 c-45 -30 -78 -58
-75 -65 2 -7 194 -309 426 -670 232 -362 442 -688 466 -725 l43 -68 -353 0
-353 0 -367 572 -366 572 37 24 c46 31 68 53 27 27 -16 -10 -448 -288 -959
-617 l-928 -598 -218 2 -217 3 1388 895 c764 492 1389 900 1389 905 0 6 -34
61 -75 122 -41 62 -75 116 -75 121 0 4 181 17 403 29 221 11 408 21 415 22 6
0 12 -2 12 -5z"/>
</g>
</svg>
