<svg height="44" viewBox="0 0 158 44" width="158" xmlns="http://www.w3.org/2000/svg"><path d="m29.7 7.1c-2.1.5-3.2 1.5-3.2 4.7v14.9c0 7.4-3.9 11.8-11.3 11.8-7.8 0-12.2-4.4-12.2-12.7v-14.5c0-2.9-.8-3.7-3-4.2v-.3h14v.3c-2.5.6-3.6 1.5-3.6 4.7v14.1c0 6.2 2.5 9.6 7.4 9.6s7.4-3.3 7.4-9.6v-13.7c0-3.3-1.4-4.5-4.2-5.1v-.3h8.7z" fill="#f2f2f2"/><path d="m47.5 14.4v6.3h-.2c-.5-.3-1.2-.4-2.3-.4-2.9 0-4.7 1.5-4.7 7.4v6.8c0 2 1.1 2.6 3.5 2.9v.3h-12.7v-.3c1.7-.4 2.6-1.1 2.6-2.9v-13.7c0-2.5-.7-3.4-2.6-3.6v-.2l8.8-2.5v9.8h.2c.4-7.1 3-9.9 6.8-9.9z"/><path d="m72 24.6c0 8.4-5.5 13.7-12.9 13.7-2.7 0-5.8-.7-8-1.9v-24.9c0-2-.6-2.8-2.5-3v-.3l9.1-2.7v12.7c1.1-2.4 3.8-3.9 6.7-3.9 4.4.1 7.6 4.1 7.6 10.3zm-7 2.4c0-6.7-1.8-9.7-4.7-9.7-1.2 0-2.3.6-2.7 1.7v16.9c.4.4 1.1 1.1 2.5 1.1 2.9 0 4.9-3.3 4.9-10z"/><path d="m97.5 32.8c-.7 3.6-3.1 5.4-6.2 5.4-2.7 0-4.3-1.5-4.6-3.9v-.3c-.6 2.2-2.8 4.2-6.1 4.2-3.8 0-5.9-2.6-5.9-5.5 0-3.9 3.2-6.5 8.2-7.5l3.6-.7v-.9c0-3.4-1.2-5.7-4.9-5.7-2.9 0-4.9 1.4-5.8 4.8l-.4-.1c.7-5.1 4-8.2 9.2-8.2 5.8 0 8.4 3.7 8.4 9.4v8.8c0 1.5.7 2.3 1.7 2.3.8 0 1.8-.5 2.3-2.1zm-10.9.5v-7.7l-1.7.3c-3.4.7-4.1 2.9-4.1 5 0 2.2 1.1 4 3.2 4 1.3 0 2.1-.5 2.6-1.6z"/><path d="m110.6 37.3v.3h-11.7v-.3c1.7-.4 2.6-1.1 2.6-2.9v-14c0-2.3-.6-3-2.6-3.2v-.2l9.1-2.5v19.9c0 1.8.9 2.5 2.6 2.9zm-9.8-28c0-2 1.6-3.6 3.6-3.6 2.1 0 3.6 1.6 3.6 3.6s-1.5 3.6-3.6 3.6c-2 0-3.6-1.5-3.6-3.6z"/><path d="m137.1 37.3v.3h-11.1v-.3c1.5-.4 2-1 2-2.6v-13.4c0-2.7-1-4-3.1-4-1.7 0-2.7 1-3.3 2.2v15.3c0 1.6.5 2.3 2 2.6v.3h-11.1v-.3c1.7-.4 2.6-1.1 2.6-2.9v-14c0-2.3-.6-3-2.6-3.2v-.3l9.1-2.5v4.3c.8-2.6 3.3-4.4 6.5-4.4 4.2 0 6.4 2.5 6.4 6.7v13.4c0 1.7.9 2.4 2.6 2.8z"/><path d="m157.9 29.6c-1.1 6.3-5.1 8.6-8.9 8.6-5.1 0-9.8-4-9.8-11.5 0-7.2 4-12.4 10-12.4 4.3 0 8.7 2.7 8.6 9.9h-13.5c.4 5.6 3.3 8.7 7.6 8.7 2.4 0 4.4-.7 5.7-3.5zm-13.6-6.9v.5h7.6c0-5.6-1.4-7.6-3.6-7.6-2.5 0-4 2.7-4 7.1z"/></svg>