<?xml version="1.0" encoding="UTF-8"?><svg id="Layer_2" xmlns="http://www.w3.org/2000/svg" viewBox="0 0 891.27 886.57"><defs><style>.cls-1{fill:#f7f7f7;}.cls-2{fill:#f7c39f;}.cls-3{fill:#00dabd;}.cls-4{fill:#efb68f;}.cls-5{fill:#e9f6f6;}.cls-6{fill:#f5fafa;}.cls-7{fill:#ffe3ca;}.cls-8{fill:#fff;}.cls-9{fill:#ffbe55;}.cls-10{fill:#fcd2b1;}.cls-11{fill:#e5ab83;}.cls-12{fill:#cce9ff;}.cls-13{fill:#d3d3d3;}.cls-14{fill:#0e538c;}.cls-15{fill:#34a2f4;}.cls-16{fill:#1989dd;}.cls-17,.cls-18{fill:#1a2959;}.cls-19{fill:#2a94f4;}.cls-18,.cls-20,.cls-21,.cls-22{fill-rule:evenodd;}.cls-20{fill:#0a3c5f;}.cls-21{fill:#cc346f;}.cls-22{fill:#b6e5f5;}</style></defs><g id="Layer_1-2"><path class="cls-5" d="M78.09,221.34C155.33,122.34,270.24,68.47,395.09,66.85c61.53-.81,128.1,13.61,182.42,42.62,59.69,31.89,109,87.8,121,154.4,8.28,45.86,11.36,84,37.12,124.49,20.86,32.78,65.88,59.66,74.2,98.73,9.9,46.52-57.58,95.57-90.44,114.53-161.61,161.64-228.46,165.74-347.54,148.95-64.38-9.08-136.1-117.14-185-162.65-22.59-21-39.83-48.73-46.77-78.94s3.36-67-15.24-94.29c-11.81-17.33-33.38-24.68-49.92-37.56-56.91-44.33-37.83-103.3,3.17-155.79h0Z"/><path class="cls-1" d="M578.12,0h242.46c2.21,0,4.01,1.8,4.01,4.01h0V174.56c0,2.21-1.8,4.01-4.01,4.01h-242.46c-2.21,0-4.01-1.8-4.01-4.01h0V4.01C574.11,1.8,575.9,0,578.12,0h0Z"/><path class="cls-17" d="M755.64,91.9h43.46c.85,0,1.54,.69,1.54,1.54v9.33c0,.85-.69,1.54-1.54,1.54h-43.46c-.85,0-1.54-.69-1.54-1.54v-9.33c0-.85,.69-1.54,1.54-1.54h0Z"/><path class="cls-3" d="M755.64,115.13h43.46c.85,0,1.54,.69,1.54,1.54v9.33c0,.85-.69,1.54-1.54,1.54h-43.46c-.85,0-1.54-.69-1.54-1.54v-9.33c0-.85,.69-1.54,1.54-1.54Z"/><path class="cls-17" d="M755.64,143.22h43.46c.85,0,1.54,.5,1.54,1.12v6.78c0,.62-.69,1.12-1.54,1.12h-43.46c-.85,0-1.54-.5-1.54-1.12v-6.78c0-.62,.69-1.12,1.54-1.12Zm-24.04-79c-12.67-36.02-52.14-54.96-88.16-42.29s-54.96,52.14-42.29,88.16c.6,1.69,1.25,3.36,1.96,5.01,15.28,34.99,56.03,50.98,91.03,35.7,33.29-14.54,49.66-52.36,37.46-86.58Zm-47.64,72.09c-25.69,9.21-54.12-3.09-65-28.12-.45-1.05-.88-2.13-1.28-3.23-9.64-26.96,4.39-56.63,31.35-66.27,26.96-9.64,56.63,4.39,66.27,31.35s-4.39,56.63-31.35,66.27h0s.01,0,.01,0h0Z"/><path class="cls-17" d="M617.02,72.06l-16.52-5.16c8.82-28.13,34.47-47.6,63.93-48.52l.52,17.3c-22.09,.69-41.33,15.29-47.93,36.38Z"/><path class="cls-3" d="M618.97,108.19l-15.88,6.91c-.61-1.42-1.18-2.86-1.71-4.31-5.08-14.14-5.39-29.55-.9-43.89l16.52,5.16c-3.37,10.75-3.13,22.3,.67,32.9,.42,1.1,.85,2.18,1.3,3.23h0Z"/><path class="cls-10" d="M689.58,128.51s-3.35-5.86,2-21.57c5.14-15.19,22.92-13.81,28.57-4.08s3.74,15.78-4.58,26.76-22.54,3.95-25.99-1.11h0Zm41.3,272.23s.88,6.45,1,7.42,9.79-.57,9.79-.57l.78-7.68s-10.36-.08-11.57,.83Z"/><path class="cls-17" d="M731.76,407.34s-3.06,3.89-6,5.58-7.62,2.36-9.38,4.12c-1.26,1.26-4.61,6.71,7.71,6.6s18.26,.77,19.58-1.31-1.91-15.43-1.91-15.43c0,0-3.05,.85-10,.44h0Zm-4.14-169.21s5,15.41,4.31,28.7,2.56,27.83,3.88,41.71c1.47,15.48,7.47,52.11,7.69,60.39s-.93,34.72-.93,34.72l-12,.28s-10.09-64-12.71-70.58-15.58-53.13-16-58.35,25.76-36.87,25.76-36.87h0Z"/><path class="cls-17" d="M677.79,236.57s-7.29,40.77-8.17,48.9-1.45,39.36-1.88,44.45-2.91,66.51-5.23,74.06h13.4s13.76-44.66,13.76-65.79,9.11-45.93,15-59.88,19.34-14.27,23-40.13c-.05-.05-44.98-9.86-49.88-1.61h0Z"/><path class="cls-10" d="M694.44,132.66s1.51,4.4,0,7.54,19.31,1.25,19.31,1.25c0,0-.94-6.49,1.78-11.83s-21.09,3.04-21.09,3.04h0Z"/><path class="cls-19" d="M728.59,241.49s-7.49,7.69-51.47-1.2l.67-3.77,50,1.88,.8,3.09Z"/><path class="cls-10" d="M691.29,141.22s-7.69,.78-9.89,1.2-17-2.65-20-3-16-9.18-16.39-10.23-7.87-19.92-8.29-24-7.26-2-6.67,.84c1.09,5.26,2.5,18,3.28,21.73,.83,4,3.06,13.05,4.32,14.17s12.91,10,24.31,13.74c7,2.34,13.71,5.46,20,9.31h56.21s21.87-31.25,22.34-36-15.27-36-18.41-39.94-7.68,1.29-7.68,1.29c0,0,9.41,27.6,10.66,31.52s-10.99,21.25-14.32,21.3-11.95-1.05-15.77-1.2c-2.69-.21-5.34-.83-7.85-1.84l-15.85,1.11h0Z"/><path class="cls-19" d="M667.09,162.09s6.88,4.58,7.51,12.42c.84,8.26,2.31,16.45,4.4,24.49,1.25,4.24-1.1,35-1.42,37.2s43.51,7.42,50.23,2.2c0,0,1.89-28.72,2.67-36.89,.78-8.17,4.55-27.94,5.81-30.6s16.48-24,17.11-26.85c0,0-7.88-12.55-13.53-12.71,0,0-9,10.52-11.9,11s-20.88-2.78-20.88-2.86-2,2.67-12.37-.47c0,0-12.39,1.4-14.41,1.65-2.44,.32-19.41-2.12-19.41-2.12,0,0-6.81,11.49-5.62,17.3l11.81,6.24h0Z"/><path class="cls-10" d="M637.09,107.68s-1.53-7.27,.32-9.36c1.05-1.19,3.58-4.34,3.81-4.8s3-2,3-2.78-2.66-1.67-5,.47-3.76,2.6-4.68,2.37-2.26-7.92-2.37-9.83-.86-6.94-2-6.59-1.13,2.54-1.13,2.54c0,0-1.39-3.82-2.32-3.06-.93,.76-.81,2.6-.81,2.6,0,0-1.73-2.14-2.19-.58-.29,.98-.29,2.02,0,3,0,0-1.8-1-1.91,1.44s.52,9.54,1.79,12.09,6,9.2,6.6,11.8,6.89,.69,6.89,.69Zm98.83-12.77s-5.23-8.79-7-9.58-4.29-1.23-6.49-2.8-5.1-2.88-4.94-3.4c.16-.52,2.74-.31,5.52,.89s4,.62,4.25,0-1.48-5.07-2.32-6.11-6.8-7-5.8-7.94,4.86,2.41,5.49,3.09c0,0-3.09-6.49-1.88-6.8s3.45,2,3.45,2c0,0-.26-5.54,5.7,3.46,0,0-1.25-3,.58-2s3.61,6.59,4.19,9.42,3.18,11.83,5.41,14-6.16,5.77-6.16,5.77h0Z"/><path class="cls-17" d="M715.53,129.62s-2.75,.25-8.61-1.77-6.3-12.27-7.57-11.06c-2.58,2.48-5,.77-6-.7,0,0,2.86-3.77,1.53-5.58-.98-1.23-2.15-2.3-3.48-3.14-3.64-2.88-2.76-25.31,22.88-10.81,21.24,12.01,1.25,33.06,1.25,33.06h0Z"/><path class="cls-10" d="M694.44,140.2l.66-2.88s12-.24,18.5,.71l.69,3.43s-8.36,3.79-19.85-1.26h0Zm2.95-25.92c1.09-1.81,5.11-3,5.59,2.09,.36,4-7.19,8.3-7.26,4.61-.16-2.35,.42-4.7,1.67-6.7h0Z"/><path class="cls-19" d="M113.42,126.12s-2.5,35,4.35,39.25c4.29,2.63,21.4,11.49,20.89,13.15-.51,1.66-9.66,14.79-9.66,14.79,0,0-32.86-21.63-33.91-28.45-1-6.66,1.62-51.32,6.14-53.38,3.38-1.54,5.16-.27,9.43,2.9,5.97,4.44,2.76,11.74,2.76,11.74h0Zm-3.82,255.08l-1.15,8.15c-.15,1.06-11.36-.63-11.36-.63l-.91-8.44s12.02-.09,13.42,.92Z"/><path class="cls-14" d="M108.57,388.45s3.56,4.27,7,6.14,8.85,2.6,10.89,4.53c1.47,1.39,5.35,7.38-8.95,7.26-14.3-.12-21.2,.85-22.73-1.45s2.22-17,2.22-17c0,0,3.39,1.26,11.57,.52h0Z"/><path class="cls-19" d="M165.85,381.2s-1,7.09-1.16,8.15-11.36-.63-11.36-.63l-.91-8.44s12.02-.09,13.43,.92Z"/><path class="cls-14" d="M164.82,388.45s3.56,4.27,7,6.14,16.12,3.39,18.15,5.32c1.47,1.39,3.92,7-16.2,6.47-14.31-.37-21.2,.85-22.74-1.45-1.54-2.3,2.22-17,2.22-17,0,0,3.19,1.34,11.57,.52Zm-51.19-189.49s-10.56,16.78-9.77,31.95-.94,31.36-2.53,47.21c-1.76,17.66-6.58,54.41-6.84,63.86s.34,45,.34,45l18.32-.14s6.5-71.82,9.65-79.28,16.08-61.41,16.61-67.37-25.78-41.23-25.78-41.23Z"/><path class="cls-14" d="M169.22,201.24s4.17,41.23,5.22,50.51,.34,49.5,.86,55.3-3.51,67.16-4.5,78.85l-20.14-.13s-1.39-49.64-1.39-73.75-6.18-52.19-13.27-68.1-23.32-16.29-27.68-45.81c0,0,55-6.23,60.9,3.13Z"/><path class="cls-10" d="M124.79,57.51s12.58-8.41,21.42,.6c8.84,9.01,13.17,30.17,6.83,34.39-6.34,4.22-17.11,5.34-22.22-.4-5.11-5.74-10.56-14.47-11.9-20.85s2.68-11.05,5.87-13.74Z"/><path class="cls-10" d="M148.76,93.93s-.16,8.84,.81,10.73c.97,1.89-18.36,1.91-18.36,1.91-1.03-6.41-2.55-12.73-4.55-18.91-2.97-8.65,22.1,6.27,22.1,6.27Z"/><path class="cls-17" d="M127.15,87.57s1.8,1.84,6.91-.24,9.91-10.66,11.94-12,1.75-2.6,1.75-2.6l1.86,1.7,2.39-.41s-3.63-5.8-1-9.14-8.18-19.64-23.78-9.68c0,0-12.22,6.68-10,14s6.13,15.37,9.93,18.37h0Z"/><path class="cls-12" d="M150.72,104.43s-.06-3.6-1.69-4-18-1.92-20-1.13v4.27s3.83,2.35,21.69,.86Z"/><path class="cls-10" d="M146.76,70.11c-.59-1.18-4.6-4-4.91,.11s3.94,8.51,5.53,7.67,.88-4.8-.62-7.78Z"/><path class="cls-17" d="M121.15,59.67s-18,4.83,5.27,27.17l-5.27-27.17Z"/><path class="cls-10" d="M281.92,155.34l-18.34-.16c1.58-.93,4.14-2.58,3.58-3.34-.81-1.07-6,1.29-8.11,1.51-1.94,.19-5.18-.06-7.64,.84l-5.8,2.47,5.31,4.91s9.59,1.38,12.4,1.57c4.57,.33,18.53-5.11,18.76-5.94,.42-1.48-.16-1.86-.16-1.86h0Z"/><path class="cls-19" d="M174.66,109.42c-11.67-2-23.94-5-23.94-5l-21.72-.85s-19.93,4.39-27.78,7.94c-.75,.34-.75,17.78-2.79,22.36l6.5,13.73s3.76,27.2,4.54,39.29c.36,5.56-7.75,52.07-7.75,52.07,7.72,2.02,15.58,3.43,23.52,4.2,14.82,1.63,51.85-.6,52.09-2.34s-7.17-65.19-7.5-68.48c-.51-5,1.45-28.34,1.45-28.34,2.8,3.75,18.94,17.82,26.83,22.29,5.6,3.18,19.36,1.24,23.41,.83,8.77-.9,33-2.63,33.47-3.49,.37-.52-1.4-9.35-2.41-9.69s-32.16-1.84-40-1.44c-3.19,.17-13.57-11.42-13.57-11.42,0,0-17.92-28.77-24.35-31.66Z"/><polygon class="cls-3" points="237.09 79.63 294.5 79.63 294.5 130 285.73 121.24 237.09 121.24 237.09 79.63"/><path class="cls-12" d="M239.5,21.63h-57.41v50.37l8.76-8.76h48.65V21.63Z"/><path class="cls-3" d="M28.09,588.36c8.82,16.51,28.35,19.56,40.54,34.25,5,6,9,13,15.66,17.29,10.28,6.69,24.32,5.46,36.06,1.43,8.23-2.83,16.64-7,25.27-5.45,7.79,1.35,13.83,7,21,10.19,20,8.92,43.07-1.88,61.06-10,8.7-3.93,17.3-8.53,23.62-15.55,.38-.42,5.27-7.48,5.28-7.48l-77.26-8.34c-50.44-5.46-100.99-10.25-151.23-16.37v.03h0Z"/><path class="cls-3" d="M28.09,588.36c.88,.1,9.53-8.32,11.7-9.5,5.9-3.27,12.65-4.66,19.36-4,7.44,.59,15.74,1.69,21.65-2.57,5-3.59,6.65-9.94,10.85-14.31,5.91-6.14,15.69-7.32,24.52-7,16.54,.64,32.08,5.41,46.42,13,13.37,7.08,23.3,5.35,38.35,5.08,17.82-.32,27,10,38.58,20.59,5.28,4.81,10.34,8.71,13.8,15.12,.25,.48,3.24,8.24,3.25,8.24l-228.48-24.65Z"/><path class="cls-6" d="M257.67,613.14c-.1,.61-.66,1.03-1.27,.95l-228.48-24.66c-.6-.05-1.05-.59-1-1.19,.09-.61,.66-1.03,1.27-.94l228.48,24.65c.6,.05,1.05,.59,1,1.19h0Z"/><path class="cls-6" d="M198.83,606.79c-.01,.09-.04,.18-.07,.27-.26,.56-.91,.83-1.49,.61-2.21-.82-54.32-20.33-64.53-46.43-.23-.5,0-1.1,.51-1.32,.06-.03,.11-.04,.17-.06,.58-.21,1.23,.07,1.47,.64,9.87,25.21,62.69,45,63.22,45.17,.47,.16,.77,.62,.72,1.12Zm-68.53-7.39c-.07,.46-.41,.83-.87,.92-.37,.08-37.19,8.81-39.67,29.22-.09,.6-.65,1.02-1.26,.94-.6-.05-1.05-.59-1-1.19,2.66-21.89,39.82-30.7,41.4-31.06,.6-.15,1.22,.19,1.39,.79,.03,.12,.03,.25,.01,.38h0Z"/><path class="cls-3" d="M1.51,441.07c15.64-7.21,38.66-16.22,55.32-10.89,8,2.55,15.88,6.77,24.56,7.48,10,.81,17.41-4.49,27-5,38.74-2.13,38.09,43.18,69.61,46.82,7.72,.89,15.74-1.07,23.48-.29,9.93,1,18.46,6.46,24.47,13.25,11,12.43,18,28.55,22.07,43.9,2.76,10.39,8.56,19,8.14,30.22,0,.57-1.45,9.47-1.42,9.49L1.51,441.07Z"/><path class="cls-3" d="M1.52,441.08c4.86,2.67,3.55,19.66,4.42,24.25,2.1,11.06,6.6,22.71,14,31.81,4.92,6.09,12.32,11,21,11.65,3.23,.25,6.66-.07,9.56,1.09,4.3,1.72,6.16,6.2,6.44,10.39,1,15.3,3,27.88,21.65,33.64,14,4.34,35.74,7.17,50.56,6.57,5.27-.21,10.83-.86,15.54,1,4.27,1.7,7.1,5.19,10.28,8.17,18.55,17.38,56.88,25.06,82.38,14.57,.87-.36,17.71-8.06,17.43-8.21L1.52,441.08Z"/><path class="cls-6" d="M255.96,576.7c.41-.53,.3-1.29-.23-1.7-.06-.05-.13-.09-.2-.12L2.34,439.93c-.72-.37-1.6-.17-2.09,.47-.41,.53-.3,1.29,.23,1.7,.06,.05,.13,.09,.2,.12l253.19,135c.73,.35,1.61,.14,2.09-.52h0Z"/><path class="cls-6" d="M190.76,541.95c.4-.55,.29-1.32-.26-1.72-.17-.12-.36-.2-.57-.23-3-.74-73.25-17.84-107.15,.77-.64,.29-.92,1.05-.63,1.68,.02,.05,.05,.1,.08,.15,.49,.63,1.38,.8,2.07,.39,32.73-18,104-.62,104.67-.44,.66,.18,1.37-.06,1.79-.6h0Zm-75.94-40.48c.36-.44,.36-1.07,0-1.51-.34-.34-29.73-34.61-13.73-56.39,.41-.53,.3-1.29-.23-1.7-.06-.05-.13-.09-.2-.12-.72-.37-1.6-.17-2.1,.47-17.08,23.42,12.53,58,13.81,59.46,.56,.57,1.46,.65,2.11,.19,.14-.11,.25-.25,.34-.4h0Zm105.39,53.52c.36-.44,.36-1.07,0-1.51-.3-.34-29.64-34.6-13.72-56.44,.41-.52,.31-1.27-.2-1.67-.07-.05-.15-.1-.23-.14-.72-.37-1.6-.17-2.09,.47-17.08,23.42,12.53,58,13.8,59.46,.56,.57,1.45,.65,2.11,.19,.13-.1,.24-.22,.33-.36h0Z"/><path class="cls-3" d="M832.22,439.36l.18-.16c-8.92-.93-14.73-6.05-24.93-3.09-7.42,2.16-14.25,6.19-21.63,8.46-12.87,4-22.63-3.44-35.74-.38-18.9,4.38-37.44,14.38-48.61,30.71-8.73,12.81-12.91,29.27-25,38.85-7.83,6.22-17.83,8.52-26.68,13-32.7,16.68-35.4,58.19-41.46,90.32-3.15,16.7,4,9.53,12.15,2.54l68.3-58.16c47.82-40.68,95.76-81.23,143.42-122.09h0Z"/><path class="cls-3" d="M832.22,439.36c1.08,7.83-3.18,13.27-4.2,20.53-.85,6,.79,12.49,.05,18.71-1.62,13.71-7.27,26.63-16.24,37.13-5.85,6.75-13.21,12.65-16.3,21.06-2.34,6.36-1.9,13.36-3.52,19.93-2.72,11.12-11.2,20.17-20.92,26-18.17,10.91-39.88,13.68-58.27,24.1-9.36,5.3-17.15,13.12-26.17,19-18.11,11.86-56.92,13.73-75.26,1.6,1.84,1.22,40.27-34.33,43-36.65l90-76.63c29.25-24.9,58.7-49.76,87.83-74.78h0Z"/><path class="cls-6" d="M610.26,628.39c-.49-.63-.39-1.54,.22-2.05l220.85-188.09c.57-.51,1.44-.46,1.95,.11,.02,.02,.03,.04,.05,.06,.46,.62,.37,1.49-.21,2l-220.86,188.15c-.58,.5-1.46,.45-1.96-.13,0,0,0,0,0,0l-.04-.05Z"/><path class="cls-6" d="M667.14,579.95c-.5-.65-.38-1.59,.27-2.09,.08-.06,.17-.12,.26-.16,2.68-1.29,66.08-31.36,99.42-16.69,.72,.37,1,1.25,.64,1.96-.34,.66-1.11,.96-1.81,.71-32.2-14.17-96.46,16.33-97.1,16.64-.58,.28-1.27,.12-1.68-.37h0Zm66.25-56.38c-.38-.47-.43-1.13-.12-1.65,.24-.42,23.91-42.46,6.9-63.58-.49-.63-.4-1.53,.21-2.05,.58-.51,1.45-.45,1.96,.12h0s.04,.05,.04,.05c18.25,22.66-5.64,65.08-6.67,66.88-.37,.68-1.23,.94-1.91,.57l-.03-.02c-.15-.08-.28-.19-.38-.32h0Z"/><path class="cls-3" d="M889.69,547.27c-15.16-10.26-37.75-23.6-55.94-20.18-8.7,1.64-17.61,5.13-26.76,4.63-10.55-.59-17.44-7.52-27.31-9.51-40-8.08-46.44,42-79.86,41.38-8.18-.15-16.23-3.5-24.42-3.78-10.5-.37-20.24,4.4-27.57,11-13.4,12.09-23.22,28.85-29.86,45.18-4.5,11.06-11.88,19.67-13.21,32.15-.06,.63,0,10.66,0,10.67l284.93-111.54Z"/><path class="cls-3" d="M889.69,547.28c-5.49,2.22-6.78,21.17-8.4,26.1-3.92,11.9-10.43,24.09-19.52,33-6.08,6-14.56,10.32-23.67,9.77-3.4-.2-6.92-1.07-10.13-.21-4.74,1.26-7.38,5.93-8.33,10.52-3.46,16.72-7.46,30.32-27.81,33.92-15.32,2.71-38.37,2.63-53.72-.21-5.46-1-11.15-2.55-16.35-1.18-4.71,1.25-8.21,4.68-12,7.5-22,16.44-63.19,19.25-88.12,3.92-.85-.53-17.2-11.5-16.88-11.63l284.93-111.5h0Z"/><path class="cls-6" d="M603.34,659.38c-.36-.67-.1-1.51,.57-1.87,.05-.03,.11-.05,.17-.07l284.92-111.55c.81-.3,1.72,.06,2.11,.83,.36,.67,.1,1.51-.57,1.87-.05,.03-.11,.05-.16,.07l-284.93,111.55c-.81,.29-1.71-.07-2.11-.83Z"/><path class="cls-6" d="M676.72,630.65c-.06-.12-.1-.24-.13-.37-.16-.75,.32-1.48,1.07-1.63,.06-.01,.12-.02,.18-.03,3.22-.37,79.12-8.87,111.53,16.66,.65,.46,.81,1.37,.35,2.02-.02,.03-.04,.05-.06,.08-.59,.62-1.56,.68-2.21,.13-31.3-24.65-108.24-16-109-15.93-.71,.08-1.4-.29-1.73-.93Zm85.46-33.46c-.29-.55-.18-1.23,.28-1.65,.37-.34,36.3-33.81,23.11-60.26-.36-.67-.1-1.51,.57-1.87,.05-.03,.11-.05,.17-.07,.81-.29,1.71,.07,2.11,.83,14.14,28.36-22.12,62.15-23.68,63.57-.66,.55-1.63,.51-2.23-.1-.14-.13-.25-.28-.33-.45Zm-118.19,43.51c-.29-.55-.18-1.23,.28-1.65,.37-.34,36.3-33.81,23.11-60.26-.36-.67-.1-1.51,.57-1.87,.05-.03,.11-.05,.17-.07,.81-.29,1.71,.07,2.11,.83,14.14,28.36-22.12,62.15-23.68,63.57-.66,.55-1.63,.51-2.23-.1-.14-.13-.25-.28-.33-.45Z"/><path class="cls-1" d="M165.09,217.57H702.09v366H165.09V217.57Z"/><path class="cls-13" d="M179.27,254.37v2.6s504.37-.07,504.37-.07l-.02-2.6-504.35,.07Zm.2,46.69l504.52-.09-.02-2.6-504.51,.09v2.6Zm.21,44.11l504.67-.1-.02-2.6-504.66,.1v2.6Zm.2,44.14l504.83-.11-.02-2.61-504.82,.11v2.61Zm.21,44.16l504.98-.12-.03-2.61-504.96,.13v2.6Zm.2,44.2l505.13-.14-.02-2.61-505.12,.14v2.61Zm.21,44.22l505.28-.16-.02-2.61-505.27,.16v2.61Z"/><path class="cls-22" d="M180.38,506.79l73.87-64.28c7.82-6.82,20.57-6.82,28.47,0l18.37,15.85c7.9,6.81,20.65,6.81,28.47,0,7.83-6.81,20.57-6.82,28.47,0l27,23.25c7.91,6.81,20.65,6.81,28.48,0l80.64-70.27c7.81-6.81,20.55-6.81,28.45,0l38.36,33c7.91,6.81,20.65,6.8,28.46,0l13.94-12.15c7.8-6.81,20.54-6.82,28.45,0l53.59,46.12,.7,89.06H180.65l-.27-60.58h0Z"/><path class="cls-17" d="M513.91,360.83h-78.21c-9.95,0-18.04-8.01-18.13-17.95-.05-9.86,7.9-17.89,17.76-17.94h78.34c9.94,0,18.04,8,18.14,17.94,.06,9.85-7.88,17.89-17.73,17.95h-.17Zm152.18-43.32h-78.18c-9.93,0-18.02-8.01-18.12-17.94-.06-9.84,7.87-17.87,17.71-17.93h78.33c9.94-.01,18.04,7.99,18.15,17.93,.08,9.83-7.83,17.86-17.66,17.94h-.23Zm-293.48,87.5h-78.24c-9.95,.02-18.05-8-18.13-17.95-.07-9.88,7.89-17.93,17.76-18h78.4c9.97-.01,18.07,8.03,18.14,18,.04,9.88-7.93,17.91-17.81,17.95h-.12Z"/><ellipse class="cls-1" cx="438.59" cy="867.07" rx="282" ry="19.5"/><path class="cls-17" d="M306.09,718.92c2.92,6.16,6.9,13.1,12.68,14.83,4,1.19,15.26-6.38,17.51-9.42s-4.73-149.67-9.77-158.6c-6.77-12-60.14,4.56-58.3,25.34,2.35,26.56,9.91,54.81,18.89,81.14,5.43,15.92,11.77,31.51,18.99,46.71Z"/><path class="cls-14" d="M210.54,855.03c5.92,.86,11.95,.37,17.66-1.41,.3-6.88,.61-13.76,.92-20.64,.11-.85,0-1.72-.33-2.52-.73-1.02-1.87-1.65-3.12-1.72-4.69-.84-11.92-1.1-12.68,4.87-.9,7.13-1.63,14.28-2.45,21.42h0Zm126.11,0c5.8,.88,11.73,.4,17.32-1.41-1.27-6.88-2.54-13.76-3.82-20.64-.1-.9-.41-1.76-.9-2.52-.92-.99-2.17-1.61-3.52-1.72-4.88-.84-12.17-1.1-11.56,4.87,.72,7.13,1.66,14.28,2.48,21.42h0Z"/><path class="cls-17" d="M334.7,702.04c-7.62-12.19-26-20.54-33.7,.6-11.77,32.23,25.56,92.52,31.09,131.45h20c.57-3.77-13.16-125.29-17.39-132.05Z"/><path class="cls-20" d="M237.97,601.43c4.87,3.84,11.3,4.42,17.34,4.42,49.69,0,78.44-16.16,71.57-39-7.06-23.45-51.53-19.66-74.76-12.11-5,1.63-12.3,3.21-15.72,7.88-4.96,6.8-10.26,29.5,1.57,38.81Z"/><path class="cls-17" d="M352.09,510.75c3.79,3.17,8.82,6.14,13.4,4.29,2.65-1.23,4.62-3.59,5.34-6.43,.7-2.81,.86-5.72,.46-8.59-2.14-22.6-29.85-75.6-46.91-92.66-6.11-8.8-23.84,33-22.94,39.32s33.05,49.39,50.65,64.07h0Zm-131.43,207.5c1.05,6.16,9,13.77,14.26,15.5,3.64,1.19,17.19-6.38,20.37-9.42s38.75-126.06,36.42-135c-3.13-12-13.25-19.73-24.28-21.51-16-2.6-33.35,3-39.76,23.24-15.48,48.9,3.71,85.43-7.01,127.19h0Z"/><path class="cls-12" d="M439.09,543.57c2.33,2.5,4.84,5.6,4.09,8.93-.64,2.81-3.54,4.65-6.41,5-.87,.09-10.08-3.71-20.05-8.35l10-16c4.34,3.21,8.47,6.69,12.37,10.42Z"/><path class="cls-17" d="M426.71,533.1l-9.82,19.47c-22.89-10.65-58.06-32.5-63.43-42.09-3.89-6.94-.57-13.2,5.46-17,6.54-4.13,46.5,23.09,67.79,39.62h0Zm-165.11,168.94c-3.48-12.16-21.17-21.77-33.91,.6-20.5,36-15.71,89.85-16.84,131.45h20c1.82-3.77,32.69-125.29,30.75-132.05Z"/><path class="cls-14" d="M332.26,415.75c5.06,7.48,3.23,18.16,2,26.82-2.69,18.52-1.91,149.33-1.66,152.25s-1,6.17-4,7.49c-1.82,.65-3.75,.91-5.68,.77-26.09-.17-67.41-.34-93.51-.51-1.72,.14-3.45-.18-5-.94-3.14-2-2.05-6.2-.93-9.45,7.53-21.74,11.25-79,4.42-100.89-6.81-21.72-15.11-48.62-11.35-71.37,9.21-11.24,28-37.34,65.37-37.34,26.17-.01,45.8,26.45,50.34,33.17h0Z"/><path class="cls-14" d="M230.73,406.32c3.56-1.07,28.65,.53,22,18.37-8.31,22.15-24.93,40.18-38.79,59.35-4.26,5.89-8.59,11.85-14.2,16.46-5.61,4.61-12.76,7.81-20,7.22-3.8-.32-9.39-2.1-11.25-5.82-1.5-3,.36-7.92,1-10.9,2.41-10.58,41.45-78.78,61.24-84.68h0Z"/><path class="cls-21" d="M197.63,472.35c-.04,.14-.06,.29-.06,.44l.06-.44Z"/><path class="cls-12" d="M251.09,553.57c.35,3.68-7,7-10.59,7.83-1,.24-6.4-5.11-13.92-10.32l11.51-11.7c5.32,6.69,12.93,13.46,13,14.19Zm52.1-41.77c-4.74-25.1-9.58-50.12-15.24-72.84-5.35-21.48-18.24-36.62-34.48-50.73,13.41-10.47,36.81-11.46,48.3,2.22,14.19,16.88,9.68,47.5,9.05,67.74-.51,16.06-5.16,53.63-7.63,53.61h0Z"/><path class="cls-19" d="M287.23,402.2c-1.88-2.7-4.37-5.56-3.8-8.8,.43-2.17,2.16-3.85,4.35-4.21,7.92-1.12,4.29,7.49,3.16,11.29,7.61,11.41,16.76,35.35,19.79,63.92-.82,17.05-5.17,51.42-7.54,51.4-3.23-17.1-6.51-34.15-10.06-50.47-.68-18.86-2.4-58.08-5.9-63.13h0Z"/><path class="cls-14" d="M168.09,496.5c1-3.4,4.44-5.4,7.76-6.61,5.57-2,12.58-3.41,18.5-2.22,4.08,.83,5.34,4.54,7.67,7.53,5.84,7.48,28.66,34.62,40.09,48.91l-12.51,15.72c-18.47-12.81-52-45.24-57.64-52.58-2.37-3.14-4.87-6.94-3.87-10.75Z"/><path class="cls-18" d="M286.09,315.46c-2.89-2.89-22.79-10.47-29.2,3.9-2.23,5-3.06,13.53-1.89,18.88,1.55,7.1,13.76,33.45,17.66,30.32,3.93-3.21,6.2-8.02,6.16-13.1-.08-5.65-3.05-11.32-1.44-16.74,1-3.27,3.45-5.83,5.85-8.25,1.94-1.95,5.19-4.1,5.69-6.87,.35-3-.69-6-2.83-8.14h0Z"/><path class="cls-18" d="M304.49,324.57c-.34-2.39-1.1-4.85-2.89-6.47-2.86-2.6-7.42-2.19-10.91-.53-1.88,.89-3.81,2.43-3.82,4.51,0,1.75,1.33,3.17,2.64,4.33,3,2.67,7.34,6.62,11.32,7.68,4.91,1.35,4.05-6.67,3.66-9.52Z"/><path class="cls-11" d="M292.41,356.41c-2.56-11.29-11.1-13.93-16.06-11.22-3.18,21.12-6.43,30.51-14.71,42,10.3,6.6,27.87,5.37,31.67,0,.16-1.62,.42-24.95-.9-30.78h0Z"/><path class="cls-4" d="M271.51,329.77c4.79-11.46,20.49-14.24,29.33-4.39,8.1,9,9.06,32.81,6.05,38.7-5.25,10.29-24.1,5.76-28.12,.37-5.89-7.88-11.28-25.03-7.26-34.68h0Z"/><path class="cls-18" d="M303.09,327.65c.34,2.66,.19,5.37,.79,8s2.19,5.22,4.74,6c-1.3-2.06-1.3-4.7-.82-7.09s1.39-4.68,1.76-7.09c1.4-8.94-4.72-17.32-13.66-18.71-2.03-.32-4.11-.25-6.11,.2-2.92,.53-5.5,2.23-7.14,4.7-1.49,2.52-1.33,6.11,.86,8.07,1.94,1.47,4.45,1.96,6.8,1.31,1.92-.44,2.5-1.75,4.08-2.62,4.93-2.73,8.2,3.24,8.7,7.23h0Z"/><path class="cls-4" d="M263.56,350.94c.55,2.83,2.18,5.34,4.55,7,6.72,4.62,9.28-5,6.64-9.8-3.14-5.72-12.66-4.81-11.19,2.8Z"/><path class="cls-18" d="M287.8,321.38c0,2.17-5.83,5.7-7.42,7.18s-3.39,2.83-4.38,4.76c-1.28,2.49-1,5.5-.26,8.21s1.8,5.34,2,8.13-.63,5.9-3,7.4c1-2.58-.08-5.56-1.74-7.8s-3.85-4.05-5.43-6.34c-3.05-4.52-3.47-10.32-1.11-15.24,1.7-3.41,6.34-8.94,9.89-10.28,2.98-1.1,11.56-.93,11.45,3.98h0Zm104.29,543.76c.26-2.86-2.46-5.23-5.25-5.89s-5.72-.16-8.59-.2c-8.36-.2-15.97-4.89-19.9-12.28-.4-1.06-1.09-1.98-2-2.66-1.3-.73-3-.18-4.16,.77s-2,2.25-3,3.31c-1.95,1.9-4.57,2.95-7.29,2.92-2.25,0-4.76-1.75-6.92-.62-1.91,1-2.42,3.64-2.9,5.52-.83,3.24-1.59,6.5-2.38,9.75-.2,.73-.33,1.47-.4,2.22h15.6c.73-1,1.32-4,1.63-5.23,.05,1.26,.55,4.26,1.35,5.23h42.89c.74-.77,1.21-1.77,1.32-2.84h0Zm-156.69,0c.12-2.86-1.08-5.23-2.31-5.89s-3.14-5.46-5.68-12.48c-1.16-3.21-7.64-4.11-10.88,1.42-1.05,1.79-2,3-3.2,2.92-1,0-2.1-1.75-3-.62s-1.07,3.64-1.28,5.52c-.36,3.24-.7,6.5-1,9.75-.08,.72-.16,1.48-.18,2.22h27c.34-.91,.52-1.87,.53-2.84Z"/><path class="cls-12" d="M298.45,398.04l-5-3.64c-1.17-.86-2.49-1.75-3.93-1.6s-2.5,1.3-3.46,2.37l-4.91,5.53c-.69,.95-1.66,1.65-2.78,2-1.47,.29-2.88-.67-4.06-1.59-5.28-4.12-10.27-8.6-14.92-13.42-.83-.5-1.1-1.57-.6-2.4,.11-.18,.25-.35,.42-.48l6.18-7.52c4.58,2.24,9.28,4.43,14.32,5.15,3.94,.65,7.98,.04,11.55-1.74,.58-.31,1.68-1.39,2.35-1s.8,2.46,1,3.14l1.8,7.13,2.04,8.07h0Z"/><path class="cls-17" d="M301.28,529.73l2.11-.04,1.34,71.61-2.11,.04-1.34-71.61Zm-4.46-13.99c-11.88-22.74-27.89-43.07-47.22-59.94l-1-.88,12.36-8.89-10.87-3.61-.13-.57c-4-16.56-5.22-31,1.79-47.67l1.95,.82c-6.71,15.94-5.61,29.87-1.83,45.78l13.74,4.55-13.56,9.76c19.08,16.88,34.9,37.1,46.7,59.67l-1.93,.98h0Zm14.06,.53l-1.87-1c10.27-19.78,16.56-41.39,18.5-63.59l-11-4.26,5.09-.2c2.61-.1,4.66-2.53,5.34-4.88,.78-2.7,.33-5.65-.28-8.43-2.86-13.12-9.18-25.23-18.3-35.08l1.55-1.43c9.37,10.11,15.86,22.54,18.81,36,.67,3.06,1.16,6.33,.25,9.48-.65,2.27-2.12,4.21-4.12,5.46l4.87,1.89-.07,.79c-1.86,22.78-8.24,44.96-18.77,65.25h0Z"/><path class="cls-4" d="M256.35,564.07c.65,3.33,.55,7-1.41,9.8-1.86,2.4-4.61,3.93-7.63,4.25-2.99,.29-6,.08-8.92-.62-2.08-.41-4.27-1-5.75-2.48s-1.82-4.34-.14-5.64c2-1.54,5.24-.08,7.2-1.65s1.08-4.66,1.18-7.18c.15-3.81,4.11-8.39,8.23-7.73,4.55,.75,6.5,7.46,7.24,11.25h0Z"/><path class="cls-7" d="M448.09,565.4c20.59-5.11,9.49-23.61-3.51-23.54-4.3,0-8.86,.6-12.21,3.29-11.22,8.98,6.2,22.31,15.72,20.25h0Z"/><path class="cls-17" d="M285.51,540.43c-2.67,0-4.84-2.16-4.85-4.83,0-2.67,2.16-4.84,4.83-4.85h.01c2.67,0,4.84,2.17,4.83,4.85,0,2.67-2.17,4.83-4.83,4.83Zm0-7.56c-1.51,0-2.73,1.21-2.74,2.72,0,1.51,1.21,2.73,2.72,2.74s2.73-1.21,2.74-2.72v-.02c0-1.5-1.22-2.72-2.72-2.72Zm1.36,34.1c-2.67,0-4.84-2.16-4.85-4.83,0-2.67,2.16-4.84,4.83-4.85h.01c2.67,0,4.84,2.17,4.83,4.85,0,2.67-2.17,4.83-4.83,4.83Zm0-7.56c-1.51,0-2.73,1.21-2.74,2.72,0,1.51,1.21,2.73,2.72,2.74s2.73-1.21,2.74-2.72v-.02c0-1.5-1.22-2.71-2.72-2.72Zm15.22-10.46c-.81,18.45-1,36.74-8.46,53.62,4.14,.15,9.24,2.34,12.74-.39,3.87-3,1.2-10.52,.69-14.53-1.6-12.25-5.59-26.39-4.97-38.7h0Z"/><path class="cls-21" d="M709.09,456.04c.09,.12,.16,.26,.21,.4l-.21-.4Z"/><path class="cls-4" d="M442.49,565.27c-6.87-1.07-12.14-6.65-12.81-13.57,0-5.06,1.35-9.17,14.32-10.19,4.28-.34,8.87-.15,12.44,2.25,11.89,8-4.35,22.75-13.95,21.51Z"/><g><path class="cls-10" d="M505.79,569.24l-6.16-3.54s-13.26,7.51-16.07,9.64c4.34,1.14,5.56,.9,5.56,.9,0,0-2.29,2.59-3.19,5.99,4.93,5.66,17.75,5.49,17.75,5.49l2.11-18.47h0Z"/><path class="cls-10" d="M494.33,594.38s-.68-3.71,3.38-7.67c3.66-3.57-6.76-12.49-9.48-13.19s-5.33,6.21-5.33,6.21c-1.34,9.43,11.43,14.65,11.43,14.65Z"/><path class="cls-14" d="M529.05,349.94l2.08,12.46c1.23,5.52,3.62,10.72,4.96,16.21,2.41,9.83,1.36,20.12,1.46,30.23,.29,28.43,10.56,57.49,31.53,76.69,20.97,19.2,53.28,26.71,79.11,14.83,6.07-2.79,11.98-6.88,14.63-13.01,2.43-5.63,1.74-12.17-.15-18.01-3.77-11.65-12.26-21.68-23.1-27.35-11.24-5.86-25.3-7.58-33.38-17.35-7.52-9.1-7.25-22.2-5.69-33.91,1.56-11.7,3.95-24.02-.45-34.98-4.51-11.22-15.31-18.65-26.35-23.61-6.3-2.83-13.22-5.12-20.03-3.93-11.11,1.93-18.48,12.25-24.63,21.71h0Z"/><path class="cls-16" d="M566.14,461.51s-35.37-20.42-31.96,3.89c3.4,24.31-41.61,103.38-41.61,103.38,0,0,4.77,4.64,12.98,4.19,21.08-27.07,42.49-67.97,60.6-111.46h0Z"/><path class="cls-12" d="M544.39,584.28l-41.2,24.33-33.6-56.9,41.2-24.33,33.6,56.9Z"/><path class="cls-8" d="M540.14,582.43l-36.52,21.57-30.38-51.45,36.52-21.57,30.38,51.45Z"/><path class="cls-14" d="M500.84,532.99l2.88,4.89s0,0,0,0c.58,.99,.25,2.26-.74,2.85l-17.93,10.59s0,0,0,0c-.99,.58-2.26,.25-2.85-.74l-2.88-4.89s0,0,0,0c-.58-.99-.25-2.26,.74-2.85l17.93-10.59c.98-.59,2.26-.26,2.85,.74Z"/><path class="cls-12" d="M511.89,540.23c.42-.25,.97-.11,1.21,.31,.25,.42,.11,.96-.31,1.21l-31.58,18.64c-.42,.25-.96,.11-1.21-.31s-.11-.96,.31-1.21l31.58-18.64h0Zm4.13,5.26c.25,.42,.11,.96-.31,1.21l-31.58,18.64c-.42,.25-.96,.11-1.21-.31s-.11-.96,.31-1.21l31.58-18.64c.42-.25,.97-.11,1.21,.31Zm1.71,4.63c.42-.25,.97-.11,1.21,.31,.25,.42,.11,.96-.31,1.21l-31.58,18.64c-.42,.25-.96,.11-1.21-.31s-.11-.96,.31-1.21l31.58-18.64h0Zm2.92,4.95c.42-.25,.97-.11,1.21,.31,.25,.42,.11,.96-.31,1.21l-31.58,18.64c-.42,.25-.96,.11-1.21-.31s-.11-.96,.31-1.21l31.58-18.64h0Zm4.13,5.25c.25,.42,.11,.96-.31,1.21l-31.58,18.64c-.42,.25-.96,.11-1.21-.31s-.11-.96,.31-1.21l31.58-18.64c.42-.25,.97-.1,1.21,.31Zm1.71,4.64c.42-.25,.97-.11,1.21,.31,.25,.42,.11,.96-.31,1.21l-31.58,18.64c-.42,.25-.96,.11-1.21-.31s-.11-.96,.31-1.21l31.58-18.64h0Zm4.13,5.25c.25,.42,.21,.89-.07,1.06l-21.37,12.62c-.29,.17-.72-.03-.97-.45s-.21-.89,.07-1.06l21.37-12.62c.28-.16,.72,.04,.97,.45Z"/><circle class="cls-9" cx="506.07" cy="594.04" r="5.17"/><path class="cls-9" d="M552.37,836.53h16.97v31.81h-5v-12.86s-10.95,12.86-10.95,12.86h-33.69s13.47-8.41,13.47-8.41c3.44-2.15,6.41-4.98,8.73-8.32l10.47-15.08h0Z"/><path class="cls-2" d="M563.43,677.41c23.7,31.29,5.26,153.57,5.8,158.55s-16.85,0-16.85,0c0,0-14.22-152.86-15.8-158.55,0,0,10.54-12.8,26.86,0Z"/><path class="cls-9" d="M578.03,836.53v31.81h-5v-12.86s-10.95,12.86-10.95,12.86h-33.69s13.47-8.41,13.47-8.41c3.44-2.15,6.41-4.98,8.73-8.32l10.47-15.08h16.97Z"/><path class="cls-10" d="M572.12,677.41c23.7,31.29,5.26,153.57,5.8,158.55s-16.85,0-16.85,0c0,0-14.22-152.86-15.8-158.55,0,0,10.54-12.8,26.86,0Z"/><path class="cls-14" d="M529.04,538.89c-14.41,37.52,4.85,179.72,4.85,179.72l61.3-1.72s-4.84-29.34-10.3-53.25c-4.27-18.71-3.56-38.26,2.42-56.5,13.5-41.12-4.14-54.77-16.35-68.25,0,0-24.04-6.65-41.93,0Z"/><path class="cls-19" d="M547.13,421.01s10.29-6.9,17.98-9.83c44.58,32.77,9.42,96.21,5,105.21s.87,22.5,.87,22.5h-41.92s-10.47-58.91-12.13-65.09c-1.4-5.18,23.01-42.34,30.2-52.79h0Z"/><path class="cls-10" d="M544.93,405.14s11.29-11.77,16.09-12.41c-2.88,6.8,.72,11.93,4.08,19.86-.72,3.36-11.53,12.25-21.37,16.57,3.36-10.81,2.16-16.57,1.2-24.02h0Z"/><path class="cls-7" d="M528.69,356.73c33.08-24.98,43.09,18.49,37.9,32.77-5.2,14.28-18.61,19.91-29.87,21.64-11.26,1.74-12.32-39.85-8.04-54.41h0Z"/><ellipse class="cls-7" cx="570.1" cy="386.8" rx="6.65" ry="4.16" transform="translate(-49.93 687.12) rotate(-60)"/><path class="cls-14" d="M560.52,342.76c-6.49-7.36-38.95-.86-34.16,11.68,4.79,12.55,25.03,26.03,50.56,32.96,13.33-15.18-9.91-37.28-16.4-44.64Z"/><circle class="cls-9" cx="566.68" cy="392.73" r="4.29"/><path class="cls-15" d="M562.39,419.02c-26.79,134.87-105.44,124.33-105.44,124.33,0,0-.3,8.37,0,9.57,94.22,7.78,124.92-107.57,126.12-111.76,1.2-4.19-11.2-24.17-20.68-22.14h0Z"/></g></g></svg>