<?xml version="1.0" encoding="UTF-8"?>
<svg width="158px" height="44px" viewBox="0 0 158 44" version="1.1" xmlns="http://www.w3.org/2000/svg" xmlns:xlink="http://www.w3.org/1999/xlink">
    <!-- Generator: Sketch 61.2 (89653) - https://sketch.com -->
    <title>Group 5</title>
    <desc>Created with Sketch.</desc>
    <g id="Page-1" stroke="none" stroke-width="1" fill="none" fill-rule="evenodd">
        <g id="Artboard" transform="translate(-1218.000000, -186.000000)">
            <g id="Group-5" transform="translate(1218.514284, 186.394526)">
                <path d="M17.4695103,28.2429089 C17.5336934,28.2005911 17.5879434,28.1451932 17.629204,28.0805624 L22.1961371,20.9580896 L25.1034786,16.4223894 C25.3189505,16.0869245 25.8056723,16.0869245 26.0211441,16.4223894 L28.515116,20.31332 C28.6793941,20.5695351 29.0194117,20.6418601 29.2730878,20.4748971 L35.649373,16.2785088 C35.9007568,16.1130847 35.9725808,15.7745421 35.8098308,15.5198658 L26.0211441,0.251598638 C25.8056723,-0.0838662127 25.3189505,-0.0838662127 25.1034786,0.251598638 L11.8290385,20.9580896 L0.044563155,39.3394091 C-0.0494192393,39.4863673 0.122499775,39.6587162 0.268439916,39.5633088 L17.4695103,28.2429089 Z" id="Fill-2" fill="#15244B"></path>
                <path d="M39.6692216,22.8175344 L33.5504329,26.8361878 C33.226461,27.0485463 33.1340068,27.4848045 33.343366,27.8118058 L42.4550737,42.0559819 C42.584204,42.2575686 42.8065526,42.3799055 43.044947,42.3799055 L51.7409927,42.3799055 C52.2972463,42.3799055 52.6326794,41.7605266 52.3316301,41.2896448 L40.6434294,23.0268152 C40.432542,22.6975056 39.9954857,22.603637 39.6692216,22.8175344" id="Fill-4" fill="#15244B"></path>
                <path d="M43.4366931,11.9200048 L38.0980346,12.1931471 C37.6968903,12.2131519 37.4676649,12.6640289 37.6861931,13.0033409 L39.3549536,15.6008852 C39.511591,15.8440203 39.4428234,16.1687133 39.2021367,16.3272128 L0.23764731,41.9694997 C-0.197116775,42.255722 0.00383745079,42.9358847 0.523414916,42.9358847 L5.23781632,42.9358847 C5.33867548,42.9358847 5.43800646,42.9058775 5.52281985,42.8504796 L41.1887565,19.4256462 C41.4302072,19.2663773 41.7549431,19.3356246 41.9123445,19.5802985 L43.4939994,22.0424259 C43.7125276,22.3817378 44.2145311,22.3563471 44.3971473,21.996261 L46.8322846,17.2035762 L49.2666579,12.4116609 C49.4500382,12.0515748 49.1764959,11.6268578 48.7753515,11.6468626 L43.4366931,11.9200048 Z" id="Fill-6" fill="#00EAC3"></path>
                <path d="M61.106835,33.1344635 C61.097666,32.5743295 60.899004,32.1249913 60.5108491,31.7872182 C60.1219301,31.4494451 59.6405568,31.2801738 59.0667294,31.2801738 C58.5448596,31.2801738 58.0993984,31.4471368 57.7288174,31.7802934 C57.3574723,32.1142195 57.1366519,32.5658659 57.0663561,33.1344635 L61.106835,33.1344635 Z M62.6304195,34.3616801 L57.0526026,34.3616801 C57.0969195,34.9487436 57.3131554,35.4203948 57.7020744,35.7758645 C58.0902294,36.1321035 58.5677822,36.3098383 59.1332047,36.3098383 C59.9454265,36.3098383 60.519254,35.9674487 60.8546871,35.2826696 L62.4844794,35.2826696 C62.2636589,35.9582158 61.8640427,36.5121944 61.2856308,36.9430667 C60.7072188,37.3747084 59.9897434,37.590914 59.1332047,37.590914 C58.4348315,37.590914 57.8105744,37.4324145 57.2581413,37.1169545 C56.7064723,36.8014944 56.2732364,36.3560032 55.9599617,35.7827892 C55.6466871,35.2088058 55.4892857,34.5448008 55.4892857,33.788466 C55.4892857,33.0321313 55.6421026,32.3673569 55.9469723,31.7941429 C56.251842,31.2201595 56.6797294,30.777746 57.2313984,30.466133 C57.7838315,30.1552894 58.4172575,29.9998676 59.1332047,29.9998676 C59.8216448,29.9998676 60.4359688,30.1506729 60.9746484,30.4530529 C61.5133279,30.7554329 61.9328103,31.1801499 62.2330955,31.7272038 C62.5333808,32.2742577 62.6831413,32.903639 62.6831413,33.6153477 C62.6831413,33.8907982 62.6655674,34.1400886 62.6304195,34.3616801 L62.6304195,34.3616801 Z" id="Fill-8" fill="#00EAC3"></path>
                <polygon id="Fill-10" fill="#00EAC3" points="67.2937036 33.7483026 69.6516684 37.469962 67.9424114 37.469962 66.3661051 34.9755192 64.8822529 37.469962 63.3059466 37.469962 65.6639114 33.8552513 63.3059466 30.1197424 65.0152036 30.1197424 66.59151 32.6141852 68.0753621 30.1197424 69.6516684 30.1197424"></polygon>
                <path d="M75.8915646,33.1344635 C75.8823955,32.5743295 75.6837336,32.1249913 75.2955786,31.7872182 C74.9066596,31.4494451 74.4252864,31.2801738 73.8514589,31.2801738 C73.3295892,31.2801738 72.8841279,31.4471368 72.513547,31.7802934 C72.1422019,32.1142195 71.9213815,32.5658659 71.8510857,33.1344635 L75.8915646,33.1344635 Z M77.4151491,34.3616801 L71.8373322,34.3616801 C71.8816491,34.9487436 72.097885,35.4203948 72.486804,35.7758645 C72.8749589,36.1321035 73.3525117,36.3098383 73.9179343,36.3098383 C74.7301561,36.3098383 75.3039836,35.9674487 75.6394167,35.2826696 L77.2692089,35.2826696 C77.0483885,35.9582158 76.6487723,36.5121944 76.0703603,36.9430667 C75.4919484,37.3747084 74.774473,37.590914 73.9179343,37.590914 C73.219561,37.590914 72.595304,37.4324145 72.0428709,37.1169545 C71.4912019,36.8014944 71.057966,36.3560032 70.7446913,35.7827892 C70.4314167,35.2088058 70.2740153,34.5448008 70.2740153,33.788466 C70.2740153,33.0321313 70.4268322,32.3673569 70.7317019,31.7941429 C71.0365716,31.2201595 71.4644589,30.777746 72.0161279,30.466133 C72.568561,30.1552894 73.2019871,29.9998676 73.9179343,29.9998676 C74.6063744,29.9998676 75.2206984,30.1506729 75.7593779,30.4530529 C76.2980575,30.7554329 76.7175399,31.1801499 77.0178251,31.7272038 C77.3181103,32.2742577 77.4678709,32.903639 77.4678709,33.6153477 C77.4678709,33.8907982 77.450297,34.1400886 77.4151491,34.3616801 L77.4151491,34.3616801 Z" id="Fill-12" fill="#00EAC3"></path>
                <path d="M78.9053431,31.793989 C79.2102128,31.2200056 79.6319875,30.7775921 80.170667,30.4659791 C80.7093466,30.1551355 81.327491,29.9997137 82.0251001,29.9997137 C82.9083818,29.9997137 83.6396107,30.2105334 84.2180227,30.6329421 C84.7964346,31.0561202 85.1868818,31.658572 85.3901283,32.4410669 L83.760336,32.4410669 C83.6281494,32.0763642 83.416498,31.7916808 83.1246177,31.5870164 C82.8335015,31.3823521 82.466741,31.2800199 82.0251001,31.2800199 C81.4069558,31.2800199 80.9141213,31.5000726 80.5481248,31.9401778 C80.1813642,32.3810525 79.9979839,32.9965843 79.9979839,33.7883122 C79.9979839,34.58004 80.1813642,35.1978801 80.5481248,35.6426018 C80.9141213,36.0873236 81.4069558,36.3096844 82.0251001,36.3096844 C82.8999769,36.3096844 83.4776248,35.9226688 83.760336,35.1486375 L85.3901283,35.1486375 C85.1784769,35.8965087 84.7811529,36.4897275 84.1981565,36.9298328 C83.61516,37.3707075 82.8908079,37.5907601 82.0251001,37.5907601 C81.327491,37.5907601 80.7093466,37.4330301 80.170667,37.1168006 C79.6319875,36.8013405 79.2102128,36.3566188 78.9053431,35.7826353 C78.6004734,35.2086519 78.4484205,34.5446469 78.4484205,33.7883122 C78.4484205,33.0319774 78.6004734,32.3679725 78.9053431,31.793989" id="Fill-14" fill="#00EAC3"></path>
                <path d="M93.5117353,30.1195116 L93.5117353,37.4705006 L92.0011403,37.4705006 L92.0011403,36.6033701 C91.7627459,36.9057501 91.4517635,37.1434993 91.067429,37.3166176 C90.6830945,37.4905053 90.2743093,37.5766798 89.8418375,37.5766798 C89.2672459,37.5766798 88.753017,37.4566511 88.2983867,37.2165937 C87.8437565,36.9765363 87.4854008,36.6210666 87.224848,36.1494153 C86.9650593,35.6785335 86.8344008,35.1091665 86.8344008,34.4420839 L86.8344008,30.1195116 L88.3312424,30.1195116 L88.3312424,34.2151066 C88.3312424,34.8737256 88.4947565,35.3776923 88.8217846,35.7293149 C89.1488128,36.0809374 89.5942741,36.256364 90.1596966,36.256364 C90.7251191,36.256364 91.1728727,36.0809374 91.5044853,35.7293149 C91.836098,35.3776923 92.0011403,34.8737256 92.0011403,34.2151066 L92.0011403,30.1195116 L93.5117353,30.1195116 Z" id="Fill-16" fill="#00EAC3"></path>
                <path d="M97.2605632,31.3604238 L97.2605632,35.4290892 C97.2605632,35.7045397 97.3239822,35.9030487 97.4523484,36.0230774 C97.5807146,36.1431061 97.7992427,36.2031205 98.108697,36.2031205 L99.0355315,36.2031205 L99.0355315,37.4703467 L97.8435596,37.4703467 C97.1635244,37.4703467 96.6424188,37.3103084 96.2802427,36.9902318 C95.9180667,36.6693859 95.7369786,36.1500309 95.7369786,35.4290892 L95.7369786,31.3604238 L94.8758554,31.3604238 L94.8758554,30.1193577 L95.7369786,30.1193577 L95.7369786,28.2919976 L97.2605632,28.2919976 L97.2605632,30.1193577 L99.0355315,30.1193577 L99.0355315,31.3604238 L97.2605632,31.3604238 Z" id="Fill-18" fill="#00EAC3"></path>
                <path d="M100.426318,37.4701158 L101.936913,37.4701158 L101.936913,30.1191269 L100.426318,30.1191269 L100.426318,37.4701158 Z M100.505783,28.8657502 C100.320874,28.6787824 100.22842,28.4479579 100.22842,28.171738 C100.22842,27.8962875 100.320874,27.6646937 100.505783,27.4777259 C100.691455,27.2915275 100.921445,27.1984283 101.194987,27.1984283 C101.460124,27.1984283 101.685529,27.2915275 101.870438,27.4777259 C102.05611,27.6646937 102.148565,27.8962875 102.148565,28.171738 C102.148565,28.4479579 102.05611,28.6787824 101.870438,28.8657502 C101.685529,29.0519486 101.460124,29.1458172 101.194987,29.1458172 C100.921445,29.1458172 100.691455,29.0519486 100.505783,28.8657502 L100.505783,28.8657502 Z" id="Fill-20" fill="#00EAC3"></path>
                <polygon id="Fill-22" fill="#00EAC3" points="106.74629 36.1095597 108.813139 30.1196655 110.416188 30.1196655 107.634156 37.4706544 105.832445 37.4706544 103.063403 30.1196655 104.679442 30.1196655"></polygon>
                <path d="M116.668997,33.1344635 C116.659828,32.5743295 116.461166,32.1249913 116.073011,31.7872182 C115.684092,31.4494451 115.202719,31.2801738 114.628892,31.2801738 C114.107022,31.2801738 113.661561,31.4471368 113.29098,31.7802934 C112.919635,32.1142195 112.698814,32.5658659 112.628518,33.1344635 L116.668997,33.1344635 Z M118.192582,34.3616801 L112.614765,34.3616801 C112.659082,34.9487436 112.875318,35.4203948 113.264237,35.7758645 C113.652392,36.1321035 114.129944,36.3098383 114.695367,36.3098383 C115.507589,36.3098383 116.081416,35.9674487 116.416849,35.2826696 L118.046642,35.2826696 C117.825821,35.9582158 117.426205,36.5121944 116.847793,36.9430667 C116.269381,37.3747084 115.551906,37.590914 114.695367,37.590914 C113.996994,37.590914 113.372737,37.4324145 112.820304,37.1169545 C112.268635,36.8014944 111.835399,36.3560032 111.522124,35.7827892 C111.208849,35.2088058 111.051448,34.5448008 111.051448,33.788466 C111.051448,33.0321313 111.204265,32.3673569 111.509135,31.7941429 C111.814004,31.2201595 112.241892,30.777746 112.793561,30.466133 C113.345994,30.1552894 113.97942,29.9998676 114.695367,29.9998676 C115.383807,29.9998676 115.998131,30.1506729 116.536811,30.4530529 C117.07549,30.7554329 117.494973,31.1801499 117.795258,31.7272038 C118.095543,32.2742577 118.245304,32.903639 118.245304,33.6153477 C118.245304,33.8907982 118.22773,34.1400886 118.192582,34.3616801 L118.192582,34.3616801 Z" id="Fill-23" fill="#00EAC3"></path>
                <path d="M124.279585,37.2767619 C123.824954,37.0682505 123.465071,36.7827976 123.199933,36.4227115 C122.934796,36.0626254 122.79344,35.6602214 122.775866,35.2154997 L124.339183,35.2154997 C124.365926,35.5271127 124.513394,35.7871749 124.783116,35.9956863 C125.052838,36.2049671 125.390564,36.3096075 125.796292,36.3096075 C126.220359,36.3096075 126.54968,36.2272801 126.78349,36.0626254 C127.017299,35.8979706 127.134968,35.6871509 127.134968,35.429397 C127.134968,35.1539465 127.00431,34.9492821 126.743757,34.815404 C126.483204,34.6815258 126.070599,34.535337 125.505176,34.3752987 C124.957328,34.223724 124.511866,34.0775352 124.167264,33.9351934 C123.822662,33.7928517 123.524669,33.5743379 123.273285,33.2811909 C123.021137,32.9880438 122.895064,32.6010282 122.895064,32.1209134 C122.895064,31.7292812 123.009676,31.3715033 123.239666,31.0468103 C123.468891,30.7221173 123.798211,30.4659021 124.226863,30.2797038 C124.65475,30.092736 125.147585,29.9996368 125.703838,29.9996368 C126.533634,29.9996368 127.202972,30.2104564 127.711088,30.6328651 C128.21844,31.0560433 128.490454,31.6315656 128.525602,32.3609708 L127.015771,32.3609708 C126.989028,32.0316612 126.856842,31.7692908 126.618447,31.5738594 C126.380053,31.3776587 126.056845,31.279943 125.651116,31.279943 C125.253028,31.279943 124.948923,31.3561151 124.736507,31.5069204 C124.524856,31.6584951 124.418648,31.8585429 124.418648,32.1070639 C124.418648,32.3032647 124.488944,32.4679194 124.630299,32.6010282 C124.772419,32.734137 124.944338,32.8387774 125.147585,32.91418 C125.350067,32.9903521 125.651116,33.0857595 126.04844,33.2011717 C126.577951,33.3435135 127.013479,33.4881635 127.353497,33.6351217 C127.693514,33.7820799 127.986923,33.997516 128.234486,34.2814301 C128.481285,34.566883 128.609652,34.9446657 128.618821,35.4163169 C128.618821,35.8341092 128.503444,36.2072753 128.274218,36.5365849 C128.044229,36.865125 127.719493,37.1236484 127.300775,37.3098467 C126.880528,37.4968145 126.388458,37.5906831 125.823035,37.5906831 C125.249208,37.5906831 124.734215,37.4852733 124.279585,37.2767619" id="Fill-24" fill="#00EAC3"></path>
                <path d="M135.408093,32.4676117 C135.201027,32.0944455 134.929012,31.809762 134.593579,31.6135612 C134.257382,31.4181299 133.89597,31.3204142 133.507051,31.3204142 C133.118132,31.3204142 132.755956,31.4158216 132.420523,31.6066365 C132.08509,31.7982208 131.813076,32.0790572 131.606009,32.4476069 C131.398178,32.816926 131.294262,33.254723 131.294262,33.7617674 C131.294262,34.2688117 131.398178,34.7135335 131.606009,35.0959326 C131.813076,35.4783318 132.087382,35.76994 132.4274,35.9692184 C132.767417,36.1700357 133.127301,36.2692902 133.507051,36.2692902 C133.89597,36.2692902 134.257382,36.1715745 134.593579,35.9761431 C134.929012,35.7807118 135.201027,35.4937201 135.408093,35.1159374 C135.61516,34.7381547 135.71984,34.2949718 135.71984,33.7879275 C135.71984,33.2816525 135.61516,32.8407778 135.408093,32.4676117 M130.201622,31.800529 C130.506491,31.2319315 130.921389,30.7887486 131.447079,30.4732885 C131.972005,30.1578285 132.553474,29.999329 133.189192,29.999329 C133.763019,29.999329 134.264259,30.112433 134.69291,30.3394103 C135.121562,30.5663877 135.463108,30.8487629 135.71984,31.186536 L135.71984,30.1193577 L137.24266,30.1193577 L137.24266,37.4703467 L135.71984,37.4703467 L135.71984,36.3762388 C135.463108,36.7232449 135.114685,37.0125449 134.673044,37.2433693 C134.230639,37.4749632 133.727872,37.5903754 133.162449,37.5903754 C132.535136,37.5903754 131.961308,37.4280289 131.440203,37.1033358 C130.919097,36.7794122 130.506491,36.3254575 130.201622,35.742241 C129.896752,35.1605635 129.744699,34.5004056 129.744699,33.7617674 C129.744699,33.0238986 129.896752,32.369896 130.201622,31.800529" id="Fill-25" fill="#00EAC3"></path>
                <polygon id="Fill-26" fill="#00EAC3" points="139.23035 37.4701158 140.740945 37.4701158 140.740945 27.5977546 139.23035 27.5977546"></polygon>
                <path d="M147.841582,33.1344635 C147.832413,32.5743295 147.633751,32.1249913 147.245596,31.7872182 C146.856677,31.4494451 146.375304,31.2801738 145.801477,31.2801738 C145.279607,31.2801738 144.834146,31.4471368 144.463565,31.7802934 C144.092219,32.1142195 143.871399,32.5658659 143.801103,33.1344635 L147.841582,33.1344635 Z M149.365167,34.3616801 L143.78735,34.3616801 C143.831667,34.9487436 144.047903,35.4203948 144.436822,35.7758645 C144.824977,36.1321035 145.302529,36.3098383 145.867952,36.3098383 C146.680174,36.3098383 147.254001,35.9674487 147.589434,35.2826696 L149.219227,35.2826696 C148.998406,35.9582158 148.59879,36.5121944 148.020378,36.9430667 C147.441966,37.3747084 146.724491,37.590914 145.867952,37.590914 C145.169579,37.590914 144.545322,37.4324145 143.992889,37.1169545 C143.441219,36.8014944 143.007984,36.3560032 142.694709,35.7827892 C142.381434,35.2088058 142.224033,34.5448008 142.224033,33.788466 C142.224033,33.0321313 142.37685,32.3673569 142.681719,31.7941429 C142.986589,31.2201595 143.414477,30.777746 143.966146,30.466133 C144.518579,30.1552894 145.152005,29.9998676 145.867952,29.9998676 C146.556392,29.9998676 147.170716,30.1506729 147.709396,30.4530529 C148.248075,30.7554329 148.667558,31.1801499 148.967843,31.7272038 C149.268128,32.2742577 149.417889,32.903639 149.417889,33.6153477 C149.417889,33.8907982 149.400315,34.1400886 149.365167,34.3616801 L149.365167,34.3616801 Z" id="Fill-27" fill="#00EAC3"></path>
                <path d="M152.007906,37.2767619 C151.553275,37.0682505 151.193392,36.7827976 150.928254,36.4227115 C150.663117,36.0626254 150.521761,35.6602214 150.504187,35.2154997 L152.067504,35.2154997 C152.094247,35.5271127 152.241716,35.7871749 152.511437,35.9956863 C152.781159,36.2049671 153.118885,36.3096075 153.524614,36.3096075 C153.94868,36.3096075 154.278001,36.2272801 154.511811,36.0626254 C154.745621,35.8979706 154.86329,35.6871509 154.86329,35.429397 C154.86329,35.1539465 154.732631,34.9492821 154.472078,34.815404 C154.211525,34.6815258 153.79892,34.535337 153.233497,34.3752987 C152.685649,34.223724 152.240187,34.0775352 151.895585,33.9351934 C151.550983,33.7928517 151.25299,33.5743379 151.001606,33.2811909 C150.749459,32.9880438 150.623385,32.6010282 150.623385,32.1209134 C150.623385,31.7292812 150.737997,31.3715033 150.967987,31.0468103 C151.197212,30.7221173 151.526533,30.4659021 151.955184,30.2797038 C152.383071,30.092736 152.875906,29.9996368 153.432159,29.9996368 C154.261955,29.9996368 154.931293,30.2104564 155.439409,30.6328651 C155.946761,31.0560433 156.218775,31.6315656 156.253923,32.3609708 L154.744092,32.3609708 C154.717349,32.0316612 154.585163,31.7692908 154.346768,31.5738594 C154.108374,31.3776587 153.785166,31.279943 153.379437,31.279943 C152.981349,31.279943 152.677244,31.3561151 152.464828,31.5069204 C152.253177,31.6584951 152.146969,31.8585429 152.146969,32.1070639 C152.146969,32.3032647 152.217265,32.4679194 152.358621,32.6010282 C152.50074,32.734137 152.672659,32.8387774 152.875906,32.91418 C153.078388,32.9903521 153.379437,33.0857595 153.776761,33.2011717 C154.306272,33.3435135 154.7418,33.4881635 155.081818,33.6351217 C155.421835,33.7820799 155.715244,33.997516 155.962807,34.2814301 C156.209606,34.566883 156.337973,34.9446657 156.347142,35.4163169 C156.347142,35.8341092 156.231765,36.2072753 156.00254,36.5365849 C155.77255,36.865125 155.447814,37.1236484 155.029096,37.3098467 C154.608849,37.4968145 154.116779,37.5906831 153.551356,37.5906831 C152.977529,37.5906831 152.462536,37.4852733 152.007906,37.2767619" id="Fill-28" fill="#00EAC3"></path>
                <path d="M61.7070998,17.8761217 L66.7561702,17.8761217 L64.3057512,12.1185908 L64.1575188,12.1185908 L61.7070998,17.8761217 Z M62.7959202,7.85680225 L65.840797,7.85680225 L73.3410505,24.1322334 L69.4549167,24.1322334 L67.9695364,20.6929493 L60.4944977,20.6929493 L59.0335681,24.1322334 L55.2964308,24.1322334 L62.7959202,7.85680225 Z" id="Fill-29" fill="#15244B"></path>
                <path d="M79.7223786,10.8721388 L79.7223786,15.1346968 L85.5141392,15.1346968 C86.7519561,15.1346968 87.7666603,14.2375591 87.7666603,12.9903378 C87.7666603,12.4425144 87.5687625,11.9439336 87.1974174,11.569998 C86.6281744,10.9467721 85.909935,10.8721388 85.2665758,10.8721388 L79.7223786,10.8721388 Z M76.1823751,24.1322334 L76.1823751,7.85680225 L85.1427941,7.85680225 C87.4449808,7.85680225 88.9548117,8.52927078 89.9939667,9.62568686 C90.8359878,10.5228245 91.3311146,11.6946432 91.3311146,12.9903378 C91.3311146,15.0846848 90.0436322,16.7050724 88.0638892,17.5768194 L91.850692,24.1322334 L87.7918751,24.1322334 L84.5238857,18.1500334 L79.7223786,18.1500334 L79.7223786,24.1322334 L76.1823751,24.1322334 Z" id="Fill-30" fill="#15244B"></path>
                <path d="M99.0245286,10.8721388 L99.0245286,15.1346968 L104.816289,15.1346968 C106.054106,15.1346968 107.06881,14.2375591 107.06881,12.9903378 C107.06881,12.4425144 106.870912,11.9439336 106.499567,11.569998 C105.930324,10.9467721 105.212085,10.8721388 104.568726,10.8721388 L99.0245286,10.8721388 Z M95.4845251,24.1322334 L95.4845251,7.85680225 L104.444944,7.85680225 C106.747131,7.85680225 108.256962,8.52927078 109.296117,9.62568686 C110.138138,10.5228245 110.633265,11.6946432 110.633265,12.9903378 C110.633265,15.0846848 109.345782,16.7050724 107.366039,17.5768194 L111.152842,24.1322334 L107.094025,24.1322334 L103.826036,18.1500334 L99.0245286,18.1500334 L99.0245286,24.1322334 L95.4845251,24.1322334 Z" id="Fill-31" fill="#15244B"></path>
                <path d="M122.534645,21.565004 C125.628423,21.565004 128.054391,19.0228575 128.054391,15.9567396 C128.054391,12.941403 125.628423,10.448499 122.534645,10.448499 C119.490532,10.448499 117.114229,12.941403 117.114229,15.9567396 C117.114229,19.0228575 119.490532,21.565004 122.534645,21.565004 M122.534645,7.35775981 C127.658596,7.35775981 131.767078,11.2209915 131.767078,15.9567396 C131.767078,20.7925116 127.658596,24.6303526 122.534645,24.6303526 C117.410694,24.6303526 113.400779,20.7925116 113.400779,15.9567396 C113.400779,11.2209915 117.410694,7.35775981 122.534645,7.35775981" id="Fill-32" fill="#15244B"></path>
                <polygon id="Fill-33" fill="#15244B" points="137.282087 7.85641754 140.375865 18.548975 140.524862 18.548975 143.840989 7.85641754 146.440404 7.85641754 149.73208 18.548975 149.881077 18.548975 152.999305 7.85641754 156.711992 7.85641754 151.53914 24.1318487 148.172584 24.1318487 145.128471 14.4610741 144.979474 14.4610741 141.960577 24.1318487 138.59402 24.1318487 133.420404 7.85641754"></polygon>
            </g>
        </g>
    </g>
</svg>