<?xml version="1.0" encoding="utf-8"?>
<!-- Generator: Adobe Illustrator 26.4.1, SVG Export Plug-In . SVG Version: 6.00 Build 0)  -->
<svg version="1.1" id="logo" xmlns="http://www.w3.org/2000/svg" xmlns:xlink="http://www.w3.org/1999/xlink" x="0px" y="0px"
	 viewBox="0 0 158 44" style="enable-background:new 0 0 158 44;" xml:space="preserve">
<g>
	<g>
		<path id="path2" d="M29.7,7.1c-2.1,0.5-3.2,1.5-3.2,4.7v14.9c0,7.4-3.9,11.8-11.3,11.8C7.4,38.5,3,34.1,3,25.8V11.3
			c0-2.9-0.8-3.7-3-4.2V6.8h14v0.3c-2.5,0.6-3.6,1.5-3.6,4.7v14.1c0,6.2,2.5,9.6,7.4,9.6s7.4-3.3,7.4-9.6V12.2
			c0-3.3-1.4-4.5-4.2-5.1V6.8h8.7V7.1z"/>
		<path d="M47.5,14.4v6.3h-0.2c-0.5-0.3-1.2-0.4-2.3-0.4c-2.9,0-4.7,1.5-4.7,7.4v6.8c0,2,1.1,2.6,3.5,2.9v0.3H31.1v-0.3
			c1.7-0.4,2.6-1.1,2.6-2.9V20.8c0-2.5-0.7-3.4-2.6-3.6V17l8.8-2.5v9.8h0.2c0.4-7.1,3-9.9,6.8-9.9H47.5z"/>
		<path d="M72,24.6c0,8.4-5.5,13.7-12.9,13.7c-2.7,0-5.8-0.7-8-1.9V11.5c0-2-0.6-2.8-2.5-3V8.2l9.1-2.7v12.7
			c1.1-2.4,3.8-3.9,6.7-3.9C68.8,14.4,72,18.4,72,24.6z M65,27c0-6.7-1.8-9.7-4.7-9.7c-1.2,0-2.3,0.6-2.7,1.7v16.9
			c0.4,0.4,1.1,1.1,2.5,1.1C63,37,65,33.7,65,27z"/>
		<path d="M97.5,32.8c-0.7,3.6-3.1,5.4-6.2,5.4c-2.7,0-4.3-1.5-4.6-3.9l0-0.3c-0.6,2.2-2.8,4.2-6.1,4.2c-3.8,0-5.9-2.6-5.9-5.5
			c0-3.9,3.2-6.5,8.2-7.5l3.6-0.7v-0.9c0-3.4-1.2-5.7-4.9-5.7c-2.9,0-4.9,1.4-5.8,4.8l-0.4-0.1c0.7-5.1,4-8.2,9.2-8.2
			c5.8,0,8.4,3.7,8.4,9.4v8.8c0,1.5,0.7,2.3,1.7,2.3c0.8,0,1.8-0.5,2.3-2.1H97.5z M86.6,33.3v-7.7l-1.7,0.3c-3.4,0.7-4.1,2.9-4.1,5
			c0,2.2,1.1,4,3.2,4C85.3,34.9,86.1,34.4,86.6,33.3z"/>
		<path d="M110.6,37.3v0.3H98.9v-0.3c1.7-0.4,2.6-1.1,2.6-2.9v-14c0-2.3-0.6-3-2.6-3.2V17l9.1-2.5v19.9
			C108,36.2,108.9,36.9,110.6,37.3z M100.8,9.3c0-2,1.6-3.6,3.6-3.6c2.1,0,3.6,1.6,3.6,3.6s-1.5,3.6-3.6,3.6
			C102.4,12.9,100.8,11.4,100.8,9.3z"/>
		<path d="M137.1,37.3v0.3H126v-0.3c1.5-0.4,2-1,2-2.6V21.3c0-2.7-1-4-3.1-4c-1.7,0-2.7,1-3.3,2.2v15.3c0,1.6,0.5,2.3,2,2.6v0.3
			h-11.1v-0.3c1.7-0.4,2.6-1.1,2.6-2.9v-14c0-2.3-0.6-3-2.6-3.2V17l9.1-2.5v4.3c0.8-2.6,3.3-4.4,6.5-4.4c4.2,0,6.4,2.5,6.4,6.7v13.4
			C134.5,36.2,135.4,36.9,137.1,37.3z"/>
		<path d="M157.9,29.6c-1.1,6.3-5.1,8.6-8.9,8.6c-5.1,0-9.8-4-9.8-11.5c0-7.2,4-12.4,10-12.4c4.3,0,8.7,2.7,8.6,9.9h-13.5
			c0.4,5.6,3.3,8.7,7.6,8.7c2.4,0,4.4-0.7,5.7-3.5L157.9,29.6z M144.3,22.7v0.5h7.6c0-5.6-1.4-7.6-3.6-7.6
			C145.8,15.6,144.3,18.3,144.3,22.7z"/>
	</g>
</g>
</svg>
