<?xml version="1.0" encoding="UTF-8"?>
<svg width="158px" height="34px" viewBox="0 0 158 34" version="1.1" xmlns="http://www.w3.org/2000/svg" xmlns:xlink="http://www.w3.org/1999/xlink">
    <!-- Generator: Sketch 61.2 (89653) - https://sketch.com -->
    <title>logo-light</title>
    <desc>Created with Sketch.</desc>
    <g id="Page-1" stroke="none" stroke-width="1" fill="none" fill-rule="evenodd">
        <g id="logo-light" fill="#FFFFFF" fill-rule="nonzero">
            <path d="M29.7,2 C27.6,2.5 26.5,3.5 26.5,6.7 L26.5,21.6 C26.5,29 22.6,33.4 15.2,33.4 C7.4,33.4 3,29 3,20.7 L3,6.2 C3,3.4 2.2,2.5 0,2 L0,1.7 L14,1.7 L14,2 C11.5,2.6 10.4,3.5 10.4,6.7 L10.4,20.8 C10.4,27 12.9,30.4 17.8,30.4 C22.7,30.4 25.2,27.1 25.2,20.8 L25.2,7.1 C25.2,3.8 23.8,2.6 21,2 L21,1.7 L29.7,1.7 L29.7,2 Z" id="Path"></path>
            <path d="M47.5,9.3 L47.5,15.6 L47.3,15.6 C46.8,15.3 46.1,15.2 45,15.2 C42.1,15.2 40.3,16.7 40.3,22.6 L40.3,29.4 C40.3,31.4 41.4,32 43.8,32.3 L43.8,32.6 L31.1,32.6 L31.1,32.3 C32.8,31.9 33.7,31.2 33.7,29.4 L33.7,15.7 C33.7,13.2 33,12.3 31.1,12.1 L31.1,11.8 L39.9,9.3 L39.9,19.1 L40.1,19.1 C40.5,12 43.1,9.2 46.9,9.2 L47.5,9.2 L47.5,9.3 Z" id="Path"></path>
            <path d="M72,19.5 C72,27.9 66.5,33.2 59.1,33.2 C56.4,33.2 53.3,32.5 51.1,31.3 L51.1,6.4 C51.1,4.4 50.5,3.6 48.6,3.4 L48.6,3.1 L57.7,0.4 L57.7,13.1 C58.8,10.7 61.5,9.2 64.4,9.2 C68.8,9.3 72,13.3 72,19.5 Z M65,21.9 C65,15.2 63.2,12.2 60.3,12.2 C59.1,12.2 58,12.8 57.6,13.9 L57.6,30.8 C58,31.2 58.7,31.9 60.1,31.9 C63,31.9 65,28.6 65,21.9 Z" id="Shape"></path>
            <path d="M97.6,27.7 C96.9,31.3 94.5,33.2 91.4,33.2 C88.7,33.2 87.1,31.7 86.8,29.3 L86.7,28.9 C86.1,31.1 83.9,33.1 80.6,33.1 C76.8,33.1 74.7,30.5 74.7,27.6 C74.7,23.7 77.9,21.1 82.9,20.1 L86.5,19.4 L86.5,18.5 C86.5,15.1 85.3,12.8 81.6,12.8 C78.7,12.8 76.7,14.2 75.8,17.6 L75.4,17.5 C76.1,12.4 79.4,9.3 84.6,9.3 C90.4,9.3 93,13 93,18.7 L93,27.5 C93,29 93.7,29.8 94.7,29.8 C95.5,29.8 96.5,29.3 97,27.7 L97.6,27.7 Z M86.6,28.2 L86.6,20.5 L84.9,20.8 C81.5,21.5 80.8,23.7 80.8,25.8 C80.8,28 81.9,29.8 84,29.8 C85.3,29.8 86.1,29.3 86.6,28.2 Z" id="Shape"></path>
            <path d="M110.6,32.2 L110.6,32.5 L98.9,32.5 L98.9,32.2 C100.6,31.8 101.5,31.1 101.5,29.3 L101.5,15.3 C101.5,13 100.9,12.3 98.9,12.1 L98.9,11.8 L108,9.3 L108,29.3 C108,31.1 108.9,31.8 110.6,32.2 Z M100.8,4.2 C100.8,2.2 102.4,0.6 104.4,0.6 C106.5,0.6 108,2.2 108,4.2 C108,6.2 106.5,7.8 104.4,7.8 C102.4,7.8 100.8,6.3 100.8,4.2 Z" id="Shape"></path>
            <path d="M137.2,32.2 L137.2,32.5 L126.1,32.5 L126.1,32.2 C127.6,31.8 128.1,31.2 128.1,29.6 L128.1,16.2 C128.1,13.5 127.1,12.2 125,12.2 C123.3,12.2 122.3,13.2 121.7,14.4 L121.7,29.7 C121.7,31.3 122.2,32 123.7,32.3 L123.7,32.6 L112.6,32.6 L112.6,32.3 C114.3,31.9 115.2,31.2 115.2,29.4 L115.2,15.4 C115.2,13.1 114.6,12.4 112.6,12.2 L112.6,11.9 L121.7,9.4 L121.7,13.7 C122.5,11.1 125,9.3 128.2,9.3 C132.4,9.3 134.6,11.8 134.6,16 L134.6,29.4 C134.6,31.1 135.4,31.8 137.2,32.2 Z" id="Path"></path>
            <path d="M158,24.5 C156.9,30.8 152.9,33.1 149.1,33.1 C144,33.1 139.3,29.1 139.3,21.6 C139.3,14.4 143.3,9.2 149.3,9.2 C153.6,9.2 158,11.9 157.9,19.1 L144.4,19.1 C144.8,24.7 147.7,27.8 152,27.8 C154.4,27.8 156.4,27.1 157.7,24.3 L158,24.5 Z M144.3,17.6 L144.3,18.1 L151.9,18.1 C151.9,12.5 150.5,10.5 148.3,10.5 C145.9,10.5 144.3,13.2 144.3,17.6 Z" id="Shape"></path>
        </g>
    </g>
</svg>