<?xml version="1.0" encoding="utf-8"?>
<!-- Generator: Adobe Illustrator 26.4.1, SVG Export Plug-In . SVG Version: 6.00 Build 0)  -->
<svg version="1.1" id="Layer_1" xmlns="http://www.w3.org/2000/svg" xmlns:xlink="http://www.w3.org/1999/xlink" x="0px" y="0px"
	 viewBox="0 0 154 36" style="enable-background:new 0 0 154 36;" xml:space="preserve">
<style type="text/css">
	.st0{fill:#E9F6F6;}
	.st1{fill:#1A2959;}
	.st2{fill:#FBFBFB;}
	.st3{fill:#CACFD7;}
	.st4{fill:#FFFFFF;}
	.st5{fill:#06FFD5;}
	.st6{fill:#AADDDD;}
	.st7{fill:#B6E5F5;}
	.st8{fill:#E1E3E7;}
	.st9{fill:#D2EDED;}
	.st10{fill:#FEFEFE;}
	.st11{fill:#FCFCFC;}
	.st12{fill:#FAFAF8;}
	.st13{fill:#FDFDFD;}
	.st14{fill:#FAFAFA;}
	.st15{fill:#CAF0F7;}
	.st16{opacity:0.17;fill:none;stroke:#C2C6D3;stroke-width:30;stroke-miterlimit:10;}
	.st17{fill:#39DBD0;}
	.st18{fill:#4E82F7;}
	.st19{fill:#E1EDFB;}
	.st20{fill:#AAEBEB;}
	.st21{fill:#67D4E4;}
	.st22{fill:#EBEBEB;}
	.st23{fill:#EAEAEA;}
	.st24{fill:#71C0E6;}
	.st25{fill:#F9F9F9;}
	.st26{fill:#F7F4F4;}
	.st27{fill:#E4DAD6;}
	.st28{fill:#DED6D3;}
	.st29{fill:#FBD62E;}
	.st30{fill:#FAD52E;}
	.st31{fill:#5FB8E0;}
	.st32{fill:#5FB7DF;}
	.st33{fill:#C8CDD4;}
	.st34{fill:#449D84;}
	.st35{fill:#9BFFEE;}
	.st36{fill:#C5EAF7;}
	.st37{fill:#EECEB3;}
	.st38{fill:#F7F7F7;}
	.st39{fill:#FCD2B1;}
	.st40{fill:#2A94F4;}
	.st41{fill:#0E538C;}
	.st42{fill:#CCE9FF;}
	.st43{fill:#F5FAFA;}
	.st44{fill:#D3D3D3;}
	.st45{fill-rule:evenodd;clip-rule:evenodd;fill:#B6E5F5;}
	.st46{fill-rule:evenodd;clip-rule:evenodd;fill:#0A3C5F;}
	.st47{fill-rule:evenodd;clip-rule:evenodd;fill:#CC346F;}
	.st48{fill-rule:evenodd;clip-rule:evenodd;fill:#1A2959;}
	.st49{fill:#E5AB83;}
	.st50{fill:#EFB68F;}
	.st51{fill:#FFE3CA;}
	.st52{fill:#1989DD;}
	.st53{fill:#FFBE55;}
	.st54{fill:#F7C39F;}
	.st55{fill:#34A2F4;}
	.st56{fill:#F7F5F5;}
	.st57{fill:#89ACB8;}
	.st58{fill:#00A48E;}
	.st59{fill:#7FCF5F;}
	.st60{fill:url(#SVGID_1_);}
	.st61{fill:url(#SVGID_00000061464916716872516860000008517688986625164961_);}
	.st62{fill:url(#SVGID_00000124128867297570605990000012842710436322689953_);}
	.st63{fill:url(#SVGID_00000150782465575561267690000009663729671898981531_);}
	.st64{fill:url(#SVGID_00000044141285561965682110000007104938377555223940_);}
	.st65{fill:url(#SVGID_00000037683803498831880250000016123383573502961536_);}
	.st66{fill:url(#SVGID_00000055693899682314386990000002599932944333908888_);}
	.st67{fill:url(#SVGID_00000097496570809235784040000016438734763952140191_);}
	.st68{fill:url(#SVGID_00000167354939345193353830000005643141068300564891_);}
	.st69{fill:url(#SVGID_00000145742714868055196610000003792742489929913276_);}
	.st70{fill:url(#SVGID_00000137099112972924373990000016930949554726076558_);}
	.st71{fill:#00BF95;}
	.st72{fill:#004032;}
	.st73{fill:#00FFC6;}
	.st74{fill:#666666;}
	.st75{fill:#606060;}
</style>
<g>
	<g>
		<path class="st75" d="M38.4,5.7v3h-7.8v3.7h6.7v2.7h-6.7v6.6h-3.5V5.7H38.4z"/>
		<path class="st75" d="M39.2,8.6v-3h13.2v3h-4.8v13.1H44V8.6H39.2z"/>
		<path class="st75" d="M59.2,5.7l3.8,11h0l3.6-11h5v16.1h-3.3V10.4h0l-3.9,11.4h-2.7l-3.9-11.3h0v11.3h-3.3V5.7H59.2z"/>
		<path class="st75" d="M82.6,5.7l6,16.1h-3.7l-1.2-3.6h-6l-1.3,3.6h-3.6L79,5.7H82.6z M82.8,15.5l-2-5.9h0l-2.1,5.9H82.8z"/>
	</g>
	<g>
		<path class="st75" d="M28.8,24.1v0.5h-1.2v0.6h1.1v0.4h-1.1v1h-0.6v-2.5H28.8z"/>
		<path class="st75" d="M30.5,24.1c0.1,0,0.2,0,0.3,0.1c0.1,0,0.2,0.1,0.2,0.1c0.1,0.1,0.1,0.1,0.1,0.2c0,0.1,0.1,0.2,0.1,0.3
			c0,0.1,0,0.3-0.1,0.4c-0.1,0.1-0.2,0.2-0.3,0.2v0c0.1,0,0.1,0,0.2,0.1c0,0,0.1,0.1,0.1,0.1c0,0.1,0,0.1,0.1,0.2c0,0.1,0,0.1,0,0.2
			c0,0,0,0.1,0,0.1c0,0.1,0,0.1,0,0.2c0,0.1,0,0.1,0,0.2c0,0.1,0,0.1,0.1,0.1h-0.6c0-0.1,0-0.2-0.1-0.3c0-0.1,0-0.2,0-0.3
			c0-0.1-0.1-0.2-0.1-0.3c-0.1-0.1-0.2-0.1-0.3-0.1h-0.6v1h-0.6v-2.5H30.5z M30.3,25.3c0.1,0,0.2,0,0.3-0.1c0.1-0.1,0.1-0.1,0.1-0.3
			c0-0.1,0-0.2-0.1-0.3c-0.1-0.1-0.2-0.1-0.3-0.1h-0.6v0.7H30.3z"/>
		<path class="st75" d="M32.9,24.1l0.9,2.5h-0.6l-0.2-0.6h-0.9L32,26.7h-0.6l0.9-2.5H32.9z M33,25.7l-0.3-0.9h0l-0.3,0.9H33z"/>
		<path class="st75" d="M34.9,24.1l0.6,1.7h0l0.6-1.7h0.8v2.5h-0.5v-1.8h0l-0.6,1.8h-0.4l-0.6-1.8h0v1.8h-0.5v-2.5H34.9z"/>
		<path class="st75" d="M39.2,24.1v0.5h-1.3v0.5h1.2v0.4h-1.2v0.6h1.4v0.5h-1.9v-2.5H39.2z"/>
		<path class="st75" d="M41.6,26.6c-0.1,0-0.2,0.1-0.4,0.1c-0.1,0-0.2,0-0.3,0c-0.1,0-0.2-0.1-0.3-0.1c-0.1-0.1-0.1-0.1-0.2-0.2
			c0-0.1-0.1-0.2-0.1-0.3c0-0.1,0-0.2,0-0.2c0-0.1,0.1-0.1,0.1-0.2c0.1-0.1,0.1-0.1,0.2-0.2c0.1,0,0.1-0.1,0.2-0.1
			c-0.1-0.1-0.1-0.2-0.2-0.2c0-0.1-0.1-0.2-0.1-0.3c0-0.1,0-0.2,0.1-0.2c0-0.1,0.1-0.1,0.1-0.2c0.1-0.1,0.1-0.1,0.2-0.1s0.2,0,0.2,0
			c0.1,0,0.2,0,0.3,0c0.1,0,0.2,0.1,0.2,0.1c0.1,0.1,0.1,0.1,0.1,0.2c0,0.1,0.1,0.2,0.1,0.3c0,0.1,0,0.3-0.1,0.4
			c-0.1,0.1-0.2,0.2-0.3,0.3l0.3,0.4c0,0,0-0.1,0.1-0.1c0-0.1,0-0.1,0-0.2h0.4c0,0.1,0,0.2-0.1,0.3c0,0.1-0.1,0.2-0.2,0.3l0.5,0.6
			h-0.6l-0.2-0.2C41.8,26.5,41.7,26.6,41.6,26.6z M41.1,25.6c0,0-0.1,0.1-0.1,0.1c0,0-0.1,0.1-0.1,0.1c0,0,0,0.1,0,0.1
			c0,0,0,0.1,0,0.1c0,0,0,0.1,0.1,0.1c0,0,0.1,0.1,0.1,0.1c0,0,0.1,0,0.1,0c0.1,0,0.2,0,0.2-0.1c0.1,0,0.1-0.1,0.2-0.2l-0.4-0.5
			C41.2,25.6,41.2,25.6,41.1,25.6z M41.6,24.5c0,0-0.1-0.1-0.2-0.1c-0.1,0-0.1,0-0.2,0.1c0,0-0.1,0.1-0.1,0.2c0,0.1,0,0.1,0.1,0.2
			c0,0.1,0.1,0.1,0.1,0.2c0.1,0,0.1-0.1,0.2-0.1s0.1-0.1,0.1-0.2C41.6,24.6,41.6,24.6,41.6,24.5z"/>
		<path class="st75" d="M43.7,24.6v-0.5h2.1v0.5H45v2h-0.6v-2H43.7z"/>
		<path class="st75" d="M47.4,24.1c0.1,0,0.2,0,0.3,0.1c0.1,0,0.2,0.1,0.2,0.1c0.1,0.1,0.1,0.1,0.1,0.2c0,0.1,0.1,0.2,0.1,0.3
			c0,0.1,0,0.3-0.1,0.4c-0.1,0.1-0.2,0.2-0.3,0.2v0c0.1,0,0.1,0,0.2,0.1c0,0,0.1,0.1,0.1,0.1c0,0.1,0,0.1,0.1,0.2c0,0.1,0,0.1,0,0.2
			c0,0,0,0.1,0,0.1c0,0.1,0,0.1,0,0.2c0,0.1,0,0.1,0,0.2c0,0.1,0,0.1,0.1,0.1h-0.6c0-0.1,0-0.2-0.1-0.3c0-0.1,0-0.2,0-0.3
			c0-0.1-0.1-0.2-0.1-0.3c-0.1-0.1-0.2-0.1-0.3-0.1h-0.6v1h-0.6v-2.5H47.4z M47.2,25.3c0.1,0,0.2,0,0.3-0.1c0.1-0.1,0.1-0.1,0.1-0.3
			c0-0.1,0-0.2-0.1-0.3c-0.1-0.1-0.2-0.1-0.3-0.1h-0.6v0.7H47.2z"/>
		<path class="st75" d="M50.5,26.5c-0.2,0.2-0.5,0.2-0.8,0.2c-0.3,0-0.6-0.1-0.8-0.2c-0.2-0.2-0.3-0.4-0.3-0.8v-1.6h0.6v1.6
			c0,0.1,0,0.1,0,0.2c0,0.1,0,0.1,0.1,0.2c0,0.1,0.1,0.1,0.2,0.1c0.1,0,0.2,0,0.3,0c0.2,0,0.3,0,0.4-0.1c0.1-0.1,0.1-0.2,0.1-0.4
			v-1.6h0.6v1.6C50.7,26,50.6,26.3,50.5,26.5z"/>
		<path class="st75" d="M51.6,26c0,0.1,0.1,0.1,0.1,0.1c0.1,0,0.1,0.1,0.2,0.1c0.1,0,0.1,0,0.2,0c0,0,0.1,0,0.2,0c0.1,0,0.1,0,0.2,0
			s0.1-0.1,0.1-0.1c0,0,0-0.1,0-0.2c0-0.1,0-0.1-0.1-0.2c0,0-0.1-0.1-0.2-0.1c-0.1,0-0.1-0.1-0.2-0.1c-0.1,0-0.2,0-0.3-0.1
			c-0.1,0-0.2-0.1-0.3-0.1c-0.1,0-0.2-0.1-0.2-0.1c-0.1-0.1-0.1-0.1-0.2-0.2c0-0.1-0.1-0.2-0.1-0.3c0-0.1,0-0.2,0.1-0.3
			c0.1-0.1,0.1-0.2,0.2-0.2c0.1-0.1,0.2-0.1,0.3-0.1c0.1,0,0.2,0,0.3,0c0.1,0,0.3,0,0.4,0c0.1,0,0.2,0.1,0.3,0.1
			c0.1,0.1,0.2,0.1,0.2,0.3s0.1,0.2,0.1,0.4h-0.5c0-0.1,0-0.1,0-0.2c0,0-0.1-0.1-0.1-0.1c0,0-0.1,0-0.2-0.1c-0.1,0-0.1,0-0.2,0
			c0,0-0.1,0-0.1,0c0,0-0.1,0-0.1,0c0,0-0.1,0.1-0.1,0.1c0,0,0,0.1,0,0.1c0,0,0,0.1,0,0.1c0,0,0.1,0.1,0.1,0.1
			c0.1,0,0.1,0.1,0.2,0.1c0.1,0,0.2,0.1,0.4,0.1c0,0,0.1,0,0.2,0.1c0.1,0,0.2,0.1,0.2,0.1c0.1,0.1,0.2,0.1,0.2,0.2
			c0.1,0.1,0.1,0.2,0.1,0.3c0,0.1,0,0.2-0.1,0.3c0,0.1-0.1,0.2-0.2,0.3c-0.1,0.1-0.2,0.1-0.3,0.2s-0.3,0.1-0.5,0.1
			c-0.1,0-0.3,0-0.4-0.1c-0.1,0-0.2-0.1-0.3-0.2c-0.1-0.1-0.2-0.2-0.2-0.3c-0.1-0.1-0.1-0.2-0.1-0.4h0.5C51.6,25.9,51.6,26,51.6,26z
			"/>
		<path class="st75" d="M53.9,26c0,0.1,0.1,0.1,0.1,0.1c0.1,0,0.1,0.1,0.2,0.1c0.1,0,0.1,0,0.2,0c0,0,0.1,0,0.2,0c0.1,0,0.1,0,0.2,0
			c0,0,0.1-0.1,0.1-0.1c0,0,0-0.1,0-0.2c0-0.1,0-0.1-0.1-0.2c0,0-0.1-0.1-0.2-0.1c-0.1,0-0.1-0.1-0.2-0.1c-0.1,0-0.2,0-0.3-0.1
			c-0.1,0-0.2-0.1-0.3-0.1c-0.1,0-0.2-0.1-0.2-0.1c-0.1-0.1-0.1-0.1-0.2-0.2c0-0.1-0.1-0.2-0.1-0.3c0-0.1,0-0.2,0.1-0.3
			c0.1-0.1,0.1-0.2,0.2-0.2c0.1-0.1,0.2-0.1,0.3-0.1c0.1,0,0.2,0,0.3,0c0.1,0,0.3,0,0.4,0c0.1,0,0.2,0.1,0.3,0.1
			c0.1,0.1,0.2,0.1,0.2,0.3s0.1,0.2,0.1,0.4h-0.5c0-0.1,0-0.1,0-0.2c0,0-0.1-0.1-0.1-0.1c0,0-0.1,0-0.2-0.1c-0.1,0-0.1,0-0.2,0
			c0,0-0.1,0-0.1,0c0,0-0.1,0-0.1,0c0,0-0.1,0.1-0.1,0.1c0,0,0,0.1,0,0.1c0,0,0,0.1,0,0.1c0,0,0.1,0.1,0.1,0.1
			c0.1,0,0.1,0.1,0.2,0.1c0.1,0,0.2,0.1,0.4,0.1c0,0,0.1,0,0.2,0.1c0.1,0,0.2,0.1,0.2,0.1c0.1,0.1,0.2,0.1,0.2,0.2
			c0.1,0.1,0.1,0.2,0.1,0.3c0,0.1,0,0.2-0.1,0.3c0,0.1-0.1,0.2-0.2,0.3c-0.1,0.1-0.2,0.1-0.3,0.2s-0.3,0.1-0.5,0.1
			c-0.1,0-0.3,0-0.4-0.1c-0.1,0-0.2-0.1-0.3-0.2c-0.1-0.1-0.2-0.2-0.2-0.3c-0.1-0.1-0.1-0.2-0.1-0.4h0.5C53.9,25.9,53.9,26,53.9,26z
			"/>
		<path class="st75" d="M57.5,24.1l0.6,1.7h0l0.6-1.7h0.8v2.5h-0.5v-1.8h0l-0.6,1.8h-0.4l-0.6-1.8h0v1.8h-0.5v-2.5H57.5z"/>
		<path class="st75" d="M61.2,24.1l0.9,2.5h-0.6l-0.2-0.6h-0.9l-0.2,0.6h-0.6l0.9-2.5H61.2z M61.2,25.7l-0.3-0.9h0l-0.3,0.9H61.2z"
			/>
		<path class="st75" d="M62.9,24.1l1,1.7h0v-1.7h0.5v2.5h-0.6l-1-1.7h0v1.7h-0.5v-2.5H62.9z"/>
		<path class="st75" d="M66.8,26.5c-0.2,0.2-0.5,0.2-0.8,0.2c-0.3,0-0.6-0.1-0.8-0.2c-0.2-0.2-0.3-0.4-0.3-0.8v-1.6h0.6v1.6
			c0,0.1,0,0.1,0,0.2c0,0.1,0,0.1,0.1,0.2c0,0.1,0.1,0.1,0.2,0.1c0.1,0,0.2,0,0.3,0c0.2,0,0.3,0,0.4-0.1c0.1-0.1,0.1-0.2,0.1-0.4
			v-1.6h0.6v1.6C67.1,26,67,26.3,66.8,26.5z"/>
		<path class="st75" d="M69.3,24.1v0.5h-1.2v0.6h1.1v0.4h-1.1v1h-0.6v-2.5H69.3z"/>
		<path class="st75" d="M70.7,24.1l0.9,2.5h-0.6l-0.2-0.6h-0.9l-0.2,0.6h-0.6l0.9-2.5H70.7z M70.7,25.7l-0.3-0.9h0l-0.3,0.9H70.7z"
			/>
		<path class="st75" d="M73.5,24.8c0-0.1-0.1-0.1-0.1-0.1c0,0-0.1-0.1-0.2-0.1s-0.1,0-0.2,0c-0.1,0-0.2,0-0.3,0.1
			c-0.1,0-0.2,0.1-0.2,0.2c-0.1,0.1-0.1,0.2-0.1,0.3c0,0.1,0,0.2,0,0.3c0,0.1,0,0.2,0,0.3c0,0.1,0.1,0.2,0.1,0.3
			c0.1,0.1,0.1,0.1,0.2,0.2c0.1,0,0.2,0.1,0.3,0.1c0.2,0,0.3-0.1,0.4-0.2c0.1-0.1,0.2-0.2,0.2-0.4h0.5c0,0.2-0.1,0.3-0.1,0.4
			c-0.1,0.1-0.1,0.2-0.2,0.3c-0.1,0.1-0.2,0.2-0.3,0.2c-0.1,0-0.3,0.1-0.4,0.1c-0.2,0-0.4,0-0.5-0.1c-0.2-0.1-0.3-0.2-0.4-0.3
			c-0.1-0.1-0.2-0.3-0.2-0.4c-0.1-0.2-0.1-0.3-0.1-0.5c0-0.2,0-0.4,0.1-0.5c0.1-0.2,0.1-0.3,0.2-0.4c0.1-0.1,0.2-0.2,0.4-0.3
			c0.2-0.1,0.3-0.1,0.5-0.1c0.1,0,0.3,0,0.4,0.1c0.1,0,0.2,0.1,0.3,0.2c0.1,0.1,0.2,0.2,0.2,0.3c0.1,0.1,0.1,0.2,0.1,0.4h-0.5
			C73.5,24.9,73.5,24.9,73.5,24.8z"/>
		<path class="st75" d="M74.3,24.6v-0.5h2.1v0.5h-0.8v2H75v-2H74.3z"/>
		<path class="st75" d="M78.4,26.5c-0.2,0.2-0.5,0.2-0.8,0.2c-0.3,0-0.6-0.1-0.8-0.2c-0.2-0.2-0.3-0.4-0.3-0.8v-1.6h0.6v1.6
			c0,0.1,0,0.1,0,0.2c0,0.1,0,0.1,0.1,0.2c0,0.1,0.1,0.1,0.2,0.1c0.1,0,0.2,0,0.3,0c0.2,0,0.3,0,0.4-0.1c0.1-0.1,0.1-0.2,0.1-0.4
			v-1.6h0.6v1.6C78.7,26,78.6,26.3,78.4,26.5z"/>
		<path class="st75" d="M80.6,24.1c0.1,0,0.2,0,0.3,0.1c0.1,0,0.2,0.1,0.2,0.1c0.1,0.1,0.1,0.1,0.1,0.2c0,0.1,0.1,0.2,0.1,0.3
			c0,0.1,0,0.3-0.1,0.4c-0.1,0.1-0.2,0.2-0.3,0.2v0c0.1,0,0.1,0,0.2,0.1c0,0,0.1,0.1,0.1,0.1c0,0.1,0,0.1,0.1,0.2c0,0.1,0,0.1,0,0.2
			c0,0,0,0.1,0,0.1c0,0.1,0,0.1,0,0.2c0,0.1,0,0.1,0,0.2c0,0.1,0,0.1,0.1,0.1h-0.6c0-0.1,0-0.2-0.1-0.3c0-0.1,0-0.2,0-0.3
			c0-0.1-0.1-0.2-0.1-0.3c-0.1-0.1-0.2-0.1-0.3-0.1h-0.6v1h-0.6v-2.5H80.6z M80.4,25.3c0.1,0,0.2,0,0.3-0.1c0.1-0.1,0.1-0.1,0.1-0.3
			c0-0.1,0-0.2-0.1-0.3c-0.1-0.1-0.2-0.1-0.3-0.1h-0.6v0.7H80.4z"/>
		<path class="st75" d="M83.6,24.1v0.5h-1.3v0.5h1.2v0.4h-1.2v0.6h1.4v0.5h-1.9v-2.5H83.6z"/>
		<path class="st75" d="M85.4,24.1c0.1,0,0.2,0,0.3,0.1c0.1,0,0.2,0.1,0.2,0.1c0.1,0.1,0.1,0.1,0.1,0.2c0,0.1,0.1,0.2,0.1,0.3
			c0,0.1,0,0.3-0.1,0.4c-0.1,0.1-0.2,0.2-0.3,0.2v0c0.1,0,0.1,0,0.2,0.1c0,0,0.1,0.1,0.1,0.1c0,0.1,0,0.1,0.1,0.2c0,0.1,0,0.1,0,0.2
			c0,0,0,0.1,0,0.1c0,0.1,0,0.1,0,0.2c0,0.1,0,0.1,0,0.2c0,0.1,0,0.1,0.1,0.1h-0.6c0-0.1,0-0.2-0.1-0.3c0-0.1,0-0.2,0-0.3
			c0-0.1-0.1-0.2-0.1-0.3c-0.1-0.1-0.2-0.1-0.3-0.1h-0.6v1H84v-2.5H85.4z M85.2,25.3c0.1,0,0.2,0,0.3-0.1c0.1-0.1,0.1-0.1,0.1-0.3
			c0-0.1,0-0.2-0.1-0.3c-0.1-0.1-0.2-0.1-0.3-0.1h-0.6v0.7H85.2z"/>
		<path class="st75" d="M87,26c0,0.1,0.1,0.1,0.1,0.1c0.1,0,0.1,0.1,0.2,0.1c0.1,0,0.1,0,0.2,0c0,0,0.1,0,0.2,0c0.1,0,0.1,0,0.2,0
			c0,0,0.1-0.1,0.1-0.1c0,0,0-0.1,0-0.2c0-0.1,0-0.1-0.1-0.2c0,0-0.1-0.1-0.2-0.1c-0.1,0-0.1-0.1-0.2-0.1c-0.1,0-0.2,0-0.3-0.1
			c-0.1,0-0.2-0.1-0.3-0.1c-0.1,0-0.2-0.1-0.2-0.1c-0.1-0.1-0.1-0.1-0.2-0.2c0-0.1-0.1-0.2-0.1-0.3c0-0.1,0-0.2,0.1-0.3
			c0.1-0.1,0.1-0.2,0.2-0.2c0.1-0.1,0.2-0.1,0.3-0.1c0.1,0,0.2,0,0.3,0c0.1,0,0.3,0,0.4,0c0.1,0,0.2,0.1,0.3,0.1
			c0.1,0.1,0.2,0.1,0.2,0.3s0.1,0.2,0.1,0.4h-0.5c0-0.1,0-0.1,0-0.2c0,0-0.1-0.1-0.1-0.1c0,0-0.1,0-0.2-0.1c-0.1,0-0.1,0-0.2,0
			c0,0-0.1,0-0.1,0c0,0-0.1,0-0.1,0c0,0-0.1,0.1-0.1,0.1c0,0,0,0.1,0,0.1c0,0,0,0.1,0,0.1c0,0,0.1,0.1,0.1,0.1
			c0.1,0,0.1,0.1,0.2,0.1c0.1,0,0.2,0.1,0.4,0.1c0,0,0.1,0,0.2,0.1c0.1,0,0.2,0.1,0.2,0.1c0.1,0.1,0.2,0.1,0.2,0.2
			c0.1,0.1,0.1,0.2,0.1,0.3c0,0.1,0,0.2-0.1,0.3c0,0.1-0.1,0.2-0.2,0.3c-0.1,0.1-0.2,0.1-0.3,0.2c-0.1,0-0.3,0.1-0.5,0.1
			c-0.1,0-0.3,0-0.4-0.1c-0.1,0-0.2-0.1-0.3-0.2c-0.1-0.1-0.2-0.2-0.2-0.3c-0.1-0.1-0.1-0.2-0.1-0.4h0.5C86.9,25.9,86.9,26,87,26z"
			/>
		<path class="st75" d="M33.9,28.4l0.9,2.5h-0.6l-0.2-0.6h-0.9l-0.2,0.6h-0.6l0.9-2.5H33.9z M33.9,29.9L33.6,29h0l-0.3,0.9H33.9z"/>
		<path class="st75" d="M35.5,30.3c0,0.1,0.1,0.1,0.1,0.1c0.1,0,0.1,0.1,0.2,0.1c0.1,0,0.1,0,0.2,0c0,0,0.1,0,0.2,0
			c0.1,0,0.1,0,0.2,0s0.1-0.1,0.1-0.1c0,0,0-0.1,0-0.2c0-0.1,0-0.1-0.1-0.2c0,0-0.1-0.1-0.2-0.1c-0.1,0-0.1-0.1-0.2-0.1
			c-0.1,0-0.2,0-0.3-0.1c-0.1,0-0.2-0.1-0.3-0.1c-0.1,0-0.2-0.1-0.2-0.1c-0.1-0.1-0.1-0.1-0.2-0.2c0-0.1-0.1-0.2-0.1-0.3
			c0-0.1,0-0.2,0.1-0.3c0.1-0.1,0.1-0.2,0.2-0.2c0.1-0.1,0.2-0.1,0.3-0.1c0.1,0,0.2,0,0.3,0c0.1,0,0.3,0,0.4,0
			c0.1,0,0.2,0.1,0.3,0.1c0.1,0.1,0.2,0.1,0.2,0.3s0.1,0.2,0.1,0.4h-0.5c0-0.1,0-0.1,0-0.2c0,0-0.1-0.1-0.1-0.1c0,0-0.1,0-0.2-0.1
			c-0.1,0-0.1,0-0.2,0c0,0-0.1,0-0.1,0c0,0-0.1,0-0.1,0c0,0-0.1,0.1-0.1,0.1c0,0,0,0.1,0,0.1c0,0,0,0.1,0,0.1c0,0,0.1,0.1,0.1,0.1
			c0.1,0,0.1,0.1,0.2,0.1c0.1,0,0.2,0.1,0.4,0.1c0,0,0.1,0,0.2,0.1c0.1,0,0.2,0.1,0.2,0.1c0.1,0.1,0.2,0.1,0.2,0.2
			C37,29.9,37,30,37,30.1c0,0.1,0,0.2-0.1,0.3c0,0.1-0.1,0.2-0.2,0.3c-0.1,0.1-0.2,0.1-0.3,0.2s-0.3,0.1-0.5,0.1
			c-0.1,0-0.3,0-0.4-0.1c-0.1,0-0.2-0.1-0.3-0.2c-0.1-0.1-0.2-0.2-0.2-0.3c-0.1-0.1-0.1-0.2-0.1-0.4h0.5
			C35.4,30.1,35.4,30.2,35.5,30.3z"/>
		<path class="st75" d="M37.8,30.3c0,0.1,0.1,0.1,0.1,0.1c0.1,0,0.1,0.1,0.2,0.1c0.1,0,0.1,0,0.2,0c0,0,0.1,0,0.2,0
			c0.1,0,0.1,0,0.2,0s0.1-0.1,0.1-0.1c0,0,0-0.1,0-0.2c0-0.1,0-0.1-0.1-0.2c0,0-0.1-0.1-0.2-0.1c-0.1,0-0.1-0.1-0.2-0.1
			c-0.1,0-0.2,0-0.3-0.1c-0.1,0-0.2-0.1-0.3-0.1c-0.1,0-0.2-0.1-0.2-0.1c-0.1-0.1-0.1-0.1-0.2-0.2c0-0.1-0.1-0.2-0.1-0.3
			c0-0.1,0-0.2,0.1-0.3c0.1-0.1,0.1-0.2,0.2-0.2c0.1-0.1,0.2-0.1,0.3-0.1c0.1,0,0.2,0,0.3,0c0.1,0,0.3,0,0.4,0
			c0.1,0,0.2,0.1,0.3,0.1c0.1,0.1,0.2,0.1,0.2,0.3c0.1,0.1,0.1,0.2,0.1,0.4h-0.5c0-0.1,0-0.1,0-0.2c0,0-0.1-0.1-0.1-0.1
			c0,0-0.1,0-0.2-0.1c-0.1,0-0.1,0-0.2,0c0,0-0.1,0-0.1,0c0,0-0.1,0-0.1,0c0,0-0.1,0.1-0.1,0.1c0,0,0,0.1,0,0.1c0,0,0,0.1,0,0.1
			c0,0,0.1,0.1,0.1,0.1c0.1,0,0.1,0.1,0.2,0.1c0.1,0,0.2,0.1,0.4,0.1c0,0,0.1,0,0.2,0.1c0.1,0,0.2,0.1,0.2,0.1
			c0.1,0.1,0.2,0.1,0.2,0.2c0.1,0.1,0.1,0.2,0.1,0.3c0,0.1,0,0.2-0.1,0.3c0,0.1-0.1,0.2-0.2,0.3c-0.1,0.1-0.2,0.1-0.3,0.2
			c-0.1,0-0.3,0.1-0.5,0.1c-0.1,0-0.3,0-0.4-0.1c-0.1,0-0.2-0.1-0.3-0.2c-0.1-0.1-0.2-0.2-0.2-0.3c-0.1-0.1-0.1-0.2-0.1-0.4h0.5
			C37.7,30.1,37.7,30.2,37.8,30.3z"/>
		<path class="st75" d="M39.6,29.1c0.1-0.2,0.1-0.3,0.2-0.4c0.1-0.1,0.2-0.2,0.4-0.3c0.2-0.1,0.3-0.1,0.5-0.1c0.2,0,0.4,0,0.5,0.1
			c0.2,0.1,0.3,0.2,0.4,0.3c0.1,0.1,0.2,0.3,0.2,0.4c0.1,0.2,0.1,0.3,0.1,0.5c0,0.2,0,0.4-0.1,0.5c-0.1,0.2-0.1,0.3-0.2,0.4
			c-0.1,0.1-0.2,0.2-0.4,0.3c-0.2,0.1-0.3,0.1-0.5,0.1c-0.2,0-0.4,0-0.5-0.1c-0.2-0.1-0.3-0.2-0.4-0.3c-0.1-0.1-0.2-0.3-0.2-0.4
			c-0.1-0.2-0.1-0.3-0.1-0.5C39.5,29.4,39.5,29.3,39.6,29.1z M40.1,29.9c0,0.1,0.1,0.2,0.1,0.3c0.1,0.1,0.1,0.1,0.2,0.2
			c0.1,0,0.2,0.1,0.3,0.1s0.2,0,0.3-0.1c0.1,0,0.2-0.1,0.2-0.2c0.1-0.1,0.1-0.2,0.1-0.3c0-0.1,0-0.2,0-0.3c0-0.1,0-0.2,0-0.3
			c0-0.1-0.1-0.2-0.1-0.3c-0.1-0.1-0.1-0.1-0.2-0.2c-0.1,0-0.2-0.1-0.3-0.1s-0.2,0-0.3,0.1c-0.1,0-0.2,0.1-0.2,0.2
			c-0.1,0.1-0.1,0.2-0.1,0.3c0,0.1,0,0.2,0,0.3C40.1,29.7,40.1,29.8,40.1,29.9z"/>
		<path class="st75" d="M44,29c0-0.1-0.1-0.1-0.1-0.1c0,0-0.1-0.1-0.2-0.1c-0.1,0-0.1,0-0.2,0c-0.1,0-0.2,0-0.3,0.1
			c-0.1,0-0.2,0.1-0.2,0.2c-0.1,0.1-0.1,0.2-0.1,0.3c0,0.1,0,0.2,0,0.3c0,0.1,0,0.2,0,0.3c0,0.1,0.1,0.2,0.1,0.3
			c0.1,0.1,0.1,0.1,0.2,0.2c0.1,0,0.2,0.1,0.3,0.1c0.2,0,0.3-0.1,0.4-0.2c0.1-0.1,0.2-0.2,0.2-0.4h0.5c0,0.2-0.1,0.3-0.1,0.4
			c-0.1,0.1-0.1,0.2-0.2,0.3c-0.1,0.1-0.2,0.2-0.3,0.2c-0.1,0-0.3,0.1-0.4,0.1c-0.2,0-0.4,0-0.5-0.1c-0.2-0.1-0.3-0.2-0.4-0.3
			c-0.1-0.1-0.2-0.3-0.2-0.4c-0.1-0.2-0.1-0.3-0.1-0.5c0-0.2,0-0.4,0.1-0.5c0.1-0.2,0.1-0.3,0.2-0.4c0.1-0.1,0.2-0.2,0.4-0.3
			c0.2-0.1,0.3-0.1,0.5-0.1c0.1,0,0.3,0,0.4,0.1c0.1,0,0.2,0.1,0.3,0.2c0.1,0.1,0.2,0.2,0.2,0.3c0.1,0.1,0.1,0.2,0.1,0.4H44
			C44,29.1,44,29.1,44,29z"/>
		<path class="st75" d="M45.5,28.4v2.5h-0.6v-2.5H45.5z"/>
		<path class="st75" d="M47.2,28.4l0.9,2.5h-0.6l-0.2-0.6h-0.9l-0.2,0.6h-0.6l0.9-2.5H47.2z M47.3,29.9L47,29h0l-0.3,0.9H47.3z"/>
		<path class="st75" d="M47.9,28.8v-0.5h2.1v0.5h-0.8v2h-0.6v-2H47.9z"/>
		<path class="st75" d="M50.8,28.4v2.5h-0.6v-2.5H50.8z"/>
		<path class="st75" d="M51.2,29.1c0.1-0.2,0.1-0.3,0.2-0.4c0.1-0.1,0.2-0.2,0.4-0.3c0.2-0.1,0.3-0.1,0.5-0.1c0.2,0,0.4,0,0.5,0.1
			c0.2,0.1,0.3,0.2,0.4,0.3c0.1,0.1,0.2,0.3,0.2,0.4c0.1,0.2,0.1,0.3,0.1,0.5c0,0.2,0,0.4-0.1,0.5c-0.1,0.2-0.1,0.3-0.2,0.4
			c-0.1,0.1-0.2,0.2-0.4,0.3c-0.2,0.1-0.3,0.1-0.5,0.1c-0.2,0-0.4,0-0.5-0.1c-0.2-0.1-0.3-0.2-0.4-0.3c-0.1-0.1-0.2-0.3-0.2-0.4
			c-0.1-0.2-0.1-0.3-0.1-0.5C51.1,29.4,51.2,29.3,51.2,29.1z M51.7,29.9c0,0.1,0.1,0.2,0.1,0.3c0.1,0.1,0.1,0.1,0.2,0.2
			c0.1,0,0.2,0.1,0.3,0.1s0.2,0,0.3-0.1c0.1,0,0.2-0.1,0.2-0.2C53,30.1,53,30,53,29.9c0-0.1,0-0.2,0-0.3c0-0.1,0-0.2,0-0.3
			c0-0.1-0.1-0.2-0.1-0.3c-0.1-0.1-0.1-0.1-0.2-0.2c-0.1,0-0.2-0.1-0.3-0.1s-0.2,0-0.3,0.1c-0.1,0-0.2,0.1-0.2,0.2
			c-0.1,0.1-0.1,0.2-0.1,0.3c0,0.1,0,0.2,0,0.3C51.7,29.7,51.7,29.8,51.7,29.9z"/>
		<path class="st75" d="M54.5,28.4l1,1.7h0v-1.7h0.5v2.5h-0.6l-1-1.7h0v1.7H54v-2.5H54.5z"/>
		<path class="st75" d="M57.5,29.1c0.1-0.2,0.1-0.3,0.2-0.4c0.1-0.1,0.2-0.2,0.4-0.3c0.2-0.1,0.3-0.1,0.5-0.1c0.2,0,0.4,0,0.5,0.1
			c0.2,0.1,0.3,0.2,0.4,0.3c0.1,0.1,0.2,0.3,0.2,0.4c0.1,0.2,0.1,0.3,0.1,0.5c0,0.2,0,0.4-0.1,0.5c-0.1,0.2-0.1,0.3-0.2,0.4
			c-0.1,0.1-0.2,0.2-0.4,0.3c-0.2,0.1-0.3,0.1-0.5,0.1c-0.2,0-0.4,0-0.5-0.1c-0.2-0.1-0.3-0.2-0.4-0.3c-0.1-0.1-0.2-0.3-0.2-0.4
			c-0.1-0.2-0.1-0.3-0.1-0.5C57.5,29.4,57.5,29.3,57.5,29.1z M58,29.9c0,0.1,0.1,0.2,0.1,0.3c0.1,0.1,0.1,0.1,0.2,0.2
			c0.1,0,0.2,0.1,0.3,0.1s0.2,0,0.3-0.1c0.1,0,0.2-0.1,0.2-0.2c0.1-0.1,0.1-0.2,0.1-0.3c0-0.1,0-0.2,0-0.3c0-0.1,0-0.2,0-0.3
			c0-0.1-0.1-0.2-0.1-0.3c-0.1-0.1-0.1-0.1-0.2-0.2c-0.1,0-0.2-0.1-0.3-0.1s-0.2,0-0.3,0.1c-0.1,0-0.2,0.1-0.2,0.2
			c-0.1,0.1-0.1,0.2-0.1,0.3c0,0.1,0,0.2,0,0.3C58,29.7,58,29.8,58,29.9z"/>
		<path class="st75" d="M62.1,28.4v0.5h-1.2v0.6h1.1v0.4h-1.1v1h-0.6v-2.5H62.1z"/>
		<path class="st75" d="M64.6,28.4l0.9,2.5H65l-0.2-0.6h-0.9l-0.2,0.6h-0.6l0.9-2.5H64.6z M64.6,29.9L64.3,29h0L64,29.9H64.6z"/>
		<path class="st75" d="M67.6,30.7c-0.2,0.2-0.5,0.2-0.8,0.2c-0.3,0-0.6-0.1-0.8-0.2c-0.2-0.2-0.3-0.4-0.3-0.8v-1.6h0.6v1.6
			c0,0.1,0,0.1,0,0.2c0,0.1,0,0.1,0.1,0.2c0,0.1,0.1,0.1,0.2,0.1c0.1,0,0.2,0,0.3,0c0.2,0,0.3,0,0.4-0.1c0.1-0.1,0.1-0.2,0.1-0.4
			v-1.6h0.6v1.6C67.9,30.3,67.8,30.5,67.6,30.7z"/>
		<path class="st75" d="M68.8,30.3c0,0.1,0.1,0.1,0.1,0.1c0.1,0,0.1,0.1,0.2,0.1c0.1,0,0.1,0,0.2,0c0,0,0.1,0,0.2,0
			c0.1,0,0.1,0,0.2,0c0,0,0.1-0.1,0.1-0.1c0,0,0-0.1,0-0.2c0-0.1,0-0.1-0.1-0.2c0,0-0.1-0.1-0.2-0.1c-0.1,0-0.1-0.1-0.2-0.1
			c-0.1,0-0.2,0-0.3-0.1c-0.1,0-0.2-0.1-0.3-0.1c-0.1,0-0.2-0.1-0.2-0.1c-0.1-0.1-0.1-0.1-0.2-0.2c0-0.1-0.1-0.2-0.1-0.3
			c0-0.1,0-0.2,0.1-0.3c0.1-0.1,0.1-0.2,0.2-0.2c0.1-0.1,0.2-0.1,0.3-0.1c0.1,0,0.2,0,0.3,0c0.1,0,0.3,0,0.4,0
			c0.1,0,0.2,0.1,0.3,0.1c0.1,0.1,0.2,0.1,0.2,0.3s0.1,0.2,0.1,0.4h-0.5c0-0.1,0-0.1,0-0.2c0,0-0.1-0.1-0.1-0.1c0,0-0.1,0-0.2-0.1
			c-0.1,0-0.1,0-0.2,0c0,0-0.1,0-0.1,0c0,0-0.1,0-0.1,0c0,0-0.1,0.1-0.1,0.1c0,0,0,0.1,0,0.1c0,0,0,0.1,0,0.1c0,0,0.1,0.1,0.1,0.1
			c0.1,0,0.1,0.1,0.2,0.1c0.1,0,0.2,0.1,0.4,0.1c0,0,0.1,0,0.2,0.1c0.1,0,0.2,0.1,0.2,0.1c0.1,0.1,0.2,0.1,0.2,0.2
			c0.1,0.1,0.1,0.2,0.1,0.3c0,0.1,0,0.2-0.1,0.3c0,0.1-0.1,0.2-0.2,0.3c-0.1,0.1-0.2,0.1-0.3,0.2c-0.1,0-0.3,0.1-0.5,0.1
			c-0.1,0-0.3,0-0.4-0.1c-0.1,0-0.2-0.1-0.3-0.2c-0.1-0.1-0.2-0.2-0.2-0.3c-0.1-0.1-0.1-0.2-0.1-0.4h0.5
			C68.7,30.1,68.8,30.2,68.8,30.3z"/>
		<path class="st75" d="M70.5,28.8v-0.5h2.1v0.5h-0.8v2h-0.6v-2H70.5z"/>
		<path class="st75" d="M74.1,28.4c0.1,0,0.2,0,0.3,0.1c0.1,0,0.2,0.1,0.2,0.1c0.1,0.1,0.1,0.1,0.1,0.2c0,0.1,0.1,0.2,0.1,0.3
			c0,0.1,0,0.3-0.1,0.4c-0.1,0.1-0.2,0.2-0.3,0.2v0c0.1,0,0.1,0,0.2,0.1c0,0,0.1,0.1,0.1,0.1c0,0.1,0,0.1,0.1,0.2c0,0.1,0,0.1,0,0.2
			c0,0,0,0.1,0,0.1c0,0.1,0,0.1,0,0.2c0,0.1,0,0.1,0,0.2c0,0.1,0,0.1,0.1,0.1h-0.6c0-0.1,0-0.2-0.1-0.3c0-0.1,0-0.2,0-0.3
			c0-0.1-0.1-0.2-0.1-0.3c-0.1-0.1-0.2-0.1-0.3-0.1h-0.6v1h-0.6v-2.5H74.1z M74,29.5c0.1,0,0.2,0,0.3-0.1c0.1-0.1,0.1-0.1,0.1-0.3
			c0-0.1,0-0.2-0.1-0.3c-0.1-0.1-0.2-0.1-0.3-0.1h-0.6v0.7H74z"/>
		<path class="st75" d="M76.6,28.4l0.9,2.5h-0.6l-0.2-0.6h-0.9l-0.2,0.6h-0.6l0.9-2.5H76.6z M76.6,29.9L76.3,29h0L76,29.9H76.6z"/>
		<path class="st75" d="M78.3,28.4v2h1.2v0.5h-1.8v-2.5H78.3z"/>
		<path class="st75" d="M80.4,28.4v2.5h-0.6v-2.5H80.4z"/>
		<path class="st75" d="M82.1,28.4l0.9,2.5h-0.6l-0.2-0.6h-0.9l-0.2,0.6h-0.6l0.9-2.5H82.1z M82.1,29.9L81.8,29h0l-0.3,0.9H82.1z"/>
	</g>
	<polygon class="st75" points="118.7,19.1 109.9,27.9 101.1,19.1 	"/>
	<polygon class="st75" points="100.8,17.4 105.3,12.9 109.8,17.4 	"/>
	<polygon class="st75" points="109.9,16 106.3,12.3 109.9,8.7 	"/>
	<polygon class="st75" points="111.3,8.7 115,12.3 111.3,16 	"/>
	<polygon class="st75" points="120.5,16 116.1,11.6 120.5,7.3 	"/>
	<polygon class="st75" points="122.1,7.3 126.5,11.6 122.1,16 	"/>
	<polygon class="st75" points="111.7,17.4 116.2,12.9 120.7,17.4 	"/>
	<polygon class="st75" points="122.6,17.4 127.1,12.9 131.6,17.4 	"/>
	<polygon class="st75" points="123.3,29.3 121.3,31.4 119.2,29.3 	"/>
	<polygon class="st75" points="124,27.7 132.6,19.1 110.8,19.1 119.4,27.7 	"/>
</g>
</svg>
