<?xml version="1.0" encoding="utf-8"?>
<!-- Generator: Adobe Illustrator 26.4.1, SVG Export Plug-In . SVG Version: 6.00 Build 0)  -->
<svg version="1.1" id="Layer_1" xmlns="http://www.w3.org/2000/svg" xmlns:xlink="http://www.w3.org/1999/xlink" x="0px" y="0px"
	 viewBox="0 0 154 36" style="enable-background:new 0 0 154 36;" xml:space="preserve">
<style type="text/css">
	.st0{fill:#E9F6F6;}
	.st1{fill:#1A2959;}
	.st2{fill:#FBFBFB;}
	.st3{fill:#CACFD7;}
	.st4{fill:#FFFFFF;}
	.st5{fill:#06FFD5;}
	.st6{fill:#AADDDD;}
	.st7{fill:#B6E5F5;}
	.st8{fill:#E1E3E7;}
	.st9{fill:#D2EDED;}
	.st10{fill:#FEFEFE;}
	.st11{fill:#FCFCFC;}
	.st12{fill:#FAFAF8;}
	.st13{fill:#FDFDFD;}
	.st14{fill:#FAFAFA;}
	.st15{fill:#CAF0F7;}
	.st16{opacity:0.17;fill:none;stroke:#C2C6D3;stroke-width:30;stroke-miterlimit:10;}
	.st17{fill:#39DBD0;}
	.st18{fill:#4E82F7;}
	.st19{fill:#E1EDFB;}
	.st20{fill:#AAEBEB;}
	.st21{fill:#67D4E4;}
	.st22{fill:#EBEBEB;}
	.st23{fill:#EAEAEA;}
	.st24{fill:#71C0E6;}
	.st25{fill:#F9F9F9;}
	.st26{fill:#F7F4F4;}
	.st27{fill:#E4DAD6;}
	.st28{fill:#DED6D3;}
	.st29{fill:#FBD62E;}
	.st30{fill:#FAD52E;}
	.st31{fill:#5FB8E0;}
	.st32{fill:#5FB7DF;}
	.st33{fill:#C8CDD4;}
	.st34{fill:#449D84;}
	.st35{fill:#9BFFEE;}
	.st36{fill:#C5EAF7;}
	.st37{fill:#EECEB3;}
	.st38{fill:#F7F7F7;}
	.st39{fill:#FCD2B1;}
	.st40{fill:#2A94F4;}
	.st41{fill:#0E538C;}
	.st42{fill:#CCE9FF;}
	.st43{fill:#F5FAFA;}
	.st44{fill:#D3D3D3;}
	.st45{fill-rule:evenodd;clip-rule:evenodd;fill:#B6E5F5;}
	.st46{fill-rule:evenodd;clip-rule:evenodd;fill:#0A3C5F;}
	.st47{fill-rule:evenodd;clip-rule:evenodd;fill:#CC346F;}
	.st48{fill-rule:evenodd;clip-rule:evenodd;fill:#1A2959;}
	.st49{fill:#E5AB83;}
	.st50{fill:#EFB68F;}
	.st51{fill:#FFE3CA;}
	.st52{fill:#1989DD;}
	.st53{fill:#FFBE55;}
	.st54{fill:#F7C39F;}
	.st55{fill:#34A2F4;}
	.st56{fill:#F7F5F5;}
	.st57{fill:#89ACB8;}
	.st58{fill:#00A48E;}
	.st59{fill:#7FCF5F;}
	.st60{fill:url(#SVGID_1_);}
	.st61{fill:url(#SVGID_00000005953324265434495370000004847067816996610972_);}
	.st62{fill:url(#SVGID_00000098939092531092992890000002579266697266474630_);}
	.st63{fill:url(#SVGID_00000104679302865193256770000012208055323082844053_);}
	.st64{fill:url(#SVGID_00000035489472461352620290000013814354927231217028_);}
	.st65{fill:url(#SVGID_00000000221236490888847650000001408822648567025846_);}
	.st66{fill:url(#SVGID_00000109709846639607861440000017522176476110748345_);}
	.st67{fill:url(#SVGID_00000115483730521028045350000002255530276508788127_);}
	.st68{fill:url(#SVGID_00000024713595573847434660000011613343185591457726_);}
	.st69{fill:url(#SVGID_00000065061779712672031920000005528214657130814139_);}
	.st70{fill:url(#SVGID_00000050657526769356353520000011820007650183991968_);}
	.st71{fill:#00BF95;}
	.st72{fill:#004032;}
	.st73{fill:#00FFC6;}
	.st74{fill:#666666;}
	.st75{fill:#606060;}
</style>
<g>
	<path class="st74" d="M23.7,28.6c-1.6,0-3.1-0.6-4.3-1.8l-6.9-7c-0.3-0.3-0.5-0.7-0.5-1.1c0-0.4,0.1-0.8,0.5-1.1s0.7-0.4,1.1-0.4
		c0.4,0,0.8,0.1,1.2,0.4l6.9,7c0.6,0.6,1.2,0.8,2.1,0.8s1.5-0.3,2.1-0.8c0.6-0.6,0.8-1.2,0.8-2.1c0-0.7-0.3-1.4-0.7-1.9
		c-0.3-0.3-2.6-2.6-7-7c-0.3-0.3-0.4-0.7-0.4-1.2c0-0.5,0.1-0.8,0.4-1.2c0.4-0.3,0.7-0.4,1.2-0.4s0.8,0.1,1.1,0.4
		c4.4,4.3,6.7,6.7,7.1,7.1c0.5,0.4,1.2,0.7,1.8,0.7c0.8,0,1.5-0.3,2.1-0.8c0.6-0.5,0.9-1.3,0.9-2.1c0-0.8-0.2-1.5-0.7-2.1l-7-7
		c-0.3-0.3-0.5-0.7-0.5-1.1c0-0.4,0.1-0.8,0.4-1.1s0.7-0.4,1.1-0.4c0.4,0,0.8,0.1,1.1,0.4l7,6.9c1.1,1.2,1.8,2.7,1.8,4.3
		c0,1.6-0.6,3.1-1.8,4.3c-1.1,1.1-2.7,1.8-4.3,1.8c-0.1,0-0.1,0-0.3,0v0.3c0,1.6-0.7,3.1-1.8,4.3C26.9,28,25.4,28.6,23.7,28.6"/>
	<path class="st74" d="M144.5,13.5c0,0.1-0.1,0.3-0.1,0.4c-0.1,0.1-0.1,0.3-0.3,0.4c-0.1,0.1-0.2,0.1-0.4,0.3
		c-0.1,0.1-0.3,0.1-0.4,0.1c-0.1,0-0.3-0.1-0.4-0.1c-0.1-0.1-0.3-0.1-0.4-0.3c-0.1-0.1-0.1-0.2-0.3-0.4c-0.1-0.1-0.1-0.3-0.1-0.4
		c0-0.1,0.1-0.3,0.1-0.4c0.1-0.1,0.1-0.3,0.3-0.4c0.1-0.1,0.2-0.1,0.4-0.3c0.1-0.1,0.3-0.1,0.4-0.1c0.1,0,0.3,0.1,0.4,0.1
		c0.1,0.1,0.3,0.1,0.4,0.3c0.1,0.1,0.1,0.2,0.3,0.4C144.5,13.2,144.5,13.3,144.5,13.5z M144.3,13.5c0-0.1-0.1-0.3-0.1-0.4
		c-0.1-0.1-0.1-0.2-0.1-0.3c-0.1-0.1-0.1-0.1-0.3-0.2c-0.1-0.1-0.3-0.1-0.4-0.1c-0.1,0-0.3,0.1-0.4,0.1c-0.1,0.1-0.2,0.1-0.3,0.2
		c-0.1,0.1-0.1,0.1-0.1,0.3s-0.1,0.3-0.1,0.4c0,0.1,0.1,0.3,0.1,0.4c0.1,0.1,0.1,0.2,0.1,0.3c0.1,0.1,0.1,0.1,0.3,0.2
		c0.1,0.1,0.3,0.1,0.4,0.1c0.1,0,0.3-0.1,0.4-0.1c0.1-0.1,0.2-0.1,0.3-0.2c0.1-0.1,0.1-0.1,0.1-0.3
		C144.3,13.8,144.3,13.7,144.3,13.5z M143.8,14.1C143.8,14.2,143.8,14.2,143.8,14.1C143.8,14.2,143.8,14.2,143.8,14.1l-0.1,0.1h-0.1
		h-0.1c0,0-0.1,0-0.1-0.1v-0.1l-0.1-0.2c-0.1-0.1-0.1-0.1-0.1-0.1c-0.1-0.1-0.1-0.1-0.1-0.1h-0.1v0.4c0,0.1,0,0.1-0.1,0.1H143
		c-0.1,0-0.1,0-0.1,0l-0.1-0.1v-1.2c0-0.1,0-0.1,0.1-0.1c0.1-0.1,0.1-0.1,0.1-0.1h0.3c0.1,0,0.1,0,0.2,0.1c0.1,0,0.1,0.1,0.1,0.1
		c0.1,0,0.1,0.1,0.1,0.1c0.1,0.1,0.1,0.1,0.1,0.1c0,0.1-0.1,0.1-0.1,0.3c-0.1,0.1-0.1,0.1-0.2,0.1c0.1,0,0.1,0.1,0.1,0.1
		c0.1,0,0.1,0.1,0.1,0.1l0.1,0.2C143.8,14.1,143.8,14.1,143.8,14.1L143.8,14.1z M143.5,13.3C143.5,13.2,143.5,13.2,143.5,13.3
		l-0.1-0.1c-0.1,0-0.1-0.1-0.1-0.1h-0.1h-0.1v0.4h0.1c0.1,0,0.1-0.1,0.2-0.1C143.5,13.3,143.5,13.3,143.5,13.3L143.5,13.3z"/>
	<path class="st74" d="M44.1,13.3c0-0.7,0.7-1.4,1.5-1.4c0.6,0,1.2,0.4,1.4,1l3.5,10.3l3.8-10.3c0.1-0.5,0.8-0.9,1.4-0.9
		c0.8,0,1.5,0.7,1.5,1.4v11.3c0,0.4-0.2,0.6-0.6,0.6S56,24.9,56,24.6V13.3c0-0.1-0.1-0.2-0.4-0.2c-0.1,0-0.4,0.1-0.4,0.1l-3.9,11.1
		c-0.1,0.3-0.5,0.5-0.7,0.5c-0.4,0-0.6-0.2-0.7-0.5L46,13.3c0-0.1-0.2-0.1-0.4-0.1c-0.2,0-0.4,0.1-0.4,0.2v11.3
		c0,0.4-0.2,0.6-0.6,0.6c-0.3,0-0.6-0.3-0.6-0.6V13.3z"/>
	<path class="st74" d="M60.1,12.9c0-0.4,0.4-0.9,1-0.9h7.2c0.4,0,0.6,0.3,0.6,0.6c0,0.3-0.2,0.6-0.6,0.6h-7.2v4.7h5.9
		c0.4,0,0.6,0.2,0.6,0.6c0,0.4-0.2,0.6-0.6,0.6h-5.9v5.1h7.1c0.4,0,0.6,0.3,0.6,0.6c0,0.4-0.2,0.6-0.6,0.6h-7.3c-0.5,0-1-0.4-1-0.9
		L60.1,12.9z"/>
	<path class="st74" d="M71.1,13.3c0-0.7,0.7-1.4,1.5-1.4c0.6,0,1.2,0.4,1.4,1l3.5,10.3l3.8-10.3c0.1-0.5,0.8-0.9,1.4-0.9
		c0.8,0,1.5,0.7,1.5,1.4v11.3c0,0.4-0.2,0.6-0.6,0.6s-0.6-0.3-0.6-0.6V13.3c0-0.1-0.1-0.2-0.4-0.2c-0.1,0-0.4,0.1-0.4,0.1l-4,11.1
		c-0.1,0.3-0.5,0.5-0.7,0.5c-0.4,0-0.6-0.2-0.7-0.5L73,13.3c-0.1-0.1-0.2-0.1-0.4-0.1c-0.2,0-0.4,0.1-0.4,0.2v11.3
		c0,0.4-0.2,0.6-0.6,0.6c-0.3,0-0.6-0.3-0.6-0.6L71.1,13.3z"/>
	<path class="st74" d="M93.2,25.2H88c-0.5,0-0.9-0.4-0.9-0.9V12.9c0-0.4,0.4-0.9,0.9-0.9h4.8c2.1,0,3.8,1.6,3.8,3.5
		c0,1.2-0.6,2.2-1.5,2.8c1.2,0.7,2.1,1.8,2.1,3.2C97.3,23.5,95.4,25.2,93.2,25.2z M92.9,17.8c1.5,0,2.8-1,2.8-2.3s-1.2-2.3-2.8-2.3
		h-4.6v4.8L92.9,17.8z M88.2,18.9v5.2h5c1.7,0,3-1.2,3-2.6c0-1.4-1.3-2.6-3-2.6C93.2,18.9,88.2,18.9,88.2,18.9z"/>
	<path class="st74" d="M104.6,18.9H101v5.7c0,0.4-0.2,0.7-0.6,0.7c-0.3,0-0.6-0.3-0.6-0.7V12.9c0-0.4,0.4-0.9,0.9-0.9h4.8
		c2.1,0,3.8,1.5,3.8,3.4s-1.6,3.4-3.6,3.5c1.1,1.8,2.2,3.5,3.4,5.4c0.1,0.1,0.1,0.2,0.1,0.3c0,0.4-0.3,0.7-0.6,0.7
		c-0.1,0-0.4-0.1-0.4-0.3L104.6,18.9z M105.7,17.7c1.5,0,2.8-1,2.8-2.3c0-1.2-1.2-2.3-2.8-2.3H101v4.6H105.7z"/>
	<path class="st74" d="M114.1,21.2c-0.4,1.2-0.9,2.5-1.4,3.7c-0.1,0.2-0.3,0.4-0.5,0.4c-0.3,0-0.5-0.3-0.5-0.6c0,0,0-0.1,0.1-0.1
		l4.1-11.3c0.2-0.7,0.9-1.1,1.6-1.1c0.7,0,1.4,0.4,1.6,1.1l4.1,11.3c0.1,0.1,0.1,0.1,0.1,0.1c0,0.3-0.3,0.6-0.6,0.6
		c-0.1,0-0.4-0.1-0.5-0.4l-1.4-3.7L114.1,21.2z M120.5,20.1l-2.4-6.7c-0.1-0.1-0.3-0.3-0.6-0.3c-0.3,0-0.5,0.1-0.6,0.3l-2.4,6.7
		H120.5z"/>
	<path class="st74" d="M125.7,12.6c0-0.3,0.3-0.6,0.6-0.6s0.6,0.3,0.6,0.7v11.9c0,0.4-0.2,0.7-0.6,0.7c-0.3,0-0.6-0.3-0.6-0.6V12.6z
		"/>
	<path class="st74" d="M139.1,23.7V12.6c0-0.3,0.2-0.6,0.6-0.6c0.3,0,0.6,0.3,0.6,0.6v11.2c0,0.7-0.7,1.5-1.5,1.5
		c-0.6,0-1.2-0.4-1.5-0.9l-5.6-11c-0.1-0.1-0.3-0.1-0.4-0.1c-0.3,0-0.4,0.1-0.4,0.3v11.2c0,0.4-0.2,0.6-0.6,0.6
		c-0.3,0-0.6-0.3-0.6-0.6V13.4c0-0.8,0.7-1.4,1.5-1.4c0.6,0,1.1,0.3,1.4,0.8l5.7,11.1c0.1,0.1,0.2,0.1,0.4,0.1
		C138.9,24,139.1,23.9,139.1,23.7L139.1,23.7z"/>
	<path class="st74" d="M16.4,8.8c-1,1-1.5,2.3-1.5,3.6c0,0.4,0.1,0.9,0.1,1.4c-0.4-0.1-0.9-0.1-1.3-0.1c-1.4,0-2.7,0.6-3.7,1.5
		s-1.5,2.3-1.5,3.6c0,1.4,0.6,2.6,1.5,3.7l6.9,6.9c0.3,0.2,0.7,0.2,1,0s0.3-0.7,0-1l-6.9-7c-0.7-0.7-1.1-1.7-1.1-2.7
		c0-1,0.4-2,1.1-2.7s1.7-1.2,2.7-1.2c1,0,1.8,0.3,2.5,1c0.1,0.1,7,7.1,7,7.1c0.3,0.3,0.7,0.3,1,0c0.1-0.1,0.1-0.3,0.1-0.4
		c0-0.1-0.1-0.4-0.1-0.4c0,0-7-7-7.1-7.1c-0.7-0.7-1-1.5-1-2.5c0-1,0.4-2,1.1-2.7c0.7-0.7,1.7-1.2,2.7-1.2c1,0,2.1,0.4,2.8,1.2l7,7
		c0.3,0.3,0.7,0.3,1,0c0.1-0.1,0.1-0.3,0.1-0.4c0-0.1-0.1-0.4-0.1-0.4l-7-7c-1-1-2.3-1.5-3.6-1.5C18.6,7.3,17.3,7.8,16.4,8.8"/>
</g>
</svg>
