<?xml version="1.0" encoding="utf-8"?>
<!-- Generator: Adobe Illustrator 26.4.1, SVG Export Plug-In . SVG Version: 6.00 Build 0)  -->
<svg version="1.1" id="Layer_1" xmlns="http://www.w3.org/2000/svg" xmlns:xlink="http://www.w3.org/1999/xlink" x="0px" y="0px"
	 viewBox="0 0 154 36" style="enable-background:new 0 0 154 36;" xml:space="preserve">
<style type="text/css">
	.st0{fill:#E9F6F6;}
	.st1{fill:#1A2959;}
	.st2{fill:#FBFBFB;}
	.st3{fill:#666666;}
	.st4{fill:#FFFFFF;}
	.st5{fill:#06FFD5;}
	.st6{fill:#AADDDD;}
	.st7{fill:#B6E5F5;}
	.st8{fill:#E1E3E7;}
	.st9{fill:#D2EDED;}
	.st10{fill:#FEFEFE;}
	.st11{fill:#FCFCFC;}
	.st12{fill:#FAFAF8;}
	.st13{fill:#FDFDFD;}
	.st14{fill:#FAFAFA;}
	.st15{fill:#CAF0F7;}
	.st16{opacity:0.17;fill:none;stroke:#C2C6D3;stroke-width:30;stroke-miterlimit:10;}
	.st17{fill:#39DBD0;}
	.st18{fill:#4E82F7;}
	.st19{fill:#E1EDFB;}
	.st20{fill:#AAEBEB;}
	.st21{fill:#67D4E4;}
	.st22{fill:#EBEBEB;}
	.st23{fill:#EAEAEA;}
	.st24{fill:#71C0E6;}
	.st25{fill:#F9F9F9;}
	.st26{fill:#F7F4F4;}
	.st27{fill:#E4DAD6;}
	.st28{fill:#DED6D3;}
	.st29{fill:#FBD62E;}
	.st30{fill:#FAD52E;}
	.st31{fill:#5FB8E0;}
	.st32{fill:#5FB7DF;}
	.st33{fill:#449D84;}
	.st34{fill:#9BFFEE;}
	.st35{fill:#C5EAF7;}
	.st36{fill:#EECEB3;}
	.st37{fill:#F7F7F7;}
	.st38{fill:#FCD2B1;}
	.st39{fill:#2A94F4;}
	.st40{fill:#0E538C;}
	.st41{fill:#CCE9FF;}
	.st42{fill:#F5FAFA;}
	.st43{fill-rule:evenodd;clip-rule:evenodd;fill:#B6E5F5;}
	.st44{fill-rule:evenodd;clip-rule:evenodd;fill:#0A3C5F;}
	.st45{fill-rule:evenodd;clip-rule:evenodd;fill:#CC346F;}
	.st46{fill-rule:evenodd;clip-rule:evenodd;fill:#1A2959;}
	.st47{fill:#E5AB83;}
	.st48{fill:#EFB68F;}
	.st49{fill:#FFE3CA;}
	.st50{fill:#1989DD;}
	.st51{fill:#FFBE55;}
	.st52{fill:#F7C39F;}
	.st53{fill:#34A2F4;}
	.st54{fill:#F7F5F5;}
	.st55{fill:#00A48E;}
	.st56{fill:#7FCF5F;}
	.st57{fill:url(#SVGID_1_);}
	.st58{fill:url(#SVGID_00000074416230188781417050000012375303649997584005_);}
	.st59{fill:url(#SVGID_00000109023713924976626560000013293529041686812297_);}
	.st60{fill:url(#SVGID_00000005233268741011574780000006724245732389249191_);}
	.st61{fill:url(#SVGID_00000033347180141699209420000018255115999314602399_);}
	.st62{fill:url(#SVGID_00000160881930675872303780000007202125986808729229_);}
	.st63{fill:url(#SVGID_00000123423316292888091590000008860015135560321213_);}
	.st64{fill:url(#SVGID_00000025416028631867978970000005558796140086441403_);}
	.st65{fill:url(#SVGID_00000182505960052522677630000002675559431607306416_);}
	.st66{fill:url(#SVGID_00000155126506960491179420000013011960640896368575_);}
	.st67{fill:url(#SVGID_00000165215743183729437180000001086018835329110195_);}
	.st68{fill:#00BF95;}
	.st69{fill:#004032;}
	.st70{fill:#00FFC6;}
</style>
<g>
	<g>
		<path class="st3" d="M60.1,31.6c-0.1,0.4-0.4,0.2-0.7,0.2c-6.2,0-12.4,0-18.6,0c-1.3,0-2.6,0-3.9,0c-0.4,0-0.5-0.1-0.5-0.5
			c0-8.9,0-17.8,0-26.7c0-0.6,0.3-0.5,0.7-0.5c5.9,0,11.7,0,17.6,0c1.8,0,3.7,0,5.5,0c0,6.9,0,13.9,0,20.8
			C60,27.2,60.1,29.4,60.1,31.6z M45.7,30c2.1,0,4.2,0,6.3,0c0.2,0,0.5,0.1,0.6-0.2c0-0.6,0.5-0.9,0.7-1.4c0.3-0.8,0.8-1.2,1.7-1.1
			c0.5,0.1,1.1-0.1,1.4-0.6c0.3-0.5,0.8-1,0.3-1.7c-0.1-0.1,0-0.3,0.1-0.4c0.2-0.4,0.4-0.7,0.1-1.2c-0.2-0.2-0.1-0.5,0.1-0.6
			c0.9-0.2,0.8-0.9,0.7-1.6c-0.1-0.4,0.1-0.6,0.6-0.7c0.8,0,1-0.4,0.7-1.2c-0.3-0.8-0.9-1.5-1.4-2.2c-0.3-0.4-0.4-0.8-0.2-1.3
			c0.2-0.6,0.2-1.2-0.1-1.7c-0.2-0.5-0.3-1-0.5-1.6c-0.2-0.8-0.3-1.7-0.9-2.3c-0.5-0.5-0.5-0.9-0.2-1.5c0.2-0.4,0-1-0.3-1.1
			c-1,0-1.6-0.7-2.5-0.9c-0.1,0-0.2,0-0.2,0c-0.5,0-1,0-1.4-0.2c-0.6-0.3-1.3-0.4-2-0.4c-1.2,0-2.5,0.1-3.7,0.1
			c-1.8,0.1-3.2,0.8-4.4,2.2c-0.2,0.2-0.4,0.4-0.6,0.6c-1,0.6-1.4,1.7-1.6,2.7c-0.2,0.8-0.2,1.6-0.4,2.4c-0.3,1.5-0.5,3,0,4.5
			c0.3,0.9,0.7,1.7,0.9,2.6c0.3,1.3,0.9,2.4,1.6,3.5c0.2,0.4,0.3,0.6-0.1,0.9c-0.5,0.4-1,0.9-1,1.6c0,0.4-0.3,0.8-0.6,1.1
			c-0.2,0.2-0.3,0.4-0.4,0.7c-0.2,0.6,0,0.8,0.6,0.8C41.6,30,43.6,30,45.7,30z"/>
		<path class="st11" d="M45.7,30c-2.1,0-4.1,0-6.2,0c-0.6,0-0.8-0.2-0.6-0.8c0.1-0.3,0.2-0.5,0.4-0.7c0.3-0.3,0.6-0.7,0.6-1.1
			c0.1-0.7,0.5-1.2,1-1.6c0.4-0.3,0.3-0.6,0.1-0.9c-0.7-1.1-1.3-2.2-1.6-3.5c-0.2-0.9-0.7-1.7-0.9-2.6c-0.5-1.5-0.3-3,0-4.5
			c0.2-0.8,0.2-1.6,0.4-2.4c0.2-1,0.6-2.1,1.6-2.7c0.3-0.2,0.4-0.4,0.6-0.6c1.1-1.3,2.6-2.1,4.4-2.2c1.2,0,2.5-0.1,3.7-0.1
			c0.7,0,1.4,0.1,2,0.4c0.4,0.2,0.9,0.2,1.4,0.2c0.1,0,0.2,0,0.2,0c0.9,0.2,1.5,0.9,2.5,0.9c0.3,0,0.5,0.6,0.3,1.1
			c-0.3,0.5-0.2,0.9,0.2,1.5c0.6,0.6,0.7,1.5,0.9,2.3c0.1,0.5,0.2,1.1,0.5,1.6c0.3,0.6,0.3,1.1,0.1,1.7c-0.2,0.5-0.1,0.9,0.2,1.3
			c0.5,0.7,1.1,1.3,1.4,2.2c0.3,0.8,0.2,1.1-0.7,1.2c-0.4,0-0.6,0.2-0.6,0.7c0.1,0.7,0.2,1.4-0.7,1.6c-0.2,0-0.3,0.4-0.1,0.6
			c0.4,0.4,0.2,0.8-0.1,1.2c-0.1,0.1-0.2,0.3-0.1,0.4c0.5,0.7,0,1.2-0.3,1.7c-0.3,0.5-0.8,0.7-1.4,0.6c-0.9-0.1-1.4,0.3-1.7,1.1
			c-0.2,0.5-0.7,0.8-0.7,1.4c0,0.3-0.4,0.2-0.6,0.2C49.9,30,47.8,30,45.7,30z M56.2,15.9c0,1.9-0.4,3.4-1.3,5
			c-0.1,0.1-0.3,0.3-0.1,0.5c0.3,0.2,0.3-0.2,0.4-0.3c0.1-0.1,0.1-0.2,0.2-0.3c1.7-3.2,1.6-6.4,0.1-9.6c-0.1-0.2-0.1-0.4-0.4-0.3
			c-0.2,0.1,0,0.3,0.1,0.5C55.8,12.8,56.2,14.3,56.2,15.9z M54.6,16c0-1.3-0.3-2.7-0.8-3.7c-0.1-0.2-0.1-0.7-0.5-0.6
			c-0.3,0.1,0.1,0.5,0.1,0.7c1.1,2.5,1.1,5-0.2,7.4c-0.1,0.1-0.3,0.3-0.1,0.5c0.2,0.1,0.3-0.2,0.4-0.3C54.3,18.8,54.7,17.5,54.6,16z
			 M52.6,16.1c0-1-0.3-1.9-0.7-2.8c-0.1-0.2-0.2-0.5-0.4-0.4c-0.3,0.1,0,0.4,0.1,0.5c0.8,1.8,0.9,3.6,0.1,5.4
			c-0.1,0.1-0.3,0.3-0.1,0.5c0.2,0.1,0.3-0.1,0.4-0.3C52.4,18.1,52.7,17.2,52.6,16.1z M50.7,16.1c0-0.7-0.1-1.5-0.4-2.2
			c-0.1-0.1-0.1-0.3-0.3-0.2c-0.2,0.1-0.1,0.2-0.1,0.4c0,0.2,0.1,0.3,0.2,0.5c0.3,1.1,0.3,2.1,0,3.2c0,0.1-0.2,0.3,0,0.4
			c0.3,0.1,0.3-0.2,0.3-0.3C50.6,17.3,50.7,16.8,50.7,16.1z M47.8,16.1c0,0,0,0.1,0,0.2c0,0.1-0.1,0.4,0.2,0.4
			c0.2,0,0.2-0.2,0.2-0.3c0.1-0.4,0-0.8-0.1-1.3c0-0.1-0.1-0.2-0.2-0.1c-0.1,0-0.2,0.1-0.1,0.2C47.8,15.5,47.8,15.8,47.8,16.1z
			 M49,14.7c-0.2,0.2-0.2,0.3-0.1,0.5c0.1,0.5,0.1,0.9,0,1.4c0,0.1-0.2,0.3,0,0.4c0.3,0.1,0.4-0.2,0.4-0.4
			C49.2,16.1,49.4,15.4,49,14.7z"/>
		<path class="st3" d="M56.2,15.9c0-1.6-0.4-3.1-1-4.6c-0.1-0.1-0.3-0.3-0.1-0.5c0.2-0.1,0.3,0.1,0.4,0.3c1.5,3.2,1.5,6.4-0.1,9.6
			c-0.1,0.1-0.1,0.2-0.2,0.3c-0.1,0.1-0.1,0.5-0.4,0.3c-0.2-0.1,0-0.3,0.1-0.5C55.8,19.3,56.2,17.8,56.2,15.9z"/>
		<path class="st3" d="M54.6,16c0,1.4-0.3,2.8-1,4c-0.1,0.1-0.1,0.4-0.4,0.3c-0.3-0.1,0-0.3,0.1-0.5c1.3-2.4,1.3-4.9,0.2-7.4
			c-0.1-0.2-0.4-0.6-0.1-0.7c0.4-0.2,0.4,0.3,0.5,0.6C54.4,13.4,54.6,14.7,54.6,16z"/>
		<path class="st3" d="M52.6,16.1c0,1-0.2,1.9-0.7,2.8c-0.1,0.2-0.2,0.4-0.4,0.3c-0.3-0.1,0-0.3,0.1-0.5c0.9-1.8,0.8-3.6-0.1-5.4
			c-0.1-0.2-0.4-0.4-0.1-0.5c0.3-0.1,0.3,0.2,0.4,0.4C52.4,14.2,52.7,15.1,52.6,16.1z"/>
		<path class="st3" d="M50.7,16.1c0,0.6-0.1,1.2-0.3,1.7c-0.1,0.1-0.1,0.4-0.3,0.3c-0.2-0.1-0.1-0.3,0-0.4c0.4-1.1,0.3-2.1,0-3.2
			c0-0.2-0.1-0.3-0.2-0.5c0-0.1-0.1-0.3,0.1-0.4c0.2-0.1,0.2,0.1,0.3,0.2C50.6,14.7,50.7,15.5,50.7,16.1z"/>
		<path class="st3" d="M47.8,16.1c0-0.4,0-0.7-0.1-0.9c0-0.1,0-0.2,0.1-0.2c0.1,0,0.2,0,0.2,0.1c0.1,0.4,0.2,0.8,0.1,1.3
			c0,0.1-0.1,0.3-0.2,0.3c-0.2,0-0.2-0.2-0.2-0.4C47.8,16.2,47.8,16.1,47.8,16.1z"/>
		<path class="st3" d="M49,14.7c0.4,0.7,0.2,1.3,0.2,2c0,0.2-0.1,0.5-0.4,0.4c-0.2-0.1,0-0.3,0-0.4c0.1-0.5,0.1-0.9,0-1.4
			C48.9,15.1,48.8,14.9,49,14.7z"/>
	</g>
	<g>
		<path class="st3" d="M65.8,8.4c0.1-0.4,0.3-0.7,0.6-1c0.3-0.3,0.6-0.5,0.9-0.7c0.4-0.2,0.8-0.2,1.2-0.2c0.5,0,0.9,0.1,1.2,0.2
			c0.4,0.2,0.7,0.4,0.9,0.7c0.3,0.3,0.4,0.6,0.6,1c0.1,0.4,0.2,0.8,0.2,1.2c0,0.4-0.1,0.8-0.2,1.2c-0.1,0.4-0.3,0.7-0.6,1
			c-0.3,0.3-0.6,0.5-0.9,0.7c-0.4,0.2-0.8,0.2-1.2,0.2c-0.5,0-0.9-0.1-1.2-0.2c-0.4-0.2-0.7-0.4-0.9-0.7c-0.3-0.3-0.4-0.6-0.6-1
			c-0.1-0.4-0.2-0.8-0.2-1.2C65.6,9.2,65.6,8.8,65.8,8.4z M67,10.4c0.1,0.2,0.2,0.5,0.3,0.6c0.1,0.2,0.3,0.3,0.5,0.5
			c0.2,0.1,0.5,0.2,0.8,0.2c0.3,0,0.5-0.1,0.8-0.2c0.2-0.1,0.4-0.3,0.5-0.5s0.2-0.4,0.3-0.6s0.1-0.5,0.1-0.7c0-0.3,0-0.5-0.1-0.8
			s-0.2-0.5-0.3-0.7c-0.1-0.2-0.3-0.3-0.5-0.5c-0.2-0.1-0.5-0.2-0.8-0.2c-0.3,0-0.5,0.1-0.8,0.2c-0.2,0.1-0.4,0.3-0.5,0.5
			C67.1,8.4,67,8.7,67,8.9c-0.1,0.2-0.1,0.5-0.1,0.8C66.9,9.9,66.9,10.2,67,10.4z"/>
		<path class="st3" d="M73.4,6.7v2.2h0c0.1-0.2,0.3-0.4,0.6-0.5c0.2-0.1,0.5-0.2,0.8-0.2c0.2,0,0.4,0,0.6,0.1
			c0.2,0.1,0.4,0.2,0.6,0.4c0.2,0.2,0.3,0.4,0.4,0.7c0.1,0.3,0.2,0.6,0.2,1c0,0.4-0.1,0.7-0.2,1c-0.1,0.3-0.2,0.5-0.4,0.7
			c-0.2,0.2-0.4,0.3-0.6,0.4c-0.2,0.1-0.4,0.1-0.6,0.1c-0.3,0-0.6-0.1-0.9-0.2s-0.4-0.3-0.6-0.5h0v0.6h-1.1v-6H73.4z M75.4,10
			c0-0.2-0.1-0.3-0.2-0.4c-0.1-0.1-0.2-0.2-0.3-0.3c-0.1-0.1-0.3-0.1-0.5-0.1c-0.2,0-0.3,0-0.5,0.1c-0.1,0.1-0.2,0.2-0.3,0.3
			c-0.1,0.1-0.1,0.3-0.2,0.4c0,0.2-0.1,0.3-0.1,0.5c0,0.2,0,0.4,0.1,0.5c0,0.2,0.1,0.3,0.2,0.4c0.1,0.1,0.2,0.2,0.3,0.3
			c0.1,0.1,0.3,0.1,0.5,0.1c0.2,0,0.3,0,0.5-0.1c0.1-0.1,0.2-0.2,0.3-0.3c0.1-0.1,0.1-0.3,0.2-0.4c0-0.2,0.1-0.3,0.1-0.5
			C75.4,10.3,75.4,10.1,75.4,10z"/>
		<path class="st3" d="M77,13.2c0.1,0,0.2,0,0.3-0.1c0.1,0,0.1-0.2,0.1-0.3V8.3h1.2v4.6c0,0.2,0,0.4-0.1,0.6c0,0.2-0.1,0.3-0.2,0.4
			c-0.1,0.1-0.3,0.2-0.5,0.2c-0.2,0.1-0.4,0.1-0.7,0.1c-0.1,0-0.3,0-0.4,0v-1C76.8,13.2,76.9,13.2,77,13.2z M77.5,7.6v-1h1.2v1H77.5
			z"/>
		<path class="st3" d="M81,11.6c0.2,0.2,0.4,0.3,0.8,0.3c0.2,0,0.4-0.1,0.6-0.2c0.2-0.1,0.3-0.2,0.3-0.4h1.1
			c-0.2,0.5-0.4,0.9-0.8,1.1c-0.3,0.2-0.8,0.3-1.3,0.3c-0.3,0-0.6-0.1-0.9-0.2c-0.3-0.1-0.5-0.3-0.7-0.5c-0.2-0.2-0.3-0.4-0.4-0.7
			c-0.1-0.3-0.2-0.6-0.2-0.9c0-0.3,0.1-0.6,0.2-0.9c0.1-0.3,0.3-0.5,0.5-0.7c0.2-0.2,0.4-0.4,0.7-0.5c0.3-0.1,0.6-0.2,0.9-0.2
			c0.4,0,0.7,0.1,1,0.2C83,8.5,83.2,8.7,83.4,9c0.2,0.2,0.3,0.5,0.4,0.8c0.1,0.3,0.1,0.6,0.1,1h-3.1C80.7,11.2,80.8,11.4,81,11.6z
			 M82.3,9.3c-0.1-0.2-0.4-0.2-0.7-0.2c-0.2,0-0.3,0-0.5,0.1c-0.1,0.1-0.2,0.1-0.3,0.2c-0.1,0.1-0.1,0.2-0.2,0.3
			c0,0.1,0,0.2-0.1,0.3h1.9C82.6,9.7,82.5,9.5,82.3,9.3z"/>
		<path class="st3" d="M86.6,9.1c-0.2,0-0.3,0-0.5,0.1c-0.1,0.1-0.2,0.2-0.3,0.3c-0.1,0.1-0.1,0.3-0.2,0.5c0,0.2-0.1,0.3-0.1,0.5
			c0,0.2,0,0.3,0.1,0.5c0,0.2,0.1,0.3,0.2,0.4c0.1,0.1,0.2,0.2,0.3,0.3c0.1,0.1,0.3,0.1,0.5,0.1c0.3,0,0.5-0.1,0.7-0.2
			c0.2-0.2,0.3-0.4,0.3-0.6h1.2c-0.1,0.6-0.3,1-0.7,1.3c-0.4,0.3-0.8,0.5-1.4,0.5c-0.3,0-0.6-0.1-0.9-0.2c-0.3-0.1-0.5-0.3-0.7-0.5
			c-0.2-0.2-0.3-0.4-0.4-0.7c-0.1-0.3-0.2-0.6-0.2-0.9c0-0.3,0-0.6,0.1-0.9c0.1-0.3,0.2-0.5,0.4-0.7c0.2-0.2,0.4-0.4,0.7-0.5
			s0.6-0.2,0.9-0.2c0.3,0,0.5,0,0.7,0.1c0.2,0.1,0.5,0.2,0.6,0.3c0.2,0.1,0.3,0.3,0.5,0.5c0.1,0.2,0.2,0.4,0.2,0.7h-1.2
			C87.4,9.3,87.1,9.1,86.6,9.1z"/>
		<path class="st3" d="M91.7,8.3v0.8h-0.9v2.2c0,0.2,0,0.3,0.1,0.4c0.1,0.1,0.2,0.1,0.4,0.1c0.1,0,0.1,0,0.2,0c0.1,0,0.1,0,0.2,0
			v0.9c-0.1,0-0.2,0-0.3,0c-0.1,0-0.2,0-0.4,0c-0.2,0-0.4,0-0.5,0c-0.2,0-0.3-0.1-0.4-0.1c-0.1-0.1-0.2-0.2-0.3-0.3
			c-0.1-0.1-0.1-0.3-0.1-0.5V9.1h-0.7V8.3h0.7V7h1.2v1.3H91.7z"/>
		<path class="st3" d="M92.3,7.6v-1h1.2v1H92.3z M93.5,8.3v4.3h-1.2V8.3H93.5z"/>
		<path class="st3" d="M95.6,12.7l-1.5-4.3h1.3l0.9,3h0l0.9-3h1.2l-1.5,4.3H95.6z"/>
		<path class="st3" d="M100.1,11.6c0.2,0.2,0.4,0.3,0.8,0.3c0.2,0,0.4-0.1,0.6-0.2c0.2-0.1,0.3-0.2,0.3-0.4h1.1
			c-0.2,0.5-0.4,0.9-0.8,1.1c-0.3,0.2-0.8,0.3-1.3,0.3c-0.3,0-0.6-0.1-0.9-0.2c-0.3-0.1-0.5-0.3-0.7-0.5c-0.2-0.2-0.3-0.4-0.4-0.7
			c-0.1-0.3-0.2-0.6-0.2-0.9c0-0.3,0.1-0.6,0.2-0.9c0.1-0.3,0.3-0.5,0.5-0.7c0.2-0.2,0.4-0.4,0.7-0.5c0.3-0.1,0.6-0.2,0.9-0.2
			c0.4,0,0.7,0.1,1,0.2c0.3,0.1,0.5,0.3,0.7,0.6c0.2,0.2,0.3,0.5,0.4,0.8c0.1,0.3,0.1,0.6,0.1,1h-3.1
			C99.8,11.2,99.9,11.4,100.1,11.6z M101.5,9.3c-0.1-0.2-0.4-0.2-0.7-0.2c-0.2,0-0.3,0-0.5,0.1c-0.1,0.1-0.2,0.1-0.3,0.2
			c-0.1,0.1-0.1,0.2-0.2,0.3c0,0.1,0,0.2-0.1,0.3h1.9C101.7,9.7,101.6,9.5,101.5,9.3z"/>
		<path class="st3" d="M67.7,14.7l1.4,4.1h0l1.3-4.1h1.9v6h-1.2v-4.3h0l-1.5,4.3h-1l-1.5-4.2h0v4.2h-1.2v-6H67.7z"/>
		<path class="st3" d="M73.3,17.7c0-0.3,0.1-0.5,0.2-0.7c0.1-0.2,0.3-0.3,0.5-0.4c0.2-0.1,0.4-0.2,0.6-0.2c0.2,0,0.5-0.1,0.7-0.1
			c0.2,0,0.4,0,0.7,0c0.2,0,0.4,0.1,0.6,0.2c0.2,0.1,0.3,0.2,0.5,0.4c0.1,0.2,0.2,0.4,0.2,0.6v2.3c0,0.2,0,0.4,0,0.6
			c0,0.2,0.1,0.3,0.1,0.4h-1.2c0-0.1,0-0.1-0.1-0.2c0-0.1,0-0.1,0-0.2c-0.2,0.2-0.4,0.3-0.7,0.4c-0.3,0.1-0.5,0.1-0.8,0.1
			c-0.2,0-0.4,0-0.6-0.1c-0.2-0.1-0.3-0.1-0.5-0.2c-0.1-0.1-0.2-0.2-0.3-0.4c-0.1-0.2-0.1-0.4-0.1-0.6c0-0.2,0-0.4,0.1-0.6
			c0.1-0.2,0.2-0.3,0.3-0.4c0.1-0.1,0.3-0.2,0.5-0.2c0.2,0,0.4-0.1,0.5-0.1c0.2,0,0.4-0.1,0.5-0.1c0.2,0,0.3,0,0.5-0.1
			c0.1,0,0.2-0.1,0.3-0.1c0.1-0.1,0.1-0.2,0.1-0.3c0-0.1,0-0.2-0.1-0.3c0-0.1-0.1-0.1-0.2-0.2c-0.1,0-0.2-0.1-0.2-0.1
			c-0.1,0-0.2,0-0.3,0c-0.2,0-0.4,0.1-0.6,0.2c-0.1,0.1-0.2,0.3-0.2,0.5H73.3z M76,18.6c-0.1,0-0.1,0.1-0.2,0.1
			c-0.1,0-0.2,0-0.2,0.1c-0.1,0-0.2,0-0.3,0c-0.1,0-0.2,0-0.3,0c-0.1,0-0.2,0-0.3,0.1c-0.1,0-0.2,0.1-0.2,0.1
			c-0.1,0-0.1,0.1-0.2,0.2c0,0.1-0.1,0.2-0.1,0.3c0,0.1,0,0.2,0.1,0.3c0,0.1,0.1,0.1,0.2,0.2s0.1,0.1,0.2,0.1c0.1,0,0.2,0,0.3,0
			c0.2,0,0.4,0,0.5-0.1c0.1-0.1,0.2-0.2,0.3-0.3s0.1-0.2,0.1-0.3c0-0.1,0-0.2,0-0.3V18.6z"/>
		<path class="st3" d="M79.3,16.4V17h0c0.2-0.3,0.3-0.4,0.6-0.6c0.2-0.1,0.5-0.2,0.7-0.2c0.3,0,0.6,0,0.8,0.1
			c0.2,0.1,0.4,0.2,0.5,0.4c0.1,0.2,0.2,0.3,0.2,0.6c0,0.2,0.1,0.5,0.1,0.7v2.7H81v-2.5c0-0.4-0.1-0.6-0.2-0.8
			c-0.1-0.2-0.3-0.3-0.6-0.3c-0.3,0-0.6,0.1-0.7,0.3c-0.1,0.2-0.2,0.5-0.2,1v2.3h-1.2v-4.3H79.3z"/>
		<path class="st3" d="M83.1,17.7c0-0.3,0.1-0.5,0.2-0.7c0.1-0.2,0.3-0.3,0.5-0.4c0.2-0.1,0.4-0.2,0.6-0.2c0.2,0,0.5-0.1,0.7-0.1
			c0.2,0,0.4,0,0.7,0c0.2,0,0.4,0.1,0.6,0.2c0.2,0.1,0.3,0.2,0.5,0.4C87,17,87,17.3,87,17.5v2.3c0,0.2,0,0.4,0,0.6
			c0,0.2,0.1,0.3,0.1,0.4H86c0-0.1,0-0.1-0.1-0.2c0-0.1,0-0.1,0-0.2c-0.2,0.2-0.4,0.3-0.7,0.4c-0.3,0.1-0.5,0.1-0.8,0.1
			c-0.2,0-0.4,0-0.6-0.1c-0.2-0.1-0.3-0.1-0.5-0.2c-0.1-0.1-0.2-0.2-0.3-0.4c-0.1-0.2-0.1-0.4-0.1-0.6c0-0.2,0-0.4,0.1-0.6
			c0.1-0.2,0.2-0.3,0.3-0.4c0.1-0.1,0.3-0.2,0.5-0.2c0.2,0,0.4-0.1,0.5-0.1c0.2,0,0.4-0.1,0.5-0.1c0.2,0,0.3,0,0.5-0.1
			c0.1,0,0.2-0.1,0.3-0.1c0.1-0.1,0.1-0.2,0.1-0.3c0-0.1,0-0.2-0.1-0.3c0-0.1-0.1-0.1-0.2-0.2c-0.1,0-0.2-0.1-0.2-0.1
			c-0.1,0-0.2,0-0.3,0c-0.2,0-0.4,0.1-0.6,0.2c-0.1,0.1-0.2,0.3-0.2,0.5H83.1z M85.8,18.6c-0.1,0-0.1,0.1-0.2,0.1
			c-0.1,0-0.2,0-0.2,0.1c-0.1,0-0.2,0-0.3,0c-0.1,0-0.2,0-0.3,0c-0.1,0-0.2,0-0.3,0.1c-0.1,0-0.2,0.1-0.2,0.1
			c-0.1,0-0.1,0.1-0.2,0.2c0,0.1-0.1,0.2-0.1,0.3c0,0.1,0,0.2,0.1,0.3c0,0.1,0.1,0.1,0.2,0.2s0.1,0.1,0.2,0.1c0.1,0,0.2,0,0.3,0
			c0.2,0,0.4,0,0.5-0.1c0.1-0.1,0.2-0.2,0.3-0.3s0.1-0.2,0.1-0.3c0-0.1,0-0.2,0-0.3V18.6z"/>
		<path class="st3" d="M92.1,21.1c0,0.2-0.1,0.4-0.3,0.6c-0.2,0.2-0.4,0.4-0.7,0.5c-0.3,0.1-0.7,0.2-1.2,0.2c-0.2,0-0.4,0-0.7-0.1
			c-0.2-0.1-0.4-0.1-0.6-0.2c-0.2-0.1-0.3-0.3-0.5-0.4C88,21.4,88,21.2,88,21h1.2c0.1,0.2,0.2,0.4,0.3,0.5c0.2,0.1,0.3,0.1,0.6,0.1
			c0.3,0,0.6-0.1,0.7-0.3c0.2-0.2,0.2-0.5,0.2-0.8v-0.6h0c-0.1,0.2-0.3,0.4-0.6,0.5c-0.2,0.1-0.5,0.2-0.8,0.2
			c-0.3,0-0.6-0.1-0.8-0.2c-0.2-0.1-0.4-0.3-0.6-0.5c-0.2-0.2-0.3-0.4-0.3-0.7c-0.1-0.3-0.1-0.5-0.1-0.8c0-0.3,0-0.6,0.1-0.8
			c0.1-0.3,0.2-0.5,0.4-0.7c0.2-0.2,0.4-0.4,0.6-0.5c0.2-0.1,0.5-0.2,0.8-0.2c0.3,0,0.5,0.1,0.8,0.2c0.2,0.1,0.4,0.3,0.5,0.5h0v-0.6
			h1.1v4.1C92.1,20.6,92.1,20.8,92.1,21.1z M90.4,19.6c0.1-0.1,0.2-0.2,0.3-0.3c0.1-0.1,0.1-0.2,0.2-0.4s0.1-0.3,0.1-0.4
			c0-0.2,0-0.3-0.1-0.5c0-0.2-0.1-0.3-0.2-0.4c-0.1-0.1-0.2-0.2-0.3-0.3c-0.1-0.1-0.3-0.1-0.5-0.1c-0.2,0-0.3,0-0.4,0.1
			c-0.1,0.1-0.2,0.2-0.3,0.3c-0.1,0.1-0.1,0.2-0.2,0.4c0,0.1-0.1,0.3-0.1,0.5c0,0.2,0,0.3,0,0.5c0,0.2,0.1,0.3,0.2,0.4
			c0.1,0.1,0.2,0.2,0.3,0.3c0.1,0.1,0.3,0.1,0.5,0.1C90.1,19.7,90.3,19.7,90.4,19.6z"/>
		<path class="st3" d="M94.4,19.7c0.2,0.2,0.4,0.3,0.8,0.3c0.2,0,0.4-0.1,0.6-0.2c0.2-0.1,0.3-0.2,0.3-0.4h1.1
			c-0.2,0.5-0.4,0.9-0.8,1.1s-0.8,0.3-1.3,0.3c-0.3,0-0.6-0.1-0.9-0.2c-0.3-0.1-0.5-0.3-0.7-0.5c-0.2-0.2-0.3-0.4-0.4-0.7
			c-0.1-0.3-0.2-0.6-0.2-0.9c0-0.3,0.1-0.6,0.2-0.9c0.1-0.3,0.3-0.5,0.5-0.7c0.2-0.2,0.4-0.4,0.7-0.5c0.3-0.1,0.6-0.2,0.9-0.2
			c0.4,0,0.7,0.1,1,0.2c0.3,0.1,0.5,0.3,0.7,0.6c0.2,0.2,0.3,0.5,0.4,0.8c0.1,0.3,0.1,0.6,0.1,1h-3.1C94.1,19.2,94.2,19.5,94.4,19.7
			z M95.7,17.4c-0.1-0.2-0.4-0.2-0.7-0.2c-0.2,0-0.3,0-0.5,0.1c-0.1,0.1-0.2,0.1-0.3,0.2c-0.1,0.1-0.1,0.2-0.2,0.3
			c0,0.1,0,0.2-0.1,0.3H96C96,17.8,95.9,17.6,95.7,17.4z"/>
		<path class="st3" d="M99.1,16.4V17h0c0.2-0.2,0.3-0.4,0.6-0.5c0.2-0.1,0.5-0.2,0.8-0.2c0.3,0,0.5,0.1,0.8,0.2
			c0.2,0.1,0.4,0.3,0.5,0.6c0.1-0.2,0.3-0.4,0.5-0.5c0.2-0.1,0.5-0.2,0.8-0.2c0.2,0,0.4,0,0.6,0.1c0.2,0.1,0.4,0.1,0.5,0.3
			c0.1,0.1,0.2,0.3,0.3,0.5c0.1,0.2,0.1,0.4,0.1,0.7v2.9h-1.2v-2.5c0-0.1,0-0.3,0-0.4c0-0.1,0-0.2-0.1-0.3c-0.1-0.1-0.1-0.2-0.2-0.2
			c-0.1-0.1-0.2-0.1-0.4-0.1c-0.2,0-0.3,0-0.4,0.1c-0.1,0.1-0.2,0.1-0.2,0.3c-0.1,0.1-0.1,0.2-0.1,0.4c0,0.1,0,0.3,0,0.4v2.4h-1.2
			v-2.4c0-0.1,0-0.3,0-0.4c0-0.1,0-0.2-0.1-0.3c0-0.1-0.1-0.2-0.2-0.3c-0.1-0.1-0.2-0.1-0.4-0.1c-0.1,0-0.1,0-0.2,0
			c-0.1,0-0.2,0.1-0.3,0.1c-0.1,0.1-0.2,0.2-0.2,0.3s-0.1,0.3-0.1,0.5v2.5h-1.2v-4.3H99.1z"/>
		<path class="st3" d="M106.8,19.7c0.2,0.2,0.4,0.3,0.8,0.3c0.2,0,0.4-0.1,0.6-0.2c0.2-0.1,0.3-0.2,0.3-0.4h1.1
			c-0.2,0.5-0.4,0.9-0.8,1.1s-0.8,0.3-1.3,0.3c-0.3,0-0.6-0.1-0.9-0.2c-0.3-0.1-0.5-0.3-0.7-0.5c-0.2-0.2-0.3-0.4-0.4-0.7
			c-0.1-0.3-0.2-0.6-0.2-0.9c0-0.3,0.1-0.6,0.2-0.9c0.1-0.3,0.3-0.5,0.5-0.7c0.2-0.2,0.4-0.4,0.7-0.5c0.3-0.1,0.6-0.2,0.9-0.2
			c0.4,0,0.7,0.1,1,0.2c0.3,0.1,0.5,0.3,0.7,0.6c0.2,0.2,0.3,0.5,0.4,0.8c0.1,0.3,0.1,0.6,0.1,1h-3.1
			C106.5,19.2,106.6,19.5,106.8,19.7z M108.1,17.4c-0.1-0.2-0.4-0.2-0.7-0.2c-0.2,0-0.3,0-0.5,0.1c-0.1,0.1-0.2,0.1-0.3,0.2
			c-0.1,0.1-0.1,0.2-0.2,0.3c0,0.1,0,0.2-0.1,0.3h1.9C108.4,17.8,108.3,17.6,108.1,17.4z"/>
		<path class="st3" d="M111.5,16.4V17h0c0.2-0.3,0.3-0.4,0.6-0.6c0.2-0.1,0.5-0.2,0.7-0.2c0.3,0,0.6,0,0.8,0.1
			c0.2,0.1,0.4,0.2,0.5,0.4c0.1,0.2,0.2,0.3,0.2,0.6c0,0.2,0.1,0.5,0.1,0.7v2.7h-1.2v-2.5c0-0.4-0.1-0.6-0.2-0.8
			c-0.1-0.2-0.3-0.3-0.6-0.3c-0.3,0-0.6,0.1-0.7,0.3c-0.1,0.2-0.2,0.5-0.2,1v2.3h-1.2v-4.3H111.5z"/>
		<path class="st3" d="M117.7,16.4v0.8h-0.9v2.2c0,0.2,0,0.3,0.1,0.4s0.2,0.1,0.4,0.1c0.1,0,0.1,0,0.2,0c0.1,0,0.1,0,0.2,0v0.9
			c-0.1,0-0.2,0-0.3,0c-0.1,0-0.2,0-0.4,0c-0.2,0-0.4,0-0.5,0c-0.2,0-0.3-0.1-0.4-0.1s-0.2-0.2-0.3-0.3c-0.1-0.1-0.1-0.3-0.1-0.5
			v-2.6h-0.7v-0.8h0.7v-1.3h1.2v1.3H117.7z"/>
		<path class="st3" d="M69.4,28.8c-0.3,0.1-0.6,0.2-0.9,0.2c-0.5,0-0.9-0.1-1.2-0.2c-0.4-0.2-0.7-0.4-0.9-0.7s-0.4-0.6-0.6-1
			s-0.2-0.8-0.2-1.2c0-0.4,0.1-0.9,0.2-1.2c0.1-0.4,0.3-0.7,0.6-1c0.3-0.3,0.6-0.5,0.9-0.7c0.4-0.2,0.8-0.2,1.2-0.2
			c0.3,0,0.6,0,0.9,0.1c0.3,0.1,0.5,0.2,0.8,0.4c0.2,0.2,0.4,0.4,0.6,0.7c0.2,0.3,0.2,0.6,0.3,0.9h-1.3c-0.1-0.3-0.2-0.6-0.5-0.8
			c-0.2-0.2-0.5-0.3-0.8-0.3c-0.3,0-0.5,0.1-0.8,0.2c-0.2,0.1-0.4,0.3-0.5,0.5c-0.1,0.2-0.2,0.4-0.3,0.7c-0.1,0.2-0.1,0.5-0.1,0.8
			c0,0.3,0,0.5,0.1,0.7c0.1,0.2,0.2,0.5,0.3,0.6c0.1,0.2,0.3,0.3,0.5,0.5c0.2,0.1,0.5,0.2,0.8,0.2c0.4,0,0.8-0.1,1-0.3
			c0.2-0.2,0.4-0.5,0.4-1h-1.3v-1h2.5v3.2h-0.8l-0.1-0.7C69.9,28.5,69.7,28.7,69.4,28.8z"/>
		<path class="st3" d="M73.2,24.5v0.8h0c0.1-0.1,0.1-0.3,0.2-0.4c0.1-0.1,0.2-0.2,0.3-0.3c0.1-0.1,0.3-0.1,0.4-0.2
			c0.1,0,0.3-0.1,0.4-0.1c0.1,0,0.2,0,0.3,0v1.1c-0.1,0-0.1,0-0.2,0c-0.1,0-0.2,0-0.2,0c-0.2,0-0.4,0-0.6,0.1s-0.3,0.2-0.4,0.3
			c-0.1,0.1-0.2,0.3-0.2,0.4c0,0.2-0.1,0.3-0.1,0.5v2h-1.2v-4.3H73.2z"/>
		<path class="st3" d="M75.2,25.7c0.1-0.3,0.3-0.5,0.5-0.7c0.2-0.2,0.4-0.4,0.7-0.5c0.3-0.1,0.6-0.2,0.9-0.2c0.3,0,0.7,0.1,0.9,0.2
			c0.3,0.1,0.5,0.3,0.7,0.5c0.2,0.2,0.3,0.4,0.5,0.7s0.2,0.6,0.2,0.9s-0.1,0.7-0.2,0.9s-0.3,0.5-0.5,0.7c-0.2,0.2-0.4,0.4-0.7,0.5
			c-0.3,0.1-0.6,0.2-0.9,0.2c-0.3,0-0.6-0.1-0.9-0.2c-0.3-0.1-0.5-0.3-0.7-0.5c-0.2-0.2-0.3-0.4-0.5-0.7s-0.2-0.6-0.2-0.9
			S75.1,26,75.2,25.7z M76.3,27.2c0,0.2,0.1,0.3,0.2,0.4c0.1,0.1,0.2,0.2,0.3,0.3c0.1,0.1,0.3,0.1,0.5,0.1c0.2,0,0.4,0,0.5-0.1
			c0.1-0.1,0.2-0.2,0.3-0.3c0.1-0.1,0.1-0.3,0.2-0.4c0-0.2,0.1-0.3,0.1-0.5s0-0.3-0.1-0.5c0-0.2-0.1-0.3-0.2-0.4
			c-0.1-0.1-0.2-0.2-0.3-0.3c-0.1-0.1-0.3-0.1-0.5-0.1c-0.2,0-0.4,0-0.5,0.1c-0.1,0.1-0.2,0.2-0.3,0.3s-0.1,0.3-0.2,0.4
			c0,0.2-0.1,0.3-0.1,0.5S76.3,27,76.3,27.2z"/>
		<path class="st3" d="M83.3,28.8v-0.6h0c-0.2,0.3-0.3,0.4-0.6,0.5c-0.2,0.1-0.5,0.2-0.7,0.2c-0.3,0-0.6,0-0.8-0.1
			c-0.2-0.1-0.4-0.2-0.5-0.4c-0.1-0.2-0.2-0.3-0.2-0.6c0-0.2-0.1-0.5-0.1-0.7v-2.7h1.2v2.5c0,0.4,0.1,0.6,0.2,0.8
			c0.1,0.2,0.3,0.3,0.6,0.3c0.3,0,0.6-0.1,0.7-0.3c0.1-0.2,0.2-0.5,0.2-1v-2.3h1.2v4.3H83.3z"/>
		<path class="st3" d="M86.4,24.5V25h0c0.1-0.2,0.3-0.4,0.6-0.5c0.2-0.1,0.5-0.2,0.7-0.2c0.3,0,0.6,0.1,0.9,0.2
			c0.2,0.1,0.5,0.3,0.6,0.5c0.2,0.2,0.3,0.5,0.4,0.7c0.1,0.3,0.1,0.6,0.1,0.9c0,0.3,0,0.6-0.1,0.8c-0.1,0.3-0.2,0.5-0.4,0.7
			c-0.2,0.2-0.4,0.4-0.6,0.5c-0.2,0.1-0.5,0.2-0.8,0.2c-0.3,0-0.5-0.1-0.7-0.2c-0.2-0.1-0.4-0.3-0.6-0.5h0v2.1h-1.2v-5.9H86.4z
			 M88,27.9c0.1-0.1,0.2-0.2,0.3-0.3c0.1-0.1,0.1-0.3,0.2-0.4c0-0.2,0.1-0.3,0.1-0.5c0-0.2,0-0.3-0.1-0.5c0-0.2-0.1-0.3-0.2-0.4
			c-0.1-0.1-0.2-0.2-0.3-0.3c-0.1-0.1-0.3-0.1-0.5-0.1c-0.2,0-0.4,0-0.5,0.1c-0.1,0.1-0.2,0.2-0.3,0.3c-0.1,0.1-0.1,0.3-0.2,0.4
			c0,0.2-0.1,0.3-0.1,0.5c0,0.2,0,0.3,0.1,0.5c0,0.2,0.1,0.3,0.2,0.4c0.1,0.1,0.2,0.2,0.3,0.3c0.1,0.1,0.3,0.1,0.5,0.1
			C87.7,28.1,87.9,28,88,27.9z"/>
	</g>
</g>
</svg>
