<?xml version="1.0" encoding="utf-8"?>
<!-- Generator: Adobe Illustrator 26.4.1, SVG Export Plug-In . SVG Version: 6.00 Build 0)  -->
<svg version="1.1" id="Layer_1" xmlns="http://www.w3.org/2000/svg" xmlns:xlink="http://www.w3.org/1999/xlink" x="0px" y="0px"
	 viewBox="0 0 154 36" style="enable-background:new 0 0 154 36;" xml:space="preserve">
<style type="text/css">
	.st0{fill:#1A2959;}
	.st1{fill:#666666;}
	.st2{fill:#FFFFFF;}
	.st3{fill:#06FFD5;}
	.st4{fill:#E9F6F6;}
	.st5{fill:#AADDDD;}
	.st6{fill:#B6E5F5;}
	.st7{opacity:0.17;fill:none;stroke:#C2C6D3;stroke-width:30;stroke-miterlimit:10;}
	.st8{fill:#39DBD0;}
	.st9{fill:#4E82F7;}
	.st10{fill:#AAEBEB;}
	.st11{fill:#67D4E4;}
	.st12{fill:#71C0E6;}
	.st13{fill:#FEFEFE;}
	.st14{fill:#FBD62E;}
	.st15{fill:#FAD52E;}
	.st16{fill:#5FB8E0;}
	.st17{fill:#5FB7DF;}
	.st18{fill:#449D84;}
	.st19{fill:#9BFFEE;}
	.st20{fill:#C5EAF7;}
	.st21{fill:#2A94F4;}
	.st22{fill:#0E538C;}
	.st23{fill-rule:evenodd;clip-rule:evenodd;fill:#B6E5F5;}
	.st24{fill-rule:evenodd;clip-rule:evenodd;fill:#0A3C5F;}
	.st25{fill-rule:evenodd;clip-rule:evenodd;fill:#CC346F;}
	.st26{fill-rule:evenodd;clip-rule:evenodd;fill:#1A2959;}
	.st27{fill:#E5AB83;}
	.st28{fill:#EFB68F;}
	.st29{fill:#1989DD;}
	.st30{fill:#FFBE55;}
	.st31{fill:#F7C39F;}
	.st32{fill:#34A2F4;}
	.st33{fill:#00A48E;}
	.st34{fill:#7FCF5F;}
	.st35{fill:url(#SVGID_1_);}
	.st36{fill:url(#SVGID_00000054254087246762445470000005644328281129751177_);}
	.st37{fill:url(#SVGID_00000115515800322735013300000017461720351247196317_);}
	.st38{fill:url(#SVGID_00000083090495873634545500000016719735855457455756_);}
	.st39{fill:url(#SVGID_00000061438209675087386000000017576309266849648297_);}
	.st40{fill:url(#SVGID_00000156582494915411697210000002622131659458375560_);}
	.st41{fill:url(#SVGID_00000094612981922231005960000003919706905108722335_);}
	.st42{fill:url(#SVGID_00000021833909275833699550000012516650189515232652_);}
	.st43{fill:url(#SVGID_00000028285426613738086190000010201326995338225041_);}
	.st44{fill:url(#SVGID_00000002367273771334126220000016541591441285671094_);}
	.st45{fill:url(#SVGID_00000136372719274990113760000005823942685852005279_);}
	.st46{fill:#00BF95;}
	.st47{fill:#004032;}
	.st48{fill:#00FFC6;}
</style>
<g>
	<g>
		<path class="st1" d="M51.1,33.1c0-4.6,0-9.3,0-13.9c0-0.6,0.1-0.6-0.6-0.6c-2.4,0-4.7,0-7.1,0c-0.1,0-0.2,0-0.5,0
			c0.5-0.3,0.8-0.6,1.2-0.9c1.7-1.2,3.5-2.4,5.2-3.7c1.3-0.9,2.6-1.8,3.8-2.7c0.2-0.1,0.3-0.3,0.3-0.6c0-1.8,0-3.5,0-5.3
			c0-0.3,0.1-0.4,0.4-0.4c2.6,0,5.2,0,7.7,0c0.2,0,0.4,0,0.6-0.2c0.8-0.6,1.7-1.3,2.6-1.9C64.7,3,64.8,3,64.8,2.8c0.1,0,0.2,0,0.3,0
			c0,0.2,0.1,0.2,0.2,0.3c2.1,1.4,4.3,2.7,6.4,4.1C72.9,8,74,8.7,75.2,9.5c1.2,0.8,2.5,1.6,3.7,2.4c0.1,0.1,0.2,0.1,0.3,0.2
			c-0.2,0-0.3,0-0.4,0c-1.1,0-2.3,0-3.4,0c-0.5,0-0.8-0.1-1.2-0.4c-2.3-1.5-4.7-3-7-4.5c-0.6-0.4-1.2-0.8-1.8-1.2
			c-0.2-0.1-0.3-0.1-0.5,0c-1,0.8-2.1,1.5-3.2,2.2c-1.8,1.2-3.5,2.5-5.2,3.7c-1.5,1-2.9,2.1-4.4,3.1c-0.4,0.3-0.7,0.5-1.1,0.8
			c-0.1,0-0.2,0.1-0.2,0.2c0.1,0.1,0.2,0,0.3,0c0.8,0,1.5,0,2.3,0c0.2,0,0.3,0.1,0.3,0.3c0,0.5,0,1.1,0,1.6c0,4,0,8.1,0,12.1
			c0,0.4,0,0.4,0.4,0.4c6.3,0,12.6,0,19,0c0.4,0,0.7,0.1,1,0.3c1.3,0.7,2.5,1.3,3.8,2c0.1,0.1,0.2,0.1,0.2,0.2
			C69.2,33.1,60.1,33.1,51.1,33.1z"/>
		<path class="st1" d="M94.9,21.1c-0.3,0.8-0.6,1.5-1,2.3c-0.5,1.2-1,2.4-1.5,3.6c0,0,0,0.1,0,0.1c-0.3,0.2-0.7,0.1-1.1,0.1
			c-0.2,0-0.2-0.1-0.3-0.3c-0.8-1.9-1.5-3.8-2.3-5.7c0,0,0-0.1-0.1-0.1c-0.1,0.7-0.2,1.3-0.3,2c-0.2,1.1-0.3,2.1-0.5,3.2
			c0,0.2-0.1,0.5-0.1,0.7c0,0.2-0.1,0.2-0.3,0.2c-0.8,0-1.6,0-2.3,0C85,27.3,85,27.1,85,27c0.2-1.1,0.4-2.2,0.6-3.4
			c0.3-1.5,0.5-3.1,0.8-4.6c0.1-0.8,0.3-1.5,0.4-2.3c0-0.2,0.1-0.2,0.3-0.2c0.8,0,1.6,0,2.3,0c0.2,0,0.2,0.1,0.3,0.2
			c0.6,1.6,1.2,3.3,1.9,4.9c0.1,0.2,0.1,0.4,0.2,0.5c0.1,0,0.1-0.1,0.2-0.2c0.7-1.7,1.4-3.5,2.1-5.2c0.1-0.2,0.2-0.3,0.4-0.3
			c0.8,0,1.5,0,2.3,0c0.2,0,0.3,0,0.3,0.3c0.2,1.4,0.4,2.8,0.7,4.2c0.3,2,0.6,4,0.9,6c0,0.2,0,0.4-0.3,0.4c-0.7,0-1.5,0-2.2,0
			c-0.2,0-0.3-0.1-0.3-0.3c-0.1-1.2-0.3-2.3-0.5-3.5C95.2,22.7,95.1,21.9,94.9,21.1C95,21.1,95,21.1,94.9,21.1z"/>
		<path class="st1" d="M82.5,21.5c0.4,0.1,0.7,0.2,1,0.3c0.7,0.3,1,0.9,1.1,1.6c0.1,0.5,0.1,1,0,1.6c-0.2,1.1-0.9,1.7-1.9,2
			c-0.6,0.2-1.3,0.3-2,0.3c-1.3,0-2.7,0-4,0c-0.2,0-0.3-0.1-0.3-0.3c0-3.4,0-6.8,0-10.2c0-0.2,0.1-0.3,0.3-0.3c1.3,0,2.6,0,3.9,0
			c0.6,0,1.2,0.1,1.8,0.4c0.6,0.3,1,0.8,1.1,1.4c0.2,0.7,0.2,1.3,0,2C83.3,20.8,83,21.2,82.5,21.5z M79.2,23.9c0,0.3,0,0.6,0,1
			c0,0.1,0,0.2,0.2,0.2c0.5,0,1.1,0,1.6-0.1c0.6-0.2,0.9-0.5,0.8-1.2c-0.1-0.6-0.4-0.9-1-1c-0.4-0.1-0.9,0-1.3-0.1
			c-0.2,0-0.3,0.1-0.3,0.3C79.2,23.4,79.2,23.7,79.2,23.9z M79.7,20.7c0.1,0,0.2,0,0.3,0c0.6-0.1,1-0.4,1-0.9c0-0.7-0.2-1-0.8-1.1
			c-0.3-0.1-0.5,0-0.8-0.1c-0.2,0-0.2,0.1-0.2,0.3c0,0.4,0,0.9,0,1.3C79.2,20.7,79.1,20.6,79.7,20.7z"/>
		<path class="st1" d="M109.1,27.3c-0.4,0-0.8,0-1.2,0c-0.2,0-0.4-0.1-0.4-0.3c-0.1-0.4-0.3-0.9-0.5-1.3c-0.1-0.2-0.2-0.3-0.4-0.3
			c-1.1,0-2.2,0-3.3,0c-0.2,0-0.3,0.1-0.4,0.3c-0.2,0.4-0.3,0.9-0.5,1.3c-0.1,0.2-0.2,0.3-0.4,0.3c-0.8,0-1.6,0-2.4,0
			c-0.3,0-0.3-0.1-0.2-0.3c0.8-2.1,1.6-4.2,2.4-6.2c0.5-1.3,1-2.7,1.5-4c0.1-0.2,0.2-0.3,0.4-0.3c0.8,0,1.7,0,2.5,0
			c0.2,0,0.3,0.1,0.4,0.3c1.3,3.3,2.5,6.7,3.8,10c0.2,0.6,0.3,0.6-0.4,0.6C109.7,27.3,109.4,27.3,109.1,27.3z M105,19.7
			c-0.4,1.1-0.8,2.2-1.1,3.3c-0.1,0.2,0,0.2,0.2,0.2c0.6,0,1.2,0,1.8,0c0.2,0,0.3-0.1,0.2-0.3c-0.1-0.3-0.2-0.6-0.3-0.9
			C105.5,21.3,105.3,20.6,105,19.7z"/>
		<path class="st1" d="M75.5,27.3c-1,0-1.9,0-2.9,0c-0.2,0-0.2-0.1-0.2-0.2c-0.2-0.5-0.3-0.9-0.5-1.4c-0.1-0.2-0.2-0.3-0.4-0.2
			c-1.1,0-2.2,0-3.3,0c-0.2,0-0.3,0.1-0.4,0.3c-0.2,0.4-0.3,0.9-0.5,1.3c-0.1,0.2-0.2,0.3-0.4,0.3c-0.8,0-1.5,0-2.3,0
			c-0.4,0-0.4,0-0.3-0.4c0.5-1.2,0.9-2.3,1.4-3.5c0.7-1.8,1.4-3.6,2.1-5.4c0.2-0.4,0.3-0.9,0.5-1.3c0.1-0.2,0.2-0.2,0.4-0.2
			c0.9,0,1.7,0,2.6,0c0.2,0,0.3,0.1,0.3,0.3c0.5,1.3,1,2.6,1.4,3.8c0.5,1.4,1,2.7,1.6,4.1C74.8,25.5,75.1,26.4,75.5,27.3z
			 M69.9,19.9c-0.1,0-0.1,0.1-0.1,0.1c-0.3,1-0.7,2.1-1,3.1c-0.1,0.2,0.1,0.2,0.2,0.2c0.5,0,1.1,0,1.6,0c0.4,0,0.4,0,0.3-0.4
			c-0.2-0.5-0.4-1.1-0.5-1.6C70.2,20.8,70,20.3,69.9,19.9z"/>
		<path class="st1" d="M62.6,23c0,1.3,0,2.6,0,3.8c0,0.3-0.1,0.4-0.4,0.4c-0.7,0-1.4,0-2.1,0c-0.3,0-0.4-0.1-0.4-0.4
			c0-2.6,0-5.1,0-7.7c0-0.3-0.1-0.4-0.4-0.4c-0.5,0-1.1,0-1.6,0c-0.2,0-0.3-0.1-0.3-0.3c0-0.6,0-1.2,0-1.9c0-0.2,0-0.3,0.3-0.3
			c2.3,0,4.7,0,7,0c0.2,0,0.3,0.1,0.3,0.3c0,0.6,0,1.3,0,1.9c0,0.2-0.1,0.3-0.3,0.3c-0.6,0-1.2,0-1.8,0c-0.2,0-0.3,0.1-0.3,0.3
			C62.6,20.4,62.6,21.7,62.6,23z"/>
	</g>
	<g>
		<path class="st1" d="M81.7,33.1h-0.8l0.9-4h1l0.9,4h-0.8l-0.1-0.9h-0.9L81.7,33.1z M82,31.6h0.7l-0.3-1.7h0L82,31.6z"/>
		<path class="st1" d="M84.8,29.1h0.8v3c0,0.3,0.1,0.4,0.4,0.4c0.3,0,0.4-0.1,0.4-0.4v-3h0.8v3c0,0.7-0.5,1.1-1.3,1.1
			c-0.8,0-1.3-0.4-1.3-1.1V29.1z"/>
		<path class="st1" d="M90.3,30.1c0-0.3-0.3-0.4-0.4-0.4c-0.3,0-0.4,0.1-0.4,0.4c0,0.7,1.7,1,1.7,2.1c0,0.7-0.5,1-1.3,1
			c-0.8,0-1.2-0.5-1.3-1.1l0.8-0.1c0,0.4,0.2,0.6,0.5,0.6c0.3,0,0.5-0.1,0.5-0.4c0-0.8-1.7-1-1.7-2.1c0-0.6,0.5-1,1.3-1
			c0.7,0,1.1,0.4,1.2,1L90.3,30.1z"/>
		<path class="st1" d="M92.8,29.7H92v-0.6h2.5v0.6h-0.8v3.4h-0.8V29.7z"/>
		<path class="st1" d="M96.3,33.1h-0.8v-4h1.2c0.9,0,1.4,0.3,1.4,1.2c0,0.6-0.3,0.9-0.6,1l0.7,1.8h-0.9l-0.6-1.6c-0.1,0-0.3,0-0.4,0
			V33.1z M96.3,30.9h0.3c0.5,0,0.6-0.1,0.6-0.6c0-0.5-0.2-0.6-0.6-0.6h-0.3V30.9z"/>
		<path class="st1" d="M99.9,33.1h-0.8l0.9-4h1l0.9,4h-0.8l-0.1-0.9H100L99.9,33.1z M100.2,31.6h0.7l-0.3-1.7h0L100.2,31.6z"/>
		<path class="st1" d="M102.9,33.1v-4h0.8v3.4h1.3v0.6H102.9z"/>
		<path class="st1" d="M106.3,33.1v-4h0.8v4H106.3z"/>
		<path class="st1" d="M109.1,33.1h-0.8l0.9-4h1l0.9,4h-0.8l-0.1-0.9h-0.9L109.1,33.1z M109.3,31.6h0.7l-0.3-1.7h0L109.3,31.6z"/>
	</g>
</g>
</svg>
